<svg xmlns="http://www.w3.org/2000/svg" width="56" height="56"><path fill="#0069B4" d="M0 0h56v56H0z"/><path fill="#fff" d="m14.103 33 .438-1.696h3.504L19 34.336 8.05 38 4 25.17 16.462 21l.629 2h-1.793L12.43 33zm2.232-7.23L17.612 30h-2.555zM31.81 26.478c-.183-.762-.734-1.819-2.18-1.819-1.74 0-2.462 1.685-2.462 3.34 0 1.658.723 3.343 2.462 3.343 1.163 0 2.217-.842 2.217-2.342h-1.848v-1.442h3.342V33h-1.42v-1.057c-.576.71-1.532 1.056-2.291 1.056-2.793 0-4.177-2.313-4.177-5S27.021 23 29.63 23c1.776 0 3.05.976 3.711 2.794l-1.53.684zM42.908 28c0 2.687-1.6 5-4.265 5-2.66 0-4.26-2.313-4.26-5s1.6-5 4.26-5c2.665 0 4.265 2.314 4.265 5m-6.775 0c0 1.658.739 3.343 2.51 3.343 1.776 0 2.514-1.685 2.514-3.344 0-1.655-.738-3.34-2.514-3.34-1.771 0-2.51 1.685-2.51 3.34zM25 31.257h-4.591v-2.584h3.59V27h-3.59v-2.258h4.59V23h-6.308v4.722L20.256 33H25zM49.436 23v6.76L45.633 23H44v10h1.564v-6.857L49.424 33H51V23zM45 35H21l.296 1H45z"/></svg>