<svg xmlns="http://www.w3.org/2000/svg" width="56" height="56"><path fill="#D71920" d="M0 0h56v56H0z"/><path fill="#fff" d="M24.132 28.674c-1.632 4.044-3.476 8.656-5.109 12.559.284.142.497.354.78.496l5.393-10.005zm2.128-5.25 1.703 3.192 1.774-3.193c-.993-2.483-1.703-4.115-1.774-4.257 0 .142-.71 1.774-1.703 4.257zm5.393 4.753a269 269 0 0 1-1.703-4.257l-1.419 3.689 1.703 3.122 1.42-2.554z"/><path fill="#fff" d="m27.893 18.6.07-.143s.072.142.143.142l11.282 20.648C42.226 36.337 44 32.363 44 27.965c0-8.798-7.166-15.964-16.036-15.964C19.166 12 12 19.167 12 27.965c0 4.399 1.774 8.373 4.612 11.282l11.281-20.648z"/><path fill="#fff" d="m29.028 36.692 3.619 6.6c.212-.072.496-.143.78-.285l-3.477-9.011zm-1.064 2.837-1.49 4.4c.496 0 .993.07 1.49.07.567 0 1.064-.07 1.56-.07zm3.902-10.856L30.8 31.724l5.393 10.005q.365-.285.78-.496c-1.631-3.903-3.476-8.586-5.108-12.56zm-5.819 5.322-3.476 9.011c.284.143.567.213.781.285l3.618-6.6zm3.264-1.56-1.348-3.477-1.276 3.476 1.276 2.413zm-4.966-4.258 1.419 2.554 1.703-3.122-1.42-3.69a252 252 0 0 1-1.702 4.258"/></svg>