<svg xmlns="http://www.w3.org/2000/svg" width="56" height="56"><path fill="#F0F3FA" d="M0 0h56v56H0z"/><path fill="#1B4B7B" fill-rule="evenodd" d="M28 42c3.18 0 6.13-.83 8.6-2.23-.21 0-.44.11-.74.26l-.02.02c-.26.13-.59.3-.93.3-.33 0-.66-.17-.93-.3l-.02-.02a1.8 1.8 0 0 0-.75-.26c-.22 0-.45.11-.75.26l-.02.02c-.26.13-.59.3-.93.3-.33 0-.66-.17-.93-.3l-.02-.02a1.8 1.8 0 0 0-.75-.26c-.22 0-.45.11-.75.26l-.02.02c-.26.13-.59.3-.93.3-.31 0-.51-.15-.67-.27l-.09-.06a1.5 1.5 0 0 0-.94-.25c-.51 0-.75.13-.93.25l-.09.06c-.16.12-.36.27-.68.27-.33 0-.66-.17-.93-.3l-.02-.02a1.8 1.8 0 0 0-.75-.26c-.22 0-.45.11-.75.26l-.02.02c-.26.13-.59.3-.93.3-.31 0-.51-.15-.67-.27l-.09-.06a1.5 1.5 0 0 0-.94-.25h-.2A17.4 17.4 0 0 0 28 42m8.61-2.7c.2 0 .38.06.56.13.5-.3.96-.63 1.41-.98-.2.02-.43.12-.7.25l-.03.01c-.28.13-.62.29-.97.29s-.69-.16-.96-.29l-.03-.01c-.3-.15-.55-.26-.78-.26-.22 0-.47.11-.78.26l-.02.01c-.28.13-.61.29-.97.29-.35 0-.69-.16-.96-.29l-.03-.01c-.3-.15-.55-.26-.78-.26-.22 0-.47.11-.78.26l-.02.01c-.28.13-.61.29-.97.29-.35 0-.69-.16-.96-.29l-.03-.01c-.3-.15-.55-.26-.78-.26-.22 0-.47.11-.77.26l-.03.01c-.28.13-.61.29-.97.29-.32 0-.53-.14-.7-.26l-.09-.06-.08-.04c-.14-.04-.28-.1-.4-.15a2.4 2.4 0 0 0-.5-.05c-.2 0-.36.02-.5.05-.11.06-.25.1-.4.15l-.07.04-.09.06c-.17.12-.38.26-.7.26-.36 0-.7-.16-.97-.29l-.03-.01c-.3-.15-.55-.26-.77-.26-.23 0-.48.11-.78.26l-.03.01c-.27.13-.61.29-.96.29-.33 0-.54-.14-.71-.26l-.09-.06a1.65 1.65 0 0 0-.97-.24c.44.36.92.69 1.41 1 .2-.08.46-.13.78-.13a1.94 1.94 0 0 1 1.32.41c.15.11.23.16.38.16.22 0 .46-.1.75-.26l.02-.01c.27-.14.6-.3.93-.3.34 0 .67.16.93.3l.02.01c.3.15.53.26.75.26.16 0 .24-.05.39-.16l.13-.09c.24-.16.57-.32 1.18-.32a1.94 1.94 0 0 1 1.32.41c.15.11.22.16.38.16.22 0 .46-.1.75-.26l.02-.01c.27-.14.6-.3.93-.3.34 0 .67.16.93.3l.02.01c.3.15.53.26.75.26s.46-.1.75-.26l.02-.01c.27-.14.6-.3.93-.3.34 0 .67.16.93.3l.02.01c.3.15.53.26.75.26s.46-.1.75-.26l.02-.01c.27-.14.6-.3.93-.3Zm-19.73-1.29C13.86 35.43 12 31.85 12 28c0-7.5 7.08-14 16-14s16 6.5 16 14c0 3.87-1.89 7.48-4.95 10.06a1.4 1.4 0 0 0-1.05.09V35.5h-2v2.75a2.2 2.2 0 0 0-.89-.25c-.2 0-.4.05-.57.12L35.1 36H20.96l.57 2.12a1.7 1.7 0 0 0-.57-.12c-.36 0-.7.16-.97.29l-.02.01-.07.03c.06-.1.1-.2.1-.33v-2.6h-2v2.65a3 3 0 0 0-.58-.05zm23.06.67A14.15 14.15 0 0 0 45 28c0-8.28-7.61-15-17-15s-17 6.72-17 15 7.61 15 17 15c4.51 0 8.6-1.55 11.65-4.08l.02.01zM27 17l1-1 1 1zm.5 2v-1h1v1zm-1.24.5h3.54l-.8 1h-2zM27 21v2h2v-2zm-1 3.98.5-.98h3l.5 1zm-1 .52.5.5h5l.5-.5zm-.5 9.5 1-8h5l1.07 8zm-7-1h3l-.5 1h-2zm18 0h3l-.5 1h-2zM20.75 16.26l3.96 2.3-.22.41-3.97-2.3.23-.4ZM14.36 22l10.2-1.73.08.46-10.2 1.73zm-1.23 9.28 11.33-8.66.28.37-11.34 8.66zm18.3-12.51 3.96-2.3.23.4-3.97 2.3-.23-.4Zm.14 1.7 10.2 1.73-.07.46-10.2-1.73zm.1 2.35 11.34 8.66-.28.37-11.33-8.66z"/></svg>