<svg xmlns="http://www.w3.org/2000/svg" width="56" height="56"><path fill="#F26E20" d="M0 0h56v56H0z"/><path fill="#fff" d="M41.013 29.948a14.9 14.9 0 0 0 4.34-1.881c-.1-.343-.249-.223-.422-.112a7.8 7.8 0 0 1-2.837 1.338c-.245.049-.397.027-.52-.236-.164-.348-.371-.674-.574-1.026.802-.218 1.609-.362 2.225-1.031h-1.408l-.061-.765-.756-.05v-3.167h4.134l-.084-.63L47.392 22c.038.125.076.227.106.334.16.638.16.666.793.666H52v3.163l-1 .036V27h-.388l1.071 1.227L49.8 29.85l2.2 2.1-1.423 1.783-1.917-1.619c-.034.21-.055.375-.089.54a1.34 1.34 0 0 1-.387.852 1.2 1.2 0 0 1-.829.356c-.604.076-1.216.116-1.824.138a.58.58 0 0 1-.422-.223c-.241-.294-.401-.793-.684-.891-.283-.099-.68.214-1.026.347-.347.134-.744.295-1.12.406-.097.031-.232-.067-.35-.111 0 0-.025-.04-.042-.063L41 32.128c.127-.045.228-.094.338-.12a13.9 13.9 0 0 0 4.535-2.158c.089-.063.127-.2.186-.303a1 1 0 0 0-.33.084 11.2 11.2 0 0 1-3.521 1.784.34.34 0 0 1-.411-.092.4.4 0 0 1-.075-.136c-.215-.419-.456-.807-.71-1.239zm8.301-4.69c.08-.29.043-.418-.24-.418H43.69c-.089 0-.173.129-.262.2.089.067.173.196.262.196h2.871l2.753.023zm-1.765 1.784c.144.245.275.477.423.704a.2.2 0 0 0 .177.076c.366-.184.933-.82.933-.82H47.53s.078 0 .02.022v.018zM45.6 32.27c.582.183.962-.075.874-.588zM20.673 26H23v1h3v2.195c-.111 0-.04.022-.163.022H23.32c-.304 0-.317.157-.321.407s.038.38.33.376H27v2.236h-3.624c-.286 0-.393.085-.376.389V34h-2.432v-1.024c0-.523 0-.736-.484-.736H16V30h4.538v-.783h-3.533v-2.184c0-.067.09-.134.141-.197l.856-1.14H16v-2.191h3.101a.6.6 0 0 0 .402-.228q.378-.544.68-1.087c.107-.174.2-.241.427-.148.586.264 1.185.506 1.805.77l-.427.657c.166 0 .286.027.427.027h4.209c.278 0 .389.062.376.376-.021.617 0 1.158 0 1.82h-6a.6.6 0 0 0-.327.061.6.6 0 0 0-.246.234c-.201.313-.428.646-.69 1.004h.94L20.674 26zM28 31.98c.494-.646 1.032-1.36 1.61-2.03a1.4 1.4 0 0 1 .729-.503c.289-.083.596-.068.876.042.13.04.27.032.395-.023 1.584-.724 3.029-1.57 4.264-2.828.049-.05.089-.115.182-.24H29V24h3.49l-.275-1.645c.89-.124 1.72-.249 2.57-.355.075 0 .213.12.24.212q.173.624.293 1.255c.05.258.138.533.418.528h2.872c.258 0 .414.06.392.346 0 .659.053 1.272-.163 1.909-.123.36-.322.686-.584.955-1.237 1.507-2.336 2.61-3.993 3.59a3 3 0 0 0-.195.12c-.063.04 0 .045-.072.165q.593.225 1.205.378c1.48.286 2.966.12 4.446 0l.356-.032c-.124.65-.28 1.268-.342 1.896-.05.488-.276.608-.698.627-1.779.078-3.53.133-5.26-.36a5.8 5.8 0 0 1-2.032-1.015c-.405-.322-.57-.313-.89.083-.32.397-.648.858-.982 1.306zm-13.783-6.617V27H9.175l-.053-.698-.474.698L7 25.537c.338-.52.7-1.001.98-1.53s.52-1.184.783-1.78c.041-.093.148-.231.218-.227.709.04 1.418.111 2.163.174l-.276.826H15v2h-4.655c-.157.028-.31.132-.453.207l.037.147zm.923 5.202c.172.743.34 1.438.486 2.132a.46.46 0 0 1-.107.346 3.4 3.4 0 0 1-1.841.933c-.25.054-.51.016-.736-.107a1.1 1.1 0 0 1-.499-.565 9.6 9.6 0 0 1-.524-1.898 7 7 0 0 1-.065-1.46c0-.323-.103-.399-.4-.394H7.399v-2.16H14v1.952c0 .526.034 1.053.077 1.575 0 .133.099.354.18.367a.58.58 0 0 0 .43-.164q.248-.26.452-.557zM5.828 33.94 4 32.566l1.566-3.659c.589.332 1.196.673 1.798 1.022a.27.27 0 0 1 .107.23 17.3 17.3 0 0 1-1.643 3.783zm-.43-8.547 2.254 1.425-1.36 1.924-2.28-1.513zM4.24 24.04c.43-.545.835-1.076 1.26-1.589a.36.36 0 0 1 .327-.097c.706.332 1.403.686 2.151 1.057L6.58 25.327z"/></svg>