<svg xmlns="http://www.w3.org/2000/svg" width="56" height="56"><path fill="#8A0051" d="M0 0h56v56H0z"/><path fill="#EAC102" d="M41.983 28.822a2 2 0 0 0-.033-.215 4 4 0 0 0-.13-.424 4 4 0 0 0-.208-.422 5 5 0 0 0-.283-.436 2 2 0 0 0-.197-.232 3 3 0 0 0-.247-.234c-.2-.16-.398-.324-.615-.458-.476-.295-.95-.602-1.46-.83-.616-.274-1.213-.599-1.848-.822l-4.285-1.505c0-.825.023-1.649 0-2.473a77 77 0 0 0-.179-3.665 33 33 0 0 0-.297-2.537c-.102-.656-.256-1.304-.4-1.951-.033-.15-.082-.293-.131-.436a6 6 0 0 0-.298-.722 4 4 0 0 0-.336-.541 2.7 2.7 0 0 0-.527-.53 1.96 1.96 0 0 0-.934-.37 2 2 0 0 0-.206-.017c-.118-.002-.236-.004-.353.004a3 3 0 0 0-.762.152q-.205.07-.399.166a6.4 6.4 0 0 0-.84.532c-.239.181-.482.358-.7.564a91 91 0 0 0-2.632 2.604c-.458.473-.902.961-1.317 1.471-1.651 2.022-3.295 4.05-4.883 6.124-.705.92-1.339 1.893-1.992 2.85a10 10 0 0 0-.456.74c-.244.443-.473.894-.697 1.348a4 4 0 0 0-.148.367 4 4 0 0 0-.113.36 2 2 0 0 0-.073.677c.004.055.02.11.037.16q.03.084.073.163.05.084.109.16.063.084.134.159.157.159.33.304.177.148.367.277c.223.148.454.286.683.422.1.059.207.11.309.164.036.018-.073-.039-.108-.059-.005-.001-.016-.008-.013-.007l.018.01.17.089c1.41.745 2.827 1.48 4.232 2.238 1.411.76 2.823 1.524 4.217 2.317l3.135 1.782c-1.089.834-2.198 1.639-3.265 2.5a14.3 14.3 0 0 0-2.004 2.02 9 9 0 0 0-.589.837 6 6 0 0 0-.379.704 5 5 0 0 0-.214.568 3 3 0 0 0-.096.415c-.014.084-.017.17-.022.257-.001.03.004.059.004.088.002.078-.002.155.002.232a2 2 0 0 0 .209.78c.029.056.058.113.096.163.072.1.145.2.231.287q.13.132.28.241.15.11.314.199.165.089.338.161c.115.049.231.1.353.127.438.098.879.187 1.324.248.217.03.439.043.657.025.758-.06 1.515-.138 2.266-.258a44 44 0 0 0 2.613-.517 76 76 0 0 0 3.056-.735c.716-.19 1.444-.36 2.129-.643.54-.222 1.085-.435 1.62-.668.12-.052.234-.12.347-.187q.154-.09.299-.195a2 2 0 0 0 .243-.198 1.4 1.4 0 0 0 .175-.2 1.1 1.1 0 0 0 .175-.394.9.9 0 0 0 .002-.369 1.2 1.2 0 0 0-.128-.335 1.7 1.7 0 0 0-.21-.294 2.7 2.7 0 0 0-.476-.425 4 4 0 0 0-.242-.16c-.558-.34-1.114-.687-1.676-1.022l-2.353-1.406c1.429-.98 2.871-1.943 4.288-2.944.605-.428 1.2-.87 1.775-1.34.492-.402.96-.833 1.419-1.272.218-.209.412-.44.61-.67q.134-.157.252-.328c.072-.102.145-.205.202-.318.184-.37.366-.742.52-1.126.061-.156.087-.325.122-.49A2.5 2.5 0 0 0 42 29.04a4 4 0 0 0-.017-.218m-17.57-9.732c.798-.837 1.598-1.673 2.41-2.497.148-.15.312-.285.47-.425q.084-.072.172-.14.067-.053.138-.101a.7.7 0 0 1 .23-.095.6.6 0 0 1 .135-.005q.035.001.068.015a.4.4 0 0 1 .133.075.7.7 0 0 1 .128.147c.021.034.044.069.058.107q.06.152.1.312.055.227.09.461.087.57.153 1.14c.055.493.094.987.139 1.481l.242 2.63-2.896-.675-2.703-.45-.654-.05-.212-.006c.6-.642 1.194-1.288 1.8-1.924zm-1.816 3.657.01-.016.016-.009.022-.002.035.005.101.03.262.101.357.16 2.76 1.194q.916.393 1.83.788l1.206.52.107.05c.065.963.144 1.926.194 2.89.04.754.056 1.509.074 2.263.002.096-.005.19-.012.285a2 2 0 0 1-.016.16 1 1 0 0 1-.034.157 1 1 0 0 1-.057.148 1 1 0 0 1-.089.127.6.6 0 0 1-.128.1.6.6 0 0 1-.174.062.9.9 0 0 1-.24.006 1 1 0 0 1-.13-.025 1 1 0 0 1-.133-.041 3 3 0 0 1-.275-.134 3 3 0 0 1-.291-.192 4 4 0 0 1-.299-.245 5 5 0 0 1-.303-.292 14 14 0 0 1-.608-.695c-.35-.432-.713-.857-1.02-1.32-.423-.64-.858-1.272-1.27-1.919-.245-.386-.498-.77-.702-1.182l-.93-1.863-.2-.594-.046-.177-.028-.17-.002-.123zm10.274 16.518c.251.16.503.318.75.483.319.212.639.424.948.65.222.162.435.338.645.518q.139.12.264.257c.068.075.127.156.188.238a.03.03 0 0 1 .003.018.1.1 0 0 1-.006.043.1.1 0 0 1-.015.023.1.1 0 0 1-.03.02.5.5 0 0 1-.113.023c-1.22.093-2.444.178-3.665.275l-4.772.38-.149.009.069-.075.3-.27c.62-.464 1.218-.958 1.857-1.396l2.702-1.853q.511.327 1.024.657m3.676-9.505a.8.8 0 0 1-.138.264 3 3 0 0 1-.26.28c-.2.184-.397.373-.617.531-.759.544-1.51 1.101-2.277 1.632-.528.366-1.073.708-1.613 1.058l-3.135 2.038-1.332-.772-5.678-3.283c-1.282-.775-2.572-1.537-3.846-2.326-.24-.149-.465-.321-.695-.486-.073-.053-.14-.113-.21-.168-.022-.017-.047-.033-.067-.051a3 3 0 0 1-.142-.14.9.9 0 0 1-.133-.213.6.6 0 0 1-.036-.129.5.5 0 0 1 0-.139.8.8 0 0 1 .107-.297 2.7 2.7 0 0 1 .438-.579c.733-.763 1.478-1.516 2.215-2.277l1.988-2.051.094.331.242.583.016.035c.525.922 1.019 1.862 1.576 2.764.64 1.037 1.328 2.044 2.015 3.05q.484.706 1.014 1.38c.309.388.628.77.974 1.126.304.312.637.597.975.872.168.136.356.245.54.357a3 3 0 0 0 .82.316 1.83 1.83 0 0 0 .902-.02 1.4 1.4 0 0 0 .481-.233 1.842 1.842 0 0 0 .415-.4 3 3 0 0 0 .188-.284 4 4 0 0 0 .363-.796c.099-.305.193-.612.269-.925.1-.422.213-.845.258-1.278l.257-2.505c.587.277 1.188.528 1.762.831.56.296 1.098.638 1.642.964q.095.06.18.131.122.102.233.216a.9.9 0 0 1 .181.276q.029.075.042.155.006.04.002.08a.3.3 0 0 1-.01.082"/></svg>