<svg xmlns="http://www.w3.org/2000/svg" width="56" height="56"><path fill="gold" d="M0 0h56v56H0z"/><path fill="#08090D" d="M43.831 35.944c.108.135.297-.027.216-.161l-12.484-21.53-2.351-4.065A.42.42 0 0 0 28.86 10a.32.32 0 0 0-.297.242l-3.405 11.304c-.54 1.776.81 3.552 2.648 3.552h3.405c1.973 0 3.865.862 5.162 2.342z"/><path fill="#08090D" d="m22.807 22.273 2.648-8.801c.055-.162-.162-.242-.243-.108l-15.16 26.133c-.108.188-.027.323.054.404.081.08.216.161.405.08l.055-.026 13.457-4.926a2.73 2.73 0 0 0 1.433-3.956l-2.027-3.445a6.86 6.86 0 0 1-.622-5.355"/><path fill="#08090D" d="M45.642 41.973a.34.34 0 0 0 .324-.215c.027-.081.081-.216-.054-.377L35.778 29.835c-1.243-1.426-3.54-1.21-4.486.43l-1.918 3.338a6.94 6.94 0 0 1-3.567 2.987l-14.08 5.14c-.135.055-.108.27.054.27l33.86-.027z"/></svg>