<svg xmlns="http://www.w3.org/2000/svg" width="56" height="56"><path fill="#0A003D" d="M0 0h56v56H0z"/><path fill="#776AA9" d="M23.42 26.1c-3.98-6.62-7.47-5.09-8.46-4.58 2.48-.51 5.07 3.56 6.37 5.6 4.82 8.03 8.06 5.49 8.06 5.49-2.49-.4-2.2-.26-5.97-6.51m10.95 0c-3.98-6.6-7.47-5.08-8.46-4.57 2.49-.51 5.08 3.56 6.37 5.6 4.82 8.03 8.07 5.49 8.07 5.49-2.5-.4-2.21-.26-5.98-6.51zm11.16 0c-3.99-6.6-7.47-5.08-8.47-4.57 2.49-.51 5.08 3.56 6.37 5.6 4.82 8.03 8.07 5.49 8.07 5.49-2.49-.4-2.21-.26-5.97-6.51z"/><path fill="#B586B6" d="M31.98 27.13c-1.74 2.91-2.88 5.6-5.37 5.6 3.48 1 5.53-1.7 7.7-4.93 1.28-1.93 2.75-4.34 4.74-5.86-2.72-1.95-4.97 1.67-7.07 5.18zm-22.1-.02c-1.75 2.92-2.9 5.6-5.38 5.6 3.49 1.02 5.54-1.69 7.7-4.92 1.29-1.93 2.76-4.34 4.75-5.86-2.72-1.95-4.97 1.67-7.07 5.18m10.95.02c-1.74 2.91-2.89 5.6-5.38 5.6 3.49 1 5.54-1.7 7.7-4.93 1.3-1.93 2.76-4.34 4.75-5.86-2.72-1.95-4.97 1.67-7.07 5.18z"/></svg>