<svg xmlns="http://www.w3.org/2000/svg" width="56" height="56"><path fill="url(#a)" d="M0 0h56v56H0z"/><path fill="#fff" d="M41 32.988q-.258.727-.544 1.392a16.2 16.2 0 0 1-1.661 2.9q-1.309 1.815-2.137 2.51-1.279 1.145-2.748 1.176-1.055.002-2.538-.588-1.484-.588-2.732-.587-1.308-.001-2.81.587-1.502.59-2.427.62-1.409.06-2.81-1.207-.894-.76-2.236-2.6-1.438-1.965-2.364-4.566Q15 29.817 15 27.185q0-3.016 1.342-5.197a7.77 7.77 0 0 1 2.812-2.764 7.7 7.7 0 0 1 3.8-1.043c.746 0 1.724.225 2.94.665q1.818.666 2.332.667c.255 0 1.12-.262 2.585-.785q2.078-.727 3.515-.607 3.897.305 5.845 2.992-3.482 2.053-3.448 5.74c.021 1.915.735 3.509 2.139 4.774A7.1 7.1 0 0 0 41 32.988M34.468 11q.03.3.03.6c0 1.5-.563 2.902-1.686 4.198-1.357 1.542-2.998 2.432-4.778 2.292a5 5 0 0 1-.036-.569c0-1.44.645-2.982 1.791-4.242q.859-.957 2.18-1.592 1.323-.626 2.498-.687z"/><defs><linearGradient id="a" x1="10.418" x2="68.147" y1="9.712" y2="76.017" gradientUnits="userSpaceOnUse"><stop stop-color="#1A1E21"/><stop offset="1" stop-color="#06060A"/></linearGradient></defs></svg>