<svg xmlns="http://www.w3.org/2000/svg" width="56" height="56"><path fill="#F0F3FA" d="M0 0h56v56H0z"/><path fill="#AB9F5B" fill-rule="evenodd" d="M14 34.82V16.78A2.75 2.75 0 0 1 16.71 14H39.3c1.5 0 2.71 1.24 2.71 2.78v10.44A5.52 5.52 0 0 0 34.27 35H32.6c.22-.4.39-.92.39-1.51 0-1.33-.82-2.17-1.23-2.43.23-.3.7-1.12.7-2.03 0-2.38-2.02-3.01-3.02-3.03H24v9h-.09l-4.63-9h-.86zM26 35h3.83c.56-.15 1.2-.54 1.2-1.41 0-1.45-1.54-1.47-2.56-1.47-1.01 0-2.47.3-2.47 1.3zm12.67 0a3.6 3.6 0 0 1-3.65-3.5A3.6 3.6 0 0 1 38.7 28c.92 0 1.77.32 2.41.86l.89-1.1v6.88l-.7-.66A3.76 3.76 0 0 1 38.73 35zM26 28v3.08c.5-.43 1.27-.57 1.6-.58h1.3c.44 0 1.73-.05 1.73-1.25 0-.96-.92-1.23-1.38-1.25zm-7.08 1.3-2.48 4.94h.67a6.7 6.7 0 0 1 3.59 0h.7l-2.48-4.95ZM17 22v-3.86a7.5 7.5 0 0 1 1.26-.14c.54 0 1.53.09 1.53 1.14 0 .43-.21.73-.32.83.18.07.53.34.53.9 0 .7-.51 1.13-1.28 1.13zm.75-3.25v1h.6c.19 0 .7-.08.7-.52s-.44-.53-.7-.53c-.2 0-.48.03-.6.05m0 2.6v-1.02h.5c.26 0 .53-.06.63-.08a.6.6 0 0 1 .35.52c0 .41-.39.56-.58.58zm3.45.65h.79l.32-1h1.42l.3 1h.85l-1.36-4h-.94zm2.32-1.7-.47-1.56-.51 1.56zM26.2 22v-4h.72l2.07 2.74V18h.81v4h-.88L27 19.28V22zm7.8-3.04v-.72c-.09-.08-.4-.24-.97-.24-1.25 0-2.03.86-2.03 2.12A1.87 1.87 0 0 0 32.82 22a2.6 2.6 0 0 0 1.18-.25v-.7c-.13.07-.5.2-.97.2-.58 0-1.19-.33-1.19-1.13s.53-1.39 1.19-1.39c.52 0 .86.16.97.23M39 20c0 1.1-.78 2-1.75 2s-1.75-.9-1.75-2 .78-2 1.75-2 1.75.9 1.75 2m-.8 0c0 .7-.23 1.26-.95 1.26s-.95-.56-.95-1.26.24-1.26.95-1.26.95.56.95 1.26M14 37.12V42h2.47c.67.01 1.99-.27 1.99-1.5 0-.59-.57-.96-.85-1.07.16-.1.48-.46.48-1.17 0-.9-.98-1.26-2.24-1.26-1.02 0-1.66.08-1.85.12m1.02.72v1.25h1.08c.46 0 1-.13 1-.65 0-.5-.65-.67-1.12-.67-.38 0-.8.05-.96.07m0 3.38v-1.36h1.2c.25 0 .51-.08.61-.12.18.08.53.34.53.71 0 .63-.63.78-.95.77h-1.4Zm4.42-4.08V42h1.06v-1.75h.7c.22 0 .43-.02.63-.04L22.9 42H24l-1.2-2.05c.8-.37 1-.99.96-1.36 0-1.45-1.57-1.59-2.57-1.59-.8 0-1.5.1-1.75.14m1.06 2.31v-1.58c.74-.14 2.21-.2 2.21.68 0 .7-.64.9-.97.9zM25.52 42H24.5l2.1-5h1.26L30 42h-1.05l-.38-.89a2.85 2.85 0 0 0-1.24-.23 3.4 3.4 0 0 0-1.44.28zm1.73-3.99.95 2.25a2.53 2.53 0 0 0-1.92-.01zm3.36 3.56v-.8a6.9 6.9 0 0 0 1.92.43c.75 0 1.42-.12 1.42-.6s-.34-.65-1.17-.72c-.82-.08-2.23-.23-2.23-1.4 0-1.16 1.43-1.48 2.47-1.48 1.05 0 1.69.4 1.66.4s-.02.54 0 .8a4.8 4.8 0 0 0-1.66-.41c-.29 0-1.44 0-1.44.64 0 .5.96.64 1.44.64.64.04 1.9.2 1.9 1.3 0 1.31-1 1.63-2.22 1.63a5.3 5.3 0 0 1-2.1-.43ZM37 37h-1v5h1zm3 0h-1v5h3v-.7h-2z"/></svg>