<svg xmlns="http://www.w3.org/2000/svg" width="56" height="56" fill="none"><path fill="url(#a)" d="M0 0h56v56H0z"/><path fill="#4FED91" d="M21.662 25.368C21.197 24.87 21 24.5 21 23.533v-2.065C21 20 22 19 23.558 19c.942 0 1.862.349 2.331 1.174l-.89.6c-.32-.566-.5-.774-1.44-.774-1.06 0-1.56.5-1.56 1.468v2.067C22 24.5 22.5 25 23.56 25 24 25 25 25 25 24.095v-.408c0-.463-.227-.695-.632-.695L23.5 23v-1h1.14c.86 0 1.36.5 1.36 1.533v.638C26 25.5 25 26 23.557 26c-1.057 0-1.386-.19-1.895-.632M35 26h-1l-.424-1.625C33.41 23.682 32.82 22.96 32 23h-1v3h-1v-6.98l2.59-.02c1.41 0 2.154.477 2.154 2 0 1-.454 1.57-1.26 1.7.29.11.53.314.676.578q.28.524.415 1.097zm-2.391-3.998c.605.023 1.09-.407 1.047-1.002.045-.611-.433-1.023-1.047-1H31v2zM39 23.534v-2.068C39 20 40.076 19 41.495 19S44 20 44 21.466v2.068C44 25 42.915 26 41.495 26S39 25 39 23.534m3.993 0v-2.068c0-.966-.617-1.466-1.5-1.466-.884 0-1.5.5-1.5 1.466v2.068c0 .966.616 1.466 1.5 1.466.883 0 1.5-.5 1.5-1.466"/><path fill="#fff" d="M6.657 35.313a2.72 2.72 0 0 1-.65-1.952L6 31.63C6 30.4 7 29 8.531 29c.972 0 1.76.278 2.321.936l-.334.33c-.484-.548-1.238-.8-1.985-.8-1.301 0-2.033.934-2.033 2.164v1.734c0 1.236.774 2.17 2.043 2.17.937 0 1.96-.467 1.96-1.427v-.876c0-.607-.302-1.003-.923-.964h-.577V31.8h.642c.891 0 1.355.634 1.355 1.4v.925C11 35.38 9.734 36 8.533 36c-.707 0-1.388-.215-1.874-.686m12.028-1.707h-3.371L14.535 36H14l1.891-5.84c.123-.502.417-1.16 1.108-1.16.69 0 .986.658 1.11 1.16L20 36h-.545zm-.133-.413-.987-3.033c-.071-.243-.196-.72-.562-.724-.37-.003-.496.477-.564.722l-.987 3.033zm16.133.413h-3.371L30.535 36H30l1.891-5.84c.123-.502.417-1.16 1.108-1.16.69 0 .986.658 1.11 1.16L36 36h-.545zm-.133-.413-.988-3.033c-.07-.243-.195-.72-.56-.724-.37-.003-.497.477-.566.722l-.986 3.033zM23 34l.007-5h.493v5c0 1.081.335 1.5 1.5 1.5h2v.493L25 36c-1.5 0-2-.5-2-2"/><path fill="#4FED91" d="M12.304 26H11l1.935-5.572c.24-.777.68-1.45 1.572-1.425.882-.022 1.331.656 1.57 1.425L18 26h-1.306l-1.857-5.627c-.047-.163-.134-.373-.332-.373-.199 0-.295.206-.343.373z"/><path fill="#4FED91" d="M15 23.5a.5.5 0 0 1-1 0c0-.329.283-.5.5-.5s.5.17.5.5"/><path fill="#fff" d="M42.447 36 40.5 32.88 38.544 36H38l2.155-3.5L38 29h.544l1.956 3.06L42.465 29H43l-2.196 3.5L43 36zM48 32.5 46 29h.53l1.721 3L50 29h.54l-2.04 3.5V36H48z"/><defs><linearGradient id="a" x1="28" x2="28" y1="0" y2="56" gradientUnits="userSpaceOnUse"><stop stop-color="#181B1E"/><stop offset="1" stop-color="#181B1E"/></linearGradient></defs></svg>