<svg xmlns="http://www.w3.org/2000/svg" width="56" height="56" fill="none"><path fill="#09548E" d="M0 0h56v56H0z"/><path fill="#F0F3FA" d="M11.037 38.044c-.236 1.324.675 2.461 2.282 2.85 1.043.252 3.675.05 6.918-.531 7.29-1.306 10.483-1.814 13.574-1.782 3.392.034 6.689.483 9.862 1.385a1 1 0 0 0 .251.066q.094.004.076-.066c-3.5-3.32-7.367-4.773-12.184-4.773s-9.842 1.99-14.058 1.936c-1.525-.02-2.758-.318-2.758-.968 0-.402 1.683-3.288 8.713-15.633 1.8-3.162 2.619-3.733 3.287-3.721 2.529.044 6.572 9.404 8 11.612-3.255.723-6.426 1.475-9.172 3.441-.945.676-1.768 1.306-1.828 1.398 0 0 .59-.012 1.443-.231 1.398-.36 4.337-.754 6.557-.737 5.07.04 9.235 1.806 13 4.839l-7.406-12.005c-4.074-6.97-7.701-12.969-8.062-13.332-.546-.549-1.218-.809-1.892-.791-.786.02-1.574.418-2.168 1.175-.467.597-5.732 9.81-12.254 21.446-1.124 2.005-2.105 3.995-2.181 4.422"/></svg>