<svg xmlns="http://www.w3.org/2000/svg" width="56" height="56"><path fill="#F0F3FA" d="M0 0h56v56H0z"/><path fill="#006877" d="M26.84 34c-1.9 0-2.84-1.13-2.84-3v-9h2.5v8.55c0 .57.29.95.89.95H31V34zm-8 0c-1.9 0-2.84-1.13-2.84-3v-9h2.5v8.55c0 .57.29.95.89.95H23V34zm22.4-10.24a6 6 0 1 0-8.48 8.48 6 6 0 0 0 8.48-8.48m-1.77 6.72a3.5 3.5 0 1 1-4.95-4.96 3.5 3.5 0 0 1 4.95 4.96m8 3.52H43v-2.5h4.37c.62 0 1.13-.39 1.13-1 0-.59-1.03-.95-2.2-1.3-.9-.27-3.3-.98-3.3-3.57 0-2 1.47-3.63 3.65-3.63h3.86l-.66 2.5h-3.22c-.62 0-1.13.39-1.13 1 0 .59.32.95 1.49 1.3.9.27 4.01.98 4.01 3.57 0 2.16-1.51 3.63-3.52 3.63M5 34c.57-2.4 2.6-4 5-4a4.87 4.87 0 0 1 3.15 1.16s-.77-1.02-1.94-1.63L10 24.4l-1.17 5.02a5.65 5.65 0 0 0-2.87 1.31l2.12-7.7c.17-.6.7-1.02 1.28-1.02h1.26c.58 0 1.1.41 1.27 1.02 1.03 3.65 2.22 7.3 3.1 10.98h-2.67v-.02A2.64 2.64 0 0 0 10 32.5c-1 0-1.85.58-2.31 1.44l-.01.05H5Z"/></svg>