<svg xmlns="http://www.w3.org/2000/svg" width="56" height="56"><path fill="#F0F3FA" d="M0 0h56v56H0z"/><path fill="url(#a)" d="M24.8 17H40v9.17c0 1.01-.8 1.83-1.8 1.83H17.38A4.46 4.46 0 0 0 13 32.5V44h5.62A4.4 4.4 0 0 0 23 39.56V32h-3v7.25c0 .96-.78 1.75-1.73 1.75H16v-8.25c0-.96.78-1.75 1.73-1.75h20.71A4.6 4.6 0 0 0 43 26.38V14H24.56A4.6 4.6 0 0 0 20 18.62V27h3v-8.17c0-1.01.8-1.83 1.8-1.83"/><defs><linearGradient id="a" x1="41.93" x2="14.2" y1="14.65" y2="43.27" gradientUnits="userSpaceOnUse"><stop offset=".26" stop-color="#00D33A"/><stop offset=".83" stop-color="#00E0C0"/></linearGradient></defs></svg>