<svg xmlns="http://www.w3.org/2000/svg" width="56" height="56"><path fill="#C1FE00" d="M0 0h56v56H0z"/><path fill="#FC383A" d="M20 19c.05.54.3 1.07.71 1.5L26 25.77c.96.96 2.52.96 3.49 0l5.29-5.29c.96-.96.96-2.52 0-3.48l-5.3-5.29a2.47 2.47 0 0 0-3.48 0L20.71 17c-.29.29-.49.63-.6.99l5.04.01c.04 0 .07-.03.07-.07l-.15-1.82a.31.31 0 0 1 .45-.3l4.33 2.17c.45.22.46.86 0 1.1l-4.33 2.25a.31.31 0 0 1-.45-.3l.15-1.98a.06.06 0 0 0-.06-.06H20z"/><path fill="#1C364D" d="M35.5 38c-.05.54-.3 1.07-.71 1.5l-5.29 5.28c-.96.96-2.52.96-3.49 0l-5.29-5.29a2.46 2.46 0 0 1 0-3.48l5.3-5.29a2.47 2.47 0 0 1 3.48 0l5.29 5.29c.29.29.49.63.6.99l-5.04.01a.06.06 0 0 1-.07-.07l.15-1.82a.31.31 0 0 0-.45-.3l-4.33 2.17a.62.62 0 0 0 0 1.1l4.33 2.25c.22.1.47-.06.45-.3l-.15-1.98c0-.03.03-.06.06-.06z"/><path fill="#FF7B1F" d="M37.5 20.5c-.54.05-1.07.3-1.5.71l-5.28 5.29a2.47 2.47 0 0 0 0 3.49l5.29 5.29c.96.96 2.52.96 3.48 0l5.29-5.3c.96-.96.96-2.52 0-3.48l-5.29-5.29a2.45 2.45 0 0 0-.99-.6l-.01 5.04c0 .04.03.07.07.07l1.82-.15c.24-.02.41.23.3.45l-2.17 4.33a.62.62 0 0 1-1.1 0l-2.25-4.33a.31.31 0 0 1 .3-.45l1.98.15c.03 0 .06-.03.06-.06z"/><path fill="#007060" d="M18.5 36c.54-.05 1.07-.3 1.5-.71L25.27 30c.96-.96.96-2.52 0-3.49l-5.29-5.29a2.46 2.46 0 0 0-3.48 0l-5.29 5.3a2.47 2.47 0 0 0 0 3.48l5.29 5.29c.29.29.63.49.99.6l.01-5.04a.06.06 0 0 0-.07-.07l-1.82.15a.31.31 0 0 1-.3-.45l2.17-4.33a.62.62 0 0 1 1.1 0l2.25 4.33a.31.31 0 0 1-.3.45l-1.98-.15a.06.06 0 0 0-.06.06V36z"/></svg>