<svg xmlns="http://www.w3.org/2000/svg" width="56" height="56"><path fill="#F80132" d="M0 0h56v56H0z"/><path fill="#fff" d="M18 12h20v4H18zm0 28h20v4H18zm7-15.5h-4c0-3.05 2.23-5.5 5.37-5.5h2.99c3.04 0 5.51 2.4 5.51 5.36v8.8c0 .99.75 2.45 1.13 2.84h-4.95l-.46-2.35c-1.34 1.78-4.1 2.3-5.3 2.35-3.98 0-4.69-2.97-4.79-4.5 0-5.02 5.2-5.73 7.5-6.04l.57-.08c2.6-.42 2.66-3.38.16-3.38-1.63 0-3.73.24-3.73 2.5m5.5 4.71V27.7a11.2 11.2 0 0 1-2.92.96c-1.11.16-2.58.37-2.58 1.83 0 1.64 1.66 1.76 2.02 1.76h.05c.37 0 1.01 0 2.18-.66.96-.54 1.23-1.8 1.25-2.37z"/></svg>