<svg xmlns="http://www.w3.org/2000/svg" width="56" height="56"><path fill="#F0F3FA" d="M0 0h56v56H0z"/><path fill="#00324B" fill-rule="evenodd" d="M28 45a17 17 0 1 0 0-34 17 17 0 0 0 0 34m0-2c2.03 0 3.97-.4 5.74-1.14l-4.09-6.93a1.93 1.93 0 0 0-3.3 0l-4.09 6.93C24.03 42.6 25.96 43 28 43m9.25-7.4 2.21 2.08a15 15 0 0 0 2.43-4.01l-3.4-.99A13.34 13.34 0 0 1 29.4 16.6l.85-3.43a15.1 15.1 0 0 0-4.5 0l.85 3.43a13.34 13.34 0 0 1-9.08 16.08l-3.41.99a15 15 0 0 0 2.47 4.05l2.25-2.12c5.13-4.8 13.3-4.8 18.42 0M13.13 26h8.39c1.5 0 2.44-1.67 1.69-3l-4.16-7.04A15 15 0 0 0 13.13 26m29.74 0h-8.39c-1.5 0-2.44-1.67-1.69-3l4.16-7.04A15 15 0 0 1 42.87 26"/></svg>