<svg xmlns="http://www.w3.org/2000/svg" width="56" height="56"><path fill="url(#a)" d="M0 0h56v56H0z"/><path fill="#fff" d="M21 10.26v1.28c0 1.29.53 2.03 1.48 2.57L27.45 17l5.18-3c.95-.53 1.37-1.28 1.37-2.46v-1.28c0-.22-.21-.33-.42-.22l-6.03 3.21-6.13-3.2c-.2-.12-.42 0-.42.2zm2.09 9.94c.78-.1 1.66-.2 3.13-.2 5.87 0 9.78 1.83 9.78 7.63v8.95c0 5.08-2.74 7.42-9.2 7.42-5.67 0-8.8-2.24-8.8-7.12C18 31.7 21.42 30 26.8 30H32v-2.37c0-2.95-2.46-3.63-5.59-3.63-2.05 0-3.62.27-4.5.47-.58.1-.98.1-1.17 0-.78-.7.59-4.06 2.35-4.27M26.7 40c2.83 0 5.29-.75 5.29-3.63V34h-5.1c-2.93 0-4.83.76-4.9 2.78-.09 2.51 2.46 3.22 4.7 3.22z"/><defs><linearGradient id="a" x1="10.37" x2="41.52" y1="7.68" y2="51.16" gradientUnits="userSpaceOnUse"><stop stop-color="#00B3AF"/><stop offset="1" stop-color="#14B2DE"/></linearGradient></defs></svg>