<svg xmlns="http://www.w3.org/2000/svg" width="56" height="56" fill="none"><path fill="#F0F3FA" d="M0 0h56v56H0z"/><path fill="#231F20" d="M32 37v-7h-8v7h-5.194a.8.8 0 0 1-.57-.255.88.88 0 0 1-.236-.601V29h-6v9.353c0 .967.367 1.895 1.02 2.579A3.4 3.4 0 0 0 15.482 42h25.031c.924 0 1.81-.384 2.463-1.068a3.74 3.74 0 0 0 1.02-2.58V29H38v7.144a.88.88 0 0 1-.24.605.8.8 0 0 1-.577.251z"/><path fill="#00ABC8" d="M24 26v-7h-5.183a.8.8 0 0 0-.578.25.88.88 0 0 0-.239.606V27h-6v-9.355c0-.479.09-.953.265-1.395s.432-.845.755-1.183a3.5 3.5 0 0 1 1.13-.79A3.3 3.3 0 0 1 15.482 14h25.036c.457 0 .91.094 1.332.277s.807.451 1.13.79c.323.338.58.74.755 1.183.175.442.265.916.265 1.395V27h-6v-7.144a.88.88 0 0 0-.24-.605.8.8 0 0 0-.577-.251H32v7z"/></svg>