<svg xmlns="http://www.w3.org/2000/svg" width="56" height="56"><path fill="#0F238C" d="M0 0h56v56H0z"/><path fill="#fff" d="M25 25.074c-3.177-2.676-7.887-1.749-7.935.701-.721-4.545 4.74-5.613 7.935-4.181zm-2.72 1.17c-.757-.265-1.634-.572-1.636-1.332 0-.358.108-.675.851-.912-2.562.246-3.372 3.17-.537 4.659q.1.052.215.107c.493.237 1.136.547 1.136 1.318 0 1.041-1.19 1.417-1.972 1.401-1.3-.026-2.145-.585-3.337-1.4v2.954c1.41.584 3.508 1.38 5.811.7 1.862-.55 3.189-2.052 3.189-3.655 0-2.471-1.863-3.159-3.175-3.643l-.21-.078q-.161-.06-.335-.12zM12.17 21H7.83L4 34h3.83l.51-2.34h3.32l.51 2.34H16zM10 23.86l1.149 5.33H8.85zm27.658 1.95L35.948 34h-2.895l-1.71-8.19-.659 8.19H27l1.71-13h3.948l1.842 7.8 1.842-7.8h3.947L42 34h-3.69zM44 21h3v10h5v3h-8z"/></svg>