<svg xmlns="http://www.w3.org/2000/svg" width="56" height="56"><path fill="#F0F3FA" d="M0 0h56v56H0z"/><path fill="url(#a)" d="M37.12 32.94c-.02 0-5.64-1.94-9.14-1.94s-6.67 1.15-8.83 1.85c-2.01.65-6.24.84-8.13-1.99-.05 1.43 0 2.3.06 2.75.65 5.63 4.02 7.1 6.78 7.34C21.78 41.39 23.66 39 28 39c2.99 0 4.81.94 6.95 1.61 1.88-2.15 2.43-4.86 2.18-7.67Z"/><path fill="url(#b)" d="M36.38 15.1c-.53.1-5.08-.1-8.4 2.06 5.6 3.4 12.96 16.75 6.96 23.45.95.3 1.96.47 3.17.34 2.77-.23 6.13-1.7 6.79-7.34.94-8.18-4.96-15.46-8.52-18.52Z"/><path fill="url(#c)" d="M11.01 30.85c1.89 2.83 6.13 2.65 8.13 2 1.73-8.04 4.52-12.88 8.84-15.69 3.33-2.15 7.88-1.96 8.4-2.07a11.8 11.8 0 0 0-8.4-3.09c-1.77 0-3.55.37-5.12 1.04-1 .42-1.9.95-2.68 1.57-3.05 2.46-8.7 8.77-9.17 16.24"/><defs><linearGradient id="a" x1="11" x2="39.79" y1="35.86" y2="35.86" gradientUnits="userSpaceOnUse"><stop offset=".29" stop-color="#E52397"/><stop offset=".39" stop-color="#E52397" stop-opacity=".88"/><stop offset=".59" stop-color="#E52397" stop-opacity=".57"/><stop offset=".82" stop-color="#E52397" stop-opacity=".2"/><stop offset="1" stop-color="#E52397" stop-opacity=".1"/></linearGradient><linearGradient id="b" x1="41" x2="31.63" y1="37.26" y2="13.31" gradientUnits="userSpaceOnUse"><stop offset=".3" stop-color="#E52397"/><stop offset=".45" stop-color="#E52397" stop-opacity=".75"/><stop offset=".64" stop-color="#E52397" stop-opacity=".46"/><stop offset=".77" stop-color="#E52397" stop-opacity=".27"/><stop offset=".84" stop-color="#E52397" stop-opacity=".2"/><stop offset="1" stop-color="#E52397" stop-opacity=".1"/></linearGradient><linearGradient id="c" x1="28.99" x2="14.08" y1="13.01" y2="34.19" gradientUnits="userSpaceOnUse"><stop offset=".19" stop-color="#E52397"/><stop offset=".31" stop-color="#E52397" stop-opacity=".88"/><stop offset=".55" stop-color="#E52397" stop-opacity=".57"/><stop offset=".82" stop-color="#E52397" stop-opacity=".2"/><stop offset="1" stop-color="#E52397" stop-opacity=".1"/></linearGradient></defs></svg>