<svg xmlns="http://www.w3.org/2000/svg" width="56" height="56"><path fill="#CC092F" d="M0 0h56v56H0z"/><path fill="#fff" d="M42.273 35.238C39.631 40.438 34.232 44 28 44s-11.631-3.563-14.273-8.762a8 8 0 0 1 1.22-.505 3.1 3.1 0 0 1 1.887.014c.546.183 1.039.495 1.524.802l.151.096h.002c1.007.636 2.15 1.355 3.602 1.355 2.154 0 3.666-1.29 4.149-3.538A731 731 0 0 0 28 25s1.365 6.72 1.738 8.462c.483 2.249 1.996 3.538 4.15 3.538 1.453 0 2.594-.72 3.602-1.354l.002-.001.15-.096c.486-.307.978-.619 1.525-.803a3.1 3.1 0 0 1 1.886-.013c.418.124.828.313 1.22.505m.953-2.308a18 18 0 0 0-1.128-.501c-1.83-.731-3.506-.486-5.185.534 0 0-.612.375-.795.49l-.012.008c-.778.489-1.512.95-2.218.95-.677 0-1.343-.181-1.625-1.494-.44-2.048-1.512-7.08-1.98-9.573-.275-1.465-.426-2.255-.582-2.791-.276-.943-.78-1.455-1.497-1.537 0 0-.113-.016-.204-.016s-.215.018-.215.018c-.71.085-1.211.598-1.485 1.535-.157.537-.308 1.326-.582 2.79-.468 2.493-1.54 7.526-1.98 9.574-.282 1.313-.948 1.495-1.625 1.495-.706 0-1.44-.462-2.219-.951l-.011-.008c-.183-.115-.796-.49-.796-.49-1.679-1.02-3.355-1.265-5.184-.534-.386.154-.766.327-1.129.501A16 16 0 0 1 12 28c0-8.837 7.163-16 16-16s16 7.163 16 16c0 1.72-.272 3.377-.774 4.93"/></svg>