<svg xmlns="http://www.w3.org/2000/svg" width="56" height="56"><path fill="#F0F3FA" d="M0 0h56v56H0z"/><path d="M47.92 31.18c.58 0 1.18-.11 1.8-.34v.82c-.6.23-1.22.34-1.83.34-1.92 0-2.89-1.11-2.89-3v-.02c0-1.93.9-2.98 2.63-2.98 1.71 0 2.37 1.27 2.37 2.85v.54h-4c.02 1.25.73 1.79 1.92 1.79m-.3-4.38c-1.1 0-1.56.58-1.62 1.8h3c0-1.02-.26-1.8-1.37-1.8ZM43 32v-8h1v8zm-2 0v-8h1v8zm-2 0v-6h1v6zm0-7v-1h1v1zm0-2v-2h1v2zm-4 8 2-5h1l-2.37 6h-1.26L32 26h1zm-15 1v-8h1v3.04c.33-.74 1.25-1.04 2-1.04 1.34 0 2 .8 2 2.1V32h-1v-3.9c0-.78-.34-1.1-1.15-1.1-1 0-1.85.47-1.85 1.53V32zm-3.41-1c1 0 1.41-.58 1.41-1.92v-.02c0-1.48-.4-2.06-1.37-2.06-1 0-1.63.6-1.63 1.58v.87c0 .98.6 1.55 1.59 1.55m.15 1c-.73 0-1.43-.3-1.74-1v3h-1v-8h1v1.05c.3-.7.98-1.05 1.7-1.05 1.7 0 2.3 1.6 2.3 3.06v.02c0 1.46-.56 2.92-2.26 2.92M12 32v-8h1v8zm8-11v2h1v-2zm-8 0v2h1v-2zm-2 8.67v-.58l-1.24.11c-.74.06-1.76.14-1.76 1.1v.02c0 .6.37.93 1.05.93.88 0 1.95-.58 1.95-1.58M7.27 28h-.95c.03-1.31 1.27-2 2.43-2Q11 26 11 27.86V32h-1v-1.02C9.58 31.7 8.76 32 7.97 32 6.9 32 6 31.46 6 30.32v-.02c0-1.45 1.45-1.75 2.62-1.84l1.38-.12v-.48c0-.76-.57-.86-1.25-.86-.95 0-1.44.34-1.48 1M30 29.67v-.58l-1.24.11c-.74.06-1.76.14-1.76 1.1v.02c0 .6.37.93 1.05.93.88 0 1.95-.58 1.95-1.58M27.27 28h-.95c.03-1.31 1.27-2 2.43-2Q31 26 31 27.86V32h-1v-1.02c-.42.72-1.24 1.02-2.03 1.02-1.06 0-1.97-.54-1.97-1.68v-.02c0-1.45 1.45-1.75 2.62-1.84l1.38-.12v-.48c0-.76-.57-.86-1.25-.86-.95 0-1.45.34-1.48 1"/></svg>