<svg xmlns="http://www.w3.org/2000/svg" width="56" height="56"><path fill="#016FD0" d="M0 0h56v56H0z"/><path fill="#fff" d="M22.166 11.002 25 17.922V11h7.858l1.492 4.228L35.623 11H44v15h1.291l-7.142 8.505L45.221 43h-9.514l-2.217-2.775L31.328 43H14V28.002H8.474l6.968-17zM26 41v-2.822h-6.667v-2.31H26v-2.736h-6.667v-2.224H26V28l-4.69.002V28h-5.094l-.002.002H16V41zm0-13 5.531 6.58L26.13 41h4.222l3.121-4.004L36.671 41h4.283l-5.413-6.5L41 28h-4.116l-3.306 4.068L30.284 28zm.147-2-5.323-12.998h-4.04l-5.329 13H14V26h.925l.983-2h5.716l.977 2zM27 26h3v-9.46L33 26h3l3-9.46V26h3V13h-4.89l-2.61 8.667L31.443 13H27zm-8.244-9.866L17.008 21h3.49z"/></svg>