<svg xmlns="http://www.w3.org/2000/svg" width="56" height="56"><path fill="#F0F3FA" d="M0 0h56v56H0z"/><path fill="#F38221" d="M48 27.5c0 2.7-1.02 5.24-2.8 7.41L30.5 15h-5L10.8 34.91A11.6 11.6 0 0 1 8 27.5c0-8 8.95-14.5 20-14.5s20 6.5 20 14.5M39.07 36h5.13c-2.88 2.9-7.2 4.97-12.2 5.71V45h-1V35h-1v10h-1V35h-.57v10h-.86V35H27v10h-1V35h-1v10h-1v-3.29c-5-.74-9.32-2.82-12.2-5.7h5.13l.73-1.01H17v-1h22v1h-.66zm-19.93-3H17v-1h22v1zm2.95-4H17v-1h5.83L28 21l5.17 7H39v1H22.1Zm13.3 2H39v-1H17v1h18.38Z"/></svg>