<svg xmlns="http://www.w3.org/2000/svg" width="56" height="56"><path fill="url(#a)" d="M0 0h56v56H0z"/><path fill="#168A44" d="M28.04 12.055c.413.605 1.362 1.998 2.137 3.805-.786.831-1.56 1.813-2.174 2.922-.62-1.109-1.394-2.09-2.174-2.922.775-1.807 1.724-3.2 2.137-3.805l.037-.055.038.055zm-5.51.969c.61.442 1.963 1.424 3.3 2.836-.448 1.045-.838 2.223-1.03 3.476-.965-.831-2.033-1.493-3.056-2.009-.058 1.127-.013 2.374.243 3.608-1.196-.46-2.43-.718-3.574-.856-.601-1.933-.78-3.646-.85-4.339l.105.03c.73.212 2.337.677 4.076 1.557.097-1.923.495-3.526.677-4.258l.026-.106.083.06zm5.436 30.921c-.413-.605-1.362-1.998-2.137-3.805.78-.837 1.554-1.813 2.174-2.922.614 1.109 1.388 2.085 2.174 2.922-.775 1.807-1.724 3.2-2.136 3.805l-.038.055zm-9.553-8.024c1.144-.138 2.378-.403 3.574-.862-.256 1.246-.3 2.48-.243 3.614 1.023-.516 2.09-1.178 3.056-2.009.192 1.247.582 2.43 1.03 3.476-1.336 1.412-2.69 2.394-3.3 2.836l-.083.06-.026-.105c-.182-.732-.58-2.335-.677-4.258-1.799.91-3.455 1.376-4.147 1.57l-.035.01c.07-.686.25-2.399.85-4.332zm0 0c.339-1.083.818-2.235 1.483-3.312-1.285.032-2.532-.138-3.657-.397-1.189 1.56-1.938 3.054-2.272 3.719l-.036.072.085.005c.751.048 2.44.156 4.397-.087m15.05 7.046c-.616-.447-1.965-1.425-3.286-2.827.448-1.045.831-2.229 1.023-3.476.966.831 2.033 1.493 3.056 2.009a14.4 14.4 0 0 0-.236-3.614c1.195.46 2.43.724 3.567.862.582 1.853.765 3.504.847 4.242l.01.09-.013-.003c-.686-.191-2.358-.657-4.175-1.577-.098 1.947-.5 3.566-.677 4.285l-.02.079-.095-.07zM19.897 23.391a14.8 14.8 0 0 1-1.483-3.312c-1.956-.243-3.646-.135-4.397-.088l-.085.006.036.072c.333.664 1.083 2.159 2.272 3.712 1.125-.252 2.372-.422 3.657-.39m17.691 12.53c-.339-1.083-.812-2.235-1.483-3.312 1.291.032 2.538-.138 3.657-.397 1.236 1.612 1.995 3.156 2.304 3.784l.004.007-.079.005c-.743.048-2.436.156-4.403-.087M16.24 23.781c-1.972.447-3.546 1.138-4.21 1.43l-.029.012.122.113c.572.532 1.766 1.641 3.363 2.664-1.585 1.01-2.774 2.116-3.351 2.652l-.134.125.118.05c.708.306 2.232.964 4.121 1.385.697-.9 1.54-1.82 2.545-2.613-1.215-.403-2.334-.982-3.3-1.599.966-.617 2.085-1.196 3.3-1.6-1.004-.793-1.848-1.712-2.545-2.619M37.223 29.6c1.215-.403 2.327-.982 3.293-1.599 1.626 1.032 2.832 2.165 3.389 2.687l.095.09-.09.039c-.69.3-2.23.969-4.149 1.396-.69-.9-1.54-1.82-2.538-2.613m3.293-1.6c-.966-.617-2.078-1.196-3.293-1.6a14.9 14.9 0 0 0 2.538-2.619c2.008.454 3.6 1.159 4.239 1.442l-.082.077c-.55.516-1.763 1.653-3.402 2.7m1.55-7.996c-.31.628-1.07 2.171-2.305 3.777-1.119-.252-2.366-.422-3.657-.39.671-1.083 1.144-2.23 1.483-3.312 1.967-.243 3.66-.135 4.403-.087l.08.005zm-4.479.075c-1.138.138-2.372.396-3.567.856.249-1.24.3-2.48.236-3.608-1.023.516-2.09 1.177-3.056 2.009-.192-1.253-.575-2.43-1.023-3.476 1.32-1.402 2.67-2.38 3.287-2.827l.095-.07.02.079c.178.719.579 2.338.677 4.285 1.756-.889 3.376-1.354 4.102-1.562l.086-.025-.01.083c-.08.74-.262 2.396-.847 4.256"/><path fill="#5BB046" d="M31.2 19.336a10.2 10.2 0 0 0-2.084 2.443 9.9 9.9 0 0 0-1.113-2.997 9.9 9.9 0 0 0-1.112 2.997 10.1 10.1 0 0 0-2.091-2.443 10.1 10.1 0 0 0-.006 3.192c-.864-.699-1.823-1.209-2.807-1.593-.256-1.234-.3-2.48-.243-3.608 1.023.516 2.09 1.177 3.056 2.009.192-1.253.582-2.43 1.03-3.476.78.831 1.553 1.813 2.173 2.922.614-1.109 1.388-2.09 2.174-2.922.448 1.045.831 2.223 1.023 3.476.965-.831 2.033-1.493 3.056-2.009a14.3 14.3 0 0 1-.236 3.608c-.985.384-1.95.894-2.814 1.593.186-1.083.154-2.16-.006-3.192m-3.197 17.882a10 10 0 0 0 1.113-2.997c.569.945 1.291 1.75 2.084 2.443.16-1.032.192-2.11.006-3.192a10.5 10.5 0 0 0 2.814 1.587c.249 1.246.3 2.48.236 3.614-1.023-.516-2.09-1.178-3.056-2.009-.192 1.247-.575 2.43-1.023 3.476-.786-.837-1.56-1.813-2.174-2.922m-1.112-2.997a10 10 0 0 0 1.112 2.997c-.62 1.109-1.394 2.085-2.174 2.922-.447-1.045-.837-2.229-1.029-3.476-.965.831-2.033 1.493-3.056 2.009-.058-1.133-.013-2.368.243-3.614a10.4 10.4 0 0 0 2.807-1.587 10.1 10.1 0 0 0 .006 3.192c.8-.692 1.522-1.498 2.09-2.443zM23.093 23.94a9.9 9.9 0 0 1-1.106-3.004c-1.196-.46-2.43-.718-3.574-.856a14.8 14.8 0 0 0 1.483 3.312c1.055.025 2.142.182 3.197.548m-1.119 1.901c-1.113.013-2.187.22-3.19.56-1.004-.793-1.848-1.712-2.545-2.619 1.125-.252 2.372-.422 3.657-.39.55.888 1.234 1.731 2.078 2.45zM21.59 28c-1.048-.384-1.982-.95-2.806-1.6-1.215.404-2.334.983-3.3 1.6.966.617 2.085 1.196 3.3 1.6.824-.65 1.758-1.216 2.806-1.6m.384 2.16a10.1 10.1 0 0 0-2.078 2.45c-1.285.03-2.532-.14-3.657-.397.697-.9 1.54-1.82 2.545-2.614a10.5 10.5 0 0 0 3.19.56zm1.119 1.901c-1.055.366-2.142.523-3.197.548-.665 1.077-1.144 2.23-1.483 3.312 1.144-.138 2.378-.403 3.574-.862a9.9 9.9 0 0 1 1.106-2.998m9.82 0c.55.958.896 1.978 1.107 2.998 1.195.46 2.43.724 3.567.862-.339-1.083-.812-2.235-1.483-3.312 1.291.032 2.538-.138 3.657-.396-.69-.9-1.54-1.82-2.538-2.614a10.5 10.5 0 0 1-3.197.56 9.8 9.8 0 0 1 2.078 2.45c-1.055-.025-2.136-.182-3.19-.548zm4.31-2.462c-.831-.648-1.765-1.215-2.807-1.599 1.042-.384 1.976-.95 2.807-1.6 1.215.404 2.327.983 3.293 1.6-.966.617-2.078 1.196-3.293 1.6zm-1.12-6.208a10 10 0 0 1-2.077 2.45c1.119.012 2.193.22 3.197.56a14.9 14.9 0 0 0 2.538-2.62c-1.119-.252-2.366-.422-3.657-.39zm0 0c-1.054.025-2.135.182-3.19.548.55-.957.896-1.977 1.107-3.004 1.195-.46 2.43-.718 3.567-.856-.339 1.083-.812 2.229-1.483 3.312z"/><path fill="#fff" d="M26.89 25.003a8.7 8.7 0 0 0-2.096-2.475 8.5 8.5 0 0 0 1.125 3.023 8.9 8.9 0 0 0-2.826-1.612 8.5 8.5 0 0 0 2.103 2.462 9 9 0 0 0-3.222-.56 8.9 8.9 0 0 0 2.832 1.605A8.8 8.8 0 0 0 21.59 28a9 9 0 0 0 3.216.554 8.9 8.9 0 0 0-2.832 1.606 8.9 8.9 0 0 0 3.222-.567 8.6 8.6 0 0 0-2.103 2.468 8.9 8.9 0 0 0 2.826-1.618 8.6 8.6 0 0 0-1.125 3.029 8.7 8.7 0 0 0 2.097-2.475 8.5 8.5 0 0 0 0 3.224 8.6 8.6 0 0 0 1.112-3.029 8.6 8.6 0 0 0 1.113 3.03 8.5 8.5 0 0 0-.007-3.225 8.8 8.8 0 0 0 2.097 2.475 8.5 8.5 0 0 0-1.125-3.029 8.9 8.9 0 0 0 2.832 1.618 8.7 8.7 0 0 0-2.103-2.468c1.1.41 2.174.58 3.216.567a8.9 8.9 0 0 0-2.832-1.606A9 9 0 0 0 34.416 28a8.9 8.9 0 0 0-3.222-.554 8.9 8.9 0 0 0 2.832-1.606 9 9 0 0 0-3.216.56 8.6 8.6 0 0 0 2.104-2.461 8.9 8.9 0 0 0-2.833 1.612 8.4 8.4 0 0 0 1.125-3.023 8.8 8.8 0 0 0-2.097 2.475 8.5 8.5 0 0 0 .007-3.224 8.6 8.6 0 0 0-1.113 3.029 8.6 8.6 0 0 0-1.112-3.03 8.5 8.5 0 0 0 0 3.225z"/><path fill="#FEDC00" d="M29.116 21.779a9.9 9.9 0 0 0-1.113-2.997 9.9 9.9 0 0 0-1.112 2.997c.53.881.92 1.889 1.112 3.029a8.6 8.6 0 0 1 1.113-3.03 8.5 8.5 0 0 1-.007 3.225 8.8 8.8 0 0 1 2.097-2.475c.186-1.083.154-2.16-.006-3.192a10.2 10.2 0 0 0-2.084 2.443m-2.225 0a8.5 8.5 0 0 0 0 3.224 8.7 8.7 0 0 0-2.097-2.475 8.5 8.5 0 0 0 1.125 3.023 8.9 8.9 0 0 0-2.826-1.612 8.5 8.5 0 0 0 2.103 2.462 9 9 0 0 0-3.222-.56 10.4 10.4 0 0 1-2.078-2.45c1.055.025 2.142.182 3.197.548a9.9 9.9 0 0 1-1.106-3.004c.984.384 1.943.894 2.807 1.593-.18-1.083-.154-2.16.006-3.192a10.1 10.1 0 0 1 2.09 2.443zm2.225 12.442a8.5 8.5 0 0 0-.007-3.224 8.8 8.8 0 0 0 2.097 2.475c.186 1.083.154 2.16-.006 3.192-.793-.692-1.515-1.498-2.084-2.443a10 10 0 0 1-1.113 2.998 10 10 0 0 1-1.112-2.998c.53-.888.92-1.889 1.112-3.028a8.6 8.6 0 0 0 1.113 3.028m4.904.838a10.5 10.5 0 0 1-2.814-1.587 8.5 8.5 0 0 0-1.125-3.029 8.9 8.9 0 0 0 2.832 1.618 8.7 8.7 0 0 0-2.103-2.468c1.1.41 2.174.58 3.216.567a9.8 9.8 0 0 1 2.078 2.45c-1.055-.026-2.136-.183-3.19-.549.55.958.895 1.978 1.106 2.998m-9.214-7.613a8.9 8.9 0 0 1-2.832-1.606c-1.113.013-2.187.22-3.19.56.824.65 1.758 1.216 2.806 1.6-1.048.384-1.982.95-2.806 1.6a10.5 10.5 0 0 0 3.19.56 8.9 8.9 0 0 1 2.832-1.606A9 9 0 0 1 21.59 28a8.8 8.8 0 0 1 3.216-.554m9.22 2.714a8.9 8.9 0 0 0-2.833-1.606A9 9 0 0 0 34.416 28a8.9 8.9 0 0 0-3.222-.554 8.9 8.9 0 0 0 2.832-1.606 9 9 0 0 0-3.216.56 8.6 8.6 0 0 0 2.104-2.461 8.9 8.9 0 0 0-2.833 1.612 8.4 8.4 0 0 0 1.125-3.023c.863-.699 1.829-1.209 2.814-1.593-.211 1.027-.557 2.047-1.107 3.004 1.055-.366 2.136-.523 3.19-.548a10 10 0 0 1-2.077 2.45c1.119.012 2.193.22 3.197.56-.831.648-1.765 1.215-2.807 1.599 1.042.384 1.976.95 2.807 1.6a10.5 10.5 0 0 1-3.197.56m-9.232 3.312a10.4 10.4 0 0 1-2.807 1.587 9.9 9.9 0 0 1 1.106-2.998 8.9 8.9 0 0 0 2.826-1.618 8.6 8.6 0 0 0-1.125 3.029 8.7 8.7 0 0 0 2.097-2.475 8.5 8.5 0 0 0 0 3.224c-.57.945-1.292 1.75-2.091 2.443a10.1 10.1 0 0 1-.006-3.192m-1.701-1.41c-1.055.365-2.142.522-3.197.547a10.1 10.1 0 0 1 2.078-2.45 8.9 8.9 0 0 0 3.222-.566 8.6 8.6 0 0 0-2.103 2.468z"/><defs><linearGradient id="a" x1="10.418" x2="68.147" y1="9.712" y2="76.017" gradientUnits="userSpaceOnUse"><stop stop-color="#1A1E21"/><stop offset="1" stop-color="#06060A"/></linearGradient></defs></svg>