<svg xmlns="http://www.w3.org/2000/svg" width="56" height="56"><path fill="#F0F3FA" d="M0 0h56v56H0z"/><path fill="#00953B" d="M51.93 20.03c-.03.01-2.76 1.2-8.33 1.2-2.73 0-5.7-.28-8.84-.84a23 23 0 0 0-4.08-.37c-3.54 0-6.8 1.2-9.68 2.98a19.9 19.9 0 0 1 6.46-1.26c1.5 0 3.07.14 4.7.42 3.25.56 6.27.84 8.96.84 4.19 0 6.84-.69 8.32-1.26 1.77-.69 2.48-1.42 2.54-1.67L52 20z"/><path fill="#E1251B" d="M19.82 31.78c-.45 0-.8-.17-1.07-.51a1.77 1.77 0 0 1-.32-1.34A2.27 2.27 0 0 1 20.56 28c1 0 1.33.05 1.43-.85L22 27h-1.44c-.85 0-1.66.3-2.28.84a3.68 3.68 0 0 0-1.26 2.47c-.08.79.1 1.44.52 1.95.4.5.97.74 1.66.74.48 0 .86-.11 1.3-.29.24-.12.68-.4.86-.98l.13-.44-.06.02c-.53.24-1.1.47-1.61.47"/><path fill="#E1251B" d="m14.18 29.8 2.2-2.5.32-.36c.67-.79 2.05-2.43 4.3-3.87l-.03-.07c-3.32 1.2-5.1 3.1-5.87 3.93l-.18.19-1.46 1.66-1.09-1.4a.88.88 0 0 0-.75-.38h-1.17c-.1 0-.19.03-.23.12a.25.25 0 0 0 .03.25l2.04 2.74-2.2 2.5c-.08.08-.1.19-.08.27.04.07.11.12.21.12h1.05c.03 0 .13-.05.15-.07l1.6-1.8 1.05 1.48a.9.9 0 0 0 .75.39H16c.1 0 .2-.05.23-.13a.25.25 0 0 0-.03-.26l-2-2.81ZM8.3 27a4.8 4.8 0 0 0-2.82.97 3.44 3.44 0 0 0-1.46 2.4c-.1.78.1 1.41.6 1.9.47.49 1.12.73 1.92.73.5 0 1.06-.1 1.6-.28.28-.11.78-.4 1-.96l.15-.43-.07.03c-.6.22-1.3.45-1.93.45-.54 0-.96-.16-1.28-.5a1.36 1.36 0 0 1-.32-.55c1.24-.08 2.2-.3 2.94-.68 1.15-.58 1.5-1.47 1.33-2.1-.16-.61-.79-.98-1.67-.98Zm-.71 2.34a6.6 6.6 0 0 1-1.92.5c.23-.86 1.2-1.81 2.21-1.81.17 0 .31.05.4.14.07.08.1.18.1.29-.06.46-.57.77-.79.88M26.3 27a4.8 4.8 0 0 0-2.82.97 3.44 3.44 0 0 0-1.46 2.4c-.1.78.1 1.42.6 1.9a2.6 2.6 0 0 0 1.92.73c.5 0 1.06-.1 1.6-.28.28-.12.79-.4 1-.96l.15-.43-.07.03c-.6.22-1.3.45-1.93.45-.54 0-.96-.16-1.28-.5a1.35 1.35 0 0 1-.32-.55c1.24-.08 2.2-.3 2.94-.68 1.15-.58 1.5-1.47 1.33-2.1-.16-.61-.79-.98-1.67-.98Zm-.7 2.34a6.6 6.6 0 0 1-1.93.5c.23-.86 1.2-1.81 2.21-1.81.17 0 .31.05.4.14.07.08.1.18.1.29-.06.46-.57.77-.79.88ZM29.32 24h-.2l-.95 6.47c-.2 1.3-.29 1.95.07 2.26.26.23.72.27 1.44.27h.2l.95-6.47c.2-1.3.29-1.95-.07-2.26-.26-.23-.72-.27-1.44-.27m2.07 4.69c-.06.48.07.94.32 1.2.35.34.83.5 1.3.63.4.13.79.25 1.04.48.1.1.14.19.12.28-.02.22-.33.4-.42.45-.27.15-.53.33-.92.33-.68 0-1.44-.34-1.79-.48l-.04-.02v.38c.02.54.46.82.7.9.3.1.59.16 1 .16 1.29 0 2.85-.55 3.02-2.1.12-1.14-1-1.48-1.9-1.74-.54-.17-1.02-.31-.99-.6.05-.47.63-.56 1.22-.56h.4c1.05 0 1.44.05 1.53-.85L36 27h-1.6c-1.48 0-2.85.2-3.01 1.69M43.45 27c-.02 0-1.9.02-1.98.57-.02.2.04.3.22.36A3.8 3.8 0 0 0 40.1 30c-.23.85-.1 1.67.34 2.24.4.5 1 .77 1.71.77.86 0 1.66-.3 2.36-.9A4.1 4.1 0 0 0 45.9 30c.2-.83.08-1.56-.36-2.11a2.63 2.63 0 0 0-2.09-.89m-.72 4.93c-.39 0-.7-.17-.93-.5a1.74 1.74 0 0 1-.27-1.25 3 3 0 0 1 1.32-2.07c1.03 0 1.64.6 1.64 1.6 0 1.05-.73 2.22-1.76 2.22M50.95 27c-.9 0-2.2.59-2.74 1.4.03-.47-.1-.96-.3-1.15-.22-.2-.62-.25-1.24-.25h-.17l-.35 3.57c-.17 1.25-.25 1.88.06 2.18.22.2.62.25 1.24.25h.18l.32-2.43c.08-.6.26-1.86 2.25-1.86.24 0 .6-.16.64-.53L51 27zM37.7 27h-.17l-.4 3.5c-.15 1.29-.22 1.93.06 2.24.2.22.56.26 1.12.26h.15l.4-3.5c.16-1.29.23-1.93-.05-2.24-.2-.22-.56-.26-1.12-.26Zm.8-3c-.54 0-1.04.45-1.1 1a.9.9 0 0 0 .22.74c.17.17.4.26.64.26.55 0 1.05-.45 1.12-1a.9.9 0 0 0-.24-.74.88.88 0 0 0-.64-.26"/></svg>