<svg xmlns="http://www.w3.org/2000/svg" width="56" height="56"><path fill="#C43F3F" d="M0 0h56v56H0z"/><path fill="#fff" d="M11.9 25.76a7 7 0 0 1-.55 1.2l.13.04c.41-.18.82-.45 1.24-.8.42-.36.82-.76 1.22-1.2a22 22 0 0 0 1.11-1.33c.35-.45.66-.87.93-1.25.27-.37.55-.73.83-1.06a9 9 0 0 1 .9-.89c.32-.26.64-.5.98-.69.34-.2.7-.34 1.07-.43l.02.02c-.46.2-.87.47-1.24.79-.37.33-.7.68-1 1.07a10 10 0 0 0-.8 1.22 21 21 0 0 0-1.17 2.44c-.15.37-.3.7-.46 1a3.4 3.4 0 0 1-.42.67c-.15.16-.3.25-.45.25a1 1 0 0 1-.18-.03 3 3 0 0 1-.23-.05 3 3 0 0 0-.23-.06 1.2 1.2 0 0 0-.22-.02c-.18 0-.28.07-.28.2 0 .11.11.17.34.17a3.85 3.85 0 0 0 2.46-1c.38-.3.72-.65 1-1.05.29-.4.54-.84.76-1.34.23-.5.46-1.07.7-1.7.15-.4.3-.74.47-1.05.17-.32.34-.59.5-.8a2.4 2.4 0 0 1 .48-.52c.16-.11.3-.17.42-.17a1.9 1.9 0 0 1 .46.06l.23.05.3.02c.1 0 .18-.02.24-.05.06-.04.1-.08.1-.12 0-.09-.06-.15-.16-.19a4.3 4.3 0 0 0-1.96.17c-.44.15-.85.35-1.24.61-.4.26-.77.57-1.12.94-.34.35-.67.74-.98 1.17a70 70 0 0 1-1.11 1.47 31 31 0 0 1-.87 1.07 18 18 0 0 1-1.5 1.54l-.03-.02c.39-.42.7-.85.94-1.29.25-.45.47-.9.65-1.34.19-.45.36-.89.52-1.31.15-.43.33-.83.52-1.2.2-.4.43-.74.7-1.05a3.3 3.3 0 0 1 1.02-.79l-.08-.13a7 7 0 0 0-1.48.62c-.45.24-.87.53-1.26.85a9.5 9.5 0 0 0-1.1 1.07c-.33.39-.65.8-.96 1.25l-1.13 1.58c-.35.48-.7.9-1.06 1.26a4.8 4.8 0 0 1-1.05.86 2.2 2.2 0 0 1-1.13.31.83.83 0 0 1-.53-.16c-.14-.1-.22-.28-.25-.53a.5.5 0 0 0 .35-.18.66.66 0 0 0 .13-.4c0-.2-.06-.37-.18-.48a.68.68 0 0 0-.47-.17q-.33 0-.54.24a.88.88 0 0 0-.2.58 1.24 1.24 0 0 0 .46.99c.14.1.3.19.47.25a2.83 2.83 0 0 0 1.75-.15c.36-.17.69-.4 1-.7.32-.3.64-.65.94-1.06.32-.42.65-.88 1-1.4l.68-.98a10.2 10.2 0 0 1 2.26-2.37 6.3 6.3 0 0 1 1.6-.89l.01.02a6.5 6.5 0 0 0-1.5 1.04c-.41.4-.76.8-1.04 1.25a9 9 0 0 0-.73 1.34c-.2.47-.37.93-.53 1.39a92 92 0 0 1-.47 1.33m6.93 1.3c-.3 0-.52-.08-.67-.25-.5-.57-.1-1.36.19-1.92.27-.5.7-1.17 1.12-1.89h1.48l-.7 1.1a21 21 0 0 0-1 1.77c-.1.23-.16.42-.16.55 0 .1.02.2.06.26.03.07.1.1.19.1.14 0 .3-.05.46-.15a4.2 4.2 0 0 0 1.06-.95L22.45 23h1.47c-.51.72-1.06 1.5-1.53 2.24l.02.03.62-.78q.345-.405.72-.75a4.8 4.8 0 0 1 .78-.6c.27-.16.54-.24.8-.24.27 0 .5.07.68.22.18.14.27.35.27.64 0 .24-.07.48-.22.73a8 8 0 0 1-.48.75l-.5.7c-.14.21-.2.4-.2.57 0 .07.01.14.05.2.04.05.1.07.19.07.13 0 .27-.05.43-.15v.16a1.6 1.6 0 0 1-.87.27c-.32 0-.56-.09-.73-.28-.15-.2-.23-.44-.23-.75 0-.26.07-.5.2-.73.14-.24.3-.46.47-.66l.46-.58c.14-.17.22-.33.22-.49q0-.3-.3-.3c-.12 0-.28.07-.46.2-.19.14-.39.31-.6.53a11.6 11.6 0 0 0-1.29 1.52l-.51.76c-.14.24-.37.72-.37.72h-1.47l.58-.96c-.32.33-.62.59-.9.76-.27.18-.58.26-.92.26m8.35-.34c.25.23.63.34 1.12.34a3.26 3.26 0 0 0 1.55-.36c.4-.22.82-.52 1.25-.92L30.46 27h1.3l.57-.93a13 13 0 0 1 1.39-1.86 3 3 0 0 1 .7-.57v.02a1.23 1.23 0 0 0 0 .88c.05.11.13.21.22.3.1.09.22.16.36.22a2.37 2.37 0 0 0 1.54-.16l-.1.29a1.7 1.7 0 0 0-.1.55c0 .4.11.73.34.97.24.23.57.35 1 .35a4.34 4.34 0 0 0 2.2-.73c.34-.22.62-.5.87-.82.47-.6.62-1.02.62-1.72 0-.27-.06-.48-.18-.64-.12-.17-.31-.25-.58-.25a.55.55 0 0 0-.46.23.83.83 0 0 0-.17.51v.24l.07.21c-.1.35-.23.7-.4 1.03a5 5 0 0 1-.56.91 3.3 3.3 0 0 1-.65.65c-.23.17-.46.25-.68.25-.15 0-.26-.04-.33-.14a.57.57 0 0 1-.1-.35c0-.22.06-.49.2-.8.46-.93 1.09-1.75 1.61-2.64h-1.46l-.58.88a13 13 0 0 0-.48.86.85.85 0 0 1-.42.11.4.4 0 0 1-.36-.2.86.86 0 0 1-.11-.41c0-.13.02-.25.06-.38a3 3 0 0 1 .42-.73l.26-.3a15 15 0 0 0-.87.06 2 2 0 0 0-.5.09.9.9 0 0 0-.3.17q-.12.105-.27.3c-.25.1-.55.33-.9.68-.33.34-.7.8-1.09 1.37l-.02-.02L34.2 23h-1.5l-1.38 2.41-.02.02c-.39.37-.78.69-1.16.94-.39.25-.75.37-1.08.37a.9.9 0 0 1-.42-.09.8.8 0 0 1-.27-.23 1 1 0 0 1-.14-.32 1.8 1.8 0 0 1-.03-.6 2 2 0 0 1 .03-.22l.8-.19a8 8 0 0 0 .99-.32c.33-.14.62-.3.87-.5.24-.18.36-.4.36-.65a.56.56 0 0 0-.33-.54c-.22-.12-.5-.18-.85-.18a3 3 0 0 0-1.09.23 4.4 4.4 0 0 0-1.06.6c-.32.26-.59.56-.8.9-.37.59-.5 1.57.07 2.09zm2.69-3.69q.3 0 .3.3c0 .18-.04.36-.13.55a1.8 1.8 0 0 1-.38.53 2.76 2.76 0 0 1-1.42.75 5.5 5.5 0 0 1 .61-1.29c.16-.24.33-.43.5-.59.2-.17.36-.25.52-.25m12.1 2.73c0 .46.1.8.26 1q.27.3.78.3c.2 0 .38-.03.55-.1a2.3 2.3 0 0 0 .5-.26 6.4 6.4 0 0 0 .8-.8l.03.03v.34c.02.13.06.26.11.38a.8.8 0 0 0 .3.3c.12.08.3.12.55.12.28 0 .55-.09.81-.25l.15-.25a.94.94 0 0 1-.52.21c-.17 0-.25-.1-.25-.31 0-.13.04-.3.1-.48a7.5 7.5 0 0 1 .7-1.27c.36-.59.75-1.16 1.16-1.72h-1.48l-.35.64h-.02a.94.94 0 0 0-.29-.52c-.14-.15-.35-.22-.63-.22-.48 0-.92.1-1.32.27-.4.18-.74.42-1.03.7-.51.48-.9 1.18-.9 1.9zm2.33.53c-.24.2-.43.3-.58.3-.14 0-.24-.06-.29-.18a1.1 1.1 0 0 1-.06-.36c0-.17.03-.36.08-.58a5.6 5.6 0 0 1 1-1.87c.15-.18.3-.31.45-.42a.85.85 0 0 1 .46-.15c.12 0 .23.05.32.13.1.08.15.2.15.37 0 .33-.08.67-.25 1.03a5.5 5.5 0 0 1-1.28 1.74zm-23.92-4.95c0-.2.07-.38.21-.53a.73.73 0 0 1 .54-.23c.2 0 .38.08.52.23a.7.7 0 0 1 .23.53c0 .21-.08.4-.23.54a.7.7 0 0 1-.52.22.74.74 0 0 1-.54-.22.76.76 0 0 1-.21-.54m-3.4 13.05c-.22.41-.47.8-.75 1.16a4 4 0 0 1-.94.9c-.35.25-.76.38-1.25.38-.27 0-.5-.06-.7-.17s-.31-.32-.36-.61a.65.65 0 0 0 .34-.25.7.7 0 0 0 .13-.43.55.55 0 0 0-.2-.45.68.68 0 0 0-.47-.17.7.7 0 0 0-.31.07.8.8 0 0 0-.25.19 1 1 0 0 0-.16.26.7.7 0 0 0-.06.3q0 .39.18.66c.13.17.29.32.48.42.2.11.4.19.63.23.24.05.46.08.68.08a4.93 4.93 0 0 0 3.17-1.03c.41-.34.8-.73 1.13-1.18.33-.47.64-.98.92-1.53l.46-.06c.17-.03.3-.04.4-.04l-.41.93c-.14.31-.24.63-.3.97l.1-.01a10 10 0 0 1 1.1-1.46c.42-.44.86-.86 1.33-1.25H20.7c-.05 0-.1.02-.15.07a2 2 0 0 0-.13.18 4 4 0 0 1-.13.18.35.35 0 0 1-.1.12c-.09.05-.2.1-.37.13-.16.04-.35.06-.58.09q.21-.39.51-.87c.2-.33.43-.65.69-.93.26-.3.53-.55.83-.75a1.66 1.66 0 0 1 1.16-.3l.29.03.3.02a3.8 3.8 0 0 0 1.04-.08 1 1 0 0 0 .35-.18.44.44 0 0 0 .14-.34.34.34 0 0 0-.1-.25.6.6 0 0 0-.21-.17.9.9 0 0 0-.28-.09 1.3 1.3 0 0 0-.27-.03l-.66-.01a23 23 0 0 0-.84-.03 37 37 0 0 0-1.05-.04h-1.33a18 18 0 0 0-2.82.25c-.52.1-1.05.23-1.58.4-.52.17-.99.38-1.4.64a3.4 3.4 0 0 0-1 .93 2.13 2.13 0 0 0-.4 1.26c0 .29.06.54.17.76a1.85 1.85 0 0 0 1.03.9c.2.08.42.12.64.12.32 0 .64-.06.97-.17a3 3 0 0 0 .89-.49 2.45 2.45 0 0 0 .65-.76c.17-.3.26-.62.26-.98 0-.26-.03-.46-.08-.6a1.7 1.7 0 0 0-.11-.33l-.1.06a2.1 2.1 0 0 1 .16.82c0 .3-.1.58-.28.81a2.3 2.3 0 0 1-.67.6 3.63 3.63 0 0 1-2.26.4 2 2 0 0 1-.53-.2 1.4 1.4 0 0 1-.4-.4 1.1 1.1 0 0 1-.16-.6c0-.33.09-.62.26-.86s.4-.45.68-.63c.3-.18.64-.32 1.03-.44a9 9 0 0 1 1.24-.27 21 21 0 0 1 3.7-.17 211 211 0 0 1 1.5.04h.66v.03c-.46.12-.89.25-1.3.41a5.6 5.6 0 0 0-1.13.58c-.35.22-.67.5-.96.81-.62.69-1.06 1.6-1.49 2.42"/><path fill="#fff" fill-rule="evenodd" d="M27.01 35.53c0-.3.05-.57.15-.83h-.03a1 1 0 0 1-.5-.13 1.7 1.7 0 0 1-.4-.37h-.02q0 .57-.27 1.08c-.17.34-.4.64-.7.9a3.4 3.4 0 0 1-.98.6 3.15 3.15 0 0 1-1.84.14 1.7 1.7 0 0 1-.58-.25 1.34 1.34 0 0 1-.42-.45c-.1-.19-.15-.42-.15-.7 0-.4.1-.78.29-1.11s.44-.61.74-.85c.3-.23.64-.42 1.02-.54a3.7 3.7 0 0 1 1.14-.18 1.7 1.7 0 0 1 1.26.46c.14.12.26.25.35.4l.3.43c.1.12.2.23.31.31.12.09.27.13.45.13a1 1 0 0 0 .1 0 2.9 2.9 0 0 1 .81-1c.3-.24.65-.43 1.03-.55a3.7 3.7 0 0 1 1.13-.18 1.68 1.68 0 0 1 1.26.46c.15.12.26.25.36.4l.29.43c.1.12.2.23.32.31.12.09.27.13.45.13a1 1 0 0 0 .24-.03c.19-.3.42-.58.7-.81a3.9 3.9 0 0 1 1.07-.65c.4-.16.79-.24 1.18-.24.22 0 .4.07.55.2.14.14.24.31.29.52L39.59 29h1.43a146 146 0 0 0-2.86 4.68 45 45 0 0 0-1.13 2.02 4 4 0 0 0-.2.45 1 1 0 0 0-.04.28c0 .08.02.16.07.21s.12.08.22.08c.12 0 .3-.07.52-.22.19-.12.38-.28.57-.47a1.4 1.4 0 0 1-.01-.19.8.8 0 0 1 .26-.63.8.8 0 0 1 .68-.23l.09-.11.39-.53a.8.8 0 0 1-.02-.17c0-.17.04-.34.12-.5s.19-.3.34-.42a1.7 1.7 0 0 1 .57-.3c.22-.08.47-.11.76-.11h.02l.05.16a.5.5 0 0 0-.18-.03.47.47 0 0 0-.39.17.7.7 0 0 0-.14.46c0 .18.06.35.16.5l.35.46c.13.15.24.31.35.48.1.16.16.35.16.56 0 .25-.06.46-.17.63-.38.59-1.23.77-1.87.77a2.8 2.8 0 0 1-.61-.06 1.4 1.4 0 0 1-.48-.21 1 1 0 0 1-.32-.36 1 1 0 0 1-.08-.2c-.3.3-.56.5-.8.64-.27.13-.53.19-.8.19a.87.87 0 0 1-.66-.26.93.93 0 0 1-.24-.65c0-.08.02-.17.05-.26l-.02-.02c-.25.32-.54.6-.86.84-.32.23-.7.35-1.15.35-.33 0-.58-.11-.75-.34a1.3 1.3 0 0 1-.24-.79c0-.42.1-.81.3-1.18l-.15.01a1 1 0 0 1-.5-.13 1.7 1.7 0 0 1-.4-.37h-.02c0 .38-.1.74-.27 1.08a3 3 0 0 1-.7.9 3.4 3.4 0 0 1-.98.6 3.15 3.15 0 0 1-1.84.14 1.7 1.7 0 0 1-.59-.25 1.34 1.34 0 0 1-.42-.45c-.1-.19-.15-.42-.15-.7zm12.37-.43a.6.6 0 0 0-.16-.09l.4-.54.08.16a11 11 0 0 0 .6.87q.15.225.15.45c0 .25-.08.47-.23.65s-.37.27-.68.27c-.24 0-.41-.06-.54-.18a.76.76 0 0 1-.18-.55c0-.08.02-.14.06-.2a.6.6 0 0 0 .2.03c.12 0 .23-.04.32-.12.1-.08.14-.2.14-.36 0-.17-.05-.3-.16-.39M24.1 33.15a.92.92 0 0 1 .53-.18c.13 0 .24.05.3.15a.64.64 0 0 1 .12.4 4.5 4.5 0 0 1-.34 1.32 7 7 0 0 1-.37.74 5 5 0 0 1-.46.65 2.8 2.8 0 0 1-.51.47.9.9 0 0 1-.52.17.38.38 0 0 1-.32-.15.7.7 0 0 1-.1-.4c0-.18.02-.38.08-.61a5.5 5.5 0 0 1 1.6-2.56zm6.27-.18a.9.9 0 0 0-.52.18 2.5 2.5 0 0 0-.5.47 4 4 0 0 0-.46.65 7 7 0 0 0-.38.72 5.5 5.5 0 0 0-.26.72 2.6 2.6 0 0 0-.08.6c0 .17.03.3.1.4a.38.38 0 0 0 .33.16.9.9 0 0 0 .51-.17c.18-.13.35-.28.51-.47a5 5 0 0 0 .84-1.39 4.5 4.5 0 0 0 .34-1.32c0-.17-.04-.3-.12-.4a.36.36 0 0 0-.3-.15zm6.12.15a.74.74 0 0 1 .1.4c0 .14-.03.3-.09.51a5 5 0 0 1-.23.64c-.1.22-.22.44-.35.66a4 4 0 0 1-.43.6 2.4 2.4 0 0 1-.5.43.9.9 0 0 1-.5.16c-.13 0-.23-.05-.29-.15a.9.9 0 0 1-.08-.41c0-.25.06-.55.2-.89.13-.35.3-.68.5-.99a4.3 4.3 0 0 1 .66-.79c.24-.21.47-.32.68-.32q.255 0 .33.15"/></svg>