<svg xmlns="http://www.w3.org/2000/svg" width="56" height="56"><path fill="#F0F3FA" d="M0 0h56v56H0z"/><path fill="#006938" d="M14.93 12A2.93 2.93 0 0 0 12 14.93v9.94a8.5 8.5 0 0 1 3.75-.87c2.39 0 4.6.47 6.87.95 2.43.52 4.93 1.05 7.82 1.05 5.61 0 9.16-2.22 11.56-4-.9 2.67-5 8-14.2 8-3.76 0-5.63-.39-7.36-.75a22.7 22.7 0 0 0-8.44-.34v2c3.43.8 10.49 2.09 14.32 2.09 4.99 0 9.78-1.97 13.68-5-.77 3.33-5.51 10-18.33 10A43.2 43.2 0 0 1 12 36.83v4.24A2.93 2.93 0 0 0 14.93 44h26.14A2.93 2.93 0 0 0 44 41.07V14.93A2.93 2.93 0 0 0 41.07 12zM19 23c.37-1.54 2.01-4.63 5.57-4.63 2.2 0 3.67.4 5.14.8 1.5.42 3 .83 5.28.83 3.64 0 6.86-2 8.01-3-.49 2-3 6-10.15 6-1.97 0-3.61-.3-5.11-.56-1.27-.23-2.43-.44-3.61-.44-1.99 0-4.25.64-5.13 1"/></svg>