<svg xmlns="http://www.w3.org/2000/svg" width="56" height="56"><path fill="#181B1E" d="M0 0h56v56H0z"/><path fill="#EB193F" d="M16 16.12A4.06 4.06 0 0 1 19.99 12H36c2.2 0 3.99 1.85 3.99 4.12v16.76A4.06 4.06 0 0 1 36.01 37H20a4.06 4.06 0 0 1-4-4.12z"/><path fill="#F8FFF6" d="M16 23.12A4.06 4.06 0 0 1 19.99 19H36c2.2 0 3.99 1.85 3.99 4.12v16.76A4.06 4.06 0 0 1 36.01 44H20a4.06 4.06 0 0 1-4-4.12z"/><path fill="#0034C6" d="M21 27.69V41h9.43A4.68 4.68 0 0 0 35 36.22c0-2.64-1.77-3.84-3.22-4.65 1.45-.8 2.53-1.96 2.53-3.8v-.08z"/><path fill="#E61A3D" d="M34.3 28H21v-5h8.74a4.68 4.68 0 0 1 4.56 5"/><path fill="#FFFCFD" fill-rule="evenodd" d="M36 18c1.1 0 2-.88 2-1.97s-.9-1.97-2-1.97-2 .88-2 1.97.9 1.97 2 1.97m0-.47c.84 0 1.53-.67 1.53-1.5s-.69-1.5-1.53-1.5-1.53.67-1.53 1.5.69 1.5 1.53 1.5M31 14v4h.5v-1.5h.8c.73 0 1.2-.53 1.2-1.23S33.03 14 32.3 14zm.5 2h.8c.42 0 .7-.34.7-.73 0-.4-.28-.77-.7-.77h-.8z"/><path fill="#FFFCFD" d="M23 18v-4h1.4c.76 0 1.38.57 1.38 1.27 0 .43-.24.79-.6 1.02L26 18h-.62l-.72-1.5H23.5V18zm.5-2h.97c.43 0 .78-.34.78-.73a.8.8 0 0 0-.78-.77h-.97zm4-2H27v2.5a1.5 1.5 0 0 0 3 0V14h-.5v2.5a1 1 0 1 1-2 0zM20 18a2 2 0 0 0 2-2h-2v.46h1.4c-.2.59-.75 1.01-1.4 1.01A1.5 1.5 0 0 1 18.5 16c0-.81.69-1.47 1.5-1.47.55 0 1.02.3 1.28.74l.4-.37A2 2 0 1 0 20 18"/><path fill="#fff" fill-opacity=".5" d="M22 36h7v1h-7zm0 2h6v1h-6z"/></svg>