<svg xmlns="http://www.w3.org/2000/svg" width="56" height="56"><path fill="#F0F3FA" d="M0 0h56v56H0z"/><path fill="url(#a)" d="M17.5 22.5a1.5 1.5 0 1 1-3 0 1.5 1.5 0 0 1 3 0"/><rect width="2" height="9" x="15" y="25" fill="#2A2A29" rx="1"/><rect width="2" height="9" x="5" y="21" fill="#2A2A29" rx="1"/><path fill="#2A2A29" d="M49 30a1 1 0 1 1 2 0v3a1 1 0 1 1-2 0zm-21-4.16c0-.47.52-.84 1-.84.24 0 .45.1.61.24.18.17.43.31.65.19.5-.3 1.12-.43 1.79-.43.84 0 1.61.3 2.2.8.34.3.93.3 1.27 0 .57-.5 1.33-.8 2.17-.8A3.26 3.26 0 0 1 41 28.2v4.96c0 .47-.52.84-1 .84s-1-.37-1-.84v-4.74c0-1.06-.61-1.92-1.7-1.92-1.1 0-1.78.86-1.78 1.92v4.74c0 .47-.54.84-1.02.84s-1-.37-1-.84v-4.74c0-1.06-.75-1.92-1.84-1.92-1.1 0-1.66.86-1.66 1.92v4.74c0 .47-.52.84-1 .84s-1-.37-1-.84z"/><path fill="#2A2A29" fill-rule="evenodd" d="M46.5 34a4.5 4.5 0 1 0 0-9 4.5 4.5 0 0 0 0 9m0-2a2.5 2.5 0 1 0 0-5 2.5 2.5 0 0 0 0 5m-37 2a4.5 4.5 0 1 0 0-9 4.5 4.5 0 0 0 0 9m0-2a2.5 2.5 0 1 0 0-5 2.5 2.5 0 0 0 0 5m13 2a4.5 4.5 0 1 0 0-9 4.5 4.5 0 0 0 0 9m0-2a2.5 2.5 0 1 0 0-5 2.5 2.5 0 0 0 0 5"/><path fill="#2A2A29" d="M13 28h6v2h-6zm13 0h3v2h-3zm14 0h3v2h-3z"/><defs><linearGradient id="a" x1="15.18" x2="17.46" y1="21.56" y2="23.44" gradientUnits="userSpaceOnUse"><stop stop-color="#03C9EA"/><stop offset=".74" stop-color="#1922C7"/></linearGradient></defs></svg>