<svg xmlns="http://www.w3.org/2000/svg" width="56" height="56"><path fill="#00A5DA" d="M0 0h56v56H0z"/><path fill="#FEFEFF" d="M21 10h5.96C30 10 35 13.88 35 18.5c0 2.17-.29 3.72-1.5 5.5-1.31 1.93-3.84 5.2-5.79 7.8C26.34 33.61 25 35.5 25 37c0 1.87 1.5 4 4 4s4-1.97 4-4c0-1.91-1.96-4.36-3-5.75L31.2 30c1.37 1.8 3.8 4.55 3.8 7 0 3-2.66 6-6 6-3.5 0-6-3.16-6-6 0-2.2 1.62-4.3 3.2-6.4 1.94-2.58 4.22-5.57 5.61-7.61 1.01-1.5 1.19-2.67 1.19-4.49 0-3.74-4-6.5-6.18-6.5H23v15.5L21 30z"/><path fill="#FEFEFF" d="M24 13h2.9c1.84 0 5.1 2.5 5.1 5.47 0 1.65-.57 3.2-1.5 4.53l-6.97 9.47A8.4 8.4 0 0 0 22 36.82 7.3 7.3 0 0 0 29.32 44c4.2 0 6.68-3.18 6.68-7.18 0-3.07-2.18-5.54-4-7.82l1.4-1.31c2.1 2.62 4.6 5.6 4.6 9.13C38 41.8 34.5 46 29.32 46 24.4 46 20 41.76 20 36.82c0-2.31 1.25-4.54 1.87-5.39L28.8 22a6.2 6.2 0 0 0 1.2-3.52C30 16.5 28 15 26.67 15H26v8.5L24 26z"/></svg>