<svg xmlns="http://www.w3.org/2000/svg" width="56" height="56"><path fill="url(#a)" d="M0 0h56v56H0z"/><path fill="#fff" d="M8 16h9.81c5.371 0 9.101 2.163 9.101 6.287a5.47 5.47 0 0 1-.814 2.904 6.2 6.2 0 0 1-2.282 2.167c1.262.36 2.357 1.09 3.113 2.075a5.06 5.06 0 0 1 1.065 3.367c0 5.273-4.85 7.2-10.127 7.2H8zm9.884 9.346c.323.017.646-.03.947-.139.301-.108.572-.273.796-.485.223-.212.393-.466.498-.743a1.85 1.85 0 0 0 .11-.863 1.8 1.8 0 0 0-.159-.846 2 2 0 0 0-.54-.703 2.2 2.2 0 0 0-.82-.427 2.4 2.4 0 0 0-.944-.07h-3.105v4.276zm.56 9.736c.38.032.763-.01 1.123-.125s.687-.3.96-.54c.274-.242.486-.534.622-.857a2.2 2.2 0 0 0 .167-1.014 2.1 2.1 0 0 0-.16-.983 2.3 2.3 0 0 0-.6-.832 2.6 2.6 0 0 0-.93-.527 2.8 2.8 0 0 0-1.089-.125h-3.87v5.07z"/><path fill="#00AEEF" d="M31 25v-9h3v9h11v-9h3v24h-3V28H34v12h-3z"/><defs><linearGradient id="a" x1="10.418" x2="68.147" y1="9.712" y2="76.017" gradientUnits="userSpaceOnUse"><stop stop-color="#1A1E21"/><stop offset="1" stop-color="#06060A"/></linearGradient></defs></svg>