<svg xmlns="http://www.w3.org/2000/svg" width="56" height="56" fill="none"><path fill="#F0F3FA" d="M0 0h56v56H0z"/><path fill="#172778" fill-rule="evenodd" d="M22.5 21c.823 0 1.5.597 1.5 1.321v12.358c0 .724-.677 1.321-1.5 1.321s-1.5-.597-1.5-1.321V22.321c0-.724.677-1.321 1.5-1.321M47 22.5c0 .823-.692 1.5-1.533 1.5h-4.934c-.84 0-1.533-.677-1.533-1.5s.692-1.5 1.533-1.5h4.934c.84 0 1.533.677 1.533 1.5M39.5 25c.687 0 1.5.488 1.5 1.218V31c0 1.111.899 2 2 2s2-.889 2-2v-4.782c0-.698.827-1.218 1.5-1.218.699 0 1.5.577 1.5 1.282v5.487C48 34.1 45.808 36 43.5 36h-1c-2.308 0-4.5-1.902-4.5-4.23v-5.552c-.02-.662.844-1.218 1.5-1.218M37 30c0-3.32-2.68-6-6-6s-6.025 2.68-6 6c0 3.32 2.681 6 6 6h.004L31 35.984s1.998.066 1.998-1.5c0-1.237-1.248-1.455-1.771-1.493A3.01 3.01 0 0 1 28 30c0-1.672 1.352-3 3-3a3.01 3.01 0 0 1 2.998 3.094v4.32l.002.01v.191c0 .755.682 1.385 1.5 1.385s1.5-.63 1.5-1.385v-4.23q0-.06-.006-.12A6 6 0 0 0 37 30M9.253 21h5.878S19 21 19 25c0 2.5-1.444 3-1.444 3S20 29.02 20 31.527C20 35.5 17.414 36 16.626 36H13.5S12 36 12 34.5s1.5-1.5 1.5-1.5h1.904S17 33.074 17 31.5c0-1.5-1.556-1.5-1.556-1.5H13.5S12 30 12 28.5s1.015-1.5 1.5-1.5c1.369 0 2.5 0 2.5-1.5s-1.5-1.491-1.5-1.491H11V34.5c0 1-.813 1.5-1.5 1.5S8 35.5 8 34.5V22.284C8 21.58 8.566 21 9.253 21" clip-rule="evenodd"/></svg>