<svg xmlns="http://www.w3.org/2000/svg" width="56" height="56" fill="none"><path fill="url(#a)" d="M0 0h56v56H0z"/><path fill="#F0F3FA" fill-rule="evenodd" d="m22 13-2 16.201.056.059C13.736 29.816 8 31.473 8 35.997 8 39.397 12 42 12 42s-2-2-2-4.402c0-3.098 4.617-6.48 17.907-7.042a64 64 0 0 1 8.3.209l-1.173 8.51S34.68 41 36.256 41h4.63c.611 0 5.114-.76 5.114-5.177C46 32.137 43 31 43 31s3-.644 3-3.129-2.187-2.857-3.21-2.857C41.767 25 37 25 37 25l-.625 4.54a98 98 0 0 0-1.352-.132L37 13h-.852s-1.222-.013-1.875 1.078C33.62 15.17 28 24 28 24l-2.76-9.003s-.627-1.984-2.303-1.984C22.923 13 22 13 22 13m10.273 16.193L34 18l-5.89 9h-1.875L23 17.287l-1.457 11.862a87 87 0 0 1 10.73.044M39.452 26 39 30s.654.138 1.321.138c.654 0 2.68-.085 2.68-2.156C43 25.912 41.24 26 41.24 26h-1.79Zm-1.776 14 1.119-9s4.847.571 4.847 4.74S39.537 40 39.537 40z" clip-rule="evenodd"/><defs><linearGradient id="a" x1="28" x2="28" y1="0" y2="56" gradientUnits="userSpaceOnUse"><stop stop-color="#336B9D"/><stop offset="1" stop-color="#014784"/></linearGradient></defs></svg>