<svg xmlns="http://www.w3.org/2000/svg" width="56" height="56"><path fill="#F0F3FA" d="M0 0h56v56H0z"/><path fill="#FA6300" d="M35.21 24c-1.05 0-1.7.42-2.35 1.48-.46-1.14-1.28-1.46-2.06-1.46-.6 0-1.4.2-1.85 1.06l-.1-.82a.31.31 0 0 0-.3-.26H27.3c-.16 0-.3.15-.3.32v7.36c0 .17.14.32.3.32h1.4c.16 0 .3-.15.3-.32v-3.86c0-.89.47-1.6 1.29-1.6.83 0 1.21.56 1.21 1.58v3.88c0 .17.14.32.3.32h1.4c.16 0 .3-.15.3-.32v-3.86c0-.89.43-1.53 1.25-1.53.83 0 1.25.5 1.25 1.5v3.89c0 .17.14.32.3.32h1.4c.16 0 .3-.15.3-.32v-3.95c.02-2.92-1.32-3.73-2.79-3.73m-12.83 0c-.85 0-1.75.27-2.35 1.05V21.3a.3.3 0 0 0-.3-.3H18.3a.3.3 0 0 0-.29.3v10.4c0 .18.14.3.3.3h1.33c.15 0 .27-.1.3-.27l.1-.83c.67.89 1.49 1.1 2.4 1.1 2.13 0 3.57-1.7 3.57-4-.02-2.4-1.49-4-3.62-4Zm-.22 6.05c-1.03 0-1.86-1-1.86-2.05s.83-2.19 1.86-2.19c1.02 0 1.85 1.14 1.85 2.19.02 1.05-.82 2.05-1.85 2.05"/><path fill="#462A71" d="M12.02 25.61c0-.37.32-.66.67-.6A4.01 4.01 0 0 1 16 29c0 3.15-2.45 3.84-3.52 3.99-.26.03-.48-.18-.48-.45.02.02.02-5.11.02-6.94Z"/><path fill="#FA6300" d="M8.5 29h1.99c.83 0 1.51-.62 1.51-1.37v-6.19c0-.25-.21-.44-.49-.44h-.93C9.17 21 8 22.04 8 23.34v5.2c0 .25.21.46.5.46m36.8 1.57A3.03 3.03 0 0 0 47 28a3.3 3.3 0 0 0-.74-2l.67-.74c.1-.13.09-.31-.05-.41l-1.08-.8a.31.31 0 0 0-.43.07l-.57.73a4.6 4.6 0 0 0-1.83-.38C40.9 24.47 39 25.59 39 28c0 2.2 1.56 3.65 3.98 3.65 1.33 0 2.02.52 2.02 1.22 0 .87-1.09 1.13-2.05 1.13-.91 0-1.75.12-1.92-.77-.02-.13-.16-.23-.3-.23h-1.42c-.17 0-.31.15-.31.31.1 1.85 1.53 2.69 3.93 2.69 2.03 0 4.07-1.02 4.07-3.12.02-.44-.07-1.6-1.7-2.3Zm-2.35-.77c-1.01 0-1.95-.83-1.95-1.8s.94-1.73 1.95-1.73S45 27.03 45 28s-1.04 1.8-2.05 1.8"/></svg>