<svg xmlns="http://www.w3.org/2000/svg" width="56" height="56"><path fill="#F0F3FA" d="M0 0h56v56H0z"/><path fill="#DF0125" fill-rule="evenodd" d="M18.26 18.84c-.54 1.01-.22 2.3.72 2.88.93.58 2.12.23 2.66-.78l2.1-3.78c.54-1.01.22-2.3-.72-2.88a1.87 1.87 0 0 0-2.66.78zm7.42 9.75a10 10 0 0 0-1.07-1.54l6.1-9.9c.6-1 .24-2.3-.8-2.87a2.25 2.25 0 0 0-3 .77l-5.82 9.45a7.16 7.16 0 0 0-4.46-.26c-4.22 1.13-6.58 5.98-5.27 10.81 1.31 4.84 5.8 7.84 10.01 6.71 3.15-.84 5.26-3.75 5.59-7.18l2.12-3.47c-.16 1.26-.08 2.6.28 3.94 1.31 4.84 5.8 7.84 10.01 6.71 4.22-1.13 6.58-5.98 5.27-10.81-1.31-4.84-5.8-7.84-10.01-6.71-.66.18-1.27.44-1.83.79l4.92-8.06c.58-.95.23-2.16-.78-2.7a2.2 2.2 0 0 0-2.9.72zm-5.06 10.28c2.61-.7 4-3.88 3.1-7.12-.89-3.24-3.73-5.3-6.34-4.62-2.61.7-4 3.88-3.1 7.12.89 3.24 3.73 5.3 6.34 4.62m18 0c2.61-.7 4-3.88 3.1-7.12-.89-3.24-3.73-5.3-6.34-4.62-2.61.7-4 3.88-3.1 7.12.89 3.24 3.73 5.3 6.34 4.62"/></svg>