<svg xmlns="http://www.w3.org/2000/svg" width="56" height="56" fill="none"><path fill="#F0F3FA" d="M0 0h56v56H0z"/><path fill="#0060F1" d="m43 36-9-5v10z"/><path fill="#459EF4" d="M34 41.003 25 46V36z"/><path fill="#027BFF" d="m25 36 4.5-2.497L34 31v10l-4.5-2.503z"/><path fill="#64BAFF" d="m16 41.003 4.503-2.505L25 36v10l-4.497-2.498z"/><path fill="#9185F5" d="m16 21 9-5v10z"/><path fill="#A69DF7" d="m25 16-4.497-2.497L16 11v10z"/><path fill="#7D61FA" d="m25 26-9-5v10z"/><path fill="#0500FF" d="m34 20.973-9 5.03L34 31z"/><path fill="#0053FF" d="m34 31 9-5v10z"/><path fill="#062EFE" d="M43 25.997 38.497 23.5 34 21v10l4.497-2.498z"/><path fill="#6924F2" d="m16 31 9-5v10z"/></svg>