<svg xmlns="http://www.w3.org/2000/svg" width="56" height="56"><path fill="url(#a)" d="M0 0h56v56H0z"/><path fill="#fff" d="m27.669 25.43-6.47-10.902 6.47 3.551zM28 17.52 21.587 14h12.826zm6.8-2.992-6.468 3.551v7.35zm-16.456.879-6.47 10.902 6.47-3.552zm.332 7.909-6.413 3.673h12.826zm6.801 2.994L19 22.756v-7.35l6.477 10.902zM21.2 41.472l6.469-10.902v7.35zm.387.528L28 38.48 34.413 42zm6.744-4.08 6.47 3.552-6.47-10.902zm2.193-11.617L37 15.4v7.35l-6.476 3.552zm.388.679 6.413-3.672 6.413 3.672zm6.745-4.232 6.47 3.553-6.47-10.902v7.35zM18.346 40.595l-6.47-10.902 6.47 3.552zm.331-7.909-6.413-3.672H25.09zm6.801-2.993L19 33.245v7.35zM37 40.581 30.525 29.68 37 33.232zm.326-7.908L30.913 29h12.826zm6.801-2.993-6.47 3.551v7.35z"/><defs><linearGradient id="a" x1="10.418" x2="68.147" y1="9.712" y2="76.017" gradientUnits="userSpaceOnUse"><stop stop-color="#1A1E21"/><stop offset="1" stop-color="#06060A"/></linearGradient></defs></svg>