<svg xmlns="http://www.w3.org/2000/svg" width="56" height="56"><path fill="#F0F3FA" d="M0 0h56v56H0z"/><ellipse cx="28" cy="28" fill="#E41D25" rx="21" ry="13"/><path fill="#fff" fill-rule="evenodd" d="M28 40c11.05 0 20-5.37 20-12s-8.95-12-20-12S8 21.37 8 28s8.95 12 20 12m0-1c10.5 0 19-4.92 19-11s-8.5-11-19-11S9 21.92 9 28s8.5 11 19 11"/><path fill="#fff" d="M33.28 21.43c.03-.23 0-.24-.1-.05l-2.14 4.2c0 .01 0 .02-.02.03a.04.04 0 0 1-.05-.01l-.02-.03-1.1-4.56-.02-.02-.02-.01h-.02c-.01 0-.02 0-.02.02a.3.3 0 0 0-.04.12 77 77 0 0 0-.29 4.25l.06.03c.36.04.7.06.63.64-.04.34-.16.42-.45.41l-1.85-.08a.3.3 0 0 1-.14-.05.35.35 0 0 1-.11-.11.72.72 0 0 1-.04-.73.2.2 0 0 1 .11-.1c.2-.07.39-.1.58-.08.02 0 .04 0 .05-.02a.1.1 0 0 0 .03-.06l.45-5.84c.02-.16-.04-.26-.18-.28-.53-.1-.71-.4-.53-.9.09-.24.3-.2.49-.2.93.02 1.91.1 2.93.25.05 0 .08.03.1.1l.58 2.4.02.04.04.02h.03l.03-.04 1.08-2.13c.02-.04.05-.05.1-.04 1.1.23 2.19.55 3.26.96.23.08.32.3.28.64l-.01.03c-.1.3-.29.4-.55.34a1 1 0 0 0-.3-.04c-.04 0-.08.08-.1.23-.33 1.93-.62 3.88-.88 5.83 0 .02.14.1.44.26.05.02.09.05.11.1.03.05.05.1.05.16.02.2 0 .33-.02.38-.16.27-.35.36-.58.28a24 24 0 0 0-3.1-.93c-.3-.06-.41-.3-.34-.69.04-.24.16-.34.36-.32l.5.06q.075 0 .09-.09z"/><path fill="#fff" d="M24.9 26.7c-.86.08-1.73-.29-2.4-1.04a5 5 0 0 1-1.2-2.96c-.04-.57 0-1.15.13-1.7a4.8 4.8 0 0 1 .61-1.47c.28-.44.62-.8 1-1.05.38-.26.8-.42 1.23-.47.87-.09 1.74.28 2.42 1.03a5 5 0 0 1 1.18 2.97c.05.57 0 1.14-.12 1.69a4.8 4.8 0 0 1-.61 1.48c-.28.43-.62.8-1 1.05-.38.26-.8.42-1.23.46Zm-.59-7.4c-.48.07-.64 1.13-.46 3.19s.51 3.06 1 3 .64-1.12.46-3.18c-.18-2.07-.51-3.06-1-3Z"/><path fill="#fff" d="M19.04 23.5c.16 0 .36 0 .59-.04 1.87-.23 2.46 2.58 1.17 3.9q-.27.285-1.11.63c-1.17.5-2.4 1.13-3.68 1.92-.37.22-.74.03-.75-.49-.01-.37.36-.6.61-.7l.02-.02.01-.02a.08.08 0 0 0 0-.06l-1.93-5.5a.1.1 0 0 0-.05-.07.08.08 0 0 0-.07 0l-.2.08c-.67.33-.9-.74-.34-1.04l.17-.09c1.66-1 3.16-1.71 4.51-2.16.39-.13 1.08-.12 1.45.13.32.21.54.53.67.96.36 1.14-.4 1.93-1.1 2.5-.05.05-.05.07.03.07m-2.74-1.49.55 1.54c.01.03.03.05.06.07h.08l.37-.2c.1-.04.18-.1.25-.2a1 1 0 0 0 .16-.29 1.05 1.05 0 0 0 0-.69l-.04-.1a.84.84 0 0 0-.41-.49.66.66 0 0 0-.59.01l-.37.19a.12.12 0 0 0-.06.07.15.15 0 0 0 0 .1Zm1.15 3.2.69 1.95.02.05.04.03a.1.1 0 0 0 .05.01.1.1 0 0 0 .05 0l.32-.17c.2-.1.35-.28.43-.52.07-.23.07-.5-.01-.74l-.16-.43a.94.94 0 0 0-.43-.53.66.66 0 0 0-.6-.01l-.33.16a.1.1 0 0 0-.04.03.2.2 0 0 0-.03.05.17.17 0 0 0 0 .11Zm22.57 3.05 2.04 4.79.01.02h.07c.63-.66.27-1.8.25-2.63 0-.47.05-1.07.55-1.1.05 0 .1.01.15.04.04.03.08.08.1.14.12.37.37 1.14.77 2.3.07.22.05.42-.07.6a8.1 8.1 0 0 1-3.59 3.06c-.4.17-.86.35-.97-.29-.06-.33.3-.6.53-.66l.04-.02a.1.1 0 0 0 .02-.04.11.11 0 0 0 0-.09l-2.18-5.11a.1.1 0 0 0-.04-.05h-.06c-.56.24-.85-.8-.17-1.01.2-.07.92-.42 2.17-1.06.2-.1.34-.15.43-.15.31 0 .55.52.3.8a6 6 0 0 1-.32.32c-.05.04-.06.08-.03.14"/><path fill="#fff" d="m34.24 30.46-.23.01c-.2.02-.33-.1-.41-.34a1 1 0 0 1-.04-.22c-.01-.23.08-.38.29-.44a41 41 0 0 0 2.47-.8c.4-.14.53-.11.73.3.1.23.01.45-.29.64-.07.05-.1.12-.07.22l1.4 5.35c.02.08.06.1.13.07.19-.1.37-.11.55-.05.26.1.3.6.1.82a.8.8 0 0 1-.32.2c-.7.25-1.56.53-2.6.83-.8.22-1.01-.8-.3-1.04.01 0 .02 0 .03-.02l.02-.02a.1.1 0 0 0 0-.07l-1.33-5.3c-.02-.1-.06-.14-.13-.14m-8.74 3.36c.79.42 1.57 1.07 1.43 2.2-.22 1.8-1.72 1.85-3.04 1.62a31 31 0 0 1-4.56-1.13c-.26-.09-.37-.29-.32-.6v-.02c.07-.32.24-.45.53-.39l.49.1c.04.02.07 0 .08-.06l1.2-5.48a.12.12 0 0 0-.02-.08.1.1 0 0 0-.03-.03.1.1 0 0 0-.04-.02c-.87-.07-.81-1.38.1-1.07.98.34 2.2.65 3.64.92 1.1.2 2.3.63 2.42 2.02.1 1.24-.87 1.92-1.86 1.88-.22 0-.23.04-.03.14Zm-1.83-3.03-.36 1.61a.1.1 0 0 0 0 .08l.03.03.03.01.39.11c.2.06.42.02.6-.1a.87.87 0 0 0 .36-.54l.03-.1a.96.96 0 0 0-.1-.66.82.82 0 0 0-.49-.4l-.38-.11-.07.01a.1.1 0 0 0-.04.06m-.7 3.21-.42 2.01a.1.1 0 0 0 .01.08l.03.03.03.01.48.13a.9.9 0 0 0 .73-.13c.22-.15.38-.38.43-.66l.03-.13a1.16 1.16 0 0 0-.12-.8 1.1 1.1 0 0 0-.26-.31.95.95 0 0 0-.35-.18l-.47-.12a.08.08 0 0 0-.07.01.1.1 0 0 0-.03.03.1.1 0 0 0-.01.03Z"/><path fill="#fff" d="M32.51 33.73c.78.06 1.37.32 1.57 1.26.08.4.15.82.2 1.23 0 .05.03.09.08.1l.38.03c.04 0 .08.02.12.05.3.23.32.86-.11.95-.95.18-1.72.3-2.29.38-.07 0-.14-.01-.2-.05a.4.4 0 0 1-.16-.17c-.12-.27-.19-.55-.2-.84-.05-.64-.12-1.18-.23-1.62a.8.8 0 0 0-.63-.64l-.07-.02q-.435-.105-.42.39l.04 1.96c0 .12.05.18.17.16.55-.07.78.14.69.65q-.045.27-.3.3c-.98.1-2.05.15-3.2.15-.77 0-.73-1.1.01-1.03.1 0 .14-.04.14-.15l-.1-5.6a.1.1 0 0 0-.03-.06l-.03-.02h-.03c-.43.04-.62-.17-.57-.65.03-.32.24-.43.53-.42 1.06.02 2.31-.06 3.74-.24q.48-.045 1.02.09c.99.25 1.4 1.3 1.24 2.33-.13.79-.7 1.12-1.37 1.4-.1.05-.1.07.01.08m-2.1-2.42.09 1.59a.1.1 0 0 0 0 .03l.02.03.03.02h.03l.43-.02c.08 0 .17-.03.25-.07a.7.7 0 0 0 .22-.17.75.75 0 0 0 .17-.54l-.01-.3a.78.78 0 0 0-.23-.5.67.67 0 0 0-.49-.2l-.42.03h-.03a.1.1 0 0 0-.03.03l-.02.03a.1.1 0 0 0 0 .04Z"/></svg>