<svg xmlns="http://www.w3.org/2000/svg" width="56" height="56"><path fill="#0065B3" d="M0 0h56v56H0z"/><path fill="#fff" d="M24.969 38.089c-3.047 4.31-7.572 5.895-9.14 4.31-1.297-1.31-1.158-4.659.888-8.908A12.18 12.18 0 0 1 14 25.84C14 19.232 19.387 14 26.033 14c1.933 0 3.753.442 5.364 1.232 2.177-1.83 4.216-3.296 5.76-4.232-.522.527-1.148 1.134-1.848 1.813a200 200 0 0 0-2.976 2.932A11.74 11.74 0 0 1 38 25.839c0 1.918-.448 3.747-1.247 5.377C42.709 33.116 53 33.78 53 33.78l-18.457.583C32.38 36.597 29.373 38 26.033 38c-2.815 0-5.405-.997-7.455-2.649-1.275 3.598-.511 5.005.906 5.2 1.676.231 4.266-1.23 5.485-2.462m-6.01-3.732c1.892 1.596 4.346 2.552 7.074 2.552 2.859 0 5.402-1.049 7.311-2.784l-4.11-7.118s2.733 2.301 6.094 3.694q.22.09.452.179a11.4 11.4 0 0 0 1.153-5.041c0-4.11-2.101-7.524-5.34-9.338-1.796 1.85-3.697 3.947-5.405 6.196l-.21.277c-2.808 3.695-4.515 5.941-6.494 10.19q-.293.627-.525 1.193M17.221 32.5a30 30 0 0 1 1.045-1.798c2.324-3.709 3.752-5.9 6.703-9.235a61 61 0 0 1 5.556-5.488 11.5 11.5 0 0 0-4.492-.887c-6.188 0-10.966 4.595-10.966 10.748 0 2.508.794 4.812 2.154 6.66"/></svg>