<svg xmlns="http://www.w3.org/2000/svg" width="56" height="56"><path fill="#F0F3FA" d="M0 0h56v56H0z"/><path fill="#E63329" d="M27.799 34.675c3.047-1.143 6.024-2.706 8.625-4.775a28 28 0 0 1-6.539-3.605 76 76 0 0 1-2.086 8.38"/><path fill="#F39121" d="M37.638 23.711c-1.319-1.388-2.34-3.107-3.056-4.976a21 21 0 0 1-3.57-.68 72 72 0 0 1-1.118 8.24c2.593-.358 5.212-1.205 7.744-2.584"/><path fill="#EC6624" d="M29.894 26.295c2 1.484 4.2 2.715 6.539 3.606a24.3 24.3 0 0 0 4.025-4.016 11.2 11.2 0 0 1-2.82-2.183c-2.532 1.388-5.151 2.235-7.744 2.593"/><path fill="#E95028" d="M29.894 26.296a28.5 28.5 0 0 1-4.217-3.842 26.4 26.4 0 0 1-3.317 3.518 21.1 21.1 0 0 0 7.534.323z"/><path fill="#234295" d="M24.167 43.535c3.597.89 7.272.48 10.476-.978a28.7 28.7 0 0 1-5.212-1.039 31.4 31.4 0 0 1-5.264 2.017"/><path fill="#234295" d="M19.461 36.813c1.205 2.689 2.777 5.029 4.706 6.722a35 35 0 0 0 1.615-3.317 37.3 37.3 0 0 1-6.32-3.405z"/><path fill="#0A66B0" d="M24.167 43.536a31 31 0 0 0 5.256-2.017 33 33 0 0 1-3.64-1.301 33 33 0 0 1-1.616 3.318"/><path fill="#7C2F88" d="M27.799 34.675c1.527 1.912 3.169 3.623 4.862 5.011a32.3 32.3 0 0 0 5.841-4.828c-3.265.847-7.01.742-10.703-.183M17.2 29.333c.472 2.61 1.231 5.176 2.261 7.49 2.698-.402 5.553-1.092 8.338-2.14-3.79-.96-7.517-2.784-10.599-5.35"/><path fill="#B92A2E" d="M27.799 34.675c-2.087-2.619-3.955-5.63-5.448-8.712-1.615 1.414-3.37 2.584-5.15 3.361 3.081 2.575 6.809 4.4 10.598 5.351"/><path fill="#E32127" d="M16.624 23.702a36.7 36.7 0 0 0 .576 5.631c1.781-.776 3.536-1.946 5.151-3.36a20.7 20.7 0 0 1-5.727-2.27z"/><path fill="#D12429" d="M29.894 26.295c-2.567.35-5.116.227-7.534-.332 1.493 3.082 3.36 6.084 5.447 8.712a80 80 0 0 0 2.087-8.38"/><path fill="#EF7824" d="M36.424 29.9a25 25 0 0 0 5.046 1.363 29 29 0 0 0 2.497-4.252 10 10 0 0 1-3.518-1.126c-1.179 1.519-2.54 2.846-4.025 4.016z"/><path fill="#8A2E88" d="M17.2 29.334c-1.833-1.52-3.44-3.31-4.688-5.326a16 16 0 0 0-.34 6.347c1.632.096 3.343-.288 5.028-1.021"/><path fill="#C8262B" d="M17.2 29.333a36.6 36.6 0 0 1-.576-5.63 20.4 20.4 0 0 1-3.195-2.296 15 15 0 0 0-.917 2.601c1.248 2.016 2.855 3.797 4.688 5.325"/><path fill="#0B55A3" d="M12.171 30.354a16 16 0 0 0 2.76 6.88 41 41 0 0 0 4.53-.41c-2.82-1.886-5.325-4.104-7.29-6.47"/><path fill="#2B3B8F" d="M17.2 29.333c-1.685.733-3.396 1.117-5.029 1.021 1.965 2.366 4.47 4.583 7.29 6.468-1.03-2.313-1.79-4.88-2.261-7.49z"/><path fill="#0A66B0" d="M24.167 43.535c-1.93-1.685-3.5-4.033-4.706-6.722a39 39 0 0 1-4.53.41 15.94 15.94 0 0 0 7.595 5.806c.55.21 1.09.375 1.64.506z"/><path fill="#0B55A3" d="M29.431 41.519a29.6 29.6 0 0 0 5.212 1.039c.437-.2.873-.42 1.292-.664-1.1-.585-2.191-1.336-3.265-2.209a33 33 0 0 1-3.239 1.834"/><path fill="#E44025" d="M38.51 34.86c1.764-.455 3.397-1.188 4.803-2.219.113-.384.218-.76.305-1.143a22 22 0 0 1-2.139-.236 32 32 0 0 1-2.968 3.597z"/><path fill="#F39121" d="M43.967 27.01a29 29 0 0 1-2.497 4.253 22 22 0 0 0 2.14.235c.34-1.493.453-3.003.357-4.487z"/><path fill="#9D2B4F" d="M32.661 39.686c1.074.873 2.166 1.623 3.266 2.208a15.9 15.9 0 0 0 7.097-8.423c.105-.28.192-.56.28-.839-1.406 1.03-3.038 1.764-4.802 2.218a31.4 31.4 0 0 1-5.84 4.836z"/><path fill="#F8AD1C" d="M31.003 18.056c1.117.323 2.296.541 3.57.68a18.8 18.8 0 0 1-1.23-5.814 16 16 0 0 0-2.218-.61c.079 1.824.026 3.753-.122 5.744"/><path fill="#F59C20" d="M31.003 18.055c.148-1.99.192-3.92.122-5.744-.384-.079-.768-.14-1.161-.192 0 1.615-.428 3.361-1.17 5.116.716.332 1.45.602 2.209.82"/><path fill="#E95028" d="M16.624 23.702a20.7 20.7 0 0 0 5.727 2.27c-1.825-3.771-3.09-7.656-3.5-11.086-.49.34-.97.716-1.415 1.108-.611 2.296-.882 4.95-.812 7.708"/><path fill="#ED7025" d="M25.669 22.454c-2.296-2.575-4.069-5.517-5.116-8.607-.585.306-1.153.655-1.703 1.03.41 3.44 1.677 7.315 3.501 11.086a26.3 26.3 0 0 0 3.318-3.509"/><path fill="#F39121" d="M28.794 17.243c-2.104-.943-4.042-2.348-6.094-4.33a17 17 0 0 0-2.147.934c1.047 3.09 2.82 6.033 5.124 8.599 1.292-1.65 2.366-3.43 3.117-5.203"/><path fill="#F08225" d="M34.574 18.735c.715 1.869 1.745 3.589 3.055 4.977a26.8 26.8 0 0 0 4.531-3.143 17 17 0 0 0-1.056-1.738c-2.48.123-4.61.114-6.53-.096"/><path fill="#F39121" d="M40.458 25.894a21.6 21.6 0 0 0 2.41-3.789 16 16 0 0 0-.708-1.537 25.5 25.5 0 0 1-4.531 3.143 11.3 11.3 0 0 0 2.829 2.183"/><path fill="#EC6624" d="M43.967 27.011a16 16 0 0 0-1.1-4.915 22.4 22.4 0 0 1-2.41 3.79 9.8 9.8 0 0 0 3.51 1.125"/><path fill="#F08225" d="M29.894 26.295c.533-2.75.917-5.543 1.117-8.24a16 16 0 0 1-2.208-.812c-.751 1.772-1.825 3.553-3.126 5.202a27.7 27.7 0 0 0 4.217 3.85"/><path fill="#234295" d="M27.799 34.675c-.62 2-1.301 3.876-2.017 5.544a37 37 0 0 0 3.64 1.3 32 32 0 0 0 3.24-1.833c-1.694-1.38-3.335-3.09-4.863-5.011"/><path fill="#942F88" d="M27.799 34.675c-2.785 1.048-5.64 1.737-8.338 2.139a37.6 37.6 0 0 0 6.321 3.405c.725-1.668 1.397-3.545 2.017-5.544"/><path fill="#D12429" d="M27.799 34.676c3.684.925 7.43 1.03 10.703.183a32.4 32.4 0 0 0 2.968-3.597 24.5 24.5 0 0 1-5.046-1.362c-2.601 2.07-5.57 3.632-8.625 4.776"/><path fill="#ED7025" d="M17.436 15.994a15.9 15.9 0 0 0-4.007 5.413c.995.872 2.069 1.64 3.195 2.295-.07-2.758.2-5.412.812-7.708"/><path fill="#FCC112" d="M41.104 18.833a15.94 15.94 0 0 0-7.63-5.858 1 1 0 0 0-.131-.044 19.4 19.4 0 0 0 1.23 5.814c1.921.201 4.051.21 6.53.088zm-11.14-6.706a15.96 15.96 0 0 0-7.272.786c2.06 1.982 3.998 3.387 6.093 4.33.751-1.754 1.179-3.5 1.179-5.116"/></svg>