<svg xmlns="http://www.w3.org/2000/svg" width="56" height="56"><path fill="#00579E" d="M0 0h56v56H0z"/><path fill="#fff" d="M14 24h4.72l3.06 4.73.56-.02.04.29h5.27l2.13 2.95c.17.3.44.6.26 1.05H19.79c.02-.6-.13-1-.35-1.32l-4.81-7.2z"/><path fill="#6DBBFD" d="M30.03 33 25 40.7c-.12.26-.3.28-.46.3H14l.12-.31.66-.04 4.85-7.16c.18-.4.14-.35.16-.49zm15.87 0-5.03 7.7c-.12.26-.3.28-.46.3H29.87l.12-.31.66-.04 4.85-7.05c.18-.4.14-.46.16-.6z"/><path fill="#fff" d="M34.74 24h5.67c1.38 2.12 1.4 2.27 3.1 4.61l2.17 3.34c.16.3.44.6.26 1.05H35.66c.02-.6-.12-1-.34-1.32-1.7-2.43-3.23-5.02-5.15-7.68zM32.7 12c1.35 2.12 1.42 2.27 3.1 4.61l2.14 3.34c.16.3.44.6.26 1.05H28.07c.02-.6-.12-1-.32-1.32-1.67-2.43-3.33-5.02-5.23-7.68z"/><path fill="#6DBBFD" d="m38.2 21-2.22 3h-5.2l-3.12 5h-5.28l-.04-.29h.4L28.07 21z"/></svg>