<svg xmlns="http://www.w3.org/2000/svg" width="56" height="56"><path fill="#F0F3FA" d="M0 0h56v56H0z"/><path fill="#FF462B" d="M27.8 24a5.33 5.33 0 0 0 1.2-3.5c0-1.62-.78-3.06-1.82-4.23a.7.7 0 0 1-.18-.55c.04-.3.02-.58.2-.7.12-.07.33.05.42.13a11.7 11.7 0 0 1 2.73 2.99c.77 1.34.88 2.92.2 4.31a8.6 8.6 0 0 1-2.63 2.98c-.17.13-.38.08-.5-.12a2.6 2.6 0 0 1-.24-.46c-.02-.08.01-.16.1-.25l.53-.6Z"/><path fill="#FF462B" d="M27.47 17.57c.52.7.88 1.44 1.08 2.23.43 1.7-.36 3.33-1.46 4.5a.1.1 0 0 1-.07.03h-.04l-.57-.7a.3.3 0 0 1-.05-.34c.26-.6.43-1.07.52-1.44.17-.69.18-1.37.03-2.06l-.13-.56a.7.7 0 0 1 0-.3l.3-1.3c.03-.1.06-.19.1-.26l.03-.03h.08l.19.23ZM25.7 20.3c.12-.15.27-.48.49-.62a.05.05 0 0 1 .05 0l.03.01v.03c.16 1.03 0 2-.39 2.99-.07.17-.14.3-.22.4a.16.16 0 0 1-.1.05c-.03.01-.07 0-.1-.02-.3-.19-.66-.48-1.08-.78-.14-.1-.26-.22-.35-.36a.21.21 0 0 1-.01-.2c.04-.1.12-.18.22-.24.61-.37 1.1-.79 1.46-1.25Zm14.72 11.15h4.55v-.1A3 3 0 1 0 42.02 34c1.45 0 2.37-.7 2.88-2h-1.45c-.3.52-.82.72-1.43.72-.79 0-1.39-.53-1.6-1.27M42 29.3c.64 0 1.27.36 1.52.97h-3.01c.28-.57.84-.97 1.49-.97M36.5 34H38v-3.7c0-1.24-.95-2.3-2.06-2.3-.58 0-1 .27-1.43.73V28H33v6h1.5v-3.36c0-.7.38-1.28 1-1.28.65 0 1 .66 1 1.3zm-6-.74V34H32v-6h-1.5v.76c-.5-.54-1.1-.76-1.8-.76-1.5 0-2.7 1.47-2.7 3 0 1.51 1.2 3 2.69 3 .68.01 1.3-.26 1.81-.74m-1.45-.54c-.9 0-1.55-.77-1.55-1.72 0-.93.66-1.73 1.55-1.73.87 0 1.53.82 1.53 1.73 0 .92-.64 1.72-1.53 1.72M23.34 30H25c0-1.15-1.28-2-2.47-2-1.13 0-2.4.66-2.4 1.8 0 1.8 3.03 1.54 3.24 2.36.06.4-.5.56-.84.56-.5 0-.92-.24-.92-.72H20c0 1.2 1.27 2 2.53 2 1.18 0 2.47-.7 2.47-1.87 0-1.73-2.97-1.42-3.23-2.34-.07-.35.39-.51.75-.51.4.02.82.34.82.72m-5.38-3.2c.53 0 .96-.4.96-.9s-.43-.9-.96-.9-.96.4-.96.9.43.9.96.9M16 29.35v-1.29c-.15 0-.3-.05-.44-.06h-.01c-.49 0-.74.26-1.05.71V28H13v6h1.5v-3.32c0-.8.43-1.32 1.03-1.36.15 0 .31.03.47.03M6 34h1.5v-.66c.5.45 1.14.67 1.81.66C11 34 12 32.4 12 31s-1-3-2.69-3c-.72 0-1.3.26-1.81.76V26H6zm3-1.18c-.89 0-1.5-.93-1.5-1.82 0-.86.6-1.67 1.5-1.67.87 0 1.5.81 1.5 1.67s-.6 1.82-1.5 1.82M19 28h-2v1.43h.5V34H19zm27 1.5V28a1.97 1.97 0 0 0 1.82-2h1.44v.08c0 .67-.2 1.4-.57 1.92H50v1.5h-1.5v2.37c0 .35.44.63.8.63h.7V34h-.83c-1.15 0-2.17-.9-2.17-2.01V29.5z"/></svg>