<svg xmlns="http://www.w3.org/2000/svg" width="56" height="56" fill="none"><path fill="#F0F3FA" d="M0 0h56v56H0z"/><path fill="#94999E" fill-rule="evenodd" d="M33.517 29c.336.151.82.308 1.453.451 1.505.341 3.633.549 6.018.549s4.512-.208 6.017-.549c.633-.143 1.117-.3 1.453-.451-.336-.151-.82-.308-1.453-.451C45.5 28.208 43.372 28 40.988 28s-4.513.208-6.017.549c-.633.143-1.118.3-1.454.451m7.47-2c-4.874 0-8.825.895-8.825 2s3.951 2 8.826 2c4.874 0 8.825-.895 8.825-2s-3.951-2-8.825-2" clip-rule="evenodd"/><path fill="#424950" fill-rule="evenodd" d="M9.422 21H6.457c.351.26.543.743.543 1.05v7.682c-.014.609-.385 1.099-.543 1.268h2.544c1.122 0 2.981-.76 2.999-2.844.014-1.667-1.397-2.313-2.105-2.428.298 0 1.705-.37 1.719-2.282.014-1.913-1.456-2.428-2.192-2.446m1.138 2.596c-.026-1.388-1.718-1.639-2.56-1.59v3.389c.552.016 2.594-.065 2.56-1.8M8 26.355c1.254-.13 2.968.213 3 1.68C11.039 29.866 8.932 30 8 30zM13.32 21h3.18c.818 0 2.468.548 2.529 2.738 0 .738-.242 2.572-2.097 3.048l2.557 3.282c.21.252.712.792 1.034.932h-1.8c-.314-.445-.8-1.091-1.304-1.759-.624-.829-1.273-1.69-1.646-2.241H15v3.185c.045.213.309.675.6.815h-2.28c.199-.123.665-.517.68-1.107v-7.786c-.02-.298-.235-.936-.68-1.107M15 22.006c1.163 0 3 .102 3 1.873C18 26 15.865 26 15 26z" clip-rule="evenodd"/><path fill="#424950" d="M22 21v1.68c.182-.492.54-.641.759-.68h3.812l-5.144 9h7.022v-1.75c-.229.485-.86.729-1.147.75h-3.967l5.114-9z"/><path fill="#F29C1B" d="M30.5 21h.5v10h-.5z"/><path fill="#424950" fill-rule="evenodd" d="M47.246 22.005c-.384.02-.904.103-1.55.265-1.554.388-3.631 1.175-5.845 2.28s-4.091 2.29-5.337 3.299c-.518.419-.897.784-1.144 1.079.384-.02.904-.104 1.55-.265 1.555-.389 3.631-1.176 5.845-2.28 2.214-1.105 4.092-2.29 5.337-3.3.518-.418.897-.784 1.144-1.078m-6.034 5.272c4.518-2.254 7.776-4.892 7.276-5.892-.498-1-4.565.016-9.083 2.27s-7.776 4.892-7.277 5.893 4.566-.017 9.084-2.27" clip-rule="evenodd"/><path fill="#94999E" fill-rule="evenodd" d="M6.52 32H6v4h.52zm1.62 1.184 2.842 2.765H11V32h-.514l.01 2.805-2.837-2.8H7.63V36h.52zM12.39 32l1.113 2.786L14.58 32h.605l-1.708 4-1.703-4zm6.142.02H16V36h2.608v-.477h-2.072v-1.33h1.782v-.478h-1.782v-1.217h1.996zm2.922.683c-.264-.13-.594-.24-.894-.24-.41 0-.68.197-.68.508q0 .174.118.297c.223.224.553.368.854.5q.113.048.217.096a1.3 1.3 0 0 1 .316.205c.193.166.31.457.31.811 0 .68-.638 1.12-1.263 1.12-.509 0-.964-.195-1.274-.39l.23-.39c.254.172.65.343.995.343.37 0 .777-.263.777-.683 0-.472-.552-.682-.95-.834l-.164-.064c-.378-.166-.701-.49-.701-.97 0-.62.564-.994 1.14-1.012.504 0 .877.154 1.167.324zM24.828 32h-2.57v.498h1.012V36h.52v-3.502h1.038zm.824 0h.52v4h-.52zM27 32v4h.498v-2.508l1.537 1.871h.01l1.43-1.938V36H31v-4l-1.954 2.6zm5 0h2.538v.483h-1.997v1.277h1.783v.477H32.54v1.285h2.072V36H32zm4.145 1.178 2.843 2.766h.016V32h-.514l.01 2.8-2.837-2.8h-.027v4h.52zM40 32h2.575v.477h-1.039V36H41v-3.523h-1zm4.901 0c-1.039 0-1.96.78-1.975 1.977C42.91 35.173 43.814 36 44.9 36c1.035 0 2-.827 1.981-2.023S45.989 32 44.902 32m.01 3.523c-.82 0-1.45-.772-1.45-1.541 0-.79.63-1.505 1.44-1.505.792 0 1.446.708 1.446 1.5 0 .783-.628 1.546-1.435 1.546m3.954-3.06c.3 0 .63.11.894.24l.198-.38A2.24 2.24 0 0 0 48.79 32c-.576.018-1.14.393-1.14 1.012 0 .48.322.804.701.97l.163.064c.399.152.95.362.95.834 0 .42-.406.683-.776.683-.345 0-.741-.17-.995-.344l-.23.39c.31.196.765.391 1.274.391.625 0 1.263-.44 1.263-1.12 0-.354-.117-.645-.31-.81a1.3 1.3 0 0 0-.316-.206l-.218-.097c-.3-.131-.63-.275-.853-.499a.42.42 0 0 1-.118-.297c0-.311.27-.509.68-.509" clip-rule="evenodd"/></svg>