<svg xmlns="http://www.w3.org/2000/svg" width="56" height="56"><path fill="#6E3890" d="M0 0h56v56H0z"/><path fill="#fff" d="M29.972 29.979H4v.032l22.94 1.994h.065z"/><path fill="#fff" d="M29.929 28.88H6.422l20.488 1.895 3.019-1.887zm-18.645-2.25.915.132q-.305.664-1.064.99t-1.85.326q-.958 0-1.638-.218a2.5 2.5 0 0 1-1.113-.704 1.66 1.66 0 0 1-.433-1.142q0-.65.434-1.1.433-.45 1.174-.68a5.6 5.6 0 0 1 1.654-.23q.999 0 1.716.29.718.291 1.005.854l-.896.121q-.46-.819-1.846-.818-.69 0-1.196.165a1.77 1.77 0 0 0-.807.514q-.301.349-.302.884 0 .808.609 1.212.609.405 1.621.405.748 0 1.29-.248.543-.248.726-.752zM12.354 28.078l2.368-4.073h.886l2.52 4.073h-.934l-.716-1.233h-2.593l-.665 1.233zm1.77-1.674h2.099l-.641-1.127a9 9 0 0 1-.437-.844q-.119.39-.336.777zm4.568 1.674v-4.073h1.965q.596 0 .946.118.348.118.57.367a.8.8 0 0 1 .223.553.76.76 0 0 1-.192.505q-.193.225-.54.36.452.106.713.36a.84.84 0 0 1 .26.627.98.98 0 0 1-.237.65 1.34 1.34 0 0 1-.632.405q-.396.127-1.087.127h-1.99zm.688-2.363h1.135q.445 0 .634-.04a.87.87 0 0 0 .417-.195.49.49 0 0 0 .146-.374.52.52 0 0 0-.133-.365.7.7 0 0 0-.353-.201q-.222-.056-.792-.056h-1.052v1.231zm0 1.882h1.304q.431 0 .636-.05a.9.9 0 0 0 .452-.237.58.58 0 0 0 .155-.416.55.55 0 0 0-.148-.39.87.87 0 0 0-.4-.233q-.25-.074-.787-.073H19.38zm4.017.481v-4.074h.672v3.593h2.51v.481zm3.51 0v-4.074h3.637v.481H27.57v1.243h2.785v.481H27.57v1.388h3.094v.481zm7.925-2.07q1.566 0 2.389.564t.951 1.387a3.7 3.7 0 0 1-.016.948q-.072.406-.393.841-.32.435-.892.739a4 4 0 0 1-1.126.405 6.6 6.6 0 0 1-1.196.108c-.979 0-1.768-.172-2.37-.506q-.9-.499-1.042-1.4c-.05-.314-.064-.753.053-1.143q.133-.448.476-.845t.892-.666 1.11-.35a8 8 0 0 1 1.164-.082m-.315 3.936q.613 0 .991-.31a1.46 1.46 0 0 0 .502-.784c.082-.315.106-.765.086-.898a.91.91 0 0 0-.44-.67 1.7 1.7 0 0 0-.889-.226q-.58 0-.953.285-.375.284-.51.756c-.107.685-.114.808-.08 1.03q.055.352.4.584.345.233.893.233m10.863-3.94L44.591 31h-1.83l-1.885-2.974h-.017L40.39 31h-1.84l.787-4.996h1.831l1.926 2.734h.017l.428-2.734zM52.048 26l-.154 1.003h-3.352l-.158 1h3.23l-.205 1h-3.226l-.155 1h3.636l-.166.996h-5.672L46.651 26z"/></svg>