<svg xmlns="http://www.w3.org/2000/svg" width="56" height="56"><path fill="url(#a)" d="M0 0h56v56H0z"/><path fill="#E51636" d="M15 22h-4v1h4z"/><path fill="#fff" d="M8 31.776c-.223.112-.62.224-1.153.224C5.137 32 4 30.804 4 28.567 4 26.531 5.194 25 7.103 25c.425 0 .7.098.897.197v1.184a2.7 2.7 0 0 0-.866-.152c-1.028 0-1.558 1.057-1.558 2.309 0 1.391.593 2.239 1.559 2.239.29 0 .634-.054.865-.162zm6.989-1.437c0 .531.031 1.207.102 1.661h-2.85c-.954 0-1.672-.814-1.672-2.015 0-1.758 1.443-2.502 2.947-2.515v-.12c0-.715-.271-1.216-.993-1.216-.475 0-1.163.144-1.523.38V25.49c.328-.213 1.03-.49 1.84-.49 1.711 0 2.149 1.146 2.149 2.603zM13.553 31l.002-2.531c-.567.009-1.595.17-1.595 1.362 0 .773.4 1.169.719 1.169zm8.899-.657-.003-7.339h-1.45v2.74h-.028c-.211-.47-.614-.741-1.162-.741-1.074 0-2.077 1.15-2.077 3.545 0 2.057.723 3.45 2.008 3.45l2.814.002c-.071-.453-.102-1.127-.102-1.657M20.999 31h-.848c-.611 0-.965-1.07-.965-2.433 0-1.22.263-2.297 1-2.297.43 0 .73.485.792 1.034.021.138.021.291.021.42zm6.169-2c.015 1.52.704 1.848 1.481 1.848.486 0 1.055-.111 1.351-.241v1.073c-.416.2-1.008.32-1.615.32-1.714 0-2.634-1.272-2.634-3.379 0-2.251 1.054-3.621 2.473-3.621 1.398 0 2.104 1.393 2.104 3.218 0 .388-.018.593-.04.782zm1.808-1c.011-1.092-.338-1.889-.855-1.889-.634 0-.919 1.09-.948 1.889zm19.861 1c.015 1.52.705 1.848 1.481 1.848.486 0 1.056-.111 1.351-.241v1.073c-.415.2-1.008.32-1.615.32-1.714 0-2.634-1.272-2.634-3.379 0-2.251 1.054-3.621 2.474-3.621 1.397 0 2.103 1.393 2.103 3.218 0 .388-.018.593-.04.782zm1.808-1c.011-1.092-.338-1.889-.855-1.889-.633 0-.918 1.09-.947 1.889zM35 26v6h-1.45v-5.185c0-.783-.039-1.2-.06-1.815h2.723c1.11 0 1.788.644 1.788 2.254V32h-1.477v-4.6c0-.695-.14-1.4-.776-1.4zm10 5.776c-.223.112-.623.224-1.154.224C42.136 32 41 30.804 41 28.567 41 26.531 42.193 25 44.102 25c.424 0 .7.098.898.197v1.184a2.8 2.8 0 0 0-.868-.152c-1.027 0-1.556 1.057-1.556 2.309 0 1.391.592 2.239 1.557 2.239.292 0 .635-.054.867-.162z"/><defs><linearGradient id="a" x1="10.418" x2="68.147" y1="9.712" y2="76.017" gradientUnits="userSpaceOnUse"><stop stop-color="#1A1E21"/><stop offset="1" stop-color="#06060A"/></linearGradient></defs></svg>