<svg xmlns="http://www.w3.org/2000/svg" width="56" height="56"><path fill="#451400" d="M0 0h56v56H0z"/><path fill="#A81612" d="M45.768 28.324c0 9.888-8.137 17.888-18.128 17.888-10.02 0-18.128-8.028-18.128-17.888 0-9.887 8.136-17.888 18.128-17.888 9.991 0 18.128 8 18.128 17.888"/><path fill="#451400" d="M37.973 28.324c0 5.636-4.622 10.196-10.333 10.196s-10.333-4.56-10.333-10.196c0-5.635 4.622-10.196 10.333-10.196 5.694 0 10.333 4.56 10.333 10.196"/><path fill="#fff" d="M16.218 23.712a2.4 2.4 0 0 1-.528.693c-.21.191-.457.33-.72.417a2.7 2.7 0 0 1-.826.121 2.4 2.4 0 0 1-.844-.208h-.017a2.1 2.1 0 0 1-.703-.503 2.1 2.1 0 0 1-.58-1.509 2.3 2.3 0 0 1 .229-.867 3 3 0 0 1 .28-.468c.106-.139.211-.243.317-.347a2.5 2.5 0 0 1 .351-.242c.123-.07.246-.122.387-.174l.369.815a3 3 0 0 0-.545.295c-.158.121-.263.277-.369.45a1.2 1.2 0 0 0-.123.486c0 .157.035.313.088.469.07.138.158.277.281.398.123.122.264.226.422.295h.018c.158.07.334.122.51.139.175.017.333 0 .491-.052s.299-.122.422-.226.228-.242.316-.398c.106-.208.158-.416.14-.607a2.5 2.5 0 0 0-.122-.59l.808-.277c.053.138.106.294.14.433.036.139.053.295.053.434q0 .234-.052.468a2 2 0 0 1-.194.555zm-1.863-5.48.65-.676 1.406 1.387 1.353-1.387-1.406-1.422.58-.537 3.005 2.93-.474.607-1.143-1.04-1.37 1.317 1.124 1.075-.65.677-3.075-2.93zm5.095-4.3.704-.382 2.02 3.711-.702.382-2.021-3.711zm5.36.329c.246-.052.44-.138.545-.277a.56.56 0 0 0 .106-.468v-.018c-.036-.208-.141-.346-.3-.416-.157-.07-.386-.087-.614-.052l-.738.139.263 1.231zm-2.143-1.716 1.774-.33c.264-.052.492-.052.72-.034.212.034.44.086.598.19.176.104.317.226.422.382s.193.347.246.555v.017c.053.243.053.45 0 .642a1.26 1.26 0 0 1-.281.52q-.21.234-.527.364a2.5 2.5 0 0 1-.668.225l-.861.174.246 1.283-.826.139-.844-4.127zm8.013.381a1.5 1.5 0 0 0-.545-.034 1.4 1.4 0 0 0-.474.173c-.14.087-.264.208-.352.347a1.1 1.1 0 0 0-.21.485v.018a1.4 1.4 0 0 0-.018.537c.035.174.088.33.175.486.088.156.211.277.352.381s.316.19.492.243c.193.052.369.07.545.035a1.2 1.2 0 0 0 .808-.52 1.1 1.1 0 0 0 .21-.486v-.018a1.4 1.4 0 0 0 .018-.537 1.6 1.6 0 0 0-.175-.486 1.2 1.2 0 0 0-.352-.381 1.2 1.2 0 0 0-.474-.243m.193-.832c.334.087.615.225.879.399.246.19.457.399.615.641.158.243.263.503.316.798s.053.59-.017.884v.018c-.07.294-.194.555-.352.797a2.1 2.1 0 0 1-.633.555 2.2 2.2 0 0 1-.825.278 2.6 2.6 0 0 1-.95-.07 2.9 2.9 0 0 1-.878-.399 2.7 2.7 0 0 1-.615-.641 2.1 2.1 0 0 1-.316-.798 2.1 2.1 0 0 1 .017-.884v-.018c.07-.294.194-.554.352-.797.175-.226.386-.416.632-.555s.527-.243.826-.278c.299-.052.615-.017.95.07zm4.762 2.532-1.265-.746.404-.607 3.093 1.82-.404.625-1.072-.676-1.863 2.965-.738-.416 1.845-2.966zm4.007 2.028.58.642-2.69 2.237 1.495 1.665-.668.502-1.933-2.254zm3.216 4.387L44 23.92l-.703.243-.86-2.099-1.125.434.668 1.682-.738.243-.668-1.682-.756.295.931 2.167-.738.243-1.16-2.965zm-29.452 7.491a.43.43 0 0 1-.44.434.43.43 0 0 1-.439-.434c0-.242.194-.433.44-.433.246.017.439.208.439.433m29.487 0a.43.43 0 0 1-.44.434.43.43 0 0 1-.439-.434c0-.242.194-.433.44-.433.245.017.439.208.439.433m-28.099 3.382.194.52-.72.92 1.159.224.193.52-2.214.816-.176-.486 1.459-.537-1.178-.26v-.018l.703-.953-1.44.537-.176-.468zm1.424 3.242 1.001 1.457-.386.26-.72-1.04-.405.26.633.919-.387.26-.633-.92-.404.278.72 1.058-.386.26-1.02-1.474zm1.493 3.624.193-1.37.457.4-.158.884.896-.226.44.4-1.371.311-.211 1.44-.457-.4.158-.953-.949.243-.439-.399zm2.794.798.44.278-1.248 1.994-.44-.278zm1.845 3.52a1.3 1.3 0 0 1-.42-.242 1.1 1.1 0 0 1-.282-.365.95.95 0 0 1-.105-.45 1.25 1.25 0 0 1 .316-.884c.105-.122.228-.209.369-.278s.299-.104.457-.122a1.4 1.4 0 0 1 .51.07c.105.034.193.07.28.121q.133.078.211.156c.053.052.106.104.159.174.052.069.087.121.123.19l-.44.243a.8.8 0 0 0-.21-.277.8.8 0 0 0-.282-.174.53.53 0 0 0-.281-.034.7.7 0 0 0-.264.069.5.5 0 0 0-.21.173c-.053.07-.106.156-.141.243a.8.8 0 0 0-.053.278.66.66 0 0 0 .21.486c.071.068.142.12.247.138a.63.63 0 0 0 .352.035c.105-.018.21-.053.334-.105l.21.417c-.088.034-.158.069-.246.104a.6.6 0 0 1-.246.052c-.088.017-.175 0-.263 0a.54.54 0 0 1-.334-.018zm3.99-.19-.23-.798-.403.71zm-.387-1.422.474.052.72 2.462-.544-.07-.158-.554-1.002-.122-.281.503-.527-.07zm2.531.138.474-.052 1.248 1.318-.14-1.439.509-.052.229 2.324-.44.034-1.3-1.37.14 1.474-.51.052zm6.026.972c-.175.069-.333.12-.491.12s-.317-.017-.457-.069a1.1 1.1 0 0 1-.387-.242 1.1 1.1 0 0 1-.281-.4 1.1 1.1 0 0 1-.105-.467c0-.156.017-.312.07-.451s.14-.278.246-.399.246-.208.422-.295c.105-.034.193-.07.28-.104.089-.017.176-.035.247-.035h.228c.07.018.158.035.229.053l-.14.485a.5.5 0 0 0-.159-.035c-.053 0-.106-.017-.158-.017s-.106 0-.158.017-.123.035-.176.052a.5.5 0 0 0-.21.157 1 1 0 0 0-.142.225c-.035.087-.035.173-.035.277 0 .087.035.191.07.278a.9.9 0 0 0 .176.242.67.67 0 0 0 .492.209.56.56 0 0 0 .282-.07c.175-.086.316-.19.386-.33l-.14-.311-.475.208-.176-.4.95-.415.421.936c-.07.139-.158.278-.281.416a1.6 1.6 0 0 1-.527.364zm2.478-2.983a.38.38 0 0 0 .176-.243.3.3 0 0 0-.07-.26c-.07-.087-.158-.139-.246-.139a.48.48 0 0 0-.299.122l-.404.312.422.537.421-.33zm-1.546-.26.861-.66c.246-.172.474-.26.685-.224.194.017.352.12.492.294.123.156.176.295.176.451a.78.78 0 0 1-.123.434l.984.312-.474.364-.861-.278-.317.243.475.59-.404.312zm2.443-2.046.334-.382 1.792 1.526-.334.382zm1.159-1.492.264-.45 1.634.953.598-1.005.404.242-.861 1.457zm1.266-2.445.158-.485 1.81.59.369-1.11.457.138-.527 1.596zm-14.85-.797c0-.414-.568-.934-.737-1.3-.157-.619-.53-1.177-.58-1.822-.094-.836-.149-1.892.404-2.583.252-.226 1.037-.295 1.652-.364.858.018 1.407.176 2.109.624.136.067-1.093 2.573-1.283 2.948-.219.503.119 1.234.263 1.734.123.433.282.815.44 1.144.105.243.246.33-.053.26-.827-.204-1.37-1.8-1.704-2.462-.394-.854-.836-1.567-.475-2.584.018-.485.404-.381.72-.364.523 0 .633.216.633.676 0 .367-.236.715-.387 1.04-.003.008 0-.668-.316-.589-.443.073-.282.584-.246.867.07.33.334.59.65.451.106-.104.194-.225.194-.364 0-.315.266-.82.439-1.075.177-.524.33-1.4-.44-1.578-.585-.083-1.137.106-1.704.208-.344.097-.197 1.284-.299 1.526-.08 1.162 1.164 2.585 1.705 3.728.326.644 1.706 1.783 2.372 1.214.123-.122-.14-.33-.193-.364-.453-.413-.558-1.1-.826-1.63-.177-.55-.344-1.135-.246-1.717.122-1.122 1.294-1.963 1.6-3.017.052-.21-.62-.872-.774-1.023-.088-.087-.281-.226-.387-.174-.14.07-.175.209-.334.209-.574 0-1.216-.054-1.74-.313-.122-.069-.333 0-.491.018-.809.173-1.652-.122-1.705.832-.172.977-.21 1.866-.21 2.861 0 1.293 1.174 2.217 1.95 2.983z"/><path fill="#fff" d="m26.568 24.856-1.16-.936c-.035 0-.088.017-.123.017-.404.104-1.195.035-1.546.26-.563.313-.932.867-1.336 1.266-.123.07-.07.364-.123.503-.444 1.227-.456 2.987-.105 4.231 0 .832 1.897 2.757 2.97 4.595.157.312.263.312.544.347.58.19 1.199.291 1.793.451.69.186 1.604 0 2.32 0 0 0 .81.158 1.616-.416.394-.146.719-.827.826-1.214.053-.19 0-.382-.211-.434-.218-.064-.62-.185-.79-.329-.23-.173-.51-.347-.739-.538-.213-.161-.834-.705-1.125-.641-.158.035-.246-.382-.175-.711.052-.243-.053-.277-.123-.45-.176-.4-.37-.192.052-.556.631-.467 1.799-2.502 1.564-3.312-.035-.587-1.008-2.315-1.546-2.549-.105-.017-.281 0-.352.017-.105.035-.263.4-.386.4.404.416.703.866 1.002 1.283.228.45.492.745.457 1.265-.115 1.13-1.041 1.898-1.53 2.861-.07.14 0 .573.018.729.053.225.229.173.281.399.106.346.018.883.018 1.248 0 .173.246.035.387.07.454.103 1.135.831 1.51 1.11.212.155.018-.088-.052.173-.72.52-1.652.572-2.53.503-1.74-.14-1.863.017-2.53-.764-.862-1.179-1.74-2.306-2.584-3.64-.053-1.28.176-2.538.176-3.799.123-.676.72-1.11 1.247-1.283.756-.138 1.512-.156 2.285-.156"/><path fill="#fff" d="M24.969 23.59c-.32-.22-.633-.086-.914-.034-.025-.005.759-.513.808-.538.264.035.65.156.896.26.229.052.563.156.809.156.896-.815 1.933-1.63 2.952-2.375.158-.07 1.529-.26 1.898-.26.445.205 1.672.704 1.458 1.422 0 .364-.123.728-.21 1.11 0 .005-1.19-.006-1.195-.018.245-.173.386-.295.615-.555.2-.198-.377-.962-.422-1.162-.44.018-1.02.018-1.459.122-.471.206-.82.532-1.177.901.035.382-.193.746-.14 1.145.21.433.122.33.825.381.123.018.334-.017.404.018.121.06-.122.401-.193.433-.74.365-1.31.3-2.038.763-.344.226-1.104.174-1.195-.277-.077-.303-1.361-1.138-1.722-1.492"/></svg>