<svg xmlns="http://www.w3.org/2000/svg" width="56" height="56"><path fill="#084168" d="M0 0h56v56H0z"/><path fill="#fff" d="M30 26h2v-2h-6v2h2v8h2M7.819 31.994c-2.505-.123-3.456-1.813-3.456-4.141 0-2.475 1.338-4.153 3.369-4.055 1.977 0 3.28.802 3.417 3.202H9.05c-.109-1.103-.746-1.18-1.315-1.18-.96 0-1.19 1.097-1.19 2.11s.32 2.078 1.252 2.078c.596 0 1.253-.121 1.267-1.008h2.1c0 1.968-1.624 3.078-3.345 2.994m4.181.01v-8h5V26h-3v1h2.5v2H14v1h3v2.004zM23 32l-3-4.519V32h-2v-8h2l3 4.616V24h2v8zm10 0v-8h5v2h-3v1h2.5v2H35v1h3v2zm14.004 0v-8h5v2H49v1h2.5v2H49v1h3.004v2zM44 32l-3-4.474V32h-2v-8h2l3 4.453V24h2v8z"/></svg>