<svg xmlns="http://www.w3.org/2000/svg" width="56" height="56"><path fill="#FF5F10" d="M0 0h56v56H0z"/><path fill="#fff" d="M12 28.002c0 .969.086 1.919.252 2.841C16.7 19.615 30.64 16.08 37.322 14.995A15.93 15.93 0 0 0 28.002 12C19.163 12 12 19.162 12 28.002m28.587-9.88c-4.8.593-16.467 4.032-18.682 10.605-1.555 4.613 2.292 6.08 8.87 4.237 2.648-.74 5.32-1.811 7.424-3.035v5.37c-.163.142-3.579 2.532-9.284 4.037-3.95 1.043-7.974 1.407-11.18.938A15.96 15.96 0 0 0 28 44.002c8.838 0 15.999-7.162 15.999-16 0-3.73-1.27-7.16-3.41-9.88h-.003z"/></svg>