<svg xmlns="http://www.w3.org/2000/svg" width="56" height="56"><path fill="url(#a)" d="M0 0h56v56H0z"/><path fill="#FF2538" d="M5 35h46v2H5z"/><path fill="#fff" d="M18 19v4.309h-.388q-.437-1.687-1.63-2.585c-.795-.6-1.913-.899-2.92-.899q-1.263 0-2.317.67a4 4 0 0 0-1.54 1.75q-.627 1.385-.627 3.08 0 1.67.458 3.044.457 1.367 1.431 2.073c2.213 1.582 5.518.405 7.515-.942-2.525 2.431-6.3 3.219-9.493 1.702q-1.67-.797-2.584-2.292A6.04 6.04 0 0 1 5 25.73q0-1.779 1.004-3.375a6.9 6.9 0 0 1 2.724-2.475 7.9 7.9 0 0 1 3.648-.88c.947 0 2.165.19 3.219.568q.915.33 1.162.33.32 0 .547-.21.24-.22.308-.688zm7.848 9.177h-4.76l-.568 1.21c-.185.404-.278 1.02-.278 1.284a.82.82 0 0 0 .457.77q.27.146 1.322.22V32h-4.483v-.34q.726-.1 1.193-.55c.312-.305.696-.931 1.153-2.163L24.705 19h.19l4.86 10.506q.696 1.449 1.143 1.825c.225.19.691.3 1.102.33V32h-6.669v-.34h.269q.785 0 1.103-.2a.48.48 0 0 0 .219-.423q0-.165-.06-.339-.02-.082-.298-.687zm-.338-.678-2.008-4.282-2.067 4.282zM51 31.66V32h-7.047v-.34h.447c.39 0 .855-.063 1.093-.192a.86.86 0 0 0 .398-.44q.11-.219.109-1.155v-8.462c0-.636-.036-1.317-.11-1.476q-.108-.238-.447-.412c-.218-.123-.665-.184-1.043-.184h-.447V19H51v.34h-.447c-.391 0-.797.063-1.036.192a.9.9 0 0 0-.408.44c-.073.146-.109.816-.109 1.44v8.461q0 .954.11 1.192.119.239.447.422c.225.116.618.174.996.174H51zM43.304 19v4.309h-.388q-.436-1.687-1.63-2.585c-.795-.6-1.913-.899-2.92-.899q-1.263 0-2.316.67a4 4 0 0 0-1.541 1.75q-.627 1.385-.626 3.08 0 1.67.457 3.044.457 1.367 1.431 2.073c2.213 1.582 5.519.405 7.516-.942-2.526 2.431-6.3 3.219-9.494 1.702q-1.67-.797-2.584-2.292a6.04 6.04 0 0 1-.905-3.18q0-1.779 1.004-3.375a6.9 6.9 0 0 1 2.724-2.475A7.9 7.9 0 0 1 37.68 19c.947 0 2.165.19 3.219.568q.915.33 1.163.33.318 0 .546-.21.24-.22.309-.688z"/><defs><linearGradient id="a" x1="10.418" x2="68.147" y1="9.712" y2="76.017" gradientUnits="userSpaceOnUse"><stop stop-color="#1A1E21"/><stop offset="1" stop-color="#06060A"/></linearGradient></defs></svg>