<svg xmlns="http://www.w3.org/2000/svg" width="56" height="56"><path fill="#F0F3FA" d="M0 0h56v56H0z"/><path fill="#73716F" d="M43.52 31c-1.27 0-2.52-.58-2.52-2h1.52c.01.64.5.77 1.06.77.53 0 .79-.17.79-.51 0-.45-.55-.5-.89-.56l-.44-.07c-1.3-.22-2.04-.83-2.04-1.86C41 25.5 42.28 25 43.4 25c1.49 0 2.34.75 2.4 2h-1.49c-.02-.46-.29-.77-.89-.77-.48 0-.72.15-.72.47 0 .43.5.5.82.57l.47.08c1.02.17 2.01.62 2.01 1.79 0 1.38-1.29 1.86-2.48 1.86"/><path d="M40.5 31H39v-6h1.5zm-10 0c-1.42 0-2.5-.92-2.5-2.38V25h1.5v3.63c0 .62.41.96 1 .96.6 0 1-.34 1-.96V25H33v3.62C33 30.1 31.95 31 30.5 31m-3.97-3.22c.58.23.97.83.97 1.45 0 1.12-.71 1.77-2.13 1.77H22.5v-6h2.81c.97 0 1.96.42 1.96 1.53 0 .6-.25 1-.74 1.25m-1.33-1.47H24v1.03h1.2c.3.03.49-.23.49-.51s-.19-.54-.49-.52M24 29.68h1.43c.38 0 .57-.19.57-.55 0-.37-.2-.55-.57-.55H24zM19.76 25H22v6h-1.5v-4l-.9 4h-1.2l-.9-4v4H16v-6h2.24l.76 3zM16 31h-1.68l-.24-.78h-2.22l-.24.78H10l2.01-6h1.9zm-3.73-2h1.38L13 26.5z"/><path fill="#73716F" d="M52 31h-1.68l-.24-.78h-2.22l-.24.78H46l2.01-6h1.9zm-3.73-2h1.38L49 26.5z"/><path d="M7.03 31A2.9 2.9 0 0 1 4 28c0-1.8 1.25-3 3.03-3 1.42 0 2.74.81 2.97 2.27H8.48c-.16-.58-.84-.9-1.45-.9-.85 0-1.53.59-1.53 1.63s.68 1.62 1.53 1.62c.68 0 1.35-.37 1.47-1H10C9.81 30.12 8.5 31 7.03 31m29 0A2.9 2.9 0 0 1 33 28c0-1.8 1.25-3 3.03-3 1.42 0 2.74.81 2.97 2.27h-1.52c-.16-.58-.84-.9-1.45-.9-.85 0-1.53.59-1.53 1.63s.68 1.62 1.53 1.62c.68 0 1.35-.37 1.47-1H39c-.19 1.5-1.5 2.38-2.97 2.38"/></svg>