<svg xmlns="http://www.w3.org/2000/svg" width="56" height="56"><path fill="url(#a)" d="M0 0h56v56H0z"/><path fill="#fff" d="M27.31 36.6c.9-.36 1.08-1.25 1.08-2.05.27-3.2 2.7-9.8 5.11-12.47 0-.27-1.34 6.86-.9 10.78.63 3.92 2.34 8.9 8.98 10.07 1.53.27 3.32-.27 3.41-.63.1-.44-.9-.44-2.15-.8-3.6-.98-5.57-3.56-6.55-7.22-1.08-3.74-.36-10.51.45-13.98.09-.72.62-1.43.9-2.23.08-.45-.1-.9-.63-.9-.36-.17-.9-.08-1.44 0-1.08.27-2.96 1.43-4.67 3.75a42.7 42.7 0 0 0-3.95 7.84A62.7 62.7 0 0 1 25.15 17c.19-1.78.54-1.7.63-2.59.1-1.33-.18-2.22-1.34-2.4-1.08-.1-2.07.53-2.7 1.51-.71.9-2.33 4.1-3.77 11.05C16.54 31.52 16 36.96 16 38.38c0 1.52.45 2.32 1.62 2.4 1.25.1 2.24-.61 2.24-1.77-.12-6.7.7-13.4 2.42-19.87.2 5.58 1.23 11.1 3.06 16.4.35.97 1.07 1.5 2.06 1.15z"/><defs><linearGradient id="a" x1="6.4" x2="47.61" y1="6.28" y2="51.7" gradientUnits="userSpaceOnUse"><stop stop-color="#A1003C"/><stop offset=".22" stop-color="#C30044"/><stop offset=".46" stop-color="#EC004B"/><stop offset=".74" stop-color="#FF4474"/><stop offset="1" stop-color="#FDB2A9"/></linearGradient></defs></svg>