<svg xmlns="http://www.w3.org/2000/svg" width="56" height="56" fill="none"><path fill="#F0F3FA" d="M0 0h56v56H0z"/><path fill="#006" fill-rule="evenodd" d="M30 27v-.996S29.956 24 26.792 24A4.69 4.69 0 0 0 22 28.556c0 2 .471 5.444 4.792 5.444 2.422 0 3.208-.797 3.208-.797v-2.91s-.96.707-2.553.707-2.453-.965-2.453-2c0-1.013.707-2.444 2.497-2.444C29.323 26.535 30 27 30 27m2 6h.011l-.01.05s2.35.95 4.345.95C38.342 34 42 32.985 42 28.644S38.763 24 38.053 24c-.63 0-1.855.17-3.053 1.313v-2.406C35 21.852 34.21 21 33.23 21H32zm7-4.02c0-2.172-2.063-2.298-2.063-2.298-1.343 0-1.845.684-1.926.794l-.01.014v4.01h1.936c.433 0 2.063-.349 2.063-2.52m5-1.425V25s.96-1 3.866-1C51.828 24 52 27.969 52 27.969V34h-1.572c-1.076 0-1.442-1-1.442-1s-.819 1-2.907 1S43 32.74 43 30.943s1.83-2.685 3.531-2.685 2.455.35 2.455.35c0-.95-.56-1.608-2.153-1.608-1.594 0-2.833.555-2.833.555m5 3.795v-1.125s-.425-.2-1.805-.225c-1.72.025-1.422 2-.127 2S49 31.35 49 31.35" clip-rule="evenodd"/><path fill="#0039EF" d="M16 28h4v8h-.791C17.433 36 16 34.526 16 32.748zm-8 0H4v-8h.791C6.567 20 8 21.474 8 23.252z"/><path fill="#124545" fill-rule="evenodd" d="M4 28a7.99 7.99 0 0 1 3.43-6.566c.346.52.549 1.148.549 1.818V28z" clip-rule="evenodd"/><path fill="url(#a)" fill-rule="evenodd" d="M12 20a8 8 0 0 0-8 8h4a4 4 0 0 1 8 0v4.748c0 .674.206 1.304.558 1.827A8 8 0 0 0 12 20" clip-rule="evenodd"/><path fill="url(#b)" fill-rule="evenodd" d="M8 23.252V28a4 4 0 0 0 8 0v4.748c0 .674.206 1.304.558 1.827a8 8 0 1 1-9.117-13.15c.353.523.559 1.153.559 1.827" clip-rule="evenodd"/><defs><linearGradient id="a" x1="8.5" x2="17" y1="20" y2="35" gradientUnits="userSpaceOnUse"><stop stop-color="#0039EF"/><stop offset=".959" stop-color="#00D0EA"/></linearGradient><linearGradient id="b" x1="7.532" x2="16.937" y1="21.425" y2="34.452" gradientUnits="userSpaceOnUse"><stop stop-color="#00D0EA"/><stop offset="1" stop-color="#0039EF"/></linearGradient></defs></svg>