<svg xmlns="http://www.w3.org/2000/svg" width="56" height="56"><path fill="#9E260E" d="M0 0h56v56H0z"/><path fill="#fff" d="M28 15.3c2.57 1.21 4.31 3.48 4.31 6.12 0 2.61-1.73 4.92-4.31 6.04zm0 26.34c2.8 1.04 6.2.96 8.8-.28a16 16 0 0 1-4.07 1.92c-1.46.44-2.98.7-4.47.71l-.25.01H28zm0-.83c1.24.55 2.69.86 4.23.86 7.08 0 11.7-7.38 11.77-13.83a15.91 15.91 0 0 0-6.45-12.66c2.38 2.24 4.01 6.13 4.01 10.8 0 4.58-2.85 12.03-8.97 12.03-1.82 0-3.33-1.25-3.42-3.1-.08-2.56 1.8-2.79 3.52-3.75 3.01-1.65 4.28-3.19 5.32-6.37 1.57-5-2.17-12.7-9.91-12.79H28v2.34c3 1.1 5.35 3.49 5.35 7.13 0 3.23-2.15 5.64-5.12 6.9l-.23.1zm-9.55 0a16 16 0 0 1-1.57-1.31A15.94 15.94 0 0 1 12 28.12c.06-6.45 4.62-13.75 11.68-13.75 1.57 0 3.04.33 4.32.93v12.16a1 1 0 0 1-.07.02c-3 1.3-5.29 3.75-5.29 7.02 0 3.64 2.35 6.04 5.36 7.14V44c-7.82-.08-11.59-7.83-9.99-12.81 1-3.22 2.28-4.73 5.29-6.4 1.76-.95 3.6-1.2 3.53-3.72-.06-1.9-1.58-3.13-3.42-3.13-6.12 0-8.97 7.46-8.97 12.06 0 4.64 1.62 8.57 4 10.81zM28 12h-.06c-3.23 0-6.23.98-8.75 2.64 2.6-1.24 6-1.33 8.8-.3V12zm0 16.48c-2.5 1.19-4.3 3.7-4.3 6.29 0 2.67 1.73 4.88 4.3 6.04z"/></svg>