<svg xmlns="http://www.w3.org/2000/svg" width="56" height="56"><path fill="#F0F3FA" d="M0 0h56v56H0z"/><path fill="#005286" d="M22.25 34.84 22 36h9.95l.42-1.86c-3.37.49-6.95.66-10.12.7m12.23-1.06L34 36h6.55c2.55 0 5.19-1.37 5.75-3.96.35-1.6-.48-3.03-2.07-3.3a7.2 7.2 0 0 1-1.86 2.01c.09.22.11.48.04.8-.18.92-.94 1.45-2.2 1.45h-1.76l.06-.29c-1.24.44-2.6.79-4.03 1.07m4.58-3.76a27 27 0 0 1-4.1 1.55L37.04 22h2.57c1.95.97 3.2 2.11 3.35 3.47-.25-.31-.7-.47-1.18-.47h-1.6l-.58 2.66h1.55c.5 0 1.03-.15 1.4-.45-.59 1.05-1.8 1.98-3.45 2.79h-.03v.02ZM42.7 22c1.47 1.01 2.35 2.24 2.35 3.72 0 1-.22 1.9-.63 2.69 3.69-1.23 3.6-6.41-1.34-6.41zM28.88 33c-2.08.38-4.25.7-6.44.94L25.02 22H35l-.67 3H28.1l-.5 2.44h5.7l-.67 3.06h-5.7l-.51 2.5h2.45ZM9.83 34.77c2.1.05 4.83.07 8.06.08A8.3 8.3 0 0 1 13.66 36a5.9 5.9 0 0 1-3.83-1.23m-.13-.1c-1.48-1.31-2.04-3.46-1.5-5.88.9-3.92 4.14-6.79 8.24-6.79 3.22 0 5.99 1.5 5.5 5h-3.89c.18-1.25-.55-2-1.81-2-2.29 0-3.66 2.18-4.14 4.21-.37 1.67-.14 3.79 1.96 3.79a3.2 3.2 0 0 0 3.02-2H21a6.75 6.75 0 0 1-2.32 3.3c-3.2.26-6.3.38-8.98.36Z"/><path fill="#E08726" d="M14.3 34.72c1.82.08 3.89.13 6.18.13 9.43 0 24.14-.9 24.55-8.78l.01.25c0 8.2-15 9.13-24.56 9.13-7.66 0-12.84-.56-14.48-.85 2.26.17 5.14.21 8.3.12m8.72-16.54c-4.15-.24-7.57-.2-8.76-.1 9.45.42 28.05 2.52 28.7 7.95v-.3c0-4.2-10.56-6.48-19.94-7.55"/></svg>