<svg xmlns="http://www.w3.org/2000/svg" width="56" height="56"><path fill="#F0F3FA" d="M0 0h56v56H0z"/><path fill="#043C6F" d="M15.25 20.37 13 22.93c1.15-1.1 2.16-1.66 3.2-1.66 1.03 0 2.72.65 4.59 1.4 1.92.76 3.1 1.33 5.03 1.33a5.1 5.1 0 0 0 3.26-1.2L31 20.5a5.76 5.76 0 0 1-3.73 1.3c-3.02 0-6.81-2.8-8.88-2.8-1.66 0-2.78.91-3.14 1.37"/><path fill="#043C6F" d="M17.38 17.37 15 19.93c1.22-1.1 2.28-1.66 3.38-1.66 1.09 0 2.87.65 4.84 1.4 2.03.76 3.28 1.33 5.31 1.33 1.68 0 2.97-.79 3.44-1.2L34 17.5a6.28 6.28 0 0 1-3.94 1.3c-3.18 0-7.18-2.8-9.37-2.8-1.75 0-2.94.91-3.32 1.37ZM43.83 35c-2.4 0-3.83-1.66-3.83-4 0-3.04 1.91-6 5.18-6 2.41 0 3.82 1.6 3.82 3.96 0 3.1-1.8 6.04-5.17 6.04m.1-2c2 0 2.67-2.51 2.67-4.08 0-1.36-.56-1.92-1.58-1.92-1.93 0-2.6 2.5-2.6 4 0 1.37.54 2 1.51 2M31 35l2.01-10h2.65c1.7 0 4.34.21 4.34 2.45 0 1.68-1.33 2.63-2.9 2.74v.02c.85.32 1.11 1.11 1.34 1.94l.79 2.85h-2.57l-.58-2.4c-.22-.98-.5-1.6-1.57-1.6h-.25l-.79 4zm4.32-6c1.42 0 2.11-.18 2.11-1.1 0-1-1-.9-1.78-.9h-.6l-.45 1.99zM21 35l2.03-10h2.83c2.77 0 5.14 1.4 5.14 4.4 0 3.43-2.74 5.6-6.04 5.6zm3-2h.48c2.22 0 3.94-1.26 3.94-3.59 0-1.65-1.03-2.41-2.94-2.41h-.3zm-10 2 1.94-10H22l-.34 2h-3.75l-.39 2H21l-.35 2h-3.5l-.43 2h3.85l-.34 2zm-2.67 0A4.13 4.13 0 0 1 7 30.65 5.52 5.52 0 0 1 12.53 25c.93 0 1.76.15 2.47.45l-.52 1.96a3.9 3.9 0 0 0-1.86-.41c-1.96 0-3.12 1.58-3.12 3.46 0 1.52.83 2.54 2.39 2.54.59 0 1.17-.1 1.76-.37l-.29 2.08c-.55.2-1.23.29-2.03.29"/></svg>