<svg xmlns="http://www.w3.org/2000/svg" width="56" height="56" fill="none"><path fill="#F0F3FA" d="M0 0h56v56H0z"/><path fill="url(#a)" fill-rule="evenodd" d="M43.022 13S46 19.616 46 26.37C46 33.121 43.555 39 37.036 39 29.674 39 29 32.684 29 31.509c0-1.45-.14-4.921 7.615-9.569 5.873-3.554 6.407-8.94 6.407-8.94" clip-rule="evenodd"/><path fill="url(#b)" fill-rule="evenodd" d="M33.022 13S36 19.616 36 26.37C36 33.121 33.555 39 27.037 39 19.674 39 19 32.684 19 31.509c0-1.45-.14-4.921 7.615-9.569 5.9-3.554 6.407-8.94 6.407-8.94" clip-rule="evenodd"/><path fill="url(#c)" d="M35.707 22.501c.18 1.253.293 2.558.293 3.868 0 4.693-1.18 8.963-4.088 11.132C29.319 35.556 29 32.317 29 31.509v-.076c-.002-1.43-.007-4.644 6.707-8.932"/><path fill="#598C33" fill-rule="evenodd" d="M13.185 45c.134-.028 1.815 0 1.815 0s-.874-1.9-.437-8l-1.11.312s-.806 3.12-.268 7.688" clip-rule="evenodd"/><path fill="url(#d)" fill-rule="evenodd" d="M22.973 13s2.968 6.616 2.968 13.37c0 6.752-2.464 12.63-8.933 12.63C9.672 39 9 32.684 9 31.509c0-1.45-.14-4.921 7.588-9.569C22.44 18.386 22.972 13 22.972 13Z" clip-rule="evenodd"/><path fill="url(#e)" fill-rule="evenodd" d="M9 31.509c0 .914.406 4.936 4.036 6.68.306-1.473.865-3.005 1.568-4.542l-.004-.006c-1.204-1.777-1.932-6.424-1.932-6.424.408 1.076 1.985 4.297 2.5 5.253.745-1.485 1.598-2.961 2.46-4.377-.647-1.335-1.04-4.595-1.04-4.595.372.961 1.257 2.773 1.68 3.56.406-.653.809-1.289 1.198-1.903.447-.706.877-1.383 1.272-2.024-.532-1.098-.51-2.503-.51-2.503.297.767.736 1.3 1.05 1.613.944-1.585 1.603-2.89 1.695-3.773.334-3.242.002-5.452 0-5.468 0 0-.532 5.386-6.385 8.94-7.596 4.568-7.59 8.001-7.588 9.493z" clip-rule="evenodd"/><path fill="url(#f)" fill-rule="evenodd" d="M25.654 22.536c.177 1.242.287 2.535.287 3.833 0 4.677-1.182 8.934-4.058 11.11C19.317 35.532 19 32.314 19 31.509v-.076c-.002-1.426-.007-4.627 6.654-8.897" clip-rule="evenodd"/><defs><linearGradient id="a" x1="36" x2="41.5" y1="16.5" y2="36" gradientUnits="userSpaceOnUse"><stop offset=".219" stop-color="#FDC935"/><stop offset="1" stop-color="#F4911D"/></linearGradient><linearGradient id="b" x1="27.5" x2="27.5" y1="13" y2="39" gradientUnits="userSpaceOnUse"><stop offset=".161" stop-color="#9BBCE4"/><stop offset=".844" stop-color="#0084C6"/></linearGradient><linearGradient id="c" x1="29.5" x2="29" y1="23" y2="38" gradientUnits="userSpaceOnUse"><stop stop-color="#F7B42F"/><stop offset=".646" stop-color="#F18C03"/></linearGradient><linearGradient id="d" x1="17.47" x2="17.47" y1="13" y2="39" gradientUnits="userSpaceOnUse"><stop stop-color="#B1C857"/><stop offset="1" stop-color="#5E902C"/></linearGradient><linearGradient id="e" x1="16.061" x2="16.061" y1="13" y2="38.189" gradientUnits="userSpaceOnUse"><stop stop-color="#8AA71C"/><stop offset="1" stop-color="#5D8E25"/></linearGradient><linearGradient id="f" x1="21.5" x2="21.5" y1="22.5" y2="38.5" gradientUnits="userSpaceOnUse"><stop offset=".073" stop-color="#82AFDA"/><stop offset=".62" stop-color="#057DB7"/></linearGradient></defs></svg>