<svg xmlns="http://www.w3.org/2000/svg" width="56" height="56"><path fill="#2193F4" d="M0 0h56v56H0z"/><path fill="#fff" d="M27 43.98V12c-4.31.21-13.78 3-14.96 15-.72 11.07 8.52 16.88 14.96 16.98m4-31.73c-.72-.14-1.28-.22-2-.25v14.52l12.46-7.43c-.42-.6-.8-1.03-1.33-1.6l-7.37 4.32 4.16-7.21-.22-.15c-.52-.34-1.04-.68-1.64-.92L31 20.48zM29 44c.72-.02 1.28-.1 2-.25V35.5l4.05 6.98c.6-.24 1.12-.58 1.63-.92l.23-.14-4.05-7.1 7.27 4.2c.54-.58.9-1.01 1.32-1.61L29 29.46zm13.2-23.44L29.86 28l12.34 7.5c.35-.61.55-1.12.8-1.86L35.58 29h8.4c.04-.78.05-1.24-.02-2h-8.21l7.28-4.6c-.23-.69-.5-1.2-.82-1.84z"/></svg>