<svg xmlns="http://www.w3.org/2000/svg" width="56" height="56" fill="none"><path fill="#FF4701" d="M0 0h56v56H0z"/><path fill="url(#a)" d="M28.007 45a17 17 0 1 1-.014-34 17 17 0 0 1 .014 34m.045-33.388a16.409 16.409 0 1 0 15.91 20.276 16.41 16.41 0 0 0-6.272-17.117 16.3 16.3 0 0 0-9.638-3.159"/><path fill="url(#b)" d="M23.686 43.553c-1.783.025-3.533-.405-5.027-1.378-2.654-1.761-4.125-4.896-4.216-8.82-.092-3.896 1.183-8.113 3.66-11.88 2.478-3.765 5.858-6.637 9.476-8.08 1.625-.646 3.216-.944 4.716-.951 1.872-.01 3.602.45 5.08 1.428 5.464 3.625 5.714 12.901.553 20.704-2.477 3.766-5.852 6.633-9.472 8.075-1.514.625-3.133.88-4.77.902M32.358 13c-1.566.021-3.114.313-4.561.914-3.526 1.397-6.8 4.19-9.228 7.862S14.909 29.551 15 33.334c.087 3.737 1.46 6.71 3.978 8.378 1.372.909 2.973 1.287 4.708 1.288a12.2 12.2 0 0 0 4.574-.867c3.479-1.385 6.79-4.192 9.215-7.864 4.98-7.548 4.794-16.49-.409-19.934-1.4-.91-3.038-1.356-4.708-1.335"/><path fill="url(#c)" d="M34.112 43c-4.112 0-9.73-3.934-13.655-10.354-2.339-3.826-3.768-7.897-4.026-11.465-.263-3.632.72-6.323 2.77-7.577 4.17-2.55 11.517 1.846 16.378 9.797C38.077 27.487 44 43 34.112 43m-12.14-29.567a4.66 4.66 0 0 0-2.479.66c-1.863 1.124-2.745 3.634-2.497 7.049.248 3.468 1.652 7.463 3.947 11.214 3.82 6.251 9.168 10.104 13.132 10.104 9.16.16 3.306-15.047 1.028-18.769-3.823-6.251-9.167-10.27-13.132-10.27z"/><path fill="url(#d)" d="M35.902 39.575c-.248 0-.496 0-.744-.02-3.575-.166-7.68-1.61-11.563-3.859-8.085-4.658-12.657-11.89-10.214-16.123 1.202-2.076 3.619-3.128 7.506-3.128 3.613 0 7.68 1.654 11.56 3.904s7.087 5.134 9.02 8.144c1.967 3.065 2.388 5.9 1.187 7.981-1.115 1.933-3.499 3.1-6.752 3.1Zm-12.037-4.36c3.808 2.198 7.825 3.621 11.31 3.785 3.325 0 5.905-.915 6.998-2.806 1.093-1.89.674-4.52-1.174-7.401-1.886-2.936-5.02-5.763-8.829-7.964C28.362 18.63 24.5 17 20.862 17c-3.362 0-5.907.96-6.997 2.85-2.29 3.965 2.195 10.858 10 15.363z"/><defs><linearGradient id="a" x1="41.252" x2="14.836" y1="17.482" y2="38.78" gradientUnits="userSpaceOnUse"><stop offset=".05" stop-color="#FF4800" stop-opacity="0"/><stop offset=".07" stop-color="#fff" stop-opacity=".04"/><stop offset=".12" stop-color="#fff" stop-opacity=".16"/><stop offset=".17" stop-color="#fff" stop-opacity=".3"/><stop offset=".24" stop-color="#fff" stop-opacity=".53"/><stop offset=".31" stop-color="#fff" stop-opacity=".82"/><stop offset=".36" stop-color="#fff"/><stop offset=".93" stop-color="#fff"/></linearGradient><linearGradient id="b" x1="41.642" x2="14.384" y1="28.025" y2="28.025" gradientUnits="userSpaceOnUse"><stop offset=".03" stop-color="#fff" stop-opacity=".17"/><stop offset=".26" stop-color="#fff"/><stop offset=".58" stop-color="#fff"/></linearGradient><linearGradient id="c" x1="14.637" x2="41.387" y1="20.299" y2="35.743" gradientUnits="userSpaceOnUse"><stop offset=".44" stop-color="#fff" stop-opacity="0"/><stop offset=".52" stop-color="#fff" stop-opacity="0"/><stop offset="1" stop-color="#fff"/></linearGradient><linearGradient id="d" x1="21.035" x2="35.01" y1="34.767" y2="21.273" gradientUnits="userSpaceOnUse"><stop offset=".05" stop-color="#fff" stop-opacity="0"/><stop offset=".08" stop-color="#fff" stop-opacity=".17"/><stop offset=".12" stop-color="#fff" stop-opacity=".21"/><stop offset=".19" stop-color="#fff"/><stop offset=".22" stop-color="#fff"/><stop offset="1" stop-color="#fff"/></linearGradient></defs></svg>