<svg xmlns="http://www.w3.org/2000/svg" width="56" height="56" fill="none"><path fill="url(#a)" d="M0 0h56v56H0z"/><path fill="#F0F3FA" d="M37 26c.343.469.683 1.035 1 1.492 1.681-2.032 3.388-4.252 4.55-6.164a16 16 0 0 0-.83-1.567C40.597 21.683 38.832 23.85 37 26m-1.25 1.56q.566.718 1.058 1.364c-.608.704-1.22 1.393-1.819 2.056a123 123 0 0 0-1.123-1.364c.635-.676 1.266-1.363 1.884-2.055Zm1.841 2.404a86 86 0 0 1-1.782 2.04q.428.544.803 1.042a69 69 0 0 0 1.744-2.032 71 71 0 0 0-.765-1.05m1.405 1.966a47 47 0 0 1-1.772 1.951c.095.133.776.83.78.824 0 0 .558-.722 1.532-1.959a34 34 0 0 0-.54-.815Zm-.797 3.445c.653-.699 1.277-1.343 1.801-1.933.305.528.408.86.395.992-.076.76-3.326 6.54-3.52 6.886a16 16 0 0 1-2.293 1.272c2.03-2.967 3.617-7.217 3.617-7.217M41.322 33c-.086-.274-.192-.442-.322-.748 2.208-2.59 2.947-3.84 3-3.932q-.01.547-.058 1.086c-2.62 3.594-2.036 2.79-2.62 3.594m.156.729c-2.841 5.489-2.94 5.708-3.75 6.98a16 16 0 0 0 6.015-9.817 102 102 0 0 1-2.265 2.837m2.302-8.404q.136.801.19 1.626a202 202 0 0 1-3.374 4.441q-.208-.412-.452-.849a49 49 0 0 0 3.636-5.218m-8.29 8.945q-.385-.452-.859-.984a100 100 0 0 1-1.796 1.87c.355.377.548.594.773.844 1.32-1.16 1.308-1.116 1.883-1.73Zm-1.292 2.438s.741-.578 1.905-1.702c.487.603.897 1.009.897 1.153 0 1.255-3.35 6.746-3.35 6.746l-.056.094q-1.117.416-2.306.666c1.323-2.9 2.956-6.58 2.91-6.957m9.272-12.815c-.672 1.11-1.982 3.148-3.922 5.636a41 41 0 0 0-.697-1.093c2.72-3.39 3.967-5.564 4.178-5.944q.252.687.442 1.401Zm-10.921 7.104q.642.692 1.212 1.322c-.634.683-1.243 1.325-1.808 1.911-.39-.406-.82-.851-1.282-1.326.615-.615 1.245-1.253 1.878-1.907M29 34.42l1.488 1.312a118 118 0 0 1-1.992 1.973L27 36.467c.635-.6 1.277-1.343 2-2.047M28.852 39c-.262 1.158-.823 3.346-1.609 4.985a16.3 16.3 0 0 0 2.758-.106c.941-1.872 2.55-5.208 2.55-6.151l-1.167-1.129c-.748.73-.884.901-2.532 2.401m7.425-14c2.19-2.776 3.875-5.308 4.657-6.424C38.024 14.59 33.315 12 28.002 12q-1.268 0-2.484.192l.052.043S31.622 18.85 36.277 25m-1.287 1.514c-.585.716-1.267 1.447-1.898 2.183-5.487-6.472-13.091-14.5-13.091-14.5l-.037-.035a16 16 0 0 1 2.928-1.329c5.252 5.582 9.284 10.18 12.097 13.68Zm-3.196 3.67c-4.575-4.9-11.027-11.475-14.01-14.498a16 16 0 0 0-2.109 2.111l.011.007S24.5 26.58 29.965 32.178a88 88 0 0 0 1.829-1.994m-3.358 3.562-14.264-13.8a16 16 0 0 0-1.364 3.02l13.56 12.74a57 57 0 0 0 2.068-1.96M24.81 37 12.134 25.929a16.1 16.1 0 0 0 .009 4.213l10.335 8.627c.82-.526 1.58-1.154 2.334-1.769Zm-1.6 2.926.007-.002s.935-.82 2.403-2.175l1.675 1.469-1.417 4.645a16 16 0 0 1-3.242-.782l.573-3.155Zm-2.34 2.404a16.06 16.06 0 0 1-7.798-8.558L21 40.238z"/><defs><linearGradient id="a" x1="56" x2="0" y1="28" y2="28" gradientUnits="userSpaceOnUse"><stop stop-color="#E58701"/><stop offset="1" stop-color="#E17900"/></linearGradient></defs></svg>