<svg xmlns="http://www.w3.org/2000/svg" width="56" height="56"><path fill="url(#a)" d="M0 0h56v56H0z"/><path fill="#fff" fill-rule="evenodd" d="M36.278 21.164 31 34zM12.543 29.09l-.655-.48-.034-.03c-1.562-1.387-2.194-3.494-1.677-5.565.392-1.597 1.624-3.064 3.136-3.662l.009-.004a5.16 5.16 0 0 1 5.248.916l-.051-.132-.012-.04a5.83 5.83 0 0 1 1.256-5.522c1.385-1.565 3.66-1.995 5.476-1.132.954.448 1.837 1.278 2.375 2.293l.01.02.01.02q.187.393.331.822a5.3 5.3 0 0 1 2.375-2.92c1.819-1.111 4.3-.803 5.844.602a5.3 5.3 0 0 1 1.423 1.969c.535 1.173.502 2.515.205 3.696 1.074-.755 2.402-1.077 3.774-.886l.025.003.026.005c1.5.288 3.019 1.304 3.78 2.869.47.858.63 1.88.571 2.83-.058.956-.339 1.934-.85 2.718-.34.564-.77.97-1.174 1.293-.139.11-.279.215-.412.312.81-.036 1.63.115 2.343.471 1.174.51 2.201 1.653 2.68 2.81.76 1.734.471 4.014-.622 5.492l-.008.01-.009.012c-1.05 1.34-2.502 2.142-4.233 2.104H27.525L27.5 40l-.025-.017H12.297c-1.73.038-3.183-.765-4.233-2.104l-.009-.011-.008-.011c-1.093-1.478-1.38-3.758-.622-5.492.48-1.157 1.506-2.3 2.68-2.81.74-.37 1.596-.518 2.438-.466zM26.73 16.2c.407.86.65 1.822.498 2.886L24.97 34l2.258-14.915c.151-1.063-.09-2.026-.498-2.886-.438-.827-1.163-1.503-1.918-1.857.755.354 1.48 1.03 1.918 1.857zm11.456 4.71a4.5 4.5 0 0 0-1.16 1.414l-5.898 14.289L31 37l.128-.388 5.898-14.289a4.5 4.5 0 0 1 1.16-1.414zm-23.075-.908c-.478.009-.961.1-1.43.28-1.195.474-2.215 1.673-2.533 2.973-.43 1.722.095 3.445 1.37 4.576L25 37l-12.482-9.17c-1.275-1.131-1.8-2.854-1.37-4.576.318-1.3 1.338-2.5 2.533-2.972.469-.18.952-.272 1.43-.281zm32.544 12.756c.617 1.4.38 3.307-.506 4.505-.819 1.044-1.88 1.656-3.122 1.717 1.242-.06 2.304-.673 3.122-1.717.886-1.198 1.124-3.105.507-4.505-.396-.962-1.267-1.907-2.184-2.295.917.388 1.788 1.333 2.183 2.295M30 38.983h13.715zm-19.22-.249q.702.266 1.505.25H25 12.285a4 4 0 0 1-1.505-.25"/><path fill="#645FAA" d="M36.69 16.642c.648 1.4.269 3.257-.412 4.522L31 34l-1.97-12.937c-.158-1.232 1.092-1.755 1.82-2.362-.032-.186-.222-.253-.348-.253l-1.788-.017-.048-.051c.016-1.603.823-3.071 2.184-3.847 1.424-.878 3.434-.641 4.669.49.506.438.917.995 1.17 1.619z"/><path fill="#C9234A" d="M26.73 16.199c.407.86.65 1.822.498 2.886L24.97 34l-5.504-14.19a4.83 4.83 0 0 1 1.042-4.573c1.088-1.232 2.884-1.57 4.304-.895.755.354 1.48 1.03 1.918 1.857"/><path fill="#0089CF" d="M44.53 22.39c.734 1.317.574 3.326-.24 4.558-.511.861-1.341 1.3-2.044 1.857L31.032 37H31l.128-.388 5.898-14.289c.894-1.688 2.602-2.532 4.422-2.279 1.23.236 2.475 1.08 3.081 2.347z"/><path fill="#F36F21" d="M18.938 22.308 25 36.991V37l-12.482-9.17c-1.275-1.131-1.8-2.854-1.37-4.576.318-1.3 1.338-2.5 2.533-2.972 1.975-.76 4.206.05 5.257 2.026"/><path fill="#0DB14B" d="M47.655 32.757c.617 1.4.38 3.307-.506 4.505-.886 1.13-2.057 1.755-3.434 1.721H30l11.547-8.251c1.092-.743 2.738-.878 3.924-.27.918.388 1.789 1.333 2.184 2.295"/><path fill="#FDB913" d="M8.345 32.757c-.618 1.4-.38 3.307.506 4.505.886 1.13 2.057 1.755 3.434 1.721H25l-10.547-8.251c-1.092-.743-2.737-.878-3.924-.27-.918.388-1.789 1.333-2.184 2.295"/><defs><linearGradient id="a" x1="10.418" x2="68.147" y1="9.712" y2="76.017" gradientUnits="userSpaceOnUse"><stop stop-color="#1A1E21"/><stop offset="1" stop-color="#06060A"/></linearGradient></defs></svg>