<svg xmlns="http://www.w3.org/2000/svg" width="56" height="56"><path fill="#0064AA" d="M0 0h56v56H0z"/><path fill="#F0F3FA" d="M8.2 31c-.28 0-.57-.04-.84-.15a2.2 2.2 0 0 1-1.19-1.21 2.3 2.3 0 0 1-.17-.86v-1.53C6 26.02 7 25 8.2 25h14.6c.58 0 1.14.25 1.56.67.4.42.64.95.64 1.54v1.6c0 1.25-.99 2.19-2.2 2.19zm25 0c-.29 0-.57-.04-.84-.15a2.2 2.2 0 0 1-1.2-1.21 2.1 2.1 0 0 1-.16-.82V27.2c0-1.24.98-2.2 2.2-2.2h14.6c1.22 0 2.2 1 2.2 2.24v1.54A2.2 2.2 0 0 1 47.8 31zM20.55 44a2.16 2.16 0 0 1-1.91-1.12l-5.52-8.87a.92.92 0 0 1 .24-1.18.9.9 0 0 1 .4-.17l3.86-.66c.48 0 .82.05 1.2.23.36.18.67.47.88.84l2.83 4.63c.1.18.24.3.47.3h10c.23 0 .64-.12.75-.3l2.53-4.62A2.17 2.17 0 0 1 38.26 32l3.97.67a.89.89 0 0 1 .67.51c.06.13.1.28.1.43s-.07.3-.14.42l-5.18 8.85A2.22 2.22 0 0 1 35.77 44zm-.08-32a2.16 2.16 0 0 0-1.92 1.12L13.12 22a.92.92 0 0 0 .24 1.19c.11.08.25.14.4.17l3.86.64c.46 0 .82-.03 1.2-.21.36-.19.67-.48.88-.84l2.74-4.6c.11-.18.33-.35.56-.35h10c.23 0 .55.17.66.36l2.6 4.63A2.04 2.04 0 0 0 38.34 24l3.6-.63c.25-.11.86-.22.98-.48a.9.9 0 0 0 .08-.43c0-.15-.1-.3-.16-.42l-5.24-8.92A2.22 2.22 0 0 0 35.68 12h-15.2z"/></svg>