<svg xmlns="http://www.w3.org/2000/svg" width="56" height="56" fill="none"><path fill="#FF0F70" d="M0 0h56v56H0z"/><path fill="url(#a)" d="M40.134 37.623A16.1 16.1 0 0 1 28.097 43C19.207 43 12 35.837 12 27s7.207-16 16.097-16c8.02 0 14.67 5.83 15.895 13.458h-5.287C37.558 19.608 33.2 16 28 16c-6.075 0-11 4.925-11 11s4.925 11 11 11c3.43 0 6.495-1.57 8.512-4.032z"/><path fill="#F0F3FA" d="M17 27h-5c0-8.837 7.207-16 16.097-16 8.02 0 14.67 5.83 15.895 13.458h-5.287C37.558 19.608 33.2 16 28 16c-6.075 0-11 4.925-11 11"/><path fill="#F0F3FA" d="M27 24h17v5H27z"/><defs><linearGradient id="a" x1="15.5" x2="32" y1="36.5" y2="27" gradientUnits="userSpaceOnUse"><stop stop-color="#F0F3FA"/><stop offset=".568" stop-color="#F0F3FA"/><stop offset="1" stop-color="#FFE5D9" stop-opacity="0"/></linearGradient></defs></svg>