<svg xmlns="http://www.w3.org/2000/svg" width="56" height="56"><path fill="#00003C" d="M0 0h56v56H0z"/><path fill="#fff" fill-rule="evenodd" d="M34.22 35.2c0 1.14.87 1.9 2.2 1.9h.02a2.66 2.66 0 0 0 2.75-2.74c0-1.56-.92-2.62-1.95-3.58l-.87-.83a4.38 4.38 0 0 1-1.57-3.43c0-1.45.88-3.04 2.71-3.84-.38-.12-.61-.5-.61-.96 0-.16.03-.29.06-.4s.06-.21.06-.32c0-.45-.27-.72-.65-.72a.56.56 0 0 0-.58.53.37.37 0 0 0 .42.42c.12 0 .2 0 .2.12 0 .1-.12.15-.27.15a.67.67 0 0 1-.69-.57.56.56 0 0 1-.27.07.44.44 0 0 1-.45-.45c0-.08.03-.2.15-.2.07 0 .11.08.11.16a.18.18 0 0 0 .05.14.18.18 0 0 0 .14.05.41.41 0 0 0 .35-.27.98.98 0 0 1 1.46-.28c.18.15.3.35.33.58.26-.26.56-.5.88-.68l-.27-.17c-.2-.13-.4-.25-.6-.4a8 8 0 0 1-1.35-1.22l-2.1-2.29c-1.83-2.02-3.01-2.51-4.16-2.51-.99 0-1.48.5-1.48 1.07 0 .42.18.73.46.88.18-.18.3-.41.34-.66.04-.19.07-.19.11-.19.08 0 .08.08.08.16 0 .27-.06.55-.2.79h.12c.38 0 .6-.19.6-.41a.25.25 0 0 0-.07-.2c-.07-.07-.03-.1 0-.1.16 0 .3.18.3.41 0 .27-.22.65-.87.65q-.18 0-.36-.06a1.26 1.26 0 0 1-1.5 0c-.11.04-.23.06-.35.06-.65 0-.88-.38-.88-.65 0-.23.15-.42.3-.42.04 0 .08.04 0 .12a.24.24 0 0 0-.07.19c0 .22.23.42.6.42h.07l.06-.01a1.5 1.5 0 0 1-.2-.8c0-.07 0-.15.07-.15.04 0 .08 0 .12.2.04.24.16.47.33.65.29-.15.47-.46.47-.88 0-.58-.5-1.07-1.49-1.07-1.15 0-2.33.5-4.16 2.51l-2.1 2.29a9.7 9.7 0 0 1-2 1.65l-.21.14c.32.19.61.42.88.68a.95.95 0 0 1 .95-.8.98.98 0 0 1 .84.5.4.4 0 0 0 .34.27.18.18 0 0 0 .18-.12l.02-.07c0-.08.03-.16.1-.16.12 0 .16.12.16.2a.44.44 0 0 1-.46.45.56.56 0 0 1-.26-.07.67.67 0 0 1-.7.57c-.14 0-.26-.04-.26-.15 0-.12.08-.12.2-.12a.4.4 0 0 0 .41-.42.55.55 0 0 0-.57-.53c-.38 0-.65.27-.65.72 0 .1.03.2.05.31.03.12.07.25.07.41 0 .46-.24.84-.61.96 1.83.8 2.7 2.4 2.7 3.84 0 1.33-.45 2.4-1.56 3.43l-.88.83c-1.03.95-1.94 2.02-1.94 3.58 0 1.6 1.18 2.74 2.74 2.74 1.34 0 2.22-.76 2.22-1.9 0-.95-.65-1.71-1.41-1.71-.31 0-.58.11-.58.42l.01.13c.01.12.02.2-.12.2-.12 0-.23-.1-.23-.41 0-.38.34-.69.84-.69h.11a.8.8 0 0 1-.07-.34.52.52 0 0 1 .53-.53c.27 0 .54.15.54.34a.1.1 0 0 1-.03.09.1.1 0 0 1-.09.02c-.05 0-.08-.02-.12-.04-.06-.03-.11-.07-.22-.07a.24.24 0 0 0-.26.16.24.24 0 0 0 0 .1c0 .25.19.37.37.48l.04.02a2.09 2.09 0 0 1 1.03 1.83c0 1.07-.6 1.75-1.49 2.06l.57.87c.76 0 1.15.57 1.83 1.78a.67.67 0 0 1 .68-.53c.42 0 .7.3.7.73a.17.17 0 0 1-.16.18.18.18 0 0 1-.2-.18.35.35 0 0 0-.34-.38c-.26 0-.37.19-.37.42-.01.26.06.52.21.73.8 1.3 1.91 1.94 2.87 1.94.84 0 1.33-.5 1.33-.99 0-.46-.26-.84-.72-.84-.31 0-.5.2-.5.46 0 .13.06.19.12.23.04.04.07.06.07.11 0 .08-.08.11-.15.11-.23 0-.38-.26-.38-.53 0-.42.34-.72.84-.72a1.05 1.05 0 0 1 .95.6 1.04 1.04 0 0 1 .96-.6c.5 0 .84.3.84.72 0 .27-.15.53-.38.53-.08 0-.15-.03-.15-.1 0-.06.03-.08.07-.12.05-.04.12-.1.12-.23 0-.27-.2-.46-.5-.46-.46 0-.72.38-.72.84 0 .5.5.99 1.33.99.96 0 2.07-.65 2.87-1.94.15-.21.23-.47.23-.73 0-.22-.11-.41-.38-.41a.35.35 0 0 0-.34.37.18.18 0 0 1-.2.2.17.17 0 0 1-.15-.2c0-.42.27-.72.69-.72a.67.67 0 0 1 .69.53c.68-1.22 1.06-1.79 1.83-1.79l.57-.87a2.07 2.07 0 0 1-1.49-2.06 2.07 2.07 0 0 1 1.03-1.83l.04-.02.02-.01c.18-.11.36-.22.36-.46a.24.24 0 0 0-.26-.27c-.11 0-.17.04-.22.07-.04.02-.08.04-.13.04a.1.1 0 0 1-.1-.04.1.1 0 0 1-.01-.07c0-.19.26-.34.53-.34a.52.52 0 0 1 .54.53c0 .12-.03.24-.08.34h.11c.5 0 .84.31.84.69 0 .3-.11.42-.23.42-.14 0-.13-.09-.12-.21l.01-.13c0-.3-.27-.42-.57-.42-.77 0-1.41.76-1.41 1.71M27.2 43c.31.36.58.76.8 1.18.22-.42.49-.82.8-1.18a1.5 1.5 0 0 1-.8-.72 1.5 1.5 0 0 1-.8.72m.8-27.29c.13 0 .26-.02.38-.08a1.2 1.2 0 0 1-.38-.51c-.08.2-.21.38-.39.51.12.06.25.08.39.08M39.5 32.8a.55.55 0 0 1 .3-.06h-.02c.38 0 .57.22.57.57 0 .07 0 .3-.19.3-.11 0-.1-.08-.08-.17v-.1a.27.27 0 0 0-.3-.26c-.3 0-.38.26-.3.68.03.2.04.4.03.61a3 3 0 0 1-3.09 3.09 5 5 0 0 1-.76-.08l-.53.8a.9.9 0 0 1 .64.83.86.86 0 0 1-.88.88c-.3 0-.53-.16-.53-.31a.14.14 0 0 1 .1-.15h.05c.05 0 .07.02.1.04.05.03.12.07.28.07a.52.52 0 0 0 .53-.53c0-.3-.27-.53-.64-.53-.62 0-.96.6-1.35 1.3l-.22.37-.5.84c-.8 1.37-2.1 2.17-3.16 2.17-.16 0-.31 0-.46-.04-.46.46-.92 1.3-1.1 1.67a7.4 7.4 0 0 0-1.11-1.67c-.16.03-.3.04-.46.04-1.07 0-2.37-.8-3.17-2.17l-.5-.84-.22-.38c-.4-.7-.73-1.3-1.35-1.3-.38 0-.65.24-.65.54a.52.52 0 0 0 .54.53c.15 0 .22-.04.27-.07.03-.02.06-.04.1-.04a.14.14 0 0 1 .15.09v.06c0 .15-.22.3-.53.3a.86.86 0 0 1-.88-.87.89.89 0 0 1 .65-.84l-.53-.8c-.26.05-.51.07-.77.08a3 3 0 0 1-3.09-3.09c0-.2 0-.4.04-.6.07-.42 0-.69-.3-.69a.27.27 0 0 0-.31.27l.01.09c.01.09.03.17-.09.17-.19 0-.19-.23-.19-.3 0-.34.2-.57.58-.57a.55.55 0 0 1 .5.26c.3-.68.6-1.33 1.94-2.55a1.8 1.8 0 0 1-.53.08c-.42 0-.88-.11-1.15-.38a.57.57 0 0 1-.57.42c-.42 0-.57-.26-.57-.57 0-.11.04-.23.15-.23.1 0 .12.1.15.2.03.12.06.26.27.26a.27.27 0 0 0 .26-.2.3.3 0 0 0 .01-.1c0-.09-.02-.18-.05-.28a1.6 1.6 0 0 1-.07-.41 1.12 1.12 0 0 1 .85-1.14.52.52 0 0 0 .41-.5c0-.3-.22-.34-.37-.34h-.1c-.1.01-.17.02-.17-.07 0-.12.11-.2.34-.2.28 0 .65.2.65.61a.6.6 0 0 1-.19.46.79.79 0 0 1 .65.76c0 .27-.08.53-.27.53-.14 0-.12-.07-.08-.2.02-.08.05-.18.05-.29 0-.34-.31-.5-.62-.5-.42 0-.8.39-.8.88 0 .58.46.96 1.19.96a1.91 1.91 0 0 0 1.51-.66c.76-.92 1.26-1.64 1.26-3 0-1.76-1.26-3.24-3.1-3.78a.95.95 0 0 1-.68-.91c0-.38.24-.69.61-.69.15 0 .27.04.27.16 0 .11-.12.11-.2.11a.4.4 0 0 0-.34.42.6.6 0 0 0 .65.6c.42 0 .69-.3.69-.72 0-.8-.95-1.33-1.68-1.67l.37-.16c.4-.18.65-.28 1-.64a.5.5 0 0 0 .16-.37c0-.2-.12-.35-.27-.35a.18.18 0 0 0-.14.06.18.18 0 0 0-.05.13c0 .07.02.1.04.12s.03.04.03.07a.1.1 0 0 1-.06.11.1.1 0 0 1-.05 0c-.08 0-.27-.06-.27-.37a.45.45 0 0 1 .5-.46.61.61 0 0 1 .62.65c.3-.24.57-.51.83-.8L21 16.7c.34-.38.15-1.1-.35-1.1a.35.35 0 0 0-.3.14.35.35 0 0 0-.07.2c0 .2.1.23.2.25.08.03.14.04.14.13a.14.14 0 0 1-.15.15.53.53 0 0 1-.54-.57.68.68 0 0 1 .46-.61.7.7 0 0 1 .27-.04c.5 0 .84.38.84.91l.37-.42c1.69-1.82 3.06-2.62 4.4-2.62.43-.01.85.1 1.22.34.18-.22.35-.45.5-.69.15.24.31.47.5.69.36-.23.79-.35 1.22-.34 1.34 0 2.71.8 4.39 2.63l.38.41c0-.53.34-.91.84-.91a.7.7 0 0 1 .73.65.52.52 0 0 1-.23.47.53.53 0 0 1-.37.1.14.14 0 0 1-.1-.14c0-.08.07-.1.14-.12.1-.03.21-.06.21-.26a.35.35 0 0 0-.37-.34c-.5 0-.7.73-.35 1.1l1.22 1.33c.26.29.54.56.84.8a.6.6 0 0 1 .61-.64.46.46 0 0 1 .5.45c0 .3-.19.38-.27.38a.1.1 0 0 1-.11-.12c0-.03.01-.05.03-.07.02-.03.05-.05.05-.12a.18.18 0 0 0-.12-.17.2.2 0 0 0-.08-.02c-.15 0-.26.16-.26.35a.5.5 0 0 0 .15.37c.5.38.72.5 1.37.8-.72.34-1.68.88-1.68 1.68 0 .42.27.72.7.72a.61.61 0 0 0 .64-.61.38.38 0 0 0-.34-.42c-.08 0-.2 0-.2-.11 0-.12.12-.15.27-.15.39 0 .61.3.61.68a.94.94 0 0 1-.68.91 3.99 3.99 0 0 0-3.1 3.77 3.97 3.97 0 0 0 1.95 3.51q.405.18.84.15c.73 0 1.19-.38 1.19-.95 0-.5-.39-.87-.8-.87-.31 0-.62.15-.62.49 0 .11.03.21.05.3.04.12.06.2-.08.2-.2 0-.27-.27-.27-.54a.78.78 0 0 1 .65-.76.6.6 0 0 1-.2-.46c0-.41.39-.6.66-.6.22 0 .34.07.34.19 0 .09-.08.08-.18.07h-.09c-.15 0-.38.04-.38.34a.51.51 0 0 0 .42.5 1.13 1.13 0 0 1 .84 1.14c0 .15-.03.28-.06.4-.03.1-.05.2-.05.29a.27.27 0 0 0 .27.3c.21 0 .24-.14.27-.27.03-.1.05-.19.15-.19.11 0 .15.12.15.23 0 .3-.15.57-.57.57a.58.58 0 0 1-.58-.42c-.26.26-.72.38-1.14.38-.18 0-.36-.02-.54-.08A6.6 6.6 0 0 1 39.3 33a.55.55 0 0 1 .21-.2Zm-7.24 10.56c2.37-1.15 4.85-2.36 6.53-4.08 2.13-2.17 3.2-4.38 3.2-6.89 0-2.13-.72-4.03-2.79-6.31v-.02c-.15-.18-.3-.37-.3-.52s.15-.46.23-.6l1.33-2.9.06-.12c.28-.6.55-1.17.55-1.78 0-.54-.34-.92-.8-1.3l-1.9-1.7a.23.23 0 0 1-.04-.27l.61-1.26c.08-.15.08-.27-.04-.34-1.9-1.18-3.43-1.64-5.68-2.25l-.3-.07c-2.01-.55-3.8-1.03-4.93-1.75-1.14.73-2.96 1.22-5 1.76l-.23.06-.33.1c-2.08.55-3.58.96-5.36 2.15-.11.07-.11.19-.04.34l.61 1.26a.23.23 0 0 1-.03.26l-1.91 1.71c-.46.38-.8.76-.8 1.3 0 .61.27 1.19.56 1.8l.05.1 1.33 2.9c.08.15.23.45.23.6s-.14.34-.3.52v.02c-1.91 2.4-2.78 4.19-2.78 6.32 0 2.5 1.06 4.71 3.2 6.88 1.68 1.72 4.16 2.93 6.52 4.08 1.57.76 3.1 1.52 4.28 2.43a25 25 0 0 1 4.27-2.43m8.13-17.4.19.23c1.72 2.13 2.41 3.88 2.41 6.2 0 3.24-1.6 5.71-3.44 7.58-1.8 1.87-4.38 3.12-6.72 4.25l-.1.05-.07.03-.25.12c-1.47.72-3 1.45-4.42 2.59a22.6 22.6 0 0 0-4.42-2.59l-.31-.15c-2.37-1.14-4.96-2.4-6.84-4.3C14.6 38.09 13 35.62 13 32.38c0-2.32.69-4.07 2.4-6.2l.2-.23c.22-.27.34-.41.34-.53 0-.13-.08-.3-.17-.52l-.06-.13-1.15-2.51-.03-.08a5.05 5.05 0 0 1-.61-2.13c0-.57.23-1.14.8-1.64l1.64-1.4a.35.35 0 0 0 .07-.46l-.6-1.37a.2.2 0 0 1 .07-.27c1.87-1.25 4-2.02 6.03-2.59l.3-.08c1.98-.56 4.5-1.26 5.76-2.24 1.34 1.03 4.05 1.79 6.07 2.32 2.03.57 4.16 1.34 6.03 2.6a.2.2 0 0 1 .08.26l-.61 1.37a.35.35 0 0 0 .07.45l1.65 1.41c.57.5.8 1.07.8 1.64 0 .77-.29 1.4-.62 2.13l-.03.08-1.15 2.5-.06.17c-.1.2-.16.37-.16.49s.12.26.34.53Zm-10.64 8.51c.35-.27.63-.65.8-1.09v-.02q-.75.255-1.56.3v1.2c.27-.08.53-.21.76-.39m-2 1.38c-.31.73-.9 1.44-1.58 1.44 0 0-.75.06-1-.41-.28-.56.2-.78.2-.78s.34-.15.18-.41-.52-.13-.52-.13a1.5 1.5 0 0 0-.84.83c-.27.64.18 1.72 1.42 1.83a2.76 2.76 0 0 0 2.52-1.14s.9 1.06 2.2 1.23c0 0 .16.02.21-.04.05-.07.06-.18-.15-.32l-.06-.04C30.03 37.7 29 37 29 35.88v-.01c1.28-.28 2.05-1.41 2.05-1.41s.45-.61.69-1.65l.26-.17a3.37 3.37 0 0 0 1.38-4.33l-.02-.05s-.72-1.64-2.49-2.25L30.8 26c.64-.99.93-2.29.85-3.45l.25.16c.2.16.4.35.58.55 0 0 .29.38.47.19.16-.17-.11-.41-.11-.41a2.2 2.2 0 0 1-.5-1.25 6.4 6.4 0 0 1-.02-.95c.01-.12.03-.25.07-.37.03-.1.05-.26-.1-.29-.12-.02-.18.1-.2.14v.01a1.4 1.4 0 0 1-.83.64c-.66-1.5-1.81-1.8-1.96-1.84.2-.37.48-.69.85-.93l.03-.02c.49-.26 1-.47 1.54-.6 0 0 .3-.06.34-.2.03-.16-.06-.25-.26-.23a4.5 4.5 0 0 0-1.49.38 4.6 4.6 0 0 1-1.87.44 9.9 9.9 0 0 1-2.67-.54c-.1-.05-.25-.1-.34-.04a.22.22 0 0 0-.06.28c.02.04.06.07.1.1l.4.2.3.12c.44.23.88.6 1.21 1.05-.37.16-.76.44-1.1.92-.01-.03-.67-1.15-1.85-.56-1.02.61-.43 1.59-.18 1.75 0 0 .33.25.52 0 .13-.16.02-.33-.06-.46l-.02-.03c-.14-.25.1-.53.44-.52.24 0 .68.17.83.7-.5.2-1.03.5-1.48.99a2.7 2.7 0 0 0-.72 2.33c.23 1.14 1.13 1.76 2.25 2.02v5.63a6.76 6.76 0 0 1-2.73-3.2.23.23 0 0 0-.32-.1c-.18.07-.08.32-.08.32s.54.97.44 1.73c-.09.51-.36.97-.77 1.3-.15.14-.33.3-.19.44s.3.06.5-.13h.01a1.37 1.37 0 0 1 1.61.02c.47.36.99.65 1.53.87v.1c0 .1-.09.74-.57.72-.5 0-.67-.57-.39-.87a.3.3 0 0 0-.09-.13c-.05-.03-.8-.05-.7.82.08.87 1.03 1.3 1.95.74a2.66 2.66 0 0 0 1.56 1.31Zm.24-.97c-.66-.2-.88-.9-.96-1.4.31.08.64.13.96.16zm1-2.27a4.8 4.8 0 0 0 1.87-.6c.1-1.52-.53-3.15-1.87-3.84zm-1-4.76v4.74a5 5 0 0 1-1-.22V27.8c.34-.04.67-.03 1 .03Zm0-1.4v.47h-1v-.5l.43.01.57.01Zm1-.85c.32.05.6.1.85.16.8-1.05.75-2.38.72-3.22a24 24 0 0 1-.04-.53c-.5-.18-1-.31-1.53-.38zm-1-4.02v3.9a19 19 0 0 0-1-.1V21.7a5 5 0 0 1 1-.13Zm1-.86c.33.04.71.1 1.15.18a2.12 2.12 0 0 0-1.12-.94c-.02.13-.03.27-.03.4zm-1.18-.79c.1.23.15.47.17.7h-.2s-.3-.02-.76.04c.06-.16.27-.57.8-.74Zm2.7 7.06-.46-.17c-.18.15-.36.28-.54.4 1.13.4 1.9 1.76 2.16 2.88q.15.615.18 1.17c.72-.76.73-1.59.54-2.24a3.2 3.2 0 0 0-1.88-2.04M26 22.04v3.1c-1.05-.38-1.43-1.08-1.2-1.89.16-.54.64-.93 1.2-1.2Z"/></svg>