<svg xmlns="http://www.w3.org/2000/svg" width="56" height="56"><path fill="url(#a)" d="M0 0h56v56H0z"/><path fill="#fff" fill-rule="evenodd" d="M22.155 26.985a4.33 4.33 0 0 1-1.529 1.945l-.018.013C19.632 29.64 18.365 30 17.039 30c-1.538 0-2.813-.485-3.5-1.416a2.8 2.8 0 0 1-.53-1.411 4 4 0 0 1 .018-.908l-.74 3.355c-.662.266-2.107.38-2.792.38-3.005 0-4.9-2.256-4.424-4.981C5.557 22.23 8.403 20 11.492 20c.867 0 1.737.14 2.503.393l-.561 3.637a4 4 0 0 0-.428-.372 3.3 3.3 0 0 0-.48-.302 2.56 2.56 0 0 0-1.174-.29c-1.146 0-2.226.825-2.408 1.864-.183 1.052.667 1.863 1.813 1.863a3.3 3.3 0 0 0 1.24-.24 4 4 0 0 0 .664-.337l.038-.024.035-.022q.178-.116.352-.248a4.5 4.5 0 0 1 .836-1.817q.276-.36.615-.666C15.55 22.526 16.955 22 18.419 22c1.55 0 2.833.589 3.513 1.603.254.378.424.816.493 1.304a3.8 3.8 0 0 1-.026 1.193 4.5 4.5 0 0 1-.244.885m.399-1.297q.069.264.22.475c.13.184.303.338.505.465l.029.017a2 2 0 0 0 .124.07l.006.003c.277.145.6.245.948.305l.598.104.084.015c.262.047.58.104.526.425-.05.292-.395.422-.684.46l-.073.008h-.011l-.02.002a2.3 2.3 0 0 1-.585-.054h-.003a2.7 2.7 0 0 1-.594-.214 3.5 3.5 0 0 1-.689-.453l-.137-.115-1.319 2.233.079.04c.276.133.57.236.874.313.645.163 1.342.213 2.043.213 1.57 0 3.36-.572 4.036-1.93a2.6 2.6 0 0 0 .27-1.016c.027-.44-.072-.796-.27-1.082a1.7 1.7 0 0 0-.36-.372 2.4 2.4 0 0 0-.602-.332 4 4 0 0 0-.659-.196l-.67-.147-.079-.017c-.224-.048-.516-.11-.471-.37.048-.29.377-.397.638-.417l.09-.004h.01l.099.003q.3.013.57.092h.002q.185.053.356.129.163.07.315.16.173.1.332.214l1.172-2.023a4.4 4.4 0 0 0-.905-.433l-.01-.004A5.1 5.1 0 0 0 26.692 22c-1.36 0-2.812.574-3.603 1.634a3 3 0 0 0-.557 1.291 1.8 1.8 0 0 0 .02.763zm-.02-2.951c.286-.319.615-.592.967-.819.944-.608 2.096-.918 3.192-.918.664 0 1.299.09 1.9.286l.074-.286h8.523l-.19.727A6.24 6.24 0 0 1 39.898 21c.8 0 1.608.132 2.33.379l.781.266-.073.53A7 7 0 0 1 46.823 21c1.464 0 2.86.431 3.85 1.327 1.024.927 1.52 2.273 1.254 3.84-.538 3.182-3.6 4.833-6.479 4.833-1.443 0-2.821-.38-3.793-1.256l-.005-.005-.14.668-.487.202c-.403.167-.944.257-1.377.31-.432.052-.871.078-1.187.081h.634l-.01.06q.301-.06.584-.06c.509 0 .999.11 1.45.354l.17-.354h9.891l-.492 3h.014l-.493 3H38.413l.006-.013a4 4 0 0 1-.204-.023L38.21 37h-7.438l.018-.12c-.311.08-.632.12-.95.12-.408 0-.813-.069-1.188-.216L28.62 37H4v-6h23.732l.25-.938a5 5 0 0 1-.331.195c-.979.526-2.138.743-3.176.743-1.112 0-2.362-.116-3.453-.677l-.404-.207c-1.07.591-2.33.884-3.579.884-1.413 0-2.76-.363-3.727-1.2l-.034-.03-.129.581-.49.197c-.464.187-1.107.292-1.644.355-.564.066-1.135.097-1.52.097-1.76 0-3.27-.666-4.27-1.811-1.002-1.147-1.426-2.702-1.14-4.342C4.667 21.521 7.98 19 11.493 19a9.1 9.1 0 0 1 2.817.444l.804.265-.359 2.322A7 7 0 0 1 18.42 21c1.483 0 2.857.467 3.811 1.405q.163.159.304.332zm12.288 6.876c.864.902 2.122 1.374 3.519 1.387h-5.468l.915-3.444a3.9 3.9 0 0 0 1.034 2.057M30.457 31h1.213l-.035.235A3 3 0 0 0 30.457 31m0 0c-.326 0-.649.046-.959.134l.02-.134zm-1.424-1 .665-2.502.771-2.898h-1.712l.682-2.6h6.455l-.681 2.6h-1.674L32.104 30zm5.879-4.4q-.084.27-.131.552C34.399 28.407 35.99 30 38.4 30c.549 0 1.708-.094 2.238-.314l.585-2.8a3.8 3.8 0 0 1-.794.495 2.6 2.6 0 0 1-1.09.24c-.918 0-1.6-.672-1.453-1.542.146-.86 1.012-1.54 1.93-1.54.272 0 .522.055.751.15q.114.046.222.105c.264.143.496.335.698.541l.418-3.01A6.3 6.3 0 0 0 39.9 22c-1.209 0-2.363.44-3.275 1.157a5.2 5.2 0 0 0-1.412 1.703 4.6 4.6 0 0 0-.3.74zm7.146-1.105a4.5 4.5 0 0 0-.661 2.177 4 4 0 0 0 .01.446q.037.406.162.758.127.354.334.65c.678.968 1.976 1.474 3.545 1.474 2.578 0 5.064-1.463 5.493-4 .42-2.485-1.552-4-4.118-4-1.567 0-3.065.602-4.09 1.637-.256.26-.484.547-.675.858m-1.562 1.295a6 6 0 0 0-.068.444c-.384.268-.73.386-1.087.386-.218 0-.349-.078-.408-.139-.047-.049-.08-.115-.06-.234.056-.328.46-.709.945-.709q.338 0 .678.252M12.5 24.531a5.5 5.5 0 0 0-.294.79c-.486.316-.951.472-1.449.472-.341 0-.574-.12-.696-.243a.48.48 0 0 1-.132-.448c.086-.49.687-1.036 1.423-1.036.41 0 .79.17 1.148.465m34.216 1.443c.033-.192-.019-.273-.033-.29a.16.16 0 0 0-.063-.045.6.6 0 0 0-.237-.039.85.85 0 0 0-.855.708.6.6 0 0 0-.002.219.1.1 0 0 0 .025.055c.002.003.069.08.314.08.463 0 .784-.288.851-.688m-2.174.167a1.85 1.85 0 0 1 1.841-1.54c.975 0 1.462.701 1.32 1.54-.153.902-.908 1.52-1.838 1.52s-1.476-.618-1.323-1.52m-25.244 0c.143-.838-.344-1.54-1.319-1.54a1.85 1.85 0 0 0-1.84 1.54c-.153.902.393 1.521 1.322 1.521.93 0 1.685-.618 1.838-1.52zm-2.174.167a.85.85 0 0 1 .855-.707.6.6 0 0 1 .237.039.16.16 0 0 1 .063.044c.014.018.066.1.034.29-.068.402-.39.688-.852.688-.244 0-.31-.076-.314-.08a.1.1 0 0 1-.024-.055.6.6 0 0 1 .001-.219M19.727 36h1.17l.617-1.57a3 3 0 0 0 .123-.434l.002-.01.002-.006.02-.088.014-.067h.045l.004.078v.003l.006.117.096 1.977h1.2l1.79-3.7-.554 3.7h1.326l.208-1.39h.844L26.432 36h1.326l.275-1.834c-.067.744.245 1.292.773 1.587a2.1 2.1 0 0 0 1.032.247c.395 0 .778-.078 1.117-.23q.153-.068.293-.156a1.9 1.9 0 0 1-.693.132c-.948 0-1.717-.697-1.717-1.557s.769-1.557 1.717-1.557 1.718.697 1.718 1.557c0 .243-.062.473-.171.678L31.932 36h2.531l.193-1.224H33.5L33.907 32h-1.376l-.277 1.845c.032-.694-.273-1.253-.776-1.567A1.9 1.9 0 0 0 30.457 32a2.5 2.5 0 0 0-1.129.268 2.34 2.34 0 0 0-1.253 1.613L28.357 32h-1.326l-.202 1.347h-.843L26.188 32H23.53l-.634 1.682a5 5 0 0 0-.157.523l-.044.18v.002h-.03l-.022-.321L22.506 32h-1.055l-.649 1.65-.019.049-.013.035a5 5 0 0 0-.116.358l-.002.01q-.04.143-.075.284v.001h-.031L20.427 32H19zm-.385-1H5v1h14.54l-.001-.007h-.012zm-.263-1.5H5v1h14.264zm-.147-.782.063.282H5v-1h13.804zM34.782 36h2.577l.051-.312q.055.028.113.054a3.1 3.1 0 0 0 1.209.258 2.2 2.2 0 0 0 .886-.183 2 2 0 0 0 .383-.224 1.52 1.52 0 0 0 .547-.79q.025-.09.04-.186c.078-.502-.12-.806-.468-.981l-.078-.037a2 2 0 0 0-.286-.093l-.301-.072-.01-.002-.025-.006c-.1-.023-.232-.053-.212-.182.023-.147.18-.197.3-.204h.002l.026-.001h.019a1 1 0 0 1 .3.051c.125.041.24.103.346.177l.005.004q.043.03.083.061l.526-.992a2 2 0 0 0-.39-.207 2 2 0 0 0-.566-.125 2.1 2.1 0 0 0-.952.137l-.031.011c-.19.078-.37.184-.526.317a1.6 1.6 0 0 0-.474.672 1.6 1.6 0 0 0-.082.357.84.84 0 0 0 .092.498.8.8 0 0 0 .349.328l.004.003.021.01a1.3 1.3 0 0 0 .364.12l.009.002.268.051.038.008c.117.023.26.051.235.208-.023.149-.188.212-.32.228l-.038.003h-.03a1 1 0 0 1-.239-.03h-.003a1 1 0 0 1-.147-.05 1.3 1.3 0 0 1-.218-.12 2 2 0 0 1-.196-.154l-.062-.057-.466.864.068-.414h-1.196l.058-.49h1.056l.155-1.037H36.54l.057-.473h1.157l.163-1H35.38zm5.876-1.372L40 36h1.456l.186-.499h1.039l.05.499H46.6l.192-1.284h-1.155L46.043 32h-1.376l-.546 3.64-.683-3.64h-1.522zm1.929-1.279v-.018h-.05l-.003.008-.431 1.213h.552l-.055-.706a4 4 0 0 1-.013-.294v-.203M46.854 36h2.504l.165-1h-1.119l.059-.485h1.06l.155-1.04h-1.06l.058-.475h1.16l.165-1h-2.547z"/><path fill="#E31837" fill-rule="evenodd" d="M24.476 30c-1.065 0-2.12-.116-2.997-.566L22.8 27.2l.136.115c.482.398 1.088.723 1.794.723.303 0 .804-.115.865-.472.054-.32-.264-.378-.526-.425l-.084-.015-.598-.104c-1.165-.2-2.062-.86-1.853-2.098.317-1.877 2.322-2.925 4.16-2.925.964 0 1.811.22 2.561.692l-1.171 2.023c-.47-.335-1.02-.598-1.681-.598-.27 0-.677.095-.732.42-.045.262.247.323.471.371l.08.017.67.147c1.254.273 2.085.923 1.858 2.265-.32 1.887-2.447 2.663-4.273 2.663zm15.423-8c.695 0 1.393.115 2.007.325l-.418 3.01c-.421-.43-.975-.797-1.67-.797-.919 0-1.785.681-1.93 1.541-.148.87.534 1.541 1.453 1.541.706 0 1.313-.283 1.883-.733l-.584 2.799c-.531.22-1.69.314-2.24.314-2.409 0-4-1.593-3.619-3.848.39-2.307 2.642-4.152 5.118-4.152m1.557 4.1c.42-2.486 2.801-4.1 5.367-4.1s4.538 1.515 4.118 4c-.429 2.537-2.915 4-5.492 4s-4.422-1.363-3.993-3.9m6.246.041c.143-.839-.344-1.54-1.319-1.54s-1.699.702-1.84 1.54c-.154.902.392 1.52 1.322 1.52s1.685-.618 1.837-1.52M11.492 20c.867 0 1.737.14 2.503.393l-.56 3.637c-.525-.52-1.216-.964-2.083-.964-1.146 0-2.226.825-2.408 1.864-.183 1.052.667 1.863 1.813 1.863.873 0 1.625-.335 2.33-.871.5-2.384 2.828-3.922 5.333-3.922 2.566 0 4.4 1.615 3.979 4.1-.43 2.537-2.782 3.9-5.36 3.9-2.52 0-4.335-1.304-4.011-3.735l-.741 3.355c-.662.266-2.107.38-2.792.38-3.005 0-4.9-2.256-4.424-4.981C5.558 22.23 8.403 20 11.492 20m18.977 4.6h-1.711l.68-2.6h6.456l-.681 2.6H33.54L32.104 30h-3.071zm-13.008 3.062c-.93 0-1.475-.619-1.323-1.52A1.85 1.85 0 0 1 17.98 24.6c.975 0 1.462.702 1.32 1.54-.153.903-.908 1.521-1.838 1.521z"/><path fill="#005DAA" fill-rule="evenodd" d="M19.538 36H5v-1h14.341l.184.993h.012zm-.274-1.5H5v-1h14.078zm-.27-1.5H5v-1h13.803l.129.718.063.282zm18.922-1H35.38l-.598 4h2.578l.05-.312c.384.195.877.312 1.322.312.819 0 1.713-.458 1.857-1.383.101-.658-.272-.976-.833-1.11l-.3-.072-.035-.009c-.101-.023-.232-.053-.212-.182.024-.16.207-.205.328-.205.296 0 .542.129.753.293l.525-.992a1.97 1.97 0 0 0-1.148-.34c-.823 0-1.721.515-1.864 1.435-.093.606.308.93.83 1.028l.269.051.037.008c.117.023.26.051.235.208-.027.175-.251.232-.387.232-.317 0-.588-.16-.804-.355l-.061-.057-.466.864.067-.414h-1.196l.059-.49h1.055l.156-1.037H36.54l.057-.473h1.156zm-17.37 2.387L20.426 32H19l.726 4h1.17l.618-1.57c.066-.175.105-.354.146-.538l.015-.067h.045L21.826 36h1.2l1.79-3.7-.554 3.7h1.326l.208-1.39h.844L26.43 36h1.326l.275-1.834c-.103 1.15.7 1.834 1.806 1.834 1.081 0 2.066-.582 2.345-1.678L31.931 36h2.532l.192-1.224H33.5L33.907 32h-1.376l-.276 1.845c.049-1.087-.728-1.845-1.799-1.845-1.108 0-2.14.736-2.381 1.88l.282-1.88H27.03l-.202 1.347h-.844L26.187 32h-2.656l-.635 1.682a6 6 0 0 0-.2.705h-.03L22.505 32H21.45l-.65 1.65a6 6 0 0 0-.225.737h-.03zm8.888-.356c-.069.442.176.745.593.745s.755-.303.824-.745c.063-.412-.155-.756-.592-.756s-.761.345-.825.756m13.165-.185.055.706h-.552l.434-1.22h.05v.007c0 .168-.001.34.013.507M40 36h1.456l.186-.499h1.04l.05.499h3.866l.193-1.284h-1.155L46.042 32h-1.376l-.546 3.64-.684-3.64h-1.521zm7.453-4H50l-.164 1h-1.16l-.058.475h1.06l-.156 1.04h-1.06l-.058.485h1.118l-.164 1h-2.504l.6-4z"/><defs><linearGradient id="a" x1="10.418" x2="68.147" y1="9.712" y2="76.017" gradientUnits="userSpaceOnUse"><stop stop-color="#1A1E21"/><stop offset="1" stop-color="#06060A"/></linearGradient></defs></svg>