<svg xmlns="http://www.w3.org/2000/svg" width="56" height="56"><path fill="#0098D1" d="M0 0h56v56H0z"/><path fill="#FFAB1E" d="M46.58 18.215c-6.526 5.09-12.68 6.096-12.68 6.096l-.699 2.011c7.968-1.923 11.7-5.31 12.829-6.45.312-.947.55-1.657.55-1.657s-.327.977 0 0"/><path fill="#A5E030" d="M28.816 18.585c11.253-1.065 15.936-3.343 20.113-5.385 0 0-.104.267-.506 1.347-.921.784-7.551 5.133-20.915 6.302z"/><path fill="#FF4D46" d="m8.198 22.594-1.412 2.397c22.759.621 30.816-2.5 34.755-4.749.193-.31.654-1.228.818-1.568-7.998 3.432-19.935 4.912-34.16 3.92z"/><path fill="#fff" d="M16.64 36.002 16.296 38h-3.66c-3.656 0-5.019-1.857-4.394-4.986.624-3.145 2.79-5.03 6.416-5.03h3.796L17.97 30h-3.602c-1.947 0-2.795 1.1-3.136 2.856-.342 1.693-.194 3.146 1.783 3.146zm6.358-1.977c-.595.016-1.532 0-1.992 0l-.848 3.974h-2.854L19.28 28h4.563c1.22 0 2.26.035 3.003.548.833.577 1.115 1.49.907 2.563-.466 2.362-2.66 2.84-4.756 2.914zm0-4.014h-1.25l-.336 2.01h1.13c1.204 0 2.21 0 2.388-.974.208-1.137-.773-1.036-1.932-1.036m16.862 5.108c-.103.526.194.881.67.881h3.927l-.894 2h-5.842c-.773 0-1.263-.74-1.1-1.602L38.301 28h2.884l-1.324 7.119zM31.61 32h4.46l-.432 2h-4.46l-.816 4h-2.81l1.666-8.443c.178-.865.936-1.557 1.724-1.557h6.072l-.483 2h-3.657c-.475 0-.95.459-1.055.987L31.611 32z"/></svg>