<svg xmlns="http://www.w3.org/2000/svg" width="56" height="56" fill="none"><path fill="#F0F3FA" d="M0 0h56v56H0z"/><path fill="#2D3063" d="M7 27v5H6v-5H4v-1h5v1zm3 5v-6h3.016c1.241 0 1.984.463 1.984 1.77 0 .87-.147 1.535-1.087 1.714v.027c.68.028 1.087.415 1.087 1.162V32h-1v-1.106c0-.608-.522-.894-1.147-.894H11v2zm1-3h1.826c.74 0 .978-.325.978-1.037 0-.688-.168-.963-.896-.963H11zm7.587-3C20.637 26 21 27.09 21 29c0 2.113-.35 3-2.587 3C16.408 32 16 30.892 16 29c0-2.157.295-3 2.587-3m-.075 1c-1.59 0-1.512.61-1.512 2 0 1.292.172 2.064 1.537 2.064C19.983 31.064 20 30.281 20 29c0-1.344-.03-2-1.488-2m13.075-1C33.637 26 34 27.09 34 29c0 2.113-.35 3-2.587 3C29.408 32 29 30.892 29 29c0-2.157.295-3 2.587-3m-.075 1c-1.59 0-1.512.61-1.512 2 0 1.292.172 2.064 1.537 2.064C32.983 31.064 33 30.281 33 29c0-1.344-.03-2-1.488-2M28 26v6h-1.5c-3.442-4.995-1.516-2.159-3.442-4.995H23V32h-1v-6h1.5c1.568 2.245 0 0 3.471 4.995H27V26zm11 2.889L41 32h-1.402c-.532-.856-1.033-1.76-1.57-2.611H38c-.497.886-1.034 1.748-1.57 2.611H35l2-3.083L35.168 26h1.43c.493.78.962 1.574 1.374 2.389H38c.508-.755.942-1.616 1.43-2.389h1.43z"/><path fill="#82B729" fill-rule="evenodd" d="M49 24a1 1 0 1 1-.001 2.001A1 1 0 0 1 49 24m-4 0a1 1 0 1 1-.001 2.001A1 1 0 0 1 45 24m4 8a1 1 0 1 1-.001 2.001A1 1 0 0 1 49 32m-4 0a1 1 0 1 1-.001 2.001A1 1 0 0 1 45 32m6-6a1 1 0 1 1-.001 2.001A1 1 0 0 1 51 26m0 4a1 1 0 1 1-.001 2.001A1 1 0 0 1 51 30m-8-4a1 1 0 1 1-.001 2.001A1 1 0 0 1 43 26m0 4a1 1 0 1 1-.001 2.001A1 1 0 0 1 43 30" clip-rule="evenodd"/><path fill="#82B729" d="m45.026 24.696 2.003 1.973 2.002-1.973.286.32L47 27.279l-2.26-2.264zm6.288 2.36L49.426 29l1.888 1.944-.286.32L48.796 29l2.232-2.234zm-6.574 5.881L47 30.615l2.346 2.322-.315.319-2.002-2.031-1.974 2.03zm-1.894-1.993L44.934 29l-2.088-1.944.286-.32L45.564 29l-2.432 2.263z"/><path fill="#2D3063" fill-rule="evenodd" d="M47 26c.564 0 1 .436 1 1s-.436 1-1 1-1-.436-1-1 .462-1 1-1m2 2c.564 0 1 .436 1 1s-.436 1-1 1-1-.436-1-1 .436-1 1-1m-4 0c.564 0 1 .436 1 1s-.436 1-1 1-1-.436-1-1 .436-1 1-1m2 2c.564 0 1 .436 1 1s-.436 1-1 1-1-.436-1-1 .462-1 1-1" clip-rule="evenodd"/></svg>