<svg xmlns="http://www.w3.org/2000/svg" width="56" height="56"><path fill="#F0F3FA" d="M0 0h56v56H0z"/><path fill="#517FDC" d="M42.67 19.2a3 3 0 0 1 .02 1.63 2.48 2.48 0 0 1-1.73 1.72l-.39.1c-1.23.24-2.66-.36-3.68-.96-2.37-1.39-4.06-3.6-6.4-5.06a12.35 12.35 0 0 0-6.43-1.95c-.68 0-1.33.02-1.96.09a11.48 11.48 0 0 0-7.56 3.9c-.07.06-.13.14-.2.23.08-.2.17-.38.28-.55.45-.7.96-1.39 1.53-2C19.23 13 23.89 11.11 28.4 11a15.6 15.6 0 0 1 8.97 2.55c2.12 1.28 4.52 3.27 5.3 5.64Z"/><path fill="#1E4C82" d="M32.4 18.03a10.04 10.04 0 0 0-5.13-1.56c-1.53-.07-3.17.07-4.65.49a11.9 11.9 0 0 0-4.98 2.78c-.86.74-1.56 1.73-2.54 2.33-.3.19-.64.28-.99.1-.4-.2-.5-.62-.47-1.02.02-.36.1-.72.23-1.08.9-2.51 3.42-4.11 5.95-4.85a13.3 13.3 0 0 1 4.24-.54c2.74.02 5.4 1.07 7.57 2.72.25.2.56.4.78.63Z"/><path fill="#81A7DF" d="m42.5 18.46.15.13c.36.56.66 1.14.9 1.72.37.88.54 1.81.4 2.75a3.16 3.16 0 0 1-2.62 2.69 3.2 3.2 0 0 1-2.67-.7 32.3 32.3 0 0 1-3.62-4.6c1.13.86 2.37 1.67 3.76 2.06.7.19 1.46.26 2.16.04a2.48 2.48 0 0 0 1.83-2.49 3 3 0 0 0-.12-.87c-.1-.3-.15-.54-.18-.73ZM30.78 38.17c-.9.74-2.04 1.28-3.12 1.7-3.3 1.27-8.12.96-10.96-1.13a11.35 11.35 0 0 1-4.38-10.59c.04-.76.2-1.59.79-2.13l.14-.1c.1-.03.22-.13.33-.07.43.24.59.63.72 1.09.33 1.11.57 2.25.93 3.35A11.48 11.48 0 0 0 21 37.13c2.9 1.46 6.4 2.36 9.47 1.1.1-.03.2-.04.31-.06"/><path fill="#517FDC" d="M38.05 41.2c.48-.51 1.12-.94 1.62-1.44 1.4-1.44 2.28-3.5 1.67-5.5-.29-.93-1-1.51-1.96-1.67a3.16 3.16 0 0 0-2.22.49c-1.23.77-2.26 1.84-3.37 2.77l-.38.28c-.14.1-.28.23-.4.37a2.4 2.4 0 0 1 .4-.52l.01-.03c1.56-1.82 2.73-4.04 4.56-5.65a3.26 3.26 0 0 1 3.21-.6c1.59.5 2.42 2.46 2.26 4-.28 2.62-1.78 4.56-3.62 6.28-.47.44-1.03.76-1.54 1.14-.05.04-.19.06-.24.08"/><path fill="#1E4C82" d="M29.22 44.19a17.7 17.7 0 0 1-9.76-2.69c-2.03-1.28-4-3.23-5.22-5.29 3.58 3.72 8.35 5.6 13.42 3.66 2.95-1.14 5.3-3.19 7.6-5.27.62-.57 1.2-1.09 1.9-1.52.71-.45 1.45-.6 2.22-.49.96.16 1.67.74 1.96 1.67a4.88 4.88 0 0 1-.21 3.33 7.2 7.2 0 0 1-1.46 2.17 14.55 14.55 0 0 1-10.45 4.43"/></svg>