<svg xmlns="http://www.w3.org/2000/svg" width="56" height="56"><path fill="#F0F3FA" d="M0 0h56v56H0z"/><path fill="#878787" d="M52 29.81C52 28 51.98 26 50 26c-1.5 0-2.94.76-4 1.92V26h-2v7h2s-.04-1.06 0-1.82c.06-1.16.58-3.18 2.28-3.18.92.02 1.64.48 1.72 1.79V33h2zM40.42 31.9c-1.3.02-2.36-.65-2.42-1.9h5v-.8c-.1-2.14-1.23-3.2-3.42-3.2A3.51 3.51 0 0 0 36 29.8c.1 2.17 1.94 3.32 4 3.2a6.4 6.4 0 0 0 3-1.15v-1a6.06 6.06 0 0 1-2.58 1.04ZM38 29c0-.96.57-1.95 1.63-2 .8 0 1.33.67 1.37 1.43V29zm-2-3h-2v-2l-2 .46s.05 4.32 0 6.49c-.02 1.11.3 2.13 1.64 2.05a4.8 4.8 0 0 0 1.62-.36l.2-1.25c-.2.08-.42.15-.59.16-.82.08-.89-1.23-.87-2.03V27.5h1.73c.05-.46.16-1 .27-1.5m-5 1.46v-1.2a9.4 9.4 0 0 0-2.38-.25c-1.06.07-2.33.49-2.33 1.73 0 1.7 2.63 1.77 2.71 3.36-.03.55-.82.67-1.27.67a3.8 3.8 0 0 1-1.73-.5l.15 1.46c.7.18 1.53.27 2.48.27 1 0 2.37-.5 2.37-1.79 0-.71-.67-1.32-1.23-1.76l-.38-.28c-.41-.3-1.42-.8-1.39-1.37.02-.37.36-.58.94-.6a7.4 7.4 0 0 1 2.06.26m-5.16.37L26 26a4.6 4.6 0 0 0-3 1.35V26h-2v7h2v-3.61c.18-1 1.36-1.62 2.26-1.62.2 0 .4.01.58.06M17.37 26c-1.08.01-2.12.15-3.23.36L14 27.43a16 16 0 0 1 1.98-.5c1.05-.2 2.02.32 2.02.86 0 .32-.38.65-1.13.84-1.68.42-3.28.83-3.64 1.56-.72 1.43.37 2.36 1.83 2.68.94.21 1.87.16 2.8-.13H20v-5.27c0-1.04-1.12-1.49-2.63-1.47m.63 5.67c-.64.24-1.3.38-2.05.2-.8-.2-1-1.22-.17-1.67.72-.4 1.67-.63 2.22-.98zM13 23h-2.83c-1.37 1.08-3.04 2.77-3.67 4.66V23H4v10h2.5s-.01-3.21 0-4.82c.83.96 1.44 1.73 1.9 2.42.47.72.86 1.52 1.34 2.4h3l-4.03-5.29c.13-1.25 2.84-4.08 4.29-4.71"/></svg>