<svg xmlns="http://www.w3.org/2000/svg" width="56" height="56"><path fill="#F0F3FA" d="M0 0h56v56H0z"/><path fill="#FE7F30" d="M22 20.52A2.52 2.52 0 0 1 24.52 18H28v3.48A2.52 2.52 0 0 1 25.48 24H22z"/><path fill="#FE7F30" d="M21.5 18a2.5 2.5 0 0 0-2.5 2.52V24h2.5v-3.48A2.5 2.5 0 0 1 24 18z"/><path fill="#FE7F30" d="M18.5 18a2.5 2.5 0 0 0-2.5 2.52V24h2.5v-3.48A2.5 2.5 0 0 1 21 18zm-4.44 6A4.12 4.12 0 0 0 10 28.17V34h2.52v-5.83c0-2.1 1.51-3.84 3.48-4.13V24z"/><path fill="#FE7F30" d="M11.06 24A4.12 4.12 0 0 0 7 28.17V34h2.52v-5.83c0-2.1 1.51-3.84 3.48-4.13V24z"/><path fill="#FE7F30" d="M8.06 24A4.12 4.12 0 0 0 4 28.17V34h2.52v-5.83c0-2.1 1.51-3.84 3.48-4.13V24zM45 32.86l.78-.52c.14.48.42.66.73.66.35 0 .49-.18.49-.62 0-.27-.16-.61-.63-1.02-.56-.47-1.37-1.08-1.37-1.89 0-.87.74-1.47 1.61-1.47.65 0 1.22.4 1.39 1.1l-.82.46c-.1-.48-.32-.56-.65-.56s-.55.07-.55.42c0 .5.63.85.97 1.15.36.3.63.6.8.89.16.3.25.6.25.94 0 .83-.62 1.6-1.49 1.6-.68 0-1.17-.36-1.51-1.14m-7-2.6h1c0-.38 0-1.26-.48-1.26-.4 0-.52.33-.52 1.26M40 32c-.08 1.26-.65 2-1.5 2-1.02 0-1.5-1.01-1.5-3.1 0-1.91.54-2.9 1.57-2.9.94 0 1.43.8 1.43 2.38V31h-2v.27c0 .42 0 1.73.51 1.73.35 0 .61-.3.65-1zm10-1.74h1c0-.38 0-1.26-.48-1.26-.4 0-.52.33-.52 1.26M52 32c-.08 1.26-.65 2-1.5 2-1.02 0-1.5-1.01-1.5-3.1 0-1.91.54-2.9 1.57-2.9.94 0 1.43.8 1.43 2.38V31h-2v.27c0 .42 0 1.73.51 1.73.35 0 .61-.3.65-1zm-23.5 1.97-.46.03c-.9 0-1.04-.65-1.04-1.44V29h-.5v-1h.5v-1h1v1h.5v1H28v3.33c0 .4.04.72.5.72zM23 34v-6h1v.86c.3-.6.56-.86 1-.86.7 0 1 .51 1 1.7V34h-1v-4.05c0-.7-.1-.98-.46-.98-.37 0-.54.36-.54.97V34zm10 0v-6h1v.86c.3-.6.56-.86 1-.86.7 0 1 .51 1 1.7V34h-1v-4.05c0-.7-.1-.98-.46-.98-.37 0-.54.36-.54.97V34zm8 0v-6h1v.86c.3-.6.56-.86 1-.86.7 0 1 .51 1 1.7V34h-1v-4.05c0-.7-.1-.98-.46-.98-.37 0-.54.36-.54.97V34zm-27-1.86 1.04-.34c.14.87.44 1.2.96 1.2.53 0 .85-.43.85-.93 0-.6-.42-1.06-.83-1.47l-.57-.51c-.68-.62-1.45-1.3-1.45-2.28 0-1.08.96-1.81 2.02-1.81s1.73.6 1.83 1.64l-1.05.35c-.04-.7-.31-.99-.8-.99-.46 0-.76.3-.76.73 0 .56.4.97.78 1.33l.34.3c.8.7 1.64 1.47 1.64 2.6 0 1.2-.84 2.04-2.04 2.04-1.08 0-1.77-.65-1.96-1.86M30.16 34c-.66 0-1.16-.6-1.16-1.75 0-.91.39-1.6 1.32-1.76.62-.11.68-.15.68-.54 0-.56-.03-.95-.4-.95-.42 0-.65.42-.72.78l-.77-.18c.14-.78.59-1.6 1.48-1.6 1.07 0 1.41 1.1 1.41 2v4h-1v-.5s-.28.5-.84.5m.22-1c.5 0 .62-.56.62-1.2v-.68c-.1.13-.35.23-.57.28-.42.1-.64.4-.64.83 0 .5.25.77.59.77m-10.22 1c-.66 0-1.16-.6-1.16-1.75 0-.91.39-1.6 1.32-1.76.62-.11.68-.15.68-.54 0-.56-.03-.95-.4-.95-.42 0-.65.42-.72.78l-.77-.18c.14-.78.59-1.6 1.48-1.6 1.07 0 1.41 1.1 1.41 2v4h-1v-.5s-.28.5-.84.5m.22-1c.5 0 .62-.56.62-1.2v-.68c-.1.13-.35.23-.57.28-.42.1-.64.4-.64.83 0 .5.25.77.59.77"/></svg>