<svg xmlns="http://www.w3.org/2000/svg" width="56" height="56" fill="none"><path fill="#0037CE" d="M0 0h56v56H0z"/><path fill="#F0F3FA" d="M25 28.5h-2.5c-.325-.713-1.433-.863-2.028-.863-.673 0-1.972.31-1.972 1.363 0 1.173 1.5 1.331 1.972 1.331.6 0 1.588-.29 2.028-.831H25c-.362 2.04-3.247 2.5-4.584 2.5C18.832 32 16 31.488 16 28.939 16 26.317 18.948 26 20.565 26c.566 0 1.45.133 1.916.53h.019V26H25zm1-2.5h3.586v1.5H29v1.95c0 .743.249 1.05 1 1.05.746 0 1.037-.294 1-1.05V27.5h-.586V26H34v1.5h-.5v1.97c0 2.007-1.698 2.53-3.483 2.53-1.681 0-3.517-.47-3.517-2.404V27.5H26zm9 1.5V26h5.026c1.112 0 2.571.17 2.571 1.575 0 .883-.79 1.322-1.597 1.425.5 0 1.367-.01 1.367.66v.84H43V32h-3v-1.532c0-.532-.147-.851-.703-.851H38v.883h1V32h-4v-1.5h.5v-3zm3 0v1h1.393c.343 0 .883-.06.883-.5 0-.456-.506-.5-.883-.5zm14 0h-.618L49 29.822v.678h1V32h-4v-1.5h1v-.72l-2.382-2.28H44V26h3.5v1.5H47l1 1 1-1h-.5V26H52zM5.387 24.647c.246-.693.518-1.081.518-1.081l3.832 1.319L17 21q-.584.653-1.048 1.28L9.355 26z"/><path fill="#F0F3FA" d="M5.103 25.735A7 7 0 0 0 5 26.766L9.107 28l5.446-3.395c.073-.157.6-1.135.598-1.132l-5.986 3.523z"/><path fill="#F0F3FA" d="m14 26-4.664 2.753L5 28c.036.303.092.672.172 1l4.202.757L13.684 27c.074-.381.178-.59.316-1"/><path fill="#F0F3FA" d="m13.686 28-3.835 2.687-4.262-.936q.17.458.411.938l4.099.983L13.685 29a6.4 6.4 0 0 1 .001-1"/><path fill="#F0F3FA" d="M13.734 30c-2.93 2.527-1.972 1.672-2.93 2.527l-4.434-.933q.28.45.63.916l4.376.891S13.047 31.776 14 31a8 8 0 0 1-.266-1"/><path fill="#F0F3FA" d="M14.445 31.729c-.042.043-1.327 1.392-2.077 2.471l-4.577-.812q.345.393.745.794l4.86.818S14.5 33.5 15 32.676c0 0-.247-.333-.555-.947"/></svg>