<svg xmlns="http://www.w3.org/2000/svg" width="56" height="56"><path fill="url(#a)" d="M0 0h56v56H0z"/><path fill="#D92525" d="M20.137 15a4.1 4.1 0 0 0-2.969 1.28l-5.941 6.163c-1.637 1.697-1.637 4.46.006 6.163L28.002 46 44.77 28.606c1.642-1.701 1.639-4.462-.002-6.163l-5.937-6.16a4.1 4.1 0 0 0-2.968-1.281 4.12 4.12 0 0 0-2.979 1.286l-4.881 5.066-4.89-5.073A4.1 4.1 0 0 0 20.136 15z"/><defs><linearGradient id="a" x1="10.418" x2="68.147" y1="9.712" y2="76.017" gradientUnits="userSpaceOnUse"><stop stop-color="#1A1E21"/><stop offset="1" stop-color="#06060A"/></linearGradient></defs></svg>