<svg xmlns="http://www.w3.org/2000/svg" width="56" height="56"><path fill="#046EAB" d="M0 0h56v56H0z"/><path fill="#fff" d="m12.89 27.14.55-3.7a8.6 8.6 0 0 0-2.37-.44c-1.1 0-4.78.35-5.86 4.44S7.5 32.98 9.02 33c1.22.02 2.45-.24 2.92-.37l.62-3.68c-.3.3-1.17.9-2.08.9-1.14 0-1.95-.77-1.7-2.02.24-1.25 1.62-1.8 2.29-1.74a2.8 2.8 0 0 1 1.82 1.05M17.35 23l-4.89 10h3.75l.76-2h2.31l.19 2h3.78l-1.94-10zm1.75 6h-1.37l1.1-2.92zm20.11 4 4.88-10h3.96L50 33h-3.78l-.19-2h-2.31l-.76 2zm5.26-4h1.38l-.27-2.92-1.1 2.92Zm-15.35-6h-3.66l-1.54 10h3.65zm3.25 5.5h4.28l2.32 4.5h-4.29z"/><path fill="#F39200" d="M36.61 28.5h-4.28L27.7 33h4.28zm4.96-5.5h-4.28l-4.63 4.5h4.28z"/><path fill="#fff" d="M30.35 23h4.28l2.32 4.5h-4.29z"/></svg>