<svg xmlns="http://www.w3.org/2000/svg" width="56" height="56"><path fill="url(#a)" d="M0 0h56v56H0z"/><path fill="#61B510" d="M41 23h-5.78c.498.183.75.755.78 1.253v3.508c-.05.507-.336 1.002-.78 1.238h3.622c-.593-.144-.841-.82-.842-1.365v-1.35c.769 0 1.844.147 2 1.005v-2.744c-.308.77-1.2.951-2 .952V24c.812 0 2.703-.179 3 .845zm1 0v2.272c.121-.936 1.136-1.349 2-1.272v3.837c-.049.531-.36 1.023-.85 1.162h3.75c-.631-.113-.9-.574-.9-1.162V24c.87 0 1.846.277 2 1.25V23zm-10.437 5.691q-.142.132-.314.214l-.2.094h4.17a.7.7 0 0 1-.195-.075 2.1 2.1 0 0 1-.572-.484 2.7 2.7 0 0 1-.288-.434 4 4 0 0 1-.225-.51l-.303-.915-.41-1.234L32.438 23h-3.461q.165.043.314.124.133.08.24.195a.72.72 0 0 1 .17.649 2 2 0 0 1-.097.322q-.147.39-.225.618-.023.07-.05.132l-.625 1.642-.155.42a12 12 0 0 1-.233.577q-.129.3-.273.563-.105.21-.27.374a4 4 0 0 1-.468.33 1 1 0 0 0-.084.053h3.114a.95.95 0 0 1-.558-.353 1.1 1.1 0 0 1-.21-.637 1 1 0 0 1 .034-.21 3.6 3.6 0 0 1 .18-.54 4 4 0 0 0 .074-.195h1.75l.058.169q.037.108.078.221a6 6 0 0 1 .122.375.76.76 0 0 1-.037.51 1.2 1.2 0 0 1-.262.353zm-1.517-2.34.62-1.948.65 1.949h-1.27z"/><path fill="#61B510" d="M25.508 26.007c.59-.275 1.015-.951.956-1.605-.063-1.091-1.256-1.403-2.174-1.402h-4.057c.722.185.766.937.767 1.552v3.074c-.003.54-.24 1.135-.752 1.373h3.601c-.804-.298-.863-1.135-.849-1.883v-.824c.184 0 .33 0 .514-.002.924 2.195 1.246 2.71 2.166 2.71h2.023c-.692 0-1.578-1.65-2.195-2.992zM23 25.475V24h.38c.523-.03 1.119.145 1.119.754 0 .61-.666.746-1.153.728-.177-.005-.183-.007-.346-.007"/><path fill="#F7760D" d="M21.135 16.506a1.59 1.59 0 0 0-.912 1.35h-.002a1.55 1.55 0 0 0-1.476-.178 1.57 1.57 0 0 0 .463.725c.166.147.362.257.574.322-.235.367-.545.68-.91.918a1.1 1.1 0 0 1-.527.176 1.18 1.18 0 0 1-1.186-.62 1.18 1.18 0 0 1-1.5.519 3.08 3.08 0 0 1-1.402-1.818l.027-.002a1.55 1.55 0 0 0 1.168-.76q.04-.067.073-.139a1.55 1.55 0 0 0-1.516-.194c.016-.552-.395-1.384-.9-1.686a2 2 0 0 0-.198-.1L12.866 15l-.03.04q-.06.077-.11.162c-.297.51-.215 1.427.063 1.904a1.55 1.55 0 0 0-1.236.907 1.55 1.55 0 0 0 1.517.184l.025-.011a3.1 3.1 0 0 1-.17 1.9q-.002-.003-.003-.008l-.014.046a3 3 0 0 1-.203.385 1.186 1.186 0 0 1-1.569.265 1.21 1.21 0 0 1-.754 1.112 1.2 1.2 0 0 1-.33.078 3.05 3.05 0 0 1-1.404-.37 1.57 1.57 0 0 0 .437-1.218 3 3 0 0 0-.029-.263c-.539.068-.984.553-1.208.813h-.002c-.297-.26-.844-.725-1.444-.679a1.6 1.6 0 0 0-.4.12 20.2 20.2 0 0 1 3.123 2.93c.538.622 1.457 1.876 1.458 1.875.24.225.558.345.885.335a.09.09 0 0 0 .075-.083c.004-.033-.052-.052-.081-.065a.7.7 0 0 1-.445-.499c-.174-.547 1.449-1.534 3.82-2.14s4.275-.534 4.385.03a.72.72 0 0 1-.152.654c-.02.025-.06.07-.039.097a.09.09 0 0 0 .105.038c.292-.15.513-.41.616-.722 0 0 .255-1.554.43-2.36a20 20 0 0 1 1.347-4.066 1.5 1.5 0 0 0-.394.115"/><path fill="#61B510" d="M13 23.853c1.28-.552 2.387-.85 3.767-1.036 0 0 2.692.267 2.692 3.454s-2.248 5.006-5.307 5.006-4.673-1.36-4.673-2.809 1.033-1.68 1.514-1.68c.48 0 1.348.438 1.348 1.573 0 0-.865-.214-.865.54 0 .755 1.022 1.224 2.424 1.224 1.4 0 3.38-.619 3.38-3.378 0-2.944-1.341-3.075-2.28-3.075v5.05a.47.47 0 0 0 .145.323.47.47 0 0 0 .336.12s-.36.403-1.581.403-1.56-.403-1.56-.403.66.07.66-.444z"/><path fill="#fff" d="M43.763 33.098c-.341-.078-.811-.3-.763-.75.052-.489.667-.644 1.071-.636.879.012 1.326.599 1.929 1.158v-2.114s-.154.404-.81.404c-.582-.015-1.018-.213-1.616-.195-1.105-.002-2.62.632-2.574 1.905-.025.506.385 1.007.851 1.232.908.437 1.957.518 2.804.955.18.089.42.27.347.501-.078.358-.597.43-.93.442-.36.018-.719-.096-1.06-.21-.733-.265-1.574-.652-2.012-1.31V37c.386-.218.877-.287 1.316-.295.67-.01 1.312.264 1.988.264 1.126-.002 2.76-.575 2.696-1.913-.184-1.584-2.008-1.676-3.237-1.958m-10.753-.816q0-.142.015-.307.015-.164.06-.323.042-.154.121-.292a.8.8 0 0 1 .203-.233.63.63 0 0 1 .295-.127h-2.707c.15.008.292.063.41.157a.96.96 0 0 1 .25.334q.095.206.125.431.033.216.034.436v2.685L29.278 31H26.21a.64.64 0 0 1 .405.153q.158.143.236.342.084.21.111.435a3 3 0 0 1 .03.428q0 .09.003.266v2.843a7 7 0 0 1-.033.67q-.015.149-.06.29a1 1 0 0 1-.124.258.7.7 0 0 1-.28.237q-.045.018-.093.033a1 1 0 0 0-.085.03.2.2 0 0 1-.044.015h2.648a3 3 0 0 1-.188-.108 2 2 0 0 1-.155-.113 1 1 0 0 1-.129-.124 1.1 1.1 0 0 1-.221-.495 3 3 0 0 1-.052-.547V32.97L30.676 37h3.028a.63.63 0 0 1-.295-.127.8.8 0 0 1-.203-.233 1.3 1.3 0 0 1-.122-.292 2 2 0 0 1-.059-.323 4 4 0 0 1-.014-.307zm-8.01.031c.02-.514.181-1.133.716-1.313h-3.527c.573.163.832.918.811 1.438v3.028c0 .48-.051.967-.423 1.313l-.059.046c-.864-.367-1.765-1.273-2.431-2.358-.393-.64-.837-1.486-1.206-2.225.347-.453.68-.874.947-1.196A3.8 3.8 0 0 1 21.727 30h-2.878s.264.394-.117.874L17 33.278v-2.015c-.623.28-1.305.482-2 .533v3.6c-.027.6-.36 1.51-1.1 1.602h4.018c-.805-.168-.918-1.342-.918-1.975l.457-.883c.146.256.3.522.461.786.764 1.26 1.373 2.074 2.34 2.074l5.443-.002c-.505-.21-.695-.743-.701-1.276v-3.41zm13 2.597v.834c-.089.24-.525.397-.782.379-.53 0-.978-.436-1.082-.96v.004a5.14 5.14 0 0 1-.018-2.29c.11-.51.676-1.019 1.23-1.028.946-.043 2.305.591 2.652 1.534v-2.65c-.087.264-.18.436-.45.553-.245.083-.495.067-.748.027-.45-.066-.867-.265-1.323-.311a4 4 0 0 0-.439-.022 4 4 0 0 0-.885.099 3.1 3.1 0 0 0-.792.3 2.7 2.7 0 0 0-.662.503 2.6 2.6 0 0 0-.396.54l-.004.007a4.26 4.26 0 0 0-.271 2.48 3.2 3.2 0 0 0 .275.727 2.49 2.49 0 0 0 1.486 1.219c.36.109.735.157 1.11.143q.256-.009.505-.073.257-.066.52-.146.26-.08.526-.154.256-.071.52-.084.254-.01.5.059c.175.052.394.277.528.4v-1.736c.002-.506.097-1.102.642-1.264h-3.294c.497.047.673.445.652.91"/><defs><linearGradient id="a" x1="10.418" x2="68.147" y1="9.712" y2="76.017" gradientUnits="userSpaceOnUse"><stop stop-color="#1A1E21"/><stop offset="1" stop-color="#06060A"/></linearGradient></defs></svg>