<svg xmlns="http://www.w3.org/2000/svg" width="56" height="56"><path fill="#006491" d="M0 0h56v56H0z"/><path fill="#fff" d="m22.294 22.299 9.747-9.704c.727-.724 1.552-.86 2.436 0l9.059 9.019a1.55 1.55 0 0 1 0 2.21l-19.71 19.603c-.707.704-1.63.822-2.455 0l-8.862-8.823c-.708-.704-.649-1.82 0-2.465z"/><path fill="#006491" d="M22.451 23.296 32.65 33.45l-9.275 9.233c-.57.568-1.16.587-1.749 0l-8.489-8.45c-.53-.529-.49-1.116 0-1.605z"/><path fill="#E31837" d="M33.298 32.843 23.1 22.69l9.274-9.234c.57-.567 1.16-.587 1.75 0l8.488 8.451c.53.529.491 1.116 0 1.605z"/><path fill="#fff" d="M33.5 25a2.5 2.5 0 1 0 0-5 2.5 2.5 0 0 0 0 5m-7 11a2.5 2.5 0 1 0 0-5 2.5 2.5 0 0 0 0 5m-7.985.008a2.51 2.51 0 0 0 2.515-2.504A2.51 2.51 0 0 0 18.515 31 2.51 2.51 0 0 0 16 33.504a2.51 2.51 0 0 0 2.515 2.504"/></svg>