<svg xmlns="http://www.w3.org/2000/svg" width="56" height="56"><path fill="#A0D3D6" d="M0 0h56v56H0z"/><path fill="#32404D" d="M28 46c1.23-.75 3.62-2.86 3.62-5.47 0-3.31.98-7.63 6.12-8.51.05.65-.7 2.38-3.74 3.66 1.97.43 6-.17 6-5.68-3.34-.26-10 1.13-10 9-.3-.16-1-.38-1-1 0-.78 1.29-3.73 3.55-7.56S37.28 14.29 35.84 10c-1.35 6.05-4.8 19.04-7.84 22.69-3.04-3.65-6.49-16.64-7.84-22.69-1.44 4.3 1.03 16.61 3.3 20.44C25.7 34.27 27 37.22 27 37.99c0 .63-.7.85-1 1.01 0-7.87-6.66-9.26-10-9 0 5.5 4.03 6.2 6 5.77-3.04-1.28-3.79-3.1-3.74-3.75 5.14.88 6.12 5.2 6.12 8.51 0 2.61 2.39 4.72 3.62 5.47"/></svg>