<svg xmlns="http://www.w3.org/2000/svg" width="56" height="56"><path fill="#FCE24C" d="M0 0h56v56H0z"/><path fill="url(#a)" d="M44.31 14.674c-4.732-2.284-9.974-3.514-15.238-3.66-5.297-.146-10.626.808-15.511 2.837q-.882.367-1.742.778c-.089.043-.129.046-.167.139a28 28 0 0 0-.264.65A34.2 34.2 0 0 0 9 28.084c.007 2.672.323 5.343.948 7.944a34 34 0 0 0 1.73 5.274l.275.132q.863.41 1.748.772c4.897 2.01 10.233 2.943 15.534 2.773a38.2 38.2 0 0 0 7.94-1.091 37 37 0 0 0 5.535-1.84 34 34 0 0 0 1.258-.56l.206-.099c.125-.06.146-.083.198-.21a34.45 34.45 0 0 0 2.542-15.622 34.4 34.4 0 0 0-2.604-10.884z"/><path fill="#FCE24C" d="M42.99 38.846a32.42 32.42 0 0 0 .529-20.075 33 33 0 0 0-.905-2.623l-.219-.099a33 33 0 0 0-.957-.408 35.2 35.2 0 0 0-7.793-2.164 36.04 36.04 0 0 0-16.199 1.145 34 34 0 0 0-3.994 1.512c-.098.044-.096.09-.133.185a32 32 0 0 0-.525 1.459 32.3 32.3 0 0 0-1.654 9.979c-.02 2.708.297 5.417.95 8.048.328 1.315.738 2.61 1.227 3.875.037.096.035.142.132.185l.22.1a35 35 0 0 0 1.41.587q.94.368 1.902.679a36 36 0 0 0 16.167 1.366 35.6 35.6 0 0 0 6.46-1.552c1.019-.35 1.99-.792 2.99-1.186.081-.032.161-.04.202-.119l.19-.368c.087-.167.024-.342 0-.526M13.11 15.933c4.866-2.24 10.269-3.321 15.636-3.212a36.4 36.4 0 0 1 8.022 1.06 35 35 0 0 1 5.614 1.909q.215.095.428.192c.131.06.167.275.217.406A32.8 32.8 0 0 1 44.77 33.3a32.4 32.4 0 0 1-1.505 5.786q-.097.26-.2.517c-.058.15-.112.452-.264.521a35 35 0 0 1-7.567 2.442 36.46 36.46 0 0 1-16.16-.392 34.4 34.4 0 0 1-5.613-1.947c-.13-.058-.333-.102-.386-.236a31 31 0 0 1-.525-1.428 32.6 32.6 0 0 1-1.64-7.86 32.8 32.8 0 0 1 2.2-14.769z"/><path fill="#FCE24C" d="M15.79 30.47c1.362-.442 2.748-.654 4.173-.785q.463-.045.926-.092c.24-.023.399.039.433-.25q.125-1.055.386-2.088c.171-.67.387-1.33.65-1.971.123-.31.268-.611.411-.912.11-.23.295-.564-.034-.72-.132-.062-.309-.071-.452-.1l-.513-.103q-.555-.11-1.112-.224c-.149-.031-.238-.047-.3-.195-.043-.1-.1-.257.014-.31.31-.145.658-.236.983-.342a41 41 0 0 1 3.654-1.012c.223-.05.305-.14.386-.348.136-.352.259-.714.06-1.072-.414-.746-1.674-.697-2.393-.642-.508.039-1.01.12-1.506.23q-.368.08-.731.18c-.059.015-.588.138-.59.156.007-.059.232-.134.281-.166.23-.125.489-.215.713-.338.29-.16-.374-.865-.476-.97.192.075.38.189.538.32.086.07.169.147.233.238.054.076.08.186.193.188.18.003.42-.122.596-.166q.4-.101.811-.148c.145-.016.52.043.527-.17.005-.14-.05-.325-.082-.463a2.6 2.6 0 0 0-.288-.7c-.025-.043-.325-.48-.313-.487.031-.017.258.175.29.2q.195.148.364.324c.21.217.386.464.518.734.063.127.096.446.244.503.098.037.259.002.364.007.18.01.36.029.536.067.147.032.286.075.417.146.109.06.224.015.25-.108.064-.32.199-.612.223-.947a2.9 2.9 0 0 0-.107-.991 3.5 3.5 0 0 0-.158-.45c-.011-.025-.176-.34-.144-.344.048-.008.23.209.266.247q.167.174.3.374c.178.268.309.564.392.872.193.716.146 1.495-.012 2.213-.074.333-.163.68-.302.994-.025.057-.092.156-.07.222.017.055.319-.043.362-.051a48 48 0 0 1 1.82-.322c.079-.013.41-.118.474-.055.078.078-1.357 1.042-1.494 1.12-.243.14-.65.004-.916-.026a12 12 0 0 1-.468-.06c-.096.127-.122.286-.164.434-.184.66-.37 1.317-.499 1.991-.12.638-.236 1.32-.189 1.97.044.6.3 1.152.825 1.485.535.34 1.207.402 1.828.4 1.433-.005 2.852-.056 4.283.067a18 18 0 0 1 1.668.214q.415.075.82.18c.149.038.329.14.48.142.172.001.17-.358.183-.47a3.3 3.3 0 0 0 .002-.78 4.6 4.6 0 0 0-.476-1.555c-.036-.072-.368-.58-.336-.62.024-.029.27.178.3.202.443.35.86.73 1.211 1.171.337.423.616.895.769 1.413.033.114.122.275 0 .334-.12.058-.245.106-.37.154q-.435.165-.862.35c.88.872 1.39 1.94 1.737 3.107.167.564.288 1.146.51 1.692.101.251.23.508.42.706.205.21.471.368.724.517q.84.5 1.71.946c.227.117.3.3.446.493.199.265.372.552.55.831q.524.828 1.024 1.672c.053.089.093.19.154.273.057.076.137.15.158.245.028.121-.16.463-.266.528-.187-.242-.328-.525-.497-.78q-.286-.432-.601-.846a23 23 0 0 0-1.283-1.535 1.14 1.14 0 0 0-.624-.386c-.335-.09-.666-.202-.997-.306a73 73 0 0 1-2.056-.672c-.65-.225-1.31-.45-1.933-.742-.593-.277-1.105-.675-1.575-1.12a13 13 0 0 1-.654-.667 7 7 0 0 1-.323-.376c-.121-.094-.286-.071-.43-.074-.707-.012-1.409-.053-2.116-.008-1.417.09-2.828.431-4.252.38-1.418-.053-2.72-.505-4.058-.929-.668-.211-1.342-.41-2.032-.537a10 10 0 0 0-1.01-.134c-.12-.01-.897-.109-.934.009-.031.098.182.382.23.466q.246.439.534.853a8.4 8.4 0 0 0 1.26 1.457c.467.421 1.016.788 1.627.97.235.072.58.11.708.342.143.259.302.526.414.798-.112-.007-.217-.094-.308-.149-.153-.091-.312-.175-.465-.266a25 25 0 0 1-.92-.575 23 23 0 0 1-1.813-1.309 22 22 0 0 1-1.662-1.473 16 16 0 0 1-.73-.77 9 9 0 0 1-.365-.431c-.075-.138-.046-.302-.102-.445"/><defs><radialGradient id="a" cx="0" cy="0" r="1" gradientTransform="matrix(-19.0251 0 0 -21.2782 28.026 27.98)" gradientUnits="userSpaceOnUse"><stop stop-color="#0D8516"/><stop offset="1" stop-color="#19512A"/></radialGradient></defs></svg>