<svg xmlns="http://www.w3.org/2000/svg" width="56" height="56" fill="none"><path fill="#F0F3FA" d="M0 0h56v56H0z"/><path fill="#E60E0F" fill-rule="evenodd" d="M28.643 17h3.355c1.328 0 2.22 1.044 1.955 2.342l-.676 3.316C33.012 23.933 31.708 25 30.357 25h-3.355c-1.328 0-2.22-1.044-1.955-2.342l.676-3.316c.265-1.298 1.593-2.342 2.92-2.342" clip-rule="evenodd"/><path fill="#FEB800" fill-rule="evenodd" d="M18.984 16.003h-4.237s-2.824-.025-3.58 2.748c-.756 2.798-1.109 4.123-1.109 4.123s-.057.296-.058.705c-.002.922.282 2.421 2.15 2.421h4.21s5.818 1.145 4.356 6.564-1.235 4.563-1.235 4.563-.473 1.283-.481 2.65c-.009 1.557.587 3.223 3.178 3.223h6.105s3.806-.378 4.739-4.462c.907-4.083 1.26-5.217 1.26-5.217S35.55 27 42.256 27h1.033s2.294.176 2.849-2.067c.554-2.243.831-3.916.831-3.916s.043-.19.031-.454c-.028-.595-.335-1.563-2.047-1.563h-3.025s-2.117-.076-2.697 2.193-.605 2.707-.605 2.707-1.344 5.1-7.243 5.1h-6.881c-.68 0-4.712-.998-3.628-6.014l1.009-3.756c-.01.009.116-.393.117-.915.003-.983-.5-2.312-3.016-2.312" clip-rule="evenodd"/></svg>