<svg xmlns="http://www.w3.org/2000/svg" width="56" height="56"><path fill="#174859" d="M0 0h56v56H0z"/><path fill="#74D65C" fill-rule="evenodd" d="M7 25H4v6h3a3 3 0 1 0 0-6m-.27 1.23H5.5v3.53h1.23a1.77 1.77 0 1 0 0-3.53M33.28 25c-1.6 0-2.89 1.3-2.89 2.89v.22a2.89 2.89 0 0 0 5.78 0v-.22c0-1.6-1.3-2.89-2.89-2.89m0 1.2c-.75 0-1.36.62-1.36 1.37v.86a1.36 1.36 0 1 0 2.72 0v-.86c0-.75-.6-1.36-1.36-1.36zM10.5 27.9a2.9 2.9 0 1 1 5.8 0v.2c0 .14-.02.28-.04.42h-4.25a1.37 1.37 0 0 0 2.51.6l1.16.77a2.9 2.9 0 0 1-5.18-1.79zm2.87-1.74c.71 0 1.3.54 1.36 1.23h-2.72c.07-.69.65-1.23 1.36-1.23M18.4 25h-1.66l1.77 3h1.01c-1.3.54-2.29 2.2-2.62 3h1.61l1.38-2.51L21.35 31H23l-1.74-3h-.57c1.2-.7 2.04-2.32 2.31-3h-1.64l-1.46 2.47zm5.17 0h1.66l1.49 2.47L28.18 25h1.64c-.27.68-1.1 2.3-2.31 3h.56l1.75 3h-1.64l-1.46-2.51L25.33 31h-1.6c.33-.8 1.32-2.46 2.61-3h-1zm16.04 0c1.36.04 2.07.9 2.26 1.31l-1.08.5a1.7 1.7 0 0 0-1.28-.75c-.83-.03-1.13.35-1.1.65.04.3.2.51 1.62.71 1.41.2 1.97.98 1.97 1.66 0 .74-.59 1.89-2.4 1.92a3.07 3.07 0 0 1-2.6-1.28l1.18-.64c.12.2.62.78 1.43.74.8-.03.98-.44.94-.6v-.04c-.03-.17-.09-.55-1.24-.68-1.27-.15-2.2-.56-2.2-1.6 0-1.02.8-1.95 2.5-1.9m4.06 0L43 29h.67l.21-1.15h.83c.72 0 1.53-.53 1.64-1.6.1-.85-.54-1.25-1.14-1.25zm1.34.62h-.78L44 27.14h.6c.27 0 .87-.1 1.04-.8.14-.55-.4-.7-.62-.72zM48.97 29l.49-2.82c-.86-.31-2.72-.39-2.9 1.6-.07.69.47 1.73 1.9.96l-.07.26zm-.28-2.36c-.03.6-.21 1.78-.94 1.78-.66 0-.63-.63-.54-.93.1-.31.51-.92 1.48-.85m1.64-.62L49.76 29h.66l.3-1.55c.08-.26.4-.77 1.15-.72L52 26c-.21-.04-.73.02-1.1.53L51 26h-.67z"/></svg>