<svg xmlns="http://www.w3.org/2000/svg" width="56" height="56"><path fill="#F0F3FA" d="M0 0h56v56H0z"/><path fill="#006CB6" fill-rule="evenodd" d="M43 35a6 6 0 1 0 0-12 6 6 0 0 0 0 12m0-3a3 3 0 1 0 0-6 3 3 0 0 0 0 6"/><path fill="#60BA4B" fill-rule="evenodd" d="M34 35a6 6 0 1 0 0-12 6 6 0 0 0 0 12m0-3a3 3 0 1 0 0-6 3 3 0 0 0 0 6"/><path fill="#F5891F" fill-rule="evenodd" d="M25 35a6 6 0 1 0 0-12 6 6 0 0 0 0 12m0-3a3 3 0 1 0 0-6 3 3 0 0 0 0 6"/><path fill="#0A0204" fill-rule="evenodd" d="M13 35a6 6 0 1 0 0-12 6 6 0 0 0 0 12m0-3a3 3 0 1 0 0-6 3 3 0 0 0 0 6"/><path fill="#0A0204" d="m20 17-3 .45V35h5v-2.78l-2 .28z"/><path fill="#FBB813" d="m16 24.59 4-.59v8.5l-3 .59V27h-1z"/></svg>