<svg xmlns="http://www.w3.org/2000/svg" width="56" height="56" fill="none"><path fill="#93D8D7" d="M0 0h56v56H0z"/><path fill="#F0F3FA" fill-rule="evenodd" d="M12.878 17.003c1.083.017 4.157 1.527 4.122 3.711C16.982 22.9 14.24 24 12.982 24c-1.257 0-3.93-1.883-3.982-4.44-.035-2.575 3.249-2.575 3.878-2.557M42.993 26c1.58.02 6.024 2.152 6.007 4.433s-2.361 3.672-4.548 3.56c-2.205-.11-5.4-2.392-5.451-5.062-.052-2.67 2.83-2.949 3.992-2.93Z" clip-rule="evenodd"/><path fill="#F0F3FA" fill-rule="evenodd" d="M21.397 15C22.5 15 25 17.526 25 19.5s-3.634 2.807-3.534 4.5 1.236 2.544 1.086 4.186-2.052 3.797-4.67 3.797c-2.382 0-4.87-2.497-4.87-5.49C13.013 23.5 18 24 18 21c0-1.445-.483-2.89-.5-4-.018-1.194 1-2 3.897-2M35.5 20c1.5 0 5.115 2.17 4.288 4.899-.645 2.117-2.3 1.96-2.184 4.006.133 2.047 3.54 4.601 3.391 6.281S38.68 39 35.785 39s-6.004-3.587-5.773-6.718c.215-3.132 3.59-2.817 3.722-5.826C33.8 24.759 32.016 23.277 32 22c0-1.015.688-2 3.5-2" clip-rule="evenodd"/><path fill="#F0F3FA" fill-rule="evenodd" d="M28.328 14C29.452 14 33 15.607 33 18c0 2-2 2.564-2 4 0 1.564 1.158 2.084 1 4.142s-4 3.922-4 6.35c0 2.429 3.015 4.224 3.015 6.968 0 2.745-3.425 4.54-6.218 4.54C22.005 44 18 40.2 18 35.977s6-3.379 6-6.388-1.152-3.343-1.152-5.014 3.047-2.956 3.152-4.857c.053-1.073-1.018-2.181-1-3.43.018-1.004 1.115-2.288 3.328-2.288" clip-rule="evenodd"/></svg>