<svg xmlns="http://www.w3.org/2000/svg" width="56" height="56"><path fill="#FE4F0E" d="M0 0h56v56H0z"/><path d="M46 26h-5v-2h9l-5 6.5h.26c3.09 0 4.31 2.31 4.74 4.5h-2.25c-.22-1.13-1.38-2.48-2.62-2.48-1.75 0-2.5 1.18-3.51 2.48H39c1.76-2.73 7-9 7-9m-31 .24V20h2v6.72l-.01.07c-.1.73-.31 1.67-.63 2.65.41 1.42.64 3.61.64 5.56h-2v-2.27A5.6 5.6 0 0 1 10.66 35C7.55 35 6 32.23 6 29.64c0-2.47 1.67-5.6 4.66-5.6 1.59 0 3.25.8 4.34 2.2m-.97 3.17C13.5 28 12.47 26 10.66 26 8.99 26 8 28.36 8 29.64c0 1.43.85 3.36 2.66 3.36 1.83 0 2.82-2.2 3.37-3.6Z"/><circle cx="23.5" cy="29.5" r="5.5"/><path fill-rule="evenodd" d="M31 23c0 .7.5 1 1 1h1v-.8c0-.7-.24-1.2-1-1.2-.51 0-1 .3-1 1m4 1v-.45c0-1.96-.75-3.55-2.77-3.55A3.2 3.2 0 0 0 29 23.2c0 1.73 1.47 2.65 3.13 2.8H33v6.29c0 1.5 1.5 2.71 3.01 2.71H38v-2h-1.99c-.51 0-1.01-.5-1.01-1v-6h4v-2z"/></svg>