<svg xmlns="http://www.w3.org/2000/svg" width="56" height="56"><path fill="#181B1E" d="M0 0h56v56H0z"/><path fill="#fff" fill-rule="evenodd" d="M8 23H4v10h4a5 5 0 0 0 0-10m.5 2H6v6h2a3 3 0 0 0 3-3v-.5A2.5 2.5 0 0 0 8.5 25"/><path fill="#fff" d="M17 23h-3v2h3v6h2v-6h3v-2zm6 10.66A9.83 9.83 0 0 1 17.94 35c-1.81 0-3.5-.51-4.94-1.34L14 32a7.7 7.7 0 0 0 3.94 1c1.5 0 2.9-.29 4.05-1z"/><path fill="#fff" fill-rule="evenodd" d="M37 31a4 4 0 1 0 0-8 4 4 0 0 0 0 8m0-2a2 2 0 1 0 0-4 2 2 0 0 0 0 4"/><path fill="#fff" d="M30.65 29.62A3.23 3.23 0 0 1 28 31a3 3 0 1 1 0-6c1.07 0 2.14.56 2.67 1.4L32 24.57A5.48 5.48 0 0 0 28.15 23 5.08 5.08 0 0 0 23 28c0 2.76 2.3 5 5.15 5 1.46 0 2.92-.6 3.86-1.55zM42 23.36c0-.33.4-.48.6-.24l4.4 4.82 4.4-4.82c.2-.24.6-.09.6.24V33h-2v-5l-3 3.49L44 28v5h-2z"/></svg>