<svg xmlns="http://www.w3.org/2000/svg" width="56" height="56"><path fill="url(#a)" d="M0 0h56v56H0z"/><path fill="#0070A6" d="M32.78 40.656a5.03 5.03 0 0 1-2.894 1.453c-1.678.097-3.314-.896-3.809-4.504l-6.779-1.922c2.962 10.149 11.158 9.793 13.978 5.377.192-.29.133-.436 0-.508-.135-.073-.302-.073-.496.104m0-26.642c-2.726-5.247-12.39-.064-14.068 13.483a1.41 1.41 0 0 0 .746 1.558 8.4 8.4 0 0 0 2.76.88 8.2 8.2 0 0 0 2.265.186c.682-.029 1.247-.52 1.342-1.171 1.443-14.532 4.892-17.826 6.494-14.702.184.363.655.17.453-.234z"/><path fill="#54B948" d="M31.111 18.6a1.78 1.78 0 0 0-1.736.735c-.4.693-.662 1.45-.773 2.236a7.8 7.8 0 0 0-.16 2.422c.131.432.54.731 1.008.735 3.087.185 12.147 1.429 13.423 3.964.84 1.744-1.678 2.188-3.54 2.648a1.48 1.48 0 0 0-1.217 1.17 3.27 3.27 0 0 0 .504 2.617.86.86 0 0 0 1.149.282l.11-.073a10.4 10.4 0 0 0 2.516-2.236c6.057-8.13-6.644-14.412-11.284-14.5"/><path fill="#26BCD7" d="M34.224 31.913c-15.193 1.614-27.182-5.07-18.105-6.693 0 0 1.158-.258 1.376-.888s.285-.807.537-1.736c.16-.573.302-.896.454-1.34.242-.686-.21-1.098-1.217-.621-8.297 3.899-5.872 11.181.898 14.83 4.433 2.494 9.662 3.336 14.698 2.365a3 3 0 0 0 2.005-1.34 4.86 4.86 0 0 0 .839-3.35 1.17 1.17 0 0 0-.439-.95 1.28 1.28 0 0 0-1.046-.261z"/><defs><linearGradient id="a" x1="10.418" x2="68.147" y1="9.712" y2="76.017" gradientUnits="userSpaceOnUse"><stop stop-color="#1A1E21"/><stop offset="1" stop-color="#06060A"/></linearGradient></defs></svg>