<svg xmlns="http://www.w3.org/2000/svg" width="56" height="56" fill="none"><path fill="#F0F3FA" d="M0 0h56v56H0z"/><path fill="#000" d="M13.002 28.5c0 2.57 2.003 4.5 4.546 4.5 1.813.032 3.434-1.329 4.166-3H19.52c-.445.643-1.209 1.064-1.972 1-1.271.064-2.292-.714-2.546-2H22c0-2.5-1.906-5-4.452-5-2.543 0-4.546 1.928-4.546 4.5m2-.997c.381-1.06 1.465-1.535 2.578-1.503 1.081-.032 2.104.475 2.422 1.503zM25.5 33H23l7.5-9H33l-3.734 4.4L33 33h-2.5L28 30zm.78-5.294L23.13 24h2.37l1.98 2.316z"/><path fill="#000" fill-rule="evenodd" d="M4 32.998h3.85c2.238.066 4.089-1.891 4.149-4.337S10.267 24.065 8.029 24H4zM6 31v-5h1.76C9 26 9.97 27.057 10 28.515 10.03 29.972 9 31 7.85 31zm37-2.499C43 31.071 45 33 47.5 33s4.5-1.928 4.5-4.499-2-4.499-4.5-4.499S43 25.93 43 28.501m2 .042c-.029-1.373 1.082-2.513 2.456-2.543 1.374-.029 2.514 1.082 2.543 2.455.03 1.374-1.081 2.513-2.455 2.543h-.03c-1.344.058-2.455-.994-2.513-2.338v-.117Z" clip-rule="evenodd"/><path fill="#000" d="M37.596 32.998C35.025 32.998 33 31.07 33 28.5s2.025-4.498 4.596-4.498c2.122-.064 3.954 1.442 4.404 3.498h-2c-.354-1.028-1.31-1.532-2.404-1.5C36.118 26 35 27.022 35 28.5s1.118 2.5 2.596 2.5c1.093.032 2.05-.476 2.404-1.504h2a4.36 4.36 0 0 1-4.404 3.502"/></svg>