<svg xmlns="http://www.w3.org/2000/svg" width="56" height="56"><path fill="#004438" d="M0 0h56v56H0z"/><path fill="#fff" d="M24.216 25c1.23 0 1.965 1.01 1.965 2.072s-.736 1.934-1.965 1.934H23V31h-1.426v-6zM23 26.272v1.347h1.216a.61.61 0 0 0 .46-.22c.058-.068.104-.12.131-.207a.84.84 0 0 0 0-.47.7.7 0 0 0-.129-.234.63.63 0 0 0-.462-.216zm4.845 2.231c.044.846.67 1.293 1.373 1.293.258.003.513-.057.744-.175.231-.119.432-.293.586-.508l.874.733c-.494.662-1.142 1.137-2.36 1.137-1.66 0-2.593-1.386-2.593-3.022-.006-1.517.893-2.96 2.564-2.96 1.153 0 2.415.846 2.415 3.056 0 .148-.011.298-.022.455zm.022-1.138h2.153a1.2 1.2 0 0 0-.281-.864 1.1 1.1 0 0 0-.36-.277 1.1 1.1 0 0 0-.436-.106c-.15.008-.297.046-.432.113a1.1 1.1 0 0 0-.358.278 1.22 1.22 0 0 0-.287.86v-.004zM36 25v1h-1.5v5H33v-5h-1.439v-1zm2.379 4H38v2h-1.556v-6h2.62c1.23 0 1.965.824 1.965 1.82-.029 1.18-.606 1.63-1.135 1.822L41.283 31h-1.636zM38 26.19v1.318h1.064a.58.58 0 0 0 .449-.185.64.64 0 0 0 .176-.468.65.65 0 0 0-.166-.474.6.6 0 0 0-.448-.19H38zm3.775 1.787c0-1.533.935-2.976 2.68-2.976 1.744 0 2.7 1.386 2.7 3.022 0 1.534-.932 2.976-2.678 2.976-1.747 0-2.702-1.386-2.702-3.022m1.407-.022c0 1.395.714 1.84 1.327 1.84.75 0 1.243-.73 1.243-1.75 0-1.337-.693-1.843-1.297-1.843-.78 0-1.273.71-1.273 1.757zM48 25h1.5v4.5H52V31h-3.998z"/><path fill="#FDD903" d="M15.532 27.977c0-1.533.934-2.976 2.681-2.976s2.701 1.386 2.701 3.022c0 1.534-.934 2.976-2.679 2.976s-2.703-1.386-2.703-3.022m1.406-.022c0 1.395.714 1.84 1.33 1.84.747 0 1.24-.73 1.24-1.75 0-1.337-.692-1.843-1.295-1.843-.78 0-1.275.71-1.275 1.757zm-2.171 1.704a2.46 2.46 0 0 1-.909.995 2.33 2.33 0 0 1-1.275.345C10.921 31 10 29.613 10 27.978c0-1.534.889-2.977 2.557-2.977.466-.014.926.112 1.325.364s.719.619.922 1.056l-1.081.56a1.27 1.27 0 0 0-.442-.558 1.2 1.2 0 0 0-.66-.22c-.77 0-1.241.71-1.241 1.752 0 1.395.69 1.84 1.295 1.84.221 0 .437-.07.622-.198a1.17 1.17 0 0 0 .415-.52zm-9.383-1.157c.044.847.67 1.293 1.372 1.293.257.003.512-.057.743-.175.231-.119.432-.293.586-.508l.874.733c-.494.662-1.142 1.137-2.36 1.137C4.934 30.998 4 29.612 4 27.976 4 26.443 4.9 25 6.57 25c1.153 0 2.415.846 2.415 3.056 0 .148 0 .298-.022.455zm.022-1.138H7.56a1.2 1.2 0 0 0-.282-.864c-.1-.116-.223-.21-.36-.276a1.1 1.1 0 0 0-.434-.107 1.1 1.1 0 0 0-.433.112 1.1 1.1 0 0 0-.358.278 1.22 1.22 0 0 0-.286.861v-.004z"/></svg>