<svg xmlns="http://www.w3.org/2000/svg" width="56" height="56"><path fill="#1175C7" d="M0 0h56v56H0z"/><path fill="#fff" d="m19.537 24 1.163 4h-2.41zm-2.115 7-1.059 3h6.188l-.995-3zm16.148-9H22v3h3v9h6.47c-.372-.21-2.93-2.072-2.93-5.546 0-2.888 1.912-5.713 5.03-6.454m2.06 8.927c1.4 0 2.526-1.066 2.526-2.413 0-1.339-1.055-2.55-2.474-2.55-1.427 0-2.549 1.211-2.549 2.55 0 1.347 1.053 2.413 2.496 2.413zM48 29l-3-7h-6v12h4v-7l3 7h6V22h-4zm-36.529 5 1.114-4H9v-1h3.923L14 26H9v-1h5.307l1.112-3H4v12z"/></svg>