<svg xmlns="http://www.w3.org/2000/svg" width="56" height="56"><path fill="#162A4F" d="M0 0h56v56H0z"/><path fill="#FEFEFE" fill-rule="evenodd" d="m46 32.06.22-.32C47.06 30.54 48 29.28 48 28s-.94-2.54-1.78-3.74l-.22-.32V19h-5.4l-.23-.1C36.99 17.4 32.7 17 28 17s-8.99.4-12.37 1.9l-.24.1H10v5.03l-.21.31C8.99 25.52 8 26.74 8 28c0 1.25.99 2.48 1.79 3.66l.21.31V37h5.25l.24.1C18.9 38.65 23.24 39 28 39s9.1-.36 12.5-1.9l.25-.1H46zm1 .38c.96-1.37 2-2.87 2-4.44s-1.04-3.07-2-4.44V18h-6.13c-3.56-1.58-8.02-2-12.87-2s-9.31.42-12.87 2H9v5.65C8.08 25 7 26.47 7 28s1.08 3 2 4.35V38h5.99c3.58 1.62 8.1 2 13.01 2s9.43-.38 13.01-2H47z"/><path fill="#FEFEFE" d="M38 25v6h-1.5l-2-3.46V31H33v-6h1.5l2 3.46V25zm-6 3c0 1.5-.84 3-2.5 3S27 29.5 27 28s.84-3 2.5-3 2.5 1.5 2.5 3m-1.5 0c0-.77-.06-2-1-2s-1 1.22-1 2 .06 2 1 2 1-1.23 1-2M21 26v-1h5.5v1h-2v5H23v-5zm-3 5v-6h1.5v5H22v1zm-5.64 0H11l2.03-6h1.94L17 31h-1.38L14 26.16zm-.1-2h3.26l.1 1h-3.26zm28.1 2H39l2.03-6h1.94L45 31h-1.38L42 26.16zm-.1-2h3.26l.1 1h-3.26z"/></svg>