<svg xmlns="http://www.w3.org/2000/svg" width="56" height="56"><path fill="#F0F3FA" d="M0 0h56v56H0z"/><path fill="#51B848" d="M43.76 24.03c1.98.37 4.7.17 6.2-1.23.31-.28-1.38 2.2-4.07 3.6-3.68 1.93-8.36 2.34-12.4 1.88.2-3.13-2.72-5.28-5.61-5.28a5.27 5.27 0 0 0-5.18 3.72c-2.6-.23-5.02-.36-7.88.44.97-4.7 5.98-7.92 13.06-8.15 7.1-.23 10.79 4.08 15.88 5.02"/><path fill="#007356" d="M12.62 30.07c-1.99.34-4.34 2.31-5.21 3.05-.82.69-2.01-.82-1.05-1.48 1.13-.77 5.27-3.4 8.97-4.1 4.25-.8 8.44.34 13.23 1.88 4.78 1.5 7.3 1.72 11.83 1.58-2.4 4.59-8.18 6.03-12.17 6-4.16-.03-8.41-1.23-11.02-3.94-1.41-1.45-2.35-3.36-4.58-2.99"/></svg>