<svg xmlns="http://www.w3.org/2000/svg" width="56" height="56"><path fill="url(#a)" d="M0 0h56v56H0z"/><path fill="#008FD1" d="M11 35.593s19.078 6.416 24.459-10.16c2.895 3.114 6.33 6.395 5.38 10.939-2.572 12.116-20.16 9.424-26.274 4.291-1.448-1.62-2.593-2.987-3.565-5.07"/><path fill="#EAE100" d="M31.807 11.045c.065-.231-4.083.273-6.309 5.301 0 0-6.957 17.796 11.538 26.21 0 0 9.248-6.626-.821-16.344-5.661-5.47-5.596-11.065-4.408-15.167"/><path fill="#2A9F3A" d="M27.55 35.068c1.945 2.776 4.927 5.406 9.442 7.467 1.858-1.367 3.263-3.365 3.846-6.163.281-1.935-.086-4.291-1.858-6.921-1.037-1.43-2.333-2.735-3.522-4.018-1.663 5.112-4.623 8.036-7.908 9.635"/><defs><linearGradient id="a" x1="10.418" x2="68.147" y1="9.712" y2="76.017" gradientUnits="userSpaceOnUse"><stop stop-color="#1A1E21"/><stop offset="1" stop-color="#06060A"/></linearGradient></defs></svg>