<svg xmlns="http://www.w3.org/2000/svg" width="56" height="56"><path fill="#F0F3FA" d="M0 0h56v56H0z"/><path fill="#DA2519" d="M34.1 30c-1.92 0-3.1-.95-3.1-2.5 0-1.67 1.52-2.5 3.04-2.5 1.5 0 2.96.8 2.96 2.47V28h-5.32v-1h3.5c0-.58-.6-.89-1.1-.89-.52 0-1.06.3-1.08.88v.9c0 .68.53 1 1.13 1 .4 0 .9-.09 1.08-.48H37c-.3 1.24-1.81 1.59-2.9 1.59m-25 0C7.18 30 6 29.05 6 27.5 6 25.83 7.52 25 9.04 25c1.5 0 2.96.8 2.96 2.47V28H6.68v-1h3.5c0-.58-.6-.89-1.1-.89-.52 0-1.06.3-1.08.88v.9c0 .68.53 1 1.13 1 .4 0 .9-.09 1.08-.48H12C11.7 29.65 10.19 30 9.1 30"/><path fill="#00468E" d="M26.13 30c-.91 0-2.13-.31-2.13-1.43 0-1.83 4-1.08 4-1.95v-.02c0-.32-.38-.6-.88-.6-.55 0-.89.26-.98.57h-1.9c.24-1.27 1.83-1.57 2.9-1.57 1 0 2.86.27 2.86 1.62V30h-2v-.76c-.42.6-1.18.76-1.87.76m.64-1c.47 0 1.23-.22 1.23-.8v-.47c-.34.13-.77.16-1.13.2-.33.04-.87.13-.87.57 0 .32.3.5.77.5"/><path fill="#00468E" d="M21.3 33.88c1.58 3.76 9 4.18 16.57.93 7.56-3.24 12.41-8.93 10.83-12.69s-9-4.18-16.57-.93a27.6 27.6 0 0 0-6.23 3.66c.82-.5 1.71-.97 2.67-1.37 5.14-2.18 10.17-1.92 11.23.58 1.07 2.5-2.24 6.29-7.37 8.46-5.14 2.18-10.17 1.92-11.23-.58-.06-.13-.1-.26-.13-.4-.14.83-.07 1.62.23 2.34"/><path fill="#00468E" d="M13 30v-5h2v.97c.28-.6 1.06-.97 1.98-.97.68 0 1.62.23 1.85.97.32-.75 1.32-.97 2.04-.97 1.03 0 2.13.52 2.13 1.68V30h-2v-2.96c0-.5-.5-.76-1.04-.76-.58 0-.96.28-.96.75v2.95L17 30v-2.98c0-.46-.39-.74-.94-.74-.48 0-1.06.28-1.06.8V30z"/></svg>