<svg xmlns="http://www.w3.org/2000/svg" width="56" height="56" fill="none"><path fill="#F0F3FA" d="M0 0h56v56H0z"/><path fill="#00ABCC" fill-rule="evenodd" d="M20 12h12.5s2.5 1.368 2.5 4.433-3.661 8.231-6.005 9.567c.036 0 .953-1.743 1.005-3.988.067-2.859-1.627-6.447-10-10.012" clip-rule="evenodd"/><path fill="#F36F20" fill-rule="evenodd" d="M40 44H29s-8-7.431-8-13.066S27.617 21 28 21c0 0-2 2-2 6 .195 3.888 2.62 9.527 14 17" clip-rule="evenodd"/><path fill="#F36F20" fill-rule="evenodd" d="M28 44h-8s-1.94-2.15-2-6.5c-.018-1.32 1-3.5 2-4.5.08 0 .5 6 8 11" clip-rule="evenodd"/></svg>