<svg xmlns="http://www.w3.org/2000/svg" width="56" height="56"><path fill="#F0F3FA" d="M0 0h56v56H0z"/><path fill="#464645" d="M50.94 29.53H48.7L47.77 31H47l3.16-5h.78L52 31h-.77zm-.57-2.64L49.04 29h1.79l-.46-2.1ZM48.4 26h.6l-3.4 5H45zM41 30.78l.13-.58q.825.3 1.41.3c.7 0 1.18-.35 1.18-.84 0-.3-.15-.51-.68-.89l-.31-.22c-.36-.26-.6-.47-.7-.63a.97.97 0 0 1-.17-.56c0-.4.18-.72.53-.98.34-.25.79-.38 1.33-.38.48 0 .9.06 1.28.18l-.13.57a2.56 2.56 0 0 0-1.15-.24c-.68 0-1.1.27-1.1.74 0 .14.03.26.11.36s.27.26.59.5l.33.23c.59.43.83.76.83 1.23 0 .29-.1.55-.3.8-.22.24-.48.41-.8.5a4.05 4.05 0 0 1-2.38-.09m-5.8-1.62L34.85 31H34l1.02-5h.85l-.47 2.11c.93-1.52 1.64-2.11 2.34-2.11.07 0 .16 0 .26.03l-.18.95a.9.9 0 0 0-.32-.07c-.29 0-.58.15-.88.46-.3.3-.77.9-1.42 1.8ZM34 26l-1 5h-.9l.41-2.07c-.53.87-1.44 2.07-2.57 2.07-.6 0-.94-.37-.94-1.07 0-.5.11-1 .33-1.54.52-1.23 1.6-2.39 3.03-2.39zm-1.27 1.9.22-1.11a1.5 1.5 0 0 0-.7-.17c-1.09 0-1.74 1.08-2.04 1.99-.14.4-.21.77-.21 1.1 0 .31.1.48.36.48.6 0 1.21-.87 1.57-1.3.2-.22.46-.55.8-1Zm-8.29 2.99L24.01 33H23l1.5-7h1l-.43 2.18c.88-1.36 2-2.18 2.88-2.18.7 0 1.05.38 1.05 1.13 0 2-1.66 3.87-3.74 3.87-.16 0-.43-.04-.82-.11m.39-1.62-.23.9c.24.12.5.17.78.17 1.53 0 2.62-1.59 2.62-2.98 0-.33-.17-.5-.43-.5-.48 0-1.43.8-2.74 2.4ZM18.9 31H18l1.44-7h.9l-.85 4.1c.39-.63.8-1.18 1.29-1.55.47-.36.9-.55 1.3-.55.61 0 .92.36.92 1.06A4.55 4.55 0 0 1 21.79 30a2.9 2.9 0 0 1-2.15 1zm.38-1.89-.23 1.11c.22.11.44.16.7.16.85 0 1.65-.77 2.09-1.96.14-.4.2-.81.2-1.14 0-.31-.12-.48-.35-.48-.44 0-1.25.8-2.41 2.31m-7.73-.24-.24.3-.38 1.83H10l1-5h.93l-.4 2.11C12.4 26.71 13.22 26 14 26c.59 0 .88.29.88.87 0 .2-.03.45-.1.75l-.1.5c.86-1.42 1.68-2.12 2.45-2.12.54 0 .88.3.88.87 0 .2-.03.45-.1.75L17.2 31h-.93l.69-3.31c.05-.25.08-.43.08-.54 0-.2-.1-.32-.27-.32-.2 0-.44.13-.7.39s-.72.8-1.39 1.65l-.23.3-.38 1.83h-.94l.7-3.31c.04-.25.07-.43.07-.54 0-.2-.08-.32-.27-.32-.2 0-.43.12-.68.37-.26.25-.72.81-1.4 1.67m-1.92-1.14H6.86l-.57 2.52h3.53l-.17.75H5l1.58-7H11l-.18.75h-3.3l-.5 2.24H9.8zM6 24h-.32L5 30zm5-.5H7V23z"/><path fill="#464645" d="M9.57 30H7v-.5z"/></svg>