<svg xmlns="http://www.w3.org/2000/svg" width="56" height="56" fill="none"><path fill="#F0F3FA" d="M0 0h56v56H0z"/><path fill="#6C6EA8" d="M12 31.675c0 .91-.258 1.325-1.675 1.325C8.692 33 8 32.588 8 31.612V30c.561-.09 1.66-.27 1.66-.27v1.931c0 .21.123.354.34.354s.3-.145.3-.354V30H12zM21 33h-1.355v-.325c-.183.173-.566.325-1.094.325-.56 0-1.051-.325-1.051-.985V29c.576-.035.901-.083 1.5-.111v2.8c0 .208.12.311.323.311.216 0 .322-.107.322-.29v-2.841c.576-.028.764-.05 1.355-.07zm2.882-4.38v.888c-.178.075-.307.215-.307.418v1.762c0 .196.104.31.307.312v.958c-.162.03-.365.042-.62.042C22.214 33 22 32.615 22 31.891V30.1c0-.773.588-1.22 1.225-1.465l.657-.014ZM16.5 31.66c0 .436-.2.69-.49.918l.473.84h-.959l-.255-.425c-.117.007-.232.007-.365.007C13.517 33 13 32.568 13 31.597V29.34c.576-.062.979-.11 1.577-.166v2.472c0 .208.086.354.306.354.218 0 .307-.146.307-.354v-2.521c.576-.041.705-.084 1.31-.125zM30 33h-1.27c-1.305 0-1.73-.77-1.73-2.07v-2.35h2v2.337c0 .568.595.924 1 .924zm6.5-4.233V33H35v-4.302c.598.02.916.041 1.5.07ZM34 31.58c0 1.136-.758 1.42-1.689 1.42-1.4 0-1.811-.52-1.811-1.484v-2.93c.598.008.924.021 1.5.029v3.031c0 .21.064.354.282.354s.306-.145.306-.354v-3.018c.598.015.83.035 1.412.055v2.896ZM41 33h-2v-4c.597.035 1.424.084 2 .125zm-17.118-.042V32c.185 0 .306-.125.306-.312v-2.275a2 2 0 0 0-.306.095v-.887c.681-.016 1.418-.028 2.118-.034V33h-1.608v-.394a.74.74 0 0 1-.51.352m19.51-3.592v.235c-.244.102-.392.234-.392.417v1.67c0 .2.191.31.392.312v.958q-.24.044-.624.042c-.741 0-1.268-.255-1.268-1.109v-1.7c0-.368.154-.687.504-.972.527.047.881.096 1.388.147M47.5 33H46v-3.25c.613.077.938.16 1.5.25zm-4.108-.042V32c.188 0 .302-.124.302-.312v-2.184q-.18.042-.302.096v-.234c.711.073.942.15 1.608.236V33h-1v-.394c-.11.194-.4.31-.608.352"/><path fill="#2F2E79" d="M10 29.385c-2.524.336-4.283.74-6 1.2 1.045-.439 2.176-.836 4-1.186V27.45c0-.96.642-1.45 1.99-1.45H10v1c-.172.003-.336.119-.336.34v1.184H10zm4.883-.495c-1.613.14-3.471.306-4.883.495v-.86h.303V27.34c0-.223-.094-.34-.299-.34H10v-1c1.386.002 2 .463 2 1.388v1.374c.136-.017.863-.103 1-.118V27.45c0-.955.551-1.445 1.883-1.45v1c-.174 0-.306.116-.306.34v1.182l.306-.029zm4.762-.752V26H21v2.019c.157-.006.841-.014 1-.02v-.612c0-.879.516-1.362 1.88-1.387v1c-.174 0-.304.117-.304.34V28h.305v.407a145 145 0 0 0-8.998.483v-.397l.306-.029V27.34c0-.223-.101-.34-.306-.34v-1c.849-.026 1.617.36 1.617 1.388v.927c.105-.008.895-.017 1-.024V26H19v2.172l.645-.035ZM23.88 26c1.004-.016 2.119.275 2.119 1.45V28c.369-.006.625.002 1 0v-1h-.719v-.999H27V24h2v2h.781v1H29v1c.462.003 1.044-.007 1.5 0v-.55c0-1.12.833-1.445 1.782-1.45v1c-.162 0-.282.117-.282.34V28h.282v.413a169 169 0 0 0-8.401-.006V28h.307v-.66q0-.338-.307-.34v-.999Zm8.401 0c.85-.02 1.718.352 1.718 1.387V28c.114.005.885.01 1 .014V26h1.46v.277q.117-.087.303-.154V27c-.202 0-.302.09-.302.299v.848l.302.019v.424a158 158 0 0 0-4.48-.177V28h.305v-.66c0-.223-.102-.34-.306-.34zm7.803-.501H39V24h1.085v1.5Zm-3.322.623a2.5 2.5 0 0 1 .791-.123c.573 0 .946.334.946.98v1.325c.124.008.377.018.5.028V26h1.085v2.81a145 145 0 0 0-3.322-.22v-.424l.237.017v-.87c0-.209-.03-.313-.233-.313h-.004v-.877Zm3.322-.623H41V24h-.915v1.5Zm0 .5H41v2.486c.58.055 1.115.114 1.666.176.682-.322 1.029-.555 1.029-.693v-.629c0-.224-.161-.34-.365-.34-.16 0-.33.116-.33.34V28h-1.5v-.612c0-.913.524-1.388 1.932-1.388.981 0 1.568.325 1.568 1.45V29c.15.02.858.07 1 .091v-5.09h1.5v5.398c1.824.35 3.456.747 4.5 1.186-2.355-.632-5.572-1.16-9.378-1.547a113 113 0 0 0-2.537-.227V26Z"/></svg>