<svg xmlns="http://www.w3.org/2000/svg" width="56" height="56"><path fill="#F0F3FA" d="M0 0h56v56H0z"/><path fill="#08A6CD" d="M14 38.89 28.05 24 42 38.79A19.07 19.07 0 0 1 27.95 45 19.06 19.06 0 0 1 14 38.89"/><circle cx="28" cy="25" r="14" fill="#F01B28"/><path fill="#FFFEFF" d="M28.01 25.01V12l-4.12 9L28 25.01Z"/><path fill="#08A6CD" d="M28.01 25.01V12l4.13 9L28 25.01Z"/><path fill="#08A6CD" d="M28.01 24.99V38l-4.12-9L28 24.99Z"/><path fill="#FFFEFF" d="M28.01 24.99V38l4.13-9L28 24.99Z"/><path fill="#FFFEFF" d="M27.99 24.99H41l-9-4.13L27.99 25Z"/><path fill="#08A6CD" d="M27.99 24.99H41l-9 4.12L27.99 25Z"/><path fill="#08A6CD" d="M28.01 24.99H15l9-4.13L28.01 25Z"/><path fill="#FFFEFF" d="M28.01 24.99H15l9 4.12L28.01 25Zm-9.04 14.45-1.4-1.18-.58.81 1.6 1.34-.4.57L16 39.15 18.22 36l2.13 1.77-.4.56-1.53-1.28-.47.67 1.4 1.17zm1.6 2.2c.16.07.3.12.42.13.23.02.39-.08.47-.28a.36.36 0 0 0-.03-.35q-.105-.165-.39-.39l-.32-.26a2.6 2.6 0 0 1-.6-.62c-.16-.28-.17-.6-.02-.95.13-.32.35-.54.66-.65.3-.1.67-.06 1.09.14.35.17.61.42.77.74.17.32.18.68.03 1.07l-.67-.32a.6.6 0 0 0-.07-.6 1 1 0 0 0-.37-.28.78.78 0 0 0-.48-.1.39.39 0 0 0-.3.26.37.37 0 0 0 .05.37c.05.07.17.2.37.36l.52.42c.22.19.38.37.46.54.13.27.13.56 0 .89-.14.33-.37.55-.7.65-.32.1-.69.06-1.12-.15a1.8 1.8 0 0 1-.89-.82c-.16-.33-.16-.69 0-1.06l.66.32a.9.9 0 0 0-.03.43c.05.2.22.37.49.5Zm5.58-1.7-.14.7-1.07-.28-.68 3.18-.75-.2.68-3.17-1.06-.27.14-.68 2.88.73Zm1.71 2.45-.79-.03-.05 1.55-.74-.03.13-3.96 1.79.07c.26.01.45.06.59.12.13.07.25.17.34.3.08.1.13.21.18.33a1.26 1.26 0 0 1-.1.97c-.1.18-.24.3-.44.37a.7.7 0 0 1 .34.33c.07.14.1.35.09.62l-.01.27v.37c.02.1.07.18.14.23v.1l-.84-.03a2.2 2.2 0 0 1-.06-.56v-.37c0-.25-.03-.42-.11-.5-.08-.1-.23-.14-.46-.15m.49-.7c.15-.08.23-.22.24-.44.01-.24-.06-.4-.2-.5a.8.8 0 0 0-.37-.08l-.89-.03-.03 1.06.86.03a.9.9 0 0 0 .39-.05Zm4.19-.19-1.73.44.21.99 1.97-.5.15.7-2.7.68-.82-3.87 2.61-.65.15.68-1.89.47.18.82 1.73-.43zm.13-2.35.7-.34 1.23 2.96 1.65-.81.27.65-2.34 1.15zm6.03-.12-1.1.86.24.82-.64.5-1.09-4.03.7-.55L40 39.02l-.67.52-.63-.5Zm-.54-.41-1.22-.98.47 1.56z"/></svg>