<svg xmlns="http://www.w3.org/2000/svg" width="56" height="56"><path fill="#A44747" d="M0 0h56v56H0z"/><path fill="#fff" d="M30.62 26c-.36-.02-.78.17-1.07.4-.28.21-.4.5-.55.37V26h-3v5.31c0 .08-.02.17-.06.24a.54.54 0 0 1-.16.18c-.66.46-1.3.69-2.1.65-1.26-.05-2.03-.53-2.84-1.45l4.38-2.13A3.22 3.22 0 0 0 21.8 26c-1 .01-1.97.4-2.72 1.09A4.4 4.4 0 0 0 18 29.73c-.04.56.04.98.22 1.51 0 0-.03.07-.57.37l-.6.31c-.82.41-1.05.46-1.05-.72v-3.7h1V26h-1v-2.1l-3 1.45V26h-1v1.5h1v4.06c0 .25-.2.43-.6.61-.68.26-1.4.35-2.12.28C8.85 32.22 7 31.37 7 29.6c0-.62.28-1.3.69-1.77.3-.4.41-.16.65-.08.54.13 1.1.14 1.65.03.42-.08.8-.26 1.13-.54a.78.78 0 0 0 .05-1.02 2.1 2.1 0 0 0-1.52-.6c-.42-.03-.84 0-1.25.1-.24.06-.3.1-.5-.38-.34-.94.05-2.08 1.04-2.41.42-.14.63-.13.71-.05.1.1-.27.53-.22.85.1.59.63 1.02 1.23.99a1.1 1.1 0 0 0 1.18-1.07 1.7 1.7 0 0 0-1.15-1.4 5.64 5.64 0 0 0-3.37 0c-1.17.45-1.83 1.03-2.01 2.06-.14.57.02 1.2.4 1.63.65.73.7.37-.48 1.37a3.59 3.59 0 0 0-1.22 2.95c.34 2.22 2.35 3.47 4.47 3.64a7.85 7.85 0 0 0 3.26-.56c1.28-.48 1.23-.59 1.4-.59.16 0 .05.5.46.82.4.32.58.46 1.16.38.36-.06.7-.18 1-.37.15-.07.3-.17.49-.27l.82-.42c1.73-.88 1.38-1 1.9-.43a4.71 4.71 0 0 0 3.9 1.5c1.14-.06 1.85-.64 2.8-1.12.14-.07.27-.16.33.11V34h3v-5.32c-.02-.2.05-.92.34-.89.15 0 .12.47.43.76.29.32.77.5 1.19.43a1.46 1.46 0 0 0 1.17-.98c.2-1.06-.46-1.94-1.5-2zm-21.47.38c.18-.08.38-.12.58-.12.27-.02.55.03.8.15a.3.3 0 0 1 .15.21.3.3 0 0 1-.06.25c-.15.16-.28.18-.68.18a1.32 1.32 0 0 1-.93-.45c-.05-.1.02-.16.13-.22zm11.35 3.73s-.1.16-.15-.11c-.13-.6-.1-1.21.06-1.8.3-.78.66-1 1.1-1.08.45-.08.86.23 1.2.77.21.32.33.69.35 1.06zm22-5.99A1.47 1.47 0 0 1 44 22.7a1.45 1.45 0 0 1 1.5 1.4 1.47 1.47 0 0 1-1.5 1.42 1.45 1.45 0 0 1-1.5-1.41z"/><path fill="#fff" d="M48 32.44V34h3v-6.5h1V26h-1v-2l-3 1.44V26h-1v1.5h1l-.05 3.26c.05.32-.06.56-.36.7l-1.43.63c-.28.15-.55.24-.66-.18V26h-3v5.14c0 .5-.48.87-.86 1.15-.24.12-.52.1-.64-.17v-4.09c0-1.25-1.76-2.07-3-2.03-.74.04-1.1.23-1.7.67-.1.07-.3.24-.3 0V26h-3v8h3v-5.78c.03-.61.51-1.03 1.08-1.01.53 0 .82.3.92.82v4.39c0 .65.04 1.3.7 1.51a2 2 0 0 0 .92.01.9.9 0 0 0 .34-.14l2.3-1.2c.04-.03.1-.04.15-.03.07.03.07.18.07.18.05.68.54 1.23 1.24 1.25.29.01.58-.06.82-.22l3.2-1.43s.11-.08.18-.05c.06.02.1.08.08.13"/></svg>