<svg xmlns="http://www.w3.org/2000/svg" width="56" height="56" fill="none"><path fill="#F0F3FA" d="M0 0h56v56H0z"/><path fill="url(#a)" d="M9.138 30.378c-.16.612-.764.927-1.496.927-1.178 0-1.674-.7-1.642-1.528h3.997c0-1.277-.54-2.777-2.45-2.777C6.066 27 5 28.06 5 29.483 5.048 30.94 5.875 32 7.594 32c1.21 0 2.165-.58 2.403-1.622zM6 29c.064-.729.576-1.305 1.499-1.305.875 0 1.453.543 1.501 1.305z"/><path fill="url(#b)" d="M36.138 30.378c-.16.612-.764.927-1.496.927-1.178 0-1.674-.7-1.642-1.528h3.997c0-1.277-.54-2.777-2.45-2.777C33.066 27 32 28.06 32 29.483c.048 1.457.875 2.517 2.594 2.517 1.21 0 2.165-.58 2.403-1.622zM33 29c.064-.729.576-1.305 1.499-1.305.875 0 1.453.543 1.501 1.305z"/><path fill="url(#c)" d="M16 27h-1l.007 2.753c0 .879-.59 1.538-1.785 1.538-.757 0-1.222-.389-1.222-.98V27h-1v3.21c0 1.047.488 1.79 2.07 1.79.86 0 1.51-.287 1.93-.895V32h1z"/><path fill="url(#d)" d="M22 28.634C21.871 27.495 20.767 27 19.5 27c-1.62 0-2.5 1.122-2.5 2.558 0 1.419.884 2.442 2.572 2.442C21 32 21.791 31.155 22 30h-1c-.113.726-.56 1.307-1.428 1.307-1.141 0-1.572-.875-1.572-1.75 0-.973.27-1.864 1.572-1.864.74 0 1.283.33 1.428.94h1Z"/><path fill="url(#e)" d="M26 30.212c0 .43-.335 1.076-1.485 1.076-.527 0-1.015-.182-1.015-.695 0-.58.488-.762 1.062-.861.59-.1 1.096-.1 1.438-.331v.81Zm1.544 1.043a1 1 0 0 1-.265.05c-.279 0-.279-.166-.279-.53v-2.467C27 27.182 25.96 27 25.012 27c-1.18 0-2.189.414-2.251 1.606h.739c.047-.695.72-.91 1.45-.91.56 0 1.05.115 1.05.794 0 .596-.692.53-1.655.695-.9.15-1.845.381-1.845 1.474 0 .96.835 1.341 1.798 1.341.746 0 1.22-.232 1.702-.745 0 .513.456.745.907.745.28 0 .466-.05.621-.133.016 0 .016-.612.016-.612"/><path fill="url(#f)" d="M30 26h-.993v1.33H28V28h1v3c0 .846.386 1 1.352 1H31v-.67h-.372c-.57 0-.628-.064-.628-.415V28h1v-.67h-1z"/><path fill="url(#g)" d="M38 32h1l1.468-2.076L42 32h1l-2-2.716L42.647 27h-.889l-1.29 1.747L39.226 27h-.99L40 29.313z"/><path fill="#E3E02F" fill-rule="evenodd" d="M51 23.646c.02 3.227-2.955 4.443-4.18 4.443s-1.77-.418-1.77-.418L44.255 29s-.272-.152-.253-.266 1.166-2.411 3.772-3.74c0 0-1.575.114-3.189 2.05 0 0 .02-4.044 4.18-4.044 1.517 0 2.236.646 2.236.646Z" clip-rule="evenodd"/><path fill="#028BAD" fill-rule="evenodd" d="M43.242 22.052s1.4-.408 2.758 1.059c0 0-.53.348-.978.938 0 0-.476-.605-.884-.741 0 0 .571.726.612 1.134 0 0-.49.741-.462 1.558 0 0-1.957-1.543-1.046-3.948" clip-rule="evenodd"/><defs><linearGradient id="a" x1="7.499" x2="7.499" y1="27" y2="32" gradientUnits="userSpaceOnUse"><stop stop-color="#181B1E"/><stop offset="1" stop-color="#181B1E"/></linearGradient><linearGradient id="b" x1="34.499" x2="34.499" y1="27" y2="32" gradientUnits="userSpaceOnUse"><stop stop-color="#181B1E"/><stop offset="1" stop-color="#181B1E"/></linearGradient><linearGradient id="c" x1="13.5" x2="13.5" y1="27" y2="32" gradientUnits="userSpaceOnUse"><stop stop-color="#181B1E"/><stop offset="1" stop-color="#181B1E"/></linearGradient><linearGradient id="d" x1="19.5" x2="19.5" y1="27" y2="32" gradientUnits="userSpaceOnUse"><stop stop-color="#181B1E"/><stop offset="1" stop-color="#181B1E"/></linearGradient><linearGradient id="e" x1="25.022" x2="25.022" y1="27" y2="32" gradientUnits="userSpaceOnUse"><stop stop-color="#181B1E"/><stop offset="1" stop-color="#181B1E"/></linearGradient><linearGradient id="f" x1="29.5" x2="29.5" y1="26" y2="32" gradientUnits="userSpaceOnUse"><stop stop-color="#181B1E"/><stop offset="1" stop-color="#181B1E"/></linearGradient><linearGradient id="g" x1="40.5" x2="40.5" y1="27" y2="32" gradientUnits="userSpaceOnUse"><stop stop-color="#181B1E"/><stop offset="1" stop-color="#181B1E"/></linearGradient></defs></svg>