<svg xmlns="http://www.w3.org/2000/svg" width="56" height="56"><path fill="url(#a)" d="M0 0h56v56H0z"/><path fill="#397880" d="M10.49 22C7 22 5 24.67 5 28c0 1.74.49 3.24 1.43 4.31 1.7 1.94 5.2 2.62 8.11.97.3-.16.46-.48.46-.82v-.96c0-1.04-1.3-.36-1.69-.17-1.55.74-3.81.94-4.73-.48A3.85 3.85 0 0 1 8.02 29H13c1.58 0 2.5-1.28 2.5-2.86 0-2.91-2.49-4.14-5.01-4.14m.78 5H8c0-1.6 1-2.5 2.49-2.5.67 0 2.01.18 2.01 1.27 0 .68-.55 1.23-1.23 1.23m22.72-5c-3.49 0-5.49 2.67-5.49 6 0 1.74.49 3.24 1.43 4.31 1.7 1.94 5.2 2.62 8.11.97.3-.16.46-.48.46-.82v-.96c0-1.04-1.3-.36-1.69-.17-1.55.74-3.81.94-4.73-.48a3.85 3.85 0 0 1-.56-1.85h4.98c1.58 0 2.5-1.28 2.5-2.86 0-2.91-2.49-4.14-5.01-4.14m.78 5H31.5c0-1.6 1-2.5 2.49-2.5.67 0 2.01.18 2.01 1.27 0 .68-.55 1.23-1.23 1.23M17 22.5c0-.28.22-.5.5-.5h2c.28 0 .5.22.5.5v11a.5.5 0 0 1-.5.5h-2a.5.5 0 0 1-.5-.5z"/><path fill="#2A5273" d="m21 27.93 4.17-5.53a1 1 0 0 1 .8-.4h2.25a.5.5 0 0 1 .4.8L21 32.91z"/><path fill="#397880" d="M41 22.5c0-.28.22-.5.5-.5h2c.28 0 .5.22.5.5v11a.5.5 0 0 1-.5.5h-2a.5.5 0 0 1-.5-.5zm3-.09V25c1.65-1.24 4-.5 4 2v6.5c0 .28.22.5.5.5h2a.5.5 0 0 0 .5-.5v-7.68a4 4 0 0 0-2.29-3.62c-1.55-.74-3.21-.2-4.71.21"/><defs><linearGradient id="a" x1="10.42" x2="68.15" y1="9.71" y2="76.02" gradientUnits="userSpaceOnUse"><stop stop-color="#1A1E21"/><stop offset="1" stop-color="#06060A"/></linearGradient></defs></svg>