<svg xmlns="http://www.w3.org/2000/svg" width="56" height="56"><path fill="#F16E24" d="M0 0h56v56H0z"/><path fill="#fff" d="M43 28.647c0 .99-.834 1.791-1.863 1.791-1.03 0-1.864-.802-1.864-1.791 0-.99.834-1.791 1.864-1.791 1.029 0 1.863.802 1.863 1.79zm-.847-4.723c0 .99-.834 1.792-1.863 1.792-1.03 0-1.864-.802-1.864-1.792 0-.989.834-1.79 1.864-1.79 1.029 0 1.863.801 1.863 1.79m-5.76.326c0 .81-.682 1.466-1.524 1.466s-1.525-.656-1.525-1.466.683-1.465 1.525-1.465 1.524.656 1.524 1.465m-3.726-3.42c0 .72-.607 1.303-1.356 1.303-.748 0-1.355-.583-1.355-1.303 0-.719.607-1.302 1.355-1.302.749 0 1.356.583 1.356 1.302m-1.864 3.755c0 .81-.682 1.465-1.524 1.465s-1.525-.656-1.525-1.465c0-.81.683-1.466 1.525-1.466s1.524.656 1.524 1.466m-2.879-4.975c0 .584-.494 1.058-1.102 1.058s-1.1-.474-1.1-1.059.492-1.058 1.1-1.058 1.102.474 1.102 1.058zm-2.203 5.21c0 .585-.493 1.059-1.1 1.059-.609 0-1.102-.474-1.102-1.059s.493-1.058 1.101-1.058 1.101.473 1.101 1.058m-2.541 3.827c0 .54-.455.977-1.016.977s-1.017-.438-1.017-.977c0-.54.456-.977 1.017-.977s1.016.437 1.016.977m2.372 3.908c0 .45-.38.814-.847.814-.468 0-.847-.364-.847-.814s.38-.814.847-.814c.468 0 .847.364.847.814M23.35 20.912c0 .585-.493 1.058-1.101 1.058s-1.101-.473-1.101-1.058.492-1.059 1.1-1.059 1.102.474 1.102 1.059m-3.544 3.338c0 .54-.455.977-1.016.977s-1.016-.437-1.016-.977.455-.977 1.016-.977 1.016.438 1.016.977m-1.369 4.26c0 .494-.417.895-.931.895-.515 0-.932-.4-.932-.895s.417-.896.931-.896c.515 0 .932.401.932.896m1.355 4.534c0 .45-.379.814-.847.814s-.847-.365-.847-.814c0-.45.38-.815.847-.815.468 0 .847.365.847.815m3.049 3.419c0 .405-.34.733-.762.733-.42 0-.762-.328-.762-.733s.341-.732.762-.732.762.328.762.732m4.744 1.065c0 .36-.304.65-.678.65a.665.665 0 0 1-.677-.65c0-.36.303-.652.677-.652s.678.292.678.652m4.573-1.39c0 .27-.227.488-.508.488a.5.5 0 0 1-.508-.488c0-.27.228-.489.508-.489s.508.219.508.489m5.675 1.14a.25.25 0 0 1-.254.244.25.25 0 0 1-.254-.244.25.25 0 0 1 .254-.245c.14 0 .254.11.254.245m.262-8.631c0 .99-.834 1.791-1.863 1.791-1.03 0-1.864-.802-1.864-1.791 0-.99.834-1.791 1.864-1.791 1.029 0 1.863.802 1.863 1.79zm1.348-8.631c0 .99-.835 1.792-1.864 1.792s-1.863-.802-1.863-1.792.834-1.791 1.863-1.791c1.03 0 1.864.802 1.864 1.791m-4.066-2.931c0 .81-.683 1.466-1.525 1.466s-1.524-.656-1.524-1.466.682-1.466 1.524-1.466c.843 0 1.525.657 1.525 1.466m-2.362 11.562c0 .81-.683 1.466-1.525 1.466s-1.524-.657-1.524-1.466c0-.81.682-1.466 1.524-1.466s1.525.656 1.525 1.466m-2.55-13.344c0 .72-.607 1.302-1.356 1.302-.748 0-1.355-.583-1.355-1.302S28.361 14 29.109 14c.749 0 1.355.583 1.355 1.303zm-4.913.154c0 .63-.531 1.14-1.186 1.14s-1.186-.51-1.186-1.14.531-1.14 1.186-1.14 1.186.51 1.186 1.14m-4.404 1.628c0 .63-.531 1.14-1.186 1.14s-1.186-.51-1.186-1.14.53-1.14 1.186-1.14 1.186.51 1.186 1.14m-3.728 2.931c0 .63-.53 1.14-1.185 1.14s-1.186-.51-1.186-1.14.531-1.14 1.186-1.14 1.186.51 1.186 1.14zm-2.879 3.924c0 .45-.38.815-.847.815-.468 0-.847-.365-.847-.814 0-.45.38-.814.847-.814.468 0 .847.364.847.814zm-.847 4.87c0 .45-.38.814-.847.814-.468 0-.847-.365-.847-.814 0-.45.38-.814.847-.814.468 0 .847.364.847.814m.678 4.396c0 .36-.304.652-.678.652a.665.665 0 0 1-.678-.651c0-.36.304-.652.678-.652s.678.292.678.651m2.202 4.234a.5.5 0 0 1-.508.489.5.5 0 0 1-.509-.489c0-.27.228-.488.509-.488.28 0 .508.219.508.488m3.896 2.769c0 .27-.228.488-.508.488a.5.5 0 0 1-.508-.488c0-.27.227-.489.508-.489a.5.5 0 0 1 .508.489m4.574 1.384c0 .225-.19.407-.424.407a.416.416 0 0 1-.423-.407c0-.225.19-.407.423-.407.234 0 .424.182.424.407m4.997 0c0 .225-.19.407-.424.407a.416.416 0 0 1-.423-.407c0-.225.19-.407.424-.407s.423.182.423.407m4.319-1.423c0 .18-.151.327-.338.327a.33.33 0 0 1-.339-.326c0-.18.152-.326.339-.326s.339.146.339.326z"/></svg>