<svg xmlns="http://www.w3.org/2000/svg" width="56" height="56"><path fill="#FF5C56" d="M0 0h56v56H0z"/><path fill="#00474A" d="M50 28a13 13 0 1 1-26 0 13 13 0 0 1 26 0"/><path fill="#FF5C56" d="M26.32 27.56C26.32 29 27.45 30 29 30c1.2 0 2.1-.72 2.42-1.73h-1.4c-.13.37-.6.6-1.02.6-.58 0-1.06-.33-1.06-.87h3.55c.14-1.41-.78-3-2.48-3 .02 0-.01 0 0 0-1.54 0-2.7 1.2-2.7 2.56Zm2.63-1.4c.48 0 .87.39.9.84h-1.91c.04-.46.53-.84 1-.84ZM31.63 25l1.52 2.37L31.5 30h1.63l.86-1.39.84 1.35.02.03h1.65l-1.69-2.66L36.33 25H34.7l-.7 1.12-.7-1.12zm4.94 0 .3 5h1.5l.3-5zm2.03 7a1 1 0 1 1-2 0 1 1 0 0 1 2 0m1.2-8.5v1.48H39v1.17h.8v2.6c0 .33.05.64.32.88.32.29.84.37 1.28.37.33 0 .67 0 .98-.09V28.6s-.46.04-.84.04a.13.13 0 0 1-.13-.13v-2.35h.98v-1.17h-.98V23.5zm5.53 1.5c-1.48 0-2.68.98-2.68 2.5 0 1.53 1.2 2.5 2.68 2.5 1.47 0 2.67-.97 2.67-2.5 0-1.51-1.2-2.5-2.67-2.5m-.01 1.17c.74 0 1.1.68 1.1 1.33 0 .66-.35 1.33-1.1 1.33-.74 0-1.09-.68-1.09-1.33 0-.67.3-1.33 1.09-1.33M29.16 23.5l-.82 1.06h1.02l1.37-1.06z"/><path fill="#00474A" d="M16.9 25.51c-.55 0-1.03.22-1.34.57v-.44H15v5.79h.56v-2c.31.35.8.57 1.33.57.66 0 1.22-.33 1.5-.81h.01c.06-.09.1-.18.14-.29l.01-.02.03-.11a3.86 3.86 0 0 0-.04-2.12v-.02c-.2-.65-.86-1.12-1.65-1.12Zm-.04.51c.6 0 1.09.4 1.22.93.08.24.13.53.13.84 0 .37-.06.7-.17.94l-.05.11-.01.03c-.2.39-.63.66-1.12.66-.35 0-.66-.13-.89-.35a1 1 0 0 1-.25-.35l-.04-.08v-.02a2 2 0 0 1-.06-.17l-.02-.04-.01-.04-.02-.05v-.05a3 3 0 0 1-.07-.6c0-.62.18-1.15.45-1.38l.02-.02c.23-.22.54-.36.89-.36m-5.7-.37v3.13c0 .83.74 1.22 1.5 1.22.47 0 1.08-.22 1.34-.78V30h.55v-4.35H14v2.53c-.01.17-.05.35-.1.53-.2.49-.68.83-1.2.81-.53-.01-.98-.37-.98-.86v-3.01zm-.16-.01c-.65 0-1.22.3-1.44.73v-.64H9V30h.56v-2.62c0-.83.82-1.16 1.44-1.21zm-4.21.06C5.65 25.7 5 26.84 5 27.9 5 29 5.62 30 6.79 30c.55 0 1.03-.26 1.33-.67v1.17c-.04.39-.56.69-1.2.69-.52 0-1.23-.24-1.25-.85h-.51c.01.75.8 1.35 1.76 1.35s1.74-.6 1.76-1.34v-4.62h-.56v.64c-.3-.4-.78-.67-1.33-.67m.07.48c.97 0 1.37.92 1.37 1.76 0 .44-.1.82-.26 1.01a1.3 1.3 0 0 1-1.11.62c-.93 0-1.37-.85-1.37-1.67 0-.83.42-1.72 1.37-1.72m14.12-.72c-.99 0-1.8.74-1.92 1.7a3.1 3.1 0 0 0 .1 1.54v.01l.02.07a1.93 1.93 0 0 0 3.5.18c.18-.27.29-.7.29-1.2 0-.3-.04-.57-.11-.8-.2-.86-.97-1.5-1.88-1.5m0 .46c.67 0 1.23.5 1.38 1.2a2.54 2.54 0 0 1-.12 1.61c-.24.5-.72.85-1.27.85-.6 0-1.1-.4-1.32-.99l-.02-.05v-.01l-.02-.07a2.5 2.5 0 0 1-.05-1.17c.09-.78.69-1.37 1.41-1.37Z"/></svg>