<svg xmlns="http://www.w3.org/2000/svg" width="56" height="56"><path fill="url(#a)" d="M0 0h56v56H0z"/><path fill="url(#b)" d="m21.545 26-.955 3.947h-1.05l.643-2.761h-.077l-1.728 2.54a.94.94 0 0 1-.438.248.9.9 0 0 1-.498-.018.53.53 0 0 1-.105-.301c-.167-.724-.325-1.449-.488-2.173-.025-.101-.061-.203-.122-.394l-.671 2.863h-.61L16.259 26h1.383l.642 2.918L20.244 26z"/><path fill="url(#c)" d="M38.599 26a.6.6 0 0 1 .248.136q.11.097.17.233a.7.7 0 0 1-.012.571c-.102.352-.228.695-.378 1.152.333.784-.334 1.872-1.301 1.876h-2.883c-.024 0-.049 0 0 0L35.187 26H38.6zm-1.062 2.215h-1.476a.3.3 0 0 0-.125.067.3.3 0 0 0-.082.12c-.09.308-.15.626-.232.995h.76c1.05 0 1.05 0 1.22-1.068-.016-.004-.028-.017-.065-.114m-1.289-1.605-.235 1.063h1.536a.3.3 0 0 0 .136-.064.3.3 0 0 0 .092-.123c.085-.275.134-.563.203-.872z"/><path fill="url(#d)" d="M8.306 26c.512.254.549.335.407.953-.15.699-.297 1.393-.468 2.088-.17.694-.427.923-1.13.927L4 29.977v-.085q.14-.196.224-.423c.138-.568.256-1.14.366-1.695.11-.554.203-1.185.305-1.774zm-2.354.606-.63 2.799H6.89c.093 0 .232-.17.26-.288.143-.555.256-1.118.378-1.694.057-.263.11-.53.171-.817z"/><path fill="url(#e)" d="M34.215 26c.496.263.537.335.407.927a90 90 0 0 1-.496 2.22.92.92 0 0 1-.297.593.85.85 0 0 1-.606.22c-1.081.025-2.159 0-3.228 0 .264-1.16.528-2.308.76-3.456q.045-.25.049-.504zm-2.997 3.388h1.476c.248 0 .334-.106.379-.33.097-.483.211-.957.313-1.44.073-.335.138-.674.211-1.034H31.85l-.63 2.804z"/><path fill="url(#f)" d="M25.359 26c.439.186.488.538.406.961-.162.712-.313 1.423-.48 2.118-.03.258-.155.494-.348.66a.95.95 0 0 1-.688.23h-2.314c-.528 0-.732-.276-.626-.822.154-.784.333-1.563.504-2.347.052-.198.155-.378.298-.52.144-.14.322-.238.515-.28zm-.635.614h-1.797l-.622 2.791h1.602a.3.3 0 0 0 .145-.073.35.35 0 0 0 .095-.134c.203-.856.382-1.703.578-2.584z"/><path fill="url(#g)" d="m30.478 26-.898 3.579-.09.36a.4.4 0 0 1-.09.025c-1.093.038-1.097.042-1.593-.974-.31-.635-.614-1.27-.972-2.012l-.663 2.965h-.601L26.335 26h1.301l1.411 2.922h.118l.5-2.922z"/><path fill="url(#h)" d="m52 26-1.83 1.368 1.057 2.58h-1.252l-.724-1.797c-.817.305-1.012 1-1.012 1.796h-1.15c.239-1.08.487-2.16.719-3.244q.05-.35.049-.703h1.3l-.512 1.758.114.072L50.943 26z"/><path fill="url(#i)" d="m47.613 26-.025.593h-1.984c-.106 0-.285.093-.305.174a66 66 0 0 0-.59 2.596h2.265l-.223.593h-2.505c-.496 0-.671-.314-.561-.847.15-.7.321-1.394.455-2.118.028-.24.128-.464.285-.642a1.1 1.1 0 0 1 .59-.349z"/><path fill="url(#j)" d="M10.742 26c-.155.487-.318.97-.456 1.47-.203.813-.366 1.634-.553 2.481H8.627c.252-1.135.513-2.278.752-3.422a2.2 2.2 0 0 0 0-.529z"/><path fill="url(#k)" d="M14.979 29.94h-.862c-.314-.924-.5-1.906-1.045-2.83-.269.348-.5.62-.7.916q-.495.696-.915 1.444a.78.78 0 0 1-.35.408.73.73 0 0 1-.52.075 3 3 0 0 0-.406 0c.175-.28.309-.5.447-.716.602-.932 1.22-1.86 1.81-2.8a.64.64 0 0 1 .302-.32.6.6 0 0 1 .43-.04c.229.085.42.258.532.483.443 1.101.842 2.215 1.277 3.38"/><path fill="url(#l)" d="M41.453 27.106c-.285.386-.525.686-.74 1.004a39 39 0 0 0-.79 1.224c-.43.686-.426.69-1.304.576q.044-.11.101-.212c.708-1.097 1.423-2.19 2.123-3.29a.7.7 0 0 1 .308-.29.68.68 0 0 1 .411-.058c.129.012.25.066.348.153a.65.65 0 0 1 .197.334c.407 1.11.814 2.22 1.22 3.312-.057.047-.077.076-.097.076-.683.047-.683.047-.911-.63-.18-.585-.387-1.148-.586-1.695a4 4 0 0 0-.28-.504"/><path fill="url(#m)" d="M12.768 29.823c-.138-.334-.273-.611-.384-.913a.4.4 0 0 1 .03-.285c.172-.294.364-.572.566-.885.047.1.081.165.108.23.418 1.009.418 1.009-.32 1.853"/><path fill="url(#n)" d="M41.39 27.74c.152.395.284.692.397 1.016a.43.43 0 0 1-.036.3c-.167.253-.354.486-.563.767-.136-.328-.264-.62-.374-.925a.4.4 0 0 1 .023-.273c.158-.284.348-.557.554-.885z"/><defs><linearGradient id="a" x1="10.418" x2="68.147" y1="9.712" y2="76.017" gradientUnits="userSpaceOnUse"><stop stop-color="#1A1E21"/><stop offset="1" stop-color="#06060A"/></linearGradient><linearGradient id="b" x1="18.496" x2="18.496" y1="26" y2="30" gradientUnits="userSpaceOnUse"><stop stop-color="#fff"/><stop offset="1" stop-color="#C7C7C7"/></linearGradient><linearGradient id="c" x1="36.744" x2="36.744" y1="26" y2="29.968" gradientUnits="userSpaceOnUse"><stop stop-color="#fff"/><stop offset="1" stop-color="#C7C7C7"/></linearGradient><linearGradient id="d" x1="6.392" x2="6.392" y1="26" y2="29.977" gradientUnits="userSpaceOnUse"><stop stop-color="#fff"/><stop offset="1" stop-color="#C7C7C7"/></linearGradient><linearGradient id="e" x1="32.34" x2="32.34" y1="26" y2="29.971" gradientUnits="userSpaceOnUse"><stop stop-color="#fff"/><stop offset="1" stop-color="#C7C7C7"/></linearGradient><linearGradient id="f" x1="23.54" x2="23.54" y1="26" y2="29.971" gradientUnits="userSpaceOnUse"><stop stop-color="#fff"/><stop offset="1" stop-color="#C7C7C7"/></linearGradient><linearGradient id="g" x1="28.024" x2="28.024" y1="26" y2="29.976" gradientUnits="userSpaceOnUse"><stop stop-color="#fff"/><stop offset="1" stop-color="#C7C7C7"/></linearGradient><linearGradient id="h" x1="49.544" x2="49.544" y1="26" y2="29.947" gradientUnits="userSpaceOnUse"><stop stop-color="#fff"/><stop offset="1" stop-color="#C7C7C7"/></linearGradient><linearGradient id="i" x1="45.633" x2="45.633" y1="26" y2="29.956" gradientUnits="userSpaceOnUse"><stop stop-color="#fff"/><stop offset="1" stop-color="#C7C7C7"/></linearGradient><linearGradient id="j" x1="9.684" x2="9.684" y1="26" y2="29.951" gradientUnits="userSpaceOnUse"><stop stop-color="#fff"/><stop offset="1" stop-color="#C7C7C7"/></linearGradient><linearGradient id="k" x1="12.58" x2="12.58" y1="26.055" y2="29.971" gradientUnits="userSpaceOnUse"><stop stop-color="#fff"/><stop offset="1" stop-color="#C7C7C7"/></linearGradient><linearGradient id="l" x1="40.973" x2="40.973" y1="26.05" y2="29.966" gradientUnits="userSpaceOnUse"><stop stop-color="#fff"/><stop offset="1" stop-color="#C7C7C7"/></linearGradient><linearGradient id="m" x1="12.87" x2="12.87" y1="27.74" y2="29.823" gradientUnits="userSpaceOnUse"><stop stop-color="#fff"/><stop offset="1" stop-color="#C7C7C7"/></linearGradient><linearGradient id="n" x1="41.3" x2="41.3" y1="27.74" y2="29.823" gradientUnits="userSpaceOnUse"><stop stop-color="#fff"/><stop offset="1" stop-color="#C7C7C7"/></linearGradient></defs></svg>