<svg xmlns="http://www.w3.org/2000/svg" width="56" height="56"><path fill="#294ED6" d="M0 0h56v56H0z"/><path fill="#fff" d="M10 27h4.47c.092-.713.276-1.334.53-2H8v12h2v-5h4v-2h-4zm8 0c.157-.75.504-1.63.95-2.244a5.2 5.2 0 0 1 1.667-1.484 5 5 0 0 1 2.112-.625c.74-.047 1.58.075 2.271.353.194-1.636.86-3.144 2.05-4.235 1.192-1.091 2.726-1.767 4.316-1.765s3.123.68 4.312 1.773C36.867 19.867 37.808 21.364 38 23c.894-.394 1.689-.543 2.656-.451s1.898.43 2.708.986a6 6 0 0 1 1.935 2.198c.46.887.68 2.277.701 2.886.02.608-.06 3.13-1 4.381h2c.839-1.295 1.008-2.821 1-4.381a8.4 8.4 0 0 0-.681-3.34 8.1 8.1 0 0 0-1.941-2.758 7.8 7.8 0 0 0-2.86-1.692 7.6 7.6 0 0 0-3.278-.33 8.77 8.77 0 0 0-3.148-4.007A8.3 8.3 0 0 0 31.319 15a8.3 8.3 0 0 0-4.76 1.536 8.78 8.78 0 0 0-3.114 4.037 7 7 0 0 0-5.03 1.772c-1.294 1.149-2.151 2.91-2.416 4.655zm0 1h-2v9h2z"/><path fill="#fff" d="M19 28h2l2 6 2-6h2l-3 9h-2zm19 9 2.356-4c-.184.04-.752.01-.94 0C37.663 32.914 36 31.589 36 29.233 36 26.734 37.894 25 40 25c2.074 0 4 1.639 4 4.217-.005.5-.095.996-.265 1.465a7 7 0 0 1-.67 1.32L40 37zm2-9.995c-1.264 0-2 1.071-2 1.995 0 1.194.865 2 2 2 1.247 0 2-1.125 2-2 0-1.158-.909-1.995-2-1.995M34 34c-.403.554-1.442 1-2.26 1-1.48 0-2.647-1.026-2.74-1.57h7c0-.375-.003-.672 0-1.014C36 30.3 34.274 28 31.538 28 28.881 28 27 30.178 27 32.553a4.3 4.3 0 0 0 .337 1.704c.227.54.562 1.032.986 1.446s.928.741 1.483.964 1.15.336 1.75.333c1.924 0 4.084-1.111 4.444-3zm-2.446-4c1.025 0 2.213.654 2.446 2h-5c.39-1.56 1.792-2 2.554-2"/></svg>