<svg xmlns="http://www.w3.org/2000/svg" width="56" height="56"><path fill="#F0F3FA" d="M0 0h56v56H0z"/><path fill-rule="evenodd" d="M18.77 14h18.7c.68 0 1.28.41 1.52 1.04l7.9 20.78A1.6 1.6 0 0 1 45.38 38H10.62a1.6 1.6 0 0 1-1.5-2.2l8.15-20.78c.24-.61.84-1.02 1.5-1.02m.8 1h17.08c.45 0 1.17.63 1.32 1.05l7.29 19.14c.26.7-.58 1.81-1.33 1.81H12.06c-.76 0-1.68-1.11-1.4-1.82l7.5-19.14c.16-.41.97-1.04 1.41-1.04"/><path fill="#D22827" d="m13.67 34 6.07-16h7l-.95 2h-2.25l-1.83 5h2.02l.35-1h7.27l1.45 4H22.7l.69-2h-2.05l-2.94 8zm22.98 0h5.02L35.7 18h-4.52l5.48 16Z"/></svg>