<svg xmlns="http://www.w3.org/2000/svg" width="56" height="56"><path fill="#181B1E" d="M0 0h56v56H0z"/><path fill="#F56446" d="M9.5 27H16l-1.79 3H9.5z"/><path fill="#C33224" d="M6 33.96V35l4-5-.5-3z"/><path fill="#F56446" d="M8.5 21H20l-1.93 3H8.5z"/><path fill="#C33224" d="M6 28.5V31l3-7-.5-3z"/><path fill="#fff" d="M19 28.12c0-2.28 1.8-4.12 4.02-4.12H26v2h-4v2h4v2h-4v2h-3zM27 24h3v2h-3zm0 4h3v2.02c0 1.1-.89 1.98-1.98 1.98H27zm8.35-4c-2.4 0-4.35 1.8-4.35 4s1.95 4 4.35 4H40v-2h-6v-2.75c0-.7.6-1.25 1.36-1.25H40v-2z"/><path fill="#fff" d="m50 32-3.2-6.53a2.52 2.52 0 0 0-4.6 0L39 32h2.95l2.55-5.2 2.55 5.2z"/></svg>