<svg xmlns="http://www.w3.org/2000/svg" width="56" height="56" fill="none"><path fill="#921535" d="M0 0h56v56H0z"/><path fill="#F68B1F" fill-rule="evenodd" d="M18.509 13h19.01C40.542 13 43 15.482 43 18.53v18.966C43 40.518 40.516 43 37.519 43H21v-2h16.357C39.166 41 41 39.115 41 37.361V18.665C41 16.858 39.166 15 37.357 15H18.644C16.834 15 15 16.884 15 18.665v11.088c-.837.756-1.217 1.538-1.892 2.428a.6.6 0 0 1-.108.135V18.53c0-3.049 2.484-5.53 5.509-5.53" clip-rule="evenodd"/><path fill="#fff" fill-rule="evenodd" d="M18 18.022c5.008.222 10.084 4.465 10.158 9.573.05-5.576 5.355-9.426 9.842-9.598v6.34c-3.247.1-7.338-.024-9.867 3.38-10.734 0-16.858 8.722-16.064 17.283h6.892c-.993-6.884 1.635-15.111 9.172-17.282 5.578 0 9.47 5.841 9.767 10.282h-6.346c-.099-3.503-.223-7.988-3.421-10.282-2.43-3.306-6.489-3.257-10.133-3.356z" clip-rule="evenodd"/></svg>