<svg xmlns="http://www.w3.org/2000/svg" width="56" height="56" fill="none"><path fill="#F0F3FA" d="M0 0h56v56H0z"/><path fill="#E3000F" d="M7 30v2l4-2zm7.222 0L7 33.888V37l13-7zm8.931 0L10 37h5.847L29 30zm9.002 0L19 37h5.847L38 30zm8.998 0L28 37h5.845L47 30zM50 30l-13 7h5.778L50 33.112zm-4 7h4v-2z"/><path fill="#123C8A" d="M35 23h-1v1h1zm1-2h2.5v5.5H42V28h-6zm7 0h6v1.5h-3.5V24H49v1h-3.5v1.5H49V28h-6zM7 21h6v1.5H9.5V24H13v1H9.5v3H7zm10.264 3H16.5v-1.5h.764c.382 0 .736.323.736.708 0 .387-.356.792-.736.792M19 25c.955-.189 1.5-.96 1.5-2 0-1.158-.515-2-1.661-2H14v7h2.5v-2.5L18 28h3zm4.5-4h3l2 7H26l-.263-1.399h-1.472L24 28h-2.5zm1.947 4L25 23l-.45 2z"/><path fill="#123C8A" d="M28.996 26.5H32.5l-2.934-2.34a1.83 1.83 0 0 1 1.259-3.156c.01-.01 4.175 0 4.175 0V22.5h-3.5l2.963 2.37a1.83 1.83 0 0 1-1.288 3.126c-.01.01-4.175 0-4.175 0V26.5"/></svg>