<svg xmlns="http://www.w3.org/2000/svg" width="56" height="56"><path fill="#00A63F" d="M0 0h56v56H0z"/><path fill="#fff" d="M24.714 27.98c0-1.132-.762-2.095-1.843-2.095H21.35v4.23h1.522c1.082.042 1.843-1.005 1.843-2.136zm2.083 0c0 2.384-1.603 4.02-3.886 4.02h-3.285a.26.26 0 0 1-.2-.084.3.3 0 0 1-.08-.21v-7.412a.3.3 0 0 1 .08-.21.27.27 0 0 1 .2-.084h3.285c2.281 0 3.886 1.592 3.886 3.98m9.496 2.16a1.12 1.12 0 0 0 .786-.355c.21-.22.33-.518.336-.83 0-.155-.029-.31-.085-.453a1.2 1.2 0 0 0-.243-.385 1.1 1.1 0 0 0-.365-.256 1.1 1.1 0 0 0-.43-.09 1.12 1.12 0 0 0-.785.354c-.21.221-.33.518-.336.83.04.635.52 1.185 1.122 1.185m-.32-4.14c.68 0 1.202.163 1.442.502v-2.249a.25.25 0 0 1 .067-.182.23.23 0 0 1 .173-.071h1.402a.22.22 0 0 1 .173.071.25.25 0 0 1 .067.182l-.032 7.492a.26.26 0 0 1-.067.182.22.22 0 0 1-.172.071h-1.402a.22.22 0 0 1-.173-.07.25.25 0 0 1-.067-.183l.032-.38a1.85 1.85 0 0 1-.636.478c-.242.11-.504.163-.767.157-1.402 0-2.724-1.184-2.724-3.045s1.322-2.954 2.683-2.954m14.302 6.984C49.921 34.283 49.137 35 47.921 35c-.667 0-1.333-.268-1.725-.672a.4.4 0 0 1-.082-.12.4.4 0 0 1-.035-.148.7.7 0 0 1 .078-.268l.51-.896a.3.3 0 0 1 .102-.102.24.24 0 0 1 .133-.03c.117 0 .157.044.274.133.18.161.4.255.628.269a.54.54 0 0 0 .357-.112.68.68 0 0 0 .23-.332l.158-.627h-.823a.3.3 0 0 1-.205-.094.4.4 0 0 1-.109-.22L46.04 26.49a.9.9 0 0 1-.039-.268c0-.134.079-.222.235-.222h1.607c.158 0 .235.134.275.314l.902 3.806h.077l.744-3.806c.039-.134.118-.314.275-.314h1.65c.157 0 .235.09.235.222a.9.9 0 0 1-.039.268zM10.646 30.76c-.68.919-1.762 1.239-2.724 1.239-2.281 0-3.927-1.683-3.927-4 0-2.24 1.803-4 4.127-4 1.723 0 3.126.72 3.77 2.12.08.16.12.44-.321.52l-1.242.197a.46.46 0 0 1-.48-.198 2.08 2.08 0 0 0-1.643-.84c-1.242 0-2.083.92-2.083 2.16 0 1.36 1.001 2.16 2.083 2.16.72 0 1.322-.28 1.722-.76H8.846a.274.274 0 0 1-.28-.281v-1.04a.273.273 0 0 1 .28-.28h3.326a.27.27 0 0 1 .28.28v3.683a.275.275 0 0 1-.28.28H11.01a.27.27 0 0 1-.28-.28v-.963m31.854-.617a1.12 1.12 0 0 0 .787-.355 1.24 1.24 0 0 0 .335-.83c0-.155-.028-.31-.085-.453a1.2 1.2 0 0 0-.243-.385 1.1 1.1 0 0 0-.364-.256 1.1 1.1 0 0 0-.43-.09 1.12 1.12 0 0 0-.786.354 1.24 1.24 0 0 0-.335.83c.04.635.52 1.185 1.121 1.185m-.32-4.14c.681 0 1.202.163 1.442.502v-2.249a.26.26 0 0 1 .068-.182.23.23 0 0 1 .172-.071h1.403a.22.22 0 0 1 .172.071.25.25 0 0 1 .068.182l-.032 7.492a.26.26 0 0 1-.068.182.22.22 0 0 1-.173.071h-1.4a.22.22 0 0 1-.173-.07.25.25 0 0 1-.068-.183l.032-.38a1.85 1.85 0 0 1-.636.478c-.242.11-.503.163-.766.157-1.403 0-2.725-1.184-2.725-3.045s1.322-2.954 2.684-2.954m-25.112 2.996c0-.155-.029-.31-.085-.453a1.2 1.2 0 0 0-.243-.385 1.1 1.1 0 0 0-.365-.256 1.1 1.1 0 0 0-.43-.09 1.12 1.12 0 0 0-.785.354c-.21.22-.33.518-.336.83 0 .314.118.615.329.837.21.223.495.347.793.347.297 0 .583-.124.793-.347a1.22 1.22 0 0 0 .329-.837m1.923 0c0 1.692-1.362 3.003-3.045 3.003s-3.045-1.354-3.045-3.003c0-1.692 1.362-2.997 3.045-2.997 1.723 0 3.045 1.306 3.045 2.997m10.928 1.143c.295-.006.577-.133.786-.354s.33-.518.335-.83c0-.155-.028-.31-.084-.453a1.2 1.2 0 0 0-.243-.385 1.1 1.1 0 0 0-.365-.256 1.1 1.1 0 0 0-.43-.09 1.12 1.12 0 0 0-.785.354c-.21.221-.33.518-.336.83.04.635.52 1.184 1.122 1.184m-.28-4.14c.64 0 1.16.164 1.402.545v-.17a.3.3 0 0 1 .08-.211.27.27 0 0 1 .2-.085h1.355a.22.22 0 0 1 .172.071.25.25 0 0 1 .068.183v5.202a.26.26 0 0 1-.068.182.23.23 0 0 1-.172.072h-1.355a.22.22 0 0 1-.172-.072.25.25 0 0 1-.068-.182v-.17c-.24.339-.76.635-1.402.635-1.403 0-2.725-1.184-2.725-3.045S28.321 26 29.722 26z"/></svg>