<svg xmlns="http://www.w3.org/2000/svg" width="56" height="56" fill="none"><path fill="#F0F3FA" d="M0 0h56v56H0z"/><circle cx="28" cy="28" r="17" fill="url(#a)"/><path fill="#fff" d="M36.768 35.807s-3.925-.19-8.766-.19c-4.844 0-8.767.19-8.767.19s3.923.19 8.767.19c4.841 0 8.766-.19 8.766-.19m-16.365 1.376s3.4.195 7.591.195c4.204 0 7.6-.195 7.6-.195S32.198 37 27.994 37c-4.191 0-7.59.183-7.59.183Zm13.102 1.633s-2.463-.19-5.503-.19-5.505.19-5.505.19 2.466.186 5.506.186 5.502-.186 5.502-.186m2.92-5.125h-1.03V35h-.2v-1.5h1.426V35h-.196zM18 24.208v5.889c0 1.345.29 2.296.708 2.903h2.699C20.899 32.42 20 31.318 20 29.575V22.66c0-1.345-.205-2.289-.627-2.892a12.3 12.3 0 0 0-1.812 2.548c.185.52.438 1.143.438 1.893Z"/><path fill="#fff" d="M17 32.996h1.297c-.41-.637-.806-1.58-.806-2.9v-5.888a5.6 5.6 0 0 0-.214-1.564A12.3 12.3 0 0 0 16 28.104c0 1.741.361 3.393 1 4.892m6-3.845v-7.296c0-2.398-.897-3.71-1.213-4.031a12 12 0 0 0-2.123 1.756c.46.63.938 1.632.938 3.078-.008.035-.008 2.768-.008 3.781v3.135c0 1.822.77 2.907 1.264 3.422h3.131a.5.5 0 0 0-.11-.07C24.853 32.91 23 31.814 23 29.152Zm15-4.943v3.158l.002.996v1.735c0 1.345-.298 2.296-.715 2.903H34.59c.51-.58 1.41-1.682 1.41-3.425V22.66c0-1.345.205-2.289.623-2.892.71.768 1.325 1.616 1.816 2.548-.187.52-.44 1.143-.44 1.893Z"/><path fill="#fff" d="M38.994 32.996h-1.291c.41-.637.806-1.58.806-2.9v-5.888c0-.602.084-1.117.209-1.564A12.3 12.3 0 0 1 40 28.104c0 1.741-.364 3.393-1.006 4.892m-6.2-3.845v-7.296c0-2.398 1.104-3.71 1.415-4.031a11.8 11.8 0 0 1 2.125 1.756c-.457.63-.935 1.632-.935 3.078.003.035.003 2.768.003 3.781v3.135c0 1.822-.769 2.907-1.26 3.422h-3.133a1 1 0 0 1 .11-.07c.03-.016 1.675-1.113 1.675-3.775m3.985 4.349h2.224l-.422 1.5h-1.802zm-1.657 0H17.074c.296.812.605 1.338.723 1.5h16.64v-.87z"/><defs><linearGradient id="a" x1="15.34" x2="35.609" y1="16.208" y2="42.784" gradientUnits="userSpaceOnUse"><stop stop-color="#1881B8"/><stop offset=".159" stop-color="#258CC1"/><stop offset=".398" stop-color="#145F9A"/><stop offset=".655" stop-color="#15528E"/><stop offset="1" stop-color="#2874B9"/></linearGradient></defs></svg>