<svg xmlns="http://www.w3.org/2000/svg" width="56" height="56" fill="none"><path fill="#F0F3FA" d="M0 0h56v56H0z"/><path fill="#112535" d="M35 33.126V28h-4v2h2v1.515c-.417.184-1.015.276-1.572.276-1.856 0-2.9-1.358-2.9-3.291 0-1.887 1.183-3.29 2.76-3.29.929 0 1.856.238 2.274.79L35 24.38c-.789-.828-2.32-1.38-3.804-1.38C28.273 23 26 25.163 26 28.477S28.18 34 31.242 34c1.531 0 2.83-.368 3.758-.874m8-6.734C43 23.872 41.399 23 39.386 23H36v11h2.5v-4h.84c1.921.049 3.66-1.04 3.66-3.608m-2 .049C41 27.506 39.98 28 39.157 28H38.5v-3h.703c.777 0 1.797.375 1.797 1.44ZM52 24c-1.067-.555-2.521-1-3.733-1C46.23 23 44 23.97 44 26.282c0 1.895 1.406 2.588 2.812 3.004 1.455.462 2.688.693 2.688 1.479 0 .832-.636 1.235-1.412 1.235-.873 0-3.555-.45-4.088-1.05V33c.727.693 1.988 1 3.588 1C49.77 34 52 32.937 52 30.487c0-2.08-2.133-2.68-3.636-3.142-1.067-.324-1.864-.555-1.864-1.248 0-.832 1.04-1.097 1.718-1.097.679 0 2.346.31 2.782.866zM7 27.51A1.75 1.75 0 0 0 5.747 27C4.76 27 4 27.851 4 29s.722 2 1.747 2A2.2 2.2 0 0 0 7 30.617V29H6v.34h.658v1.064a1.7 1.7 0 0 1-.911.256c-.874 0-1.398-.766-1.398-1.66s.524-1.66 1.398-1.66c.418 0 .797.17 1.025.426-.038 0 .228-.255.228-.255Zm2.22 1.85L10.492 31H11l-1.322-1.685c.561-.162.95-.63.95-1.214 0-.764-.667-1.101-1.306-1.101H8v4h.35v-1.64zm-.87-2.027h.87c.661 0 1.097.229 1.097.768 0 .494-.385.899-1.148.899H8.35zM13.5 31c1.227 0 1.5-.923 1.5-1.538V27h-.316v2.418c0 .615-.366 1.23-1.184 1.23s-1.148-.615-1.148-1.23V27H12v2.462c0 .659.318 1.538 1.5 1.538m2.5 0h.352v-1.64H17c.836 0 1.334-.537 1.334-1.256S17.786 27 17 27h-1zm.352-3.64h.703c.763 0 .945.352.945.744S17.764 29 17 29h-.648zM22.353 29c0-1.149-.688-2-1.668-2S19 27.851 19 29s.706 2 1.685 2c.941-.043 1.668-.851 1.668-2M22 29c0 .894-.491 1.66-1.315 1.66-.823 0-1.332-.766-1.332-1.66s.51-1.66 1.332-1.66c.824 0 1.315.766 1.315 1.66"/></svg>