<svg xmlns="http://www.w3.org/2000/svg" width="56" height="56" fill="none"><path fill="#F0F3FA" d="M0 0h56v56H0z"/><path fill="#0094D9" fill-rule="evenodd" d="M31.253 26c-.087 1.12-.245 2.257-.253 3.38-.008 1.065.502 1.664 1.681 1.62h.007c.881.001 1.696-.473 2.463-.87.747.641 1.683.869 2.653.87.632.003 2.5-.014 2.631-.894.03-.278.014-.24.058-.515a.256.256 0 0 0-.329-.281c-1.213.683-2.28.63-3.553.026 1.306-.722 3.093-1.7 4.389-2.59-.406-1.135-1.444-1.778-2.563-1.746-1.803-.04-3.86 1.128-4.024 3.08-.05.453.028.892.191 1.312-.228.118-.644.456-.901.447-.685-.024-.892-.733-.819-1.323L33.16 26l1.338.001c.108-.002.132-.053.14-.158l.067-.695c.02-.117.01-.143-.111-.147L33.248 25l.168-1.79c.008-.139-.006-.206-.158-.205L31.714 23c-.137-.007-.178.083-.203.203L31.35 25l-1.14-.001c-.124.146-.167.787-.21 1.001h1.254Zm10.399 3.163C41.544 30.35 41.834 31 43 31c1.78.002 1.845-1.048 2.707-1 1.227.085 2.057.959 3.32 1 1.03 0 2.583-.37 2.583-1.63 0-1.87-1.61-1.46-1.61-2.507 0-.695 1.066-.863 1.604-.863.146 0 .304.01.318-.177l.073-.476c.023-.16-.036-.25-.2-.272-.267-.037-.537-.076-.807-.077-1.09 0-2.761.318-2.874 1.676-.127 1.533 1.493 1.267 1.405 2.235-.05.505-.578.754-1.039.74-.39-.007-1.474-.107-1.839-.236L47 25.289c.013-.15.003-.272-.178-.289l-1.115-.002c-.15.007-.231.127-.25.277l-.26 2.932c-.029.718-.182 1.343-.927 1.309-.798.062-1.043-.69-.982-1.36l.26-2.916c.034-.183-.08-.232-.248-.24l-.877-.002a.42.42 0 0 0-.423.272zm-18.228-2.395c.107-1.166-.643-1.753-1.804-1.755-.937-.004-1.57.39-2.243.987-.424-.639-.991-1.013-1.815-.992-.814-.002-1.354.462-1.934.992-.575-.5-1.116-.972-1.901-.992a.207.207 0 0 0-.235.184L13 30.885a.11.11 0 0 0 .118.115l1.613.002a.12.12 0 0 0 .132-.117l.268-3.168c.03-.697.523-1.339 1.256-1.315.808-.064.954.689.894 1.363L17 30.884c-.006.066.03.118.134.116l1.584.002a.136.136 0 0 0 .144-.117l.285-3.163c.03-.697.611-1.338 1.344-1.315.807-.066 1.044.69.981 1.365l-.155 1.87c-.06.715.183 1.343.97 1.36.488.01 1.144-.375 1.916-.74q.079.109.175.201c.412.396.957.536 1.516.537.28.002.558-.052.824-.135 1.576-.503.146.133 2.134.135a.27.27 0 0 0 .318-.266l.33-3.743c.056-.502.045-1.187-.392-1.539-.507-.382-1.37-.453-1.994-.453-.62 0-1.242.084-1.863.13-.12.008-.205.046-.235.163l-.133.569a.152.152 0 0 0 .164.186c.436-.03.875-.05 1.313-.048.68 0 1.87-.104 1.695.98L28 27.47c-.02.152-.123.17-.245.109-.357-.244-.727-.578-1.16-.579-1.294-.055-2.742.978-2.675 2.393v.004c-.138.087-.767.517-.722.037.075-.82.15-1.844.226-2.665zm3.41 3.218c-.584.016-1.157-.443-1.092-1.056.06-.596.645-.934 1.217-.93.582-.01 1.097.381 1.04.992-.051.501-.5.994-1.166.994Zm12.207-3.018-2.982 1.596a2.4 2.4 0 0 1-.06-.625c.045-1.082 1.021-1.966 2.231-1.939.323.007 1.054.195 1.096.61.014.139-.084.272-.285.358" clip-rule="evenodd"/><path fill="#EC1C24" fill-rule="evenodd" d="M11.187 24H5.48a1 1 0 0 0-.975.885l-.501 5.23a.793.793 0 0 0 .809.885h5.707a1 1 0 0 0 .976-.885l.115-1.205c-.639.386-1.597.975-1.868 1.197-.417.343-.687.393-.687.393h-.655c-.205 0-.34-.1-.34-.274s.199-.287.199-.287 2.703-1.773 3.043-2.048a1.5 1.5 0 0 0 .476-.74l.022-.231c-.029-.282-.232-.92-1.027-.92-.55 0-.973.356-1.315.643-.23.194-.425.357-.596.357-.203 0-.376-.166-.58-.363-.294-.281-.653-.626-1.262-.637-.63-.012-1.226.539-1.226 1.175 0 .57.526.894 1.027 1.202.234.144.463.285.63.446.172.169.063.356.063.356s-.186.249-.5.423c-.321.175-.553-.105-.553-.105a8 8 0 0 0-.657-.539c-.612-.464-1.134-.86-1.134-1.808 0-1.216 1.323-2.15 2.478-2.15.833 0 1.302.52 1.563.81.101.112.172.19.22.19.05 0 .144-.082.278-.2.335-.291.917-.8 1.682-.8.451 0 .818.133 1.068.262l.036-.377a.793.793 0 0 0-.809-.885" clip-rule="evenodd"/></svg>