<svg xmlns="http://www.w3.org/2000/svg" width="56" height="56" fill="none"><path fill="#F0F3FA" d="M0 0h56v56H0z"/><path fill="url(#a)" d="M27 36h11v-2.5H27z"/><path fill="url(#b)" fill-rule="evenodd" d="M18 23.25A3.25 3.25 0 0 1 21.25 20H25v11.25A4.75 4.75 0 0 1 20.25 36H19v-2.5h1.25a2.25 2.25 0 0 0 2.25-2.25v-.246h-1.25a3.25 3.25 0 0 1-3.25-3.25zm4.5 5.254V22.5h-1.25a.75.75 0 0 0-.75.75v4.504c0 .415.336.75.75.75z" clip-rule="evenodd"/><path fill="url(#c)" d="M27 20v11h2.5v-8.5h1.788V31h2.5v-8.5h.962a.75.75 0 0 1 .75.75V31H38v-7.75A3.25 3.25 0 0 0 34.75 20z"/><path fill="url(#d)" fill-rule="evenodd" d="M12 17a5 5 0 0 1 5-5h22a5 5 0 0 1 5 5v22a5 5 0 0 1-5 5H17a5 5 0 0 1-5-5zm5-3h22a3 3 0 0 1 3 3v22a3 3 0 0 1-3 3H17a3 3 0 0 1-3-3V17a3 3 0 0 1 3-3" clip-rule="evenodd"/><defs><linearGradient id="a" x1="28" x2="28" y1="12" y2="44" gradientUnits="userSpaceOnUse"><stop stop-color="#4ADEFF"/><stop offset="1" stop-color="#0E8ED5"/></linearGradient><linearGradient id="b" x1="28" x2="28" y1="12" y2="44" gradientUnits="userSpaceOnUse"><stop stop-color="#4ADEFF"/><stop offset="1" stop-color="#0E8ED5"/></linearGradient><linearGradient id="c" x1="28" x2="28" y1="12" y2="44" gradientUnits="userSpaceOnUse"><stop stop-color="#4ADEFF"/><stop offset="1" stop-color="#0E8ED5"/></linearGradient><linearGradient id="d" x1="28" x2="28" y1="12" y2="44" gradientUnits="userSpaceOnUse"><stop stop-color="#4ADEFF"/><stop offset="1" stop-color="#0E8ED5"/></linearGradient></defs></svg>