<svg xmlns="http://www.w3.org/2000/svg" width="56" height="56"><path fill="#0D4D67" d="M0 28a28 28 0 1 1 56 0 28 28 0 1 1-56 0"/><path fill="#fff" fill-rule="evenodd" d="M26 17.77V24h-.32c-.32-2.08-1.98-6.12-6.44-6.31C13.66 17.45 13 25.37 13 28.5c0 2.77.42 9.6 6.59 9.9 1.33-.01 4.33-.67 4.41-3.13V32.5h-2V32h7v.5h-2v3.22c-.7 1-3.54 3.28-7.41 3.28C13.94 39 10 34.63 10 28.2c0-6.4 4.4-11.2 9.24-11.2.68-.04 2.54.24 4.46 1.75.57.43 1.7.9 1.98-.98zM39.47 17H30v.5h3v21h-3v.5h9v-.5h-3v-9.83c1.05.5 2.42.5 3.47.5 5.6-.59 6.68-4.52 6.51-6.41-.32-4.6-4.47-5.76-6.5-5.76Zm-.9.5H36v10.43c.33.27 1.27.7 2.34.72 1.35.04 4.88-.84 4.65-6.02-.19-4.14-3.02-5.17-4.42-5.13"/></svg>