<svg xmlns="http://www.w3.org/2000/svg" width="56" height="56"><path fill="url(#a)" d="M0 0h56v56H0z"/><path fill="#D2D3D5" d="M20 38h8v8h-8z"/><path fill="#fff" d="M28 38h8v8h-8z"/><path fill="#fff" fill-rule="evenodd" d="M18 11h9.82C31.55 10.93 39 12.8 39 20.91c0 8-4.6 12.09-10.77 12.09H20V13.78c0-.98-.8-1.78-1.8-1.78H18zm6 1h2.96c3.01-.1 9.04 1.83 9.04 10.38 0 5.98-3.13 9.62-7.37 9.62-1.9 0-4.63-.44-4.63-2.44z"/><defs><linearGradient id="a" x1="2.5" x2="51" y1="10.5" y2="42" gradientUnits="userSpaceOnUse"><stop stop-color="#1A326E"/><stop offset="1" stop-color="#0393D0"/></linearGradient></defs></svg>