<svg xmlns="http://www.w3.org/2000/svg" width="56" height="56" fill="none"><path fill="#6E93BE" d="M0 0h56v56H0z"/><path fill="#fff" d="m25.618 26.869.14 1.131h1.995v-.349l-.23-.39V19l-2.249.155v.196l.248.391v2.295c-.167-.534-.376-.822-1.054-.822-1.38 0-2.468 1.173-2.468 3.418C22 26.903 23.036 28 24.48 28c.728.005.946-.321 1.138-1.131m-.742-5.193c.678 0 .651.978.651 2.962 0 2.061.04 2.898-.651 2.898-.587 0-.876-.549-.876-2.87 0-2.285.289-2.99.876-2.99M30 33.235c0-1.32-.626-1.997-1.7-1.997-.69 0-1.04.286-1.296.86V29l-2.256.2v.195l.255.391v7.674l-.255.392V38h2.512v-.148l-.256-.392v-4.408c0-.745.147-1.174.618-1.174.396 0 .378.326.378.86v4.722l-.256.392V38h2.497v-.148L30 37.46zm4.32.562-1.114-.64c-.626-.354-.87-.521-.87-.953 0-.509.308-.795.843-.795.511 0 .78.261 1.086 1.031l.268.56H35v-1.771c-.614-.13-1.12-.229-1.555-.229-1.521 0-2.43.75-2.43 1.952 0 .757.351 1.41 1.066 1.8l1.125.612c.64.354.794.665.794 1.214 0 .652-.25 1.043-.865 1.043-.651 0-1.01-.444-1.432-1.748l-.18-.509H31v2.413c.934.17 1.548.223 1.98.223 1.765 0 2.467-.94 2.467-2.114.01-.94-.388-1.658-1.128-2.09M37 22.98c0-1.32-.33-1.98-1.354-1.98-.779 0-1.393.412-1.611 1.08-.244-.693-.742-1.08-1.51-1.08-.726 0-1.296.322-1.525.909v-.777l-2.273.255v.196l.273.313v5.546l-.273.39V28h2.546v-.167L31 27.442v-4.544c0-.73.189-1.002.504-1.002s.496.238.496.695v4.853l-.232.391V28h2.516v-.167L34 27.442v-4.618c0-.73.254-.928.499-.928s.501.188.501.645v4.903l-.28.389v.165l2.518.002v-.167L37 27.442zm-27.672.39.672.6v3.522c0 .031.002.09-.177.09C8.43 27.582 8 26.29 8 23.512c0-2.726.725-4.07 1.838-4.07.626 0 .758.456 1.092 1.462L11.29 22H12v-2.817A12 12 0 0 0 9.98 19C7.155 19 6 20.537 6 23.54 6 26.33 7.061 28 9.872 28c.69 0 1.233-.062 2.127-.233V23h-2.67zm11.935 4.463L21 27.442V19l-2.23.155v.196l.23.391v7.697l-.23.391V28h2.493zm-10.686 4.973-1.292-.743c-.678-.39-1.022-.86-1.022-1.462 0-.692.447-1.148 1.201-1.148.69 0 1.05.404 1.393 1.487l.345 1.06H12v-2.823c-.857-.118-1.577-.177-2.037-.177-2.044 0-3.273.947-3.273 2.487 0 1.018.539 1.692 1.521 2.227l1.278.704c.742.404 1.086.926 1.086 1.645 0 .888-.55 1.553-1.317 1.553-.727 0-1.15-.6-1.713-2.44l-.255-.795h-.614v3.43c.793.143 1.636.189 2.211.189 2.096 0 3.285-.971 3.285-2.744.002-1.151-.509-1.826-1.595-2.45m11.504 4.536c-.779 0-1.086-.744-1.086-2.778 0-2.518.408-3.198.934-3.198.332 0 .523.274.83 1.317l.256.835h.602V31.3c-.538-.22-1.177-.301-1.649-.301C20.192 31 19 32.239 19 34.496 19 36.688 20.037 38 21.688 38c1.035 0 1.585-.517 1.98-1.663l-.307-.17c-.346.862-.754 1.175-1.28 1.175M15.702 21C14.206 21 13 22.285 13 24.517S14.208 28 15.702 28c1.509 0 2.718-1.254 2.718-3.486.003-2.23-1.21-3.514-2.718-3.514m0 6.651c-.575 0-.706-.667-.706-3.132s.131-3.09.706-3.09c.587 0 .718.622.718 3.088 0 2.465-.128 3.134-.718 3.134M18 33.012C18 31.733 17.069 31 15.612 31c-.666 0-1.86.184-2.612.42v2.126h.6l.425-1.015c.331-.86.987-1.137 1.398-1.137.474 0 .577.339.577 1.137v.965l-.693.313c-1.764.718-2.566 1.608-2.566 2.676 0 1.096.65 1.513 1.648 1.513.715 0 1.405-.354 1.611-.94v.94l2.12.002v-.356l-.12-.419zm-2 3.105c0 .68-.35 1.022-.693 1.022-.638 0-.72-.32-.72-1.076 0-1.098.274-1.722 1.231-2.048l.182-.103zm34-13.12c0-1.32-.627-1.997-1.701-1.997-.715 0-1.317.3-1.533.94l-.052-.782h-.152l-1.816.22v.196l.256.314v5.528l-.256.39V28h2.512v-.196l-.256-.39v-4.6c0-.746.075-1.175.559-1.175.383 0 .439.326.439.86v4.914l-.24.391V28h2.44v-.196l-.2-.39zm-6.5.046c0-1.28-.903-2.043-2.372-2.043-.651 0-1.85.215-2.605.45v2.127h.575l.408-1.056c.331-.86.575-1.096.985-1.096.486 0 1.009.339 1.009 1.136v.953l-1.122.326C38.614 24.557 38 25.237 38 26.305c0 1.096.693 1.695 1.688 1.695.715 0 1.798-.305 2.005-.892V28h1.956v-.325l-.149-.417zm-2 3.107c0 .68-.365 1.108-.8 1.108-.422 0-.7-.431-.7-1.213 0-1.019.746-1.776 1.5-2.102z"/></svg>