<svg xmlns="http://www.w3.org/2000/svg" width="56" height="56"><path fill="#292775" d="M0 0h56v56H0z"/><path fill="#fff" d="m19.2 37.472.023.021h-.035l.011-.02zm-3.748-6.17a12.94 12.94 0 0 0 3.747 6.17 47 47 0 0 1 5.235-8.124 8.79 8.79 0 0 1-5.411-4.531A6.71 6.71 0 0 1 19.834 18c-2.051 1.45-3.325 3.815-4.194 6.106a12.2 12.2 0 0 0-.188 7.195zM36.124 18a12.4 12.4 0 0 1 3.358 3.862 12.1 12.1 0 0 1 1.483 4.86c.216 3.35-.538 7.078-2.993 9.598-.421.435-.842.859-1.292 1.26q-.363-.65-.718-1.297c-.549-1-1.096-1.997-1.708-2.993a39 39 0 0 0-2.923-3.922 9 9 0 0 0 3.265-1.664 8.8 8.8 0 0 0 2.306-2.81 6.6 6.6 0 0 0 .577-3.542 6.64 6.64 0 0 0-1.366-3.33zm-.242 19.947c.18.34.168.374-.133.575-.137.09-.253.173-.362.25a9 9 0 0 1-.398.272q-.84.524-1.74.942a12.4 12.4 0 0 1-3.682.925 13 13 0 0 1-5.057-.401A12.9 12.9 0 0 1 20 38.206a33 33 0 0 1 2.273-3.98 52 52 0 0 1 4.54-5.888q.192-.213.382-.428c.272-.308.543-.616.836-.91a46 46 0 0 1 4.407 5.17c.678.913 1.275 1.889 1.873 2.871.356.586.659 1.154.96 1.72.205.383.409.765.629 1.152z"/><path fill="#fff" d="M13.418 28.04a14.582 14.582 0 1 0 29.164 0 14.582 14.582 0 0 0-29.163 0zM12 28a16 16 0 1 1 32 0 16 16 0 0 1-32 0"/></svg>