<svg xmlns="http://www.w3.org/2000/svg" width="56" height="56"><path fill="#FF7A59" d="M0 0h56v56H0z"/><path fill="#fff" d="M35.804 23.536v-3.81c.51-.236.943-.61 1.247-1.078a2.9 2.9 0 0 0 .469-1.567v-.088c0-.779-.314-1.525-.872-2.075a3 3 0 0 0-2.104-.86h-.09c-.789 0-1.546.31-2.104.86a2.91 2.91 0 0 0-.872 2.075v.088c.003.556.166 1.1.47 1.567.303.469.736.842 1.247 1.078v3.81a8.5 8.5 0 0 0-4.008 1.74l-10.6-8.14q.112-.405.12-.824a3.27 3.27 0 0 0-.563-1.838 3.34 3.34 0 0 0-1.502-1.22 3.4 3.4 0 0 0-1.938-.191 3.36 3.36 0 0 0-1.718.902c-.47.462-.79 1.05-.92 1.691a3.26 3.26 0 0 0 .188 1.911 3.3 3.3 0 0 0 1.233 1.486c.55.364 1.199.558 1.862.56A3.35 3.35 0 0 0 17 19.17l10.439 8.007a8.25 8.25 0 0 0-1.405 4.714 8.26 8.26 0 0 0 1.534 4.676l-3.175 3.13a2.8 2.8 0 0 0-.794-.128c-.544 0-1.076.16-1.529.459a2.72 2.72 0 0 0-1.014 1.219 2.7 2.7 0 0 0-.156 1.568 2.7 2.7 0 0 0 .754 1.39 2.79 2.79 0 0 0 3 .589 2.75 2.75 0 0 0 1.236-1 2.7 2.7 0 0 0 .465-1.507 2.7 2.7 0 0 0-.129-.783l3.141-3.096a8.5 8.5 0 0 0 3.482 1.565 8.6 8.6 0 0 0 3.825-.105 8.5 8.5 0 0 0 3.388-1.754 8.36 8.36 0 0 0 2.259-3.046 8.24 8.24 0 0 0-.392-7.341 8.4 8.4 0 0 0-2.57-2.796 8.5 8.5 0 0 0-3.555-1.395m-1.302 12.532a4.4 4.4 0 0 1-2.413-.724 4.3 4.3 0 0 1-1.598-1.923 4.23 4.23 0 0 1-.246-2.475 4.26 4.26 0 0 1 1.19-2.192 4.37 4.37 0 0 1 2.224-1.172 4.4 4.4 0 0 1 2.51.244 4.33 4.33 0 0 1 1.95 1.577 4.24 4.24 0 0 1 .732 2.379 4.25 4.25 0 0 1-1.272 3.03 4.38 4.38 0 0 1-3.073 1.254"/></svg>