<svg xmlns="http://www.w3.org/2000/svg" width="56" height="56"><path fill="#F0F3FA" d="M0 0h56v56H0z"/><path fill="#00617F" d="M11.5 20H9v13h2.5v-7h2.62c.76 0 1.38.66 1.38 1.48V33H18v-4.95c0-1.69-1.28-3.05-2.85-3.05H11.5zM22 26v-1h2.94c1.69 0 3.06 1.36 3.06 3.05V33h-5.82C20.6 33 19 31.88 19 30.5s1.61-2.5 3.18-2.5h3.32v-.52c0-.82-.85-1.48-1.88-1.48zm3.5 3h-1.82c-1.15 0-2.18.49-2.18 1.5s1.03 1.5 2.18 1.5h1.82zM42 26v-1h2.94c1.69 0 3.06 1.36 3.06 3.05V33h-5.83C40.61 33 39 31.88 39 30.5s1.61-2.5 3.17-2.5h3.33v-.52c0-.82-.85-1.48-1.88-1.48zm3.5 3h-1.83c-1.14 0-2.17.49-2.17 1.5s1.03 1.5 2.17 1.5h1.83z"/><path fill="#00617F" fill-rule="evenodd" d="M33.26 25C30.9 25 29 26.8 29 29s1.9 4 4.26 4h2.24v1.25c0 1.59-1.32 2.75-2.89 2.75H32v1h1.86A4.16 4.16 0 0 0 38 33.81V25zm2.24 1h-1.38c-1.83 0-2.62 1.28-2.62 3s.79 3 2.62 3h1.38z"/></svg>