<svg xmlns="http://www.w3.org/2000/svg" width="56" height="56"><path fill="#001841" d="M0 0h56v56H0z"/><path fill="#fff" d="M8 21h2v7.49l8-3.46V21h2v14h-2v-7.49l-8 3.46V35H8z"/><path fill="#fff" fill-rule="evenodd" d="M22 21h7.1a4 4 0 0 1 3.03 6.61A4 4 0 0 1 30 35h-8zm2 8v4h6a2 2 0 0 0 0-4zm0-6h5a2 2 0 1 1 0 4h-5z"/><path fill="#fff" d="M43 21h-7v14h2v-4h4.16c.93 1.4 1.93 2.51 2.7 3.09.77.59 1.56.91 2.25.91H48v-2.04h-.87c-.05-.01-.3-.08-.73-.4a8.6 8.6 0 0 1-1.7-1.85A5 5 0 0 0 43 21m-5 8v-6h5a3 3 0 1 1 0 6z"/></svg>