<svg xmlns="http://www.w3.org/2000/svg" width="56" height="56" fill="none"><path fill="#F0F3FA" d="M0 0h56v56H0z"/><path fill="url(#a)" fill-rule="evenodd" d="M28.311 15.612c4.113.737 8.984 3.13 9.608 7.514 1.083-1.676 2.03-3.875 2.079-5.882a5.4 5.4 0 0 0-.23-1.764c-.413-1.311-1.365-2.265-2.833-2.84a8.7 8.7 0 0 0-3.156-.638 5.73 5.73 0 0 0-3.31.944 5.66 5.66 0 0 0-2.158 2.666M25.675 27.01c.28-.21.597-.361.936-.448l.045-.328.01-.073.004-.02a56 56 0 0 0-2.956-.49 7.3 7.3 0 0 0-2.823 1.138c-2.39 1.66-2.344 4.176-1.854 6.041l.011-.006.005-.003.02-.01a15 15 0 0 1 4.51-1.446 2.1 2.1 0 0 1 .739-1.404c.015-1.323.446-2.264 1.353-2.951m1.39 3.575a2.6 2.6 0 0 1-.336-.628 5 5 0 0 0-.6-.039 2.54 2.54 0 0 0-1.37.331q.008.51.077 1.018a8.4 8.4 0 0 0 2.23-.682Zm2.101.172a1.9 1.9 0 0 1-.782.188 1.14 1.14 0 0 1-.725-.247l.047-.027.043-.024q.229-.14.432-.313.504.186.985.423m-5.118.604q.019-.117.054-.231.079-.271.246-.499.024.313.075.695-.188.023-.375.035m3.713-1.18a6 6 0 0 0-.593-.152q.09.207.224.386.2-.113.377-.231zm-3.084 2.8a1.5 1.5 0 0 1-.329-.287 1.46 1.46 0 0 1-.331-.983q.212-.009.455-.03.046.298.093.592.049.291.091.575l.02.134Zm.392-4.524a4.3 4.3 0 0 0-.287 1.24 2.8 2.8 0 0 1 1.06-.185q.389.003.77.066a7.7 7.7 0 0 1-.055-2.577 2.77 2.77 0 0 0-1.488 1.456m3.077-12.337c4.424.755 9.18 3.13 9.394 7.567-.262.366-.538.717-.817 1.039-2.125 2.468-5.113 5.507-6.077 6.48-.21-.134-.447-.273-.692-.405q.22-.142.422-.306c.496-.403 1.587-1.445 1.013-2.434-.838-1.437-2.974-1.986-4.244-2.19.068-1.142.366-5.819.884-9.18q.044-.288.117-.571m7.257 19.156a233 233 0 0 0-4.67-3.56c-1.738 1.29-3.337 1.947-4.75 1.947q-.138 0-.275-.01a2.5 2.5 0 0 1-.503-.082c.3 1.33.712 2.633 1.234 3.893 1.084.311 2.205.527 3.333.535 1.82-.001 4.264-.522 5.631-2.723M38 39.153a5 5 0 0 1-.3 1.539c-.549 1.526-2.257 3.31-4.636 3.308a5.4 5.4 0 0 1-2.4-.602c-1.282-.634-2.862-2.79-4.053-5.524 1.064.287 2.162.436 3.265.443 1.89 0 4.431-.483 5.886-2.759q.347.275.668.537c.914.741 1.604 1.843 1.57 3.058M15.354 34c1.142-.023 2.266-.502 3.3-.985-.465-1.669-.822-4.63 1.729-6.4.69-.479 1.45-.85 2.252-1.1a18 18 0 0 1-1.329-.23c-.697-.14-1.395-.279-2.095-.285-2.93-.035-6.439 1.59-7.116 4.796-.472 2.236.923 4.204 3.258 4.204Zm10.42-.728a2.3 2.3 0 0 1-.643-.085c-.04-.291-.09-.586-.137-.87l-.004-.027-.018-.11q-.046-.272-.087-.545a8 8 0 0 0 2.44-.757 1.54 1.54 0 0 0 1.11.45 2.6 2.6 0 0 0 1.181-.33q.405.224.748.444a9.8 9.8 0 0 1-3.392 1.65c-.39.11-.793.17-1.198.18m3.293-5.201a1.1 1.1 0 0 0-.321-.813 1.8 1.8 0 0 0-1.267-.446 2.2 2.2 0 0 0-.455.043c-.16.93-.152 1.881.021 2.809q.517.12 1.02.298a2.44 2.44 0 0 0 1.002-1.891m-1.955-1.833c1.251.197 2.885.671 3.798 1.812.414.518.17 1.197-.726 2.021q-.309.286-.671.505c-.36-.177-.72-.338-1.073-.474.57-.557 1.125-1.37 1.09-2.124a1.3 1.3 0 0 0-.555-1.011 2.65 2.65 0 0 0-1.594-.51q-.153 0-.305.015z" clip-rule="evenodd"/><defs><linearGradient id="a" x1="40" x2="17.349" y1="22.5" y2="32.306" gradientUnits="userSpaceOnUse"><stop stop-color="#1F6A96"/><stop offset=".631" stop-color="#71B3E5"/></linearGradient></defs></svg>