<svg xmlns="http://www.w3.org/2000/svg" width="56" height="56"><path fill="#181B1E" d="M0 0h56v56H0z"/><path fill="#00A0D7" d="M50 31h-2v2h2z"/><path fill="#fff" d="M14.97 29.05A3.07 3.07 0 0 0 11.82 26c-.8 0-1.33.15-1.82.43V22H8v11h2v-3.7c0-.71.77-1.3 1.49-1.3.72.03 1.51.61 1.51 1.32V33h2zm5.69 1.69c-.32.3-.7.44-1.13.44-.68 0-1.41-.5-1.53-1.18h4.95c.02-.17.05-.34.05-.51A3.4 3.4 0 0 0 19.53 26 3.43 3.43 0 0 0 16 29.34v.17A3.49 3.49 0 0 0 19.53 33c.98 0 1.93-.35 2.61-1.08zm-1.13-3.02A1.6 1.6 0 0 1 21 29h-3c.17-.64.75-1.3 1.53-1.28m25.13 3.02c-.32.3-.7.44-1.13.44-.68 0-1.41-.5-1.53-1.18h4.95c.02-.17.05-.34.05-.51A3.4 3.4 0 0 0 43.53 26 3.43 3.43 0 0 0 40 29.34v.17A3.49 3.49 0 0 0 43.53 33c.98 0 1.93-.35 2.61-1.08zm-1.13-3.02A1.6 1.6 0 0 1 45 29h-3c.17-.64.75-1.3 1.53-1.28M39 26h-1.26l-.74.75a2.55 2.55 0 0 0-1.93-.74C33.4 26 32 27.26 32 29.42c0 2.2 1.4 3.58 3.07 3.58.72.03 1.4-.23 1.93-.75v1.1c0 .98-.5 1.65-1.58 1.65-.5 0-.98-.18-1.36-.57l-1.15 1.52A3.5 3.5 0 0 0 35.5 37c1.74 0 3.5-1.29 3.5-3.42zm-3.54 5c-.86 0-1.46-.52-1.46-1.58 0-1.03.58-1.42 1.46-1.42.9 0 1.56.55 1.54 1.5 0 1-.67 1.5-1.54 1.5M31 33V22h-2v4.73a2.6 2.6 0 0 0-1.94-.73C25.4 26 24 27.34 24 29.44c0 2.13 1.4 3.56 3.06 3.56.72.02 1.4-.23 1.94-.73l.58.73zm-3.52-2c-.87 0-1.48-.56-1.48-1.58 0-1 .59-1.7 1.48-1.7.86 0 1.52.74 1.52 1.65v.02c0 1.11-.66 1.58-1.52 1.61"/></svg>