<svg xmlns="http://www.w3.org/2000/svg" width="56" height="56"><path fill="#F0F3FA" d="M0 0h56v56H0z"/><path fill="#194632" d="M12 13h32v30H12z"/><path fill="url(#a)" d="M20 36.5c0 1.2-.64 2.5-2 2.5s-2-1.3-2-2.5c0-1.21.64-2.5 2-2.5s2 1.3 2 2.5m-1 0c0-.69-.16-1.5-1-1.5s-1 .81-1 1.5.16 1.5 1 1.5 1-.81 1-1.5m2-2.5v1h1.5v4h1v-4H25v-1zm5 0h1v2h2v-2h1v5h-1v-2h-2v2h-1zm14 5h-1l-2-3.15V39h-1v-5h1l2 3.14V34h1zm-7 0c1.36 0 2-1.3 2-2.5s-.64-2.5-2-2.5-2 1.29-2 2.5c0 1.2.64 2.5 2 2.5m0-4c.84 0 1 .81 1 1.5s-.16 1.5-1 1.5-1-.81-1-1.5.16-1.5 1-1.5"/><defs><linearGradient id="a" x1="17" x2="39" y1="36.5" y2="36.5" gradientUnits="userSpaceOnUse"><stop stop-color="#BD963A"/><stop offset=".27" stop-color="#FCD75B"/><stop offset=".71" stop-color="#FAD45A"/><stop offset="1" stop-color="#C29B3C"/></linearGradient></defs></svg>