<svg xmlns="http://www.w3.org/2000/svg" width="56" height="56"><path fill="#3C509E" d="M0 0h56v56H0z"/><path fill="#fff" d="M27.928 29.642c-.658.326-.994.406-1.525.406-.746 0-1.47-.612-1.47-1.574 0-1.003.687-1.605 1.514-1.605.453 0 .872.086 1.296.326.042.027.078.034.078-.02v-1.058c-.18-.07-.834-.245-1.522-.245-1.614 0-2.741 1.118-2.741 2.602 0 1.482 1.11 2.6 2.788 2.6.803 0 1.43-.19 1.654-.304v-1.099c0-.053-.044-.053-.072-.029M38.36 28c.012-.31.306-1.18 1.06-1.18.889 0 1.06.9 1.06 1.18zm3.145 1.642a3.56 3.56 0 0 1-1.856.495c-.998 0-1.32-.724-1.32-1.137h3.454v-.298c0-1.48-.744-2.753-2.363-2.753-1.551 0-2.468 1.246-2.468 2.654 0 1.43 1.11 2.47 2.639 2.47 1.048 0 1.73-.29 2.001-.397V29.67c0-.052-.054-.052-.087-.028M14.656 31H16v-7h-1.344z"/><path fill="#fff" d="M36.425 29.888c-.433.196-1.016.202-1.218.052-.135-.1-.207-.276-.207-.521L35.01 27h1.408v-1H35v-1.676c0-.034-.025-.045-.054-.037l-1.296.642c.885 3.722-.26 7.803-3.164 10.707-4.452 4.451-11.67 4.451-16.123 0-4.452-4.452-4.452-11.67 0-16.122a11.39 11.39 0 0 1 10.72-3.023l.023-.084a12 12 0 0 0-11.592 3.107c-4.685 4.686-4.685 12.284 0 16.97 4.687 4.687 12.285 5.1 16.972.414 1.787-1.787 3.03-4.058 3.454-6.368q.059.07.131.131c.427.356 1.445.428 2.354.186zc.02-.015 0-.028 0 0"/><path fill="#fff" d="M42.486 19.515c-4.687-4.686-12.284-4.686-16.972 0-1.969 1.969-3.108 4.974-3.423 7.538-.295-.498-.79-.767-1.61-.767-.597 0-1.096.334-1.481.682v-.472h-1.303v4.501H19v-3.021c.202-.22.623-.711 1.16-.711.534 0 .84.37.84.756v2.976h1.365c-.649-3.557.399-7.883 3.149-10.633 4.453-4.453 11.67-4.453 16.123 0 4.453 4.45 4.453 11.67 0 16.122a11.39 11.39 0 0 1-10.72 3.023l-.023.084a12 12 0 0 0 11.592-3.107c4.686-4.686 4.686-12.284 0-16.97z"/><path fill="#fff" d="m32.056 26-1.218 2.412L29.648 26H28.34l1.872 3.653L28.522 33h1.284l3.534-7z"/></svg>