<svg xmlns="http://www.w3.org/2000/svg" width="56" height="56"><path fill="url(#a)" d="M0 0h56v56H0z"/><path fill="#00BE06" d="M44 21.259a.255.255 0 0 0-.252-.259H41.25a.256.256 0 0 0-.25.259v13.485c0 .144.113.256.25.256h2.498c.14 0 .252-.112.252-.256zm-14 0a.255.255 0 0 0-.252-.259H27.25a.256.256 0 0 0-.25.259v13.485c0 .144.113.256.25.256h2.498c.14 0 .252-.112.252-.256zm-8 11.538c0 .63-.387.907-.997.882-.592.024-1.003-.26-1.003-.883V23.22c0-.645.41-.876 1.003-.876.628 0 .99.215.997.876v9.578zM24.75 35h-.821c-.285 0-.438-.052-.457-.145.88-.338 1.528-.854 1.528-1.866v-9.943c0-2.017-2.451-2.41-4.027-2.39-1.524 0-3.973.403-3.973 2.388v9.946c.047 2.104 3.175 2.638 4.841 2.325.056 1.12.853 1.666 1.885 1.685h1.024c.138 0 .25-.116.25-.26v-1.487a.25.25 0 0 0-.25-.253m-10-13.997h-2.5a.25.25 0 0 0-.25.25v2.498c0 .14.112.252.25.252h2.5a.25.25 0 0 0 .25-.252v-2.499a.25.25 0 0 0-.25-.249m0 3.997h-2.5c-.137 0-.25.12-.25.267v9.467c0 .146.113.266.25.266h2.5c.138 0 .25-.12.25-.267v-9.466c0-.148-.112-.267-.25-.267m25.234-3.652a.255.255 0 0 0-.21-.345V21h-2.585a.25.25 0 0 0-.23.154v.001l-.006.017s-1.326 4.263-1.452 4.99c-.127-.727-1.45-4.99-1.45-4.99-.003-.004-.003-.01-.009-.017a.25.25 0 0 0-.229-.155h-2.586v.002a.255.255 0 0 0-.21.345l-.002.001L34 29.856v4.876c0 .143.107.268.246.268h2.509c.139 0 .245-.125.245-.268 0 .002 0-.004 0 0v-4.876zm3.443-3.428c-.242-.507-.657-1.016-1.121-1.327-1.712-1.144-10.712-1.556-12.307-1.581-.623-.01-1.278-.013-1.993-.012h-.033c-.01 0-1.403.002-2.025.012-1.597.024-10.596.437-12.308 1.581-.464.311-.88.82-1.12 1.327-.36.765-.497 1.475-.497 2.08h2.996c.009-.21.106-.438.35-.82.39-.613 1.132-.81 1.806-.907a67 67 0 0 1 7.707-.672c1.017-.028 3.08-.04 3.09-.04l.034-.001q1.53-.001 3.057.041c2.556.076 4.98.281 7.707.672.675.097 1.415.294 1.806.906.246.384.343.612.352.821h2.995c0-.605-.137-1.315-.496-2.08"/><path fill="#00BE06" d="M12.518 38.08c.241.507.656 1.016 1.121 1.327 1.712 1.144 10.711 1.557 12.307 1.581.622.01 1.277.013 1.992.012h.034c.01 0 1.403-.002 2.025-.012 1.596-.024 10.596-.437 12.307-1.581.464-.311.88-.82 1.121-1.327.36-.765.497-1.475.497-2.08h-2.996c-.01.21-.107.438-.35.82-.391.614-1.132.81-1.807.907a67 67 0 0 1-7.707.672c-1.017.029-3.08.04-3.09.04l-.034.001q-1.53.002-3.057-.041a67 67 0 0 1-7.706-.672c-.675-.097-1.416-.293-1.807-.906-.245-.383-.342-.612-.352-.821h-2.994c0 .605.136 1.315.495 2.08z"/><defs><linearGradient id="a" x1="10.418" x2="68.147" y1="9.712" y2="76.017" gradientUnits="userSpaceOnUse"><stop stop-color="#1A1E21"/><stop offset="1" stop-color="#06060A"/></linearGradient></defs></svg>