<svg xmlns="http://www.w3.org/2000/svg" width="56" height="56"><path fill="#0E23CA" d="M0 0h56v56H0z"/><path fill="#fff" fill-rule="evenodd" d="M27.321 20.5c0-.525.42-.934.919-.934s.919.41.919.934c0 .525-.42.934-.919.934a.927.927 0 0 1-.919-.934m.919-1.5a1.5 1.5 0 1 0 0 3 1.5 1.5 0 0 0 0-3M6.537 29H6v-6h.537zm20.927 6.52v.317h.715a.9.9 0 0 1-.051.317.9.9 0 0 1-.154.29.7.7 0 0 1-.23.185l-.332.08a.65.65 0 0 1-.357-.08.8.8 0 0 1-.256-.237 1.2 1.2 0 0 1-.153-.344 1.6 1.6 0 0 1-.051-.422q.003-.214.05-.422.048-.198.154-.37a.8.8 0 0 1 .256-.263.65.65 0 0 1 .357-.106h.256l.204.106q.095.076.154.184a.8.8 0 0 1 .076.211l.307-.079a1.1 1.1 0 0 0-.102-.29.9.9 0 0 0-.23-.29.9.9 0 0 0-.307-.159l-.358-.053a.95.95 0 0 0-.485.133 1.06 1.06 0 0 0-.358.343 1.5 1.5 0 0 0-.204.475q-.075.285-.077.58 0 .27.077.528.075.246.23.449c.098.121.22.22.357.29.143.074.301.11.46.105h.205l.204-.079.179-.132.153-.184.077.343h.204V35.52zm-10.605-1.213a.8.8 0 0 1 .204.264.9.9 0 0 1 .052.237l-.307.08a.53.53 0 0 0-.179-.317.7.7 0 0 0-.434-.132h-.205l-.178.079-.128.132a.46.46 0 0 0-.051.211.3.3 0 0 0 .076.211l.18.132.255.08.306.078.384.132.255.132a.7.7 0 0 1 .179.212.81.81 0 0 1-.026.712.8.8 0 0 1-.23.264l-.332.132-.357.053-.41-.053a.96.96 0 0 1-.561-.475.9.9 0 0 1-.077-.211l.306-.08q.015.084.052.159a.6.6 0 0 0 .153.211l.23.106h.51l.205-.08.154-.158a.46.46 0 0 0 .05-.237.35.35 0 0 0-.076-.238l-.179-.132-.255-.08-.307-.078-.307-.08-.255-.132a.6.6 0 0 1-.179-.21.6.6 0 0 1-.077-.317.76.76 0 0 1 .077-.37.7.7 0 0 1 .204-.237l.307-.159.332-.052.332.052c.112.03.217.084.307.159m2.99 2.665c-.639 0-.946-.316-.946-1.003v-1.847h.307v1.847c0 .502.204.713.639.713.434 0 .639-.238.639-.713v-1.847h.306v1.847c0 .66-.306 1.003-.945 1.003m20.084-2.824h-.306v2.798h1.558v-.317h-1.252zm-9.224.027h-.307v2.77h.306v-2.77zm3.5 2.032.05-.185.358.08a1.23 1.23 0 0 1-.28.606.9.9 0 0 1-.715.29.97.97 0 0 1-.487-.105 1 1 0 0 1-.332-.29 1.4 1.4 0 0 1-.204-.449 2.2 2.2 0 0 1-.077-.554 2.1 2.1 0 0 1 .077-.554q.064-.243.204-.45a1 1 0 0 1 .358-.316c.142-.074.3-.11.46-.105l.357.052.282.159q.129.124.204.29.083.175.102.37l-.306.052a.75.75 0 0 0-.23-.475.65.65 0 0 0-.435-.158.67.67 0 0 0-.358.08.75.75 0 0 0-.255.237q-.105.157-.153.343a1.85 1.85 0 0 0 0 .87q.044.2.153.37a.67.67 0 0 0 .613.317l.281-.053.205-.158a.8.8 0 0 0 .127-.264zm3.833.712h-.306l-.23-.765h-.971l-.23.765h-.332l.843-2.718h.383zm-.613-1.055h-.81l.401-1.425zm-13.287-.211.51 1.293h-.306l-.51-1.24h-.819v1.213h-.28v-2.744h1.124a.8.8 0 0 1 .613.21.78.78 0 0 1 .179.555.74.74 0 0 1-.205.528.74.74 0 0 1-.306.185m-1.099-1.24v1.055l.741-.027a.65.65 0 0 0 .409-.105.47.47 0 0 0 .179-.396.52.52 0 0 0-.154-.396.65.65 0 0 0-.434-.132zM12.082 29h.46v-6h-.46v4q0 .4.05.8-.076-.293-.178-.613L10.625 23h-.46v6h.486v-3.653a27 27 0 0 0-.077-1.174h.026l.076.374.102.4L12.081 29zm6.03-5.493h-.87V29h-.536v-5.493h-.843V23h2.248zm5.861 4.312q.027-.369.027-.764V23h-.559v4.002c.023.372-.013.745-.106 1.106a.63.63 0 0 1-.585.38.64.64 0 0 1-.585-.38 3.6 3.6 0 0 1-.107-1.106V23H21.5v4.029q0 .395.027.737.027.329.16.632a.97.97 0 0 0 .371.421 1.64 1.64 0 0 0 1.383.053.9.9 0 0 0 .373-.421c.09-.2.144-.414.16-.632zM28.537 29H28v-6h.537zm5.033-5.493h.843l.026-.507h-2.25v.507h.844V29h.537zM38.537 29H38v-6h.537zm4.87 0h.46l1.176-6h-.537l-.74 4.354q-.026.319-.077.823h-.026l-.051-.451a3 3 0 0 0-.051-.345l-.767-4.355h-.536L43.408 29zM50 23.507h-1.252v2.133h1.227v.507h-1.227v2.346H50V29h-1.789v-6H50z"/></svg>