<svg xmlns="http://www.w3.org/2000/svg" width="56" height="56"><path fill="#01226A" d="M0 0h56v56H0z"/><path fill="#fff" d="M48.75 26H47.6l-.1.42h1.26c1.15 0 1.5.65 1.5 1.57v.45c-.28-.29-.79-.44-1.5-.44-1.14 0-1.69.5-1.69 1.5v.07c0 .95.54 1.43 1.62 1.43h.29c1.13 0 1.71-.48 1.71-1.43V28c0-1.17-.53-1.99-1.93-1.99Zm1.5 3.64c0 .67-.36.94-1.3.94h-.18c-.9 0-1.28-.3-1.28-1v-.08c0-.76.37-1.09 1.22-1.09h.08c1.02 0 1.46.32 1.46 1.05zM18.92 27l.22-1H17v-2l-1 .23v4.37c0 1.6.52 2.4 2.1 2.4h.73l.22-1h-.86c-.76 0-1.19-.25-1.19-1.1V27zM10 23.7v4.95C10 30 10.88 31 12.55 31 14 31 15 30.14 15 28.5c0-1.5-.81-2.5-2.5-2.5-.54 0-1.1.14-1.5.45v-2.99l-1 .25Zm2.5 3.3c.95 0 1.49.58 1.5 1.5s-.68 1.5-1.5 1.5-1.5-.6-1.5-1.5.5-1.5 1.5-1.5m10-1c-1.6 0-2.5.77-2.5 2.54 0 1.7 1.13 2.46 2.5 2.46.55 0 1.11-.17 1.5-.48v.2c0 .95-.9 1.28-1.85 1.28h-.57c-.33 0-.47.05-.67.37a8.9 8.9 0 0 1-7.58 4.25 9.05 9.05 0 0 1-8.96-9.12 9.05 9.05 0 0 1 8.96-9.12 8.96 8.96 0 0 1 8.1 5.23h.42A9.34 9.34 0 0 0 13.33 18 9.43 9.43 0 0 0 4 27.5c0 5.24 4.19 9.5 9.33 9.5a9.33 9.33 0 0 0 7.57-4h1.33c1.76 0 2.77-.6 2.77-2.33v-2.23c0-1.71-.9-2.45-2.5-2.44m1.5 2.58c0 .82-.69 1.42-1.5 1.42s-1.5-.58-1.5-1.42.46-1.58 1.5-1.58 1.5.77 1.5 1.58M51.57 31H52v-7h-.43zm-9.65-4.58.1-.42H40v-1l-.45.08v4.32c0 1.19.57 1.6 1.74 1.6h.63l.08-.42h-.7c-.9 0-1.3-.29-1.3-1.18v-2.98zm4.08 2.7c0 1.09-.45 1.44-1.5 1.44-1 0-1.5-.37-1.5-1.45V26h-.44v3.11c0 1.35.65 1.89 1.95 1.89 1.28 0 1.92-.56 1.92-1.89V26H46v3.11Zm-9.8-.24v-.69c0-1.25.42-1.77 1.61-1.77h1l.1-.42h-1.1c-1.42 0-2.05.72-2.05 2.2v.68c0 1.46.63 2.12 2.05 2.12h1.02l.1-.42H37.8c-1.16 0-1.6-.48-1.6-1.7M33.06 26H31.9l-.1.42h1.26c1.14 0 1.5.65 1.5 1.57v.45c-.28-.29-.78-.44-1.5-.44-1.13 0-1.69.5-1.69 1.5v.07c0 .95.55 1.43 1.63 1.43h.3c1.12 0 1.7-.48 1.7-1.43V28c0-1.17-.56-1.99-1.94-1.99Zm1.5 3.64c0 .68-.34.94-1.28.94h-.18c-.91 0-1.3-.3-1.3-1v-.08c0-.76.37-1.09 1.23-1.09h.07c1.03 0 1.47.32 1.47 1.05v.18ZM28.73 26c-1.36 0-1.99.68-1.99 2.14V32h.43v-1.63c.3.4.9.63 1.6.63 1.35 0 1.94-.93 1.94-2.42v-.45c0-1.48-.61-2.13-1.98-2.13m1.54 2.58c0 1.26-.4 2.02-1.5 2.02-1.05 0-1.59-.81-1.59-1.83v-.63c0-1.22.45-1.72 1.55-1.72s1.54.48 1.54 1.71z"/></svg>