<svg xmlns="http://www.w3.org/2000/svg" width="56" height="56" fill="none"><path fill="#3E3353" d="M0 0h56v56H0z"/><path fill="#F0F3FA" d="M18 39h20v7H18z"/><path fill="url(#a)" fill-rule="evenodd" d="M18.808 13.808A12.96 12.96 0 0 0 15 23c0 7.18 5.82 13 13 13 3.777 0 7.177-1.61 9.553-4.182l-5.879-5.427a5 5 0 1 1-7.21-6.927z" clip-rule="evenodd"/><path fill="url(#b)" fill-rule="evenodd" d="M37.132 13.808A12.96 12.96 0 0 1 40.939 23c0 7.18-5.82 13-13 13-3.777 0-7.177-1.61-9.552-4.182l5.878-5.427a5 5 0 1 0 7.21-6.927z" clip-rule="evenodd"/><path fill="url(#c)" fill-rule="evenodd" d="M15 23c0 7.18 5.82 13 13 13 3.777 0 7.177-1.61 9.553-4.182l-5.879-5.427A5 5 0 0 1 23 23z" clip-rule="evenodd"/><path fill="url(#d)" fill-rule="evenodd" d="M32.94 23a5 5 0 0 1-8.675 3.391l-5.878 5.427A12.97 12.97 0 0 0 27.939 36c7.18 0 13-5.82 13-13z" clip-rule="evenodd"/><path fill="url(#e)" fill-rule="evenodd" d="M28 10c-7.18 0-13 5.82-13 13h8a5 5 0 0 1 5-5z" clip-rule="evenodd"/><path fill="url(#f)" fill-rule="evenodd" d="M28 10c7.18 0 13 5.82 13 13h-8a5 5 0 0 0-5-5z" clip-rule="evenodd"/><path fill="url(#g)" fill-rule="evenodd" d="M28 10a12.96 12.96 0 0 0-9.192 3.808l5.657 5.657A4.98 4.98 0 0 1 28 18z" clip-rule="evenodd"/><path fill="url(#h)" fill-rule="evenodd" d="M28 10a12.96 12.96 0 0 1 9.192 3.808l-5.657 5.657A4.98 4.98 0 0 0 28 18z" clip-rule="evenodd"/><defs><linearGradient id="a" x1="19" x2="19" y1="16" y2="31.5" gradientUnits="userSpaceOnUse"><stop stop-color="#7967FA" stop-opacity=".49"/><stop offset=".37" stop-color="#7967FA"/><stop offset="1" stop-color="#7967FA"/></linearGradient><linearGradient id="b" x1="36" x2="35.5" y1="33" y2="13.5" gradientUnits="userSpaceOnUse"><stop stop-color="#43B9DB"/><stop offset=".521" stop-color="#43B9DB"/><stop offset="1" stop-color="#43B9DB" stop-opacity="0"/></linearGradient><linearGradient id="c" x1="18.5" x2="31" y1="14" y2="36" gradientUnits="userSpaceOnUse"><stop stop-color="#7967FA" stop-opacity=".49"/><stop offset=".478" stop-color="#7967FA"/><stop offset="1" stop-color="#7967FA"/></linearGradient><linearGradient id="d" x1="36" x2="23.5" y1="22.5" y2="22.5" gradientUnits="userSpaceOnUse"><stop stop-color="#43B9DB"/><stop offset=".521" stop-color="#43B9DB"/><stop offset="1" stop-color="#43B9DB" stop-opacity="0"/></linearGradient><linearGradient id="e" x1="20" x2="20" y1="20" y2="23" gradientUnits="userSpaceOnUse"><stop stop-color="#E52462"/><stop offset="1" stop-color="#E52462" stop-opacity="0"/></linearGradient><linearGradient id="f" x1="38" x2="38" y1="19.5" y2="23" gradientUnits="userSpaceOnUse"><stop stop-color="#33CC7D"/><stop offset="1" stop-color="#33CC7D" stop-opacity="0"/></linearGradient><linearGradient id="g" x1="18.808" x2="28" y1="16.813" y2="10.515" gradientUnits="userSpaceOnUse"><stop offset=".277" stop-color="#FEAC47" stop-opacity="0"/><stop offset=".477" stop-color="#FEAC47"/></linearGradient><linearGradient id="h" x1="37.192" x2="28" y1="16.813" y2="10.515" gradientUnits="userSpaceOnUse"><stop offset=".277" stop-color="#FEAC47" stop-opacity="0"/><stop offset=".477" stop-color="#FEAC47"/></linearGradient></defs></svg>