<svg xmlns="http://www.w3.org/2000/svg" width="56" height="56"><path fill="#7E0040" d="M0 0h56v56H0z"/><path fill="#FEFDFF" d="M36.9 17.22c.17.25-.18.51-.4.31A11 11 0 0 0 29 14.5c-6.38 0-11.5 5.83-11.5 12.5 0 3.05.91 5.45 2.7 7.58.19.23-.07.6-.3.41-3.03-2.31-5-6.05-5-10.27C14.9 17.69 20.35 12 27.07 12a12 12 0 0 1 9.83 5.22"/><path fill="#fff" d="M26 44h-3v-7.71L26 35zm1 0v-9.91l2.57-1.06c.2-.09.43.03.43.22v10.5c0 .14-.13.25-.3.25z"/><path fill="#FDFBF6" d="M25.47 18.4c-7.22 0-12.92 2.9-15.37 4.69-.19.13-.1.38.13.34 1.85-.36 6.3-1.87 15.24-1.43C37.1 22.58 38 26.48 38 28.5c0 2.34-3.25 5-5.74 6.71-.2.14-.1.46.14.45 6.76-.36 9.6-5.22 9.6-8.3 0-5.12-6.74-8.96-16.53-8.96"/></svg>