<svg xmlns="http://www.w3.org/2000/svg" width="56" height="56"><path fill="#F0F3FA" d="M0 0h56v56H0z"/><path d="M39 32h-.68l-.37-.49c-.13.16-.6.49-1.42.49-1.03 0-1.53-.76-1.53-1.4 0-.6.72-1.11.96-1.28l.06-.04c-.33-.34-.63-.74-.63-1.18 0-.8.83-1.1 1.3-1.1.45 0 1.16.34 1.16 1.06 0 .57-.68 1.12-1.02 1.32l1.12 1.3c.11-.2.2-.6.22-.8h.54c0 .58-.26 1.07-.39 1.24zm-3.04-3.88c0 .23.35.68.52.87.52-.36.8-.6.8-.9s-.27-.6-.64-.6-.68.35-.68.63m1.66 3-1.25-1.44c-.27.17-.8.6-.8 1 0 .48.45.83 1.04.83.47 0 .87-.26 1-.4Z"/><path fill="#FF7A01" d="M6 22.67c0-.37.3-.67.67-.67h.66c.37 0 .67.3.67.67v.66c0 .37-.3.67-.67.67h-.66a.67.67 0 0 1-.67-.67zM6 25H5v2h1v5h2v-7zm5 .55V25H9v7h2v-3.67l.02-.34c.03-.66.06-1.55.98-1.55 1 0 1 .7 1 1.13V32h2v-4.33c.02-.89-.43-2.67-2.4-2.67-.69 0-1.21.22-1.6.55M18.02 27 18 29.54v.4c0 .54.52.74.97.74.35 0 .85-.08 1.03-.12v1.24c-.29.07-1.05.2-1.6.2-2.05 0-2.45-1.68-2.4-2.52V23h2.02v2H20v2zM34 25h-.25c-1.37 0-2.3.59-2.75 1.26v-1.25h-2V32h2v-4.02a2 2 0 0 1 1.85-1.35H34v-1.62Zm-6.03 4a3.5 3.5 0 1 0-.3 1h-2.09c-.27.41-.65.67-1.08.67-.7 0-1.3-.71-1.46-1.67h4.92Zm-3.47-2.67c.7 0 1.3.71 1.46 1.67h-2.92c.16-.96.75-1.67 1.46-1.67"/><path fill-rule="evenodd" d="M48.5 32a2.5 2.5 0 1 0 0-5 2.5 2.5 0 0 0 0 5m0-.61c.99 0 1.8-.85 1.8-1.89s-.8-1.89-1.8-1.89c-.99 0-1.8.85-1.8 1.89s.8 1.89 1.8 1.89"/><path d="M45 30.22A2.55 2.55 0 0 1 42.55 32 2.53 2.53 0 0 1 40 29.5c0-1.38 1.14-2.5 2.55-2.5 1.15 0 2.12.74 2.44 1.76h-.75a1.83 1.83 0 0 0-1.69-1.15c-1 0-1.83.85-1.83 1.89s.82 1.89 1.83 1.89c.77 0 1.42-.49 1.7-1.17z"/></svg>