<svg xmlns="http://www.w3.org/2000/svg" width="56" height="56"><path fill="#F0F3FA" d="M0 0h56v56H0z"/><path fill="#004185" fill-rule="evenodd" d="M14.75 42.83c4.95 4.59 14.9 1.66 22.22-6.53 7.31-8.19 9.23-18.54 4.28-23.13s-14.9-1.66-22.22 6.53c-7.31 8.19-9.23 18.54-4.28 23.13m1.89-2.86c4.6 4.16 13.64 1.73 20.2-5.43 6.55-7.17 8.13-16.34 3.52-20.5-4.6-4.17-13.64-1.74-20.2 5.42-6.55 7.17-8.13 16.34-3.52 20.5Z"/><path fill="#004185" d="M27.18 16.76 27 18.01l5.91-1.86c.29-.1.56.14.53.44L32.57 24 40 20.62V19.5l-2 1v-5.61a.87.87 0 0 0-1.1-.86zM19.7 27.58c-.2.7-.64 2.12-.7 2.27l3.23-1.5c.65-.3 1.35.3 1.16.97l-2.82 9.7c-.4 1.4 1.2 2.53 2.4 1.7L37 31.16v-2.09l-5.87 3.77c-.6.38-1.37-.1-1.29-.79L30.98 23l-11.27 4.58Z"/><path fill="#004185" d="M31.64 21.52 26 24l1.2-4.7L32 18zm.89 3.73L32 30l5-3.1V23z"/></svg>