<svg xmlns="http://www.w3.org/2000/svg" width="56" height="56"><path fill="#365EBF" d="M0 0h56v56H0z"/><path fill="#fff" d="M25 22a2 2 0 1 0-4 0 2 2 0 0 0 4 0M4 25.5a.5.5 0 0 1 .5-.5h2a.5.5 0 0 1 .5.5v10a.5.5 0 0 1-.5.5h-2a.5.5 0 0 1-.5-.5zM17.5 36h-2.016c-.363 0-.484-.199-.484-.575v-6.101c.001-1.165.002-1.983-1.199-1.983-.572 0-1.239.245-1.801.607V35.5a.5.5 0 0 1-.5.5h-2a.5.5 0 0 1-.5-.5v-10a.5.5 0 0 1 .5-.5h2a.5.5 0 0 1 .5.5v.259A4.9 4.9 0 0 1 14.569 25C16.829 25 18 26.59 18 28.998v6.472c0 .376-.136.53-.5.53m14.34 0c.941 0 2.214-.286 3.16-.824v.324a.5.5 0 0 0 .5.5h2a.5.5 0 0 0 .5-.5v-10a.5.5 0 0 0-.5-.5h-2a.5.5 0 0 0-.5.5v7.436c-.73.413-1.81.7-2.413.7-1.211 0-1.582-.84-1.582-2.056v-6.07c0-.4-.182-.509-.505-.509h-2c-.322 0-.524.133-.524.509v6.535c0 2.388 1.603 3.956 3.863 3.956zM19 25.5a.5.5 0 0 1 .5-.5h7a.5.5 0 0 1 .5.5v2a.5.5 0 0 1-.5.5h-2v7.5a.5.5 0 0 1-.5.5h-2a.5.5 0 0 1-.5-.5V28h-2a.5.5 0 0 1-.5-.5zm21.5-.5a.5.5 0 0 0-.5.5v10a.5.5 0 0 0 .5.5h2a.5.5 0 0 0 .5-.5v-10a.5.5 0 0 0-.5-.5zm3.5.5a.5.5 0 0 1 .5-.5h7a.5.5 0 0 1 .5.5v2a.5.5 0 0 1-.5.5h-2v7.5a.5.5 0 0 1-.5.5h-2a.5.5 0 0 1-.5-.5V28h-2a.5.5 0 0 1-.5-.5zm4-5.5a2 2 0 1 1 0 4 2 2 0 0 1 0-4"/></svg>