<svg xmlns="http://www.w3.org/2000/svg" width="56" height="56" fill="none"><path fill="#31117B" d="M0 0h56v56H0z"/><path fill="#F0F3FA" fill-rule="evenodd" d="M14.222 20H16l-.912 4.768C14.968 25.854 14.34 27 13.067 27c-.375 0-.744-.12-1.067-.304l.15-1.75c.087.098.482.304.623.304.396 0 .688-.381.688-.685zM16 27l2.404-7h2.115L21 27h-1.667v-1h-1.19l-.316 1zm2.445-2.625h.888V21.75zM16.404 29 14 36h1.827l.316-1h1.19v1H19l-.48-7zm.93 4.375h-.889l.888-2.625zM32 36l2.885-7h2.538L38 36h-2v-1h-1.429l-.379 1zm2.934-2.625H36V30.75zM23.5 20 22 27h3.5l.5-1.75h-1.5l1-5.25zm3.5 7 1.5-7h2l-1 5.25H31L30.5 27zm6.5-7L32 27h4.5l.5-1.75h-2.446l.2-.875H36.5l.5-1.75h-2l.187-.875H37.5L38 20zm4.717 4.9c.386.355.906.352 1.407.35h.115c.28 0 .761-.343.761-.66 0-.392-.297-.57-.64-.775-.47-.282-1.027-.616-1.027-1.628 0-1.448 1.195-2.187 2.428-2.187.511 0 .934.139 1.392.289q.169.056.347.111l-.326 1.6c-.09-.041-.16-.076-.219-.105-.24-.118-.294-.145-.705-.145-.412 0-.833.206-.833.537 0 .334.305.59.654.882.467.39 1.012.846 1.012 1.643 0 1.59-1.484 2.188-2.844 2.188-.63 0-1.164-.135-1.739-.4zM7 36l1-4.813V36h2l2-4.813L11 36h2l1-7h-2.5L10 32.938V29H7.028L5 36zm17.767-5.1c-.174-.15-.544-.15-.767-.15-1.38 0-2 1.226-2 2.188 0 .632.52 1.312 1.372 1.312.223 0 .454 0 .628-.15l-.28 1.8c-.348.1-.767.1-1.046.1C20.924 36 20 34.861 20 33.4c0-2.058 1.13-4.4 3.837-4.4.393 0 .663 0 1.163.1zM26.5 29 25 36h2l.622-2.625H29L28.435 36H30.5l1.5-7h-2l-.5 2.625H28L28.5 29zM39 36l1.25-7h1.201c1.613 0 2.549.845 2.549 2.573 0 2.5-1.044 4.427-3.53 4.427zm2.083-1.75c1.103 0 1.25-1.743 1.25-2.573 0-.456-.074-.927-.588-.927zm6.34 1.75C45.865 36 45 34.767 45 33.5c0-1.818.907-4.5 3.462-4.5C50.135 29 51 30.24 51 31.6c0 2.003-.922 4.4-3.577 4.4m1.515-3.34c-.19.963-.766 1.671-1.284 1.583-.518-.09-.783-.941-.592-1.904.191-.962.766-1.67 1.284-1.581s.783.94.592 1.903Z" clip-rule="evenodd"/></svg>