<svg xmlns="http://www.w3.org/2000/svg" width="56" height="56"><path fill="#E2241A" d="M0 0h56v56H0z"/><path fill="#DADBDA" d="M26.8 29.33c-1.73.48-2.04-.54-2.01-1.1-.2.61-.23 1.9 1.24 2.16z"/><path fill="url(#a)" d="M15.2 17.14c.22-.8.77-.88 1.02-.82l1.18 1.25c.15.59.46 2.04.48 3.16a2.83 2.83 0 0 1-.86 2.13c-.61.52-2.1 1.5-3.14 1.29-1.31-.28-.98-1.9-.2-3.07s1.23-2.95 1.51-3.94z"/><path fill="url(#b)" d="M38.38 20.36c2.23-3.86 1.79-6.24.85-6.92-4.3-3.1-17.8-1.02-21.15 4.6-.84 1.42 1.52 3.84 2.56 4.63 4.55 3.44 8.82 3.59 10.38 3.23 1.53-.24 5.13-1.67 7.36-5.54"/><path fill="#141414" d="M39 19.2a17 17 0 0 1-.73 1.35c-.95.5-2.13.84-3.55.84-4.2 0-6.74-2.13-7.5-3.26a.37.37 0 0 1 .09-.5.35.35 0 0 1 .5.1c.63.93 2.94 2.93 6.9 2.93 1.9 0 3.3-.64 4.28-1.46z"/><path fill="url(#c)" d="M16.14 17.74c.38.64 1.9 1.35 2.61 1.63.25-.7-.03-1.52-.2-1.84-.44-.28-1.45-.88-1.9-1.06-.44-.18-.62-.18-.66-.15-.1.2-.22.77.15 1.42"/><ellipse cx="27.85" cy="15.35" fill="#141414" rx=".92" ry=".93"/><ellipse fill="url(#d)" rx="2.26" ry=".93" transform="rotate(-3.12 268.24 -663.74)skewX(-.1)"/><path fill="url(#e)" d="M31.32 26.27c-1.22.76-3.14.1-3.2.14L24.3 33h.59c1.43-1.87 2.32-2.37 2.59-2.38L27.43 33h.68c.08-.9.45-2.68 1.27-2.68s1.15 1.79 1.2 2.68h.74z"/><path fill="#fff" fill-rule="evenodd" d="M14 35h1v4.55A2.47 2.47 0 0 1 12.55 42H12v-1h.7c.63-.04 1.3-.68 1.3-1.32zm2 7v-7h2.11c1.6 0 2.89 1.4 2.89 3.11v.78c0 1.72-1.3 3.11-2.89 3.11zm1-.99v-5h.75c1.24 0 2.25 1.12 2.25 2.5s-1 2.5-2.25 2.5zM33 42a3.5 3.5 0 1 0 0-7 3.5 3.5 0 0 0 0 7m0-1.1a2.4 2.4 0 1 0 0-4.8 2.4 2.4 0 0 0 0 4.8M27.38 42a3.3 3.3 0 0 0 2.35-.98l-.58-.64a2.5 2.5 0 1 1-.01-3.77l.57-.64a3.3 3.3 0 0 0-2.33-.97A3.44 3.44 0 0 0 24 38.5c0 1.93 1.51 3.5 3.38 3.5m-3.88-.75a.75.75 0 1 1-1.5 0 .75.75 0 0 1 1.5 0M38 42h-1v-7h1.09l2.42 4.68L42.92 35H44v7h-1v-4.67l-2.49 4.6-2.51-4.6z"/><defs><linearGradient id="a" x1="13.41" x2="17.16" y1="19.73" y2="20.82" gradientUnits="userSpaceOnUse"><stop offset=".39" stop-color="#EEEDEF"/><stop offset=".55" stop-color="#C2C0C0"/></linearGradient><linearGradient id="b" x1="34.25" x2="22.17" y1="12.77" y2="22.78" gradientUnits="userSpaceOnUse"><stop stop-color="#F7F8FA"/><stop offset="1" stop-color="#D6D7D5"/></linearGradient><linearGradient id="c" x1="17.82" x2="16.92" y1="16.94" y2="18.24" gradientUnits="userSpaceOnUse"><stop offset=".2" stop-color="#F2F3F2"/><stop offset="1" stop-color="#BFBDBD"/></linearGradient><linearGradient id="d" x1="3.34" x2=".82" y1=".12" y2="1.47" gradientUnits="userSpaceOnUse"><stop stop-color="#4B4847"/><stop offset="1" stop-color="#131313"/></linearGradient><linearGradient id="e" x1="26.26" x2="29.34" y1="32" y2="26.89" gradientUnits="userSpaceOnUse"><stop stop-color="#DFE1E1"/><stop offset="1" stop-color="#EAECEB"/></linearGradient></defs></svg>