<svg xmlns="http://www.w3.org/2000/svg" width="56" height="56"><path fill="#F0F3FA" d="M0 0h56v56H0z"/><path fill="#A41D23" d="M14 14h28v10h-4.38c-2.2 0-4.3.87-5.9 2.43L23 35h4.5l7.68-7.54A5.05 5.05 0 0 1 38.72 26H42v16H14V31h6.38c2.2 0 4.3-.87 5.9-2.43L35 20h-4.5l-7.68 7.54A5.05 5.05 0 0 1 19.28 29H14z"/><path fill="#6F7072" d="M23.98 35h3.22l7.93-7.53A5.27 5.27 0 0 1 38.78 26H48l-2.26 2h-7.51c-1.36 0-2.67.55-3.65 1.5L26.65 37H22zm2.54-6.8 6.5-6.2H35l-9 8.57A8.83 8.83 0 0 1 19.9 33H9l2.26-2h7.51c2.69 0 5.82-.96 7.75-2.8"/></svg>