<svg xmlns="http://www.w3.org/2000/svg" width="56" height="56"><path fill="url(#a)" d="M0 0h56v56H0z"/><path fill="#fff" d="M5.36 31.058c0 2.538 1.746 4.212 4.266 4.212 2.538 0 4.374-1.944 4.374-4.266V22h-3v8.932c0 .954-.558 1.638-1.494 1.638-.828 0-1.446-.522-1.446-1.656v-1.17l-2.7.468zM27 35V22h-3v5h-4l.032-5H17v13h3.032v-5H24v5zm11.953-9.63c-.27-1.494-1.476-3.402-4.662-3.402-2.448 0-4.572 1.692-4.572 4.104 0 1.89 1.314 3.33 3.474 3.744l1.746.324c.846.162 1.368.63 1.368 1.278 0 .792-.684 1.332-1.8 1.332-1.746 0-2.538-1.026-2.646-2.196l-2.61.63c.18 1.8 1.692 4.086 5.22 4.086 3.042 0 4.716-2.034 4.716-4.032 0-1.818-1.26-3.384-3.69-3.834l-1.71-.324c-.882-.162-1.26-.612-1.26-1.224 0-.702.684-1.368 1.746-1.368 1.548 0 2.034 1.008 2.124 1.602zM44 35v-4h5v-3h-5.018v-3H50v-3h-9v13z"/><defs><linearGradient id="a" x1="10.418" x2="68.147" y1="9.712" y2="76.017" gradientUnits="userSpaceOnUse"><stop stop-color="#1A1E21"/><stop offset="1" stop-color="#06060A"/></linearGradient></defs></svg>