<svg xmlns="http://www.w3.org/2000/svg" width="56" height="56"><path fill="#F0F3FA" d="M0 0h56v56H0z"/><path fill="#1C5439" d="M13 13h6v6h-6z"/><path fill="#2A84C0" d="M19 13h6v6h-6z"/><path fill="#0596CD" d="M25 13h6v6h-6z"/><path fill="#2A84C0" d="M31 13h6v6h-6z"/><path fill="#163A5E" d="M37 13h6v6h-6z"/><path fill="#1B8E49" d="M13 19h6v6h-6z"/><path fill="#1C5439" d="M19 19h6v6h-6z"/><path fill="#2A84C0" d="M25 19h6v6h-6z"/><path fill="#163A5E" d="M31 19h6v6h-6z"/><path fill="#2A84C0" d="M37 19h6v6h-6z"/><path fill="#48AE4A" d="M13 25h6v6h-6z"/><path fill="#1B8E49" d="M19 25h6v6h-6z"/><path fill="#2A84C0" d="M31 25h6v6h-6z"/><path fill="#0596CD" d="M37 25h6v6h-6z"/><path fill="#1B8E49" d="M13 31h6v6h-6z"/><path fill="#1C5439" d="M19 31h6v6h-6z"/><path fill="#1B8E49" d="M25 31h6v6h-6z"/><path fill="#163A5E" d="M31 31h6v6h-6z"/><path fill="#2A84C0" d="M37 31h6v6h-6z"/><path fill="#1C5439" d="M13 37h6v6h-6z"/><path fill="#1B8E49" d="M19 37h6v6h-6z"/><path fill="#48AE4A" d="M25 37h6v6h-6z"/><path fill="#1B8E49" d="M31 37h6v6h-6z"/><path fill="#163A5E" d="M37 37h6v6h-6z"/></svg>