<svg xmlns="http://www.w3.org/2000/svg" width="56" height="56"><path fill="url(#a)" d="M0 0h56v56H0z"/><path fill="#01A7E1" d="M40 23h10v10H40z"/><path fill="#fff" d="M45.44 24h-.98v3.49H41v1h3.46V32h.98v-3.51H49v-1h-3.56zm-33.71 3.36 4.5 5.64h-1.34l-3.8-4.82-3.63 4.51c-.48.6-1.46.27-1.46-.5V23h1v8.75L14.05 23h1.18zm6.27 4.4V23h1v8.52c0 .23.23.48.46.48H26v1h-6.72c-.7 0-1.28-.56-1.28-1.24m14.66-7.49a.21.21 0 0 0-.38 0L28.15 33H27l4.51-9.4a1.07 1.07 0 0 1 1.92 0L38 33h-1.19z"/><defs><linearGradient id="a" x1="46.11" x2="9.93" y1="9.22" y2="50.57" gradientUnits="userSpaceOnUse"><stop stop-color="#4B2878"/><stop offset="1" stop-color="#BA2370"/></linearGradient></defs></svg>