<svg xmlns="http://www.w3.org/2000/svg" width="56" height="56"><path fill="#0468B3" d="M0 0h56v56H0z"/><path fill="#fff" d="M22.648 25.138s-.218-.11-.61-.105a1.96 1.96 0 0 0-1.177.446L20.684 25H19.34l-.009 7h1.674v-4.213c0-.386.187-.573.339-.708.445-.395 1.304-.408 1.304-.408zm21.047-.001s-.22-.11-.611-.104a1.94 1.94 0 0 0-1.177.445L41.731 25h-1.346l-.007 7H42v-4.213c0-.386.237-.574.387-.709.449-.395 1.308-.407 1.308-.407zM24.39 28.569c0-1.252.317-2.158 1.122-2.158.808 0 1.122.906 1.122 2.158 0 1.253-.314 2.16-1.122 2.16-.805 0-1.123-.907-1.123-2.16zm3.862.006c0-1.935-.935-3.5-2.746-3.5-1.768 0-2.745 1.565-2.745 3.5 0 1.931.841 3.5 2.745 3.5 1.868 0 2.746-1.569 2.746-3.5m8.901-2.165c.547 0 .866.498 1.019 1.15h-2.03c.15-.652.471-1.15 1.011-1.15m1.197 2.847c-.103.882-.431 1.471-1.08 1.471-.787 0-1.11-.79-1.123-2.003h3.862c.02-.64-.108-1.166-.108-1.166h-.003c-.295-1.396-1.183-2.485-2.636-2.485-1.77 0-2.745 1.566-2.745 3.5 0 1.932.843 3.501 2.745 3.501 1.642 0 2.519-1.21 2.706-2.818z"/><path fill="#fff" d="M31.394 30.777c-.807 0-1.13-.923-1.13-2.197 0-1.276.323-2.201 1.13-2.201.812 0 1.127.925 1.127 2.2s-.315 2.198-1.127 2.198M34 32.361c-.005-.517 0-7.334 0-7.334h-1.64v.388c-.216-.225-.66-.366-.973-.373-1.778-.044-2.759 1.57-2.759 3.541s.847 3.548 2.762 3.548c.373 0 .701-.155.996-.27.081 1.386.129 5.96-2.932 6.056C26.136 37.99 26.467 33 26.467 33h-1.806s-.243 6.11 4.595 6.11c5.242 0 4.752-6.232 4.744-6.749M21.727 18.055c-2.196 0-3.44 1.25-4.05 2.72h-.004q-.015.04-.029.082l-.01.02a5.1 5.1 0 0 0-.326 1.517c.102 3.68-1.638 3.908-1.638 3.908-.029-.314 0-4.302 0-4.302H14v10h1.676v-4.13c0-.171 1.513-.01 1.615 1.904.01.17 0 2.226 0 2.226H19c-.038-.274.387-4.7-1.827-4.735-.352-.006 1.824-.51 1.758-3.815a6.9 6.9 0 0 1 .225-1.98c.366-1.181 1.026-2.244 2.384-2.262C24.6 19.168 24.253 24 24.292 24h1.704c.001 0 .302-5.945-4.27-5.945z"/><path fill="#fff" d="M26.38 43.384c-7.411-.587-13.597-4.29-16.316-9.766-1.51-3.042-1.746-6.494-.659-9.675.763-2.231 1.853-3.916 3.711-5.733 1.438-1.405 2.781-2.371 4.512-3.244 2.163-1.09 4.165-1.743 6.712-2.188 1.511-.264 5.764-.265 7.298-.002 4.654.798 8.3 2.56 11.236 5.429 1.422 1.39 2.21 2.436 2.99 3.97 2.005 3.943 1.856 8.48-.407 12.352-2.355 4.03-6.923 7.126-12.31 8.343-1.757.396-5.071.648-6.766.514zm5.472-1.186c4.252-.744 7.764-2.47 10.48-5.152 5.423-5.355 5.399-12.92-.06-18.257-1.38-1.347-2.73-2.287-4.616-3.209-6.515-3.188-14.67-2.892-20.751.752-6.08 3.645-8.67 9.902-6.52 15.76 1.946 5.303 7.653 9.295 14.653 10.249 1.653.225 5.127.153 6.814-.142z"/></svg>