<svg xmlns="http://www.w3.org/2000/svg" width="56" height="56"><path fill="#F0F3FA" d="M0 0h56v56H0z"/><path fill="#181B1E" d="M6 19h1v8h.07c2.4-2.7 4.63-5.34 6.93-8h1.44l-5.96 6.93L16 35h-1.33l-5.96-8.3L7 28.53V35H6zm13 5h-1v11h1zm3 0h1v2a3.64 3.64 0 0 1 3.46-2c.97 0 3.54.52 3.54 4.55V35h-1v-6.36c0-1.96-.73-3.64-2.81-3.64A3.36 3.36 0 0 0 23 28.33V35h-.99zm18.75 4.56c.03-1.47-.67-3.56-3.53-3.56a4.04 4.04 0 0 0-4.13 3.56zm-7.75.85c0 3.36 2.25 4.59 4.7 4.59a7.6 7.6 0 0 0 3.3-.5l.3.82c-.45.22-1.66.68-3.75.68-3.42 0-5.55-2.19-5.55-5.3 0-3.5 2.28-5.7 5.36-5.7 3.88 0 4.64 3.25 4.64 4.76 0 .21 0 .42-.05.63L33 29.4ZM50.01 29c-2.46-.07-6.01.41-6.01 2.94 0 1.5 1.26 2.06 2.43 2.06 1.36.06 3-.65 3.5-1.98.07-.2.1-.41.1-.62zm.99 6h-1v-1.69A4.86 4.86 0 0 1 46.31 35C44.03 35 43 33.5 43 32.1c0-2.43 2.35-4.2 7.02-4.1v-.26c0-1.03-.36-2.77-3.03-2.74-1.01-.02-2 .14-2.84.67l-.35-.77c.99-.58 2.13-.9 3.3-.9 3.26 0 3.9 2.28 3.9 4.14z"/><path fill="url(#a)" d="M17.5 20.99a1 1 0 1 1 2 .02 1 1 0 0 1-2-.02"/><defs><linearGradient id="a" x1="18.5" x2="18.5" y1="20" y2="22"><stop offset="1" stop-color="#181B1E"/></linearGradient></defs></svg>