<svg xmlns="http://www.w3.org/2000/svg" width="56" height="56"><path fill="#F0F3FA" d="M0 0h56v56H0z"/><path d="M23.5 24a.5.5 0 0 0-.5.5v6a.5.5 0 0 0 1 0v-4.8l3.13 3.13c.1.1.23.15.36.15a.5.5 0 0 0 .36-.15L31 25.68v4.82a.5.5 0 0 0 1 0v-6a.5.5 0 0 0-.57-.5.5.5 0 0 0-.3.15l-3.64 3.63-3.63-3.63a.5.5 0 0 0-.22-.13.5.5 0 0 0-.14-.02M45 30.5v-4.94l6.13 5.32a.5.5 0 0 0 .37.12.5.5 0 0 0 .5-.5v-6a.5.5 0 0 0-1 0v4.95l-6.14-5.33a.5.5 0 0 0-.34-.12h-.02a.5.5 0 0 0-.5.5v6a.5.5 0 1 0 1 0M4.5 24a.5.5 0 0 0-.5.5v6c0 .28.22.5.5.5h5a.5.5 0 1 0 0-1H5v-5.5a.5.5 0 0 0-.5-.5M36 28h4.5a.5.5 0 0 0 0-1H35v3.5a.5.5 0 0 0 .57.5h5.93a.5.5 0 0 0 0-1H36z"/><path fill="#16A1DA" d="M35 25v-.5c0-.28.22-.5.5-.5h6a.5.5 0 0 1 0 1z"/><path d="M12 24.5a.5.5 0 0 1 1 0V29a1 1 0 0 0 1 1h4a1 1 0 0 0 1-1v-4.5a.5.5 0 0 1 1 0v1.84a1 1 0 0 1 0 .07V29a2 2 0 0 1-2 2h-4a2 2 0 0 1-2-2z"/></svg>