<svg xmlns="http://www.w3.org/2000/svg" width="56" height="56"><path fill="url(#a)" d="M0 0h56v56H0z"/><path fill="#EA222D" d="M24 24h1v8h-1z"/><path fill="#4BB74C" d="M27 24h1v8h-1z"/><path fill="#486AB0" d="M30 24h1v7.996h-1z"/><path fill="#fff" d="M5 24H4v8h5v-1H5zM10 29.132V24h1v5.132c0 .66.263 1.857 2.007 1.868S15 29.807 15 29.132V24h1v5.132c0 .984-.507 2.857-2.993 2.868S10 30.13 10 29.132"/><path fill="#fff" fill-rule="evenodd" d="M19 24h-1v8h1v-5.031l2 5.033h1l2-5.033v-2.967l-2.487 6.37L19 24.003zm12 0 4 6.06V24h1v7.996h-1V32l-4-6.101zm7 8v-5.262c.005-.883.63-2.738 3.093-2.738S44 25.879 44 26.738V32h-1v-3h-4v3zm1-4c0-1.28 0-3 2.022-3C42.932 25 43 26.538 43 28zm7 4v-8h3.823c.725-.005 2.176.43 2.176 2.204.015.419.04 1.574-.724 2.1.245.14.737.446.725 1.287s-.005 1.956 0 2.409h-1v-2.038c0-.395-.33-.95-1.412-.962A130 130 0 0 0 47 29v3zm1-7h2.74c.42.005 1.26.292 1.26 1.395S50.232 28 49.74 28H47z"/><defs><linearGradient id="a" x1="10.418" x2="68.147" y1="9.712" y2="76.017" gradientUnits="userSpaceOnUse"><stop stop-color="#1A1E21"/><stop offset="1" stop-color="#06060A"/></linearGradient></defs></svg>