<svg xmlns="http://www.w3.org/2000/svg" width="56" height="56"><path fill="#F0F3FA" d="M0 0h56v56H0z"/><path fill="#0D5BA4" d="m37.2 13.11-14 4.06A3.13 3.13 0 0 0 21 20.2v18.64A3.08 3.08 0 0 0 24 42h14c1.66 0 3-1.41 3-3.16V16.16c0-2.09-1.89-3.6-3.8-3.05"/><path fill="#1AC0DE" d="M21 20c0-1.1.9-2 2-2h18a2 2 0 0 1 2 2v21a2 2 0 0 1-2 2H23a2 2 0 0 1-2-2z"/><path fill="#F2CC03" d="M18 28h3v3h-3zm-6 6h3v3h-3zm-3-9h3v3H9z"/><path fill="#0DAAB6" d="M15 25h3v3h-3zm0 6h3v3h-3zm3 6h3v3h-3z"/><path fill="#fff" d="M21 37h3v3h-3zm3-6h3v3h-3zm7 3h3v3h-3zm6-3h3v3h-3zm-9-9h3v3h-3z"/><path fill="#0D5BA4" d="M21 25h3v3h-3zm6 3h3v3h-3zm-6 3h3v3h-3zm3 3h3v3h-3z"/></svg>