<svg xmlns="http://www.w3.org/2000/svg" width="56" height="56" fill="none"><path fill="#F0F3FA" d="M0 0h56v56H0z"/><path fill="#22409A" fill-rule="evenodd" d="M15.209 12H40.79c1.736 0 3.21 1.474 3.21 3.209V35H12V15.209C12 13.474 13.474 12 15.209 12" clip-rule="evenodd"/><path fill="#F58220" d="M44 41.008V38H12v3.008C12 42.625 13.474 44 15.209 44H40.79c1.736 0 3.21-1.375 3.21-2.992"/><path fill="#F0F3FA" fill-rule="evenodd" d="M15.146 14s11.251 4.67 9.709 16c0 0-1.452-2.681-4.628-3.719-3.175-1.038-5.897-8.994-5.08-12.281Z" clip-rule="evenodd"/><path fill="#F0F3FA" fill-rule="evenodd" d="M41 16s-15.59 7.368-13.238 26c0 0-8.883-19.902 13.238-26" clip-rule="evenodd"/></svg>