<svg xmlns="http://www.w3.org/2000/svg" width="56" height="56"><path fill="#F0F3FA" d="M0 0h56v56H0z"/><path fill="#929292" d="M5 20.487v4.516h3V24H6v-3.513zm4.597.74v-.74h-.899v.74zm-.899.506v3.27h.899v-3.27zm4.022 1.637q0 .204-.045.393a.8.8 0 0 1-.139.335.75.75 0 0 1-.24.234.66.66 0 0 1-.342.082.7.7 0 0 1-.341-.082.75.75 0 0 1-.24-.234 1 1 0 0 1-.14-.335 1.75 1.75 0 0 1 0-.79 1 1 0 0 1 .14-.336.69.69 0 0 1 .581-.316.69.69 0 0 1 .582.316q.095.146.14.335.044.19.044.399zm-2.397-2.883v4.516h.854v-.418h.012a.82.82 0 0 0 .43.386q.285.114.645.114a1.24 1.24 0 0 0 .917-.411q.197-.209.317-.532.12-.329.12-.777 0-.45-.12-.772a1.6 1.6 0 0 0-.317-.538 1.24 1.24 0 0 0-.917-.411q-.303 0-.588.12a.94.94 0 0 0-.443.367h-.012v-1.644zM16.409 23h-1.461c.004-.063.017-.118.038-.198a.7.7 0 0 1 .12-.228.7.7 0 0 1 .228-.177.8.8 0 0 1 .36-.076q.33 0 .487.177c.11.118.186.274.228.502m-1.461.586h2.36a2.3 2.3 0 0 0-.064-.727 1.8 1.8 0 0 0-.291-.62q-.196-.273-.506-.43a1.5 1.5 0 0 0-.727-.165q-.374 0-.683.133-.305.132-.525.367a1.6 1.6 0 0 0-.342.544q-.12.315-.12.683 0 .38.114.696.12.316.335.543.214.228.525.355.31.12.696.12.556 0 .948-.253c.262-.169.456-.44.582-.832h-.79c-.03.101-.11.189-.24.282a.8.8 0 0 1-.469.132q-.38 0-.582-.196-.202-.195-.221-.632m2.911-1.853v3.27h.898v-1.474q0-.222.044-.411a.9.9 0 0 1 .146-.329.74.74 0 0 1 .278-.228.96.96 0 0 1 .417-.082q.082 0 .171.013.09.006.152.019v-.835a.7.7 0 0 0-.196-.032q-.171 0-.33.05a1.1 1.1 0 0 0-.296.146 1 1 0 0 0-.247.222 1 1 0 0 0-.17.278h-.013v-.607zm3.615 0v-.98h-.898v.98h-.544v.6h.544v1.93q0 .246.082.398.083.152.222.234.145.082.329.108c.297.05.49.05.787 0v-.696c-.138.027-.334.061-.446-.05q-.076-.076-.076-.304v-1.62h.658v-.6zm2.717 3.674 1.366-3.674h-.93l-.714 2.239H23.9l-.74-2.24h-.955L23.35 24.8a.5.5 0 0 1 .038.203q0 .145-.089.265-.08.12-.259.14c-.16.007-.474 0-.474 0l-.23.74h.73q.46 0 .72-.171t.405-.57"/><path fill="#2F4F85" d="M8.212 33H5.007v-6h3.106c.51 0 .904.176 1.183.482q.42.448.42 1.068 0 .539-.272.907a1.14 1.14 0 0 1-.665.467q.444.071.74.493.303.414.303.97 0 .69-.419 1.158c-.28.311-.676.455-1.191.455m-.42-3.678a.46.46 0 0 0 .346-.135.5.5 0 0 0 .14-.368.47.47 0 0 0-.14-.35.45.45 0 0 0-.345-.143H6.42v.996h1.373zm.05 2.388q.255 0 .394-.143a.54.54 0 0 0 .148-.396.53.53 0 0 0-.148-.386.5.5 0 0 0-.394-.152H6.42v1.077zM14.84 33h-1.618l-.92-2h-.724v2h-1.413v-6h2.745c.591 0 1.057.212 1.397.59q.51.564.51 1.427 0 .718-.33 1.176-.32.45-.764.62zm-2.144-3.346a.72.72 0 0 0 .485-.17.6.6 0 0 0 .197-.476.59.59 0 0 0-.197-.467.72.72 0 0 0-.485-.17h-1.118v1.283zm7.224 2.595q-.83.87-2.095.87t-2.104-.87q-.83-.87-.83-2.227 0-1.355.83-2.226.838-.87 2.104-.871 1.266 0 2.095.87.83.872.83 2.227 0 1.356-.83 2.227m-2.095-.494q.666 0 1.076-.494t.411-1.239q0-.745-.41-1.239a1.33 1.33 0 0 0-1.077-.493q-.674 0-1.085.493-.41.495-.41 1.24 0 .744.41 1.238.411.495 1.085.494M26.095 33h-1.602l-.344-1h-1.99l-.37 1h-1.602l2.062-6h1.775zm-2.26-2.315-.698-2.135-.699 2.135z"/><path fill="#2F4F85" d="M28.308 33H26v-6h2.3c.877 0 1.589.293 2.137.832q.83.808.83 2.181 0 1.374-.83 2.19c-.548.54-1.258.797-2.129.797m-.008-1.335q.699 0 1.11-.476.41-.485.41-1.176 0-.728-.394-1.185t-1.118-.458h-.895v3.295zM34.821 33h-3.205v-6h3.106c.51 0 .904.176 1.184.482q.42.448.419 1.068 0 .539-.271.907a1.14 1.14 0 0 1-.666.467q.443.071.74.493.303.414.304.97 0 .69-.42 1.158c-.279.311-.676.455-1.191.455m-.42-3.678a.46.46 0 0 0 .346-.135.5.5 0 0 0 .14-.368.47.47 0 0 0-.14-.35.45.45 0 0 0-.345-.143H33v.996zm.05 2.388a.53.53 0 0 0 .395-.143.54.54 0 0 0 .148-.396.53.53 0 0 0-.148-.386.5.5 0 0 0-.395-.152H33v1.077zM42.1 33h-1.603l-.35-1H38.16l-.368 1H36.19l2.062-6h1.775l2.071 6zm-2.26-2.197-.7-2.253-.698 2.253h1.397z"/><path fill="#2F4F85" d="M47 33h-1.336l-2.255-3.453V33h-1.414v-6h1.455l2.156 3.319V27H47zm3.042 0h-2.31v-6h2.301c.877 0 1.59.293 2.137.832q.83.808.83 2.181 0 1.374-.83 2.19c-.548.54-1.257.797-2.128.797m-.009-1.335q.699 0 1.11-.476.41-.485.41-1.176.001-.728-.394-1.185-.394-.458-1.117-.458H49v3.295z"/><path fill="#929292" d="M5 33.998h47l-2 1H5zM25.354 24H50l2 1H25z"/></svg>