<svg xmlns="http://www.w3.org/2000/svg" width="56" height="56"><path fill="#063141" d="M0 0h56v56H0z"/><path fill="url(#a)" fill-rule="evenodd" d="M37 12c2.3 0 4 1.83 4 4.05v23.9c0 2.22-1.7 4.05-4 4.05s-4-1.8-4-4.02V33.5c-7.2 6.83-15.72 6.52-17.46 6.51h-.15C13.6 40 13 38.12 13 38.12V30.5c0-2.5 1.68-4.5 4-4.5s4 1.87 4 4.57v6.68c4.27-1.3 8.95-3.7 12-6.93V16.08c.07-2.22 1.7-4.08 4-4.08m-2 19.54v8.26c0 1.06.68 2.2 2 2.2 1.24 0 2-1.1 2-2.24V24.3c-1.4 2.9-2.32 5.3-4 7.24m4-15.3c-.61 4.61-1.6 8.48-4 11.72V16.14C35 15 35.76 14 37 14c1.32 0 2 1.17 2 2.24M19 37.62v-7.05c0-1.38-.7-2.57-2-2.57s-2 1.12-2 2.57V38c1.58-.1 2.48-.03 4-.38"/><path fill="#46DED9" fill-rule="evenodd" d="M17 24a4 4 0 1 0 0-8 4 4 0 0 0 0 8m0-2a2 2 0 1 0 0-4 2 2 0 0 0 0 4"/><defs><linearGradient id="a" x1="11.13" x2="39.54" y1="36.35" y2="13.72" gradientUnits="userSpaceOnUse"><stop stop-color="#46DCE0"/><stop offset="1" stop-color="#47E3C9"/></linearGradient></defs></svg>