<svg xmlns="http://www.w3.org/2000/svg" width="56" height="56" fill="none"><path fill="#FBEA00" d="M0 0h56v56H0z"/><path fill="#fff" d="M27.832 20C18.914 20 10.02 21.049 4 22.748V33.21C10.036 34.934 18.842 36 27.832 36c9.054 0 18.124-1.074 24.168-2.816v-10.36C45.956 21.075 36.878 20 27.832 20"/><path fill="url(#a)" d="M27.845 34c7.596-.002 16.088-.88 22.155-2.282v-7.362C42.764 22.666 35.223 22 27.818 22 20.424 22 12.27 22.853 6 24.28v7.39c6.319 1.459 14.46 2.328 21.791 2.33z"/><path fill="#fff" d="M10.494 29.5c-.784 0-.71-.955-.71-1.5 0-.51-.03-1.5.704-1.5.73 0 .667.99.667 1.5 0 .493.08 1.5-.661 1.5M12 28c0-.953-.402-2-1.5-2C9.429 26 9 27.074 9 28c0 .887.176 1.695 1.114 2.007.026.508.37.993.894.993H12v-.474h-.698c-.33 0-.435-.215-.447-.526.98-.107 1.145-1.223 1.145-2m19.494 1.5c-.784 0-.71-.955-.71-1.5 0-.51-.03-1.5.704-1.5.73 0 .667.99.667 1.5 0 .493.08 1.5-.661 1.5M33 28c0-.953-.402-2-1.5-2-1.071 0-1.5 1.074-1.5 2 0 .887.176 1.695 1.114 2.007.026.508.37.993.894.993H33v-.474h-.698c-.33 0-.435-.215-.447-.526.98-.107 1.145-1.223 1.145-2m-17.007.815c0 .748-.464 1.185-1.476 1.185-1.08 0-1.517-.457-1.517-1.345V26h.81v2.766c0 .423.165.734.686.734.433 0 .686-.304.686-.748V26H16v2.815zm21 0c0 .748-.464 1.185-1.476 1.185-1.08 0-1.517-.457-1.517-1.345V26h.81v2.766c0 .423.165.734.686.734.433 0 .686-.304.686-.748V26H37v2.815zM19 26.5h-1.195v1.268h1.19v.5h-1.19V29.5H19v.5h-2v-4h2zm21 0h-1.195v1.268h1.19v.5h-1.19V29.5H40v.5h-2v-4h2zm-19.052 1.135h-.143v-1.067h.194c.395 0 .705.081.705.432 0 .403-.316.635-.756.635m.756.239c.615-.056.796-.425.796-.874 0-.712-.347-1-1.077-1H20v4h.805v-1.797h.12c.817 0 .8 1.25.806 1.797h.973c-.009-.804-.071-1.88-1-2.126m20.244-.239h-.143v-1.067h.194c.395 0 .705.081.705.432 0 .403-.316.635-.756.635m.756.239c.615-.056.796-.425.796-.874 0-.712-.347-1-1.077-1H41v4h.805v-1.797h.12c.818 0 .8 1.25.806 1.797h.973c-.009-.804-.071-1.88-1-2.126M26.167 28c0 .476 0 1.5-.673 1.5-.737 0-.668-.965-.668-1.5 0-.53-.088-1.5.668-1.5.76 0 .673.966.673 1.5m-.649-2C24.317 26 24 27 24 28c0 .927.457 2 1.5 2 1.057 0 1.5-1.063 1.5-2 0-.97-.31-2-1.482-2m20.649 2c0 .476 0 1.5-.673 1.5-.737 0-.667-.965-.667-1.5 0-.53-.089-1.5.667-1.5.76 0 .673.966.673 1.5m-.649-2C44.317 26 44 27 44 28c0 .927.457 2 1.5 2 1.057 0 1.5-1.063 1.5-2 0-.97-.31-2-1.482-2m-16.966 2.558a.558.558 0 0 1 0-1.116.558.558 0 0 1 0 1.116"/><path fill="#EC1C24" d="M28.552 28.44a.434.434 0 0 1-.432-.44c0-.245.192-.44.432-.44s.433.195.433.44a.44.44 0 0 1-.433.44"/><path fill="#108541" fill-rule="evenodd" d="M7 25v6c6.135 1.344 13.835 2 20.822 2 7.231 0 15.248-.71 21.178-2v-6c-6.917-1.547-13.909-2-21-2-7.038 0-14.916.687-21 2m21-4c7.754 0 15.447.8 23 2.57v8.937C43.426 34.263 35.59 35 27.822 35 20.159 35 12.467 34.188 5 32.458V23.49C12.525 21.77 20.285 21 28 21" clip-rule="evenodd"/><path fill="url(#b)" d="M27.822 34c-7.319 0-15.45-.87-21.759-2.331L6 31.652v-7.354l.063-.016C12.316 22.854 20.448 22 27.823 22h.039c8.843 0 17.204 1.215 22.075 2.356l.063.016v7.33l-.063.016C43.88 33.122 35.402 34 27.822 34M6.5 31.187c6.285 1.445 14.035 2.313 21.314 2.313 7.548 0 15.638-.86 21.686-2.264v-6.39C44.629 23.705 36.657 22.5 27.862 22.5h-.04c-7.334 0-15.085.852-21.322 2.272z"/><path fill="#F0F3FA" d="M25 23h6v2h-6z" opacity=".5"/><defs><linearGradient id="a" x1="28" x2="28" y1="33.996" y2="21.998" gradientUnits="userSpaceOnUse"><stop offset=".1" stop-color="#00703F"/><stop offset=".275" stop-color="#00A551"/><stop offset=".848" stop-color="#34AF72"/><stop offset="1" stop-color="#fff"/></linearGradient><linearGradient id="b" x1="6" x2="50" y1="28.001" y2="28.001" gradientUnits="userSpaceOnUse"><stop stop-color="#EA2127"/><stop offset="1" stop-color="#FBED1D"/></linearGradient></defs></svg>