<svg xmlns="http://www.w3.org/2000/svg" width="56" height="56"><path fill="#46D519" d="M0 0h56v56H0z"/><path fill="#2E353B" d="M10.12 34.7 14.87 17h2.2l-4.9 18H23l-.67 2H11.95c-2.1-.06-2.1-1.56-1.83-2.3M32.84 21a2.82 2.82 0 0 1 2.78-2h5.33l-.5 2h-4.68c-.88 0-1.05.83-1.05.83l-1.98 6.84s-.37 1.33.79 1.33h6.84l-.52 2h-6.2c-2.88-.27-3.14-2.5-2.9-3.57.49-1.78 1.6-5.75 2.1-7.42Z"/><path fill="#2E353B" fill-rule="evenodd" d="M20.9 19a2.8 2.8 0 0 0-2.76 2c-.5 1.68-1.59 5.65-2.07 7.43-.24 1.08.01 3.3 2.88 3.57h6.71c.75 0 2.36-.44 2.86-2.09l2.4-8.53c.22-.8.12-2.38-2.08-2.38zm-.03 2c-.2-.02-.66.07-.84.68s-1.38 5.16-1.96 7.35c-.07.32 0 .96.87.96h6.71c.26.04.8-.1.98-.96l1.94-6.9c.13-.38.13-1.13-.99-1.13h-6.7Z"/><path fill="#fff" d="M46 19h-4.1l-.53 2h2l-.44 2h2.15z"/><path fill="#2E353B" d="M44.96 24h-2.2l-3.03 12.97c-.15.9-.69 1.03-1.03 1.03h-8.8l-.63 2h9.42c2.21 0 3.1-1.56 3.27-2.34z"/></svg>