<svg xmlns="http://www.w3.org/2000/svg" width="56" height="56"><path fill="#F0F3FA" d="M0 0h56v56H0z"/><path fill="#EBA136" d="M16.87 39.9c-.92-1.3-.66-3.81-.39-4.84l5.03 1.56-.16 5.38c-1.4 0-3.32-.46-4.48-2.1"/><path fill="#F6CE03" d="M26.02 45c5.8 0 13.07-4.72 15.98-7.08l-5.02.48L20.86 36c-.11.43-.33 1.44-.33 2.12 0 5.77 3.14 6.88 5.49 6.88"/><path fill="#00A038" d="M21.2 42h1.1c7.49 0 16.25-2.66 19.7-4.08l-5.02.48-10.04-1.5-6.17-.4-.04.04A9 9 0 0 0 21.2 42"/><path fill="#66BBDA" d="M15 31.31C15 24.28 26.32 13.51 31.99 9c-2.48 4.42-7.49 15.03-7.49 22.1 0 7.06 11.68 7.49 17.5 6.82-1.89.32-6.95.97-12.07.97-11.08 0-14.93-3.7-14.93-7.58"/><path fill="#17434C" d="M42 37.92c-5.82.67-17.5.24-17.5-6.82 0-7.07 5-17.68 7.49-22.1-4.8 5.68-14 18.16-15.52 26.07 1.99 2.2 6.15 3.82 13.46 3.82 5.12 0 10.18-.65 12.07-.97"/><path fill="#332C7A" d="M20.6 37.61a9.8 9.8 0 0 1-4.13-2.54C17.98 27.16 27.18 14.67 32 9l-.66 1.05C28.6 14.35 21 26.37 20.6 37.61"/></svg>