<svg xmlns="http://www.w3.org/2000/svg" width="56" height="56"><path fill="#181B1E" d="M0 0h56v56H0z"/><path fill="#0096DE" d="M21.14 22H9c0 .26.1.51.3.7l5.56 5.3z"/><path fill="#00C0EF" d="M15.6 16.31a1.03 1.03 0 0 0-1.48 0L9.3 21.25c-.2.2-.31.48-.31.75h12.14l-5.55-5.69Z"/><path fill="#0096DE" d="M14.86 28H27c0 .26-.1.51-.3.7L21.13 34l-6.28-6Z"/><path fill="#00C0EF" d="m21.14 22 5.55 5.25c.2.2.31.48.31.75H14.86z"/><path fill="#00378A" d="M21.14 34H9c0-.26.1-.5.3-.69L14.87 28l6.28 6Z"/><path fill="#2B55A0" d="M15.6 39.69c-.41.41-1.07.41-1.48 0L9.3 34.75c-.2-.2-.31-.48-.31-.75h12.14l-5.55 5.69Z"/><path fill="#0096DE" d="M34.86 34H47c0-.26-.1-.51-.3-.7L41.13 28l-6.28 6Z"/><path fill="#00C0EF" d="M40.4 39.69c.41.41 1.07.41 1.48 0l4.81-4.94c.2-.2.31-.48.31-.75H34.86l5.55 5.69Z"/><path fill="#0096DE" d="M41.14 28H29c0-.26.1-.51.3-.7l5.56-5.3z"/><path fill="#00C0EF" d="m34.86 34-5.55-5.25c-.2-.2-.31-.48-.31-.75h12.14z"/><path fill="#00378A" d="M34.86 22H47c0 .26-.1.5-.3.69L41.13 28l-6.28-6Z"/><path fill="#2B55A0" d="M40.4 16.31c.41-.41 1.07-.41 1.48 0l4.81 4.94c.2.2.31.48.31.75H34.86l5.55-5.69Z"/></svg>