<svg xmlns="http://www.w3.org/2000/svg" width="56" height="56"><path fill="#F0F3FA" d="M0 0h56v56H0z"/><path fill="url(#a)" d="M9 17h6.84l7.65 25h-6.84z"/><path fill="url(#b)" d="M24.86 17h6.84l7.65 25H32.5l-7.65-25Z"/><path fill="url(#c)" d="M47 17h-6.84L32.5 42h6.84z"/><path fill="#292E42" d="M32.51 42h6.84l-3.42-11.18L32.5 42Z"/><path fill="url(#d)" d="M31.14 17H24.3l-7.65 25h6.84z"/><path fill="#292E42" d="M24.86 17 28 27.27 31.14 17zm-8.21 25h6.84l-3.42-11.18z"/><defs><linearGradient id="a" x1="16.24" x2="16.24" y1="17" y2="42" gradientUnits="userSpaceOnUse"><stop stop-color="#DCDDE1"/><stop offset="1" stop-color="#383E4E"/></linearGradient><linearGradient id="b" x1="32.1" x2="32.1" y1="17" y2="42" gradientUnits="userSpaceOnUse"><stop stop-color="#DCDDE1"/><stop offset="1" stop-color="#383E4E"/></linearGradient><linearGradient id="c" x1="39.76" x2="39.76" y1="17" y2="42" gradientUnits="userSpaceOnUse"><stop stop-color="#151C2F"/><stop offset="1" stop-color="#DCDDE1"/></linearGradient><linearGradient id="d" x1="23.89" x2="23.89" y1="17" y2="42" gradientUnits="userSpaceOnUse"><stop stop-color="#1A1F33"/><stop offset="1" stop-color="#DCDDE1"/></linearGradient></defs></svg>