<svg xmlns="http://www.w3.org/2000/svg" width="56" height="56"><path fill="#283C4A" d="M0 0h56v56H0z"/><path fill="#10AA50" d="M36.683 23.908c-2.112-9.29-6.516-11.764-7.639-13.512Q28.349 9.24 27.816 8c-.06.825-.168 1.345-.872 1.971-1.413 1.256-7.414 6.13-7.92 16.686-.47 9.842 7.259 15.91 8.28 16.538.785.385 1.741.008 2.208-.346 3.726-2.548 8.816-9.343 7.175-18.941"/><path fill="#B8C4C2" d="M28.136 37.954c-.195 2.436-.334 3.852-.828 5.243 0 0 .324 2.32.552 4.776h.806a45 45 0 0 1 .878-5.143c-1.043-.511-1.368-2.738-1.408-4.876"/><path fill="#12924F" d="M29.544 42.831c-1.055-.485-1.407-4.877-1.407-4.877C28.1 28.553 28 8.209 28 8.209c.328.753.618 1.483 1.044 2.186 1.123 1.75 5.528 4.222 7.64 13.512 1.644 9.582-3.419 16.36-7.14 18.924"/></svg>