<svg xmlns="http://www.w3.org/2000/svg" width="56" height="56"><path fill="#F0F3FA" d="M0 0h56v56H0z"/><path fill="#98D5E9" d="m38 39-10-5.75 10-5.749z"/><path fill="#0065A0" d="M18 39 8 33.25l10-5.749z"/><path fill="#00A7CE" d="m28 33.25 10-5.75V16L18 27.501l10 5.75z"/><path fill="#0065A0" d="M48 33.25 38 27.5l10-5.749v11.5z"/><path fill="#00A7CE" d="m38 39 10-5.75-10-5.749zM18 16.001l-10 5.75V33.25l10-5.75V16z"/><path fill="#002D73" d="m18 27.5 10-5.75-10-5.749v11.5z"/><path fill="#98D5E9" d="m18 39 10-5.75-10-5.749z"/><path fill="#002D73" d="m38 27.5 10-5.75-10-5.749v11.5z"/></svg>