<svg xmlns="http://www.w3.org/2000/svg" width="56" height="56"><path fill="#F0F3FA" d="M0 0h56v56H0z"/><rect width="7" height="1" x="4" y="33" fill="#8ED7F7" rx=".5"/><rect width="7" height="1" x="12" y="33" fill="#6DCEF4" rx=".5"/><rect width="7" height="1" x="20" y="33" fill="#3DC5F2" rx=".5"/><rect width="7" height="1" x="28" y="33" fill="#25B8EB" rx=".5"/><rect width="7" height="1" x="36" y="33" fill="#28B4E9" rx=".5"/><rect width="7" height="1" x="44" y="33" fill="#28ADE4" rx=".5"/><path fill="#E31D38" d="M4 24h.73v1.167q.384-.541.788-.792a2.25 2.25 0 0 1 1.172-.333q.416 0 .788.161.374.162.61.432.236.266.41.766.367-.666.92-1.01a2.2 2.2 0 0 1 1.187-.35q.594 0 1.045.297.457.297.678.829.22.531.22 1.593V30h-.75v-3.24q0-.91-.132-1.25a1.13 1.13 0 0 0-.452-.552 1.34 1.34 0 0 0-.756-.208q-.537 0-.983.313-.442.312-.646.833c-.137.347-.099.927-.099 1.74V30H8v-3.047c0-.684-.15-1.147-.238-1.39a1.14 1.14 0 0 0-.447-.589 1.3 1.3 0 0 0-.761-.224q-.51 0-.957.307a1.8 1.8 0 0 0-.656.818q-.21.516-.21 1.578V30H4zm12.971.042q1.32 0 2.186.948.788.864.788 2.047 0 1.187-.835 2.078-.83.885-2.139.885-1.313 0-2.149-.885-.83-.891-.83-2.078 0-1.178.788-2.042.867-.953 2.191-.953m0 .713a2.12 2.12 0 0 0-1.57.672 2.24 2.24 0 0 0-.657 1.625q0 .615.3 1.146.298.53.808.823.51.286 1.12.286.609 0 1.119-.286.51-.292.809-.823t.3-1.146a2.23 2.23 0 0 0-.663-1.625q-.657-.672-1.566-.672M27 22v8h-.725v-1.12a3.1 3.1 0 0 1-1.04.839q-.573.28-1.256.281-1.214 0-2.076-.87-.855-.874-.856-2.125 0-1.224.867-2.093a2.84 2.84 0 0 1 2.086-.87q.704 0 1.271.296.573.297 1.004.891V22zm-2.942 2.745q-.615 0-1.135.302a2.2 2.2 0 0 0-.83.838 2.29 2.29 0 0 0 .005 2.292 2.22 2.22 0 0 0 1.955 1.156q.603 0 1.145-.302.54-.302.83-.817.294-.516.294-1.162 0-.984-.656-1.646a2.17 2.17 0 0 0-1.608-.661m9.054 3.229.62.323a3.4 3.4 0 0 1-.704.958 2.8 2.8 0 0 1-.898.558A3.2 3.2 0 0 1 31 30q-1.398 0-2.186-.906-.788-.912-.788-2.058 0-1.078.667-1.921.847-1.074 2.265-1.073 1.461 0 2.333 1.099c.413.517.623 1.085.63 1.859h-5.138c.014.66.226 1.28.636 1.703q.614.63 1.518.63.436 0 .846-.15a2.2 2.2 0 0 0 .704-.402q.29-.249.625-.807m0-1.604a2 2 0 0 0-.43-.854 2 2 0 0 0-.741-.563 2.3 2.3 0 0 0-.973-.213q-.84 0-1.444.536c-.295.26-.517.573-.668 1.094zM35.398 24h.752v1.016q.335-.49.71-.73.372-.244.777-.244.305 0 .651.192l-.383.615a1 1 0 0 0-.39-.099q-.366 0-.708.302-.342.297-.52.927-.138.485-.137 1.959V30h-.752zM39 24h.736v1.203q.441-.583.977-.87a2.4 2.4 0 0 1 1.166-.291q.642 0 1.135.323.5.322.736.87.236.546.236 1.703V30h-.73v-2.849q0-.979-.084-1.307-.132-.563-.494-.844-.363-.287-.946-.287-.667 0-1.198.438-.525.438-.693 1.083-.105.422-.105 1.542V30H39zm12.022 0v6h-.725v-1.12a3.1 3.1 0 0 1-1.04.839A2.8 2.8 0 0 1 48 30q-1.213 0-2.075-.87-.855-.874-.856-2.125 0-1.224.866-2.093a2.84 2.84 0 0 1 2.087-.87 2.7 2.7 0 0 1 1.271.296 2.9 2.9 0 0 1 1.004.891V24zm-2.943.745q-.615 0-1.135.302a2.2 2.2 0 0 0-.83.838 2.29 2.29 0 0 0 .005 2.292q.31.548.83.854.526.303 1.125.302.605 0 1.145-.302.542-.302.83-.817.295-.516.295-1.162 0-.984-.657-1.646-.651-.66-1.608-.661"/></svg>