<svg width="56" height="56" xmlns="http://www.w3.org/2000/svg" viewBox="0 0 56 56"><path fill="#e11a2b" d="M0 0h56v56H0z"/><path fill="#fff" d="M30.929 32.518c.381-.34.729-.564 1.093-.709.362-.143.76-.213 1.285-.22.585 0 1.186.17 1.693.478.589.36 1.026.893 1.261 1.543l.085.236h1.103l-.168-.475a4.03 4.03 0 0 0-1.763-2.157 4.5 4.5 0 0 0-2.265-.618c-1.178 0-2.263.435-3.055 1.225s-1.229 1.872-1.229 3.046c0 1.081.404 2.141 1.109 2.908.803.873 1.925 1.335 3.245 1.335.883 0 1.721-.254 2.424-.733a4.04 4.04 0 0 0 1.519-1.968l.107-.323h-1.112l-.016.086c-.168.486-.534.963-1.006 1.309a3.38 3.38 0 0 1-1.986.635c-.433 0-.853-.078-1.247-.233a3.2 3.2 0 0 1-1.042-.669 3.1 3.1 0 0 1-.718-1.057 3.4 3.4 0 0 1-.25-1.304c0-.448.089-.907.26-1.326.166-.412.4-.762.673-1.009m-13.937-.846a2.7 2.7 0 0 0-1.009-.636c-.745-.271-1.767-.294-2.614.061a3.06 3.06 0 0 0-1.395 1.158 2.2 2.2 0 0 0-.269-.39 2.76 2.76 0 0 0-1.07-.775 3.6 3.6 0 0 0-1.39-.261c-.32 0-.808.05-1.323.284a3 3 0 0 0-.896.63v-.914H6v8.17h1v-4.448c0-.466.077-.845.182-1.179a2.3 2.3 0 0 1 .478-.852 1.8 1.8 0 0 1 .681-.52c.294-.13.605-.195.894-.179.4.013.752.087 1.044.218.284.129.522.315.706.55.173.23.278.432.35.674.09.296.131.659.131 1.142L11.463 39h1.026v-4.37c0-.508.016-.913.096-1.24.07-.287.196-.535.422-.826q.287-.372.791-.57a2.74 2.74 0 0 1 1.818-.03q.372.134.635.405.33.331.498.868c.118.38.251.849.251 1.393V39h1v-4.37a5.7 5.7 0 0 0-.28-1.719c-.16-.509-.406-.926-.728-1.24zm32.502 3.069c-.449-.338-.992-.484-1.521-.627l-.059-.015c-.549-.153-.873-.295-1.086-.475-.215-.184-.319-.427-.337-.786a1.2 1.2 0 0 1 .069-.47q.08-.218.238-.384.177-.185.438-.288.27-.105.602-.106a1.4 1.4 0 0 1 .534.084q.234.085.398.244.156.154.242.377.09.235.095.534v.575h1.025l.001-.587c-.011-.647-.237-1.2-.652-1.6-.412-.397-.982-.611-1.652-.62-.613 0-1.182.191-1.604.54-.496.41-.758 1.005-.758 1.727.024.694.253 1.19.722 1.56.418.332.995.516 1.56.678.59.13.98.303 1.225.547.226.225.337.53.348.956l.001.05q0 .303-.105.567-.104.262-.299.464a1.4 1.4 0 0 1-.478.318 1.7 1.7 0 0 1-.612.113c-.473 0-.874-.146-1.159-.422-.283-.275-.437-.666-.446-1.13v-.48l-1.007.006-.025.58q0 .456.161.869.163.411.473.74c.245.26.557.472.902.615.342.14.723.215 1.101.215.356 0 .7-.067 1.021-.202a2.5 2.5 0 0 0 .841-.58 2.4 2.4 0 0 0 .656-1.803c-.042-.8-.321-1.384-.853-1.784M27 30.722V32c-.22-.248-.549-.48-.835-.671a4.4 4.4 0 0 0-2.45-.733c-1.625 0-2.628.74-3.184 1.36a4.38 4.38 0 0 0-1.098 2.897c0 1.063.4 2.12 1.097 2.896.556.62 1.56 1.36 3.185 1.36.843 0 1.603-.2 2.258-.595.36-.217.75-.692 1.027-1.014V39h1v-8.278zm-.067 4.676a3 3 0 0 1-.157.586 3.2 3.2 0 0 1-1.16 1.56 3.2 3.2 0 0 1-1.858.572c-1.002 0-1.85-.35-2.451-1.013-.533-.587-.843-1.408-.85-2.25 0-.904.331-1.732.931-2.333.6-.6 1.426-.93 2.327-.93.671 0 1.31.188 1.85.543.536.353.942.854 1.177 1.452q.113.265.171.562.06.297.06.634.01.306-.04.617M27.395 8l-2.206 6.753h-7.184l5.82 4.197-2.205 6.755 5.766-4.18 5.8 4.2-2.216-6.786 5.794-4.186h-7.161zm13.696 29.292-2.602-6.57h-1.113l.209.598c.023.06.764 1.922 1.5 3.768l1.416 3.556-1.479 3.355h1.142l4.623-10.672.212-.606h-1.147l-2.76 6.571z"/></svg>