<svg xmlns="http://www.w3.org/2000/svg" width="56" height="56"><path fill="#3B80C5" d="M0 0h56v56H0z"/><path fill="#fff" d="M45 28.56c0 1.73-1.17 3.44-3.06 3.44-.78 0-1.12-.21-1.44-.46v2.16c0 .7.77.82 1.34.84V35H38v-.46c.54-.04 1-.07 1-.75v-7.2c0-.64-.46-.85-1-.89v-.45l2.5-.25v.96c.45-.54 1-.96 1.71-.96 1.86 0 2.79 1.93 2.79 3.56m-1.38.05c0-1.18-.42-2.85-1.88-2.85-.58 0-.88.31-1.24.76v3.87c.2.64.66 1.1 1.33 1.1 1.46 0 1.8-1.75 1.8-2.88ZM31.5 32h-3.42v-.46c.48-.04.92-.1.92-.7v-3.52c0-.65-.1-1.5-.9-1.5-.69 0-1.27.42-1.6 1.02v3.93c0 .56.43.74.92.77V32H24v-.46c.48-.04 1-.11 1-.7v-3.52c0-.65-.07-1.5-.85-1.5-.74 0-1.27.46-1.65 1.03v3.9c0 .56.5.76 1 .8V32H20v-.46c.49-.04 1-.1 1-.7V26.6c0-.58-.48-.96-1-1v-.45l2.5-.15v1.17c.6-.63 1.29-1.17 2.2-1.17.76 0 1.48.5 1.75 1.22.62-.65 1.26-1.22 2.2-1.22 1.3 0 1.85 1.18 1.85 2.3v3.47c0 .58.5.74 1 .77zM19 30.29A3.12 3.12 0 0 1 16.23 32C14.18 32 13 30.4 13 28.45c0-1.73 1.23-3.45 3.09-3.45C17.8 25 19 26.45 19 28.12v.45h-4.5c0 1.44.45 2.69 2.12 2.69.9 0 1.47-.5 1.9-1.26zM17.5 28c0-1.5-.24-2.5-1.42-2.5-1.2 0-1.58 1-1.58 2.5zM38 30.29A3.12 3.12 0 0 1 35.23 32C33.18 32 32 30.4 32 28.45c0-1.73 1.23-3.45 3.09-3.45C36.8 25 38 26.45 38 28.12v.45h-4.5c0 1.44.45 2.69 2.12 2.69.9 0 1.47-.5 1.9-1.26zM36.5 28c0-1.5-.24-2.5-1.42-2.5-1.2 0-1.58 1-1.58 2.5zM52 30.29A3.12 3.12 0 0 1 49.23 32C47.18 32 46 30.4 46 28.45c0-1.73 1.23-3.45 3.09-3.45C50.8 25 52 26.45 52 28.12v.45h-4.5c0 1.44.45 2.69 2.12 2.69.9 0 1.47-.5 1.9-1.26zM50.5 28c0-1.5-.24-2.5-1.42-2.5-1.2 0-1.58 1-1.58 2.5zM8.26 32C5.6 32 4 29.54 4 27.08 4 24.5 5.69 22 8.47 22c.92 0 1.56.25 2.24.67l.27-.67h.55v3.5h-.5c-.29-1.32-.88-2.93-2.48-2.93-2.3 0-3.05 2.56-3.05 4.42 0 1.88 1.05 4.25 3.25 4.25 1.33 0 2.32-1.03 2.75-2.24l.5.24C11.34 30.9 10.06 32 8.26 32"/></svg>