<svg xmlns="http://www.w3.org/2000/svg" width="56" height="56"><path fill="#F0F3FA" d="M0 0h56v56H0z"/><path fill="#FF3D1E" d="M40.5 24.28c0-.7-.68-1.28-1.33-1.28S38 23.57 38 24.28v7.66c0 .58.43 1.06.97 1.06h4.86c.65 0 1.17-.57 1.17-1.28s-.52-1.28-1.17-1.28H40.5zm6.24.93c.42.5.32 1.2-.24 1.57-.54.36-1.3.27-1.72-.21l-1.53-1.8c-.41-.49-.3-1.18.25-1.55a1.33 1.33 0 0 1 1.73.22zM46 29.15c0-.33.04-.63.24-.9l3.57-4.76a1.21 1.21 0 1 1 1.95 1.45l-3.26 4.44v2.4c0 .68-.61 1.22-1.28 1.22S46 32.46 46 31.79z"/><path fill="#FF3D1E" fill-rule="evenodd" d="M22 33a5 5 0 1 0 0-10 5 5 0 0 0 0 10m0-2.55a2.45 2.45 0 1 0 0-4.9 2.45 2.45 0 0 0 0 4.9"/><path fill="#FF3D1E" d="M28 24.46c0-.8.61-1.46 1.37-1.46h4.54c1.45 0 2.62 1.24 2.62 2.78 0 .8-.32 1.53-.84 2.03.79.48 1.31 1.38 1.31 2.41 0 1.54-1.17 2.78-2.61 2.78h-5.02c-.76 0-1.37-.65-1.37-1.46zm2.5 6.04h3.29c.47 0 .86-.3.86-.8s-.39-.7-.86-.7h-.21c-.5 0-.91-.46-.91-1 0-.62.29-1 .65-1 .47 0 .92-.26.92-.77 0-.5-.45-.73-.92-.73H30.5zM4 24.23c0-.93 1-1.52 1.82-1.08L10 25.43l4.18-2.28c.82-.44 1.82.15 1.82 1.08v7.5c0 .7-.57 1.27-1.27 1.27s-1.23-.57-1.23-1.26V26.4l-2.9 1.72c-.37.22-.83.22-1.2 0L6.5 26.4v5.33c0 .7-.53 1.26-1.23 1.26S4 32.43 4 31.74z"/></svg>