<svg xmlns="http://www.w3.org/2000/svg" width="56" height="56"><path fill="#012369" d="M0 0h56v56H0z"/><path fill="#fff" d="M7.45 27.64c-.1.3-1 2.52-1.44 3.59-.04.08.08.26.25.28.28.02.4-.11.43-.18l.4-.92c.04.27.28.82.93.82s1.11-.25 1.26-.38L7.9 34.5c-.05.13-.07.43.23.49s.46-.16.5-.28c.34-1.12 2-5.39 2.78-7.38.12-.31.26-.64 0-.66-.39-.02-.6.34-.67.52-.26.74-1.5 3.37-2.36 3.38-.68.01-.49-1.85-.31-2.8.09-.34.01-.42-.09-.44-.23-.05-.48.15-.53.31"/><ellipse cx="11.01" cy="31.17" fill="#fff" rx=".49" ry=".33"/><ellipse cx="19.94" cy="28.5" fill="#fff" rx=".49" ry=".33"/><path fill="#fff" d="M12.48 28.34c.04-.49.64-1.47 2.75-1.49 2.64-.02 3.19 2.12 3.19 2.66 0 1.04-1.2 3.3-4.13 3.3-.77-.01-2.25-.46-2.25-1.72 0-.42.28-1.14 1.9-1.14l.87-1.61c.08-.1.3-.3.6-.24.21.04.1.3-.04.61l-.61 1.24.4.04c.78.08 1.96.2 2.37.3.4-.88.1-2.63-2.89-3.05-.5-.07-1.25.12-1.38.86 0 .11.06.4.27.61.03.05.1.15.1.22 0 .1-.1.23-.38.2-.27-.02-.77-.2-.77-.79m4.94 2.2c-1.45-.12-4.59-.13-4.59.55 0 .29.48.82 2 .81 1.53 0 2.36-.9 2.6-1.36zm2.36-1.38c-.07-.17-.4-.11-.57-.06-.31.4-.87 1.62-1.11 2.18.28.2.62.11.76.04.13-.41 1-1.96.92-2.16m-.56 1.94c.16-.52.86-1.68 2.3-2.11.3-.02.88.03.9.42 0 .07-.04.24-.19.36-.06 0-.2.04-.27.14-.08.13-.49.76-.5.9l.6-.25v-.21c.14-.1.52-.25.84-.14l.04.3c.02.09.13.3.38.4.01-.08-.02-.36-.31-.74-.36-.47-.07-1.18.76-1.18.77 0 1.07.2 1.11.51.04.25-.24.52-.39.62-.15.03-.48.04-.56-.11-.01-.02-.02-.09.04-.15.07-.09.27-.34.27-.45 0-.1-.12-.17-.27-.17-.16 0-.32.1-.3.4.02.31.22.83.4 1.23.17.39-.15.53-.4.53-.25.01-.69.02-1.4-.59-.22.2-.76.6-1.12.6-.37 0-.57-.2-.62-.3-.12.1-.44.3-.74.3a.7.7 0 0 1-.57-.3zm2.26-1.75c-.35.25-1.1.87-1.27 1.33.25-.14.86-.6 1.27-1.33"/><path fill="#fff" fill-rule="evenodd" d="M26.35 29.02c-.23.02-.68-.12-.7-.82 0-.88 1.48-1.45 3.04-1.4 1.53.03 2.43.58 2.52 1.4 0 .2-.1.67-.59.96.15.08.52.36.84.88.2-.18.61-.58.68-.77.1-.25.48-.4.82-.35l-.07.24c.39-.1 1.15-.22 1.15.1 0 .07-.05.22-.25.32-.24.12-1.1.93-.97 1.2.12.02.45 0 .8-.34h.1v.29c.43-.63 1.5-1.86 2.35-1.81 1.08.06.69.63.58.73-.09.02-.27.1-.33.22-.03.07-.14.22-.26.39-.17.23-.36.5-.37.58.47-.2 1.42-.57 1.53-.57l.99-1.19c.1-.07.34-.17.48 0 .14.18.01.32-.07.37.22-.14.75-.4 1.14-.37.39.04.24.4.11.57l-.83 1.13c.1 0 .42-.07.92-.4l.12.06c.2-.52.84-1.56 1.75-1.52.92.04.93.5.82.73-.15.2-.52.62-.82.62s-.4-.16-.41-.24c.22-.17.65-.56.5-.76-.17-.25-1.08.96-1 1.57a5.6 5.6 0 0 0 1.97-.97c.16-.3.67-.9 1.46-.85.24 0 .72.14.78.63l5.98-.3c.3.11.9.43.89.81l-6.95-.13c-.26.45-.92 1.37-1.51 1.4-.75.03-1.03-.28-1.07-.8-.33.25-1.1.76-1.55.8-.55.05-.81-.4-.88-.66-.04.2-.4.62-1.53.72-.15 0-.44-.03-.42-.25a6.2 6.2 0 0 1 1.03-1.46c.02-.03.06-.08 0-.13-.08-.05-1.02.8-1.81 1.7-.15.1-.52.25-.8-.06l.3-.45c-.2.18-.74.54-1.27.59a.6.6 0 0 1-.6-.32c-.11.12-.42.38-.72.38-.38 0-.6-.3-.6-.48-.25.16-.83.48-1.22.48-.4 0-.43-.32-.4-.48.1-.23.47-.86 1.03-1.43-.03-.03-.14-.08-.3-.04l-.07.07a10 10 0 0 0-1.02 1.16c0 .19-.24 1.92-3.54 2.1-1 .06-3.02-.18-3.01-1.58.02-.35.38-1.1 1.7-1.34-.27 0-.81-.08-.87-.37-.05-.3.27-.5.43-.56m0-.85c-.04.28.23.56.37.66.21-.12.72-.2.94-.22l.2-.37c.14-.26.48-.2.64-.13l-.19.46c.62 0 1.46.24 1.8.36.14-.11.4-.41.38-.69-.01-.35-.66-1.1-2.11-1.1-1.46 0-2 .68-2.04 1.03zm.68 1.33c-.25-.06-.54-.24.31-.47zm1.06-.55-.3.55c.56.04 1.35-.14 1.68-.24a4.2 4.2 0 0 0-1.38-.3zm-.49.99a13.6 13.6 0 0 0 2.34-.45c.17.12.56.44.68.74-.68-.1-2.25-.3-3.02-.3zm-1.64 1.35c.06-.84 3.24-.88 4.82-.8.08.38-.48 1.64-2.7 1.69-1.77.03-2.15-.58-2.12-.9zm9.92-2.03c-.35.25-1.06 1-1.24 1.45.26-.14.83-.72 1.24-1.45m8.49.08c-.15.02-.39.27-.49.4h.49c.07-.12.03-.32 0-.4m-.77.8h.53c-.17.25-.57.75-.83.79-.2.02.1-.51.3-.79"/><path fill="#fff" d="M21.84 26.74c-3.5 0-5.54-1.55-6.39-2.43a8.11 8.11 0 0 0 6.39 2.81c4.32-.02 8.1-1.49 10.73-2.57 2.87-1.17 7.38-4.27 9.91-6.1l-.06-.1-3.09 2.15 3.02-2.23-.07-.1-3.02 2.21 2.94-2.27-.08-.1c-6.67 5.54-14.47 8.73-20.28 8.73"/><path fill="#fff" d="M29.14 24.57a3.68 3.68 0 0 1 2.5-1.15c-.14.07-.38.39-.52.63-.11.19-.34.42-.43.52-.49.4-1.92.9-2.57 1.1.3-.26.8-.85 1.02-1.1m.76 1.85a3.68 3.68 0 0 0 2.67-.64 1.9 1.9 0 0 1-.8-.17c-.2-.09-.52-.13-.65-.14a10.5 10.5 0 0 0-2.7.71c.4.02 1.15.17 1.47.24zm2.65-.92c1.3.07 2.28-.55 2.61-.87-.15.05-.54-.03-.8-.1a2.8 2.8 0 0 0-.67-.1c-.62.05-2.01.65-2.63.95.4-.01 1.16.07 1.5.12zm2.65-1.16a3.7 3.7 0 0 0 2.52-1.13c-.15.06-.54.03-.81-.02a2.8 2.8 0 0 0-.67-.02c-.62.1-1.94.85-2.53 1.2.4-.05 1.16-.04 1.5-.03zm-3.52-.86a3.7 3.7 0 0 1 2.34-1.46c-.14.08-.33.43-.44.69-.08.2-.28.46-.36.57-.43.46-1.78 1.15-2.4 1.44.26-.3.68-.95.86-1.24m2.31-1.16a3.7 3.7 0 0 1 2.31-1.5c-.13.1-.32.44-.42.7-.08.2-.27.47-.36.58-.42.46-1.76 1.17-2.38 1.47.26-.3.68-.96.85-1.25"/><path fill="#fff" d="m36.07 20.91 3.82-2.78.06.09L36.13 21zm-.3.57 4-2.9.06.07-4 2.91zm-.41.61L39.67 19l.06.08-4.3 3.09zm.99 1.08 4.04-2.26.05.09-4.04 2.26zm.58.05 4-2.27.06.1-4 2.25zm.59.03 3.67-2.07.05.09-3.67 2.07z"/></svg>