<svg xmlns="http://www.w3.org/2000/svg" width="56" height="56"><path fill="#F0F3FA" d="M0 0h56v56H0z"/><path fill="#AC1A24" fill-rule="evenodd" d="M28.3 19c.99 0 1.7.86 1.7 1.92V30l6.62-10.22a1.8 1.8 0 0 1 1.44-.78h1.6c.3 0 .62.02.92.06 4.16.5 7.4 4.29 7.42 8.9.02 4.97-3.84 9.04-8.45 9.04H37.8c-.96 0-1.75-.87-1.79-1.9v-8.35l-6.26 9.46-.01.03c-.33.46-.84.76-1.43.76-.96 0-1.26-.88-1.3-1.9V26l-7.02 10.22c-.32.45-.86.78-1.43.78-1 0-1.6-.93-1.55-2v-8.5l-6.76 9.7c-.33.49-.88.8-1.45.8-1 0-1.8-.86-1.8-1.93 0-.42.13-.81.34-1.13L17.1 19.8l.02-.03c.33-.46.85-.76 1.43-.76.98 0 1.45.86 1.45 1.92V30l6.87-10.22c.33-.46.85-.78 1.43-.78m12.2 15H39V22h1.58c2.68 0 4.42 3.11 4.42 6s-1.82 6-4.5 6"/></svg>