<svg xmlns="http://www.w3.org/2000/svg" width="56" height="56"><path fill="#F0F3FA" d="M0 0h56v56H0z"/><path fill="#002F6D" d="M46 27.34C46 21.093 37.942 16 28 16c-9.94 0-17.998 5.093-17.998 11.34l-.002.664C10 34.632 17.043 40 27.998 40 39.021 40 46 34.633 46 28.006z"/><path fill="#FFE900" d="M45.31 27.335c0 5.89-7.748 10.664-17.306 10.664s-17.306-4.774-17.306-10.664 7.748-10.666 17.306-10.666 17.307 4.775 17.307 10.666z"/><path fill="#fff" d="M22.258 23.97c-.01.017-.182.189-.07.327.273.336 1.116.529 1.97.345.507-.11 1.158-.61 1.789-1.091.683-.523 1.362-1.047 2.043-1.255.722-.222 1.184-.127 1.49-.038.335.097.73.31 1.358.764 1.184.857 5.946 4.86 6.769 5.553.662-.289 3.607-1.51 7.609-2.36-.348-2.055-1.646-3.934-3.614-5.474-2.743 1.11-6.095 1.689-9.373.147-.017-.007-1.792-.816-3.542-.776-2.6.058-3.727 1.142-4.92 2.29z"/><path fill="#fff" d="M37.413 29.01c-.055-.048-5.599-4.72-6.854-5.629-.727-.525-1.132-.659-1.556-.71a2.2 2.2 0 0 0-.74.067c-.584.153-1.348.645-2.026 1.163-.702.539-1.364 1.046-1.978 1.179-.785.17-1.743-.03-2.18-.315-.178-.115-.303-.248-.363-.383-.161-.36.137-.649.186-.697l1.53-1.594a31 31 0 0 1 .54-.51c-.494.061-.95.183-1.394.302-.554.15-1.087.293-1.627.293-.225 0-1.431-.19-1.66-.25-1.385-.366-2.6-.721-4.415-1.537-2.174 1.559-3.628 3.509-4.048 5.656.312.08.816.224 1.027.27 4.921 1.054 6.454 2.14 6.732 2.366a1.67 1.67 0 0 1 1.22-.527 1.65 1.65 0 0 1 1.333.672c.282-.215.67-.398 1.173-.398q.345 0 .704.12c.555.183.842.539.99.86.187-.08.416-.14.685-.14.265 0 .541.059.819.175.907.375 1.049 1.233.966 1.88q.097-.01.196-.01c1.076.001 1.95.843 1.95 1.88 0 .321-.085.623-.233.887.293.159 1.039.518 1.694.438.523-.064.722-.236.793-.333.05-.067.1-.144.052-.2l-1.388-1.486s-.229-.209-.153-.289c.078-.083.22.036.32.117.706.568 1.569 1.426 1.569 1.426.014.01.072.118.39.173.276.047.761.02 1.098-.246.085-.068.17-.152.241-.238-.005.003-.01.01-.015.012.355-.438-.04-.881-.04-.881L31.33 30.82s-.232-.207-.153-.29c.07-.072.22.037.321.118.514.413 1.24 1.115 1.934 1.77.135.096.747.46 1.555-.052.491-.31.59-.69.576-.978-.034-.38-.343-.652-.343-.652l-2.214-2.144s-.234-.193-.15-.29c.066-.082.219.036.318.116.706.569 2.615 2.255 2.615 2.255.027.019.687.471 1.502-.029.292-.18.478-.45.494-.764a1.11 1.11 0 0 0-.372-.87"/><path fill="#fff" d="M26.673 31.729c-.344-.004-.72.192-.769.164-.027-.018.021-.15.054-.227.033-.076.485-1.387-.617-1.842-.844-.349-1.36.044-1.537.22-.046.048-.067.044-.072-.016-.017-.235-.127-.874-.855-1.087-1.04-.308-1.71.392-1.879.644a1.19 1.19 0 0 0-1.192-1.015c-.667 0-1.208.52-1.208 1.163 0 .642.54 1.163 1.207 1.163.324.001.619-.124.835-.324q.011.007.006.039c-.05.287-.144 1.333.993 1.759.456.17.843.043 1.164-.174.096-.065.112-.038.098.05-.041.268.011.844.849 1.171.638.25 1.015-.006 1.262-.226.107-.095.137-.08.142.067.03.778.702 1.396 1.517 1.396.84.001 1.52-.653 1.52-1.46.001-.81-.68-1.456-1.518-1.465"/><path fill="#002F6D" d="M26.673 34.55c-.761 0-1.38-.57-1.408-1.295-.002-.063-.008-.228-.154-.228-.06 0-.111.035-.171.086-.167.15-.38.302-.692.302q-.212 0-.456-.096c-.803-.313-.814-.845-.781-1.058.009-.058.011-.117-.03-.163l-.048-.043h-.05c-.042 0-.083.017-.14.055-.233.157-.456.234-.683.234q-.187 0-.38-.072c-1.058-.396-.974-1.358-.923-1.648q.012-.088-.046-.134l-.075-.06-.07.065a1.1 1.1 0 0 1-.76.296c-.605 0-1.098-.475-1.098-1.058s.494-1.058 1.1-1.057c.548 0 1.014.396 1.084.923l.038.284.162-.24c.018-.028.462-.675 1.278-.674q.234 0 .477.072c.65.191.76.76.778.996.011.138.113.145.133.145.056 0 .098-.034.127-.064.123-.124.39-.329.809-.329q.288 0 .605.131c1.034.428.565 1.693.56 1.707-.09.21-.093.302-.01.356l.042.018h.03c.046 0 .104-.02.2-.05.14-.047.353-.118.552-.118.779.009 1.412.619 1.411 1.36 0 .75-.634 1.358-1.411 1.358zm10.954-6.099c-1.707-1.436-5.653-4.74-6.722-5.513-.61-.442-1.027-.676-1.393-.78a2.4 2.4 0 0 0-.684-.103 3 3 0 0 0-.869.14c-.69.211-1.378.738-2.044 1.247l-.034.026c-.62.475-1.261.966-1.746 1.07q-.318.07-.646.07c-.543 0-1.031-.151-1.214-.376q-.045-.055.06-.184l.009-.012 1.502-1.559c1.177-1.133 2.288-2.203 4.846-2.26l.128-.001c1.592 0 3.183.687 3.362.767 1.493.7 3.034 1.057 4.583 1.059 1.614 0 3.28-.385 5.031-1.162q-.294-.237-.608-.464c-1.539.643-3.005.968-4.419.967-1.444-.001-2.888-.335-4.289-.994-.073-.034-1.831-.832-3.66-.833l-.144.002c-2.149.048-3.359.783-4.173 1.427-.791.018-1.474.202-2.082.366-.542.145-1.01.271-1.467.27-.188 0-.527-.016-.557-.017-.525-.015-3.17-.64-5.276-1.408a14 14 0 0 0-.623.452c2.199.868 4.875 1.54 5.72 1.593.234.014.484.04.735.04.559 0 1.116-.15 1.656-.296.318-.086.67-.18 1.04-.248q-.148.14-.296.283l-1.526 1.59c-.12.117-.381.429-.21.813.07.155.208.303.402.43.364.235 1.015.394 1.62.395q.346 0 .646-.065c.64-.139 1.31-.654 2.022-1.198.566-.433 1.37-.984 1.987-1.146.172-.045.383-.073.553-.073q.077 0 .144.008c.407.05.8.184 1.503.692 1.253.906 6.797 5.577 6.85 5.624.005.003.358.296.333.785-.013.272-.17.514-.442.682a1.4 1.4 0 0 1-.728.218 1.2 1.2 0 0 1-.642-.18c-.02-.016-1.92-1.694-2.619-2.257-.111-.089-.22-.169-.329-.169a.18.18 0 0 0-.145.066c-.11.13.013.311.158.43l2.22 2.148c.002.003.275.25.306.58q.025.535-.527.886c-.262.165-.527.25-.787.25-.34 0-.58-.15-.632-.185l-.319-.302c-.581-.552-1.182-1.122-1.621-1.475-.108-.086-.222-.165-.332-.165a.2.2 0 0 0-.14.057c-.05.054-.084.15.04.31.052.066.112.12.112.12l1.62 1.752c.014.016.334.382.036.748l-.057.07a2 2 0 0 1-.15.139c-.276.218-.645.242-.791.242a1.4 1.4 0 0 1-.22-.018q-.24-.041-.318-.13l-.02-.02c-.088-.088-.905-.89-1.58-1.433-.089-.072-.2-.162-.315-.162a.2.2 0 0 0-.146.063c-.134.14.067.351.152.429l1.381 1.466a.3.3 0 0 1-.052.09c-.05.066-.217.227-.718.288a2 2 0 0 1-.183.01c-.517 0-1.068-.24-1.352-.386.13-.263.196-.552.196-.843.001-1.095-.922-1.985-2.059-1.986q-.037 0-.074.002c.037-.5-.036-1.447-1.045-1.864a2.2 2.2 0 0 0-.86-.182q-.332 0-.632.11a1.72 1.72 0 0 0-1.009-.825 2.3 2.3 0 0 0-.739-.125q-.632 0-1.151.355a1.784 1.784 0 0 0-2.586-.14c-.43-.317-2.134-1.36-6.698-2.358a26 26 0 0 1-1.039-.276q-.077.357-.116.721s.841.195 1.007.23c4.662.998 6.202 2.035 6.463 2.23a1.6 1.6 0 0 0-.135.647c0 .927.783 1.683 1.747 1.684q.162 0 .32-.028c.145.683.609 1.2 1.318 1.466q.312.116.622.116.2 0 .398-.048c.13.32.425.72 1.084.977q.347.136.686.136.276 0 .533-.092c.316.741 1.067 1.232 1.904 1.232.555 0 1.087-.217 1.476-.603.332.179 1.035.5 1.744.502q.136 0 .264-.017c.704-.086 1.032-.35 1.183-.557a1 1 0 0 0 .072-.114c.167.046.35.084.56.084.384 0 .753-.126 1.126-.388.367-.255.628-.62.665-.932l.002-.013q.185.037.377.037a2.16 2.16 0 0 0 1.158-.353c.718-.454.843-1.047.83-1.434q.19.038.383.038a2.06 2.06 0 0 0 1.085-.321c.445-.274.712-.694.753-1.183a1.55 1.55 0 0 0-.239-.954c1.203-.5 3.953-1.466 7.191-2.169a7 7 0 0 0-.1-.718c-3.919.837-6.842 2.056-7.575 2.37"/></svg>