<svg xmlns="http://www.w3.org/2000/svg" width="56" height="56"><path fill="#181B1E" d="M0 0h56v56H0z"/><path fill="#FBFFFF" d="M22.98 18c-6.43 0-8 4.97-7.98 7.46v12.37c0 .64.53 1.17 1.18 1.17h2.64c.65 0 1.18-.53 1.18-1.17V25.74c0-3.01 2.03-3.74 3.85-3.74 1.46 0 2.1.91 2.15 1.37v14.46c0 .64.53 1.17 1.18 1.17h2.64c.65 0 1.18-.53 1.18-1.17V23.37c.05-.46.7-1.37 2.15-1.37 1.82 0 3.85.73 3.85 3.74v12.09c0 .64.53 1.17 1.18 1.17h2.64c.65 0 1.18-.53 1.18-1.17V25.46c.02-2.49-1.55-7.46-7.98-7.46-3.26 0-5.52 1.02-5.52 1.02S26.24 18 22.98 18"/><path fill="#FBA72B" d="M11.34 25c-.78 0-1.42-.64-1.33-1.41A12.07 12.07 0 0 1 20.59 13c.77-.1 1.41.55 1.41 1.33v2.54A8.12 8.12 0 0 0 13.88 25z"/></svg>