<svg xmlns="http://www.w3.org/2000/svg" width="56" height="56"><path fill="#0121FF" d="M0 0h56v56H0z"/><path fill="#FCFFF2" d="M50 25h-1v6h3v-1h-2zm-36 3.5V31h4v-1h-3v-1.5h1v-1h-1V26h3v-1h-4v2.5h-1v1zM47 25h1v6h-1zm-28 3v-3h2.99a2.01 2.01 0 0 1 .74 3.88L24 31h-1.2l-1.19-1.98H20V31h-1zm1 0h2a1 1 0 1 0 0-2h-2z"/><path fill="#FCFFF2" d="m28.32 27.13.68-.69A2.45 2.45 0 0 0 26.73 25c-1.69 0-2.73.95-2.73 2.37v1.26c0 1.42 1.04 2.37 2.73 2.37 1.36 0 2.08-.96 2.27-1.44l-.68-.7c-.48.59-.95.99-1.74.99-1.25 0-1.55-.75-1.58-1.22v-1.26c.03-.47.33-1.33 1.58-1.33.86 0 1.22.46 1.74 1.1ZM35 25h1l3 4.32V25h1v6h-1l-3-4.32V31h-1zm-24 0h1v6h-1v-4.32L8 31H7v-4.32L4 31v-1.68L7 25h1v4.32zm35 1v-1h-5v1h2v5h1v-5zm-17 5 1.79-6h1.42L34 31h-1.09l-.3-1H30.4l-.3 1zm1.68-2h1.64l-.82-2.74z"/></svg>