<svg xmlns="http://www.w3.org/2000/svg" width="56" height="56"><path fill="#003697" d="M0 0h56v56H0z"/><path fill="#fff" d="M47.06 29.36h1.5l-.02.11c-.1.43.23.76.65.76.38 0 .81-.26.9-.66.07-.3-.12-.48-.7-.62-.74-.18-2.06-.3-1.82-1.38.26-1.17 1.54-1.57 2.6-1.57.66 0 1.16.13 1.47.4.32.27.43.64.32 1.12H50.5q.165-.75-.57-.75c-.36 0-.75.2-.84.58-.06.27.18.46.7.56l1.06.25c.68.2.95.62.8 1.25C51.44 30.43 50.49 31 49 31c-1.53 0-2.18-.53-1.94-1.6zM45 31l1.51-7H48l-1.51 7zm-.15-2.27h-3.34l-.04.2c-.17.78.1 1.28.76 1.28q.705 0 1.05-.84h1.35C44.2 30.46 43.32 31 41.97 31c-1.57 0-2.23-.88-1.87-2.52A2.98 2.98 0 0 1 43.09 26q1.155 0 1.62.63c.3.42.37 1.05.19 1.88zm-1.92-1.95c-.6 0-1.1.4-1.27 1.22h1.96c.19-.85-.04-1.22-.69-1.22m-4.5-.11.12-.67H40l-1.02 4.94C38.7 32.28 37.64 33 35.96 33c-1.5 0-2.14-.54-1.92-1.6h1.44c-.1.44.22.6.77.6.7 0 1.15-.45 1.28-1.1l.19-.87c-.47.5-1.01.97-1.72.97-1.36 0-1.83-1.3-1.59-2.48.28-1.3 1.25-2.52 2.68-2.52.66 0 1.11.22 1.34.67m-1.05.33c-.83 0-1.27.75-1.42 1.46l-.01.05c-.2.94.06 1.49.72 1.49.88 0 1.3-.92 1.46-1.66.2-.9-.1-1.34-.75-1.34M28 31l1.12-5h1.6l-.17.91A2.6 2.6 0 0 1 32.5 26c.9 0 1.67.5 1.44 1.48l-.8 3.52h-1.6l.69-2.96c.12-.52.08-1.04-.61-1.04-.72 0-1.19.39-1.41 1.36L29.6 31zm-1.5-3 .1-.58c.1-.43-.1-.67-.53-.67-.5 0-.86.25-.95.7h-1.39c.2-.97 1.02-1.45 2.44-1.45.65 0 1.6.06 1.8.82q.075.255-.03.75l-.6 2.82-.08.61H25.8l.12-.7c-.47.47-.98.7-1.51.7-.8 0-1.4-.5-1.4-1.2 0-1.8 1.95-1.78 3.18-1.8h.32Zm-.2.94.07-.27h-.34c-.93 0-1.46.22-1.58.8-.09.4.15.69.6.69.66 0 1.07-.4 1.24-1.22ZM16 24H5.52L4 31h12.02l.93-4.37.82 4.37h1.6l2.9-5.62L21.11 31h1.45L24 24h-2.31l-2.6 5.18-.65-5.18z"/></svg>