<svg xmlns="http://www.w3.org/2000/svg" width="56" height="56"><path fill="#F0F3FA" d="M0 0h56v56H0z"/><path fill="#F7611C" d="M8 15h40l-2.33 4H8zm0 21h24.04l-2.33 4H8z"/><path d="M12 21v13h2v-9l3 9h2l3-9v9h2V21h-3l-3 9-3-9zm14 4h2v9h-2zm0-4h2v2h-2zm4 0h2v13h-2zm4 0h2v13h-2zm7.11 3c2.92.03 3.6 1.95 3.58 3h-1.97c0-.56-.77-1-1.79-1-1 0-1.54.38-1.54.86s.31.84 2.97 1.25c2.15.33 2.64 1.83 2.64 2.76 0 1.03-.73 3.13-3.89 3.13-3.15 0-4.1-1.83-4.11-3h2c0 .83 1.45 1 2.11 1 .58 0 1.74-.05 1.76-.91s-.96-1.03-3.1-1.49c-2.14-.45-2.5-1.91-2.5-2.4 0-.53.2-3.23 3.84-3.2"/><path fill="#F7611C" d="M38 37.05V35h1v2.05l1.74-1.08.52.85-1.81 1.13 1.81 1.13-.52.84L39 38.85V41h-1v-2.16l-1.74 1.08-.52-.84 1.81-1.13-1.81-1.13.52-.85z"/></svg>