<svg xmlns="http://www.w3.org/2000/svg" width="56" height="56" fill="none"><path fill="#0086F9" d="M0 0h56v56H0z"/><path fill="#fff" d="M28.51 23.007h-1.044a.447.447 0 0 0-.466.432v5.52C27 30.584 25.804 31 24.206 31h-.42C22.219 31 21 30.562 21 28.959v-5.52a.44.44 0 0 0-.466-.432h-1.052c-.253-.007-.474.183-.482.425v5.571C19 31.623 20.628 33 23.702 33h.588c3.082 0 4.71-1.384 4.71-3.997v-5.564a.464.464 0 0 0-.474-.439c-.008.007-.008.007-.015.007Zm17.927-.001h-8.855c-.315-.008-.572.181-.582.414v1.144c-.01.24.239.429.554.436H41v7.578c.01.24.267.43.582.422h.836c.315.007.572-.182.582-.422V25h3.418c.325.008.582-.196.582-.436v-1.122c.01-.24-.248-.436-.553-.436 0-.008 0-.008-.01 0M51.533 23h-1.081a.44.44 0 0 0-.452.424v9.152a.445.445 0 0 0 .452.424h1.081a.46.46 0 0 0 .467-.438v-9.124a.45.45 0 0 0-.46-.438zm-13.966 8h-1.6C34.253 31 34 30.802 34 29.074v-5.64c0-.239-.229-.434-.498-.434h-.988c-.277-.007-.506.181-.514.427v7.064C32 32.14 33.086 33 35.681 33h1.886c.237 0 .433-.173.433-.383v-1.22c.008-.216-.18-.397-.425-.404 0 .007-.008.007-.008.007m-21.892-8h-2.56c-.382 0-.613.153-.714.465L10.007 31l-2.401-7.535c-.101-.312-.332-.465-.714-.465h-2.56a.34.34 0 0 0-.332.356v9.288a.343.343 0 0 0 .34.356h1.314c.187 0 .346-.16.346-.349V25.77c-.004-.101.038-.168.089-.174.037-.004.08.024.113.094l2.392 6.89c.108.283.303.421.598.421H10.8c.296 0 .498-.138.606-.422l2.392-6.889c.032-.067.072-.096.108-.094.054.002.098.07.094.174v6.875a.343.343 0 0 0 .339.356h1.315a.355.355 0 0 0 .346-.356v-9.288a.34.34 0 0 0-.325-.356Z"/></svg>