<svg xmlns="http://www.w3.org/2000/svg" width="56" height="56"><path fill="#F0F3FA" d="M0 0h56v56H0z"/><path fill="#D70022" d="M26.32 11.48c.46-.05.82-.17.81-.28 0-.11-.39-.16-.85-.12-.46.05-.82.18-.81.28 0 .11.39.17.85.12m3.91.68c.5.07.92-.02.94-.2.03-.17-.35-.37-.85-.44-.5-.08-.91 0-.94.19-.02.17.36.38.85.45m-6.74.04c.45-.13.8-.34.76-.47-.04-.12-.44-.12-.9 0-.44.14-.78.35-.75.47.04.13.43.12.89 0m9.34-.07c.45.13.83.15.87.04.03-.1-.3-.3-.74-.44-.45-.14-.83-.16-.87-.05-.03.11.3.31.74.45m-5.54.48c.52-.02.93-.23.92-.46s-.44-.4-.96-.37c-.52.02-.93.23-.92.46s.44.4.96.37m-3.13.85c.51-.13.88-.44.82-.69-.07-.24-.54-.33-1.05-.2-.52.14-.88.44-.82.69.06.24.53.33 1.05.2m-3.45-.19c.42-.2.72-.46.66-.58s-.45-.05-.87.15-.71.46-.65.58c.05.12.44.05.86-.15m13.7.37c.47.2.92.22 1 .04.08-.19-.23-.5-.7-.71-.46-.21-.91-.23-1-.05-.07.19.24.5.7.72m-2.74.22c.53.14 1.01.02 1.08-.25s-.3-.6-.84-.73c-.53-.13-1.01-.02-1.08.25s.3.6.84.73m4.93-.06c.4.24.78.35.83.26.06-.1-.22-.37-.62-.6-.4-.25-.77-.37-.83-.27s.22.37.62.6Zm-8.1.7c.58.02 1.06-.24 1.07-.58.01-.35-.45-.64-1.02-.66-.58-.03-1.06.24-1.08.58 0 .34.45.64 1.03.66m-7.46.17c.48-.25.77-.63.66-.85-.12-.23-.6-.21-1.07.03-.48.25-.77.63-.66.85.12.23.6.21 1.07-.03m-2.89-.02c.38-.28.63-.58.56-.67-.07-.1-.42.06-.8.34s-.63.57-.56.67c.07.09.43-.07.8-.34m6.96.86c.58-.13.99-.54.9-.91-.08-.37-.62-.56-1.2-.43-.59.14-.99.55-.9.92.08.37.62.56 1.2.42m10.96.32c.46.3.96.36 1.11.12.16-.24-.08-.68-.54-.98s-.96-.36-1.12-.12c-.15.24.1.68.55.98m2.23-.08c.38.31.77.46.89.32.11-.13-.1-.5-.48-.82-.37-.31-.77-.46-.88-.32-.12.14.1.5.47.82m-5.07.56c.54.24 1.11.15 1.26-.2.16-.35-.16-.83-.7-1.07-.55-.24-1.12-.15-1.27.2s.16.83.7 1.07Zm-15.06-.18c.4-.34.6-.75.46-.93-.14-.17-.59-.04-.99.3s-.6.75-.46.92c.14.18.58.04.99-.3Zm3.53.7c.53-.3.8-.8.62-1.13-.19-.34-.76-.37-1.28-.07-.53.29-.8.8-.62 1.13.19.33.76.36 1.29.07Zm8.2.34c.63.1 1.2-.18 1.27-.63.08-.46-.37-.91-1-1.02-.62-.1-1.19.18-1.27.64-.07.45.37.9 1 1.01m-3.6 1.21c.66-.1 1.12-.6 1.03-1.1-.08-.5-.67-.82-1.32-.71-.64.1-1.1.6-1.02 1.1s.67.81 1.32.7Zm-11.1-1.01c-.31.38-.46.79-.33.9.14.1.5-.11.82-.5.32-.38.46-.79.33-.9-.14-.1-.5.11-.82.5m3.32.98c.41-.4.55-.94.3-1.18-.23-.24-.76-.11-1.17.3-.41.4-.55.93-.3 1.17.24.25.76.12 1.17-.3Zm21.41-.11c.33.4.74.62.91.48.18-.14.05-.59-.28-1-.32-.4-.73-.61-.9-.47-.18.14-.06.59.27 1Zm-2.21.37c.4.42.93.57 1.18.33s.13-.78-.27-1.2c-.4-.41-.93-.56-1.18-.32s-.13.77.27 1.2Zm3.7-.4c.27.37.55.62.64.55.1-.06-.05-.41-.32-.78s-.56-.61-.65-.55c-.09.07.06.42.33.78m-6.62 1.16c.5.39 1.14.4 1.42.04.29-.37.11-.98-.39-1.37s-1.13-.4-1.42-.04c-.28.37-.1.98.39 1.37m-12.08.4c.55-.36.77-1 .5-1.42-.29-.43-.96-.49-1.5-.13-.55.35-.77.99-.5 1.42.28.42.95.48 1.5.13m8.64.76c.62.27 1.3.07 1.53-.45.22-.52-.1-1.16-.73-1.43-.62-.26-1.3-.06-1.53.46-.22.51.1 1.15.73 1.42m-17.94-1.26c-.23.39-.34.75-.24.8.09.06.35-.21.58-.6s.34-.75.25-.8c-.1-.06-.36.2-.59.6m1.5.18c-.3.45-.36.95-.12 1.1.23.16.66-.09.96-.54.3-.46.36-.95.12-1.1-.23-.16-.66.08-.96.54m3.02.79c-.38.5-.4 1.13-.04 1.42.37.28.98.11 1.36-.39.39-.5.4-1.13.05-1.41-.37-.29-.98-.11-1.37.38m9.8 1.78c.7-.06 1.24-.61 1.18-1.24-.05-.63-.66-1.1-1.36-1.04s-1.24.62-1.19 1.25.67 1.09 1.37 1.03m15.04-1.22c.2.42.47.71.59.66.12-.06.05-.45-.16-.87-.2-.43-.47-.72-.59-.66s-.05.45.16.87m-1.4.34c.25.47.63.76.86.65.22-.12.2-.6-.04-1.07-.24-.48-.62-.77-.85-.65-.22.11-.2.6.03 1.07m-2.14.66c.29.53.79.8 1.12.62s.37-.75.08-1.27-.79-.8-1.12-.62c-.33.19-.37.76-.08 1.28Zm-26.31-.43c-.2.46-.22.9-.04.99.19.08.5-.23.7-.7.21-.46.23-.9.05-.98-.19-.08-.5.23-.7.69ZM36.3 22.8c.34.57.97.81 1.4.55.44-.26.51-.93.17-1.5-.34-.56-.96-.8-1.4-.53-.43.26-.5.93-.17 1.49Zm-12.15.55c.52-.49.59-1.25.16-1.7-.43-.46-1.19-.44-1.7.05-.52.48-.6 1.24-.16 1.7.42.45 1.19.43 1.7-.05m-9.17-1.04c-.24.55-.16 1.11.19 1.26.34.15.81-.17 1.05-.72.24-.54.15-1.1-.2-1.26-.33-.14-.8.18-1.04.72m17.71 1.94c.46.54 1.22.64 1.7.24.48-.41.5-1.18.04-1.72s-1.22-.64-1.7-.24c-.48.41-.5 1.18-.04 1.72m-20.97-1.11c-.12.44-.14.82-.04.85s.29-.3.42-.75c.12-.44.14-.83.04-.85-.1-.03-.29.3-.42.75m32.12.44c.12.44.32.78.44.74.13-.03.13-.42.01-.87-.12-.44-.32-.78-.44-.74-.13.03-.13.42-.01.87m-25.28.35c-.27.62-.07 1.3.44 1.53.5.21 1.14-.12 1.4-.74.27-.63.08-1.31-.43-1.53-.52-.22-1.15.11-1.41.74m24.02.33c.13.52.44.88.69.82.24-.06.33-.53.2-1.05-.14-.52-.45-.89-.7-.83-.23.07-.32.54-.19 1.06m-29.73-.1c-.14.53-.03 1.02.24 1.09s.6-.31.72-.85c.14-.54.03-1.03-.24-1.1-.26-.06-.59.32-.72.86m15.99 2.03c.69.3 1.48 0 1.76-.66a1.33 1.33 0 0 0-.72-1.74c-.69-.3-1.48 0-1.76.66-.3.66.03 1.44.72 1.74m11.7-.98c.13.58.53.99.9.9.37-.08.57-.61.44-1.2-.13-.58-.54-.98-.9-.9-.38.09-.57.62-.44 1.2m-29.04.53c-.06.49.02.9.2.93.17.02.37-.35.44-.84.07-.5-.02-.91-.2-.93-.17-.03-.37.35-.44.84m3.95.16c-.1.63.2 1.2.64 1.27.46.07.9-.38 1-1 .1-.63-.2-1.2-.65-1.27s-.9.38-.99 1m22.23.53c.1.65.6 1.1 1.1 1.03.5-.08.83-.67.72-1.32-.1-.65-.6-1.1-1.1-1.02s-.83.67-.72 1.31m-14.03-.19c-.28.7.03 1.47.7 1.74.66.27 1.43-.07 1.7-.76.29-.7-.02-1.48-.69-1.75a1.33 1.33 0 0 0-1.71.77m20.88.16c.04.46.16.82.27.81.11 0 .17-.38.12-.84-.04-.45-.16-.82-.27-.8-.1 0-.16.38-.12.84Zm-1.11.98c.01.52.2.93.43.92.23 0 .4-.43.37-.95-.01-.52-.2-.94-.43-.93-.22 0-.39.44-.37.96m-30.21.14c-.01.58.25 1.06.6 1.07.33 0 .63-.45.64-1.03.02-.58-.25-1.06-.59-1.07-.34 0-.63.45-.65 1.03m20.84.25c0 .71.5 1.3 1.12 1.3.63 0 1.14-.57 1.15-1.28 0-.71-.5-1.29-1.13-1.3-.63 0-1.14.57-1.14 1.28m-14.42.72c.03.7.57 1.25 1.2 1.22.62-.03 1.1-.63 1.07-1.34-.04-.7-.58-1.25-1.2-1.22-.63.04-1.11.63-1.07 1.34m21.9.11c-.02.58.24 1.06.58 1.08.35 0 .65-.45.67-1.02.02-.58-.24-1.06-.59-1.07-.34-.02-.64.44-.66 1.02Zm-29.75.2c.03.53.23.93.46.92.22-.01.38-.44.34-.96-.03-.52-.23-.93-.45-.91-.23.01-.38.44-.35.96Zm18.15.08c-.35.66-.12 1.47.52 1.81s1.44.08 1.79-.58.12-1.47-.52-1.8a1.33 1.33 0 0 0-1.79.57M16.5 30.07c.1.64.6 1.09 1.1 1 .49-.09.8-.68.68-1.32-.11-.64-.6-1.09-1.1-1s-.8.68-.69 1.32Zm-5.4-.31c.04.45.17.8.28.79s.16-.39.1-.84c-.05-.45-.18-.8-.28-.8-.11.02-.16.4-.1.85m27.78.24c-.11.63.17 1.2.62 1.28s.9-.36 1.01-.98c.11-.63-.16-1.2-.62-1.28-.45-.08-.9.37-1.01.99Zm4.97.32c-.07.49.01.9.18.93.18.03.37-.35.44-.84.08-.5 0-.9-.18-.93-.17-.03-.36.35-.44.84M26.04 32.4c.67.32 1.47.05 1.77-.6s0-1.44-.68-1.75a1.33 1.33 0 0 0-1.77.6c-.3.65 0 1.43.68 1.75m-11.91-1.14c.13.58.54.98.9.9.37-.1.56-.63.42-1.21-.13-.58-.54-.98-.9-.9-.37.1-.56.63-.42 1.2Zm21.41.2c-.28.62-.1 1.3.41 1.54.51.23 1.15-.08 1.44-.7.28-.61.1-1.3-.42-1.53-.5-.24-1.15.07-1.43.69m6.61.29c-.14.53-.03 1.02.24 1.09.28.07.61-.3.75-.83s.03-1.01-.25-1.08c-.27-.07-.6.3-.74.82m-29.59.37c.14.51.44.88.68.82s.33-.53.2-1.05c-.14-.52-.45-.89-.69-.83-.24.07-.32.54-.19 1.06m8.98 1.29c.46.54 1.22.65 1.7.25.47-.4.48-1.17.02-1.7-.45-.55-1.2-.66-1.68-.25-.48.4-.5 1.16-.04 1.7m-9.79-.75c.13.45.32.79.45.76.12-.04.12-.43 0-.88-.13-.45-.33-.79-.45-.76-.12.04-.12.43 0 .88m32.13.24c-.13.44-.16.82-.06.85s.3-.3.43-.75c.13-.44.16-.82.06-.86-.1-.03-.3.3-.43.75Zm-10.65 1.69c.57-.42.73-1.17.36-1.67s-1.14-.56-1.7-.14c-.57.42-.73 1.16-.36 1.67.37.5 1.13.56 1.7.14m6.5-1.28c-.25.54-.18 1.1.17 1.27.34.16.82-.15 1.08-.69.25-.54.17-1.1-.18-1.26-.34-.16-.82.14-1.07.68m-21.59 1.01c.35.55.98.78 1.4.5.42-.26.47-.93.12-1.48-.35-.54-.98-.77-1.4-.5s-.47.93-.12 1.48m-2.56.69c.3.52.8.78 1.12.6.33-.19.35-.76.06-1.27-.3-.51-.8-.78-1.12-.6-.33.2-.35.76-.06 1.27m26.79-.54c-.21.46-.23.9-.05.99.19.08.5-.23.71-.69.2-.46.23-.9.04-.98-.18-.08-.5.22-.7.68m-14.04 1.97c.7-.02 1.27-.54 1.25-1.17-.02-.62-.6-1.11-1.31-1.1-.71.03-1.27.55-1.25 1.17.01.63.6 1.12 1.3 1.1Zm-14.5-1.04c.25.47.62.76.85.65.22-.12.2-.6-.05-1.06-.24-.48-.62-.77-.84-.65-.22.11-.2.59.04 1.06m22.85-.5c-.39.5-.4 1.13-.05 1.42.37.28.97.1 1.36-.4s.4-1.12.05-1.4c-.37-.29-.97-.11-1.36.38m-23.83.62c.21.41.47.7.59.64.1-.05.03-.44-.18-.85-.2-.42-.46-.7-.58-.65-.11.06-.03.44.17.86m10.94 1.97c.61.28 1.3.09 1.53-.42.23-.5-.09-1.14-.7-1.42-.62-.28-1.3-.09-1.54.42-.22.5.1 1.14.7 1.42Zm16.39-1.34c-.3.45-.36.94-.13 1.1.23.15.67-.09.97-.54.3-.46.36-.95.13-1.1-.23-.16-.66.08-.97.54m2.02.49c-.25.4-.37.77-.28.82.1.06.37-.21.6-.61.25-.4.37-.76.28-.82-.1-.06-.37.22-.6.61m-8.02 1.32c.56-.34.8-.96.55-1.39-.26-.43-.93-.5-1.49-.16s-.8.96-.54 1.39.92.5 1.48.16m-14.02.13c.5.39 1.12.42 1.4.06s.1-.96-.39-1.35c-.5-.4-1.12-.42-1.4-.07-.29.36-.11.97.39 1.36m-2.75.29c.4.41.93.55 1.18.31.24-.24.1-.77-.3-1.18s-.93-.55-1.18-.31c-.24.24-.1.77.3 1.18m-3.08-.28c.28.37.57.62.65.55.09-.06-.06-.41-.34-.78s-.57-.62-.65-.56c-.09.06.06.42.34.79m1.15.27c.33.4.73.6.9.45.17-.14.04-.57-.29-.97s-.74-.6-.9-.46c-.17.14-.04.58.29.98m22.8.3c.4-.4.55-.93.3-1.17-.23-.25-.76-.11-1.17.3-.41.4-.55.93-.31 1.18.24.24.77.1 1.18-.3Zm-8.35.91c.64-.1 1.1-.59 1.02-1.08-.08-.5-.67-.81-1.31-.71-.65.1-1.1.59-1.03 1.08.08.5.67.81 1.32.71m10.33-1.24c-.32.38-.47.78-.34.89s.5-.1.82-.48c.31-.38.46-.78.33-.9-.13-.1-.5.11-.81.5Zm-14.48 2.25c.62.1 1.19-.16 1.27-.61s-.36-.9-.98-1.01-1.2.16-1.27.6c-.08.46.36.9.98 1.02m9.11-.09c.52-.28.8-.78.62-1.11s-.75-.37-1.27-.08c-.53.28-.8.78-.62 1.11s.75.37 1.27.08m3.39.1c.4-.32.61-.73.47-.9s-.58-.05-.98.28c-.4.32-.6.73-.47.9.14.17.58.05.98-.28m-16.07.45c.54.24 1.1.16 1.26-.18.15-.35-.16-.82-.7-1.06-.55-.24-1.11-.16-1.26.19-.16.34.16.81.7 1.05m-4.88-.25c.38.31.78.45.9.32.1-.13-.12-.5-.5-.8-.38-.31-.78-.46-.89-.33-.1.14.11.5.5.8Zm2.05.3c.46.3.95.35 1.1.12s-.1-.66-.55-.96-.95-.36-1.1-.13.1.66.55.96Zm11.76.84c.58-.14.98-.55.9-.91-.1-.37-.63-.56-1.2-.43-.58.14-.98.55-.9.91.09.37.63.56 1.2.43m6.88-.19c.37-.27.61-.56.55-.64-.06-.1-.41.05-.78.32s-.61.55-.55.64.41-.06.78-.32m-2.72.49c.47-.25.76-.62.65-.84s-.59-.2-1.06.04c-.48.25-.77.62-.65.84.1.22.58.2 1.06-.04m-7.89.59c.58.03 1.06-.23 1.07-.57.02-.34-.43-.64-1-.67-.58-.03-1.06.23-1.08.57-.02.35.44.65 1.01.67m-8.18-.26c.39.23.74.34.8.24.05-.09-.21-.35-.6-.58-.38-.23-.74-.34-.8-.24-.05.09.22.35.6.58m4.84.6c.53.14 1.01.04 1.08-.23.07-.26-.3-.6-.84-.73-.53-.13-1.01-.03-1.08.24-.07.26.3.59.84.72m-2.75-.1c.46.2.9.21.97.04.08-.18-.23-.49-.69-.69s-.9-.22-.97-.04c-.08.18.23.48.69.69m10.69.42c.52-.14.88-.44.82-.68s-.53-.32-1.05-.19c-.51.14-.88.44-.82.68.07.24.54.32 1.05.19m3.42-.29c.42-.2.72-.46.66-.57-.05-.12-.44-.04-.86.16s-.72.46-.67.58c.06.11.45.04.87-.17m-6.73 1.05c.52-.02.94-.21.93-.43s-.44-.38-.96-.36-.93.21-.92.43c0 .22.43.38.95.36m3.89.05c.45-.13.79-.33.76-.46-.04-.12-.43-.11-.89.01-.45.13-.8.33-.76.45s.43.12.89 0m-9.52-.02c.44.13.82.15.85.05s-.3-.3-.73-.42c-.44-.13-.82-.15-.85-.05s.3.3.73.42m2.59.22c.5.06.9-.03.93-.2.02-.16-.36-.35-.85-.4-.5-.07-.9.01-.93.18-.02.17.36.35.85.41Zm4.04.42c.45-.05.82-.17.8-.27 0-.1-.38-.15-.84-.11-.46.05-.83.17-.82.27s.4.15.85.1Z"/></svg>