<svg xmlns="http://www.w3.org/2000/svg" width="56" height="56"><path fill="#F0F3FA" d="M0 0h56v56H0z"/><path fill="url(#a)" fill-opacity=".5" fill-rule="evenodd" d="M52 23H4v10h48zm-5.35 2H44v6h1.55v-2h1.09l1.67 3H50l-1.77-3.46c.49-.36.76-.9.76-1.54 0-1.3-1.18-2-2.34-2m-1.1 3h.77c.5 0 1.06-.4 1.06-1s-.55-1-1.06-1h-.77zm-6.99 3H37l2.03-6h1.94L43 31h-1.56l-.32-1h-2.24zM40 26.51l.8 2.49h-1.6zM32 25v6h1.5v-2h1.1c1.26 0 2.4-.65 2.4-2 0-1.32-1.1-2-2.34-2zm1.5 3v-2h.82c.56 0 1.07.38 1.07 1 0 .61-.5 1-1.07 1zm-4-3H31v3.82C31 30.4 29.61 31 28.5 31c-1.12 0-2.5-.6-2.5-2.18V25h1.5v3.7c0 .7.48 1.06 1 1.06s1-.37 1-1.06zM25 31v-6h-1.5v3.46L20.47 25H19v6h1.5v-3.46L23.55 31zm-7.5-6v6H16v-6zm-8.45 2-1.3 5H6l1.74-7h2.03l1.1 3.7 1.08-3.7h1.89L15 31h-1.74l-.71-4-.89 4h-1.6l-1-4Z"/><defs><linearGradient id="a" x1="28" x2="28" y1="22.67" y2="33.33" gradientUnits="userSpaceOnUse"><stop/><stop offset=".23" stop-color="#575757"/><stop offset=".8" stop-color="#666"/><stop offset="1"/></linearGradient></defs></svg>