<svg xmlns="http://www.w3.org/2000/svg" width="56" height="56"><path fill="url(#a)" d="M0 0h56v56H0z"/><path fill="#004F7F" d="M19 13h-6v6h6z"/><path fill="#FAA61A" d="M31 13h-6v6h6z"/><path fill="#8E181B" d="M43 13h-6v6h6z"/><path fill="#0084C3" d="M19 13h6v6h-6zm0 6v6h-6v-6z"/><path fill="#68C3EE" d="M25 19h-6v6h6z"/><path fill="#F58020" d="M31 19h-6v6h6z"/><path fill="#C3262D" d="M31 13h6v6h-6zm6 6v6h6v-6z"/><path fill="#76CCCD" d="M19 25h-6v6h6z"/><path fill="#00B3C2" d="M25 25h-6v6h6z"/><path fill="#DF9D88" d="M37 25h-6v6h6z"/><path fill="#ED1C24" d="M31 19h6v6h-6zm6 6h6v6h-6z"/><path fill="#E2C197" d="M25 25h6v6h-6zm6 6h6v6h-6z"/><path fill="#00AA4F" d="M19 37h-6v6h6z"/><path fill="#75C043" d="M13 31h6v6h-6zm6 6h6v6h-6z"/><path fill="#C4D92D" d="M19 31h6v6h-6zm6 6h6v6h-6z"/><path fill="#D7A96F" d="M37 31h6v6h-6zm0 6v6h-6v-6z"/><path fill="#EEE1C5" d="M25 31h6v6h-6zm12 6h6v6h-6z"/><defs><linearGradient id="a" x1="10.418" x2="68.147" y1="9.712" y2="76.017" gradientUnits="userSpaceOnUse"><stop stop-color="#1A1E21"/><stop offset="1" stop-color="#06060A"/></linearGradient></defs></svg>