<svg xmlns="http://www.w3.org/2000/svg" width="56" height="56" fill="none"><path fill="#1B3254" d="M0 0h56v56H0z"/><path fill="url(#a)" fill-rule="evenodd" d="m8 18 13 8.03V18l13 8.03V18l17 10.5L34 39v-8.03L21 39v-8.03L8 39z" clip-rule="evenodd"/><path fill="#1B3254" d="M12 31.014c0 .64-.415.986-1.024.986-.624 0-.976-.408-.976-1.018v-5.044c0-.615.373-.938 1.047-.938h.833c.673 0 .934.35 1.135.954L14 29.5c.223-1.216.663-2.412 1.02-3.595.15-.574.499-.889 1.1-.889h.833c.605 0 1.047.322 1.047.954v5.012c0 .612-.353 1.018-.976 1.018-.613 0-1.024-.346-1.024-.986V27.36l-1.069 4.026c-.115.454-.508.598-.94.598-.466 0-.778-.138-.922-.598l-1.087-4.026zM26 28h1.289c.467 0 .963-.101.963-.716 0-.592-.593-.624-1.013-.624H26zm0 2.981c0 .696-.499 1.003-1.077 1.003-.698 0-.923-.395-.923-1.052v-4.65c0-.964.526-1.282 1.362-1.282h2.027c1.285 0 2.611.208 2.611 1.972 0 .887-.554 1.232-1.385 1.528a1.63 1.63 0 0 1 1.202 1.084c.136.402.183 1.148.183 1.578 0 .639-.438.838-.923.838-1.387 0-.398-2.465-1.855-2.465H26zm11-.652c0-.596.488-.829.953-.829.776 0 1.298 1 2.105 1 .267 0 .942-.154.942-.597 0-1.288-4-.424-4-2.776C37 25.382 38.833 25 39.993 25c.802 0 3.007.228 3.007 1.196 0 .576-.641.804-1.072.804-.74 0-1.425-.518-2.184-.518-.249 0-.744.054-.744.457 0 1.46 4 .721 4 2.822C43 31.663 41.109 32 39.844 32 38.956 32 37 31.811 37 30.329"/><defs><linearGradient id="a" x1="29.5" x2="29.5" y1="18" y2="39" gradientUnits="userSpaceOnUse"><stop stop-color="#FFF100"/><stop offset="1" stop-color="#FECB08"/></linearGradient></defs></svg>