<svg xmlns="http://www.w3.org/2000/svg" width="56" height="56"><path fill="#F0F3FA" d="M0 0h56v56H0z"/><path fill="url(#a)" d="M20 34.4c0-.26.1-.5.28-.69l19.42-21.4a1 1 0 0 1 .73-.31H43a1 1 0 0 1 1 1v30a1 1 0 0 1-1 1H21a1 1 0 0 1-1-1z"/><path fill="url(#b)" d="M30 34.18a1 1 0 0 0-.24-.65L15.18 16.36a1 1 0 0 0-.76-.36H13a1 1 0 0 0-1 1v21a1 1 0 0 0 1 1h16a1 1 0 0 0 1-1z"/><path fill="url(#c)" d="M20.28 33.71a1 1 0 0 0-.28.7V39h9a1 1 0 0 0 1-1v-3.83a1 1 0 0 0-.24-.65l-4.5-5.3-4.98 5.48z"/><defs><linearGradient id="a" x1="31.5" x2="31.5" y1="12" y2="44" gradientUnits="userSpaceOnUse"><stop stop-color="#FFAE00"/><stop offset="1" stop-color="#FF8715"/></linearGradient><linearGradient id="b" x1="21" x2="21" y1="16" y2="39" gradientUnits="userSpaceOnUse"><stop stop-color="#20D765"/><stop offset="1" stop-color="#01D17C"/></linearGradient><linearGradient id="c" x1="21.8" x2="21.82" y1="28.23" y2="39" gradientUnits="userSpaceOnUse"><stop stop-color="#336326"/><stop offset="1" stop-color="#338B2E"/></linearGradient></defs></svg>