<svg xmlns="http://www.w3.org/2000/svg" width="56" height="56"><path fill="#00592E" d="M0 0h56v56H0z"/><path fill="#fff" d="M24.4 35c.6-.05 2.16.25 3.6 1.9 1.44-1.65 3-1.95 3.6-1.9h10.63a12 12 0 0 0 2.3 4.47c.29.36.47.59.47.83 0 .56-.29.7-.43.7H11.43c-.14 0-.43-.14-.43-.7 0-.24.18-.47.48-.83.54-.68 1.48-1.84 2.29-4.46H24.4Zm.71-20c.76.16 1.85.65 2.89 1.84A5.42 5.42 0 0 1 30.89 15h13.68c.14 0 .43.14.43.7 0 .24-.18.47-.48.83A12 12 0 0 0 42.23 21H13.77a12 12 0 0 0-2.3-4.47c-.29-.36-.47-.59-.47-.83 0-.56.29-.7.43-.7H25.1Zm-.17 10a5.7 5.7 0 0 1 2.99 1.75A5.7 5.7 0 0 1 30.9 25H41v6H15v-6z"/></svg>