<svg xmlns="http://www.w3.org/2000/svg" width="56" height="56"><path fill="#181B1E" d="M0 0h56v56H0z"/><path fill="#fff" fill-rule="evenodd" d="m50.73 25.21-.28.6.9.53c.87.52.87 1.8 0 2.32l-.9.54.28.59c.6 1.24-.7 2.53-1.94 1.94l-.6-.28-.53.9c-.52.87-1.8.87-2.32 0l-.54-.9-.59.28c-1.24.6-2.53-.7-1.94-1.94l.28-.6-.9-.53a1.36 1.36 0 0 1 0-2.32l.9-.54-.28-.59c-.6-1.24.7-2.53 1.94-1.94l.6.28.53-.9c.52-.87 1.8-.87 2.32 0l.54.9.59-.28c1.24-.6 2.53.7 1.94 1.94m-3.33-2.4a1.06 1.06 0 0 0-1.8 0l-1.2 2.01c-.15.24-.34.43-.58.57l-2 1.2c-.69.41-.69 1.4 0 1.81l.86.52.15-.3-.78-.47a.75.75 0 0 1 0-1.3l2.22-1.32c.1-.07.2-.16.26-.26l1.32-2.22c.3-.49 1-.49 1.3 0l1.32 2.22c.07.1.16.2.26.26l.59.35.17-.3-.31-.19a1.66 1.66 0 0 1-.57-.57l-1.2-2Zm1.12 1.29-.17-.29.57-.27c.98-.47 2 .56 1.54 1.54l-.8 1.66a1.76 1.76 0 0 0 0 1.52l.8 1.66c.47.98-.56 2-1.54 1.54l-.57-.27.17-.29.18.1c.85.5 1.8-.45 1.3-1.3l-.25-.43-.75-1.29a.95.95 0 0 1 0-.96l1-1.72c.5-.85-.45-1.8-1.3-1.3zm1.8 1.98-.15.3.78.47c.49.3.49 1 0 1.3l-.78.46.15.31.87-.52c.68-.4.68-1.4 0-1.8zm-.38 2.05.1.2.75-.44c.3-.18.3-.6 0-.78l-.75-.45-.1.21c-.2.4-.2.86 0 1.26m-2.54 4.06c-.4.68-1.4.68-1.8 0l-.52-.87.3-.15.47.78c.3.49 1 .49 1.3 0l1.32-2.22c.07-.1.16-.2.26-.26l.59-.35.17.3-.31.19q-.36.21-.57.57l-1.2 2Zm.3-1.77-.2.36-.24-.11a1.76 1.76 0 0 0-1.52 0l-1.66.79c-.98.47-2-.56-1.54-1.54l.8-1.66c.22-.48.22-1.04 0-1.52l-.12-.23.36-.22.42.73c.18.3.18.67 0 .96l-1 1.72c-.5.85.45 1.8 1.3 1.3l1.72-1c.3-.18.67-.18.96 0l.73.42Zm-1.83.52-.2.1.44.75c.18.3.6.3.78 0l.45-.75-.21-.1c-.4-.2-.86-.2-1.26 0m-2.8-4.07-.1-.2-.76.44c-.3.18-.3.6 0 .78l.75.45.1-.21c.2-.4.2-.86 0-1.26Zm.03-1.4-.29.18-.27-.57c-.47-.98.56-2 1.54-1.54l.57.27-.17.29-.18-.1c-.85-.5-1.8.45-1.3 1.3l.1.18Zm2.2-.9.2-.35.24.11c.48.23 1.04.23 1.52 0l.23-.11.22.36-.73.42a.95.95 0 0 1-.96 0l-.73-.42Zm.57-.5-.2-.11.44-.75c.18-.3.6-.3.78 0l.45.75-.21.1c-.4.2-.86.2-1.26 0Zm3.78 1.25-.32-.19c-.19-.11-.35-.27-.46-.46l-.19-.32.17-.1c.58-.34 1.24.32.9.9zm-.97 5.33.17.1c.58.34 1.24-.32.9-.9l-.1-.17-.32.19c-.19.11-.35.27-.46.46zm-4.1-.16.3-.17-.35-.59a.75.75 0 0 0-.26-.26l-.59-.35-.17.3.31.19q.36.21.57.57zm-1.23-.81-.1.17c-.34.58.32 1.24.9.9l.17-.1-.19-.32c-.11-.19-.27-.35-.46-.46zm.97-5.33-.17-.1c-.58-.34-1.24.32-.9.9l.1.17.32-.19c.19-.11.35-.27.46-.46zm.82.49-.36.58c-.08.15-.2.28-.36.36l-.58.36.42.72c.24.4.24.88 0 1.28l-.42.72.58.36c.15.08.28.2.36.36l.36.58.72-.42c.4-.24.88-.24 1.28 0l.72.42.36-.58c.08-.15.2-.28.36-.36l.58-.36-.42-.72c-.24-.4-.24-.88 0-1.28l.42-.72-.58-.36a1.06 1.06 0 0 1-.36-.36l-.36-.58-.72.42c-.4.24-.88.24-1.28 0z"/><path fill="#fff" d="M16.5 26.48c0-.27.24-.48.53-.48H18v4.52c0 .27-.24.48-.53.48h-.97zm2.5-1.45c0 .24.19.44.42.44H21v5.11c0 .23.24.42.53.42h.97v-5.53H25c0-.81-.66-1.47-1.47-1.47H19zm-2.5.31c0-.74.58-1.34 1.3-1.34h.2v1.5h-1.35a.16.16 0 0 1-.15-.16M7.4 24C6 24 5 25.7 5 27.1v2.66a.3.3 0 0 1-.3.3H4V31h1.53c.47 0 .97-.73.97-1.2v-2.87c0-.71.63-1.43 1.35-1.43H9V31h.53c.47 0 .97-.73.97-1.2v-2.87c0-.71.78-1.43 1.65-1.43h1.35v4.3c0 .47.5 1.2.97 1.2H15v-7h-3.3c-.62 0-1.19.33-1.63.82l-.08-.13A1.5 1.5 0 0 0 8.73 24zM26 24h4.4c1.25 0 2.1 1.08 2.1 2.4 0 1.19-.63 2.17-1.69 2.37L33 31h-1.83l-3.43-3.5.26-.11c.33-.13.69-.1.99.08.2.12.4.3.64.3h.14c.62 0 1.23-.53 1.23-1.19s-.38-1.08-1-1.08h-2.5v4.87c0 .25-.35.63-.59.63H26zm7.41 0v.14c0 .09.03.17.08.24l.51.73v3.9c0 1.1.96 1.99 2.15 1.99H41v-.56c0-.52-.46-.94-1.02-.94h-3.67c-.45 0-.8-.33-.8-.74V25.5h4.1c.77 0 1.4-.69 1.4-1.4V24z"/><path fill="#fff" d="M36 28c0-.55.69-1 1.54-1h2.15c.17 0 .31.09.31.2v.6c0 .11-.14.2-.3.2z"/></svg>