<svg xmlns="http://www.w3.org/2000/svg" width="56" height="56"><path fill="#104076" d="M0 0h56v56H0z"/><path fill="#fff" d="M27.131 32.156c-2.18 0-4.137-1.282-4.137-3.074 0-1.793 1.957-3.076 4.153-3.076.954 0 1.846.25 2.815.809l-.683.909a4.8 4.8 0 0 0-2.132-.498c-.923 0-1.99.535-1.99 1.856 0 1.32 1.051 1.854 1.99 1.854a5.3 5.3 0 0 0 2.163-.449l.684.96c-.81.448-1.797.709-2.863.709m13.359-.165c2.377 0 4.498-1.248 4.498-2.991 0-1.745-2.12-2.994-4.498-2.994-2.38 0-4.5 1.248-4.5 2.994 0 1.743 2.12 2.991 4.5 2.991M42.644 29c0 1.284-1.154 1.804-2.154 1.804s-2.155-.52-2.155-1.804c0-1.286 1.154-1.806 2.155-1.806s2.154.52 2.154 1.806m3.343 3.006H48V28.19c0-.47.3-.934.988-.937.48.003 1.012.305 1.012.898v3.854h1.987v-4.11c0-1.03-1.159-1.89-2.541-1.89l-.04.002-.04-.002a3.04 3.04 0 0 0-1.557.425c-.004-.015.134-.433-1.822-.433zm-25.992 0h2v-6h-2zm10.997-.004h2l-.005-3.362c0-.567.358-1.155 1.067-1.155.346 0 .677.112.95.235v-1.658a5 5 0 0 0-.743-.058c-.558 0-.816.113-1.274.388-.034-.07-.21-.39-1.995-.39zm-14.995-2.389v2.393h2v-4.32c-.617.637-1.2 1.285-2 1.927"/><path fill="#fff" d="M18.416 27.474c2.345-2.455 3.316-4.737 2.56-5.835-.79-1.147-3.24-.683-6.418 1.021a3 3 0 0 0-.36.211c-.154.108-.065.187.048.145a3 3 0 0 0 .398-.169c2.382-1.146 4.24-1.352 4.966-.552 1.107 1.22-1.16 5.214-5.084 8.168-.524.395-1.332.972-1.859 1.293l-.105.067a5 5 0 0 0-.36.256c-.095.075-.077.194.094.119a3 3 0 0 0 .366-.198l.093-.056c.591-.364 1.47-.98 2.07-1.405a28 28 0 0 0 1.463-1.11 23 23 0 0 0 2.128-1.955"/><path fill="#fff" d="M8 35.008h2.006v-2.376c.582-.344 1.258-.721 1.837-1.116.13-.09.246-.18.33-.255.137-.127.037-.191-.069-.136a5 5 0 0 0-.379.226c-3.288 2.104-5.508 2.747-6.328 1.633-.712-.967.49-2.87 2.602-4.981v4.9c.6-.203 1.186-.442 2.007-.898v-4.547l.554.944c.514 1.101 1.445 1.76 2.63 1.76 1.183 0 1.825-.606 2.338-1.707l.468-.997v1.16c.762-.74 1.484-1.658 1.977-2.372.062-.088.056-.162.023-.244-.328-.685-.688-1-1.5-1-.803 0-1.621.436-1.956 1.11l-.89 1.89a.5.5 0 0 1-.46.287.5.5 0 0 1-.461-.286l-.891-1.891a2.06 2.06 0 0 0-.757-.833 19 19 0 0 1 1.908-1.358c.142-.086.258-.172.356-.247.096-.074.079-.191-.093-.12-.105.045-.24.111-.375.194-.637.386-1.288.781-1.911 1.207l-.225.155c-.229-.09-.483-.108-.743-.108-1.128 0-2.034.882-2.034 2.01v.282c-3.007 2.683-4.586 5.34-3.76 6.523.605.868 2.076.668 3.795-.08v1.27z"/></svg>