<svg xmlns="http://www.w3.org/2000/svg" width="56" height="56"><path fill="#0090BA" d="M0 0h56v56H0z"/><path fill="#fff" d="m36.82 13-7.598 21.99c-.094.27-.259.507-.475.684a1.4 1.4 0 0 1-.747.316V36h8.032c.629 0 1.167-.421 1.367-1.01L45 13zm-9.331 22c.4 0 .75-.233.964-.587.022-.036.1-.165.156-.34L31 26.357l-1.399-4.506a1.4 1.4 0 0 0-.382-.575 1.1 1.1 0 0 0-.578-.268 1.03 1.03 0 0 0-.614.114 1.25 1.25 0 0 0-.48.462 1.7 1.7 0 0 0-.156.34L25 29.639l1.405 4.524c.091.249.243.46.435.61.193.148.418.228.649.228zM28 20h-7.603c-.589 0-1.093.42-1.283 1.01L12 43h7.66l7.114-21.988a1.53 1.53 0 0 1 .476-.715c.219-.18.48-.282.75-.294z"/></svg>