<svg xmlns="http://www.w3.org/2000/svg" width="56" height="56"><path fill="#293E40" d="M0 0h56v56H0z"/><path fill="#81B5A1" d="M4 35V21h4v1.356c1.031-.882 2.415-1.362 3.756-1.356 1.717-.005 3.035.643 4.136 2 .85 1.054 1.108 2.7 1.108 5v7h-4v-7.583c0-1.856-.804-2.917-2.278-2.917C8.949 24.5 8 25.812 8 27.417V35z"/><path fill="#fff" d="M25.124 21a7.1 7.1 0 0 0-4.136 1.358 7.8 7.8 0 0 0-2.714 3.59 8.35 8.35 0 0 0-.363 4.59 8 8 0 0 0 2.114 4.022c.251.255.58.407.928.426s.69-.095.966-.321a5.07 5.07 0 0 1 3.145-1.106 5.07 5.07 0 0 1 3.145 1.106 1.4 1.4 0 0 0 .98.333c.355-.02.69-.175.944-.438a8 8 0 0 0 2.109-3.998 8.35 8.35 0 0 0-.341-4.57 7.8 7.8 0 0 0-2.675-3.594A7.1 7.1 0 0 0 25.124 21M25 32.5c-2.097.072-3.55-1.563-3.5-3.631C21.434 26.761 22.907 25 25 25s3.566 1.76 3.5 3.869c.052 2.06-1.412 3.69-3.5 3.631"/><path fill="#81B5A1" d="M39 35h-3l-5-14h4l2.5 8 2.5-8h3l2.5 8 2.5-8h4l-5 14h-3l-2.5-8z"/></svg>