<svg xmlns="http://www.w3.org/2000/svg" width="56" height="56" fill="none"><path fill="#F0F3FA" d="M0 0h56v56H0z"/><path fill="url(#a)" d="M32.914 28h-4.682l-2.591 4h9.73l4.887-8H35.07z"/><path fill="#AC2DD9" d="M45 32.448 40.258 24l-4.873 8h-9.75l4.87 9h9.755z"/><path fill="#AC2DD9" d="m21.094 32 5.062-8H16.25l-5.247 8H11l4.874 9h9.753l-4.534-9zM37.5 19.375 32.943 11h-9.824l-5.28 8h10.229l4.876 9z"/><path fill="url(#b)" d="M40.258 24 45 32.429 40.26 41l-4.885-9z"/><path fill="url(#c)" d="M25.9 41H15.875l-4.873-9h10.092z"/><path fill="url(#d)" d="m28 19 4.944 9 4.556-8.594L32.944 11z"/><path fill="url(#e)" d="M32.939 28h-4.705l-2.336-4H20.48l-2.637-5H28z"/><path fill="url(#f)" d="m25.898 24-4.812 8 4.814 9 2.35-4.172L25.637 32l2.597-4z"/><defs><linearGradient id="a" x1="42.344" x2="24.492" y1="23.857" y2="32.312" gradientUnits="userSpaceOnUse"><stop offset=".332" stop-color="#E19CC8"/><stop offset=".541" stop-color="#EFC3E0"/><stop offset=".742" stop-color="#FCE9F7"/></linearGradient><linearGradient id="b" x1="37.031" x2="46.363" y1="26.402" y2="39.051" gradientUnits="userSpaceOnUse"><stop offset=".192" stop-color="#61169D"/><stop offset=".938" stop-color="#3D1A54"/></linearGradient><linearGradient id="c" x1="13.922" x2="25.753" y1="45.554" y2="30.113" gradientUnits="userSpaceOnUse"><stop offset=".337" stop-color="#431361"/><stop offset=".631" stop-color="#60169B"/></linearGradient><linearGradient id="d" x1="39.953" x2="25.339" y1="19.617" y2="21.68" gradientUnits="userSpaceOnUse"><stop offset=".162" stop-color="#461663"/><stop offset=".73" stop-color="#6316A1"/></linearGradient><linearGradient id="e" x1="22.289" x2="29.207" y1="28.143" y2="18.085" gradientUnits="userSpaceOnUse"><stop offset=".423" stop-color="#EEA8DA"/><stop offset=".657" stop-color="#F6CFE0"/><stop offset=".788" stop-color="#FFE1FD"/></linearGradient><linearGradient id="f" x1="27.336" x2="25.176" y1="41" y2="22.388" gradientUnits="userSpaceOnUse"><stop offset=".239" stop-color="#E29DC6"/><stop offset=".705" stop-color="#FFE3F5"/></linearGradient></defs></svg>