<svg xmlns="http://www.w3.org/2000/svg" width="56" height="56"><path fill="#288DC1" d="M0 0h56v56H0z"/><path fill="#fff" d="m38.059 23.147-6.816-4.474-6.805 4.486a.497.497 0 0 1-.684-.14l-.174-.268a.503.503 0 0 1 .14-.688l7.163-4.719a.67.67 0 0 1 .72 0l7.175 4.708c.231.151.29.454.139.687l-.174.268a.487.487 0 0 1-.684.14M44.898 19h-.296a.61.61 0 0 0-.602.611v13.778a.61.61 0 0 0 .602.611h.296a.61.61 0 0 0 .602-.611V19.623a.61.61 0 0 0-.602-.623m4-2h-.296a.61.61 0 0 0-.602.609V33.39c0 .334.272.609.602.609h.296c.33 0 .602-.275.602-.609V17.62a.61.61 0 0 0-.602-.621zm-32.241 8c-1.22 0-2.276.466-3.042 1.329-.72.816-1.115 1.935-1.115 3.136v.152c.012 1.2.418 2.296 1.138 3.089.755.84 1.8 1.294 3.019 1.294 1.3 0 2.299-.478 2.937-.828a.57.57 0 0 0 .279-.373.6.6 0 0 0-.093-.466l-.128-.175a.56.56 0 0 0-.72-.175c-.057.035-.116.058-.174.093-.464.245-1.033.56-1.939.56-1.8 0-2.798-1.295-2.798-2.31l-.012-.081a.24.24 0 0 1 .07-.175c.046-.047.093-.074.151-.074h5.829a.39.39 0 0 0 .395-.357 5 5 0 0 0 .046-.572c0-1.084-.383-2.237-1.08-2.948-.708-.723-1.695-1.119-2.763-1.119m2.287 3.73a.2.2 0 0 1-.14.058h-4.586a.17.17 0 0 1-.139-.07.18.18 0 0 1-.035-.152c.244-1.224 1.324-2.249 2.613-2.249.569 0 1.126.222 1.556.63.418.385.696 1.071.778 1.63a.23.23 0 0 1-.047.152zM38.157 25c-1.22 0-2.276.466-3.042 1.329-.72.816-1.115 1.935-1.115 3.136v.152c.012 1.2.418 2.296 1.138 3.089.755.84 1.8 1.294 3.019 1.294 1.3 0 2.299-.478 2.937-.828a.57.57 0 0 0 .279-.373.6.6 0 0 0-.093-.466l-.128-.175a.56.56 0 0 0-.72-.175c-.058.035-.116.058-.174.093-.464.245-1.033.56-1.939.56-1.8 0-2.798-1.295-2.798-2.31l-.012-.081a.24.24 0 0 1 .07-.175c.047-.047.093-.074.151-.074h5.829a.39.39 0 0 0 .395-.357 5 5 0 0 0 .046-.572c0-1.084-.383-2.237-1.08-2.948-.708-.723-1.695-1.119-2.763-1.119m2.287 3.73a.2.2 0 0 1-.14.058h-4.586a.17.17 0 0 1-.139-.07c-.035-.047-.046-.094-.035-.152.244-1.224 1.324-2.249 2.613-2.249.569 0 1.126.222 1.556.63.418.385.696 1.071.778 1.63a.23.23 0 0 1-.047.152zM32.466 25h-.339a.55.55 0 0 0-.525.398l-1.577 5.711-2.348-5.711a.55.55 0 0 0-.502-.34h-.338a.53.53 0 0 0-.503.34l-2.347 5.711-1.577-5.7a.55.55 0 0 0-.525-.397h-.34a.55.55 0 0 0-.431.21.52.52 0 0 0-.094.468l2.184 7.912a.55.55 0 0 0 .526.398h.198c.222 0 .42-.129.503-.34L27 27.4l2.57 6.249c.081.199.28.34.502.34h.198a.55.55 0 0 0 .526-.399l2.184-7.911a.52.52 0 0 0-.094-.468.53.53 0 0 0-.42-.211m-25.013-.017c-1.143 0-2.083.293-2.853.587a.885.885 0 0 0-.6.821v7.028c0 .329.26.587.566.587h.294c.317 0 .64-.27.64-.587v-6.406c0-.13.006-.246.119-.293a4.65 4.65 0 0 1 1.811-.364c.714 0 1.37.223 1.846.633.475.411.724.986.724 1.62v4.798c0 .329.272.587.578.587h.294c.317 0 .628-.27.628-.587V28.61c.023-2.124-1.68-3.626-4.047-3.626z"/></svg>