<svg xmlns="http://www.w3.org/2000/svg" width="56" height="56"><path fill="#F0F3FA" d="M0 0h56v56H0z"/><path fill="#6DACDE" d="M34 20h-1l-3.5 5.335L26 20h-1v16h1l3.5-5.31L33 36h1z"/><path fill="#938647" d="M25 20h-4.99L25 28.012 20.01 36H25z"/><path fill="#6D9A45" d="M39 20h-5v16h5l-5-7.988z"/><path fill="#BFD730" d="M45.832 20H39l-5 8.012L39 36v-4h8.198C50.894 32 52 29.238 52 26.861v-1.375C52 22.359 50.8 20 45.832 20M47 25.969c0 .947-.337 2.031-1.561 2.031H39v-4h5.992c1.577 0 2.008.605 2.008 1.683z"/><path fill="#FCB316" d="M25 28.013 20 20l.006 9.679L11 20H6v16l5-.001V26l9 10z"/></svg>