<svg xmlns="http://www.w3.org/2000/svg" width="56" height="56"><path fill="#023958" d="M0 0h56v56H0z"/><path fill="#F0000A" d="m38.44 16.64-1.23-.72A45.4 45.4 0 0 1 29.6 28a45.3 45.3 0 0 1 7.6 12.08l1.23-.71A9.2 9.2 0 0 0 43 31.4v-6.8a9.17 9.17 0 0 0-4.56-7.95Z"/><path fill="#F0000A" d="M23.46 33.81a36.8 36.8 0 0 1 6.19 10.04 9 9 0 0 0 2.92-1.07l4.64-2.7A45.4 45.4 0 0 0 29.61 28a45.3 45.3 0 0 1-6.15 5.81" opacity=".8"/><path fill="#F0000A" d="M16.24 38.42c.41.35.85.67 1.32.94l5.88 3.41a9.06 9.06 0 0 0 6.2 1.08 36.8 36.8 0 0 0-6.18-10.04 44.6 44.6 0 0 1-7.22 4.61" opacity=".6"/><path fill="#F0000A" d="M29.6 28a45.3 45.3 0 0 0 7.61-12.08l-4.64-2.7a9.1 9.1 0 0 0-2.93-1.07 36.8 36.8 0 0 1-6.18 10.04A45.4 45.4 0 0 1 29.6 28" opacity=".8"/><path fill="#F0000A" d="M29.64 12.15a9.06 9.06 0 0 0-6.2 1.08l-5.88 3.4c-.47.28-.9.6-1.32.95a45 45 0 0 1 7.22 4.6 36.7 36.7 0 0 0 6.18-10.03M23.46 22.2a36.8 36.8 0 0 1-6.35 5.8 36.6 36.6 0 0 1 6.35 5.81 45.6 45.6 0 0 0 6.15-5.8 45.6 45.6 0 0 0-6.15-5.82Z" opacity=".6"/><path fill="#F0000A" d="M17.1 28c-1.3.94-2.67 1.8-4.1 2.56v.85a9.2 9.2 0 0 0 3.24 7.01 45 45 0 0 0 7.22-4.6A36.7 36.7 0 0 0 17.11 28Zm6.36-5.8a45 45 0 0 0-7.22-4.62A9.2 9.2 0 0 0 13 24.59v.85c1.43.76 2.8 1.62 4.1 2.56a37 37 0 0 0 6.36-5.8" opacity=".4"/></svg>