<svg xmlns="http://www.w3.org/2000/svg" width="56" height="56"><path fill="url(#a)" d="M0 0h56v56H0z"/><path fill="#fff" d="M12.854 37.993q-1.966-.08-3.223-1.099a6.5 6.5 0 0 1-.67-.683 4.3 4.3 0 0 1-.725-1.332c-.474-1.45-.23-3.354.699-5.442.795-1.789 2.022-3.562 4.164-6.018.315-.362 1.254-1.419 1.26-1.419.003 0-.049.09-.113.2-.557.952-1.033 2.073-1.293 3.043-.416 1.557-.366 2.893.148 3.93a3.8 3.8 0 0 0 1.645 1.673c1.197.598 2.948.647 5.087.145.147-.035 7.444-2.012 16.216-4.393S52 22.27 52 22.272c.002.002-20.38 8.9-30.96 13.517-1.675.731-2.123.916-2.911 1.198-2.014.721-3.817 1.066-5.276 1.006z"/><defs><linearGradient id="a" x1="10.418" x2="68.147" y1="9.712" y2="76.017" gradientUnits="userSpaceOnUse"><stop stop-color="#1A1E21"/><stop offset="1" stop-color="#06060A"/></linearGradient></defs></svg>