<svg xmlns="http://www.w3.org/2000/svg" width="56" height="56"><path fill="#F0F3FA" d="M0 0h56v56H0z"/><path d="M16 12h24v32H16z"/><path fill="#fff" d="M16 35h24v6H16z"/><path d="M38.15 40 37 38v2h-1v-4h.83L38 38v-2h1v4zm-19 0L18 38v2h-1v-4h.83L19 38v-2h1v4zM36 38c0 1.2-.79 2-2 2-1.2 0-2-.8-2-2 0-1.19.78-2 1.98-2s2.02.78 2.02 2m-1 0c0-.6-.32-1.22-1-1.22-.7 0-1 .6-1 1.21 0 .6.32 1.23 1 1.23.67 0 1-.61 1-1.23Zm-11 0c0 1.2-.79 2-2 2-1.2 0-2-.8-2-2 0-1.19.78-2 1.98-2s2.02.78 2.02 2m-1 0c0-.6-.32-1.22-1-1.22-.7 0-1 .6-1 1.21 0 .6.32 1.23 1 1.23.67 0 1-.61 1-1.23Zm9-.01c0 1.26-.9 2.01-2.09 2.01H28v-4h1.89c1.22 0 2.11.7 2.11 1.99M31 38c0-.84-.6-1.22-1.46-1.22H29v2.42h.68c.8 0 1.32-.38 1.32-1.2m-4.25 2-.66-1.04c-.22-.36-.43-.6-.86-.6H25V40h-1v-4h2c.75 0 1.5.2 1.5 1.12 0 .65-.35.99-.91 1.1a2 2 0 0 1 .83.8L28 40zm-.2-2.81c0-.45-.51-.45-.84-.45H25v.91h.68c.34 0 .88 0 .88-.46Z"/><path fill="#fff" d="M20.5 29a.5.5 0 0 0-.5.5v1a.5.5 0 0 0-1 0v2a.5.5 0 0 0 1 0v1a.5.5 0 0 0 1 0 .5.5 0 0 0 1 0v-4a.5.5 0 0 0-1 0 .5.5 0 0 0-.5-.5m15 0c.28 0 .5.22.5.5v1a.5.5 0 0 1 1 0v2a.5.5 0 0 1-1 0v1a.5.5 0 0 1-1 0 .5.5 0 0 1-1 0v-4a.5.5 0 0 1 1 0c0-.28.22-.5.5-.5"/><path fill="#fff" d="M28 16.51c-2.2 0-4.2.69-4.2 3.94 0 2.44.77 3.22 1.65 3.99.86.75 1.72 1.5 1.72 3.8 0 3.75-2.55 4.76-3.28 4.76h-1.57v-3h1.18c.42-.08 1.23-.66 1.23-2A8.52 8.52 0 0 1 21 20.76 6.7 6.7 0 0 1 26.78 14h2.44A6.7 6.7 0 0 1 35 20.76 8.52 8.52 0 0 1 31.27 28c0 1.34.8 1.92 1.23 2h1.18v3H32.1c-.73 0-3.28-1-3.28-4.76 0-2.3.86-3.05 1.72-3.8.88-.77 1.65-1.55 1.65-4 0-3.24-2-3.93-4.2-3.93Z"/></svg>