<svg xmlns="http://www.w3.org/2000/svg" width="56" height="56"><path fill="#154A06" d="M0 0h56v56H0z"/><path fill="#fff" d="M41 18h2v7h-2zm-2.3 1.85.3-1.62a6 6 0 0 0-1.66-.23c-.78 0-1.89.38-2.34.57V25h2v-5.29c.2-.05.39-.14.72-.14.37 0 .8.19.98.28M27 24.46V18h-2v4.81c-.23.1-.62.19-.95.19-.95 0-1.04-.9-1.05-1.35V18h-2v4.25c0 1.42.86 2.75 2.95 2.75 1.68 0 2.73-.36 3.05-.54m-14-5.92v5.13L15 25v-4.81c.23-.1.62-.19.95-.19.95 0 1.04.9 1.05 1.35V25h2v-4.25c0-1.42-.86-2.75-2.95-2.75-1.68 0-2.73.36-3.05.54m19 13.95v4.96l1 .55v-4.72c.2-.1 1.18-.28 1.46-.28 1.08 0 1.53.82 1.54 1.23V38h1v-3.5c0-1.29-.72-2.5-2.46-2.5-1.4 0-2.28.33-2.54.49m-6.27-.24c.23-.08.72-.25 1.2-.25 1.02 0 2.1.62 2.07 1.75v3.93c-.57.28-1.2.32-1.83.32-1.08 0-2.17-.8-2.17-2s1.19-2 2.25-2c.45 0 .49.06.75.13v-.39c.02-.74-.47-1.02-1.07-1.02-.37 0-.99.14-1.2.2zM28 35.18c-.15-.07-.2-.18-.75-.18-.66 0-1.25.2-1.25 1s.5 1 1.17 1c.55 0 .61-.05.83-.1zm1-18.87 2-.31v2h2v2h-2v1.86c0 1.01.42 1.43.97 1.43.45 0 .9-.2 1.03-.29v1.54c-.18.15-.46.46-1.38.46-2 0-2.58-1.64-2.62-2.46V16.3Z"/><path fill="#fff" fill-rule="evenodd" d="M13 32.4c.29-.13 1.18-.4 2.06-.4 1.75 0 2.94 1.4 2.94 3.17 0 1.79-.72 2.83-2.63 2.83-.7 0-1-.16-1.37-.36V41l-1-.59v-8Zm1 .73c.3-.06.5-.13 1.06-.13 1.35 0 1.94.82 1.94 2.17 0 1.37-.14 1.83-1.63 1.83-1.1 0-1.31-.43-1.37-.52z"/><path fill="#fff" d="M21 28.57 20 28v8.8c0 .66.6 1.2 1.35 1.2H22v-1h-.49c-.3 0-.51-.21-.51-.48zm18 .63 1-.2v2h2.5v1H40v3.86c.08.62.6 1.14 1.32 1.14.56 0 1.47-.28 1.68-.38v.9c-.3.14-.9.48-1.68.48A2.32 2.32 0 0 1 39 35.94v-6.75Z"/></svg>