<svg xmlns="http://www.w3.org/2000/svg" width="56" height="56" fill="none"><path fill="#00683D" d="M0 0h56v56H0z"/><path stroke="#F08300" d="M28 12.5c8.562 0 15.5 6.938 15.5 15.5S36.562 43.5 28 43.5 12.5 36.562 12.5 28 19.438 12.5 28 12.5z"/><path fill="#fff" d="M20.935 32.741s-.136-1.318-.538-1.955c-.47-.743-1.212-2.289-1.28-2.895-.069-.607-.47-1.35-1.009-1.82.538-.47.94-1.212 1.008-1.819.069-.606.811-2.152 1.281-2.895.402-.636.538-1.955.538-1.955 1.547.94 4.04-.402 5.723-.402s4.176 1.35 5.722.402c0 0 .137 1.319.538 1.955.47.743 1.213 2.29 1.281 2.896.069.606.47 1.349 1.008 1.819-.538.47-.94 1.212-1.008 1.819-.068.606-.81 2.152-1.28 2.895-.402.637-.539 1.955-.539 1.955-1.546-.94-4.04.402-5.722.402s-4.176-1.341-5.723-.402m9.49-8.784c0-2.335-2.623-3.13-3.775-3.13s-3.774.803-3.774 3.13c0 1 .538 1.864.81 2.198-.272.333-.81 1.197-.81 2.198 0 2.334 2.622 3.13 3.774 3.13s3.775-.803 3.775-3.13c0-1-.538-1.865-.811-2.198.273-.334.81-1.198.81-2.198z"/><path fill="#F08300" d="M21.133 19.775a9 9 0 0 1-.075.415c-.085.412-.226.94-.453 1.298a13.4 13.4 0 0 0-1.094 2.244 2.7 2.7 0 0 0-.15.548c-.068.597-.417 1.29-.898 1.791.481.502.83 1.195.898 1.792.013.122.064.31.15.549a13.4 13.4 0 0 0 1.094 2.243c.227.359.368.886.453 1.298.031.153.056.296.075.415.805-.33 1.763-.21 2.664-.019.29.062.593.136.889.208.22.053.437.106.64.151.49.11.94.19 1.332.19s.841-.08 1.332-.19c.203-.045.42-.098.64-.151.295-.072.599-.146.89-.208.9-.19 1.858-.31 2.663.019a9 9 0 0 1 .075-.415c.085-.412.226-.94.453-1.298a13.4 13.4 0 0 0 1.094-2.244c.085-.237.136-.426.15-.548.067-.597.416-1.29.897-1.791-.48-.502-.83-1.195-.897-1.792a2.7 2.7 0 0 0-.15-.549 13.4 13.4 0 0 0-1.094-2.243c-.227-.358-.368-.886-.453-1.298a9 9 0 0 1-.075-.414c-.805.333-1.764.212-2.664.02a32 32 0 0 1-.89-.208c-.221-.054-.437-.107-.639-.152-.491-.111-.94-.19-1.332-.19s-.841.078-1.333.189q-.305.07-.64.151c-.295.072-.598.146-.888.208-.9.19-1.859.31-2.664-.019m11.492-.398v.002l.001.01.005.041a9 9 0 0 0 .109.661c.083.407.211.857.386 1.135a14 14 0 0 1 1.142 2.34c.088.246.155.478.175.659.061.538.429 1.227.926 1.661l.212.186-.212.185c-.497.434-.865 1.123-.925 1.661-.02.181-.088.413-.176.66a14 14 0 0 1-1.142 2.34c-.175.277-.303.727-.387 1.134a9 9 0 0 0-.108.661l-.005.04-.001.01v.003l-.04.387-.332-.202c-.683-.414-1.602-.34-2.632-.12-.293.061-.575.13-.858.2q-.329.08-.665.157c-.497.112-.99.2-1.44.2s-.943-.088-1.44-.2q-.338-.076-.666-.158a29 29 0 0 0-.858-.2c-1.03-.218-1.949-.293-2.631.121l-.332.202-.04-.386v-.003l-.002-.01-.004-.041a9 9 0 0 0-.108-.661c-.085-.407-.212-.857-.388-1.135a14 14 0 0 1-1.141-2.34 3.2 3.2 0 0 1-.176-.659c-.06-.538-.428-1.227-.925-1.661l-.212-.186.212-.185c.497-.434.864-1.123.925-1.661.02-.181.088-.413.176-.66a14 14 0 0 1 1.142-2.34c.175-.277.302-.727.386-1.134a9 9 0 0 0 .109-.661l.005-.04v-.014l.04-.387.333.202c.682.414 1.602.34 2.631.12.293-.061.576-.13.858-.2q.329-.08.665-.157c.498-.112.992-.2 1.44-.2.45 0 .944.089 1.442.201q.335.078.663.158c.284.07.566.14.86.202 1.029.219 1.948.294 2.63-.124l.333-.204zm-8.423 1.933c.841-.517 1.83-.73 2.448-.73s1.607.21 2.448.727c.849.52 1.573 1.373 1.573 2.65 0 .947-.443 1.77-.749 2.198.306.428.748 1.25.748 2.198 0 1.273-.723 2.125-1.572 2.647-.84.517-1.83.729-2.448.729s-1.607-.21-2.448-.726c-.848-.521-1.572-1.373-1.572-2.65 0-.947.443-1.77.748-2.198-.305-.428-.748-1.25-.748-2.198 0-1.274.724-2.126 1.572-2.647m.258.419c-.751.461-1.338 1.175-1.338 2.228 0 .921.5 1.731.755 2.042l.127.156-.127.155c-.255.311-.755 1.122-.755 2.043 0 1.057.587 1.77 1.337 2.231.759.465 1.657.653 2.191.653s1.432-.19 2.19-.656c.752-.462 1.339-1.175 1.339-2.228 0-.921-.501-1.732-.755-2.043l-.128-.155.128-.156c.254-.31.755-1.121.755-2.042 0-1.057-.588-1.77-1.338-2.231-.758-.466-1.657-.654-2.19-.654-.534 0-1.433.19-2.191.657"/><path fill="#fff" d="m23.558 24.018.166 1.515s.675.069 1.008.069c0 0 1.077 0 1.077.742v4.108c0 .539-.607 1.077-.607 1.077s.607.47.607 1.008v2.054c0 1.546-2.054 1.28-2.054 1.28v1.918h1.447c.637 0 1.448-.44 1.448-.44l.773.577c.099-.038.811-.576.811-.576.705 1.28 4.745.303 5.389.136.637-.166 1.478.137 1.478.137 0-.402-.136-.705.606-1.72.743-1.009 1.888-3.131 2.123-3.973.235-.84.81-1.28.81-1.28s-.575-.334-.704-1.213c-.303-1.978-1.683-3.669-2.085-4.078-.401-.402-.303-1.448-.303-1.448-.44.137-1.463-.128-1.463-.128.061.182.099.348.114.47.068.606.47 1.349 1.008 1.819-.538.47-.94 1.212-1.008 1.819-.038.348-.333 1.091-.637 1.735 0 0 .167.758.167 1.365 0 5.047-2.562 4.98-3.365 4.98-.811 0-1.387-.842-1.387-1.38v-2.054c0-.538.606-1.008.606-1.008s-.606-.538-.606-1.076v-4.108c0-.94.978-.743.978-.743.606-.675.401-1.956.401-1.956-.674 0-1.546.402-2.425.402-.872 0-1.281-.402-1.281-.402s-.675.47-1.546.205c-.523-.16-1.546.167-1.546.167"/><path stroke="#F08300" stroke-width=".492" d="m23.558 24.018.166 1.515s.675.069 1.008.069c0 0 1.077 0 1.077.742v4.108c0 .539-.607 1.077-.607 1.077s.607.47.607 1.008v2.054c0 1.546-2.054 1.28-2.054 1.28v1.918h1.447c.637 0 1.448-.44 1.448-.44l.773.577c.099-.038.811-.576.811-.576.705 1.28 4.745.303 5.389.136.637-.166 1.478.137 1.478.137 0-.402-.136-.705.606-1.72.743-1.009 1.888-3.131 2.123-3.973.235-.84.81-1.28.81-1.28s-.575-.334-.704-1.213c-.303-1.978-1.683-3.669-2.085-4.078-.401-.402-.303-1.448-.303-1.448-.44.137-1.463-.128-1.463-.128.061.182.099.348.114.47.068.606.47 1.349 1.008 1.819-.538.47-.94 1.212-1.008 1.819-.038.348-.333 1.091-.637 1.735 0 0 .167.758.167 1.365 0 5.047-2.562 4.98-3.365 4.98-.811 0-1.387-.842-1.387-1.38v-2.054c0-.538.606-1.008.606-1.008s-.606-.538-.606-1.076v-4.108c0-.94.978-.743.978-.743.606-.675.401-1.956.401-1.956-.674 0-1.546.402-2.425.402-.872 0-1.281-.402-1.281-.402s-.675.47-1.546.205c-.523-.16-1.546.167-1.546.167z"/></svg>