<svg xmlns="http://www.w3.org/2000/svg" width="56" height="56"><path fill="#0084AA" d="M0 0h56v56H0z"/><path fill="#fff" d="M8.003 29.94q1.035 0 1.642-.666.61-.666.611-1.895 0-1.223-.611-1.89-.606-.67-1.642-.67t-1.653.666-.618 1.894q0 1.23.618 1.895.617.666 1.653.666M12 27.38q0 1.957-1.263 3-.945.848-2.734.848c-1.789 0-2.104-.283-2.735-.849Q4 29.338 4 27.38q0-1.998 1.268-3 .945-.849 2.735-.849t2.734.85q1.263 1 1.263 3zm7.256-1.513q.367 0 .726.129.358.129.65.451.235.263.317.645.051.254.051.74l-.01 3.164h-1.494v-3.195a.96.96 0 0 0-.102-.47q-.194-.35-.716-.35-.604 0-.834.451-.117.24-.118.576v2.988h-1.468v-2.988q0-.447-.102-.65-.184-.363-.721-.363-.624 0-.84.364-.117.207-.117.617v3.02H13v-5.01h1.417v.733q.27-.392.511-.557.425-.295 1.1-.295.639 0 1.033.253.318.236.481.603.287-.44.711-.649a2.4 2.4 0 0 1 1.003-.207m5.801 0q.858 0 1.4.409.547.404.547 1.347v3.373h-1.48v-3.047q0-.396-.117-.607-.213-.386-.811-.386-.735 0-1.01.566-.141.299-.141.762v2.712h-1.44v-5h1.394v.73q.28-.385.527-.556.447-.303 1.131-.303M30.005 25H28.5v-1h1.505zM28.5 26h1.505v5H28.5zm6.552 1.797c-.028-.193-.1-.48-.214-.634q-.25-.313-.776-.313-.75 0-1.026.677-.145.36-.145.958 0 .569.145.914.266.645 1 .645.52 0 .74-.256.219-.255.265-.664h1.516q-.052.617-.49 1.166-.697.886-2.067.886t-2.015-.74-.646-1.918q0-1.332.713-2.071.714-.74 1.969-.74 1.067 0 1.744.437c.455.29.724.917.807 1.653zm5.093 2.247q.65 0 1-.422.348-.422.348-1.2 0-.776-.349-1.193-.348-.422-1-.422-.65 0-1.004.422-.35.417-.35 1.194t.35 1.199q.353.421 1.005.422m2.905-1.621q0 1.137-.718 1.948-.72.805-2.182.805-1.464 0-2.182-.805-.72-.81-.719-1.948 0-1.119.719-1.938.718-.82 2.182-.82t2.182.82q.718.819.718 1.938m7.206-2.543q.367 0 .726.129.358.128.65.45.235.261.317.643.051.252.051.74l-.01 3.154h-1.494v-3.187a.96.96 0 0 0-.102-.469q-.195-.349-.716-.349-.604 0-.834.45-.117.24-.118.575v2.98h-1.468v-2.98q0-.445-.102-.648-.184-.363-.721-.363-.624 0-.84.363c-.078.138-.14.343-.14.615v3.013H44V26h1.417v.73q.27-.39.511-.556.425-.294 1.1-.294.639 0 1.033.253.318.234.481.601a1.77 1.77 0 0 1 .711-.647q.45-.207 1.003-.207"/></svg>