<svg xmlns="http://www.w3.org/2000/svg" width="56" height="56" fill="none"><path fill="#F0F3FA" d="M0 0h56v56H0z"/><path fill="url(#a)" d="M43 28.578c0 7.85-6.068 14.343-13.563 15.422v-5.291c0-3.342.876-7.885 1.983-10.113 1.125-2.246 2.614-4.09 4.414-5.5 1.8-1.393 3.86-2.601 6.127-3.14A9 9 0 0 1 43 19.78zm0-10.734-.502.07c-6.283.8-11.337 3.371-14.99 6.574-4.707 4.108-6.737 9.817-6.79 16.97v.976C15.752 39.805 12 34.523 12 28.5 12 19.901 18.94 13 27.491 13H43z"/><defs><linearGradient id="a" x1="12.282" x2="42.612" y1="28.507" y2="28.507" gradientUnits="userSpaceOnUse"><stop stop-color="#006F44"/><stop offset="1" stop-color="#78BE20"/></linearGradient></defs></svg>