<svg xmlns="http://www.w3.org/2000/svg" width="56" height="56" fill="none"><path fill="#F0F3FA" d="M0 0h56v56H0z"/><path fill="#A7A7A7" d="M21 28.59c0-3.113 1.063-5.982 2.852-8.273a8.65 8.65 0 0 1 4.246 2.692 8.45 8.45 0 0 0-2.02 5.491c0 4.694 3.821 8.5 8.535 8.5 3.054 0 5.879-1.598 7.387-4h6c-1.86 5.341-7.141 9.18-13.197 9.18C27.18 42.18 21 36.096 21 28.59M48 24c-1.912-5.247-7.21-9-13.197-9-1.54 0-3.021.248-4.404.707A15.7 15.7 0 0 1 34.675 20c3.028.022 5.827 1.614 7.325 4z"/><path fill="#00AFA6" d="M32.874 35.823A13.6 13.6 0 0 0 35 28.5C35 20.994 28.956 15 21.5 15S8 20.994 8 28.5 14.044 42 21.5 42c1.524 0 2.989-.164 4.355-.633a15.6 15.6 0 0 1-2.854-2.473q-.735.105-1.501.106C15.701 39 11 34.299 11 28.5S15.701 18 21.5 18 32 22.701 32 28.5c0 2.256-.712 4.346-1.923 6.058.822.6 1.77 1.038 2.797 1.265"/></svg>