<svg xmlns="http://www.w3.org/2000/svg" width="56" height="56"><path fill="#F0F3FA" d="M0 0h56v56H0z"/><path fill="#104861" d="M31.91 34.15c.21 1.02.04 2.1-.5 3.02l-2.86 4.81A4.09 4.09 0 0 1 25.03 44h-6.06c-.95 0-1.85-.33-2.56-.91l1.54-2.48c.64-1 1.73-1.61 2.9-1.61h6.17c1.4 0 2.7-1.14 3.38-2.4zm-1.8-3.5-1.77 2.73A3.42 3.42 0 0 1 25.45 35h-6.08c-1.3 0-2.52.67-3.23 1.78l-1.96 3.07-.73-1.24 2.54-4c.63-1 1.72-1.61 2.9-1.61h5.8c1.4 0 2.7-.78 3.38-2.03l1.05-2 .99 1.67Zm-17.52 2.18a4.26 4.26 0 0 0-.11 4.13l-.01-.05 2.69-4.13A3.84 3.84 0 0 1 18.39 31h5.71c1.17 0 2.27-.61 2.9-1.62l1.16-1.9A4.07 4.07 0 0 0 25.03 26h-6.06c-1.44 0-2.77.77-3.52 2.02zm33.37-9.88c.12.8-.02 1.64-.44 2.36l-2.28 4A3.25 3.25 0 0 1 40.43 31h-4.86c-.72 0-1.42-.25-1.98-.7l1.17-1.95A2.71 2.71 0 0 1 37.08 27H42c1.13 0 2.16-.65 2.7-1.7l1.25-2.35Zm-1.34-2.84-1.54 2.54A2.71 2.71 0 0 1 40.76 24H35.9c-1.04 0-2 .56-2.58 1.48l-1.42 2.3-.67-1.16 1.97-3.27A2.71 2.71 0 0 1 35.51 22h4.64c1.12 0 2.16-.65 2.7-1.7l.9-1.72zm-14.14 5.2.08.15 1.97-2.98A3.05 3.05 0 0 1 35.1 21h4.57c.94 0 1.81-.5 2.32-1.35l1.15-2.1A3.24 3.24 0 0 0 40.43 16h-4.86c-1.15 0-2.21.64-2.8 1.68l-2.3 4.01a3.68 3.68 0 0 0 0 3.62Zm-1.56-6.91c.16.6.08 1.26-.25 1.8l-1.57 2.68c-.4.7-1.14 1.12-1.93 1.12h-3.34c-.55 0-1.08-.21-1.49-.58l.94-1.5c.34-.56.94-.9 1.59-.9h3.39c.77 0 1.48-.43 1.86-1.13zm-.96-1.82-.97 1.54c-.35.56-.95.9-1.6.9h-3.34a2.1 2.1 0 0 0-1.77.99L19.2 21.7l-.36-.62 1.36-2.18c.34-.56.94-.9 1.59-.9h3.19c.77 0 1.48-.43 1.86-1.13l.61-1.15.5.86Zm-9.63 3.63 1.4-2.22a2.1 2.1 0 0 1 1.78-.99h3.15c.64 0 1.24-.34 1.59-.9l.72-1.17a2.24 2.24 0 0 0-1.8-.93h-3.34c-.79 0-1.52.43-1.93 1.12l-1.57 2.67a2.39 2.39 0 0 0 0 2.42"/></svg>