<svg xmlns="http://www.w3.org/2000/svg" width="56" height="56" fill="none"><path fill="#F0F3FA" d="M0 0h56v56H0z"/><path fill="url(#a)" d="M5.5 27.978c0 1.45 1.071 2.522 2.522 2.522s2.478-1.071 2.478-2.522S9.473 25.5 8.022 25.5c-1.45 0-2.522 1.027-2.522 2.478m-1.5 0C4 25.794 5.847 24 8.022 24 10.178 24 12 25.82 12 27.978 12 30.145 10.201 32 8.022 32 5.827 32 4 30.173 4 27.978"/><path fill="url(#b)" d="M14 31.332v-6.664c0-.392.265-.668.682-.668h3.454c1.457 0 2.364 1.295 2.364 2.627 0 1.06-.428 2.023-1.5 2.373l1.318 1.856a.63.63 0 0 1 .182.446c0 .39-.35.699-.732.698-.16 0-.29-.07-.404-.209L17.227 29H15.5v2.332c0 .392-.401.668-.818.668-.402 0-.682-.286-.682-.668m3.773-5.832H15.5v2h2.227c.736 0 1.273-.32 1.273-1 0-.633-.526-1-1.227-1"/><path fill="url(#c)" d="M23 31.408v-6.824c0-.279.362-.584.697-.584s.803.305.803.584v6.824c0 .279-.469.592-.803.592S23 31.687 23 31.408"/><path fill="url(#d)" d="M32.431 32H26.57c-.362 0-.569-.323-.569-.663 0-.177.044-.31.175-.486L30.5 25.5h-3.931c-.366 0-.569-.43-.569-.77 0-.326.212-.73.569-.73h5.862c.591 0 .7.763.394 1.15L28.5 30.5h3.931c.366 0 .569.368.569.709 0 .312-.217.791-.569.791"/><path fill="url(#e)" d="M44 31.32v-6.64c0-.3.238-.68.576-.68.133 0 .447.053.788.415L49.5 29.5v-4.888c0-.301.388-.612.726-.612.343 0 .774.303.774.612v6.707c0 .302-.238.681-.576.681-.177 0-.591-.158-.85-.53L45.5 26.5v4.82c0 .3-.429.68-.767.68-.343 0-.733-.372-.733-.68"/><path fill="#475940" fill-rule="evenodd" d="M34 27.73A4 4 0 0 1 37.731 24 4 4 0 0 1 34 27.73M37.716 32a4 4 0 0 1-3.7-3.553 4 4 0 0 1 3.7 3.553m4.267-3.513a4 4 0 0 1-3.342 3.473 4 4 0 0 1 3.342-3.473m.017-.795a4 4 0 0 1-3.377-3.653A4 4 0 0 1 42 27.692" clip-rule="evenodd"/><defs><linearGradient id="a" x1="8" x2="8" y1="24" y2="32" gradientUnits="userSpaceOnUse"><stop stop-color="#181B1E"/><stop offset="1" stop-color="#181B1E"/></linearGradient><linearGradient id="b" x1="17.25" x2="17.25" y1="24" y2="32" gradientUnits="userSpaceOnUse"><stop stop-color="#181B1E"/><stop offset="1" stop-color="#181B1E"/></linearGradient><linearGradient id="c" x1="23.75" x2="23.75" y1="24" y2="32" gradientUnits="userSpaceOnUse"><stop stop-color="#181B1E"/><stop offset="1" stop-color="#181B1E"/></linearGradient><linearGradient id="d" x1="29.5" x2="29.5" y1="24" y2="32" gradientUnits="userSpaceOnUse"><stop stop-color="#181B1E"/><stop offset="1" stop-color="#181B1E"/></linearGradient><linearGradient id="e" x1="47.5" x2="47.5" y1="24" y2="32" gradientUnits="userSpaceOnUse"><stop stop-color="#181B1E"/><stop offset="1" stop-color="#181B1E"/></linearGradient></defs></svg>