<svg xmlns="http://www.w3.org/2000/svg" width="56" height="56"><path fill="#F0F3FA" d="M0 0h56v56H0z"/><path fill="#E29128" d="M11.95 18a2.06 2.06 0 0 0-.99 1.75l-.16.02c-.2-.22-.47-.67-.53-1.43a2 2 0 0 0-.52 1.7c-.23-.06-.76-.42-1.11-1.4a2.06 2.06 0 0 0 .02 2.02l-.13.1a2.36 2.36 0 0 1-1.18-.98 2 2 0 0 0 .4 1.73c-.23.07-.87.02-1.65-.65a2.06 2.06 0 0 0 1.02 1.73l-.07.16c-.29.06-.8.06-1.5-.27a2 2 0 0 0 1.21 1.3c-.17.18-.74.46-1.76.27a2.06 2.06 0 0 0 1.75.99l.02.16c-.22.21-.67.47-1.43.53a2 2 0 0 0 1.7.52c-.06.23-.42.77-1.4 1.11a2.06 2.06 0 0 0 2.02-.02l.1.13c-.09.3-.35.74-.98 1.18a2 2 0 0 0 1.73-.4c.07.23.02.87-.65 1.65a2.06 2.06 0 0 0 1.73-1.02l.16.07c.06.29.06.8-.27 1.5a2 2 0 0 0 1.3-1.21c.18.16.46.74.27 1.76a2.06 2.06 0 0 0 .99-1.75l.16-.02c.21.22.47.67.53 1.43a2 2 0 0 0 .52-1.7c.23.06.77.42 1.11 1.4a2.06 2.06 0 0 0-.02-2.02l.13-.1c.29.09.74.35 1.18.98a2 2 0 0 0-.4-1.73c.23-.07.87-.02 1.65.65a2.06 2.06 0 0 0-1.02-1.73l.07-.16c.29-.06.8-.06 1.5.27a2 2 0 0 0-1.21-1.3c.17-.18.74-.46 1.76-.27a2.06 2.06 0 0 0-1.75-.99l-.02-.16c.22-.21.67-.47 1.43-.53a2 2 0 0 0-1.7-.52c.06-.23.42-.77 1.4-1.11a2.06 2.06 0 0 0-2.02.02l-.1-.13c.09-.29.35-.74.98-1.18a2 2 0 0 0-1.73.4c-.07-.23-.02-.87.65-1.65a2.06 2.06 0 0 0-1.73 1.02l-.16-.07c-.06-.29-.06-.8.27-1.5a2 2 0 0 0-1.3 1.21c-.18-.16-.46-.74-.27-1.76M15 24.5a3.5 3.5 0 1 1-7 0 3.5 3.5 0 0 1 7 0m-1 0a2.5 2.5 0 1 1-5 0 2.5 2.5 0 0 1 5 0"/><path fill="#0D5B9D" d="M20 29h26v1H20zm0 2h26v1H20zm0 2h26v1H20zm22 2h1v5h2v1h-3zm-2 0h1v6h-1zm-1.26.2-.1.72a3.4 3.4 0 0 0-1.34-.26c-.84 0-1.3.29-1.3.75s.45.71 1.23 1.09c1.13.54 1.77 1 1.77 1.78 0 1-.92 1.72-2.26 1.72a5.4 5.4 0 0 1-1.74-.26l.1-.8c.55.25 1.06.38 1.57.38.82 0 1.33-.36 1.33-.85 0-.68-.7-.93-1.8-1.49-.74-.37-1.16-.93-1.16-1.48 0-.9.82-1.5 2.25-1.5.53 0 1 .07 1.45.2M31.5 35h1.05L35 41h-.94l-.51-1.33h-3.18L29.88 41H29zm.5.73L30.65 39h2.64zM25 35h1.6c1.34 0 2.02.52 2.02 1.54 0 .75-.45 1.28-1.29 1.46.43.11.59.39.78.85L29 41h-1l-.77-1.96c-.22-.53-.5-.7-1.05-.7H26V41h-1zm1 .65v2.04h.46c.84 0 1.31-.4 1.31-1.04 0-.7-.43-1-1.34-1zM20 35h1.68c1.4 0 2.14.58 2.14 1.51 0 .66-.4 1.14-1.16 1.33.88.2 1.34.72 1.34 1.48 0 1.05-.8 1.68-2.3 1.68H20zm1 .66v1.9h.51c.92 0 1.49-.36 1.49-.97 0-.6-.54-.93-1.4-.93zm0 2.56v2.1h.54c1.02 0 1.46-.37 1.46-1.07 0-.67-.4-1.03-1.35-1.03zM38.28 18h2.47l1.35 2.86L43.4 18h2.31l-2.41 4.75L46 28h-2.53l-1.54-3.04L40.35 28H38l2.71-5.25zm-1.74.34-.2 1.97a5.4 5.4 0 0 0-2.14-.5c-1.05 0-1.62.36-1.62.93q0 .6.87.9c1.08.35 1.97.6 2.58 1.06.67.53.97 1.17.97 2.07 0 2.07-1.4 3.23-4.05 3.23-.92 0-1.97-.12-2.95-.4l.22-2.22c.93.43 1.87.62 2.58.62 1 0 1.6-.32 1.6-.96 0-.71-.73-.84-1.89-1.26-1.7-.62-2.51-1.38-2.51-2.8 0-1.9 1.38-2.98 3.94-2.98.92 0 1.78.11 2.6.34M24.5 18c2.81 0 4.5 1.86 4.5 5 0 3.16-1.69 5-4.5 5S20 26.16 20 23c0-3.14 1.7-5 4.5-5m0 2c-1.2 0-2.07 1.01-2.07 2.98S23.29 26 24.51 26c1.21 0 2.06-1.05 2.06-3.02 0-1.95-.86-2.98-2.06-2.98Z"/></svg>