<svg xmlns="http://www.w3.org/2000/svg" width="56" height="56"><path fill="#00BC99" d="M0 0h56v56H0z"/><circle cx="28" cy="28" r="16"/><path fill="#B1DAD9" d="M33.334 25.175a7.51 7.51 0 0 0-.838 14.288 10.3 10.3 0 0 1-7.041 2.765c-5.714 0-10.347-4.632-10.347-10.346s4.633-10.347 10.347-10.347c3.155 0 5.981 1.413 7.879 3.64"/><circle cx="35.187" cy="32.452" r="6.285" fill="#F4DF5E"/><path fill="#DDE273" d="M40.5 27.15q.05-.561.05-1.134c0-7.026-5.695-12.721-12.72-12.721S15.108 18.99 15.108 26.016q0 .4.025.794a11.5 11.5 0 0 1 10.322-6.426 11.48 11.48 0 0 1 9.185 4.58 7.48 7.48 0 0 1 5.86 2.185z"/></svg>