<svg xmlns="http://www.w3.org/2000/svg" width="56" height="56" fill="none"><path fill="#F0F3FA" d="M0 0h56v56H0z"/><path fill="url(#a)" fill-rule="evenodd" d="M19 35h-8.01S7 31.555 7 25.764s4.71-5.733 5.16-5.762c.102-.007.34 0 .84 0 1.445.08 4.17.318 4.17.318l-2.91 7.326S15.46 32.452 19 35" clip-rule="evenodd"/><path fill="url(#b)" fill-rule="evenodd" d="M16.429 22.303 11.5 22c-.088 0-1.529 1.667-1.5 3.455.03 1.303.604 2.666 3 3.545l6-.545z" clip-rule="evenodd"/><path fill="#F0F3FA" fill-rule="evenodd" d="m16.565 22.111 2.725 6.518-6.317.574-.042-.015c-1.224-.45-2.004-1.03-2.48-1.684-.477-.655-.635-1.365-.65-2.045v-.001c-.016-.945.356-1.846.732-2.5.19-.33.382-.603.535-.794q.116-.145.198-.228a1 1 0 0 1 .075-.071.4.4 0 0 1 .08-.05.2.2 0 0 1 .079-.015h.012zM10 25.455C9.972 23.667 11.413 22 11.5 22l4.929.303L19 28.455 13 29c-2.396-.879-2.97-2.242-3-3.545" clip-rule="evenodd"/><path fill="url(#c)" fill-rule="evenodd" d="M19.481 20.5s2.423 1.45 2.514 3.85c.06 1.17-.454 2.52-1.999 4.02L13 29s3.03-1.62 3-4.23c-.03-1.35-.759-2.97-3-4.77 0 .03 6.481.5 6.481.5" clip-rule="evenodd"/><path fill="#F0F3FA" fill-rule="evenodd" d="m19.584 20.328-.102.172.014-.2.047.004zm2.611 4.013c-.048-1.266-.71-2.272-1.344-2.952a7 7 0 0 0-1.154-.988l-.082-.053-.022-.014-.006-.004-.002-.001-.104.171.015-.2-1.013-.073a1473 1473 0 0 1-4.454-.335 87 87 0 0 1-.945-.081l-.284-.228V20a.4.4 0 0 0 .044.125q.013.016.031.03c2.212 1.777 2.896 3.347 2.925 4.618.014 1.224-.69 2.232-1.428 2.947a7.6 7.6 0 0 1-1.436 1.087l-.024.013-.005.003h-.001l.112.376 7.067-.636.05-.05c1.572-1.525 2.124-2.927 2.06-4.172m-.2.01c-.09-2.4-2.514-3.85-2.514-3.85s-4.757-.346-6.12-.464A4 4 0 0 1 13 20q.144.116.28.231c2.023 1.708 2.691 3.247 2.72 4.54.024 2.026-1.799 3.456-2.614 3.994C13.15 28.919 13 29 13 29l6.996-.63c1.545-1.5 2.06-2.85 2-4.02Z" clip-rule="evenodd"/><path fill="#183C76" fill-rule="evenodd" d="M5 33h4v1H5zm15 0h32v1H20z" clip-rule="evenodd"/><path fill="#183C76" d="M21 30.927h.189c.605 0 1.11-.291 1.11-.991 0-.665-.428-.936-1.005-.936H20v3h1.1c-.136-.281-.083-.766-.1-1.073m0-.468v-1.046h.057c.185 0 .237.137.237.523 0 .413-.052.523-.264.523zm1.75.798h.861l.195.605c0 .056.027.083.027.11V32H25a.6.6 0 0 1-.083-.138l-.973-2.724c0-.055-.027-.083-.027-.11V29h-.861v.028c0 .027 0 .055-.028.11l-.945 2.724c-.027.083-.055.11-.083.138h.556v-.027c0-.028 0-.055.027-.11zm.167-.468.277-.88.278.88zm5.833.468h.861l.195.605c0 .056.027.083.027.11V32H31a.6.6 0 0 1-.083-.138l-.973-2.724c0-.055-.027-.083-.027-.11V29h-.861v.028c0 .027 0 .055-.028.11l-.945 2.724c-.027.083-.055.11-.083.138h.556v-.027c0-.028 0-.055.027-.11zm.167-.468.277-.88.278.88zm7.833.468h.861l.195.605c0 .056.027.083.027.11V32H39a.6.6 0 0 1-.083-.138l-.973-2.724c0-.055-.027-.083-.027-.11V29h-.861v.028c0 .027 0 .055-.028.11l-.945 2.724c-.027.083-.055.11-.083.138h.556v-.027c0-.028 0-.055.027-.11zm.167-.468.277-.88.278.88zm12.833.468h.861l.195.605c0 .056.027.083.027.11V32H52a.6.6 0 0 1-.083-.138l-.973-2.724c0-.055-.027-.083-.027-.11V29h-.861v.028c0 .027 0 .055-.028.11l-.945 2.724c-.027.083-.055.11-.083.138h.556v-.027c0-.028 0-.055.027-.11zm.167-.468.277-.88.278.88zm-24.341-.55c.284.337.32.368 1.424 1.761h1v-3h-.576c0 .5.03 1.369.03 1.844-.31-.373-.422-.514-1.454-1.844h-1v3h.576c0-.5-.009-1.312 0-1.761M31 29v.523c.068-.027.114-.027.16-.027H32V32h1v-2.505h.864a.3.3 0 0 1 .136.028V29zm11 0v.523c.068-.027.114-.027.16-.027H43V32h1c0-.5-.023-1.812-.023-2.505h.887a.3.3 0 0 1 .136.028V29zm-6 3v-.495c-.058.027-.087.027-.232.027H35V29h-1v3zm3.576-1.761c.283.337.263.29 1.424 1.761h1v-3h-.576c0 .5.03 1.369.03 1.844-.31-.373-.342-.4-1.454-1.844h-1v3h.576c0-.5-.009-1.312 0-1.761m9.391-1.079a2.9 2.9 0 0 0-.989-.16c-.692 0-1.12.106-1.483.372-.363.265-.495.584-.495 1.088 0 1.036.626 1.54 1.88 1.54.428 0 .724-.026 1.12-.16v-.61c-.363.24-.593.319-.857.319-.23 0-.462-.08-.593-.24-.198-.185-.264-.45-.264-.822 0-.637.33-1.036.824-1.036.297 0 .527.08.89.319v-.61z"/><path fill="#183C76" fill-rule="evenodd" d="M36.859 28.724h.497l.293-.405.35.405h.645L38 28h-.556z" clip-rule="evenodd"/><path fill="#183C76" d="M45 29h1v3h-1z"/><defs><linearGradient id="a" x1="13" x2="13" y1="19.999" y2="35" gradientUnits="userSpaceOnUse"><stop offset=".094" stop-color="#2A8771"/><stop offset=".526" stop-color="#E8EFED"/><stop offset=".953" stop-color="#378A76"/></linearGradient><linearGradient id="b" x1="14.5" x2="14.5" y1="22" y2="29" gradientUnits="userSpaceOnUse"><stop offset=".094" stop-color="#2A8771"/><stop offset=".526" stop-color="#E8EFED"/><stop offset=".953" stop-color="#378A76"/></linearGradient><linearGradient id="c" x1="17.5" x2="17.5" y1="20" y2="29" gradientUnits="userSpaceOnUse"><stop offset=".094" stop-color="#2A8771"/><stop offset=".526" stop-color="#E8EFED"/><stop offset=".953" stop-color="#378A76"/></linearGradient></defs></svg>