<svg xmlns="http://www.w3.org/2000/svg" width="56" height="56"><path fill="#F0F3FA" d="M0 0h56v56H0z"/><path fill="#FCAE1B" d="M6 19h4v4H6z"/><path fill="#6A747C" d="M14 19h4v4h-4z"/><path fill="#353382" d="M6 27h4v4H6zm8 0h4v4h-4zm-4 4h4v4h-4zm8 0h4v4h-4z"/><path fill="#6A747C" d="M18 23h4v4h-4zm-8 0h4v4h-4z"/><path fill="#353382" fill-rule="evenodd" d="M49.78 27.58c-.3-.52-1.36-1.56-3.31-1.58-2.43-.02-4.56 1.65-4.47 4.67.1 3.02 2.33 4.33 4.47 4.33 1.79 0 3.07-.77 3.53-1.21V30h-3.5v1.7H48v.69c-.12.17-.51.61-1.37.61-1.5 0-2.63-.89-2.63-2.47S45 28 46.47 28c1.1 0 1.72.68 1.97 1.02zM25 26h3.5a3 3 0 1 1 0 6H27v3h-2zm2 2h1.5a1 1 0 1 1 0 2H27zm9.5-2H33v9h3.5a4.5 4.5 0 1 0 0-9m0 2H35v5h1.5a2.5 2.5 0 0 0 0-5"/></svg>