<svg xmlns="http://www.w3.org/2000/svg" width="56" height="56"><path fill="#F0F3FA" d="M0 0h56v56H0z"/><path fill="#201D1E" d="M7 25h1v10H7z"/><path fill="#201D1E" fill-rule="evenodd" d="M18 25c-1.02 0-1.5.91-1.5 2h1v-.3c0-.38.3-.7.67-.7h2.17c.36 0 .66.32.66.7V28h-2.5c-1.3 0-2.5.86-2.5 2.1 0 1.2 1.38 1.9 2.57 1.9.5 0 1.47-.07 2.43-.56V32h1v-5c0-1.15-.5-2-1.95-2zm3 5.27V29h-2.5c-.68 0-1.5.43-1.5 1.1 0 .6 1.02.9 1.57.9.48 0 1.57-.16 2.43-.73"/><path fill="#201D1E" d="M31 22h1v3h2v1h-2v4.59c0 .23.18.41.4.41H34v1h-1.56c-.8 0-1.44-.66-1.44-1.48zm-19.5 3H9v1h2.5a2.5 2.5 0 0 1 0 5H9v1h2.5a3.5 3.5 0 1 0 0-7m35 0H49v1h-2.5a2.5 2.5 0 0 0 0 5H49v1h-2.5a3.5 3.5 0 1 1 0-7"/><path fill="#201D1E" fill-rule="evenodd" d="M30 22h-1v4.05a3.49 3.49 0 0 0-6 2.45 3.5 3.5 0 0 0 6 2.45V32h1zm-1 6.5a2.5 2.5 0 1 0-5 0 2.5 2.5 0 0 0 5 0"/><path fill="#201D1E" d="M41.96 29a3.5 3.5 0 1 0-.3 1H40.5a2.5 2.5 0 0 1-4.45-1zm-3.46-3c1.2 0 2.22.86 2.45 2h-4.9a2.5 2.5 0 0 1 2.45-2"/></svg>