<svg xmlns="http://www.w3.org/2000/svg" width="56" height="56"><path fill="#F9E6B3" d="M0 0h56v56H0z"/><path fill="#175EA8" d="M7.36 22c1.93 0 4.05 0 5.82.03 2.78.02 3.85 2.34 3.82 4-.04 2.6-2.04 3.66-4.56 3.63a2.94 2.94 0 0 1-1.83-.6.3.3 0 0 1-.1-.08c-.11-.1-.16-.15-.4.16-.28.37-.21.43-.07.57l.04.03.04.05c.54.52.84.8 1.48.9.44.05.42.58.4 1v.22c0 .59-.05 1.09-.45 1.09H4.4a.37.37 0 0 1-.28-.12.42.42 0 0 1-.11-.3v-2.42c0-.2.12-.3.27-.43.26-.22.63-.53.73-1.61.04-.44.04-.87 0-1.3-.1-1.07-.46-1.37-.72-1.58-.16-.13-.28-.22-.28-.44v-2.38c0-.11.04-.22.12-.3A.38.38 0 0 1 4.4 22h2.97Zm3.34 5c.17.02.28-.11.3-.27v-2.45c-.02-.16-.13-.3-.3-.28h-.38c-.15-.01-.3.12-.32.28v2.45c.02.16.17.29.32.27zm13.66 2h4.83c.12 0 .22.1.22.22 0 3.06-3.72 3.78-5.92 3.78-4.35 0-5.97-1.92-5.99-4.99-.02-3.45 1.82-5.01 6-5.01 3.52 0 6 1.03 6 2.92 0 1.66-1.05 2.42-6.1 1.96-.41-.04-.4.17-.4.34v1.22c0 .49.13.56.45.56.48 0 .48-.26.48-.52 0-.25 0-.5.43-.48M24 24.87c-.05-.42-1-.38-1 0V26c.05.4 1 .37 1 0v-1.14ZM37.5 23c-.37 0-.7-.2-.76-.58-.05-.38-.2-.42-.42-.42h-4.46a.4.4 0 0 0-.24.09.43.43 0 0 0-.14.22c-.21.75-.67 1.4-1.3 1.8-.06.04-.1.1-.13.16a.45.45 0 0 0-.05.2v1.75c0 .38.21.41.43.44.2.03.42.06.43.43l-.06 1.03-.09 1.58c-.13 2.93 2.3 3.3 4.57 3.3 4.94 0 4.92-3.24 4.6-5.58a.47.47 0 0 0-.12-.29.42.42 0 0 0-.27-.13h-2.04c-.1 0-.2.04-.28.12s-.17.2-.17.3v1.06c0 .2-.12.52-.34.52-.32 0-.65-.03-.66-.52v-2.66c0-.22.27-.41.48-.41h3.07c.1 0 .2-.05.28-.13s.17-.19.17-.3c.02-1.99.01-1.99-1.3-1.97-.32 0-.72.01-1.2-.01M52 25.69c-.01.22-.2.42-.4.43-1.8.19-2.37 1.46-2.87 3.29-.06.22-.07.4.14.48h.01c.28.12.57.25.71-.2.81-2.5 2-2.02 2-2.02.22.08.4.23.4.43v4.47c0 .23-.18.43-.4.43H41.41c-.22 0-.41-.2-.41-.43v-2.25c.01-.22.2-.42.4-.43 1.8-.2 2.37-1.45 2.87-3.28.06-.22.05-.42-.16-.5-.3-.13-.56-.24-.7.22-.81 2.48-2 2-2 2-.22 0-.4-.2-.4-.42v-4.47c-.01-.23.18-.44.4-.44H51.6c.22 0 .41.21.41.44v2.25Z"/></svg>