<svg xmlns="http://www.w3.org/2000/svg" width="56" height="56" fill="none"><path fill="#F0F3FA" d="M0 0h56v56H0z"/><path fill="#00449A" d="M24 22.798c0-.541-.639-.784-1.072-.784h-.681L21.723 24h.524c.747 0 1.753-.255 1.753-1.202m2-.165C26 24.255 24.452 25 23.015 25h-1.554L21 27h-2l1.449-6h3.509c.933 0 2.042.58 2.042 1.633M30 23c-.05-.02-.084 0-.134 0C28.738 23 28 24.15 28 25.243c0 .34.133.757.507.757 1.163 0 1.319-2.143 1.493-3m1 4h-2c.05-.343.125-.658.184-1-.38.657-.808 1-1.58 1-.94 0-1.604-.589-1.604-1.544C26 23.31 28.073 22 30.078 22c.612 0 1.344.029 1.922.251-.334 1.551-.83 3.17-1 4.749m5-4c-1.187 0-2.03 1.149-2 2.289.01.38.149.711.548.711.893 0 1.044-1.424 1.219-2.13zm1.084 3.054C36.577 28.21 35.752 29 33.597 29a7.4 7.4 0 0 1-1.938-.257L32 27.576c.506.21.95.424 1.5.424 1.356 0 1.292-.796 1.628-2-.505.597-.613 1-1.387 1-.892 0-1.741-.571-1.741-1.56 0-2.302 1.989-3.44 3.99-3.44.643 0 1.399.033 2.01.257.018 0-.916 3.797-.916 3.797m6.041-.229A6 6 0 0 0 43 27h-2l.164-1c-.482.59-.95 1-1.73 1-.748 0-1.434-.319-1.434-1.155 0-.1 0-.18.017-.26 0-.079.018-.179.035-.258L39 22h1.767l-.715 3.088a2 2 0 0 0-.052.438c0 .314.194.498.502.498.157 0 .28-.04.384-.1.32-.182.454-.558.507-.916L42 22h2zm-8.25 5.35c.075-.341.125-.823.125-1.175h2l-.164 1c.482-.59.95-1 1.73-1 .748 0 1.434.319 1.434 1.155 0 .1 0 .18-.017.26 0 .079-.018.179-.035.258L39 35h-1.767l.715-3.088a2 2 0 0 0 .052-.438c0-.314-.194-.498-.502-.498-.157 0-.28.04-.384.1-.32.182-.454.558-.507.916L36 35h-2zM48 23.45c0-.302-.07-.45-.333-.45-.686 0-1.207.403-1.445 1 .47 0 1.778.02 1.778-.55m2-.235c0 1.39-2.165 1.641-3.167 1.713-.277.02-.61.072-.833.072v.279c0 .63.762.721 1.26.721.653 0 1.137-.225 1.74-.454l-.185 1.095A6.7 6.7 0 0 1 46.61 27c-1.07 0-2.61-.327-2.61-1.673C44 23.254 45.89 22 47.815 22c.799 0 2.185.166 2.185 1.215M26.5 35H25l1-4.5-2.5 4.5H22l-.5-4.5-1 4.5H19l1.3-6H23l.5 4 2-4H28zm5.5-3.55c0-.302-.07-.45-.333-.45-.686 0-1.207.403-1.445 1 .47 0 1.778.02 1.778-.55m2-.235c0 1.39-2.165 1.641-3.167 1.713-.277.02-.61.072-.833.072v.279c0 .63.762.721 1.26.721.653 0 1.137-.225 1.74-.454l-.185 1.095A6.7 6.7 0 0 1 30.61 35c-1.07 0-2.61-.327-2.61-1.673C28 31.254 29.89 30 31.815 30c.799 0 2.185.166 2.185 1.215M44.662 32c0-.429-.195-1-.695-1-.905 0-1.305 1.468-1.305 2.191 0 .433.195.809.695.809.904 0 1.305-1.276 1.305-2m2-.211c0 2.022-1.678 3.211-3.582 3.211-1.099 0-2.418-.477-2.418-1.768 0-2.03 1.66-3.232 3.581-3.232 1.121 0 2.419.483 2.419 1.789m4.981-.504c-.434-.162-.9-.29-1.366-.29-.297 0-.777.05-.777.47 0 .839 2 .552 2 1.808 0 1.419-1.562 1.727-2.679 1.727A6.7 6.7 0 0 1 47 34.759l.34-1.104c.426.24.958.345 1.446.345.33 0 1.214-.051 1.214-.506 0-.624-2-.569-2-1.818C48 30.318 49.314 30 50.375 30c.551 0 1.09.092 1.625.22z"/><path fill="#E50003" d="M18 21H4v14h14z"/><path fill="#F0F3FA" fill-rule="evenodd" d="M9 33v-3H6v-4h3v-3h4v3h3v4h-3v3z" clip-rule="evenodd"/></svg>