<svg xmlns="http://www.w3.org/2000/svg" width="56" height="56"><path fill="#F0F3FA" d="M0 0h56v56H0z"/><path fill="#80242F" fill-rule="evenodd" d="m40.9 15-25.8.06c-1.16 0-2.1.9-2.1 2v21.87A2.1 2.1 0 0 0 15.1 41h25.8c1.16 0 2.1-.9 2.1-2.01V17c0-1.11-.94-2.01-2.1-2.01Zm-25.7-1a3.14 3.14 0 0 0-3.2 3.07v21.86c0 1.7 1.44 3.07 3.2 3.07h25.6c1.77 0 3.2-1.37 3.2-3.07V17.07c0-1.7-1.44-3.07-3.2-3.07z"/><path fill="#80242F" fill-rule="evenodd" d="M14 19.75 18.67 16l4.66 3.75L28 16l4.67 3.75L37.33 16 42 19.75V24l-3-2.41v1.75l3 2.41V30l-3-2.41v1.75l3 2.41V36l-3-2.41V40h-3v-6.68L32.67 36 30 33.85V40h-4v-6.15L23.33 36 20 33.32V40h-3v-6.41L14 36v-4.25l3-2.4v-1.76L14 30v-4.25l3-2.4v-1.76L14 24zm22 7.57v1.75l-3.33 2.68L30 29.61v-1.76L32.67 30zm-10 .53v1.76l-2.67 2.14L20 29.07v-1.75L23.33 30zm10-6.53v1.75l-3.33 2.68L30 23.61v-1.76L32.67 24zm-10 .53v1.76l-2.67 2.14L20 23.07v-1.75L23.33 24z"/></svg>