<svg xmlns="http://www.w3.org/2000/svg" width="56" height="56"><path fill="#001B4A" d="M0 0h56v56H0z"/><path fill="#fff" fill-rule="evenodd" d="M4 24.14C4 23.5 4.5 23 5.14 23h3.14a3.22 3.22 0 1 1 0 6.43H6V32a1 1 0 0 1-1 1H4zm2 1.02c0-.25.2-.44.44-.44H8a1.5 1.5 0 1 1 0 3H6zM13 33h2v-8a2 2 0 0 0-2-2zm6.98-8c-2.49-.02-3.22 1.27-3.28 2h1.94c0-.23.43-.45 1.34-.45.73 0 1.08.38 1.08.6 0 .23 0 .68-2.12 1-2.47.38-2.47 2.33-2.43 2.55v.09c.02.45.07 2.18 3.15 2.21 2.67.03 3.34-2.02 3.34-3.04v-2.8c.03-.71-.54-2.13-3.02-2.16M21 29.83v-.79c-.13.1-.6.31-1.4.44s-1.03.58-1.06.71c-.05.23-.23 1.24 1 1.24 1.15 0 1.45-1.13 1.46-1.6M40.2 27c.06-.73.8-2.02 3.28-2 2.48.03 3.05 1.45 3.02 2.15v2.8c0 1.03-.67 3.08-3.34 3.05-3.08-.03-3.13-1.76-3.15-2.21v-.09c-.04-.22-.04-2.17 2.43-2.55 2.12-.32 2.12-.77 2.12-1 0-.22-.35-.6-1.08-.6-.91 0-1.34.22-1.34.45zm4.3 2.04v.79c-.01.47-.31 1.6-1.47 1.6-1.22 0-1.04-1-.99-1.24.03-.13.27-.58 1.06-.7a3.9 3.9 0 0 0 1.4-.45m-13.73-1.5c0-.86-.67-2.56-3.27-2.54-3.26.03-3.31 2.19-3.31 2.54s.28 1.8 2.74 2.25c.65.1 2.03.34 2.07.85.06.63-.84.78-1.38.78-.3 0-1.63-.04-1.62-1.1h-2c-.06.89.56 2.68 3.5 2.68 3.02 0 3.5-1.58 3.5-2.68 0-.53-.55-1.76-2.43-2.14-2.23-.44-2.26-.8-2.29-1.01v-.04c-.03-.2.25-.6 1.21-.6.79 0 1.22.46 1.3.7.03.1.2.3.66.3h1.32zm4.9-2.54c2.33 0 3.19 1.67 3.33 2.5h-2c-.33-.74-.95-.79-1.33-.79-.54 0-1.63.19-1.67 2.23-.04 2.03 1.12 2.38 1.67 2.38.49 0 .96-.08 1.17-.43.2-.35.63-.43.81-.42H39c-.09.85-.87 2.56-3.33 2.53-3.06-.03-3.62-2.44-3.67-4.06-.05-1.63.77-3.94 3.67-3.94M48 33v-4.02c0-1.41.58-4 4-3.98v2h-.72c-.56 0-1.3.52-1.28 1.98V33z"/></svg>