<svg xmlns="http://www.w3.org/2000/svg" width="56" height="56"><path fill="#F0F3FA" d="M0 0h56v56H0z"/><path fill="#FF2732" d="M30 15.55a5.32 5.32 0 0 1 2.5 4.74c0 1.45-.6 2.73-1.5 3.71v4.65c2.96-1.6 5-4.67 5-8.23 0-5.2-4.6-9.42-10-9.42v29.45a5.37 5.37 0 0 1-2.5-4.77c0-1.45.6-3.08 1.5-4.03V27a9.94 9.94 0 0 0-5 8.58c0 5.2 4.6 9.42 10 9.42zm7.44 1.85c.43 1.03.59 2.28.59 3.47A8.5 8.5 0 0 1 37 25h5.6a9.83 9.83 0 0 0-2.65-9.94L39.9 15c-.03 0-.93.91-2.45 2.4Z"/><path fill="#FF2732" d="M38.6 37.44c-1.03.43-2.28.59-3.47.59A8.5 8.5 0 0 1 31 37v5.6a9.84 9.84 0 0 0 9.94-2.65l.06-.06c0-.03-.91-.96-2.4-2.45m-20.03 1.13a9.2 9.2 0 0 1-.6-3.47A8.4 8.4 0 0 1 19 31h-5.6c-.3 1-.43 2-.4 2.92a10.27 10.27 0 0 0 3.05 7.02l.06.06c0-.03.93-.94 2.46-2.43m-1.17-20a9.2 9.2 0 0 1 3.47-.6c1.49 0 2.88.35 4.13 1.03v-5.6c-1-.3-1.98-.43-2.92-.4a10.27 10.27 0 0 0-7.02 3.05l-.06.06c0 .03.91.96 2.4 2.46M19.8 30H11v-.06c0-4.92 3.74-9.62 8.8-9.94H21c1.54.1 2.86.58 4 1.22v4.53C24 24.59 22.57 24 20.4 24c-2.56 0-3.62.65-4.54 2H24c-1.7.92-3.29 2.47-4.2 4m16.4-4H45v.06c0 4.92-3.74 9.62-8.8 9.94H35a9.15 9.15 0 0 1-4-1.22v-4.53c1 1.16 2.43 1.75 4.6 1.75 2.56 0 3.62-.65 4.54-2H32c1.7-.92 3.29-2.47 4.2-4"/></svg>