<svg xmlns="http://www.w3.org/2000/svg" width="56" height="56"><path fill="#F0F3FA" d="M0 0h56v56H0z"/><path fill="#009B87" fill-rule="evenodd" d="M5 23a1 1 0 0 0-1 1v8a1 1 0 0 0 1 1h4a4 4 0 0 0 4-4v-2a4 4 0 0 0-4-4zm4 2H6v6h3a2 2 0 0 0 2-2v-2a2 2 0 0 0-2-2m35-2a1 1 0 0 0-1 1v8a1 1 0 0 0 1 1h4a4 4 0 0 0 4-4v-2a4 4 0 0 0-4-4zm4 2h-3v6h3a2 2 0 0 0 2-2v-2a2 2 0 0 0-2-2"/><path fill="#009B87" d="M15 32.46V23.7c0-.56.27-.7.78-.7.76 0 1.22 1.1 1.22 1.54v7.92c.02.38-.27.54-.46.54h-1.1c-.35 0-.43-.36-.44-.54m18.43.54h7c.46 0 .57-.27.57-.78 0-.76-.88-1.22-1.23-1.22h-6.34c-.3-.02-.43.27-.43.46v1.1c0 .35.29.43.43.44m0-10h7c.46 0 .57.27.57.78 0 .76-.88 1.22-1.23 1.22h-6.34c-.3.02-.43-.27-.43-.46v-1.1c0-.35.29-.43.43-.44"/><path fill="#969696" d="M33.38 27h5.98c.4 0 .64.2.64.57v.97c0 .33-.46.46-.64.46h-5.98c-.27.02-.38-.27-.38-.46v-1.1c0-.35.25-.43.38-.44"/><path fill="#009B87" d="M20 23.7v8.74c.02.18.1.56.5.56h1c.22 0 .52-.19.5-.56v-5.72l2.3 3.78s.28.5 1.2.5 1.2-.48 1.2-.48L29 26.6v5.86a.5.5 0 0 0 .5.54h1c.4 0 .48-.36.5-.54v-8.73c0-.57-.3-.73-.86-.73-.74 0-1.58.34-2.37 1.5l-2.27 4.26v.01l-2.41-4.38C22.3 23.22 21.6 23 20.86 23c-.57 0-.86.14-.86.7"/></svg>