<svg xmlns="http://www.w3.org/2000/svg" width="56" height="56"><path fill="#F0F3FA" d="M0 0h56v56H0z"/><path fill="#F4821A" d="M28 21a7 7 0 0 1 0 14 7 7 0 0 1 0-14"/><path d="M20.5 20.98a6.5 6.5 0 0 0 6-8.98c-3.4.2-8.21 2.12-11.26 6.3a6.48 6.48 0 0 0 5.25 2.68zm0 14.04a6.5 6.5 0 0 1 6 8.98c-3.4-.2-8.21-2.12-11.27-6.3a6.48 6.48 0 0 1 5.26-2.68zm-4.74-1.43a6.52 6.52 0 0 0 2.5-8.86 6.49 6.49 0 0 0-4.88-3.3 15.87 15.87 0 0 0 0 12.94 6.5 6.5 0 0 0 2.38-.78m21.97-8.86a6.52 6.52 0 0 0 4.9 9.64 15.87 15.87 0 0 0 0-12.93 6.49 6.49 0 0 0-4.9 3.29M29 14.47a6.5 6.5 0 0 0 6.5 6.51 6.48 6.48 0 0 0 5.25-2.67A15.77 15.77 0 0 0 29.48 12a6.5 6.5 0 0 0-.48 2.47m6.5 20.55A6.5 6.5 0 0 0 29.48 44c3.4-.2 8.22-2.12 11.27-6.3a6.48 6.48 0 0 0-5.25-2.68"/></svg>