<svg xmlns="http://www.w3.org/2000/svg" width="56" height="56" fill="none"><path fill="#F0F3FA" d="M0 0h56v56H0z"/><path fill="#00BEDD" d="M44.446 19A4.445 4.445 0 0 0 40 23.476v4.516L38 28v9h4.616C45.093 37 47 34.965 47 32.468v-4.476L49 28v-9z"/><path fill="#001C43" d="M33.469 19C31.055 19 29 21.035 29 23.476v4.516h-2V19h-4.469c-2.5 0-4.448 1.988-4.531 4.476V28h-2v-9h-4.446C9.12 19 7 21.012 7 23.476V28h5v9h4.403C18.875 37 21 34.975 21 32.468v-4.476h2V37h4.5c2.438 0 4.5-2.039 4.5-4.5V28h6v-9z"/></svg>