<svg xmlns="http://www.w3.org/2000/svg" width="56" height="56"><path fill="#F0F3FA" d="M0 0h56v56H0z"/><path fill="#6D6E71" d="M4 30v-5h1.2c.29 0 .52.07.7.21s.3.33.4.57c.08.24.12.5.12.8s-.04.56-.13.8c-.08.25-.21.44-.39.58s-.4.21-.68.21h-.87v-.53h.85c.2 0 .35-.05.46-.14.12-.1.2-.22.26-.38.05-.16.08-.34.08-.54s-.03-.38-.08-.54a.75.75 0 0 0-.26-.37.74.74 0 0 0-.47-.13h-.76V30zm3 0v-5h1.22q.42 0 .69.21c.18.14.31.33.4.57.08.24.13.5.13.8s-.05.56-.13.8c-.09.25-.22.44-.4.58s-.4.21-.68.21h-.87v-.53h.85c.2 0 .35-.05.47-.14.11-.1.2-.22.25-.38s.08-.34.08-.54-.03-.38-.08-.54a.75.75 0 0 0-.26-.37.74.74 0 0 0-.46-.13h-.77V30zm3 0v-5h.46v4.46h1.66V30zm3.38 0h-.45l1.31-5h.45L16 30h-.45l-1.07-4.2h-.03zm.17-2h1.83v.58h-1.83zM18 30v-5h1.32q.45 0 .75.21c.2.14.34.33.43.56.1.24.14.5.14.8 0 .29-.04.55-.14.79s-.23.43-.43.57-.44.2-.74.2h-.95v-.52h.93c.21 0 .38-.05.5-.14.13-.1.22-.22.28-.37.06-.16.09-.34.09-.53 0-.2-.03-.38-.09-.53a.74.74 0 0 0-.28-.37.87.87 0 0 0-.5-.14h-.84V30zm6.36 0v-4h.44v.6h.03a.9.9 0 0 1 .29-.45.7.7 0 0 1 .47-.17 4 4 0 0 1 .24 0v.59a1 1 0 0 0-.28-.04.66.66 0 0 0-.38.11.77.77 0 0 0-.26.3 1 1 0 0 0-.1.46V30zm3.45-3.76v.48H26.3v-.48zm-1.07-.89h.45v3.53c0 .16.02.28.05.36.04.08.1.13.15.16.06.03.12.04.19.04h.12l.08-.03.09.51a1 1 0 0 1-.13.05.7.7 0 0 1-.2.03.81.81 0 0 1-.67-.43 1.1 1.1 0 0 1-.13-.53zM28.55 30v-4H29v4zm.23-4.38a.29.29 0 0 1-.23-.11.4.4 0 0 1-.09-.28c0-.1.03-.2.1-.27a.29.29 0 0 1 .22-.11c.09 0 .16.04.22.11.07.08.1.17.1.27 0 .11-.03.2-.1.28a.28.28 0 0 1-.22.11M30.95 30c-1.04 0-1.32-1.15-1.32-1.99 0-.82.3-2.01 1.31-2.01.62 0 1.08.46 1.16 1.16h-.45c-.07-.35-.33-.65-.7-.65-.35 0-.62.24-.77.66a2.95 2.95 0 0 0 0 1.67c.15.42.42.67.77.67.23 0 .43-.1.56-.3.07-.1.11-.21.14-.35h.45c-.07.62-.5 1.14-1.15 1.14m1.81 0v-4h.45v4zm.23-4.38a.29.29 0 0 1-.23-.11.4.4 0 0 1-.1-.28c0-.1.04-.2.1-.27a.29.29 0 0 1 .23-.11c.08 0 .16.04.22.11.06.08.1.17.1.27 0 .11-.04.2-.1.28a.28.28 0 0 1-.22.11M34 32v-6h.44v.64h.05c.18-.36.4-.64.85-.64.74 0 1.25.74 1.25 1.91 0 .8-.18 2.09-1.25 2.09-.43 0-.67-.26-.85-.63h-.04V32zm.45-4.1c0 .57.06 1.6.83 1.6.78 0 .86-1.03.86-1.6 0-.78-.29-1.39-.86-1.39-.54 0-.83.56-.83 1.39m7.17-1.66v.48h-1.51v-.48zm-1.07-.89H41v3.53c0 .48.2.56.39.56.1 0 .16-.02.2-.03l.09.51a.74.74 0 0 1-.34.08c-.38 0-.79-.31-.79-.96zM42.27 30v-4h.45v4zm.23-4.38a.29.29 0 0 1-.23-.11.4.4 0 0 1-.1-.28c0-.1.04-.2.1-.27a.29.29 0 0 1 .23-.11c.08 0 .16.04.22.11.06.08.1.17.1.27 0 .11-.04.2-.1.28a.28.28 0 0 1-.22.11M44.73 30c-1.04 0-1.33-1.14-1.33-1.98S43.7 26 44.73 26c1.04 0 1.32 1.19 1.32 2.02S45.77 30 44.73 30m0-.5c.73 0 .87-.91.87-1.48s-.12-1.5-.87-1.5-.88.93-.88 1.5.14 1.49.88 1.49Zm2.4-1.96V30h-.45v-4h.44v.65h.04a1 1 0 0 1 .3-.46c.15-.11.33-.19.55-.19.2 0 .37.07.52.17s.26.26.34.47c.09.2.13.46.13.78V30h-.45v-2.54c0-.3-.06-.52-.18-.68a.57.57 0 0 0-.5-.25.66.66 0 0 0-.38.12c-.1.08-.2.2-.26.34-.07.15-.1.34-.1.55m4.82-.62-.4.15a1.1 1.1 0 0 0-.12-.26.6.6 0 0 0-.2-.21.57.57 0 0 0-.32-.08.64.64 0 0 0-.45.16.53.53 0 0 0-.17.41q0 .225.12.36c.08.08.2.15.38.21l.43.14c.26.09.46.22.59.39s.19.4.19.67c0 .22-.05.42-.14.6-.1.17-.23.3-.4.4-.18.11-.38.14-.6.14-.3 0-.55-.07-.74-.24-.2-.17-.32-.42-.37-.75l.42-.14c.04.2.12.36.23.47q.18.15.45.15c.2 0 .38-.06.5-.17a.58.58 0 0 0 .19-.43.54.54 0 0 0-.11-.34.63.63 0 0 0-.33-.21l-.49-.15a1.1 1.1 0 0 1-.59-.4c-.12-.17-.18-.4-.18-.67 0-.22.04-.4.14-.58a1.05 1.05 0 0 1 .93-.54.9.9 0 0 1 .68.25c.17.17.29.4.36.67M22.12 30a.95.95 0 0 1-.5-.14 1 1 0 0 1-.37-.4c-.09-.18-.13-.4-.13-.65 0-.22.03-.4.1-.53a.83.83 0 0 1 .26-.33c.11-.08.23-.14.37-.18l.4-.1.44-.06c.1-.02.19-.04.24-.08s.08-.1.08-.2v-.02a.95.95 0 0 0-.16-.58c-.1-.14-.25-.2-.46-.2a.68.68 0 0 0-.5.18c-.13.12-.21.25-.26.4l-.43-.2c.08-.24.18-.42.3-.55.13-.14.27-.23.43-.28.15-.05.3-.08.44-.08.1 0 .2.02.33.05a.9.9 0 0 1 .35.17 1 1 0 0 1 .3.41c.07.19.1.43.1.74V30H23v-.61h-.02q-.045.12-.15.27a.86.86 0 0 1-.72.34Zm.06-.53c.18 0 .33-.05.45-.14.13-.1.22-.21.28-.36.07-.14.09-.3.09-.46v-.54c-.02.03-.05.06-.12.08a8 8 0 0 1-.65.14c-.12.02-.23.05-.33.1a.57.57 0 0 0-.24.2c-.06.08-.1.2-.1.35 0 .21.07.37.18.47.12.1.27.16.44.16m15.94.53a.95.95 0 0 1-.5-.14 1 1 0 0 1-.36-.4c-.1-.18-.14-.4-.14-.65 0-.22.03-.4.1-.53a.83.83 0 0 1 .27-.33c.1-.08.23-.14.36-.18l.4-.1.44-.06c.11-.02.2-.04.24-.08.05-.04.08-.1.08-.2v-.02a.95.95 0 0 0-.15-.58c-.1-.14-.26-.2-.47-.2a.68.68 0 0 0-.5.18c-.12.12-.2.25-.26.4l-.42-.2c.07-.24.17-.42.3-.55.13-.14.27-.23.42-.28s.3-.08.45-.08c.1 0 .2.02.32.05a.9.9 0 0 1 .36.17 1 1 0 0 1 .29.41c.07.19.11.43.11.74V30H39v-.61q-.045.12-.15.27a.86.86 0 0 1-.72.34Zm.07-.53c.18 0 .33-.05.45-.14.12-.1.21-.21.28-.36.06-.14.08-.3.08-.46v-.54c-.02.03-.05.06-.11.08a8 8 0 0 1-.65.14c-.12.02-.23.05-.33.1a.57.57 0 0 0-.25.2c-.06.08-.09.2-.09.35 0 .21.06.37.17.47.12.1.27.16.45.16"/><path fill="#48849C" d="M4 30.4h29v.6H4zm31 0h17v.6H35z"/></svg>