<svg xmlns="http://www.w3.org/2000/svg" width="56" height="56"><path fill="#F0F3FA" d="M0 0h56v56H0z"/><path fill="#17B3A9" d="M50 32c-1.53 0-2-1.22-2-2.56v-2.9c0-1.34.47-2.54 2-2.54 1.52 0 2 1.2 2 2.55v2.89c0 1.35-.48 2.56-2 2.56m0-1.22c.47 0 .5-.55.5-.91v-3.75c0-.36-.03-.91-.5-.91s-.5.57-.5.91v3.75c0 .36 0 .91.5.91M44 32v-8h1.5v6.8H47V32zm-4 0v-8h1.5v6.8H43V32zm-5 0v-8h3v1.2h-1.5v1.99H38v1.22h-1.5v2.4H38V32zm-5 0v-8h1.7c1.36 0 2.1.72 2.1 2.1 0 .67-.23 1.43-.97 1.6.92.15 1.17 1.13 1.17 1.93 0 1.3-.57 2.37-1.98 2.37zm1.5-1.23h.26c.68 0 .84-.59.84-1.17 0-.61-.12-1.23-.85-1.23h-.25zm0-3.57h.23c.66 0 .8-.49.8-1.06 0-.52-.26-.95-.83-.95h-.2zM27 32c-1.53 0-2-1.22-2-2.56v-2.9c0-1.34.47-2.54 2-2.54 1.52 0 2 1.2 2 2.55v2.89c0 1.35-.48 2.56-2 2.56m0-1.22c.47 0 .5-.55.5-.91v-3.75c0-.36-.03-.91-.5-.91s-.5.57-.5.91v3.75c0 .36 0 .91.5.91M21.25 32v-6.69H20V24h4v1.31h-1.25V32zM15 32v-8h1.77c1.37 0 2.13.72 2.13 2.11 0 .75-.07 1.6-.78 2.02L19 32h-1.47l-.7-3.59h-.33V32zm1.5-4.6h.32c.65 0 .77-.59.77-1.13 0-.68-.17-1.08-.7-1.08h-.39v2.2ZM11 32c-1.53 0-2-1.22-2-2.56v-2.9C9 25.2 9.47 24 11 24c1.52 0 2 1.2 2 2.55v2.89c0 1.35-.48 2.56-2 2.56m0-1.22c.47 0 .5-.55.5-.91v-3.75c0-.36-.03-.91-.5-.91s-.5.57-.5.91v3.75c0 .36 0 .91.5.91M4 32v-8h2.24C7.56 24 8 25.17 8 26.32c0 1.3-.53 2.28-1.93 2.28H5.5V32zm1.5-4.63h.47c.62 0 .64-.6.64-1.08s-.04-1.05-.65-1.05H5.5z"/></svg>