<svg xmlns="http://www.w3.org/2000/svg" width="56" height="56"><path fill="#F0F3FA" d="M0 0h56v56H0z"/><path fill="#004A8F" d="M4 25.03c0-.57.5-1.03 1.1-1.03h4.8c.6 0 1.1.46 1.1 1.03v1.94c0 .57-.5 1.03-1.1 1.03H5.1c-.6 0-1.1-.46-1.1-1.03z"/><path fill="#F4891E" d="M4 30.03c0-.57.5-1.03 1.1-1.03h4.8c.6 0 1.1.46 1.1 1.03v1.94c0 .57-.5 1.03-1.1 1.03H5.1c-.6 0-1.1-.46-1.1-1.03z"/><path fill="#004A8F" d="M26 24h1v9h-1zm-13-1h-1v10h1zm0 0h2.5a3.5 3.5 0 1 1 0 7H13v-1h2.5a2.5 2.5 0 0 0 0-5H13zm15 1h1v9h-1z"/><path fill="#004A8F" d="M37 28v1H18v-1zm13 0v1h-4v-1z"/><path fill="#004A8F" d="M48 24h1v9h-1zm3 2h1v7h-1zm0-2h1v1h-1zm-9 4.1c0-1.16-.93-2.1-2.07-2.1H37v7h1v-6h2c.4 0 1 .6 1 1v5h1z"/><path fill="#004A8F" d="M43 26v1h2a1 1 0 0 1 1 1h-1.5a2.5 2.5 0 0 0 0 5H46v-1h-1.5a1.5 1.5 0 0 1 0-3H46v4h1v-5a2 2 0 0 0-2-2zm-18.88 5.86A3.52 3.52 0 0 1 18 29.5a3.52 3.52 0 0 1 7-.56h-1.06a2.5 2.5 0 1 0-.58 2.23l.76.7Zm12 0A3.52 3.52 0 0 1 30 29.5a3.52 3.52 0 0 1 7-.56h-1.06a2.5 2.5 0 1 0-.58 2.23l.76.7Z"/></svg>