<svg xmlns="http://www.w3.org/2000/svg" width="56" height="56"><path fill="#F0F3FA" d="M0 0h56v56H0z"/><path fill="#002991" d="M39.59 18.28c0 4.46-4.13 9.72-10.38 9.72h-6.03l-.3 1.86-1.4 8.94H14L18.5 10h12.13c4.08 0 7.3 2.27 8.47 5.42.35.91.51 1.88.49 2.86"/><path fill="#60CDFF" d="M43.9 26.56a10.3 10.3 0 0 1-10.24 8.64h-4.18L27.74 46h-7.45l1.2-7.2 1.4-8.94.3-1.86h6.02c6.24 0 10.38-5.26 10.38-9.72a7.85 7.85 0 0 1 4.31 8.28"/><path fill="#008CFF" d="M39.59 18.28a9.9 9.9 0 0 0-4.55-1.08H24.89L23.19 28h6.02c6.24 0 10.38-5.26 10.38-9.72"/></svg>