<svg xmlns="http://www.w3.org/2000/svg" width="56" height="56"><path fill="url(#a)" d="M0 0h56v56H0z"/><path fill="#fff" d="M10.503 18C6.56 18 4 20.137 4 22.841c0 .81.15 1.467.426 2.284h.085c-.202-.763-.299-1.33-.299-1.938 0-2.497 2.222-4.187 6.32-4.187 5.495 0 12.066 2.423 15.938 7.379h.084C23.36 21.825 17.2 18 10.504 18zm17.063 14.247C26.758 34.325 24.408 35 20.998 35c-4.373 0-9.315-1.895-12.221-4.639a2.68 2.68 0 0 0 .285-3.69 2.783 2.783 0 0 0-3.723-.518c-.572.395-.969.99-1.11 1.663a2.67 2.67 0 0 0 .344 1.96 2.75 2.75 0 0 0 1.615 1.199 2.8 2.8 0 0 0 2.01-.213C11.116 33.381 15.906 36 20.678 36c3.496 0 6.03-1.162 6.977-3.753zm-20.65-1.95a2 2 0 0 1-1.267-.44 1.94 1.94 0 0 1-.688-1.139 1.92 1.92 0 0 1 .213-1.307 1.97 1.97 0 0 1 1.014-.87 2 2 0 0 1 1.345-.028c.438.145.81.438 1.051.826a1.92 1.92 0 0 1-.366 2.463q-.41-.434-.77-.909H6.43q.533.682 1.15 1.287a2 2 0 0 1-.663.117zm18.611-.225c-.08-.1-.133-.29-.133-.54V28h-.81v1.503c0 .563.14.902.445 1.162a1.65 1.65 0 0 0 2.007 0c.304-.26.444-.6.444-1.162V28h-.809v1.53c0 .25-.05.44-.133.54a.68.68 0 0 1-.505.223.69.69 0 0 1-.506-.223zm6.496-2.07c-.391 0-.756.197-1.012.592a1 1 0 0 0-.384-.434 1.04 1.04 0 0 0-.561-.158 1.03 1.03 0 0 0-.752.356.7.7 0 0 0-.125.202v-.558L28.417 28v3h.81v-1.473c0-.598.32-.814.623-.814.304 0 .525.207.525.761V31h.809v-1.473c0-.598.32-.814.626-.814.29 0 .524.207.524.761V31h.808v-1.606c0-.862-.467-1.394-1.119-1.394zM11.41 30.055c-.084-.1-.133-.29-.133-.54V28h-.81v1.487c0 .563.141.903.445 1.163.28.232.638.364 1.004.35.366.014.723-.118 1.003-.35.304-.26.445-.6.445-1.163V28h-.81v1.515c0 .25-.05.44-.132.54a.68.68 0 0 1-.506.222.7.7 0 0 1-.506-.222m7.71-1.668a.6.6 0 0 0-.108.171V28h-.772v3h.809v-1.431c0-.598.365-.856.668-.856a.56.56 0 0 1 .48.222c.08.1.133.29.133.54V31h.808v-1.497c0-.564-.08-.94-.39-1.213a1.18 1.18 0 0 0-.828-.29 1.05 1.05 0 0 0-.8.387m16.386-2.765c-.994 0-1.604.63-1.604 1.39 0 .584.365 1.102 1.096 1.41l.515.211c.511.218.76.558.76.935 0 .458-.394.758-.832.758-.52 0-.919-.302-1.081-.816l-.691.243c.104.377.33.71.644.948.315.238.7.367 1.097.369.907 0 1.675-.619 1.675-1.554 0-.773-.535-1.3-1.251-1.587l-.532-.215c-.388-.157-.58-.44-.58-.697 0-.362.32-.65.776-.65.327 0 .6.181.813.502l.624-.419c-.322-.55-.83-.828-1.429-.828M52 29.719c0-1.056-.606-1.856-1.597-1.856-1.024 0-1.619.73-1.619 1.654 0 .979.738 1.55 1.65 1.55.65 0 1.088-.264 1.339-.571l-.566-.434c-.165.212-.39.315-.745.315-.354 0-.818-.217-.83-.478H52zm-2.358-.407c.041-.415.304-.754.779-.754.415 0 .72.276.786.754zm-25.78-.641V28h-.852v-1h-.808v1h-.426v.671h.426v1.278c0 .796.437 1.051 1.073 1.051.204-.002.404-.064.587-.151v-.547a1.2 1.2 0 0 1-.38.056c-.314 0-.472-.126-.472-.514v-1.168zm-8.986.745c.002-.494.256-.861.834-.861.579 0 .83.424.83.861s-.252.944-.83.944c-.577 0-.837-.45-.835-.944zM17.306 28h-.776v.399a.8.8 0 0 0-.255-.308 1.22 1.22 0 0 0-.746-.25c-.834 0-1.462.523-1.462 1.575S14.695 31 15.529 31c.27.002.533-.014.746-.177a.8.8 0 0 0 .266-.311v.477h.765zm29.182 2.36c-.578 0-.83-.392-.83-.844 0-.453.252-.902.83-.902s.812.479.812.902-.236.844-.814.844zm-.83.63v-.478a.84.84 0 0 0 .265.313c.214.163.477.25.747.249.832 0 1.432-.562 1.439-1.557s-.607-1.614-1.44-1.614a1.22 1.22 0 0 0-.746.25.8.8 0 0 0-.265.301v-.467h-.767V33h.767zm-6.369-2.496a.9.9 0 0 1 .64.29l.374-.582a1.36 1.36 0 0 0-.991-.398c-1.055 0-1.72.734-1.729 1.619-.01.884.707 1.65 1.762 1.65a1.38 1.38 0 0 0 .991-.393l-.374-.583a.9.9 0 0 1-.64.29.924.924 0 0 1-.941-.961c.007-.568.386-.934.907-.934zm2.239.933c0-.551.252-.91.83-.91.579 0 .83.47.83.91s-.252.852-.83.852c-.577 0-.836-.392-.832-.853.005-.462.002.001.002.001M43.955 28h-.766v.36a.8.8 0 0 0-.265-.307 1.23 1.23 0 0 0-.746-.249c-.836 0-1.458.63-1.458 1.623s.623 1.564 1.458 1.564c.27.001.533-.087.746-.25a.8.8 0 0 0 .265-.306V31h.766z"/><defs><linearGradient id="a" x1="10.418" x2="68.147" y1="9.712" y2="76.017" gradientUnits="userSpaceOnUse"><stop stop-color="#1A1E21"/><stop offset="1" stop-color="#06060A"/></linearGradient></defs></svg>