<svg width="56" height="56" xmlns="http://www.w3.org/2000/svg" viewBox="0 0 56 56"><path fill="url(#a)" d="M0 0h56v56H0z"/><path fill="#fff" d="M8.841 28H7l.54-2h1.572c.583 0 .888.252.888.864C10 27.477 9.596 28 8.841 28M12 26.268C12 24.96 11.006 24 9.268 24H6l-2 8h2l.782-3h.939l1.278 3H11l-1.331-3C11.134 28.767 12 27.694 12 26.268M15.792 29l1.84-3 .702 3zM17 24l-5 8h2l1.37-2h3.163l.47 2H21l-2-8zm9.644 4h-1.649l.584-2h1.417c.616 0 1.17.331 1.004 1-.167.669-.637 1-1.354 1zm.43-4H24l-2 8h2l.613-2h2.12C28.855 30 30 28.35 30 26.297c0-1.35-1.199-2.295-2.927-2.295M34 24h-2l-2 8h2z"/><path fill="#e95f26" d="M48.249 24h-6.575c.1.097.2.198.29.304.737.856 1.036 1.93 1.036 3.113 0 1.826-.713 3.473-2 4.583h4l2.005-4h-2.669l.89-2H50l-2.6 6h.78c2.279.014 3.82-1.802 3.82-4.007S50.531 24 48.247 24"/><path fill="#fff" d="M37.385 30h-.98l.984-4h.938c1.115 0 1.673.53 1.673 1.603C40 29.047 39.064 30 37.389 30zm3.908-4.696C40.624 24.47 39.52 24 38.218 24H36l-2 8h3.146c1.221 0 2.16-.278 2.878-.722C41.483 30.37 42 28.774 42 27.418c0-.846-.258-1.562-.706-2.114"/><defs><linearGradient id="a" x1="10.418" x2="68.147" y1="9.712" y2="76.017" gradientUnits="userSpaceOnUse"><stop stop-color="#1a1e21"/><stop offset="1" stop-color="#06060a"/></linearGradient></defs></svg>