<svg xmlns="http://www.w3.org/2000/svg" width="56" height="56"><path fill="#343F04" d="M0 0h56v56H0z"/><path fill="#3EB69F" d="M49.22 30.88h-.07a.66.66 0 0 1-.6-.72 17.59 17.59 0 0 0-5.86-15.02.64.64 0 0 1-.04-.93.69.69 0 0 1 .95-.04c2 1.77 3.57 3.88 4.67 6.26a18.5 18.5 0 0 1 1.62 9.87.67.67 0 0 1-.67.58M40.9 42a.7.7 0 0 1-.52-.24.64.64 0 0 1 .1-.92 15.65 15.65 0 0 0 6.09-12.37c0-3.73-1.36-7.36-3.82-10.21a.65.65 0 0 1-.16-.48.64.64 0 0 1 .24-.45c.28-.23.7-.2.95.08a16.92 16.92 0 0 1 4.14 11.06c0 5.22-2.4 10.1-6.6 13.38a.68.68 0 0 1-.42.15"/><path fill="#5CC240" d="M39.7 40.29a.68.68 0 0 1-.52-.24.64.64 0 0 1 .09-.92 13.8 13.8 0 0 0 3.84-4.76c.9-1.85 1.36-3.86 1.36-5.9l-.07-1.33a.66.66 0 0 1 .6-.71c.38-.03.7.23.74.59a14.83 14.83 0 0 1-5.62 13.12.68.68 0 0 1-.42.15m2.67-7.19a.7.7 0 0 1-.21-.03.65.65 0 0 1-.42-.83 11.43 11.43 0 0 0-1.82-10.87.64.64 0 0 1 .13-.92c.3-.22.71-.16.94.13A12.7 12.7 0 0 1 43 32.66a.67.67 0 0 1-.64.44z"/><path fill="#91C823" d="M37.2 37.02a.68.68 0 0 1-.52-.23.64.64 0 0 1 .08-.92 9.55 9.55 0 0 0-.49-15.18.64.64 0 0 1 .06-1.09.68.68 0 0 1 .75.04 11.2 11.2 0 0 1 3.3 3.81 10.66 10.66 0 0 1 .2 9.65 11.05 11.05 0 0 1-2.95 3.77.68.68 0 0 1-.44.15z"/><path fill="#fff" d="M6 25h2v8H6zm5 8H9v-4.86c0-.83.21-1.76.89-2.31 1-.83 2.84-.82 4.23-.83l-.35 2a9 9 0 0 0-1.78.07c-.55.2-.99.8-.99 1.32zm12 0v-5.06c0-2.25 1.55-2.94 3.5-2.94 2.02 0 3.5.78 3.5 2.94v5.05h-2v-4.87c0-.83-.62-1.12-1.5-1.12-.82 0-1.5.23-1.5 1.12v4.87h-2zm-4.44-1.6h-.75c-.58 0-1.2-.2-1.2-.87 0-.9.72-.95 1.5-.95.68 0 1.39.19 1.39.95 0 .57-.49.87-.94.87m2.22-5.54A4.4 4.4 0 0 0 18.1 25h-2.56l-.34 2h2.75c.93 0 1.55.5 1.55 1.44-.6-.32-1.33-.4-2-.4-1.6 0-2.84.71-2.84 2.49 0 1.88 1.04 2.47 2.75 2.47h2.1c1.36 0 1.99-.74 1.99-1.9v-3.06c0-1.02-.14-1.74-.72-2.18M32 25h2v8.03h-2z"/><circle cx="7" cy="23" r="1" fill="#fff"/><circle cx="33" cy="23" r="1" fill="#fff"/></svg>