<svg xmlns="http://www.w3.org/2000/svg" width="56" height="56"><path fill="#222C65" d="M0 0h56v56H0z"/><rect width="48" height="10.9" x="4" y="22.06" fill="#FEDC00" rx="2"/><path fill="#222C65" fill-rule="evenodd" d="M5 24.5c0-.83.67-1.5 1.5-1.5h43c.83 0 1.5.67 1.5 1.5v6c0 .83-.67 1.5-1.5 1.5h-43A1.5 1.5 0 0 1 5 30.5zM22.71 30l.84-5h2.73c.54 0 1.62.2 1.62 1.1 0 .88-.67 1.4-1.01 1.55.22.07.64.35.6.92-.03.3-.07.52-.1.72-.06.26-.1.47-.06.71h-1.56c-.01-.26.1-.94.15-1.28l.01-.05c.04-.23-.14-.52-.62-.5h-.66L24.33 30zm2.3-4-.18 1h.79c.23 0 .69-.13.7-.6 0-.13-.13-.4-.54-.4H25zM7.76 25l-.84 5h1.62l.32-1.83h.66c.48-.02.66.27.62.5v.05c-.06.34-.17 1.02-.16 1.28h1.56c-.04-.24 0-.45.05-.71.04-.2.08-.43.1-.72a.88.88 0 0 0-.59-.92 1.75 1.75 0 0 0 1.01-1.56c0-.9-1.08-1.1-1.62-1.09zm1.28 2 .18-1H10c.41 0 .53.27.54.4-.01.47-.47.6-.7.6zm4.24-2h4.02l-.22 1.15h-2.39l-.13.72h2.05l-.2 1.19h-2.05l-.11.75h2.5l-.2 1.19H12.4zm4.79 4.63c1 .85 2.64.58 3.67-.6.27-.32.47-.67.6-1.03h-1.58c-.29.62-.84.98-1.3.82-.5-.17-.7-.92-.45-1.66.26-.75.88-1.21 1.39-1.04.32.11.52.45.56.88h1.56c0-.65-.24-1.26-.73-1.68-1-.85-2.63-.58-3.66.61-1.03 1.2-1.06 2.85-.06 3.7m10.38-1.78.54-2.85h1.65l-.58 3.02c-.08.31.05.74.65.76.6.03.85-.5.9-.76l.56-3.02h1.63l-.64 3.24c-.1.54-.63 1.73-2.68 1.76s-2.2-1.42-2.03-2.15M39.72 25l-.54 2.85c-.17.73-.02 2.18 2.03 2.15s2.57-1.22 2.68-1.76l.64-3.24H42.9l-.55 3.02c-.06.26-.31.79-.91.76-.6-.02-.72-.45-.65-.76l.59-3.02zm-2.98 0c1.37.02 1.75 1.01 1.74 1.5h-1.42c-.03-.13-.18-.37-.57-.37-.37 0-.5.2-.5.28v.03c-.02.1-.03.25.93.48 1.04.25 1.4.76 1.4 1.21 0 .74-.34 1.85-2.38 1.87-1.64.02-1.97-1.05-1.94-1.59h1.49c.02.18.06.46.67.46.53 0 .64-.22.62-.33 0-.1-.17-.32-.91-.46-.92-.18-1.48-.69-1.48-1.32 0-.78.64-1.78 2.35-1.76m8.8 0-.86 5h3.85l.2-1.2h-2.2l.64-3.8h-1.62z"/></svg>