<svg xmlns="http://www.w3.org/2000/svg" width="56" height="56"><path fill="#F0F3FA" d="M0 0h56v56H0z"/><path d="M31 22a1 1 0 0 0-1 1v2a1 1 0 0 0 1 1h1a1 1 0 0 0 1-1v-.09a1.5 1.5 0 1 1-.78-2.88A1 1 0 0 0 32 22zm-7 0a1 1 0 0 0-1 1v2a1 1 0 0 0 1 1h1a1 1 0 0 0 1-1v-.09a1.5 1.5 0 1 1-.78-2.88A1 1 0 0 0 25 22z"/><path d="M19.92 42H33c.38 0 .75-.03 1.1-.1l-.33 1.08c-.21.66.04 1.32.5 1.69.48.38 1.22.49 1.83.03l1.9-1.43 1.9 1.43c.61.46 1.35.35 1.83-.03.46-.38.71-1.03.5-1.7l-.73-2.33 1.88-1.42c.6-.45.71-1.15.55-1.7a1.5 1.5 0 0 0-1.44-1.1h-2.32l-.73-2.35c-.1-.29-.25-.52-.44-.7V21.01a6 6 0 0 0-6-6h-9c-.92 0-1.8.2-2.58.58-2.76-2.43-7.06-5.9-8.13-5.56-.83.27.28 2.15 1.32 3.9.88 1.48 1.7 2.87 1.23 3.1-.32.16-.75.26-1.16.37-.9.23-1.74.44-1.4 1.13.42.8 2.7 1.33 3.72 1.5v8c0-.18-2.28-.2-2.7.99-.4 1.2.18 2.83.52 3.5l3.47 5.34.05.15c-1.4 0-1.87-.25-1.97-.43l-.02-.07c0 .02 0 .05.02.07.83 2.75 2.7 4.1 3.55 4.43Zm15.34-.44A6 6 0 0 0 39 36.02l.32 1.03c.07.23.27.38.49.38h2.68c.5 0 .7.68.3.99l-2.15 1.6a.57.57 0 0 0-.19.63l.83 2.63c.15.5-.38.92-.78.62l-2.2-1.66a.48.48 0 0 0-.6 0l-2.2 1.66c-.4.3-.94-.12-.78-.62zM21 23c0-1.66 1.25-3 2.8-3h8.4c1.55 0 2.8 1.34 2.8 3v2c0 1.66-1.25 3-2.8 3h-8.4c-1.55 0-2.8-1.34-2.8-3z"/><path fill="#B8A30E" d="M37.52 34.37c.15-.5.8-.5.96 0l.84 2.68c.07.23.27.38.49.38h2.68c.5 0 .7.68.3.99l-2.15 1.6a.57.57 0 0 0-.19.63l.83 2.63c.15.5-.37.92-.78.62l-2.2-1.66a.48.48 0 0 0-.6 0l-2.2 1.66c-.4.3-.93-.12-.78-.62l.83-2.63a.57.57 0 0 0-.2-.62l-2.13-1.61c-.41-.3-.2-1 .29-1h2.68c.22 0 .42-.14.49-.37z"/></svg>