<svg xmlns="http://www.w3.org/2000/svg" width="56" height="56" fill="none"><path fill="#F0F3FA" d="M0 0h56v56H0z"/><path fill="#0D933A" fill-rule="evenodd" d="m18.745 14.17-3.483.839L15.168 14l-2.274.557.488 1.259-.488.71.018 3.474c-2.067.237-4.007 1.926-3.908 4.181.077 1.776 1.69 2.857 3.403 1.803.219 1.13.067 1.435.505 2.016l3.883-2L25 33v5h1.546l1.95 4-3.9 3 3.889 4c1.41-.323.658-1.71 1.66-2.55.721-.614 1.63-1.065 2.35-1.84.968-1.045.877-1.61.877-2.61s.572-1.422 2.633-2.168c3.07-1.13 3.196.71 5.515-2.937C42.93 34.7 43.88 31.323 44.1 31c1.381-1.846 3.86-3.964 3.9-6.5.028-1.851-1.88-2.356-3.379-3.455-3.007-2.26-3.697-1.065-6.11-2.356-.25-.13-1.378-1.162-2.412-1.776-1.253-.71-2.793-.235-3.702-.913l-.975-3.985h-.533l-.837 1.412L23.62 14c-.845-1.07 0-3-.906-3-.271.007-.699.143-1.374.587-.877.581-2.193.355-2.695.549-1.253.549.1 1.97.1 2.034" clip-rule="evenodd"/><path fill="#FECD20" d="m37.586 30-1.011 3.535c-.4 1.413-.178 2.117 1.425 2.117l-.092.348H31l.092-.348c1.575 0 1.984-.653 2.39-2.085l2.388-9.102c.13-.57.13-.965.13-1.454 0-.511-.91-.663-1.416-.663l.092-.348h5.82c1.906 0 4.504.453 4.504 2.844 0 2.314-2.002 4.056-4.106 4.583-.674.158-1.777.573-3.308.573m1.807-7L37.8 29h.522c.796 0 1.438-.363 2.02-.87.93-.851 1.449-2.319 1.445-3.575C41.784 23.41 41.083 23 40 23z"/></svg>