<svg xmlns="http://www.w3.org/2000/svg" width="56" height="56" fill="none"><path fill="#F89406" d="M0 0h56v56H0z"/><path fill="#F0F3FA" d="m4 24 .376-2h9.156c1.928 0 3.968.61 3.968 3 0 1.752-1.01 2.81-2.5 3.482L16 32h2.5L20 22h8l-.422 2H22.5l-.5 3h3.23L25 29h-3.34l-.478 3h4.834l-.532 2H13l-1-5h-1.428l.376-2h1.758c.787 0 1.496-.642 1.623-1.474 0-.79-.433-1.526-1.218-1.526zm33.527 7.656h.883c.282 0 .59-.158.59-.43s-.155-.416-.428-.416h-.82zM37 30h1.524c.653 0 1.476.173 1.476.99 0 .76-.478 1.035-1 1.271L39.5 34h-1.068l-.266-1.538h-.806L37 34h-1zm7.917 2h-1.779l-.126.57h.63c-.12.389-.425.624-.831.624-.417 0-.795-.29-.811-.625 0-1.069.5-1.819 1.315-1.819.362 0 .535.222.535.667l1.15-.153c0-.859-.77-1.264-1.543-1.264C42.067 30 41 31.138 41 32.514c0 .915.727 1.486 1.606 1.486.494 0 1.021-.088 1.394-.417l.15.417h.362z"/><path fill="#F0F3FA" fill-rule="evenodd" d="m48 34 2.033-4h1.369L52 34h-1l-.094-.791h-1.513L49 34zm1.727-1.64h1.084l-.173-1.86z" clip-rule="evenodd"/><path fill="#F0F3FA" d="m47 30-1 4h1l1-4zm-14 0-1 4h2.807L35 33h-1.86l.133-.644h1.534l.193-.728h-1.573L33.56 31h1.78l.28-1zm-5 0-1 4h1l.629-2.701L30.241 34H31l1-4h-1l-.568 2.271L29 30z"/></svg>