<svg xmlns="http://www.w3.org/2000/svg" width="56" height="56"><path fill="#F0F3FA" d="M0 0h56v56H0z"/><path fill="url(#a)" d="m14.76 26.15-2.7-4.87c-.18-.32.07-.69.46-.7 12.4-.17 24.72-4.06 30.71-6.54.47-.19.96.3.7.7l-2.84 4.38a.5.5 0 0 1-.19.17c-5.61 2.82-19.12 5.86-25.58 7.1a.53.53 0 0 1-.56-.24"/><path fill="url(#b)" d="M42.67 23.6c-7.31 2-19.72 4.1-25.9 5.02-.36.05-.55.42-.36.7l10.03 15.45c.2.3.7.3.9 0l9.78-15.48c.23-.37-.14-.8-.6-.7l-6.55 1.71c-.11.03-.18-.12-.07-.17l12.85-6.34c.1-.05.04-.22-.08-.18Z"/><defs><linearGradient id="a" x1="14.94" x2="43.17" y1="26.47" y2="25.16" gradientUnits="userSpaceOnUse"><stop stop-color="#BE2C2F"/><stop offset="1" stop-color="#EF5F33"/></linearGradient><linearGradient id="b" x1="14.94" x2="43.17" y1="26.47" y2="25.16" gradientUnits="userSpaceOnUse"><stop stop-color="#BE2C2F"/><stop offset="1" stop-color="#EF5F33"/></linearGradient></defs></svg>