<svg xmlns="http://www.w3.org/2000/svg" width="56" height="56"><path fill="#F0F3FA" d="M0 0h56v56H0z"/><path fill="#BE9310" d="m28.01 11 3 6h-6z"/><path fill="#1B233A" d="M44 42 28 10 12 42h.25L28 11.7 43.75 42z"/><path fill="#1B233A" d="M12.23 41.77h31.6V42h-31.6zm3.03-6H40.8V36H15.26zM18.4 30h19.18v.23H18.4zm2.93-6.23h13.4V24h-13.4z"/><path fill="#1B233A" d="M37.46 41.95 24.8 17.47l.25-.14L37.71 41.8l-.25.14Zm-6.33.05-9.74-18.31.25-.14 9.74 18.3-.25.14Zm-6.47 0-6.52-11.73.26-.14 6.5 11.72-.24.14Zm-6.27 0-3.2-6.14.26-.14 3.19 6.13-.25.14Z"/><path fill="#1B233A" d="m18.6 41.95 12.6-24.48-.25-.14-12.6 24.47.26.14Zm6.34.05 9.74-18.31-.25-.14-9.74 18.3.25.14Zm6.47 0 6.42-11.73-.25-.14-6.42 11.72.25.14Zm6.27 0 3.1-6.14-.25-.14-3.1 6.13.25.14Z"/></svg>