<svg xmlns="http://www.w3.org/2000/svg" width="56" height="56"><path fill="#F0F3FA" d="M0 0h56v56H0z"/><path fill="#FF4D00" d="M16 19h-4.56L6 28l5.44 9H16v-2h-3.37l-4.25-7 4.25-7H16zm24 0h4.56L50 28l-5.44 9H40v-2h3.37l4.25-7-4.25-7H40zm-5 7h2v7h-2zm-5-.95A2 2 0 0 1 31.94 23H34v2h-1.26c-.41 0-.74.35-.74.78V26h2v2h-2v5h-2v-5h-1v-2h1z"/><path fill="#FF4D00" d="M39 31c0 1.1.87 2 1.94 2H43v-2h-1.26a.75.75 0 0 1-.74-.77V28h2l-1.09-2H41v-2h-1.3l-.7 1.4v.6h-1v2h1z"/><circle cx="36" cy="24" r="1" fill="#FF4D00"/><path fill="#FF4D00" d="M21 29.48A3.48 3.48 0 0 1 24.49 26h.1C26.5 26 28 27.72 28 29.5v.5h-5c.1.36.52 1.5 1.72 1.5h2.57l.53 1.5H24.5a3.52 3.52 0 0 1-3.5-3.52m2-.48h3c-.2-.82-.53-1.5-1.4-1.5-.89 0-1.4.68-1.6 1.5"/><path fill="#FF4D00" d="M18 23h-5v10h2v-8h2.55c.82 0 1.45.72 1.45 1.57S18.37 28 17.55 28H16v1.24L18.58 33H21l-2.66-3.89S21 29 21 26.5 19.66 23 18 23"/></svg>