<svg xmlns="http://www.w3.org/2000/svg" width="56" height="56"><path fill="#F0F3FA" d="M0 0h56v56H0z"/><path fill="#EA1D3A" d="M50 33V23h2v10zm-5.9 0c-1.7 0-3.7-.26-5.1-1.46v-2.27C40.43 30.7 42.43 31 44.29 31c1.63 0 2.7-.35 2.71-1.16 0-1.03-2.6-.85-3.27-.84-.54 0-1.08-.03-1.63-.1-1.5-.24-3.1-.88-3.1-2.87C39 24 40.59 23 43.57 23c1.7 0 3.38.22 5 .85v2.43c-.9-1.13-3.55-1.28-4.82-1.28-.7 0-2.77-.16-2.75.96 0 .77 1.29.99 1.77 1 .46.03.96.04 1.51.04 1.97 0 4.72.3 4.72 2.83 0 2.88-2.95 3.17-4.9 3.17m-11 0c-1.7 0-3.7-.26-5.1-1.46v-2.27C29.43 30.7 31.43 31 33.29 31c1.63 0 2.7-.35 2.71-1.16 0-1.03-2.6-.85-3.27-.84-.54 0-1.08-.03-1.63-.1-1.5-.24-3.1-.88-3.1-2.87C28 24 29.59 23 32.57 23c1.7 0 3.38.22 5 .85v2.43c-.9-1.13-3.55-1.28-4.82-1.28-.7 0-2.77-.16-2.75.96 0 .77 1.29.99 1.77 1 .46.03.96.04 1.51.04 1.97 0 4.72.3 4.72 2.83 0 2.88-2.95 3.17-4.9 3.17m-11.6 0C19 33 16 31.46 16 28s3-5 5.5-5 5.5 1.54 5.5 5-3 5-5.5 5m0-2c1.55 0 3.51-.76 3.5-3 .01-2.11-2-3-3.5-3-1.55 0-3.5.77-3.5 3 0 2.12 1.98 3 3.5 3m-9 2H15l-3-4c1.8-.18 2.5-1.14 2.5-2.97 0-2.22-1.3-3.03-3.07-3.03H4v10h2v-8h5.44c.54 0 1.06.34 1.06 1.03 0 .71-.35.97-1.06.97H7v2h2.5z"/></svg>