<svg xmlns="http://www.w3.org/2000/svg" width="56" height="56"><path fill="#FF4726" d="M0 0h56v56H0z"/><path fill="#fff" d="M25.55 23h3.6c.52 0 .92.47.84.98L28.45 34h-3.6a.85.85 0 0 1-.84-.98zm3-2.85a.06.06 0 0 0-.07.04v.02c.08.36.03.68-.14.98l-.03.02a.07.07 0 0 1-.07 0 .07.07 0 0 1-.03-.03c-.22-.42-.57-.91-1.02-1.04a.11.11 0 0 0-.1.02.1.1 0 0 0-.04.09v.84a.06.06 0 0 1-.04.06.06.06 0 0 1-.07-.02 2.2 2.2 0 0 0-.77-.49.2.2 0 0 0-.2.05.2.2 0 0 0-.05.07c-.13.42 0 .8.2 1.18a3.8 3.8 0 0 1-1.02-.2c-.7-.25-.85-.64-1.07-1.29-.15-.43-.61-.63-1.03-.76a8.2 8.2 0 0 1 2.53.16l.02-.02v-.02c.13-.73-.48-1.42-1.06-1.81 1.46.06 3.17.28 4.25 1.24.1.1.16.07.16-.07V19a.4.4 0 0 0-.19-.33l-.4-.29c1.16.22 2.5.67 2.68 1.95.07.48-.27 1-.65 1.28a26 26 0 0 1-.63.39c-.03 0-.06 0-.09-.02l-.5-.33c.37-.1 1.48-.57.71-1.07a2.9 2.9 0 0 0-1.28-.43"/><path fill="#fff" fill-rule="evenodd" d="M40.05 33.92c4.68-.5 8.23-3.33 7.93-6.33s-4.34-5.01-9.03-4.51c-4.68.5-8.23 3.33-7.93 6.33s4.34 5.01 9.03 4.51m-.25-2.47c2.28-.25 4-1.77 3.84-3.4-.16-1.62-2.15-2.74-4.44-2.5-2.29.25-4 1.77-3.84 3.4.16 1.62 2.15 2.74 4.44 2.5"/><path fill="#fff" d="M16.94 23H9.7L8 34h3.17c.67 0 1.23-.5 1.34-1.2l.28-1.8h2.42l2.6 3h4.48l-2.91-3.57c2-.63 3.62-1.84 3.62-3.94 0-2.76-4.04-3.48-6.06-3.49m-.89 5.5h-2.9l.37-2.11-2.48-.89h5.63c1.18 0 2.33.39 2.33 1.4 0 1.5-1.97 1.6-2.95 1.6"/></svg>