<svg xmlns="http://www.w3.org/2000/svg" width="56" height="56" fill="none"><path fill="#F0F3FA" d="M0 0h56v56H0z"/><path fill="#AA9969" d="M20 24.03c0-2.225-1.723-4.036-3.921-4.036-.567 0-1.079.439-1.079 1.014 0 .584.512.992 1.079.992 1.048 0 1.921.955 1.921 2.021S17.127 26 16.079 26h-2.567c.254.262.488.61.488 1.008 0 .431-.194.73-.49.992h2.577C18.277 28 20 26.255 20 24.03"/><path fill="#969799" d="M6 35c0 .517.449 1 .983 1h2.785c2.066 0 3.732-1.606 3.732-3.582 0-1.984-1.674-3.597-3.748-3.597a.92.92 0 0 0-.93.934c0 .517.395.934.93.934.99 0 1.848.772 1.848 1.721S10.741 34 9.752 34H6.975C6.45 34 6 34.483 6 35"/><path fill="#000" d="M20 18.008c0-.584-.418-1.008-.99-1.008h-2.981C13.816 17 12 18.818 12 21.043 12 23.277 13.592 25 15.813 25c.572 0 1.187-.425 1.187-1s-.382-1-.954-1C14.986 23 14 22.118 14 21.052S14.987 19 16.046 19h2.972c.564 0 .982-.417.982-.992m-6.5 9c0-.525-.43-1.008-.964-1.008H9.752C7.685 26 6 27.683 6 29.698c0 2.023 1.693 3.66 3.768 3.66.534 0 .93-.425.93-.958a.937.937 0 0 0-.93-.957c-.99 0-1.768-.787-1.768-1.752S8.77 28 9.76 28h2.776c.535 0 .964-.467.964-.992"/><path fill="#000" fill-rule="evenodd" d="M23.994 27.069c-.292-.395-.452-.965-.452-1.74l.007-3.55c0-.234.073-.534.212-.629q.205-.144.553-.146a1.6 1.6 0 0 1 .594.108q.064.02.091.03v2.382c.345-.346.853-.52 1.334-.52.626 0 1.18.264 1.588.688.412.428.655 1.052.655 1.79 0 .68-.206 1.373-.713 1.85-.452.424-1.079.672-1.793.672-.87 0-1.608-.32-2.076-.935M25 25.589c0 .329.098.581.286.77q.28.284.718.273c.292 0 .53-.091.718-.287.188-.189.277-.448.277-.763s-.09-.574-.277-.777a.93.93 0 0 0-.718-.301.97.97 0 0 0-.718.315q-.135.145-.21.343a1.2 1.2 0 0 0-.076.427m19.5 1.675c0 .487-.044 1.21-.169 1.552-.258 1-1.16 1.488-2.22 1.488-.573 0-1.562-.005-2.112-.155v.855h1.087c.56 0 .765.269.765.725 0 .26-.072.507-.184.739H40v1.431c0 .43.286.677.697.677.26 0 .549-.075.773-.22l.556 1.007c-.514.465-.958.64-1.668.64-.574 0-1.023-.172-1.347-.491-.324-.32-.51-.745-.51-1.278v-4.902c0-.47.272-.685.739-.685.367 0 .829.089 1.293.177.468.09.938.18 1.315.18.47 0 .786-.028.992-.241.174-.174.168-.568.162-.98L43 27.556c-.25.328-.753.448-1.152.448-1.353 0-2.259-.713-2.259-1.848V23.72c0-.492.476-.716.917-.716.23 0 .27.017.47.1l.024.01v2.678c0 .55.389.915 1.036.915s.964-.493.964-.915V23.72c0-.446.367-.716.81-.716.229 0 .478.022.69.11zM14 34.313c0 .517.206.93.555 1.233.349.31.832.458 1.45.458.215 0 .429-.022.627-.06a3.4 3.4 0 0 0 .935-.325c.111-.058.199-.117.262-.169l-.626-1.026a2 2 0 0 1-.325.133 1.688 1.688 0 0 1-.778.059.7.7 0 0 1-.237-.096.6.6 0 0 1-.174-.2.7.7 0 0 1-.11-.34v-1.576h1.798a1.6 1.6 0 0 0 .198-.735c0-.442-.222-.665-.824-.665H15.58v-1.86l-.026-.01c-.037-.014-.092-.035-.206-.071a2 2 0 0 0-.484-.06c-.254 0-.452.053-.602.149a.59.59 0 0 0-.262.51zm33.5 1.69H49v-2.726c0-.51.279-.91.825-.91.35 0 .649.107.853.213.19-.198.322-.46.322-.743 0-.197-.038-.325-.155-.447-.322-.335-.855-.386-1.29-.386-.597 0-1.1.174-1.45.508a1.97 1.97 0 0 0-.605 1.447v3.045zm-25 0H21v-10.41a.53.53 0 0 1 .246-.458c.138-.085.32-.131.554-.131.16 0 .313.02.444.052q.171.051.234.077l.022.009v10.862zm.125-12.227a.74.74 0 0 0-.233-.548.82.82 0 0 0-.583-.223.8.8 0 0 0-.576.223.74.74 0 0 0-.233.548q.002.325.233.547c.153.15.35.217.576.217a.84.84 0 0 0 .582-.216.74.74 0 0 0 .234-.548m13.227 4.228h-1.464v-2.946c0-.91.554-1.634 1.42-1.923q.416-.13.896-.131c.314 0 .612.038.896.13.877.285 1.4 1.018 1.4 1.924v2.946h-1.45v-2.592c0-.677-.306-.993-.846-.993q-.852 0-.852.993zm-2.533-3.939c.131.257.197.586.197.974v2.811c-.037.015-.124.03-.248.044l-.197.021-.277.03q-.285.023-.655.044c-.248.008-.503.015-.78.015q-.687-.002-1.144-.125c-.306-.08-.546-.19-.728-.336a1.13 1.13 0 0 1-.38-.498 1.7 1.7 0 0 1-.108-.6q.002-.858.539-1.223.537-.364 1.697-.366.294-.002.488.007c.132.008.19.015.277.03 0-.22-.044-.388-.218-.513-.175-.117-.46-.183-.86-.183a2.8 2.8 0 0 0-.86.11 2 2 0 0 0-.24.095.5.5 0 0 0-.124.073q-.012-.007-.037-.035a.9.9 0 0 1-.145-.184 1.3 1.3 0 0 1-.102-.198.7.7 0 0 1-.044-.241q0-.813 1.617-.813c.35 0 .685.03.991.095q.461.097.802.337c.233.16.408.366.539.63zm-1.913 2.94c.19 0 .419 0 .594-.058v-.996l-.072-.01c-.423-.062-.954-.14-1.305.135-.13.102-.167.248-.167.395 0 .124.035.247.145.344.186.163.519.189.75.189zm12.64 7.128c.59 0 1.075-.037 1.457-.103s.685-.168.908-.292a1.07 1.07 0 0 0 .462-.468c.087-.183.127-.387.127-.621q.002-.318-.151-.614a1.8 1.8 0 0 0-.446-.534 2.3 2.3 0 0 0-.717-.366 3.3 3.3 0 0 0-.963-.131c-.382 0-.74.058-1.075.183a2.8 2.8 0 0 0-.868.504q-.37.329-.573.79c-.143.306-.207.65-.207 1.023 0 .395.072.753.207 1.06q.203.462.573.782c.24.212.526.38.852.49.327.11.669.168 1.043.168.295 0 .573-.022.82-.059a5 5 0 0 0 .653-.146c.183-.058.342-.11.462-.168q.18-.087.263-.132l-.558-1.038a.5.5 0 0 1-.127.066c-.072.03-.167.066-.279.095a6 6 0 0 1-.398.088c-.151.03-.318.044-.486.044-.222 0-.413-.015-.573-.059a1.4 1.4 0 0 1-.39-.146 1 1 0 0 1-.239-.197.55.55 0 0 1-.103-.22zm-.35-1.33a.9.9 0 0 1 .207-.322 1 1 0 0 1 .334-.227c.136-.059.287-.088.47-.088.255 0 .438.051.565.146.128.095.191.212.191.337a.5.5 0 0 1-.04.182c-.023.059-.103.117-.214.168-.12.052-.303.088-.55.117s-.589.044-1.035.044c0-.117.024-.24.072-.358zm4.807-6.773a9 9 0 0 1-1.457.103h-.326a.55.55 0 0 0 .103.219q.084.098.24.197c.103.059.23.11.39.146.158.044.35.059.572.059.168 0 .335-.015.486-.044a6 6 0 0 0 .398-.088c.112-.029.207-.066.279-.095a.5.5 0 0 0 .127-.066l.558 1.039q-.084.044-.263.131a4 4 0 0 1-.462.168 6 6 0 0 1-.653.146 6 6 0 0 1-.82.059c-.374 0-.716-.059-1.043-.168a2.5 2.5 0 0 1-.852-.49 2.2 2.2 0 0 1-.573-.782 2.6 2.6 0 0 1-.207-1.06c0-.373.064-.716.207-1.024q.203-.46.573-.789.369-.318.868-.504a3 3 0 0 1 1.075-.183q.535 0 .963.131.419.133.717.366c.19.16.342.336.446.534q.153.296.151.614c0 .234-.04.438-.127.621a1.07 1.07 0 0 1-.462.468c-.223.124-.526.226-.908.292m-1.6-1.55a.9.9 0 0 0-.207.322 1 1 0 0 0-.072.358c.446 0 .788-.014 1.035-.044q.37-.041.55-.116c.111-.052.19-.11.215-.169a.5.5 0 0 0 .04-.182c0-.125-.064-.242-.192-.337-.127-.095-.31-.146-.565-.146-.183 0-.334.03-.47.088a1 1 0 0 0-.334.226m-17.52 8.896-.734 2.628h-1.372s-.992-2.506-1.409-3.803a1.7 1.7 0 0 1-.08-.512c0-.438.329-.685.744-.685.21 0 .453.036.636.15.267.98.806 2.85.806 2.85s.395-1.45.66-2.345c.12-.4.331-.655.77-.655.237 0 .472.094.683.196l.77 2.804s.396-1.362.61-2.111c.072-.302.181-.52.305-.663.203-.236.63-.264.915-.173.182.058.338.132.5.233l-1.67 4.714h-1.394zM18.5 36.004H20v-4.856a.2.2 0 0 1-.03-.017.6.6 0 0 0-.145-.066 1.4 1.4 0 0 0-.444-.061q-.348 0-.554.16c-.138.106-.327.288-.327.538zm6.5 0h-1.5v-6.33c0-.241.151-.422.29-.52.138-.097.32-.15.553-.15.16 0 .314.022.445.06.104.036.153.058.188.072q.013.006.024.01zm-5.68-7a.78.78 0 0 0-.575.227.76.76 0 0 0-.233.558c0 .22.08.407.233.551.153.152.35.22.576.22a.85.85 0 0 0 .583-.22.7.7 0 0 0 .233-.55.76.76 0 0 0-.233-.559.82.82 0 0 0-.583-.227zM38 33.039c0-.388-.066-.717-.197-.974a1.6 1.6 0 0 0-.539-.63 2.1 2.1 0 0 0-.801-.336 4.7 4.7 0 0 0-.991-.095q-1.617 0-1.617.813a.7.7 0 0 0 .043.241 1.3 1.3 0 0 0 .247.382.2.2 0 0 0 .037.035.5.5 0 0 1 .124-.073 2 2 0 0 1 .24-.095 3 3 0 0 1 .365-.08c.146-.022.306-.03.495-.03.401 0 .685.066.86.183.175.125.218.293.218.513a2 2 0 0 0-.276-.03q-.195-.009-.488-.007-1.16.002-1.698.366c-.357.242-.54.652-.54 1.223q0 .316.11.6c.073.19.197.359.38.498q.27.217.728.337c.306.08.684.124 1.143.124.277 0 .532-.007.78-.015q.371-.021.656-.044l.276-.03.197-.02c.124-.016.212-.03.248-.045zm-1.516 1.908c-.175.058-.403.058-.593.057h-.055c-.232 0-.565-.026-.75-.19a.44.44 0 0 1-.146-.343c0-.147.037-.293.168-.395.35-.275.882-.197 1.305-.135l.071.01z" clip-rule="evenodd"/></svg>