<svg xmlns="http://www.w3.org/2000/svg" width="56" height="56"><path fill="#EA1D25" d="M0 0h56v56H0z"/><path fill="#fff" d="M35 25c-.073-1.157-.352-2.585-.937-3.588l-4.968-9.176A8.1 8.1 0 0 1 28.292 10l-.22.386c-1.241 2.236-1.241 5.089 0 7.325l4.019 7.325c1.242 2.236 1.242 5.09 0 7.325l-.22.386a8.2 8.2 0 0 0-.803-2.236l-3.653-6.709-2.338-4.318a8.1 8.1 0 0 1-.803-2.236l-.22.386c-1.242 2.236-1.242 5.012 0 7.325l4.019 7.325c1.241 2.236 1.241 5.09 0 7.326l-.22.385a8.1 8.1 0 0 0-.803-2.236l-5.041-9.176C21.35 27.35 21 26.388 21 25c-5.333 1.465-9 4.2-9 7.824C12 37.914 19.16 42 28 42s15.999-4.087 15.999-9.176c.073-3.47-3.593-6.359-8.999-7.824"/></svg>