<svg xmlns="http://www.w3.org/2000/svg" width="56" height="56" fill="none"><path fill="#323737" d="M0 0h56v56H0z"/><path fill="#F0F3FA" d="M5.552 26.435c-.538 0-1.07.349-1.07.927v1.392c0 .577.535.788 1.07.788.286 0 .87-.067 1.036-.347v-.79h-.83c-.115 0-.24-.075-.24-.202 0-.124.13-.203.24-.203h1c.116 0 .242.075.242.203v1.101a.3.3 0 0 1-.103.203c-.295.372-.863.493-1.31.493C4.82 30 4 29.543 4 28.696v-1.392C4 26.458 4.82 26 5.586 26c.494 0 1.076.157 1.345.609.043.072.069.096.069.174 0 .127-.126.202-.241.202-.123 0-.25-.101-.31-.202-.173-.203-.483-.348-.897-.348m2.925 3.355c0 .127-.12.21-.238.21-.12 0-.239-.083-.239-.21v-3.58c0-.127.12-.21.239-.21h1.125c.658 0 1.431.4 1.431 1.143 0 .478-.38.898-.818 1.052l.955 1.414c.045.082.068.105.068.18 0 .128-.12.211-.239.211-.102 0-.17-.03-.204-.12L9.5 28.42H8.477zM9.33 28c.43 0 .92-.37.92-.857 0-.484-.49-.752-.92-.752h-.853V28zm4.197 2C12.774 30 12 29.567 12 28.735v-2.53c0-.13.131-.205.248-.205.118 0 .249.075.249.206v2.53c0 .55.478.882.994.882s.994-.331.994-.883l.018-2.53c0-.13.131-.205.248-.205.118 0 .249.075.249.206v2.53c0 .838-.7 1.264-1.473 1.264m2.991-3.606V28h.982c.52 0 1.082-.168 1.082-.758 0-.585-.574-.848-1.082-.848zM17.5 26c.695 0 1.5.424 1.5 1.242s-.805 1.152-1.5 1.152h-.982v1.394c0 .136-.137.212-.259.212-.12 0-.259-.076-.259-.212v-3.546c0-.135.138-.242.26-.242zm5.5 2.696C23 29.51 22.26 30 21.5 30c-.75 0-1.5-.493-1.5-1.304v-1.392c0-.814.74-1.304 1.5-1.304.75 0 1.5.493 1.5 1.304zm-.49-1.392c0-.555-.48-.83-1.01-.83-.533 0-1.01.274-1.01.83v1.392c0 .555.48.836 1.01.836s1.01-.281 1.01-.836zM27 24.979c0 2.898 6 1.235 6 4.873 0 2.3-2.062 3.148-4.078 3.148-.78 0-2-.399-2.74-.874a.41.41 0 0 1-.182-.347c0-.343.376-.56.685-.41.705.343 1.528.631 2.203.631 1.32 0 3.112-.499 3.112-2.04 0-2.915-6-1.252-6-4.88 0-2.047 1.757-3.08 3.636-3.08.876 0 1.765.469 2.59.837a.5.5 0 0 1 .298.454c0 .342-.34.57-.648.424-.703-.336-1.414-.715-2.172-.715-1.262 0-2.704.667-2.704 1.979"/><path fill="#F0F3FA" fill-rule="evenodd" d="M49.523 28H46v4.5a.5.5 0 0 1-1 0V28a1 1 0 0 1 1-1h3.5a.5.5 0 0 1 .023 1M45 23a1 1 0 0 1 1-1h5.5a.5.5 0 0 1 0 1H46v2.5a.5.5 0 0 1-1 0zm-4.378 4.305q-.003-.001 0-.004.003-.004-.001-.004l-.025-.004q-.18-.033-.393-.086c-.434-.103-.986-.234-1.7-.207v-.003s0-.002-.002-.002C38.328 27 38.158 27 38 27h-2v-4h2.105C39.336 23 41 23 41 24.955q0 .173-.017.328c-.037.34.204.717.545.717a.41.41 0 0 0 .412-.32c.043-.227.06-.47.06-.725C42 22.484 40.5 22 38.105 22H36a1 1 0 0 0-1 1v4a1 1 0 0 0 1 1h3c1.287 0 3 .364 3 2 0 1.797-1.643 2-3 2h-3v-2.5a.5.5 0 0 0-1 0V32a1 1 0 0 0 1 1h2.105C40.233 33 43 33 43 30c0-1.497-1.06-2.557-2.378-2.695" clip-rule="evenodd"/></svg>