<svg xmlns="http://www.w3.org/2000/svg" width="56" height="56"><path fill="url(#a)" d="M0 0h56v56H0z"/><path fill="#007042" d="M44 28c0 8.837-7.163 16-16 16s-16-7.163-16-16 7.163-16 16-16 16 7.163 16 16"/><path fill="#fff" fill-rule="evenodd" d="M27.909 17.625c.57.328 1.174.75 1.634 1.199l-.18.182c-.616-.066-1.253-.032-1.868.001-.292.016-.58.032-.858.036l-.037-.036c-.099-.095-.23-.221-.072-.328zm16.055 11.28.004.114a16 16 0 0 0 .02-1.649c-1.082.809-1.97.309-2.882-.204-.757-.427-1.531-.862-2.447-.567q.035.102.066.205c.077.248.153.494.335.703.761-.005 1.422.33 2.074.662.883.448 1.75.889 2.829.463zm-.11 1.182.017-.043a16 16 0 0 1-.325 1.755c.016-.155.038-.3.09-.406-.799.032-1.434-.338-2.069-.708-.586-.342-1.173-.684-1.888-.707l-.182-.91c.766-.127 1.414.205 2.062.536.713.365 1.426.73 2.296.483zm-1.088 2.433c.29.139.466.131.574.041q-.157.531-.35 1.044c-.568-.095-1.06-.382-1.55-.668-.5-.29-.999-.582-1.58-.673.008-.096.004-.196 0-.298-.008-.204-.017-.41.072-.573.637 0 1.148.296 1.66.592.375.217.75.434 1.174.535m-.291 2.18a1 1 0 0 0 .098-.086q-.248.544-.533 1.066a1 1 0 0 0 0-.074c-.36-.107-.677-.316-.995-.526-.44-.292-.882-.584-1.439-.599l.18-.836c.585-.014 1.08.268 1.578.55.357.204.716.408 1.11.505zm-1.723 1.506c.246.138.493.277.76.365q-.27.427-.568.835l.005-.017-1.308-.655c-.57-.361-.68.005-.795.391-.067.222-.136.451-.295.553-1.197-.068-1.843-.642-2.55-1.269-.15-.133-.303-.27-.465-.403.058-.294.207-.55.356-.807.133-.23.267-.46.336-.718.409-1.365-.33-2.473-1.052-3.556a15 15 0 0 1-.62-.985 2 2 0 0 1-.268-1.034c.003-.49.157-.978.312-1.471.15-.479.302-.962.32-1.455.296-1.27-.28-2.493-.772-3.534l-.03-.061c.34.206.706.483.911.833.678 1.332.872 3.187.254 4.615a2.5 2.5 0 0 0-.184 1.073c.048.807.51 1.497.978 2.196.503.75 1.011 1.51 1.022 2.433.161.122.32.261.478.402.555.49 1.122.99 1.883.763.042.2-.004.409-.049.611-.033.152-.066.3-.06.441.541-.03.97.212 1.401.454m-.642 1.997.152.075q-.375.447-.781.866.05-.074.088-.158a2.9 2.9 0 0 0-1.199-.51c-.014-.278.143-.496.326-.69.542-.02.98.2 1.414.417m-2.357 1.29.998.357a16 16 0 0 1-.846.717 2.5 2.5 0 0 0-.55-.31c-.09-.197.077-.387.24-.57.057-.066.114-.13.158-.193zm-2.193.622c.32.485.639.97.832 1.51q-.257.16-.52.308c-.131-.646-.502-1.194-.872-1.744-.278-.411-.557-.823-.734-1.278a9 9 0 0 0-.017-.263c-.034-.472-.07-.99.236-1.334l.072.072c-.081 1.082.46 1.905 1.003 2.73zm-1.537.11c.444.695.898 1.403.962 2.174q-.461.225-.937.418c.097-.996-.474-1.858-1.028-2.693-.147-.223-.294-.444-.426-.665-.743-1.508.191-2.738 1.075-3.903.21-.275.416-.547.597-.819.689-1.459-.18-2.728-.974-3.89a19 19 0 0 1-.48-.725 1.9 1.9 0 0 1-.328-1.216h.003c.038-.69.375-1.39.67-2.005q.068-.136.129-.267c.63-1.696.193-3.752-.908-5.013.738.303 1.281 1.128 1.524 1.854.504 1.257.118 2.715-.247 4.093-.11.413-.217.82-.297 1.21l-.003.128c-.008.943.508 1.642 1.027 2.346.375.509.753 1.02.936 1.629.335 1.188-.344 2.088-.996 2.953-.172.228-.343.454-.492.682-1.31 1.362-.571 2.515.193 3.709m-1.925.106c.542.888 1.093 1.79.874 2.881q-.542.178-1.1.316c.422-1.324-.203-2.435-.813-3.519a13 13 0 0 1-.572-1.097c-.48-1.375.377-2.475 1.205-3.537.213-.274.425-.546.611-.82.706-1.32-.093-2.445-.838-3.495a16 16 0 0 1-.467-.684 2.34 2.34 0 0 1-.262-1.47c.085-.606.37-1.186.65-1.756.181-.368.36-.733.482-1.098.666-1.585.29-3.558-.945-4.756l.037-.038a3.8 3.8 0 0 1 1.453 1.635c.611 1.297.142 2.749-.322 4.187-.199.616-.397 1.228-.509 1.826l-.04.236c-.023.913.454 1.514.944 2.131.264.334.532.672.728 1.066.736 1.437-.14 2.54-.993 3.616-.225.284-.45.566-.641.852-.8 1.37-.147 2.436.518 3.524m-2.25-.777c.71 1.316 1.486 2.753.925 4.206a16.1 16.1 0 0 1-5.445.018c-.59-1.325.021-2.501.622-3.657.266-.511.53-1.018.686-1.532.411-1.29-.312-2.192-1.041-3.102-.326-.406-.653-.814-.881-1.26-.502-1.047.057-1.837.62-2.634.31-.437.62-.876.758-1.36.211-.607.64-.455 1.064-.305.227.08.454.16.645.123.309.056.601-.039.882-.13.39-.126.756-.245 1.115.058.134.548.49 1.004.846 1.458.445.569.889 1.136.895 1.883-.02.901-.598 1.617-1.168 2.323-.745.925-1.479 1.834-.936 3.125.127.256.268.519.413.786m-5.682 3.863q0 .067.008.122a16 16 0 0 1-1.01-.283c-.23-1.113.297-1.975.822-2.835.433-.711.867-1.42.872-2.27.064-.967-.518-1.662-1.1-2.358-.411-.49-.822-.98-1.007-1.566-.423-1.259.36-2.293 1.093-3.263q.127-.168.25-.334c.387-.602.478-1.17.416-1.724-.07-.605-.324-1.194-.582-1.791-.328-.758-.661-1.53-.632-2.369-.025-1.38.58-2.737 1.778-3.378q-.109.156-.22.31c-.298.411-.595.822-.76 1.287-.577 1.565.035 2.958.63 4.311.178.407.354.81.497 1.212q.072.216.1.418c.135.94-.369 1.682-.875 2.429-.365.537-.73 1.076-.862 1.693-.256 1.085.348 1.815.96 2.552.398.481.799.965.966 1.553.465 1.247-.08 2.228-.63 3.215-.523.939-1.05 1.883-.714 3.07zm-1.29-2.917c-.47.715-.937 1.427-.827 2.357a16 16 0 0 1-.929-.407c.052-.792.484-1.427.917-2.063.267-.393.535-.787.714-1.219.616-1.289-.149-2.25-.913-3.21-.363-.455-.726-.911-.94-1.402-.63-1.382.255-2.679 1.127-3.707.607-.656.765-1.297.711-1.943-.046-.554-.248-1.11-.453-1.675-.336-.924-.681-1.873-.368-2.885.291-1.017.726-2.23 1.779-2.652-.763.883-1.163 1.913-1.234 3.087-.12.894.23 1.635.572 2.363.27.573.535 1.137.567 1.762a2.5 2.5 0 0 1-.122.89c-.212.46-.52.878-.828 1.297-.553.75-1.105 1.5-1.097 2.48-.077.982.51 1.666 1.099 2.35.614.716 1.229 1.43 1.08 2.484-.011.807-.434 1.451-.855 2.093m-1.804-.304c-.388.56-.784 1.13-.853 1.788a17 17 0 0 1-.522-.304c.19-.572.52-1.082.848-1.591.298-.46.595-.921.79-1.428.036-.176.06-.367.085-.556.034-.268.069-.533.132-.753.718 1.117.129 1.967-.48 2.844m-2.388.024-.579.355a16 16 0 0 1-.835-.707c.088-.034.173-.077.258-.12.219-.11.437-.221.72-.182l.072.086c.15.178.301.36.364.568m-1.585-1.537c-.286.053-.598.11-.715.32a17 17 0 0 1-.613-.685c.097-.048.197-.106.3-.164.423-.243.883-.507 1.342-.22.506.598.128.668-.314.75zm-1.754-1.41-.263.17a16 16 0 0 1-.617-.907.6.6 0 0 0 .112.052 5 5 0 0 0 .673-.363c.44-.266.878-.532 1.434-.508-.096-.316-.181-.74-.144-1.018.8.212 1.343-.215 1.882-.638.17-.133.339-.267.516-.38.116-1.024.643-1.88 1.17-2.737.24-.39.48-.78.68-1.185.07-.286.092-.57.088-.854-.012-.55-.135-1.095-.259-1.64-.23-1.014-.46-2.032.027-3.102.23-.641.63-1.487 1.309-1.669-1.247 1.49-1.017 3.765-.363 5.448.132.343.179.661.166.963-.034.811-.508 1.505-.98 2.195-.3.44-.6.88-.786 1.348-.592 1.2-.05 2.569.617 3.56q-.254.2-.507.408c-.776.638-1.555 1.279-2.58 1.299-.233-.114-.317-.366-.4-.619-.042-.126-.084-.252-.145-.361-.616-.122-1.13.213-1.63.539zm-1.385-1.628q.027.06.052.128-.303-.544-.563-1.11c.296.1.712-.17 1.159-.46.541-.351 1.129-.732 1.604-.521.014.088.04.175.066.263.06.199.12.398.043.61-.571-.008-1.014.29-1.457.59-.29.195-.579.39-.904.5m-.942-2.073q0 .034.004.067a16 16 0 0 1-.89-3.58l.013-.01c.907.288 1.642-.09 2.375-.467.626-.323 1.252-.645 1.983-.55l-.01.088c-.033.324-.067.66-.244.892-.682.035-1.244.354-1.806.674-.636.361-1.272.723-2.082.672l.29 1.162c.66.067 1.203-.239 1.745-.545s1.084-.611 1.744-.545l-.035.87c-.572.054-1.043.345-1.515.635-.488.3-.975.6-1.572.637m30.726-8.439q.135.741.199 1.503a20 20 0 0 0-.2-1.503zm-7.406-10.792a16 16 0 0 1 2.613 1.994 15.5 15.5 0 0 0-2.433-1.869zm-24.325 14.32.022-.03c1.167.453 2.223-.097 3.239-.626.291-.152.58-.302.866-.426a1.4 1.4 0 0 1 .368-.038c.258-.006.516-.011.614-.253-.005-.102.06-.21.124-.316.11-.184.216-.36-.052-.483-.823-.111-1.525.261-2.216.628-.885.47-1.753.93-2.834.353l-.125-.254a16 16 0 0 0-.006 1.445m8.594-14.85-.258.133q.18-.098.363-.191zm.544 8.355c-1.135-.743-2.545-.185-3.672.26q-.184.074-.357.14c-.11-1.102-.557-2.107-1.49-2.833q-.036-.019-.08-.044a.6.6 0 0 0-.249-.103c-.067-.004-.131.023-.181.11.146 2.483-.764 3.83-1.75 5.29-.24.355-.483.717-.718 1.103.4.327 1.04.278 1.525.182.296-.119.59-.258.884-.397.968-.46 1.95-.925 3.11-.693.448-.763 1.2-1.502 1.817-2.107.146-.127.314-.236.48-.343.261-.17.518-.336.681-.565m3.851 1.634c-.024.157.012.437.254.329.277-.384.711-.261 1.085-.155.134.037.26.073.368.083v-.147c-.226-.354-.69-.532-1.162-.515q-.165.007-.326.045a.282.282 0 0 0-.219.36m5.92-1.56c-.338-.75-1.113-1.054-1.816-1.236a10 10 0 0 0-1.057-.075h-.199c-.993.02-1.94.275-2.52 1.092a1 1 0 0 1-.106.197c-.12.196-.254.412-.003.565l.119-.008c.733-.049 1.54-.103 2.022.518 0 .158.028.33.056.503.074.463.149.928-.31 1.131-.27-.25-.567-.185-.869-.119-.28.061-.564.124-.837-.063-.267-.157-.435.027-.545.257-.157 1.5.629 3.158 2.033 3.993.569.205 1.334.4 1.928.11 1.428-.666 2.02-2.191 2.286-3.596l-.014-.127c-.026-.278-.062-.663-.384-.674-.415.263-1.017.116-1.464.007l-.026-.007c-.126.041-.195.15-.265.262-.078.122-.156.247-.314.286l-.184-.147c-.158-.665-.255-1.61.363-2.07.69-.279 1.502-.4 2.216-.182.089-.153.027-.285-.035-.417a.8.8 0 0 1-.075-.2m-.812 1.197-.059.003c-.076.05-.198.075-.323.1-.286.059-.589.12-.403.517.458-.363 1.096-.112 1.555.069l.007.003c.138-.069.14-.193.142-.316q0-.043.003-.085c-.148-.274-.5-.3-.839-.294zm5.355-5.122c-.598-.032-1.13.183-1.662.399a8 8 0 0 1-.808.292c-.043-.419.13-.851.302-1.282.115-.29.23-.579.28-.862-1.096.07-2.005.626-2.907 1.178q-.29.178-.58.35-.384-.926-.764-1.854l1.453-1.38.037-.183-1.963-.109c-.146-.256-.253-.534-.36-.811-.142-.366-.283-.73-.51-1.04-.164.31-.3.627-.437.945s-.273.635-.437.943l-1.96.11v.144l1.488 1.344-.042.161c-.168.644-.344 1.32-.756 1.801l-.441-.267c-.724-.44-1.452-.884-2.246-1.186l-.04-.013c-.227-.074-.53-.173-.724-.024l.155.329c.272.57.56 1.172.5 1.78-.223-.04-.42-.138-.614-.235a3 3 0 0 0-.476-.202 8 8 0 0 1-.283-.085c-.379-.119-.788-.247-1.135-.131.727 1.016 1.32 2.08 1.525 3.304 2.41-1.164 5.221-1.804 8.14-1.307 1.119.179 2.165.584 3.178.977q.337.132.67.257c.037-1.005.543-1.855 1.029-2.671.134-.226.267-.45.388-.672m4.139 6.975c.383.102.767.302 1.153.503.857.446 1.725.898 2.625.296-.224-.373-.471-.74-.718-1.109-1.004-1.497-2.02-3.011-1.642-4.993.049-.169-.06-.34-.217-.364-.738.302-1.31 1.03-1.602 1.745q-.059.212-.11.43c-.069.287-.138.575-.25.84-.885-.46-1.829-.906-2.906-.798l-.108.013c-.377.043-.844.097-.91.46 1.224.654 2.229 1.744 2.978 2.906.522-.085 1.162-.013 1.707.071m-12.93 1.707.035.22c.158.105.28.235.397.36.23.247.44.472.876.44.58.035 1.017-.51 1.306-.945-.374-.052-.787-.04-1.21-.03-.467.013-.947.025-1.404-.045m.855-.855c-.095-.042-.2-.09-.364-.128-.075-.035-.053-.093-.01-.151.176-.2.346-.156.52-.11.078.02.157.04.237.04a.6.6 0 0 0 .165-.037c.155-.049.33-.105.558.119.057.055.011.127-.022.138a5 5 0 0 0-.39.152c-.13.057-.182.08-.359.083a1 1 0 0 1-.335-.106"/><defs><linearGradient id="a" x1="10.418" x2="68.147" y1="9.712" y2="76.017" gradientUnits="userSpaceOnUse"><stop stop-color="#1A1E21"/><stop offset="1" stop-color="#06060A"/></linearGradient></defs></svg>