<svg xmlns="http://www.w3.org/2000/svg" width="56" height="56"><path fill="url(#a)" d="M0 0h56v56H0z"/><path fill="#fff" d="M20.4 29.34c4.54 2.3 9.03 2.54 13.47.76.16.76.26 1.54.33 2.35.11.42.25.73.43.97l-1.54 1.02c-.99.55-.99 1.5-.6 2.59.88 1.75 1.73 3.53 2.6 5.31.6 1.14-.07 1.93-1.1 1.07-1.64-1.5-3.27-2.96-4.9-4.46-.54-.62-1.27-.62-2.17 0L22.1 43.6c-.8.86-1.75.22-1.34-.78l2.83-5.84c.51-1.04.3-1.87-.48-2.54-1.59-1.16-2.44-1.42-4.03-2.59-1.06-.42-1.38-3.27 1.31-2.51zm16.6-.52c1.36-.1 1.99 1.25.97 2.4l-.97.63c.07-1.23 0-2.01 0-3.03"/><path fill="#C8D6EE" d="M34.2 32.45c-.46-5.3-2.68-9.47-6.61-12.5.69-.65 1.45-1.24 2.25-1.81.16-.12.28-.24.4-.36l1.6.8c.97.6 1.76.1 2.47-.82 1.01-1.69 2.05-3.35 3.06-5.03.63-1.12 1.64-.93 1.45.42-.39 2.21-.78 4.42-1.15 6.62-.25.81.16 1.43 1.13 1.93 2.12.61 4.24 1.2 6.36 1.82 1.12.27 1.1 1.45.04 1.6-2.1.16-4.21.35-6.3.52-1.14.1-1.71.7-1.85 1.73-.14 2 .1 2.87-.07 4.89.19 1.2-2.02 2.94-2.78.19m-9.24-14.79c-.37-1.02.4-1.94 1.7-1.68l.67.33z"/><path fill="#8390C8" d="M22.31 30.2a16.8 16.8 0 0 1 7.53-12.06c1.7-1.33.83-3.18-.92-2.73-1.7.95-3.38 1.92-5.09 2.87-.92.64-1.75.19-2.48-.71l-3.3-4.87c-.66-1.09-1.68-.85-1.42.5.48 2.18.96 4.37 1.47 6.57.28.79-.1 1.45-1.04 1.97l-6.26 2.14c-1.1.3-1.04 1.5.02 1.6l6.34.2c1.12.03 1.72.62 1.93 1.64.1.76.12 1.38.14 1.95.3-.07.69-.05 1.2.1.62.3 1.24.59 1.88.82zm-2.97 1.87.03.12c-.1.95 1.3 2.18 2.2 1.25-.7-.4-1.35-.75-2.23-1.37"/><path fill="#fff" d="M27.92 30a3.05 3.05 0 0 0 3.04-3c.02-1.66-1.3-3-2.96-3a3.05 3.05 0 0 0-3.04 3c-.02 1.65 1.3 3 2.96 3"/><defs><linearGradient id="a" x1="28" x2="28" y1="0" y2="56" gradientUnits="userSpaceOnUse"><stop stop-color="#373E61"/><stop offset="1" stop-color="#545B80"/></linearGradient></defs></svg>