<svg xmlns="http://www.w3.org/2000/svg" width="56" height="56" fill="none"><path fill="#D5DF26" d="M0 0h56v56H0z"/><path fill="url(#a)" fill-rule="evenodd" d="M10.445 25H7s-2 0-2 2c0 1.683 1.5 2 2 2h2.007S10 29 10 30s-.911 1-.993 1H5.5s-.5.02-.5.475.517.524.517.524l3.49-.003S11 31.996 11 29.95C11 27.907 9.356 28 9.171 28H7s-1 0-1-1c0-.999 1-1 1-1h3.404s.596.104.596-.458c0-.581-.555-.541-.555-.541Z" clip-rule="evenodd"/><path fill="url(#b)" fill-rule="evenodd" d="M12 29.651v-2.46C12.058 25.95 13.235 25 15.164 25S18 25.91 18 27.5 16.399 29 16.399 29H13c0 1.802 1 2 1 2h3s.5-.089.5.493c0 .581-.5.504-.5.504h-3c-1.833 0-2-2.346-2-2.346M16.51 28H13c-.037-2.027 1.496-2.01 2.396-1.998l.176.001c.857 0 1.428.425 1.428 1.211s-.49.786-.49.786" clip-rule="evenodd"/><path fill="url(#c)" fill-rule="evenodd" d="M51 27.349v2.46C50.942 31.05 49.765 32 47.836 32S45 31.09 45 29.5s1.601-1.5 1.601-1.5H50c0-1.802-1-2-1-2h-3s-.5.089-.5-.493c0-.581.5-.504.5-.504h3c1.833 0 2 2.346 2 2.346M46.49 29H50c.038 2.027-1.496 2.01-2.396 1.998l-.176-.001c-.857 0-1.428-.425-1.428-1.211s.49-.786.49-.786" clip-rule="evenodd"/><path fill="url(#d)" fill-rule="evenodd" d="M22.5 25a3.5 3.5 0 0 1 1.403 6.708l1.097.426c-.087.825-.591.866-.591.866l-2.987-1.166-.039-.018A3.53 3.53 0 0 1 19 28.48 3.483 3.483 0 0 1 22.5 25m0 1a2.5 2.5 0 0 1 0 5 2.5 2.5 0 0 1-2.5-2.5c0-1.4 1.12-2.5 2.5-2.5" clip-rule="evenodd"/><path fill="url(#e)" fill-rule="evenodd" d="M40.972 28.5c0-1.929-1.552-3.5-3.476-3.5A3.487 3.487 0 0 0 34 28.48c0 1.93 1.571 3.52 3.496 3.52 1.924 0 3.476-1.571 3.476-3.5m-.972 0c0-1.38-1.12-2.5-2.5-2.5S35 27.1 35 28.5a2.5 2.5 0 0 0 5 0" clip-rule="evenodd"/><path fill="url(#f)" fill-rule="evenodd" d="M42.5 25c.28 0 .5.28.5.633v5.734c0 .354-.22.633-.5.633s-.5-.28-.5-.633v-5.734c0-.335.22-.633.5-.633" clip-rule="evenodd"/><path fill="url(#g)" fill-rule="evenodd" d="M27.5 25c.318 0 .5.19.5.54v3.51c0 1.04.994 1.95 2 1.95 1.025 0 2-.91 2-1.95v-3.51c0-.35.181-.54.5-.54.304 0 .5.25.5.54v3.413C33 30.631 31.652 32 30 32s-3-1.37-3-3.047V25.54c.019-.29.196-.54.5-.54" clip-rule="evenodd"/><defs><linearGradient id="a" x1="8" x2="8" y1="24.999" y2="31.999" gradientUnits="userSpaceOnUse"><stop stop-color="#181B1E"/><stop offset="1" stop-color="#181B1E"/></linearGradient><linearGradient id="b" x1="15" x2="15" y1="25" y2="32" gradientUnits="userSpaceOnUse"><stop stop-color="#181B1E"/><stop offset="1" stop-color="#181B1E"/></linearGradient><linearGradient id="c" x1="48" x2="48" y1="32" y2="25" gradientUnits="userSpaceOnUse"><stop stop-color="#181B1E"/><stop offset="1" stop-color="#181B1E"/></linearGradient><linearGradient id="d" x1="22.5" x2="22.5" y1="25" y2="33" gradientUnits="userSpaceOnUse"><stop stop-color="#181B1E"/><stop offset="1" stop-color="#181B1E"/></linearGradient><linearGradient id="e" x1="37.486" x2="37.486" y1="25" y2="32" gradientUnits="userSpaceOnUse"><stop stop-color="#181B1E"/><stop offset="1" stop-color="#181B1E"/></linearGradient><linearGradient id="f" x1="42.5" x2="42.5" y1="25" y2="32" gradientUnits="userSpaceOnUse"><stop stop-color="#181B1E"/><stop offset="1" stop-color="#181B1E"/></linearGradient><linearGradient id="g" x1="30" x2="30" y1="25" y2="32" gradientUnits="userSpaceOnUse"><stop stop-color="#181B1E"/><stop offset="1" stop-color="#181B1E"/></linearGradient></defs></svg>