<svg xmlns="http://www.w3.org/2000/svg" width="56" height="56"><path fill="url(#a)" d="M0 0h56v56H0z"/><path fill="#fff" d="M18 21v15h-3V21h-1.78c-2.12 0-3.28 2.25-3.68 3.13L7 22.85c1.14-3.81 4.22-4.82 5.62-4.85H24v3zm18 8h-3V18h-3L20 32h10v4h3v-4h3zm-6-5.22V29h-3.92zM46 18h-.94c-2.52.08-7.9 1.88-8.06 8.47v8.43c-.04.87-.27 3.12-2 4.18L36.34 42c1.39-.59 3.66-3.16 3.66-7.53V29h6v-3h-6c.01-1.37 1.66-4.88 6-5z"/><defs><linearGradient id="a" x1="10.42" x2="68.15" y1="9.71" y2="76.02" gradientUnits="userSpaceOnUse"><stop stop-color="#1A1E21"/><stop offset="1" stop-color="#06060A"/></linearGradient></defs></svg>