<svg xmlns="http://www.w3.org/2000/svg" width="56" height="56"><path fill="#005087" d="M0 0h56v56H0z"/><path fill="#fff" d="M12.92 28.25c.11-.37.26-.92.55-1.26H10.7c-.02-.8-1.13-.78-1.35-.78-.33 0-1.14.17-1.17.54-.05.46.78.7 1.25.67 1.03-.04 2.66.16 3.5.83zm5.74.75h2.96l.24-1h-3a1.25 1.25 0 0 0-1.18-1 1.89 1.89 0 0 0-1.92 1.57c-.17.83.25 1.4 1.28 1.43.56 0 1.43-.6 1.62-1m3.45-2.3.33-1.7h2.77l-.51 2.61h2.48l.5-2.61h2.81l-.7 3.49c-.51 3.3 7.14 3.4 7.68.1l.68-3.59h2.88l-.92 5h3.22l4.32-3h-3.81l.4-2H52l-.37 1.99-4.3 3.01h3.75l-.41 2H26.38l.4-2.45h-2.45L23.89 32h-2.81l.24-1.36A6.44 6.44 0 0 1 17 31.99c-2.05-.1-3.03-.94-3.68-1.75-.1.1-.68.6-1.02.8a7.5 7.5 0 0 1-3.7.96 6.1 6.1 0 0 1-3.38-.81c-.77-.43-1.25-1.18-1.2-1.63h3.6c-.1.57.64.73 1.22.78.37.03 1.2-.1 1.28-.48.13-.65-1.17-.71-1.51-.72A9.1 9.1 0 0 1 6 28.6c-.64-.22-1.32-.56-1.23-1.51.08-.82 1.65-1.57 2.33-1.76A8.9 8.9 0 0 1 9.57 25c1.33.01 2.12.32 2.67.55.45.2 1.3.78 1.52 1.17A6.2 6.2 0 0 1 18.02 25c1.9-.05 3.42.72 4.1 1.7zM33 25l-.54 2.95c-.28 1.39 2.4 1.39 2.67 0l.53-2.95z"/></svg>