<svg xmlns="http://www.w3.org/2000/svg" width="56" height="56"><path fill="url(#a)" d="M0 0h56v56H0z"/><path fill="#fff" d="M36.98 40.4a.8.8 0 0 0-.8.8c0 .45.35.8.8.8a.8.8 0 0 0 .8-.8.8.8 0 0 0-.8-.8m-1.62 0a.8.8 0 0 0-.8.8.8.8 0 1 0 1.61 0 .8.8 0 0 0-.8-.8Zm4.84 0a.8.8 0 0 0-.8.8c0 .45.35.8.8.8a.8.8 0 0 0 .8-.8.8.8 0 0 0-.8-.8m-1.61 0a.8.8 0 0 0-.8.8c0 .45.35.8.8.8a.8.8 0 0 0 .8-.8.8.8 0 0 0-.8-.8"/><path fill="#fff" d="M36.98 38.78a.8.8 0 0 0-.8.8.8.8 0 1 0 1.61 0 .8.8 0 0 0-.81-.8m-1.62 0a.8.8 0 0 0-.8.8.8.8 0 1 0 1.61 0 .8.8 0 0 0-.8-.8Zm4.84 0a.8.8 0 0 0-.8.8.8.8 0 1 0 1.61 0 .8.8 0 0 0-.81-.8"/><path fill="#fff" d="M38.59 38.78a.8.8 0 0 0-.8.8.8.8 0 1 0 1.61 0 .8.8 0 0 0-.81-.8m-1.61-1.61a.8.8 0 0 0-.8.8.8.8 0 1 0 1.61 0 .8.8 0 0 0-.81-.8m-1.62 0a.8.8 0 0 0-.8.8.8.8 0 1 0 1.61 0 .8.8 0 0 0-.8-.8Zm4.84 0a.8.8 0 0 0-.8.8.8.8 0 1 0 1.61 0 .8.8 0 0 0-.81-.8"/><path fill="#fff" d="M38.59 37.17a.8.8 0 0 0-.8.8.8.8 0 1 0 1.61 0 .8.8 0 0 0-.81-.8m-1.61-1.61a.8.8 0 0 0-.8.8c0 .45.35.8.8.8a.8.8 0 0 0 .8-.8.8.8 0 0 0-.8-.8m-1.62 0a.8.8 0 0 0-.8.8.8.8 0 1 0 1.61 0 .8.8 0 0 0-.8-.8Zm4.84 0a.8.8 0 0 0-.8.8c0 .45.35.8.8.8a.8.8 0 0 0 .8-.8.8.8 0 0 0-.8-.8m-1.61 0a.8.8 0 0 0-.8.8c0 .45.35.8.8.8a.8.8 0 0 0 .8-.8.8.8 0 0 0-.8-.8m-1.61-1.61a.8.8 0 0 0-.8.8c0 .45.35.8.8.8a.8.8 0 0 0 .8-.8.8.8 0 0 0-.8-.8"/><path fill="#fff" d="M35.36 33.95a.8.8 0 0 0-.8.8.8.8 0 1 0 1.61 0 .8.8 0 0 0-.8-.8Zm4.84 0a.8.8 0 0 0-.8.8c0 .45.35.8.8.8a.8.8 0 0 0 .8-.8.8.8 0 0 0-.8-.8m-1.61 0a.8.8 0 0 0-.8.8c0 .45.35.8.8.8a.8.8 0 0 0 .8-.8.8.8 0 0 0-.8-.8m-1.61-1.62a.8.8 0 0 0-.8.81c0 .45.35.8.8.8a.8.8 0 0 0 .8-.8.8.8 0 0 0-.8-.8Z"/><path fill="#fff" d="M35.36 32.33a.8.8 0 0 0-.8.81.8.8 0 1 0 1.61 0 .8.8 0 0 0-.8-.8Zm4.84 0a.8.8 0 0 0-.8.81c0 .45.35.8.8.8a.8.8 0 0 0 .8-.8.8.8 0 0 0-.8-.8Zm-1.61 0a.8.8 0 0 0-.8.81c0 .45.35.8.8.8a.8.8 0 0 0 .8-.8.8.8 0 0 0-.8-.8Zm-1.61-1.61a.8.8 0 0 0-.8.8c0 .46.35.81.8.81a.8.8 0 0 0 .8-.8.8.8 0 0 0-.8-.8Z"/><path fill="#fff" d="M35.36 30.72a.8.8 0 0 0-.8.8.8.8 0 1 0 1.61 0 .8.8 0 0 0-.8-.8Zm4.84 0a.8.8 0 0 0-.8.8c0 .46.35.81.8.81a.8.8 0 0 0 .8-.8.8.8 0 0 0-.8-.8Zm-1.61 0a.8.8 0 0 0-.8.8c0 .46.35.81.8.81a.8.8 0 0 0 .8-.8.8.8 0 0 0-.8-.8Zm-1.61-1.61a.8.8 0 0 0-.8.8c0 .46.35.81.8.81a.8.8 0 0 0 .8-.8.8.8 0 0 0-.8-.8Z"/><path fill="#fff" d="M35.36 29.11a.8.8 0 0 0-.8.8.8.8 0 1 0 1.61 0 .8.8 0 0 0-.8-.8Zm4.84 0a.8.8 0 0 0-.8.8c0 .46.35.81.8.81a.8.8 0 0 0 .8-.8.8.8 0 0 0-.8-.8Zm-1.61 0a.8.8 0 0 0-.8.8c0 .46.35.81.8.81a.8.8 0 0 0 .8-.8.8.8 0 0 0-.8-.8Zm-1.61-1.61a.8.8 0 0 0-.8.8.8.8 0 1 0 1.61 0 .8.8 0 0 0-.81-.8"/><path fill="#fff" d="M35.36 27.5a.8.8 0 0 0-.8.8.8.8 0 1 0 1.61 0 .8.8 0 0 0-.8-.8Zm4.84 0a.8.8 0 0 0-.8.8.8.8 0 1 0 1.61 0 .8.8 0 0 0-.81-.8"/><path fill="#fff" d="M38.59 27.5a.8.8 0 0 0-.8.8.8.8 0 1 0 1.61 0 .8.8 0 0 0-.81-.8m-1.61-1.61a.8.8 0 0 0-.8.8.8.8 0 1 0 1.61 0 .8.8 0 0 0-.81-.8m-1.62 0a.8.8 0 0 0-.8.8.8.8 0 1 0 1.61 0 .8.8 0 0 0-.8-.8Zm4.84 0a.8.8 0 0 0-.8.8.8.8 0 1 0 1.61 0 .8.8 0 0 0-.81-.8"/><path fill="#fff" d="M38.59 25.89a.8.8 0 0 0-.8.8.8.8 0 1 0 1.61 0 .8.8 0 0 0-.81-.8m-1.61-1.61a.8.8 0 0 0-.8.8.8.8 0 1 0 1.61 0 .8.8 0 0 0-.81-.8m-1.62 0a.8.8 0 0 0-.8.8.8.8 0 1 0 1.61 0 .8.8 0 0 0-.8-.8Zm4.84 0a.8.8 0 0 0-.8.8.8.8 0 1 0 1.61 0 .8.8 0 0 0-.81-.8"/><path fill="#fff" d="M38.59 24.28a.8.8 0 0 0-.8.8.8.8 0 1 0 1.61 0 .8.8 0 0 0-.81-.8m-1.61-1.61a.8.8 0 0 0-.8.8.8.8 0 1 0 1.61 0 .8.8 0 0 0-.81-.8m-1.62 0a.8.8 0 0 0-.8.8.8.8 0 1 0 1.61 0 .8.8 0 0 0-.8-.8Zm4.84 0a.8.8 0 0 0-.8.8.8.8 0 1 0 1.61 0 .8.8 0 0 0-.81-.8"/><path fill="#fff" d="M38.59 22.67a.8.8 0 0 0-.8.8.8.8 0 1 0 1.61 0 .8.8 0 0 0-.81-.8m-1.61-1.61a.8.8 0 0 0-.8.8c0 .45.35.8.8.8a.8.8 0 0 0 .8-.8.8.8 0 0 0-.8-.8m-1.62 0a.8.8 0 0 0-.8.8.8.8 0 1 0 1.61 0 .8.8 0 0 0-.8-.8Zm4.84 0a.8.8 0 0 0-.8.8c0 .45.35.8.8.8a.8.8 0 0 0 .8-.8.8.8 0 0 0-.8-.8m-1.61 0a.8.8 0 0 0-.8.8c0 .45.35.8.8.8a.8.8 0 0 0 .8-.8.8.8 0 0 0-.8-.8m-1.61-1.62a.8.8 0 0 0-.8.81c0 .45.35.8.8.8a.8.8 0 0 0 .8-.8.8.8 0 0 0-.8-.8Z"/><path fill="#fff" d="M35.36 19.44a.8.8 0 0 0-.8.81.8.8 0 1 0 1.61 0 .8.8 0 0 0-.8-.8Zm4.84 0a.8.8 0 0 0-.8.81c0 .45.35.8.8.8a.8.8 0 0 0 .8-.8.8.8 0 0 0-.8-.8Zm-1.61 0a.8.8 0 0 0-.8.81c0 .45.35.8.8.8a.8.8 0 0 0 .8-.8.8.8 0 0 0-.8-.8Zm-1.61-1.61a.8.8 0 0 0-.8.8c0 .46.35.81.8.81a.8.8 0 0 0 .8-.8.8.8 0 0 0-.8-.8Z"/><path fill="#fff" d="M35.36 17.83a.8.8 0 0 0-.8.8.8.8 0 1 0 1.61 0 .8.8 0 0 0-.8-.8Zm4.84 0a.8.8 0 0 0-.8.8c0 .46.35.81.8.81a.8.8 0 0 0 .8-.8.8.8 0 0 0-.8-.8Zm-1.61 0a.8.8 0 0 0-.8.8c0 .46.35.81.8.81a.8.8 0 0 0 .8-.8.8.8 0 0 0-.8-.8Zm-1.61-1.61a.8.8 0 0 0-.8.8c0 .46.35.81.8.81a.8.8 0 0 0 .8-.8.8.8 0 0 0-.8-.8Z"/><path fill="#fff" d="M35.36 16.22a.8.8 0 0 0-.8.8.8.8 0 1 0 1.61 0 .8.8 0 0 0-.8-.8Zm4.84 0a.8.8 0 0 0-.8.8c0 .46.35.81.8.81a.8.8 0 0 0 .8-.8.8.8 0 0 0-.8-.8Zm-1.61 0a.8.8 0 0 0-.8.8c0 .46.35.81.8.81a.8.8 0 0 0 .8-.8.8.8 0 0 0-.8-.8Zm-1.61-1.61a.8.8 0 0 0-.8.8.8.8 0 1 0 1.61 0 .8.8 0 0 0-.81-.8"/><path fill="#fff" d="M35.36 14.61a.8.8 0 0 0-.8.8.8.8 0 1 0 1.61 0 .8.8 0 0 0-.8-.8Zm4.84 0a.8.8 0 0 0-.8.8.8.8 0 1 0 1.61 0 .8.8 0 0 0-.81-.8"/><path fill="#fff" d="M38.59 14.61a.8.8 0 0 0-.8.8.8.8 0 1 0 1.61 0 .8.8 0 0 0-.81-.8M36.98 13a.8.8 0 0 0-.8.8.8.8 0 1 0 1.61 0 .8.8 0 0 0-.81-.8m-1.62 0a.8.8 0 0 0-.8.8.8.8 0 1 0 1.61 0 .8.8 0 0 0-.8-.8Zm4.84 0a.8.8 0 0 0-.8.8.8.8 0 1 0 1.61 0 .8.8 0 0 0-.81-.8"/><path fill="#fff" d="M38.59 13a.8.8 0 0 0-.8.8.8.8 0 1 0 1.61 0 .8.8 0 0 0-.81-.8m-9.67 27.4a.8.8 0 0 0-.8.8c0 .45.35.8.8.8a.8.8 0 0 0 .8-.8.8.8 0 0 0-.8-.8m1.61-1.62a.8.8 0 0 0-.8.8.8.8 0 1 0 1.61 0 .8.8 0 0 0-.81-.8"/><path fill="#fff" d="M28.92 38.78a.8.8 0 0 0-.8.8.8.8 0 1 0 1.61 0 .8.8 0 0 0-.81-.8m1.61-1.61a.8.8 0 0 0-.8.8.8.8 0 1 0 1.61 0 .8.8 0 0 0-.81-.8"/><path fill="#fff" d="M28.92 37.17a.8.8 0 0 0-.8.8.8.8 0 1 0 1.61 0 .8.8 0 0 0-.81-.8m3.22 0a.8.8 0 0 0-.8.8.8.8 0 1 0 1.61 0 .8.8 0 0 0-.8-.8Zm-1.61-1.61a.8.8 0 0 0-.8.8c0 .45.35.8.8.8a.8.8 0 0 0 .8-.8.8.8 0 0 0-.8-.8m-1.61 0a.8.8 0 0 0-.8.8c0 .45.35.8.8.8a.8.8 0 0 0 .8-.8.8.8 0 0 0-.8-.8m4.83 0a.8.8 0 0 0-.8.8.8.8 0 1 0 1.61 0 .8.8 0 0 0-.8-.8Zm-1.61 0a.8.8 0 0 0-.8.8c0 .45.35.8.8.8a.8.8 0 0 0 .8-.8.8.8 0 0 0-.8-.8m-1.61-17.73a.8.8 0 0 0-.8.8c0 .46.35.81.8.81a.8.8 0 0 0 .8-.8.8.8 0 0 0-.8-.8Zm-1.61 0a.8.8 0 0 0-.8.8c0 .46.35.81.8.81a.8.8 0 0 0 .8-.8.8.8 0 0 0-.8-.8Zm4.83 0a.8.8 0 0 0-.8.8.8.8 0 1 0 1.61 0 .8.8 0 0 0-.8-.8Zm-1.61 0a.8.8 0 0 0-.8.8c0 .46.35.81.8.81a.8.8 0 0 0 .8-.8.8.8 0 0 0-.8-.8Zm-1.61-1.61a.8.8 0 0 0-.8.8c0 .46.35.81.8.81a.8.8 0 0 0 .8-.8.8.8 0 0 0-.8-.8Zm-1.61 0a.8.8 0 0 0-.8.8c0 .46.35.81.8.81a.8.8 0 0 0 .8-.8.8.8 0 0 0-.8-.8Z"/><path fill="#fff" d="M33.75 16.22a.8.8 0 0 0-.8.8.8.8 0 1 0 1.61 0 .8.8 0 0 0-.8-.8Zm-1.61 0a.8.8 0 0 0-.8.8c0 .46.35.81.8.81a.8.8 0 0 0 .8-.8.8.8 0 0 0-.8-.8Zm-1.61-1.61a.8.8 0 0 0-.8.8.8.8 0 1 0 1.61 0 .8.8 0 0 0-.81-.8"/><path fill="#fff" d="M28.92 14.61a.8.8 0 0 0-.8.8.8.8 0 1 0 1.61 0 .8.8 0 0 0-.81-.8m4.83 0a.8.8 0 0 0-.8.8.8.8 0 1 0 1.61 0 .8.8 0 0 0-.8-.8Z"/><path fill="#fff" d="M32.14 14.61a.8.8 0 0 0-.8.8.8.8 0 1 0 1.61 0 .8.8 0 0 0-.8-.8ZM30.53 13a.8.8 0 0 0-.8.8.8.8 0 1 0 1.61 0 .8.8 0 0 0-.81-.8"/><path fill="#fff" d="M28.92 13a.8.8 0 0 0-.8.8.8.8 0 1 0 1.61 0 .8.8 0 0 0-.81-.8m4.83 0a.8.8 0 0 0-.8.8.8.8 0 1 0 1.61 0 .8.8 0 0 0-.8-.8Z"/><path fill="#fff" d="M32.14 13a.8.8 0 0 0-.8.8.8.8 0 1 0 1.61 0 .8.8 0 0 0-.8-.8Zm-8.05 27.4a.8.8 0 0 0-.81.8.8.8 0 1 0 1.61 0 .8.8 0 0 0-.8-.8"/><path fill="#fff" d="M22.47 40.4a.8.8 0 0 0-.8.8.8.8 0 1 0 1.61 0 .8.8 0 0 0-.8-.8Zm4.83 0a.8.8 0 0 0-.8.8.8.8 0 1 0 1.61 0 .8.8 0 0 0-.8-.8Z"/><path fill="#fff" d="M25.7 40.4a.8.8 0 0 0-.8.8c0 .45.35.8.8.8a.8.8 0 0 0 .8-.8.8.8 0 0 0-.8-.8m-1.61-1.62a.8.8 0 0 0-.81.8.8.8 0 1 0 1.61 0 .8.8 0 0 0-.8-.8"/><path fill="#fff" d="M22.47 38.78a.8.8 0 0 0-.8.8.8.8 0 1 0 1.61 0 .8.8 0 0 0-.8-.8Zm4.83 0a.8.8 0 0 0-.8.8.8.8 0 1 0 1.61 0 .8.8 0 0 0-.8-.8Z"/><path fill="#fff" d="M25.7 38.78a.8.8 0 0 0-.8.8.8.8 0 1 0 1.61 0 .8.8 0 0 0-.81-.8m-1.61-1.61a.8.8 0 0 0-.81.8.8.8 0 1 0 1.61 0 .8.8 0 0 0-.8-.8"/><path fill="#fff" d="M22.47 37.17a.8.8 0 0 0-.8.8.8.8 0 1 0 1.61 0 .8.8 0 0 0-.8-.8Zm4.83 0a.8.8 0 0 0-.8.8.8.8 0 1 0 1.61 0 .8.8 0 0 0-.8-.8Z"/><path fill="#fff" d="M25.7 37.17a.8.8 0 0 0-.8.8.8.8 0 1 0 1.61 0 .8.8 0 0 0-.81-.8m-1.61-1.61a.8.8 0 0 0-.81.8.8.8 0 1 0 1.61 0 .8.8 0 0 0-.8-.8"/><path fill="#fff" d="M22.47 35.56a.8.8 0 0 0-.8.8.8.8 0 1 0 1.61 0 .8.8 0 0 0-.8-.8Zm4.83 0a.8.8 0 0 0-.8.8.8.8 0 1 0 1.61 0 .8.8 0 0 0-.8-.8Z"/><path fill="#fff" d="M25.7 35.56a.8.8 0 0 0-.8.8c0 .45.35.8.8.8a.8.8 0 0 0 .8-.8.8.8 0 0 0-.8-.8m-1.61-17.73a.8.8 0 0 0-.81.8.8.8 0 1 0 1.61 0 .8.8 0 0 0-.8-.8"/><path fill="#fff" d="M22.47 17.83a.8.8 0 0 0-.8.8.8.8 0 1 0 1.61 0 .8.8 0 0 0-.8-.8Zm4.83 0a.8.8 0 0 0-.8.8.8.8 0 1 0 1.61 0 .8.8 0 0 0-.8-.8Z"/><path fill="#fff" d="M25.7 17.83a.8.8 0 0 0-.8.8c0 .46.35.81.8.81a.8.8 0 0 0 .8-.8.8.8 0 0 0-.8-.8Zm-1.61-1.61a.8.8 0 0 0-.81.8.8.8 0 1 0 1.61 0 .8.8 0 0 0-.8-.8"/><path fill="#fff" d="M22.47 16.22a.8.8 0 0 0-.8.8.8.8 0 1 0 1.61 0 .8.8 0 0 0-.8-.8Zm4.83 0a.8.8 0 0 0-.8.8.8.8 0 1 0 1.61 0 .8.8 0 0 0-.8-.8Z"/><path fill="#fff" d="M25.7 16.22a.8.8 0 0 0-.8.8c0 .46.35.81.8.81a.8.8 0 0 0 .8-.8.8.8 0 0 0-.8-.8Zm-1.61-1.61a.8.8 0 0 0-.81.8.8.8 0 1 0 1.61 0 .8.8 0 0 0-.8-.8"/><path fill="#fff" d="M22.47 14.61a.8.8 0 0 0-.8.8.8.8 0 1 0 1.61 0 .8.8 0 0 0-.8-.8Zm4.83 0a.8.8 0 0 0-.8.8.8.8 0 1 0 1.61 0 .8.8 0 0 0-.8-.8Z"/><path fill="#fff" d="M25.7 14.61a.8.8 0 0 0-.8.8.8.8 0 1 0 1.61 0 .8.8 0 0 0-.81-.8M24.09 13a.8.8 0 0 0-.81.8.8.8 0 1 0 1.61 0 .8.8 0 0 0-.8-.8"/><path fill="#fff" d="M22.47 13a.8.8 0 0 0-.8.8.8.8 0 1 0 1.61 0 .8.8 0 0 0-.8-.8Zm4.83 0a.8.8 0 0 0-.8.8.8.8 0 1 0 1.61 0 .8.8 0 0 0-.8-.8Z"/><path fill="#fff" d="M25.7 13a.8.8 0 0 0-.8.8.8.8 0 1 0 1.61 0 .8.8 0 0 0-.81-.8m-8.06 27.4a.8.8 0 0 0-.8.8c0 .45.35.8.8.8a.8.8 0 0 0 .8-.8.8.8 0 0 0-.8-.8m3.22 0a.8.8 0 0 0-.8.8.8.8 0 1 0 1.61 0 .8.8 0 0 0-.8-.8Zm-1.61 0a.8.8 0 0 0-.8.8c0 .45.35.8.8.8a.8.8 0 0 0 .8-.8.8.8 0 0 0-.8-.8"/><path fill="#fff" d="M17.64 38.78a.8.8 0 0 0-.8.8.8.8 0 1 0 1.61 0 .8.8 0 0 0-.81-.8"/><path fill="#fff" d="M16.03 38.78a.8.8 0 0 0-.8.8.8.8 0 1 0 1.61 0 .8.8 0 0 0-.81-.8m4.83 0a.8.8 0 0 0-.8.8.8.8 0 1 0 1.61 0 .8.8 0 0 0-.8-.8Z"/><path fill="#fff" d="M19.25 38.78a.8.8 0 0 0-.8.8.8.8 0 1 0 1.61 0 .8.8 0 0 0-.81-.8m-1.61-1.61a.8.8 0 0 0-.8.8.8.8 0 1 0 1.61 0 .8.8 0 0 0-.81-.8"/><path fill="#fff" d="M16.03 37.17a.8.8 0 0 0-.8.8.8.8 0 1 0 1.61 0 .8.8 0 0 0-.81-.8m4.83 0a.8.8 0 0 0-.8.8.8.8 0 1 0 1.61 0 .8.8 0 0 0-.8-.8Z"/><path fill="#fff" d="M19.25 37.17a.8.8 0 0 0-.8.8.8.8 0 1 0 1.61 0 .8.8 0 0 0-.81-.8m-1.61-1.61a.8.8 0 0 0-.8.8c0 .45.35.8.8.8a.8.8 0 0 0 .8-.8.8.8 0 0 0-.8-.8m-1.61 0a.8.8 0 0 0-.8.8c0 .45.35.8.8.8a.8.8 0 0 0 .8-.8.8.8 0 0 0-.8-.8m4.83 0a.8.8 0 0 0-.8.8.8.8 0 1 0 1.61 0 .8.8 0 0 0-.8-.8Zm-1.61 0a.8.8 0 0 0-.8.8c0 .45.35.8.8.8a.8.8 0 0 0 .8-.8.8.8 0 0 0-.8-.8m-1.61-1.61a.8.8 0 0 0-.8.8c0 .45.35.8.8.8a.8.8 0 0 0 .8-.8.8.8 0 0 0-.8-.8m-1.61 0a.8.8 0 0 0-.8.8c0 .45.35.8.8.8a.8.8 0 0 0 .8-.8.8.8 0 0 0-.8-.8m1.61-1.62a.8.8 0 0 0-.8.81c0 .45.35.8.8.8a.8.8 0 0 0 .8-.8.8.8 0 0 0-.8-.8Zm-1.61 0a.8.8 0 0 0-.8.81c0 .45.35.8.8.8a.8.8 0 0 0 .8-.8.8.8 0 0 0-.8-.8Z"/><path fill="#fff" d="M17.64 30.72a.8.8 0 0 0-.8.8c0 .46.35.81.8.81a.8.8 0 0 0 .8-.8.8.8 0 0 0-.8-.8Zm-1.61 0a.8.8 0 0 0-.8.8c0 .46.35.81.8.81a.8.8 0 0 0 .8-.8.8.8 0 0 0-.8-.8Zm1.61-1.61a.8.8 0 0 0-.8.8c0 .46.35.81.8.81a.8.8 0 0 0 .8-.8.8.8 0 0 0-.8-.8Zm-1.61 0a.8.8 0 0 0-.8.8c0 .46.35.81.8.81a.8.8 0 0 0 .8-.8.8.8 0 0 0-.8-.8Z"/><path fill="#fff" d="M17.64 27.5a.8.8 0 0 0-.8.8.8.8 0 1 0 1.61 0 .8.8 0 0 0-.81-.8"/><path fill="#fff" d="M16.03 27.5a.8.8 0 0 0-.8.8.8.8 0 1 0 1.61 0 .8.8 0 0 0-.81-.8m1.61-1.61a.8.8 0 0 0-.8.8.8.8 0 1 0 1.61 0 .8.8 0 0 0-.81-.8"/><path fill="#fff" d="M16.03 25.89a.8.8 0 0 0-.8.8.8.8 0 1 0 1.61 0 .8.8 0 0 0-.81-.8m1.61-1.61a.8.8 0 0 0-.8.8.8.8 0 1 0 1.61 0 .8.8 0 0 0-.81-.8"/><path fill="#fff" d="M16.03 24.28a.8.8 0 0 0-.8.8.8.8 0 1 0 1.61 0 .8.8 0 0 0-.81-.8m1.61-1.61a.8.8 0 0 0-.8.8.8.8 0 1 0 1.61 0 .8.8 0 0 0-.81-.8"/><path fill="#fff" d="M16.03 22.67a.8.8 0 0 0-.8.8.8.8 0 1 0 1.61 0 .8.8 0 0 0-.81-.8m1.61-1.61a.8.8 0 0 0-.8.8c0 .45.35.8.8.8a.8.8 0 0 0 .8-.8.8.8 0 0 0-.8-.8m-1.61 0a.8.8 0 0 0-.8.8c0 .45.35.8.8.8a.8.8 0 0 0 .8-.8.8.8 0 0 0-.8-.8m1.61-1.62a.8.8 0 0 0-.8.81c0 .45.35.8.8.8a.8.8 0 0 0 .8-.8.8.8 0 0 0-.8-.8Zm-1.61 0a.8.8 0 0 0-.8.81c0 .45.35.8.8.8a.8.8 0 0 0 .8-.8.8.8 0 0 0-.8-.8Z"/><path fill="#fff" d="M17.64 17.83a.8.8 0 0 0-.8.8c0 .46.35.81.8.81a.8.8 0 0 0 .8-.8.8.8 0 0 0-.8-.8Zm3.22 0a.8.8 0 0 0-.8.8.8.8 0 1 0 1.61 0 .8.8 0 0 0-.8-.8Zm-1.61 0a.8.8 0 0 0-.8.8c0 .46.35.81.8.81a.8.8 0 0 0 .8-.8.8.8 0 0 0-.8-.8Z"/><path fill="#fff" d="M20.86 16.22a.8.8 0 0 0-.8.8.8.8 0 1 0 1.61 0 .8.8 0 0 0-.8-.8Zm-1.61 0a.8.8 0 0 0-.8.8c0 .46.35.81.8.81a.8.8 0 0 0 .8-.8.8.8 0 0 0-.8-.8Z"/><path fill="#fff" d="M20.86 14.61a.8.8 0 0 0-.8.8.8.8 0 1 0 1.61 0 .8.8 0 0 0-.8-.8Zm-6.44 22.56a.8.8 0 0 0-.8.8.8.8 0 1 0 1.61 0 .8.8 0 0 0-.81-.8m0-1.61a.8.8 0 0 0-.8.8c0 .45.35.8.8.8a.8.8 0 0 0 .8-.8.8.8 0 0 0-.8-.8m-1.62 0a.8.8 0 0 0-.8.8.8.8 0 1 0 1.61 0 .8.8 0 0 0-.8-.8Zm1.62-1.61a.8.8 0 0 0-.8.8c0 .45.35.8.8.8a.8.8 0 0 0 .8-.8.8.8 0 0 0-.8-.8"/><path fill="#fff" d="M12.8 33.95a.8.8 0 0 0-.8.8.8.8 0 1 0 1.61 0 .8.8 0 0 0-.8-.8Zm1.62-1.62a.8.8 0 0 0-.8.81c0 .45.35.8.8.8a.8.8 0 0 0 .8-.8.8.8 0 0 0-.8-.8Z"/><path fill="#fff" d="M12.8 32.33a.8.8 0 0 0-.8.81.8.8 0 1 0 1.61 0 .8.8 0 0 0-.8-.8Zm1.62-1.61a.8.8 0 0 0-.8.8c0 .46.35.81.8.81a.8.8 0 0 0 .8-.8.8.8 0 0 0-.8-.8Z"/><path fill="#fff" d="M12.8 30.72a.8.8 0 0 0-.8.8.8.8 0 1 0 1.61 0 .8.8 0 0 0-.8-.8Zm1.62-1.61a.8.8 0 0 0-.8.8c0 .46.35.81.8.81a.8.8 0 0 0 .8-.8.8.8 0 0 0-.8-.8Z"/><path fill="#fff" d="M12.8 29.11a.8.8 0 0 0-.8.8.8.8 0 1 0 1.61 0 .8.8 0 0 0-.8-.8Zm1.62-1.61a.8.8 0 0 0-.8.8.8.8 0 1 0 1.61 0 .8.8 0 0 0-.81-.8"/><path fill="#fff" d="M12.8 27.5a.8.8 0 0 0-.8.8.8.8 0 1 0 1.61 0 .8.8 0 0 0-.8-.8Zm1.62-1.61a.8.8 0 0 0-.8.8.8.8 0 1 0 1.61 0 .8.8 0 0 0-.81-.8"/><path fill="#fff" d="M12.8 25.89a.8.8 0 0 0-.8.8.8.8 0 1 0 1.61 0 .8.8 0 0 0-.8-.8Zm1.62-1.61a.8.8 0 0 0-.8.8.8.8 0 1 0 1.61 0 .8.8 0 0 0-.81-.8"/><path fill="#fff" d="M12.8 24.28a.8.8 0 0 0-.8.8.8.8 0 1 0 1.61 0 .8.8 0 0 0-.8-.8Zm1.62-1.61a.8.8 0 0 0-.8.8.8.8 0 1 0 1.61 0 .8.8 0 0 0-.81-.8"/><path fill="#fff" d="M12.8 22.67a.8.8 0 0 0-.8.8.8.8 0 1 0 1.61 0 .8.8 0 0 0-.8-.8Zm1.62-1.61a.8.8 0 0 0-.8.8c0 .45.35.8.8.8a.8.8 0 0 0 .8-.8.8.8 0 0 0-.8-.8"/><defs><linearGradient id="a" x1="10.42" x2="68.15" y1="9.71" y2="76.02" gradientUnits="userSpaceOnUse"><stop stop-color="#1A1E21"/><stop offset="1" stop-color="#06060A"/></linearGradient></defs></svg>