<svg xmlns="http://www.w3.org/2000/svg" width="56" height="56" fill="none"><path fill="url(#a)" d="M0 0h56v56H0z"/><path fill="#F4BF01" fill-rule="evenodd" d="M13 39c.402 0 6.297 3.998 15 4 4.399.001 9.544-.469 15-4-.202.313-4.597 7-15 7-6.371 0-11.129-2.542-15-7m15-15h3v14h-3zm0-4h3v2h-3zm6.001 2v13.177S33.878 38 36.251 38H40v-2h-1.796S37 35.915 37 34.572V26h2v-2h-2l-.75-2zM17 38h3V27h5v-2h-5s0-3.452 3.75-3.452c.674 0 1.259.068 2.25.452v-2.55c0-.115-1.35-.45-3.37-.45-2.48 0-5.63 1.798-5.63 5z" clip-rule="evenodd"/><path fill="#F0F3FA" fill-rule="evenodd" d="M22 12v5h1v-3.31s.707-.67 1.229-.67c.534 0 .771.642.771.642V17h1v-3.324S26.614 13 27.162 13s.838.55.838.55V17h1v-3.338S29.077 12 27.46 12c-1.134 0-1.616.698-1.616.698S25.598 12 24.594 12 23 12.587 23 12.587L22.817 12zm-1.238 1.285v-.945s-.503-.34-1.84-.34-1.893.72-1.92 1.359c-.026.638.133 1.641 1.1 1.641h1.323s.344.057.344.492-.45.508-.45.508-1.125.136-2.078-.272v.96s1.02.312 1.72.312c.702 0 2.039-.122 2.039-1.535S19.954 14 19.266 14 18 13.943 18 13.522 18.604 13 19.107 13s.82.054 1.655.285m9.634-1.02-.033.986S30.536 13 31.725 13s1.275.606 1.275.606v.548S32.836 14 31.845 14c-.99 0-1.845.263-1.845 1.45S30.878 17 31.757 17c.88 0 1.203-.377 1.203-.377l.57.377H34v-3.743c0-.698-.855-1.257-1.969-1.257s-1.635.265-1.635.265M33 15.575v-.6c-1.622-.335-1.799.195-1.824.405-.012.21 0 .614.644.614.657 0 1.18-.419 1.18-.419M35 12h.725l.143.607S36.242 12 37 12v1s-.66.045-1 .596V17h-1zm3 0h.687L39 13h1v1h-1v1.517s.145.483.494.483H40v1h-1.096s-.904.036-.904-.918z" clip-rule="evenodd"/><defs><linearGradient id="a" x1="28" x2="28" y1="0" y2="56" gradientUnits="userSpaceOnUse"><stop stop-color="#181B1E"/><stop offset="1" stop-color="#181B1E"/></linearGradient></defs></svg>