<svg xmlns="http://www.w3.org/2000/svg" width="56" height="56"><path fill="#014E86" d="M0 0h56v56H0z"/><path fill="#fff" d="M28 33.21 26.84 37c-.33-.65-2-6.1-2.96-10.2-.77-3.27-1.57-5.11-1.88-5.63.21-.72.7-2.17.92-2.17.84 0 2.41 4.9 3.01 6.87.48 1.56 1.58 5.55 2.07 7.34M17.09 39H15c.98-4.37 3.09-13.78 3.63-16.44.55-2.66 2.48-3.48 3.37-3.56-.74.57-1.2 2.3-1.34 3.09zm-3.06 0H12c.96-4.4 2.72-12.43 3.25-15.11A4.92 4.92 0 0 1 19 20c-.72.57-1.65 2.61-1.79 3.4z"/><path fill="#fff" d="M33.3 14H38c-.2 1.04-1.06 5.35-2.93 14.32C32.74 39.52 28.91 42 27.35 42A3.1 3.1 0 0 1 25 40.97c3.5.67 6.99-17.7 8.3-26.97"/><path fill="#fff" d="M40.33 14H45c-.2 1.04-.94 5.28-3.27 14.14C38.23 41.42 33.88 43 32.33 43A3.08 3.08 0 0 1 30 41.97c4.85 0 8.6-18.92 10.33-27.97M23.18 31.45c-.45-1.85-1.75-5.74-2.3-7.45L20 28.45c.3.89 1.14 3.48 2.17 6.72C23.45 39.2 24.23 40 24.55 40c.65 0 1.24-1.07 1.45-1.6-.63-.38-2.26-4.64-2.82-6.95"/></svg>