<svg xmlns="http://www.w3.org/2000/svg" width="56" height="56"><path fill="url(#a)" d="M0 0h56v56H0z"/><path fill="#fff" d="M20.503 32c-1.698 0-3.274-.494-4.326-1.41A3.4 3.4 0 0 1 15 27.994c0-.955.398-1.901 1.177-2.59.977-.862 2.702-1.403 4.326-1.403 1.798 0 3.236.439 4.336 1.406A3.4 3.4 0 0 1 26 27.993a3.55 3.55 0 0 1-1.16 2.598C23.814 31.512 22.205 32 20.502 32v-1.055c.902 0 1.738-.302 2.322-.865.58-.56.85-1.247.85-2.087 0-.805-.292-1.558-.85-2.091-.576-.55-1.433-.86-2.322-.86-.892 0-1.748.306-2.325.86-.555.533-.847 1.288-.847 2.09s.295 1.556.847 2.088c.577.557 1.43.865 2.325.865V32zM6.395 24.55c.831-.384 1.81-.55 2.67-.55 1.52.002 2.758.514 3.197.752.174.099.267-.021.267-.113v-.286h.98v2.46h-.878a1.72 1.72 0 0 0-.543-.938 2.5 2.5 0 0 0-.551-.34c-.523-.24-1.345-.47-2.316-.466-.82 0-1.608.157-1.998.41q-.37.238-.37.586c0 .326.272.46.405.502.44.14 1.54.235 2.175.303.606.066 1.871.24 2.431.383.288.073.64.203.864.311.257.125.502.286.704.494.148.153.568.655.568 1.463 0 .843-.483 1.307-.703 1.488-.407.335-.907.55-1.312.67-.43.126-1.052.321-2.21.321-.71 0-1.078-.088-1.649-.212a8.4 8.4 0 0 1-1.588-.53c-.183-.085-.235.094-.235.137v.382H5.217v-2.826h.977c0 .335.154.674.252.797.394.497.817.693 1.22.84.348.13 1.306.377 2.103.377 1.08 0 1.68-.285 1.767-.32s.588-.204.588-.752c0-.55-.475-.652-.758-.726-.356-.093-1.23-.185-2.118-.282a23 23 0 0 1-2.214-.337c-.94-.212-1.3-.574-1.523-.786.014.014-.511-.486-.511-1.34 0-.947.628-1.519 1.395-1.872m38.391 6.434a2 2 0 0 1-.25.017h-.96V32h4.929v-1H47.5c-.04 0-.213-.005-.248-.017-.097-.033-.197-.11-.227-.192-.02-.051-.02-.184-.02-.216v-1.57c0-.038-.003-.102.033-.148.07-.087 2.731-3.336 2.844-3.478.248-.312.382-.38.71-.38h.908V24h-4.06v1h.612c.173 0 .228.202.148.309-.014.017-1.702 2.224-1.722 2.246-.022.022-.035.016-.05-.007-.016-.024-1.683-2.242-1.683-2.242-.118-.162-.026-.308.112-.308h.597V24H40.5v1h.878c.383 0 .635.269.778.443.116.14 2.72 3.322 2.784 3.414.058.085.06.101.06.14v1.578c0 .033-.007.183-.02.217a.32.32 0 0 1-.194.192M36 29l-5.22-5H26.5v1h.842c.609 0 .658.379.658.68v4.68c0 .28.015.641-.372.641H26.59v1.021L31.52 32v-1h-1.085c-.432 0-.43-.205-.435-.64V26.5l6.065 5.5H38v-6.422c.006-.466.066-.578.53-.578h.97v-1h-5.02v1h.994c.456 0 .533.182.539.62z"/><defs><linearGradient id="a" x1="10.418" x2="68.147" y1="9.712" y2="76.017" gradientUnits="userSpaceOnUse"><stop stop-color="#1A1E21"/><stop offset="1" stop-color="#06060A"/></linearGradient></defs></svg>