<svg xmlns="http://www.w3.org/2000/svg" width="56" height="56"><path fill="#F0F3FA" d="M0 0h56v56H0z"/><path d="M33 29.5c0-.32-.28-.3-.77-.5-1.37-.59-3.97-.53-3.97-2.62 0-1.68 1.86-2.38 3.28-2.38 1.5 0 3.44.68 3.44 2.47h-2.19c0-.71-.6-1.05-1.26-1.05-.51 0-1.18.25-1.18.86 0 .71 1.03.86 1.54.96 1.34.25 3.11.76 3.11 2.4C35 31.4 32.97 32 31.55 32c-1.52 0-3.55-.78-3.55-2.59h2.07c.03.83.78 1.16 1.52 1.16.53 0 1.41-.07 1.41-1.07m-24 0c0-.32-.28-.3-.77-.5-1.37-.59-3.97-.53-3.97-2.62C4.26 24.7 6.12 24 7.54 24c1.5 0 3.44.68 3.44 2.47H8.79c0-.71-.6-1.05-1.26-1.05-.51 0-1.18.25-1.18.86 0 .71 1.03.86 1.54.96 1.34.25 3.11.76 3.11 2.4C11 31.4 8.97 32 7.55 32 6.03 32 4 31.22 4 29.41h2.07c.03.83.78 1.16 1.52 1.16.53 0 1.41-.07 1.41-1.07M41 24h2v8h-2zm.09 4.36.63-.01c0 1.86-.92 3.65-3.03 3.65-1.77 0-2.69-1.22-2.69-2.93V24h2v5.07c0 .76.61 1.28 1.33 1.28 1.21 0 1.76-.88 1.76-1.99m-24.51 1.76v-3.44c0-.72-.44-1.2-1.17-1.2-.58 0-1.13.32-1.13.96h-2.1c0-1.7 1.91-2.44 3.35-2.44 1.65 0 3.16.9 3.16 2.7V30c0 .42.02.77.08 1.04.05.26.13.5.23.7V32h-2.12a6.4 6.4 0 0 1-.3-1.88m.28-2.96.01 1.16H15.7c-.76 0-1.6.34-1.6 1.23 0 .58.48.92 1.03.92.63 0 1.54-.41 1.56-1.16l.55.87c-.08.2-.18.4-.32.6A2.6 2.6 0 0 1 14.67 32c-1.34 0-2.67-.86-2.67-2.31 0-1.98 2-2.53 3.64-2.53zM22 32h-2v-8h2zm-.16-4.2h-.58c0-1.9 1.05-3.8 3.18-3.8 1.8 0 2.56 1.32 2.56 3v5h-2v-5.02c0-.86-.66-1.34-1.47-1.34-1.2 0-1.69 1.12-1.69 2.16m25.51 3.78L49.59 24H52l-3.4 9.84c-.07.21-.17.44-.3.7-.11.24-.28.47-.48.7-.2.22-.46.4-.78.55-.3.14-.68.21-1.13.21-.21 0-.39-.01-.52-.04l-.39-.11v-1.67h.08l.18.01c.3 0 .54-.03.73-.1s.34-.18.45-.32c.12-.13.2-.31.28-.54zM46.4 24h3.18l-1.02 8.6-1.53.17L44 24h2.41Z"/><path fill="#ED3237" d="M50 27a2 2 0 1 1-4 0 2 2 0 0 1 4 0"/></svg>