<svg xmlns="http://www.w3.org/2000/svg" width="56" height="56" fill="none"><path fill="#F0F3FA" d="M0 0h56v56H0z"/><path fill="#1E4524" fill-rule="evenodd" d="M6 21h4c-1.77.68-3.011 3.55-3 6 .007 1.5.51 2.845 1.573 3.433 0 0 .427.067 5.848 1.853.398.174.572.502.579.825.01.452-.31.893-.802.889a1 1 0 0 1-.42-.103L6 31.316zm7 0h8v3.022zm8 4.723V36h-4c1.988-.972 3.006-3.298 3-5.444-.005-1.807-.64-3.119-1.974-3.935 0 0-.501-.274-3.953-1.792-.725-.143-1.1-.721-1.073-1.19.02-.344.254-.628.724-.639.224-.005.502.052.836.195zM6 36v-3l7 3z" clip-rule="evenodd"/><path fill="#9BB43C" fill-rule="evenodd" d="M13 25a3 3 0 1 1 0 6 3 3 0 0 1 0-6m12.5.5h1.326c.549 0 .823.348.823.833 0 .552-.415.667-.92.667H25.5zM23 29h4.328C28.742 29 30 28.052 30 26.569c0-.91-.45-1.678-1.325-1.995.612-.358.94-.806.94-1.569 0-1.387-1.173-2.005-2.436-2.005H23zm2.5-6h1.09c.514 0 .802.065.802.454 0 .493-.275.546-.801.546H25.5z" clip-rule="evenodd"/><mask id="a" width="9" height="8" x="30" y="21" maskUnits="userSpaceOnUse" style="mask-type:alpha"><path fill="#fff" d="M30.86 21H39v8h-8.14z"/></mask><g mask="url(#a)"><path fill="#9BB43C" fill-rule="evenodd" d="M31 25c0 2.32 1.741 4 4 4s4-1.68 4-4-1.74-4-4-4-4 1.68-4 4m2.5 0c0-.99.38-2 1.5-2s1.5 1.01 1.5 2-.38 2-1.5 2-1.5-1.01-1.5-2" clip-rule="evenodd"/></g><path fill="#9BB43C" fill-rule="evenodd" d="M43.263 26 44 23.678 44.726 26zM40 29h2.153l.347-1h3l.325 1H48l-3-8h-2z" clip-rule="evenodd"/><path fill="#1E4524" fill-rule="evenodd" d="M23 34.5c.012 1.102.914 1.5 1.95 1.5 1.023 0 2.05-.352 2.05-1.5 0-1.67-2.468-1.185-2.534-2.123 0-.257.325-.377.534-.377.322 0 .522.181.522.5h1.292C26.782 31.444 25.979 31 25 31c-.947 0-2 .487-2 1.5 0 1.47 2.633 1.419 2.633 2.01 0 .307-.367.49-.633.49-.43 0-.634-.062-.634-.5zm7-.5.507-1.54h.013L31 34zm-2 2h1.497l.314-1h1.354l.29 1H33l-1.761-5h-1.457zm19-2 .507-1.54h.013L48 34zm-2 2h1.497l.314-1h1.354l.29 1H50l-1.761-5h-1.457zm-11 0h1.5v-2h2v-1h-2v-1H38v-1h-4zm5 0h1.5v-2h1c.588 0 .69.74.734 1.223v.007q.045.483.134.77H44a.9.9 0 0 1-.115-.354c-.035-.238-.032-.48-.063-.718-.06-.634-.334-1.087-.78-1.246.523-.18.795-.724.795-1.254 0-.95-.865-1.428-1.729-1.428H39zm1.5-4h.896c.594 0 .809.164.809.5 0 .409-.384.5-.72.5H40.5z" clip-rule="evenodd"/></svg>