<svg xmlns="http://www.w3.org/2000/svg" width="56" height="56"><path fill="url(#a)" d="M0 0h56v56H0z"/><path fill="url(#b)" d="M16 10c3.76.62 7 3.73 7 8.52v10.31c0 5.17 3.47 8.57 5.23 9.58-2.34 1.84-6.68 2.63-8.42 2.8a12.9 12.9 0 0 1-3.8-8.92H16z"/><path fill="url(#c)" d="M23 28.24c.85-.4 3.34-1.24 5.65-1.24 2.3 0 4.32.66 5.05.97.16-1.3.26-5.18-.7-8.34-1.26-.4-2.6-.63-4-.63-1.75 0-3.41.44-4.93 1.06l-.18 1c-.34 2-.89 5.14-.89 7.18"/><path fill="url(#d)" d="M19.81 41.21A12.98 12.98 0 0 0 29 45c7.18 0 13-5.8 13-12.95a13.1 13.1 0 0 0-9-12.42s2.35 9.55.2 13.96c-2.68 5.53-7.1 7.03-13.39 7.62"/><defs><linearGradient id="a" x1="56" x2="0" y1="28" y2="28" gradientUnits="userSpaceOnUse"><stop stop-color="#807AE7"/><stop offset="1" stop-color="#E1CBF1"/></linearGradient><linearGradient id="b" x1="22.12" x2="22.12" y1="10" y2="41.21" gradientUnits="userSpaceOnUse"><stop stop-color="#0304E3"/><stop offset="1" stop-color="#CEB6EC"/></linearGradient><linearGradient id="c" x1="33.8" x2="23" y1="23.62" y2="23.62" gradientUnits="userSpaceOnUse"><stop stop-color="#0304E3"/><stop offset="1" stop-color="#CEB6EC"/></linearGradient><linearGradient id="d" x1="37" x2="24.5" y1="22.5" y2="43.5" gradientUnits="userSpaceOnUse"><stop stop-color="#CEB6EC"/><stop offset="1" stop-color="#0304E3"/></linearGradient></defs></svg>