<svg xmlns="http://www.w3.org/2000/svg" width="56" height="56"><path fill="#009CDB" d="M0 0h56v56H0z"/><path fill="#fff" fill-rule="evenodd" d="m26.972 16.365.626-.23.659-.196a6.4 6.4 0 0 1 1.374-.142 6.74 6.74 0 0 1 5.864 3.396 8.4 8.4 0 0 1 3.318-.688c4.523 0 8.187 3.615 8.187 8.08 0 4.467-3.664 8.081-8.188 8.081a8.7 8.7 0 0 1-1.608-.152 6.01 6.01 0 0 1-5.227 3.003 6 6 0 0 1-2.625-.59C28.312 39.318 25.889 41 23.062 41c-2.937 0-5.45-1.813-6.41-4.368q-.637.13-1.308.131C11.837 36.763 9 33.957 9 30.495a6.25 6.25 0 0 1 3.172-5.427 7 7 0 0 1-.603-2.86c0-3.987 3.306-7.208 7.383-7.208a7.43 7.43 0 0 1 5.865 2.84 6.7 6.7 0 0 1 2.155-1.475m2.76 8.173.022-.142.044-.295.1-.262.124-.23.156-.185c.212-.219.525-.328.927-.328l.302.022.223.055c.023.01.067.032.045.076l-.168.448-.003.004c-.02.03-.033.05-.097.029l-.112-.022-.179-.022-.234.033a.4.4 0 0 0-.19.109.6.6 0 0 0-.157.23 2.5 2.5 0 0 0-.111.48h.704c.055 0 .067.021.067.065l-.079.448c-.022.065-.078.065-.078.065h-.726l-.491 2.741a3.4 3.4 0 0 1-.19.72 1.4 1.4 0 0 1-.29.481c-.112.12-.246.219-.403.273a1.6 1.6 0 0 1-.536.088c-.1 0-.201 0-.324-.033l-.2-.055c-.023-.01-.046-.043-.035-.087l.168-.437c.022-.054.078-.032.078-.032l.123.043.179.022a1 1 0 0 0 .257-.033.47.47 0 0 0 .2-.153c.057-.076.113-.174.157-.305.056-.142.1-.317.134-.535l.492-2.698h-.492c-.056 0-.067-.021-.067-.065l.078-.448c.023-.065.079-.065.079-.065h.502zm-15.225 3.107.022.019.212.112a2.8 2.8 0 0 0 1.14.224c.782 0 1.262-.346 1.262-.907v-.009c0-.514-.547-.7-1.061-.841l-.067-.019c-.391-.102-.715-.196-.715-.41v-.01c0-.187.19-.318.502-.318.335 0 .738.093.995.215 0 0 .078.037.1-.019l.157-.355c.01-.037-.012-.056-.034-.075A2.55 2.55 0 0 0 15.903 25h-.078c-.715 0-1.207.364-1.207.878v.01c0 .542.548.72 1.062.841l.078.019c.38.093.703.177.703.401v.01c0 .206-.212.355-.547.355h-.145l-.235-.028a2 2 0 0 1-.625-.215l-.134-.065c-.023-.01-.078-.028-.1.028l-.157.355zm11.404 0 .023.019.212.112c.29.13.57.187.849.215l.279.009.28-.019c.614-.075.982-.402.982-.888v-.009c0-.514-.547-.7-1.061-.841l-.067-.019c-.39-.102-.715-.196-.715-.41v-.01c0-.187.19-.318.503-.318.335 0 .737.093.994.215 0 0 .078.037.1-.019l.157-.355c.011-.037-.011-.056-.034-.075A2.55 2.55 0 0 0 27.296 25h-.078c-.715 0-1.206.364-1.206.878v.01c0 .542.547.72 1.06.841l.08.019c.379.093.703.177.703.401v.01c0 .206-.212.355-.547.355-.134 0-.548 0-1.006-.243l-.134-.065c-.011-.01-.078-.028-.1.028l-.157.355zm7.317-2.082-.168-.047-.212-.01c-.28 0-.492.085-.626.253-.134.178-.2.422-.2.741 0 .31.066.563.2.74.134.179.335.263.626.263.29 0 .502-.084.637-.262.145-.178.212-.422.212-.741s-.078-.563-.212-.74a.6.6 0 0 0-.257-.198zm-.738-.535.37-.028.379.028.324.085c.2.075.368.187.502.318a1.54 1.54 0 0 1 .391 1.069q0 .324-.1.59a1.1 1.1 0 0 1-.29.479 1.3 1.3 0 0 1-.503.319 2 2 0 0 1-.693.112c-.257 0-.491-.038-.692-.113a1.4 1.4 0 0 1-.503-.318 1.4 1.4 0 0 1-.302-.478 1.7 1.7 0 0 1-.1-.591q0-.324.1-.59c.056-.188.157-.348.29-.479a1.4 1.4 0 0 1 .503-.319zm5.987.019-.335.084c-.212.075-.38.187-.525.318-.134.13-.245.29-.313.476q-.1.267-.1.589 0 .675.436 1.084c.29.271.726.402 1.284.402.335 0 .67-.056.916-.14 0 0 .045-.019.022-.066l-.156-.373c-.022-.056-.078-.038-.078-.038l-.302.075-.357.019c-.313 0-.57-.075-.749-.234-.178-.159-.279-.402-.279-.748 0-.308.09-.542.246-.72s.402-.261.726-.261c.268 0 .47.028.693.084 0 0 .055.019.078-.037l.156-.374c.022-.038-.022-.056-.045-.066l-.19-.046-.245-.047-.492-.028zm4.625 1.05.01.253.012.272c-.011.047-.067.047-.067.047h-2.2c.01.281.089.487.256.619.157.13.403.215.749.215.463 0 .691-.073.846-.122l.024-.008.035-.01s.055-.02.078.028l.145.337c.022.056 0 .075-.022.084-.134.066-.47.188-1.106.188a2.5 2.5 0 0 1-.804-.113 1.6 1.6 0 0 1-.548-.309 1.2 1.2 0 0 1-.324-.469 1.7 1.7 0 0 1-.1-.59c0-.206.033-.413.1-.59.067-.179.168-.348.302-.479a1.45 1.45 0 0 1 .503-.328l.156-.056.179-.038.39-.028.336.028.29.075c.134.047.268.131.413.263.09.075.224.253.28.43.033.104.056.207.067.3zm-2.265.084h1.561l-.045-.234-.044-.103-.056-.094c-.134-.178-.324-.272-.615-.272-.29 0-.491.103-.625.272a1 1 0 0 0-.112.197zm-16.077-.017H23.2l.064-.237a1 1 0 0 1 .111-.198c.134-.17.336-.275.626-.275s.48.095.614.275l.056.094.045.104zM23.666 25l-.179.038q-.024.008-.05.015a.4.4 0 0 0-.106.042 1.5 1.5 0 0 0-.503.33 1.3 1.3 0 0 0-.301.483c-.068.18-.101.389-.101.597q0 .326.1.596c.068.18.18.34.325.473s.335.237.558.312q.335.114.804.114c.637 0 .972-.123 1.106-.19.022-.009.045-.028.022-.084l-.145-.341c-.022-.048-.078-.029-.078-.029l-.059.019c-.155.05-.383.123-.846.123-.346 0-.592-.085-.748-.217-.168-.133-.246-.34-.257-.625h2.2s.056 0 .067-.047l.002-.018a1.85 1.85 0 0 0-.069-.834.87.87 0 0 0-.279-.388 1.2 1.2 0 0 0-.413-.265l-.29-.076L24.09 25zm-4.178 1.585-.413-.019-.29.01a.9.9 0 0 0-.346.113.39.39 0 0 0-.201.358.4.4 0 0 0 .067.245c.022.038.033.057.122.114 0 0 .201.132.648.113.313-.019.592-.066.592-.066v-.85zm-1.06-.425.267-.047.257-.01.347.01.357.038v-.075c0-.246-.056-.369-.179-.444-.123-.085-.312-.123-.547-.123 0 0-.536-.009-.96.19l-.034.018s-.045.019-.067-.028l-.157-.359c-.022-.056.023-.075.023-.075.2-.132.681-.208.681-.208a4 4 0 0 1 .592-.047c.447 0 .782.085 1.017.255.223.17.346.443.346.82v1.699s.011.047-.045.056l-.156.029-.559.094a5 5 0 0 1-.67.047c-.212 0-.402-.01-.58-.047a1.2 1.2 0 0 1-.448-.16.9.9 0 0 1-.29-.293.85.85 0 0 1-.1-.424.8.8 0 0 1 .122-.425c.079-.123.19-.227.324-.311.134-.076.29-.142.458-.18zm17.47-.976-.168.136v-.233c0-.029-.023-.058-.067-.058h-.57c-.034 0-.067.03-.067.058v2.855c0 .029.033.058.067.058h.58c.034 0 .068-.03.068-.058v-1.427c0-.195.022-.38.067-.505a.7.7 0 0 1 .19-.282.7.7 0 0 1 .268-.146 1.1 1.1 0 0 1 .536-.01c.045 0 .067-.019.078-.048l.168-.398c.01-.039-.023-.068-.034-.068a2.5 2.5 0 0 0-.369-.058h-.19l-.145.02-.234.067-.179.098zm-14.086-1.957a.064.064 0 0 0-.067-.065h-.581c-.034 0-.067.032-.067.065v4.597c0 .033.022.066.067.066h.58c.034 0 .068-.033.068-.066z"/></svg>