<svg xmlns="http://www.w3.org/2000/svg" width="56" height="56"><path fill="#0049B0" d="M0 0h56v56H0z"/><path fill="url(#a)" d="M22.712 24.016a.738.738 0 0 0-1.257.137l-6.374 12.743A.76.76 0 0 0 15.764 38h8.876a.74.74 0 0 0 .683-.42c1.91-3.967.75-9.975-2.611-13.564"/><path fill="#fff" d="M27.39 12.408a16.81 16.81 0 0 0-1.002 16.61l4.3 8.562a.76.76 0 0 0 .684.42h8.876a.76.76 0 0 0 .671-1.104L28.686 12.408a.72.72 0 0 0-1.296 0"/><defs><linearGradient id="a" x1="26.207" x2="19.481" y1="25.983" y2="37.635" gradientUnits="userSpaceOnUse"><stop stop-color="#60A0FF"/><stop offset=".92" stop-color="#fff"/></linearGradient></defs></svg>