<svg xmlns="http://www.w3.org/2000/svg" width="56" height="56"><path fill="url(#a)" d="M0 0h56v56H0z"/><path fill="#fff" d="M46 34.58s-5.95 3.1-14.35 1.06c-1.92 2.66-4.18 5.73-4.35 6.23-.45 1.25-1.26 2.66-2.98 1.93-7.38-3.13-9.47-5.3-7.65-12.24-3.52-5.17-.4-9.47-.4-9.47s-.6 4.92 3.32 9c-2.52 7.87 1.02 8.22 4.26 9.72 1.11.52 1.85-1.31 1.85-1.31l3.16-4.84c-3.6-2.74-4.43-5.03-4.43-5.03 5.58 5.43 14.85 4.6 14.85 4.6-4.26-1.86-7.84-5.72-8.93-7.75-2.9-5.28-6.84-4.18-7.1.31-.28-1.5-.08-4.55 2.77-5.68 1.05-.43 4.2-.54 6.2 4.16.28.64.61 1.25 1.01 1.81.94-1.75 1.49-4.47-4.3-8.96A42 42 0 0 1 21.05 10s3.06 3.34 12.5 8.85c5.19 3.03 3.14 8.12 1.76 10.53 4.3 3.74 10.7 5.2 10.7 5.2Z"/><defs><linearGradient id="a" x1="10.42" x2="68.15" y1="9.71" y2="76.02" gradientUnits="userSpaceOnUse"><stop stop-color="#1A1E21"/><stop offset="1" stop-color="#06060A"/></linearGradient></defs></svg>