<svg xmlns="http://www.w3.org/2000/svg" width="56" height="56"><path fill="url(#a)" d="M0 0h56v56H0z"/><path fill="#B61218" d="M29 29v17l17-17z"/><path fill="#AC0F16" d="m10 27 18-17 18 17z"/><path fill="#ED1B24" d="m10 27 18-17v10.82z"/><path fill="#C5161D" d="M28 20.82V10l18 17z"/><path fill="#B81319" d="M29 29v17l5.56-11.46z"/><path fill="#ED1B24" d="m29 29 5.56 5.54L46 29z"/><path fill="url(#b)" d="M42.28 30.55H30.85L29 29l1.78 1.78H42.3L46 29l-3.72 1.54z"/><path fill="#CA171D" d="M27 29v17L10 29z"/><path fill="#B21117" d="M27 29v17l-5.55-11.46z"/><path fill="#ED1B24" d="m27 29-5.56 5.54L10 29z"/><path fill="#E11923" d="M28 13.42 15.9 24.98h24.2z"/><path fill="#C9151E" d="M30.8 30.8v11.5l11.5-11.5z"/><path fill="#D81921" d="M25.21 42.31V30.8H13.7l11.5 11.51z"/><path fill="url(#c)" d="m15.9 24.98-4.04 1.38 3.95-1.6 12.18-11.33-12.08 11.55z"/><path fill="url(#d)" d="M13.72 30.55h11.44L26.99 29l-1.78 1.79H13.7L10 29l3.72 1.54z"/><defs><linearGradient id="a" x1="10.42" x2="68.15" y1="9.71" y2="76.02" gradientUnits="userSpaceOnUse"><stop stop-color="#1A1E21"/><stop offset="1" stop-color="#06060A"/></linearGradient><linearGradient id="b" x1="29.01" x2="45.47" y1="29.9" y2="29.9" gradientUnits="userSpaceOnUse"><stop stop-color="#EF4D37"/><stop offset=".43" stop-color="#FDF7F3"/><stop offset="1" stop-color="#EF4D37"/></linearGradient><linearGradient id="c" x1="27.99" x2="12.99" y1="13.87" y2="26.59" gradientUnits="userSpaceOnUse"><stop stop-color="#EF4D37"/><stop offset=".75" stop-color="#FDF7F3"/><stop offset="1" stop-color="#EF4D37"/></linearGradient><linearGradient id="d" x1="26.99" x2="10.53" y1="29.9" y2="29.9" gradientUnits="userSpaceOnUse"><stop stop-color="#EF4D37"/><stop offset=".5" stop-color="#FDF7F3"/><stop offset="1" stop-color="#F2694C"/></linearGradient></defs></svg>