<svg xmlns="http://www.w3.org/2000/svg" width="56" height="56"><path fill="#F0F3FA" d="M0 0h56v56H0z"/><path fill="#0A0A0A" d="M27.42 28.25v-.5h-3.24v.5h1.34V31H26v-2.75zM31 31v-.49h-2.52v-.95h1.67v-.48h-1.67v-.83H31v-.5h-3V31zm3.92-2.5a1.93 1.93 0 0 0-1.66-.84c-.5 0-.95.16-1.27.43-.39.33-.58.72-.58 1.24 0 .53.19.91.58 1.24.31.27.77.43 1.27.43.72 0 1.22-.22 1.64-.77l-.41-.26c-.3.38-.69.54-1.2.54-.86 0-1.38-.45-1.38-1.18 0-.7.54-1.18 1.35-1.18.53 0 .92.16 1.23.52zM39 31v-3.24h-.48v1.31h-2.26v-1.31h-.48V31h.48v-1.44h2.26V31zm4.28 0v-3.24h-.48v2.66l-2.2-2.66H40V31h.48v-2.66l2.2 2.66zM48 29.34c0-.52-.2-.91-.59-1.25a1.95 1.95 0 0 0-1.26-.43c-.5 0-.94.16-1.27.43-.39.34-.59.73-.59 1.25 0 .53.2.9.59 1.23.31.26.77.43 1.27.43s.95-.16 1.27-.43c.38-.33.58-.7.58-1.23m-.5 0c0 .72-.52 1.17-1.35 1.17s-1.36-.44-1.36-1.17c0-.7.56-1.2 1.36-1.2.36 0 .69.12.92.31.29.24.43.51.43.89m4.03-.82.3-.36a2.5 2.5 0 0 0-1.57-.48c-.93 0-1.45.38-1.45.98 0 .63.44.78 1.33.85.85.06 1.34-.01 1.34.45 0 .35-.37.57-1.05.57-.53 0-1-.15-1.46-.47l-.26.4c.42.37.98.54 1.72.54 1.02 0 1.57-.4 1.57-1.08 0-.54-.34-.74-1.06-.85-.59-.08-1.06-.04-1.38-.17-.16-.06-.25-.16-.25-.3 0-.28.32-.45.92-.45.45 0 .87.12 1.3.37M22 27.56c.96 0 1.74.72 1.74 1.73 0 1.02-.77 1.71-1.74 1.71s-1.75-.7-1.75-1.71A1.7 1.7 0 0 1 22 27.56m0 3.16c.88 0 1.47-.55 1.47-1.43 0-.85-.66-1.44-1.47-1.44-.8 0-1.46.59-1.46 1.44 0 .88.58 1.43 1.46 1.43M7.48 29.25H5.63v.29h1.53C7 30.3 6.5 30.7 5.74 30.7c-.88 0-1.46-.6-1.46-1.48 0-.8.72-1.38 1.46-1.38.5 0 .86.17 1.22.59l.24-.18c-.37-.47-.84-.7-1.46-.7-.9 0-1.74.7-1.74 1.67 0 .54.18.97.53 1.31.3.29.73.46 1.21.46a1.7 1.7 0 0 0 1.49-.79v.8h.25zM11.56 31l-.88-1.37c.56-.04.88-.4.88-.97 0-.6-.34-.99-.88-.99H8.5V31h.26v-1.37h1.58l.9 1.37zm-.9-1.66h-1.9v-1.38h1.8c.48 0 .7.23.7.69 0 .44-.21.7-.6.7zm4.84-1.67v2.2c0 .66-.58 1.13-1.52 1.13-.95 0-1.54-.48-1.54-1.14v-2.19h.26v2.08c0 .63.43.96 1.28.96.84 0 1.26-.33 1.26-.96v-2.08zm3.18 0H16.5V31h.26v-1.37h1.86c.58 0 .94-.37.94-.97s-.34-.99-.88-.99m-.02 1.67h-1.9v-1.38h1.8c.48 0 .7.23.7.69 0 .44-.21.7-.6.7z"/><circle cx="5.5" cy="24.5" r="1.5" fill="#BB222F"/><circle cx="9.5" cy="24.5" r="1.5" fill="#929199"/><circle cx="13.5" cy="24.5" r="1.5" fill="#130F0E"/></svg>