<svg xmlns="http://www.w3.org/2000/svg" width="56" height="56" fill="none"><path fill="#285196" d="M0 0h56v56H0z"/><path fill="#F0F3FA" fill-rule="evenodd" d="M21.031 12h13.938C39.929 12 44 16.099 44 21.09V33c-8.372-1.806-6.197-16-16.026-16-9.84 0-7.617 14.198-15.974 16V21.09c0-5.044 4.072-9.09 9.031-9.09M44 38c-1.148 3.73-4.96 6-8.979 6h-13.99c-4.072 0-7.935-2.322-9.031-6 1.984-.105 6.734-1.672 9.449-8.975C24.059 22 26.799 22 28 22c1.2 0 4 0 6.5 7.025 2.766 7.303 7.516 8.87 9.5 8.975" clip-rule="evenodd"/></svg>