<svg xmlns="http://www.w3.org/2000/svg" width="56" height="56" fill="none"><path fill="#F0F3FA" d="M0 0h56v56H0z"/><path fill="#000" d="M12.166 38C11.126 38 10 37.191 10 36.167c0-.893.692-1.547 1.344-1.83L14.172 37c-.459.588-1.136 1-2.006 1m4.834.128-1.402-1.307c.387-.85.402-2.015.402-2.821h-1c.024.632-.127 1.499-.296 2l-3.36-3.21S11 32.505 11 32.004s.49-1.005 1.142-1.005c.725 0 1.184.438 1.184 1.005h1.209S14.704 30 12.118 30C10 30 10 32.005 10 32.005c0 .643 0 .927.5 1.482-.725.37-1.5 1.111-1.5 2.68C9 37.605 10.208 39 12.142 39c1.402 0 2.278-.48 2.858-1.2l1.227 1.047zM39 27h-1v-9h1v5l3.5-3h1.285L40 23.5l4 3.5h-1.5L39 24m-21-4v1.181C18.44 20.43 19.314 20 20.196 20H21v1h-.804C18.956 21 18 22.006 18 23.255V27h-1v-7zm6.478 6C25.824 26 27 24.985 27 23.51c0-1.473-1.176-2.491-2.522-2.491-1.347 0-2.478 1.018-2.478 2.492.022 1.474 1.154 2.489 2.478 2.489m-.135-6c.99 0 2.067.392 2.634 1.214H27V20h1v7h-1v-1.214h-.023C26.403 26.62 25.354 27 24.343 27 22.503 27 21 25.526 21 23.49c0-2.016 1.526-3.49 3.343-3.49M9 18h7v1h-3v8h-1v-8H9zm27 7c-.529.727-1.418.985-2.323.985-1.344 0-2.677-.994-2.677-2.485 0-1.47 1.263-2.485 2.677-2.485.885 0 1.76.339 2.323.985l.906-.293C36.279 20.558 34.937 20 33.676 20 31.627 20 30 21.47 30 23.5c0 2.01 1.603 3.5 3.677 3.5 1.347 0 2.666-.61 3.323-1.815zm-8 7h-1v7h1zm0-2h-1v1h1zm-8 0h5v1h-4v3h3v1h-3v4h-1zm19 0h-1v9h1zm4.478 7.995c1.346 0 2.522-1.027 2.522-2.512S44.824 33 43.478 33 41 33.998 41 35.483c0 1.464 1.132 2.512 2.478 2.512M43.343 32c1 0 2.09.17 2.657 1v-3h1v9h-1v-1.223c-.572.837-1.645 1.223-2.657 1.223C41.503 39 40 37.515 40 35.461 39.978 33.43 41.504 32 43.343 32M32.5 33.015c1.32 0 2.346.97 2.5 1.985h-4.983c.176-.994 1.162-1.985 2.483-1.985M34.635 37c-.494.678-1.3.984-2.135.984-1.255 0-2.328-.73-2.483-1.984H36v-.565C36 33.491 34.503 32 32.5 32S29 33.47 29 35.5s1.497 3.5 3.5 3.5c1.268 0 2.504-.63 3.125-1.75z"/></svg>