<svg xmlns="http://www.w3.org/2000/svg" width="56" height="56"><path fill="url(#a)" d="M0 28a28 28 0 1 1 56 0 28 28 0 0 1-56 0"/><path fill="#fff" d="m4.6 24-.55 2H6.8l-1.7 5.99H8l1.64-6L12 26l-1.62 6 6.3-.01L17 30h-3.3l.3-1h3.23l.55-2H14.5l.3-1h3.4l.82-2zm29.44.25a25.1 25.1 0 0 1-2.18 7.51l-.1.22c0 .04 3.12 0 3.12 0l1.68-6.26-.15 6.28h2.4l3.15-6.26L40.4 32h5.1l1-2h2.4l.06 1.99L52 32l-.65-8h-3.98l-4.06 6.82L45.08 24h-4.3l-2.14 4.37.13-4.37h-4.7zM48.96 28H47.5l1.38-2.27z"/><path fill="#E4943D" d="M30.25 17.3c1.56.66 2.48 2.42 2.71 4.7H30c0-.98-.36-2.06-1.2-2.42-2.48-1.07-6.44 2.38-8.84 7.72-1.46 3.26-2 6.46-1.63 8.71-.92-2.61-.54-6.6 1.24-10.57 2.66-5.93 7.45-9.54 10.68-8.15z"/><path fill="#E4943D" d="M21.9 39c3.11.13 7.06-3.33 9.4-8.52 1.02-2.3 1.59-4.45 1.7-6.48h-6.5l-.5 2.3c4.13-2.7 4.05 1.21 2.3 5.66-1.1 2.82-3.2 6.24-6.4 7.03z"/><defs><linearGradient id="a" x1="10.42" x2="68.15" y1="9.71" y2="76.02" gradientUnits="userSpaceOnUse"><stop stop-color="#1A1E21"/><stop offset="1" stop-color="#06060A"/></linearGradient></defs></svg>