<svg xmlns="http://www.w3.org/2000/svg" width="56" height="56"><path fill="#F0F3FA" d="M0 0h56v56H0z"/><path fill="#6E6E73" d="M49 25v5h3v1h-4v-6zm-13 0h5v1h-2v5h-1v-5h-2zm-1 6h-1v-6h1z"/><path fill="url(#a)" d="M15.33 31H15v-6h.33z"/><path fill="#6E6E73" d="M47 31h-1.22l-.4-1h-2.84l-.36 1H41l2.3-6h1.35zm-4.11-2h2.14l-1.06-3z"/><path fill="#D0952D" d="m43.3 25-1.52 4h1.12c.32-.9.76-2.1 1.07-3l-.66-1Z"/><path fill="#6E6E73" d="M28 25h2.77c1.2 0 2.23.68 2.23 1.96S31.96 29 30.77 29H29v2h-1zm1 3h1.92c.7 0 1.08-.43 1.08-1.04 0-.63-.38-.96-1.08-.96H29zm-2 3h-1.22l-.4-1h-2.84l-.36 1H21l2.3-6h1.35zm-4.11-2h2.14l-1.06-3zm-4.32 2C16.9 31 16 29.54 16 28c0-1.55.89-3 2.57-3 1.28 0 2.23.76 2.43 2h-1.02c-.18-.75-.7-1-1.4-1-1.12 0-1.58 1.05-1.58 2 0 .96.45 2 1.57 2 .78 0 1.33-.54 1.42-1.29H21A2.4 2.4 0 0 1 18.57 31"/><path fill="#D0952D" d="m13.76 29.4.05.9c0 .29.07.52.19.7h-1.19c-.1-.17-.15-.4-.16-.72l-.02-.3c-.03-.63-.34-.98-.98-.98H10v2H9v-6h2.76c1.05 0 2.24.5 2.24 1.7 0 .71-.44 1.19-1.12 1.43.61.19.86.58.88 1.28ZM10 26v2h1.98c.66 0 1.02-.52 1.02-1.12 0-.56-.38-.88-1.07-.88zm-2.07 1.84c.63.22 1.07.77 1.07 1.44C9 30.36 8.27 31 6.87 31H4v-6h2.77c.97 0 1.98.45 1.98 1.55 0 .59-.27 1.02-.82 1.29M6.7 26H5v1.57h1.69c.6 0 .9-.32.9-.81 0-.47-.33-.76-.9-.76ZM5 30h1.8c.66 0 1.01-.3 1.01-.83 0-.55-.33-.83-1-.83H5z"/><defs><linearGradient id="a" x1="15.16" x2="15.16" y1="25" y2="32" gradientUnits="userSpaceOnUse"><stop stop-color="#6E6E73"/><stop offset=".48" stop-color="#D0952D"/><stop offset="1" stop-color="#6E6E73"/></linearGradient></defs></svg>