<svg xmlns="http://www.w3.org/2000/svg" width="56" height="56"><path fill="#F0F3FA" d="M0 0h56v56H0z"/><path fill="#466A9E" d="M28 19.16 12 28v-5.8c0-1.9 1.02-3.66 2.71-4.68l4.78-2.89z"/><path fill="#B2BAD5" d="M28 19.16 44 28v-5.8c0-1.9-1.02-3.66-2.71-4.68l-4.78-2.89z"/><path fill="#7084AD" d="M28 10v9.14l-8.53-4.46z"/><path fill="#94A1C2" d="M28 10v9.14l8.53-4.46z"/><path fill="#466A9E" d="M28 36.84 44 28v5.8c0 1.9-1.02 3.66-2.71 4.68l-4.78 2.89z"/><path fill="#B2BAD5" d="M28 36.84 12 28v5.8c0 1.9 1.02 3.66 2.71 4.68l4.78 2.89z"/><path fill="#7084AD" d="M28 46v-9.14l8.53 4.46z"/><path fill="#94A1C2" d="M28 46v-9.14l-8.53 4.46z"/><path fill="#018BB3" d="M28 24.3v7.4L21.6 28z"/><path fill="#02BCE1" d="M28 24.3v7.4l6.4-3.7z"/></svg>