<svg xmlns="http://www.w3.org/2000/svg" width="56" height="56"><path fill="url(#a)" d="M0 0h56v56H0z"/><path fill="#fff" d="M10.6 22 8 25h5v8.25c0 2.67 2 3.75 3.67 3.75H21v-3h-3.47C16.15 34 16 32.56 16 32v-7h4v-3h-4v-5l-3 2.5V22zM27 22l-3 1.67V37h3v-8c0-2.69 2.5-4 5-4h1v-3h-1c-2.5 0-4.12 1.39-5 2.08zm10 0h-3l5.57 7.5L34 37h3l4.29-5.42L46 37v-3.33zm8.14 0-3.43 4.58 1.72 2.09L46 25.33z"/><defs><linearGradient id="a" x1="10.42" x2="68.15" y1="9.71" y2="76.02" gradientUnits="userSpaceOnUse"><stop stop-color="#1A1E21"/><stop offset="1" stop-color="#06060A"/></linearGradient></defs></svg>