<svg xmlns="http://www.w3.org/2000/svg" width="56" height="56"><path fill="#181B1E" d="M0 0h56v56H0z"/><path fill="#fff" d="M8 18h40v20h-8v-2h7V20H9v16h7v2H8z"/><path fill="#fff" d="M21 22H11v2h4v10h2V24h4zm16.75 6L33 22h2.5l3.5 4.41L42.5 22H45l-4.75 6L45 34h-2.51L39 29.59 35.51 34H33zM22 22h6a4 4 0 0 1 4 4c0 1.38-.7 2.28-1.76 3l-1.49-1.46c.73-.3 1.25-.7 1.25-1.54a2 2 0 0 0-2-2h-4v1h-2z"/><path fill="#fff" fill-rule="evenodd" d="M24 27h-2v7l4.37-4.26L30.5 34H33l-6.63-7L24 29.35zm2.37.78-3.63 3.61v1.2l3.63-3.6v-1.2Z"/><path fill="#fff" d="M37 36h.44v2.55H39V39h-2zm-4 3 1.28-3h.44L36 39h-.52l-.34-.8h-1.31l-.33.8zm1.47-2.38L34 37.78h.97l-.47-1.16zM30 36.45V36h2.44v.45h-1V39H31v-2.55zM29 39h-.44v-3H29zm-3.59 0H25v-3h1.52c.49 0 .9.35.9.92s-.4.93-.9.93h-1.1V39Zm1.11-2.54h-1.1v.93h1.1c.25 0 .48-.17.48-.47s-.23-.46-.48-.46M21 39l1.28-3h.44L24 39h-.52l-.34-.8h-1.31l-.33.8zm1.47-2.38L22 37.78h.97l-.47-1.16zm-2.8 1.48.33.31c-.3.3-.8.59-1.42.59-.95 0-1.58-.67-1.58-1.5 0-.82.63-1.5 1.56-1.5.52 0 1.02.2 1.35.5l-.34.32a1.56 1.56 0 0 0-1-.39c-.64 0-1.05.49-1.05 1.07 0 .6.42 1.07 1.07 1.07.45 0 .83-.22 1.08-.48ZM25 32h2v2h-2z"/></svg>