<svg xmlns="http://www.w3.org/2000/svg" width="56" height="56" fill="none"><path fill="#B0282C" d="M0 0h56v56H0z"/><path fill="#fff" d="M39.851 10.01c.07-.032.149.018.149.092V17c0 2.437-1.463 3.832-3.725 4.863L20.5 29c-1.376.627-2.5 1.875-2.5 3.355v.475c0 .1-.058.188-.149.227l-1.712.933a.105.105 0 0 1-.149-.092L16 32c-.01-3 1.492-4.324 3.754-5.355L35.174 20C36.552 19.373 38 18.5 38 16v-2.5l-17.175 7.85C19.457 21.977 18 22.801 18 24.278v.472a.25.25 0 0 1-.149.226L16.14 25.99a.1.1 0 0 1-.05.01.103.103 0 0 1-.099-.102l.01-1.62c0-2.43 1.46-4.038 3.714-5.069l20.137-9.2ZM16.149 45.99c-.07.032-.149-.018-.149-.092V39c0-2.437 1.453-3.832 3.715-4.863L35.49 27c1.376-.627 2.5-1.875 2.5-3.355v-.475c0-.1.058-.188.15-.227l1.711-.933a.1.1 0 0 1 .047-.01.103.103 0 0 1 .102.102L39.99 24c.01 3-1.492 4.324-3.754 5.355L20.816 36C19.44 36.627 18 37.5 18 40v2.5l17.165-7.85c1.369-.627 2.825-1.451 2.825-2.928v-.472c0-.099.058-.187.15-.226l1.711-1.014a.1.1 0 0 1 .05-.01.103.103 0 0 1 .099.102l-.01 1.62c0 2.43-1.46 4.038-3.714 5.069z"/></svg>