<svg xmlns="http://www.w3.org/2000/svg" width="56" height="56"><path fill="#F0F3FA" d="M0 0h56v56H0z"/><path d="M4 30v-3h1.4c.66 0 1.54.23 1.54 1.03s-.89.97-1.53.97H4.22l.18-.15V30zm2.57 0-.97-1.09h.43L7 30zM4.4 28.88l-.18-.15H5.4c.75 0 1.14-.23 1.14-.7 0-.48-.39-.76-1.14-.76H4.22l.18-.15zm4.84-.54h2.4v.27h-2.4zm.16 1.39H12V30H9v-3h3v.27H9.4zM14 30v-3h.4l2.39 2.6h-.19V27h.4v3h-.4l-2.38-2.6h.18V30zm5 0 1.35-3h.3L22 30h-.4l-1.17-2.68h.13L19.4 30zm.47-.74.1-.26h1.93l.1.26zm6.03.74c-.93 0-1.5-.44-1.5-1.3V27h.4v1.7c0 .7.4 1.02 1.1 1.02.72 0 1.1-.33 1.1-1.03V27h.4v1.7c0 .86-.56 1.3-1.5 1.3m10.84 0L35 27h.4l1.2 2.59h-.19L37.6 27h.4l-1.34 3zM40 30v-3h.4v3zm3.2-1.66h2.44v.27H43.2zm.2 1.39H46V30h-3v-3h3v.27h-2.6zm5.5.27-.9-3h.4l.74 2.56H49l.8-2.56h.4l.8 2.56h-.13L51.6 27h.4l-.9 3h-.31l-.83-2.68h.08L49.2 30zm-21.4 2 3.3-3.22v.33L29 27l2.14 1.76h-.26L35 25l-3.8 4.08v-.3L33 31l-2.14-1.88h.25z"/></svg>