<svg xmlns="http://www.w3.org/2000/svg" width="56" height="56"><path fill="url(#a)" d="M0 0h56v56H0z"/><path fill="#fff" d="M12.004 33.992c2.297 0 3.996-2.026 3.996-4.18v-9.81h2.004V36H16v-1.73C14.973 35.396 13.261 36 11.744 36c-3.424 0-5.74-2.916-5.74-6.157v-9.841H8v9.81c0 2.188 1.68 4.18 4.004 4.18M22 20v5.73c1.078-1.08 2.796-1.708 4.325-1.708 1.586 0 3.138.628 4.261 1.753a6.05 6.05 0 0 1 1.75 4.247 6 6 0 0 1-1.75 4.224 6.04 6.04 0 0 1-4.261 1.753c-1.532 0-3.244-.625-4.325-1.708V36h-2V20zm.523 11.572A3.99 3.99 0 0 0 26.168 34c1.582 0 2.984-.991 3.61-2.427a3.98 3.98 0 0 0 0-3.112c-.624-1.453-2.019-2.416-3.61-2.416-1.586 0-3.01.965-3.634 2.416a4.05 4.05 0 0 0-.01 3.112zm14.409-7.055a5.95 5.95 0 0 1 4.62-.023c2.203.94 3.431 3.17 3.431 5.505V31h-9.307c.123.767.716 1.569 1.29 2.066a3.8 3.8 0 0 0 2.5.933q2.04 0 3.297-1.685l1.637 1.213c-1.169 1.572-2.982 2.45-4.934 2.45-1.596 0-3.174-.579-4.317-1.709A6 6 0 0 1 33.389 30c-.001-2.335 1.389-4.538 3.543-5.482zM35.72 29h6.975c-.371-1.688-1.699-2.978-3.477-2.978-1.783 0-3.1 1.298-3.498 2.978m12.28.212V36h-2V24h2v1.685c.573-.937 1.922-1.506 2.979-1.506H52v2.112h-1.178c-1.489 0-2.822 1.44-2.822 2.921"/><defs><linearGradient id="a" x1="10.418" x2="68.147" y1="9.712" y2="76.017" gradientUnits="userSpaceOnUse"><stop stop-color="#1A1E21"/><stop offset="1" stop-color="#06060A"/></linearGradient></defs></svg>