<svg xmlns="http://www.w3.org/2000/svg" width="56" height="56"><path fill="#F47D38" d="M0 0h56v56H0z"/><path fill="#fff" d="M21.037 34.203c0-.487-.01-.822-.037-1.203.097.009.909 0 1.16 0 .532 0 .895.2.895.673 0 .475-.448.675-.721.718v.008c.27.015.796.206.796.731 0 .621-.505.87-1.032.87-.234 0-1.001-.009-1.098 0 .026-.383.037-.718.037-1.203v-.593zm.888-.956a1 1 0 0 0-.217.013c-.008.215-.017.456-.017.605 0 .157.005.295.005.444h.199c.252 0 .504-.183.504-.552 0-.28-.124-.51-.474-.51m-.04 1.31c-.079 0-.137.003-.189.003 0 .122-.005.244-.005.422 0 .273.01.61.01.763.08.002.146.007.243.007.26 0 .486-.211.486-.59 0-.405-.19-.605-.545-.605m4.437-.354c0-.487-.009-.822-.035-1.203.26.004 1.594.011 1.713 0-.01.05-.01.312 0 .378-.337-.022-.896-.021-1.027-.021-.022.317.004.6.004.916.385-.009.669-.016 1.005-.034a1.6 1.6 0 0 0 0 .374 13 13 0 0 0-1.005-.04q-.002.277-.004.557c0 .184.001.335.01.508.332 0 .676.019 1.017-.021-.01.061-.01.332 0 .383a81 81 0 0 0-1.713 0c.026-.383.035-.718.035-1.203v-.593zM34.364 36a11 11 0 0 0-.767 0 16 16 0 0 0-.305-.884c-.19-.005-.872-.005-1.028 0q-.178.438-.3.884a4 4 0 0 0-.43 0c.216-.479.88-2.016 1.262-3 .056.008.279.008.336 0 .376.984.896 2.297 1.232 3m-1.174-1.14c-.129-.35-.253-.691-.394-1.027q-.224.503-.416 1.027zm4.528.017c0-.461.01-.69.01-1 0-.45-.01-.736-.018-.877.12.011.243.021.362.021.12 0 .244-.01.362-.021-.055.554-.06.998-.06 1.494 0 1.04.309 1.211.885 1.211.709 0 .757-.738.757-1.531 0-.393-.013-.781-.035-1.174.075.011.15.021.226.021.075 0 .145-.01.221-.021-.026.252-.058.861-.058 1.6 0 .99-.448 1.4-1.305 1.4-.758 0-1.347-.321-1.347-1.123m6.881-1.168c0-.165.005-.305-.009-.364-.173 0-.55.007-.815.037a2 2 0 0 0 0-.382c.402.012 1.9.012 2.276 0a1.8 1.8 0 0 0 0 .382 8 8 0 0 0-.796-.032c-.007.062 0 .194 0 .358v1.089c0 .485.008.82.034 1.203a10 10 0 0 0-.726 0c.027-.383.035-.718.035-1.203zm6.259.595c.24-.33.473-.88.668-1.304.067.009.34.009.416 0a45 45 0 0 0-.929 1.704c0 .14-.005.245-.005.387 0 .287.004.584.045.909-.124-.009-.63-.009-.753 0 .013-.278.053-.57.053-.84q-.002-.2-.009-.403A129 129 0 0 0 49.397 33c.132.009.659.009.792 0 .203.429.536 1.105.66 1.304zm-37.401-8.452c0 2.788-.077 3.419.45 4.102s1.508 1.067 2.78 1.067c1.472 0 2.634-.734 3.034-1.803.146-.386.273-.93.273-2.366V20H21v7.728c-.036 2.067-.425 3.015-1.624 3.75-.854.527-2.072.754-3.052.754-2.18 0-4.926-.753-5.324-3.47V20h2.454s.003 3.9.003 5.852M24 20h2.557L26.5 30.97 31 31v1h-7zm12 12h-2.5V21H30v-1h10v1h-4zm9.85-4h-4.257l-1.604 4h-1.674l5.38-12h1.174l5.128 12h-2.59zm-2.171-5.014-1.798 4.027h3.529z"/><path fill="#fff" d="M8.467 20.623C5.653 22.53 4 24.93 4 27.863c0 6.656 8.037 11.575 19.496 11.575 5.136 0 9.426-1.328 12.605-2.966l-.198.003c-3.836 1.155-7.716 1.63-11.704 1.63-11.518 0-19.45-5.406-19.46-10.403-.006-2.771 1.284-5.163 3.73-6.912z"/></svg>