<svg xmlns="http://www.w3.org/2000/svg" width="56" height="56"><path fill="url(#a)" d="M0 0h56v56H0z"/><path fill="#F0F3FA" d="M8 32c-1.87 0-3-1.27-3-3.1V25h1v3.85C6 29.98 6.78 31 8 31c1.23 0 2-1.03 2-2.15V25h1v3.9c0 1.82-1.13 3.1-3 3.1m5 0v-7h1l4.5 6H18v-6h1v7h-1l-4.5-6h.5v6zm8 0v-7h1v7zm5.44 0A3.42 3.42 0 0 1 23 28.5c0-1.95 1.49-3.5 3.45-3.5 1.05 0 1.95.38 2.55 1.14l-.77.77c-.47-.54-1.05-.91-1.72-.91C25 26 24 27 24 28.5s1 2.5 2.5 2.5c.68 0 1.26-.37 1.73-.92l.77.78c-.6.74-1.5 1.14-2.56 1.14M30 32l2.9-7h1.19L37 32h-1.25l-2.5-6.31h.48L31.23 32zm1.37-2 .32-1h3.49l.32 1zm9.1 2c-.86 0-1.82-.22-2.47-.82l.4-.98c.56.48 1.33.8 2.07.8.57 0 1.53-.3 1.53-1.02 0-.7-.97-.85-1.5-.98-1.07-.26-2.5-.67-2.5-1.97 0-1.4 1.41-2.03 2.66-2.03.72 0 1.49.18 2.08.6l-.37.98a3.3 3.3 0 0 0-1.71-.58c-.6 0-1.66.31-1.66 1.03s.96.83 1.5.97c1.1.26 2.5.65 2.5 1.98 0 1.4-1.3 2.02-2.53 2.02M44 32l2.9-7h1.19L51 32h-1.25l-2.5-6.31h.48L45.23 32zm1.37-2 .32-1h3.49l.32 1z"/><defs><linearGradient id="a" x1="10.42" x2="68.15" y1="9.71" y2="76.02" gradientUnits="userSpaceOnUse"><stop stop-color="#1A1E21"/><stop offset="1" stop-color="#06060A"/></linearGradient></defs></svg>