<svg xmlns="http://www.w3.org/2000/svg" width="56" height="56" fill="none"><path fill="url(#a)" d="M0 0h56v56H0z"/><path fill="#fff" d="M35 36h3.907C40.261 36 41 35.229 41 34s-.739-2-2.093-2H35zm0 6h5.114C42.675 42 44 40.714 44 38.228v-2.6h-.088C43.176 37.8 41.262 39 38.995 39h-3.877c-.089 0-.118.003-.118.088zm-6.514-8.2L32 37.286v-6.972zm-12.6 8.2H32v-.8c0-1.4.696-1.683 1.844-2.112v-.085H29.28c-.236 0-.324-.029-.5-.2l-2.424-2.947-2.434 2.975c-.118.114-.206.172-.442.172h-3.68c-.206 0-.206-.115-.088-.229l4.71-4.945-4.798-4.515c-.118-.114-.089-.314.117-.314h3.71c.206 0 .294.114.412.257l2.493 2.514 2.54-2.514c.119-.114.207-.257.384-.257h9.685c2.237 0 4.21.8 4.946 2.971H44v-14.2C44 15.286 42.675 14 40.114 14H15.886C13.325 14 12 15.286 12 17.771v20.486C12 40.714 13.325 42 15.886 42"/><defs><linearGradient id="a" x1="10.418" x2="68.147" y1="9.712" y2="76.017" gradientUnits="userSpaceOnUse"><stop stop-color="#1A1E21"/><stop offset="1" stop-color="#06060A"/></linearGradient></defs></svg>