<svg xmlns="http://www.w3.org/2000/svg" width="56" height="56" fill="none"><path fill="#00ADEF" d="M0 0h56v56H0z"/><path fill="#fff" d="M39.104 15.022c-4.722-.143-8.476 2.958-9.596 7.597q1.299-.53 2.521-.532 2.602.001 2.295 2.772c-.103 1.12-.868 2.936-2.294 5.077q-2.144 3.208-3.212 3.208-1.379.002-2.524-4.947c-.183-.689-.469-2.446-.858-4.838-.156-.964-.33-2.03-.52-3.171q-.918-5.53-4.896-5.166-1.684.146-5.047 2.907A427 427 0 0 1 10 22.139l1.604 1.963q2.293-1.524 2.674-1.525c1.17 0 2.263 2.337 3.283 5.818l2.747 9.579c1.373 3.484 3.055 5.36 5.04 5.36 3.01 0 7.124-2.996 11.757-8.714 2.906-3.55 4.902-7.086 5.986-9.76 1.605-3.962 1.54-9.67-3.987-9.838"/></svg>