<svg xmlns="http://www.w3.org/2000/svg" width="56" height="56" fill="none"><path fill="#F71964" d="M0 0h56v56H0z"/><path fill="#fff" d="M43.379 15H17.243c-2.026 0-3.324 2.16-2.376 3.956L17.277 24h-4.535a1.74 1.74 0 0 0-1.491.845 1.75 1.75 0 0 0-.05 1.716l8.409 15.51a1.75 1.75 0 0 0 1.54.929 1.74 1.74 0 0 0 1.54-.93L24.966 38l2.873 5.564c1.008 1.912 3.74 1.916 4.752.005l13.1-24.714c.925-1.748-.338-3.855-2.312-3.855m-11.51 10.663L25.99 36.382a1.16 1.16 0 0 1-1.622.452 1.16 1.16 0 0 1-.427-.452l-5.808-10.675a1.166 1.166 0 0 1 .452-1.555c.174-.1.37-.151.57-.152h11.717a1.13 1.13 0 0 1 .967.549 1.13 1.13 0 0 1 .03 1.114"/></svg>