<svg xmlns="http://www.w3.org/2000/svg" width="56" height="56"><path fill="#1C334A" d="M0 0h56v56H0z"/><path fill="#fff" d="M7.45 32 4 24h1.21l3.17 7.38h-.7l3.2-7.38H12l-3.44 8h-1.1Zm8.01-8L12 32h1.12L16 25.16 17.6 29h-2.3l-.4 1h3.12l.84 2H20l-3.47-8h-1.08Zm31.99 0L44 32h1.12L48 25.16 49.6 29h-2.3l-.4 1h3.12l.84 2H52l-3.47-8zM21 32v-8h1v7h4v1zm16-8v8h1v-7h1.8c1.35 0 2.04.65 2.04 1.79 0 1.13-.69 1.8-2.03 1.8H39v.98h.84c.16 0 .31-.01.46-.03L41.87 32H43l-1.73-2.68c1.03-.4 1.6-1.3 1.6-2.53 0-1.78-1.33-2.79-3.03-2.79zm-5.99 8A3.96 3.96 0 0 1 27 28c0-2.24 1.77-4 4.01-4A3.95 3.95 0 0 1 35 28c0 2.25-1.74 4-3.99 4M31 31a3 3 0 1 0 0-6 3 3 0 0 0 0 6"/></svg>