<svg xmlns="http://www.w3.org/2000/svg" width="56" height="56"><path fill="#F0F3FA" d="M0 0h56v56H0z"/><path fill="#BABCBE" d="M7 22H4l4.5 12h3z"/><path fill="#00AEEE" d="M13 22h3l-4.5 12h-3z"/><path fill="#1082B6" d="M11.5 34 10 30l-1.48 3.94z"/><path fill="#BABCBE" d="M17 22h3v12h-3z"/><path fill="#00AEEE" d="M48 22h3v12h-3zm-26 0h3v12h-3zm9 0h3v12h-3z"/><path fill="#BABCBE" d="M25 22h-3l9 12h3z"/><path fill="#1082B6" d="M31 34v-4l3 4zm-6-12h-3l3 4z"/><path fill="#BABCBE" d="M44.03 30.21A2.99 2.99 0 0 1 39 28a3 3 0 0 1 5.12-2.12l2.12-2.12a6 6 0 1 0-.19 8.67z"/></svg>