<svg xmlns="http://www.w3.org/2000/svg" width="56" height="56" fill="none"><path fill="#F0F3FA" d="M0 0h56v56H0z"/><path fill="#85716B" fill-rule="evenodd" d="M17.5 25h-.403c-.613 0-1.097.357-1.097.81V33h.403c.613 0 1.097-.357 1.097-.81zm22 0h-.403c-.613 0-1.097.357-1.097.81V33h.403c.613 0 1.097-.357 1.097-.81z" clip-rule="evenodd"/><path fill="#ADAE98" fill-rule="evenodd" d="M23 27.511c0-.526-.333-1.011-.818-1.011h-1.3c-.485 0-.882-.352-.882-.878V25h2.094c1.344 0 2.406 1.052 2.406 2.511 0 1.344-1.5 1.329-1.5 0" clip-rule="evenodd"/><path fill="#85716B" fill-rule="evenodd" d="M23.637 33c.484 0 .863-.474.863-1v-4.465c0-.526.415-1.035.9-1.035h1.218c.485 0 .882-.352.882-.878V25h-2.012C24.143 25 23 26.196 23 27.655V33z" clip-rule="evenodd"/><path fill="#ADAE98" fill-rule="evenodd" d="M33.5 28.492v-.957c0-.526.454-1.035.954-1.035h1.137c.5 0 .909-.352.909-.878V25h-1.797C33.317 25 32 26.196 32 27.655v.837z" clip-rule="evenodd"/><path fill="#85716B" fill-rule="evenodd" d="M32.59 33H32v-5.5c0-.605-.5-1-1-1h-1.091c-.5 0-.909-.352-.909-.878V25h2.158c1.386 0 2.342 1.16 2.342 2.619v4.353c.023.55-.387 1.028-.91 1.028M14 25h-1.301s-.434.143-.845 1.122C11.579 26.728 9.5 31.5 9 31.5s-2.746-5.502-3.105-6.237c0 0-.133-.263-.594-.263H4c.582 1.182.5 1 3.507 7 .352.703 1 1 1.493 1 .498 0 1.18-.37 1.501-1 2.999-5.878 2.872-5.707 3.499-7m28 8h1.301s.434-.143.845-1.122C44.421 31.272 46.5 26.5 47 26.5s2.746 5.502 3.105 6.237c0 0 .11.263.594.263H52c-.582-1.182-.5-1-3.507-7-.352-.703-1-1-1.493-1-.498 0-1.18.37-1.501 1-2.999 5.878-2.872 5.707-3.499 7" clip-rule="evenodd"/></svg>