<svg xmlns="http://www.w3.org/2000/svg" width="56" height="56" fill="none"><path fill="#FFA67D" d="M0 0h56v56H0z"/><path fill="#333" fill-rule="evenodd" d="M18 33h-4.644v-.259q1.645 0 1.644-.91v-6.689q0-.883-1.644-.883V24H18v.259c-1.097 0-1.5.294-1.5.883v6.689c0 .607.403.91 1.5.91zm-5-8.747q-.74 0-1.15 1.038L9 33h-.5l-3.284-7.748q-.45-.999-1.216-.999V24h3.5v.253c-.643 0-1.195.192-.883.892L9 31l2.097-5.469c.235-.59.225-1.278-.597-1.278V24H13zm14 0q-.74 0-1.15 1.038L23 33h-.5l-3.284-7.748q-.45-.999-1.216-.999V24h3.5v.253c-.643 0-1.195.192-.883.892L23 31l2.097-5.469c.235-.59.225-1.278-.597-1.278V24H27zm-2 8.494q.74 0 1.15-1.038L29 24h.5l3.284 7.748q.45.999 1.216.999V33h-3.5v-.253c.643 0 1.195-.193.883-.892L29 26l-2.097 5.469c-.235.59-.225 1.278.597 1.278V33H25zm18 0q.74 0 1.15-1.038L47 24h.5l3.284 7.748q.45.999 1.216.999V33h-3.5v-.253c.643 0 1.195-.193.883-.892L47 26l-2.097 5.469c-.235.59-.225 1.278.597 1.278V33H43zM43 33h-2.5L37 28c1.849-.079 3-.387 3-1.553 0-1.287-.944-1.93-2.503-1.93-.342 0-.997.004-.997.502v6.88c0 .56.673.843 1.5.843V33h-4v-.258c.816 0 1-.304 1-.911v-6.689c0-.619-.422-.884-1-.884V24h3.985c1.55 0 3.515.54 3.515 2.406.002 1.233-.818 1.675-2.5 1.956.863 1.075 2.377 4.38 4 4.38z" clip-rule="evenodd"/></svg>