<svg xmlns="http://www.w3.org/2000/svg" width="56" height="56"><path fill="url(#a)" d="M0 0h56v56H0z"/><path fill="#fff" d="M39 33h-2v-9h2zm-10.99-9H30v7h4v2h-5.99zM42 24h3.27C48 24 50 25.9 50 28.5c0 2.65-1.95 4.5-4.73 4.5H42v-2h3.5a2.5 2.5 0 0 0 0-5H42zM6 24l4.71 9h2.26l1.87-3.53V25.2l-3 5.65L8.27 24zm10.16 9 4.71-9h2.26L25 27.53v4.27l-3-5.65L18.41 33z"/><defs><linearGradient id="a" x1="10.42" x2="68.15" y1="9.71" y2="76.02" gradientUnits="userSpaceOnUse"><stop stop-color="#1A1E21"/><stop offset="1" stop-color="#06060A"/></linearGradient></defs></svg>