<svg xmlns="http://www.w3.org/2000/svg" width="56" height="56"><path fill="#F0F3FA" d="M0 0h56v56H0z"/><path fill="#4FC8E3" d="M46 22h-3.96c-.43 0-.83.23-1.03.6A235 235 0 0 0 32.5 41h3.36c.48 0 .92-.28 1.1-.71C39 35.56 46 22 46 22"/><path fill="#5E8B9B" d="M14.5 28H10l4.5 2.1z"/><path fill="#4B6FDD" d="M14 17h10.38c1.93 0 4.62 1 4.62 5.03 0 1.68-1.62 4.47-3.46 4.47 1.73 0 3.46.56 3.46 3.91S29 36 22.08 36H14zm5 3v5h3.38c1.12 0 2.25-1.2 2.25-2.5 0-1.64-1.13-2.5-2.25-2.5zm0 8v5h3.38c1.12 0 2.12-1.2 2.12-2.5 0-1.64-1-2.5-2.13-2.5z"/><path fill="#4661B5" fill-opacity=".7" d="M14.5 28.2V27h12.42c1.08 0 2.11 1.03 2.11 3.62 0 .58 0 1.12-.03 1.63L24.5 31c.02-.12 0-.37 0-.5 0-1.7-1-2.5-2.13-2.5H19v1.46z"/><path fill="#4B6FDD" d="M10 28v-3h18c.44 0 .84.25 1.02.63C30.34 28.4 36 41 36 41h-3.34c-.44 0-.84-.25-1.02-.64L25.75 28z"/></svg>