<svg xmlns="http://www.w3.org/2000/svg" width="512" height="512"><svg xmlns="http://www.w3.org/2000/svg" width="512" height="512" fill="none" viewBox="0 0 512 512"><path fill="#7347AB" d="M34 292.571V512h235.493c132.614 0 208.491-126.804 208.491-208.492V0h-95.018l-64.255 72.46C109.535 72.46 34 188.324 34 292.57"/><path fill="url(#paint0_linear_324_15)" fill-opacity=".3" d="M252.683 294.346c-81.37-67.929-203.302-80.729-203.302-80.729-9.462 23.824-12.713 39.208-15.381 69.726V512h241.303c29.722-1.902 45.611-5.379 72.459-16.065 0 0-13.709-133.657-95.079-201.589"/><path fill="#fff" d="M179.602 290.862h-66.99v144.919h66.99zM282.823 167.818h-66.991v267.963h66.991zM386.042.342h-66.99V435.78h66.99z"/><defs><linearGradient id="SvgjsLinearGradient1000" x1="190.881" x2="190.881" y1="213.617" y2="512" gradientUnits="userSpaceOnUse"><stop stop-color="#7347AB"/><stop offset="1" stop-color="#fff" stop-opacity=".28"/></linearGradient></defs></svg><style>@media (prefers-color-scheme:light){:root{filter:none}}</style></svg>