<svg xmlns="http://www.w3.org/2000/svg" width="56" height="56"><path fill="url(#a)" d="M0 0h56v56H0z"/><path fill="#fff" fill-rule="evenodd" d="M4 24h2v.32h-.5v6.38h1.48c.25 0 .76-.12.76-.67V29H8v2H4v-.3h.5v-6.38H4zm10.5 0h2v.32H16v6.38h1.49c.24 0 .75-.12.75-.67V29h.26v2h-4v-.3h.5v-6.38h-.5zm20 0h-2v.32h.5v6.38h-.5v.3h4v-2h-.26v1.03c0 .55-.52.66-.76.67H34v-6.38h.5zM8.51 24H12v1.71h-.2v-.63c0-.26-.2-.77-.97-.74H10v2.82h.4c.19 0 .59-.16.6-.7v-.53h.25v2.84H11v-.63a.6.6 0 0 0-.6-.6H10v3.16h1.22c.3.02.9-.14.9-.87V29h.25v2H8.51v-.3H9v-6.36h-.49zm13.09 0h-2.2v.27h.6v5.96c-.03.37-.38.45-.6.45V31h2.2v-.32c-.5-.04-.6-.31-.6-.45v-5.96h.6zm3.56 0h-.23v.6a1.23 1.23 0 0 0-1-.6c-.73-.05-1.44.54-1.48 1.69-.03 1.14.67 1.76 1.66 2.6.21.16.62.65.61 1.33-.01.84-.5 1.09-.79 1.09-.16 0-1.16-.08-1.3-1.71h-.24v2h.24v-.74c.1.24.5.72 1.3.74 1 .02 1.65-1.07 1.65-1.86 0-.8-.42-1.7-1.55-2.38-.82-.5-.98-1.13-.96-1.38 0-.4.21-1.03.86-1.03.65.01 1 1.02 1 1.65h.23zm4.53 0h-2.24v.3H28v6.42h-.55V31h2.67c.42.02 1.49-.47 1.49-1.89 0-1.13-.9-1.66-1.34-1.78 1-.21 1.22-1.16 1.2-1.6.06-1.4-1.17-1.74-1.78-1.73m.9 1.76c0-1.33-1.06-1.56-1.59-1.5v2.92c.86.06 1.58-.17 1.58-1.42zM29 27.42c.56-.06 1.68.2 1.68 1.7-.01 1.42-.77 1.69-1.68 1.62zM38.63 31H37v-.22h.24c.27 0 .41-.3.45-.46L39.35 24h.1l1.91 6.72H42V31h-2.4v-.28h.69l-.53-1.94h-1.43l-.4 1.46c-.11.35.11.47.24.48h.46zm.39-4.98-.63 2.5h1.32l-.7-2.5zm3.31 4.69V31H44v-.3h-.52c-.18 0-.24-.23-.25-.35v-5.33L46.87 31H47v-6.4c-.02-.23.15-.3.24-.32h.46V24H46v.28h.45c.25 0 .32.22.32.32v4.13L43.85 24h-1.52v.28h.43c.19 0 .23.13.24.2v5.87c0 .18-.12.36-.24.36zm8.07-6.46c1.02 0 1.43 1.36 1.43 2.12H52V24h-.17l-.02.05c-.09.29-.2.65-.36.5-.36-.35-.58-.55-1.05-.55-1.3 0-2.4 1.57-2.4 3.5s1.1 3.5 2.4 3.5c.47 0 .69-.2 1.05-.55.08-.07.34-.16.34.55H52v-2.58h-.21c-.15 1.3-.4 2.36-1.39 2.36-.98 0-1.4-2.2-1.4-3.28 0-1.33.54-3.25 1.4-3.25"/><defs><linearGradient id="a" x1="10.42" x2="68.15" y1="9.71" y2="76.02" gradientUnits="userSpaceOnUse"><stop stop-color="#1A1E21"/><stop offset="1" stop-color="#06060A"/></linearGradient></defs></svg>