<svg xmlns="http://www.w3.org/2000/svg" width="56" height="56"><path fill="#F0F3FA" d="M0 0h56v56H0z"/><path fill="#1D1934" d="M7.31 33 4 24h3.31l1.74 5.92L10.8 24H14l-3.44 9H7.3ZM15 24h3v9h-3zm6 2.5v2.91c0 1.2.86 3.59 4.2 3.59.75 0 1.51-.1 1.8-.16v-2.7c-.07.06-.38.2-1.07.2-.85 0-1.93-.52-1.93-1.25V26.5h2V24h-2v-3h-3v3h-2v2.5zM34 24h-6v9h3v-6.5h3zm1 5.16V24h3v5.19c0 .7.74 1.31 1.5 1.31.77 0 1.5-.61 1.5-1.31V24h3v5.16c0 2.12-1.88 3.84-4.2 3.84h-.6c-2.32 0-4.2-1.72-4.2-3.84"/><path fill="#F9C728" d="m44.88 21.9 2.45.92-.91-2.44 1.01-.38.82 2.2.83-2.2 1.01.38-.91 2.45 2.44-.91.38 1.01-2.2.82 2.2.83-.38 1.01-2.45-.91.91 2.44-1.01.38-.82-2.2-.83 2.2-1.01-.38.91-2.45-2.44.91-.38-1.01 2.2-.82-2.2-.83.38-1.01Zm3.37 2.48a.65.65 0 1 0 0-1.3.65.65 0 0 0 0 1.3"/></svg>