<svg xmlns="http://www.w3.org/2000/svg" width="56" height="56" fill="none"><path fill="#F0F3FA" d="M0 0h56v56H0z"/><path fill="#008843" fill-rule="evenodd" d="M32 23v10h3v-8.5s2-.273 2 1.5-1.5 2-1.5 2l2.5 5h3l-3-4.5s2-.479 2-2.5c0-2.057-1.989-3-3.25-3zm-1 0v1h-2.5s-.5 0-.5.731V26h3v1h-3v6h-3v-8.127S25.03 23 26.698 23zM4 33h1.5v-7l2.776 7 2.727-7v7H14v-8.685c0-.208-.337-1.315-1.784-1.315s-1.684.934-1.684.934L9 27.498l-1.498-3.495S7.266 22.965 5.65 23 4 24.315 4 24.315zm15.422-10c1.297 0 1.662 1.014 1.662 1.014L24 33h-3l-.747-2h-3.092l-.532 2H15l2.726-8.427S18.126 23 19.422 23M20 30h-2.48l1.204-4zm26.422-7c1.297 0 1.662 1.014 1.662 1.014L51.5 35h-3l-1.247-4h-3.092l-.532 2H42l2.726-8.427S45.126 23 46.422 23M47 30h-2.48l1.204-4z" clip-rule="evenodd"/><path fill="#6BBA91" d="M4 33h1.5v-2H4zm21-2h3v2h-3zm-11 0h-2.997v2H14zm-4.945 0H7.483l.793 2zm6.592 0h1.514l-.532 2H15zm4.606 0h3.098L24 33h-3zM32 31h3v2h-3zm5 0h2.667L41 33h-3zm5.647 0h1.514l-.532 2H42zm4.606 0 1.247 4h3l-1.244-4z"/></svg>