<svg xmlns="http://www.w3.org/2000/svg" width="56" height="56"><path fill="#ED1C24" d="M0 0h56v56H0z"/><path fill="#fff" d="M31.347 12.354a16 16 0 1 1-6.695 31.292l.66-3.084a12.847 12.847 0 0 0 5.375-25.124z"/><path fill="#fff" d="M41.802 31.09a14.143 14.143 0 0 1-27.603-6.18l1.279.287a12.833 12.833 0 0 0 25.045 5.606l1.279.286z"/><path fill="#fff" d="M17.247 25.755a10.986 10.986 0 0 1 21.507 4.49l-3.25-.678a7.666 7.666 0 1 0-15.009-3.134z"/><path fill="#fff" d="M26.813 33.743a5.864 5.864 0 1 1 2.374-11.485l-.639 3.09a2.708 2.708 0 0 0-1.096 5.305z"/><path fill="#fff" d="M24.836 23.063a5.864 5.864 0 0 1 6.328 9.874l-.711-1.11a4.546 4.546 0 0 0-4.906-7.655l-.71-1.109z"/><path fill="#fff" d="M30.16 17.23a10.986 10.986 0 1 1-4.32 21.541l.278-1.388a9.57 9.57 0 0 0 3.764-18.766z"/></svg>