<svg xmlns="http://www.w3.org/2000/svg" width="56" height="56"><path fill="#F0F3FA" d="M0 0h56v56H0z"/><mask id="a" width="10" height="8" x="4" y="24" maskUnits="userSpaceOnUse"><path fill="#fff" d="M4 24h9.19v8H4z"/></mask><g mask="url(#a)"><path fill="#4B2B6D" d="M12.25 24a.4.4 0 0 0-.37.27l-2.38 6.1L9.05 24h-.71a.4.4 0 0 0-.37.26L5.5 30.34 5.09 24h-.7a.4.4 0 0 0-.3.14.45.45 0 0 0-.1.34L4.68 32h.81c.16 0 .3-.1.37-.26l2.44-5.99.48 6.25h.8c.17 0 .31-.1.38-.26L13.19 24z"/></g><path fill="#4B2B6D" d="M16.41 28.51c0 1.27-.66 2.62-1.88 2.62-1.25 0-1.52-.9-1.52-1.64 0-1.27.67-2.62 1.9-2.62 1.24 0 1.5.9 1.5 1.64M14.9 26c-1.68 0-2.9 1.47-2.9 3.49 0 1.57.95 2.51 2.54 2.51 1.68 0 2.9-1.47 2.9-3.49 0-1.57-.96-2.51-2.55-2.51zm4.71-2a.4.4 0 0 0-.4.34L17.92 32h.67a.4.4 0 0 0 .4-.34l1.3-7.66h-.67zm6.69 4.53-.2-.07c-.56-.18-1.04-.33-1.04-.81 0-.46.47-.78 1.14-.78.73 0 1.47.38 1.68.5l.06.03.51-.72-.07-.04a4.6 4.6 0 0 0-2.21-.64c-1.25 0-2.13.7-2.13 1.71 0 1.1.99 1.43 1.64 1.64l.16.06c.66.21 1.18.38 1.18.89 0 .55-.6.83-1.2.83-.75 0-1.58-.44-1.9-.63l-.06-.03-.55.71.07.05a4.8 4.8 0 0 0 2.43.77c1.34 0 2.25-.71 2.25-1.78 0-1.01-.76-1.35-1.75-1.7zm6.67-.39c0 1.9-.87 2.93-1.7 2.93-.65 0-1.2-.44-1.55-.83l.43-2.5c.53-.43 1.12-.86 1.8-.86.84 0 1.02.69 1.02 1.26m-.8-2.14c-.59 0-1.2.24-1.84.73l.1-.61h-.67a.4.4 0 0 0-.4.33L28.07 34h.67a.4.4 0 0 0 .4-.34l.44-2.52c.34.31.97.81 1.87.81 1.51 0 2.57-1.6 2.57-3.9 0-1.9-1.4-2.05-1.83-2.05zm3.31 2.75c.26-1.15 1.05-1.92 1.99-1.92.6 0 1 .3 1 .74 0 .76-.87 1.18-2.45 1.18zm.47.73c2.33 0 3.52-.65 3.52-1.93 0-.93-.79-1.55-1.96-1.55-1.85 0-3.14 1.44-3.14 3.5 0 1.59.78 2.5 2.13 2.5a5.5 5.5 0 0 0 2.53-.82l.07-.04-.4-.77-.07.03-.15.09c-.48.26-1.2.65-1.86.65-1 0-1.22-.87-1.22-1.61v-.05zm4.91-.73c.26-1.15 1.05-1.92 1.98-1.92.61 0 1 .3 1 .74 0 .76-.87 1.18-2.45 1.18zm.46.73c2.34 0 3.53-.65 3.53-1.93 0-.93-.8-1.55-1.96-1.55-1.85 0-3.14 1.44-3.14 3.5 0 1.59.77 2.5 2.12 2.5a5.5 5.5 0 0 0 2.54-.82l.06-.04-.4-.77-.06.03-.15.09c-.48.26-1.2.65-1.86.65-1 0-1.22-.87-1.22-1.61v-.05zm8.01-1.71-.4 2.32c-.58.54-1.22 1.03-1.97 1.03-.77 0-.88-.8-.88-1.26 0-1.44.66-2.93 1.76-2.93.5 0 .98.27 1.5.84zm1-3.77a.4.4 0 0 0-.4.34l-.44 2.54a2.73 2.73 0 0 0-1.8-.83c-1.57 0-2.66 1.6-2.66 3.9 0 1 .45 2.05 1.7 2.05.84 0 1.58-.49 2.01-.86l-.12.86h.67c.2 0 .36-.26.4-.45L51 24h-.68zm-26.51 2.2h-1.46l.12-.7c.08-.4.24-.57.55-.57a4 4 0 0 1 .84.18l.06.01.4-.75-.08-.03a4.5 4.5 0 0 0-1.38-.34c-.8 0-1.22.44-1.4 1.47l-.12.73h-.74l-.14.8h.74l-.65 3.82-.2 1.18h.67a.4.4 0 0 0 .4-.34l.14-.82.65-3.84h1.46zm24.24-2.52-10.2-4.62c-.08-.04-.17.05-.13.14l1.48 2.98c.03.05-.02.12-.08.12l-13.76.47c-.04 0-.04.07 0 .07l16.07.76c.04 0 .07-.03.05-.07l-.78-1.72c-.03-.06.03-.13.1-.1l7.22 2.06c.06.01.09-.07.03-.1zm-6.23-3.2 2.87 1.3c.05.01.09-.05.04-.08L41.12 19c-.03-.02-.08.02-.06.06l.64 1.3c.03.05.08.1.13.12m4.85 4.14a.13.13 0 0 1-.07.01l-9.7-.51-3.67-.2c-.04 0-.03.07.01.07l4.2.5-.02-.01h.02l9.41.9a.1.1 0 0 0 .09-.04L48.08 24c.03-.04 0-.08-.05-.06z"/></svg>