<svg xmlns="http://www.w3.org/2000/svg" width="56" height="56"><path fill="url(#a)" d="M0 0h56v56H0z"/><path fill="#4DD17D" d="m43.97 22.189-2.014-7.617a.74.74 0 0 0-.522-.527l-7.612-2.02a.74.74 0 0 0-.712.194l-5.1 5.103 10.671 10.679 5.1-5.104a.73.73 0 0 0 .194-.712"/><path fill="#E7CF12" d="m12.046 33.82 2.019 7.612a.74.74 0 0 0 .522.523l7.612 2.02a.74.74 0 0 0 .712-.193l5.104-5.108L17.318 28l-5.104 5.107a.74.74 0 0 0-.19.713"/><path fill="#A0D637" d="m22.188 12.029-7.612 2.02a.74.74 0 0 0-.522.523l-2.02 7.612a.73.73 0 0 0 .195.713L17.31 28l10.67-10.674-5.1-5.107a.74.74 0 0 0-.712-.194"/><path fill="#FF7ED8" d="m43.71 33.036-5.029-5.032-10.67 10.679 5.027 5.035a.92.92 0 0 0 .885.237l7.418-1.966a.91.91 0 0 0 .649-.653l1.964-7.415a.92.92 0 0 0-.236-.885"/><path fill="#BE1B6B" d="M28.008 17.323 17.34 28l10.672 10.679L38.68 28.002 28.008 17.324z"/><defs><linearGradient id="a" x1="10.418" x2="68.147" y1="9.712" y2="76.017" gradientUnits="userSpaceOnUse"><stop stop-color="#1A1E21"/><stop offset="1" stop-color="#06060A"/></linearGradient></defs></svg>