<svg xmlns="http://www.w3.org/2000/svg" width="56" height="56"><path fill="#58BAAB" d="M0 0h56v56H0z"/><path fill="#F0F3FA" d="M12 25v.39c-.24.03-.47.1-.6.22-.12.11-.23.3-.31.56L9.45 31h-.37l-1.12-3.3L6.83 31h-.37l-1.67-4.96a2 2 0 0 0-.3-.54c-.09-.09-.3-.14-.49-.14V25h2v.39c-.4 0-.55.06-.55.21q0 .09.06.21l1.38 3.96.89-2.63-.38-1.1a2 2 0 0 0-.3-.54c-.08-.09-.21-.13-.4-.13V25h1.94v.37c-.4 0-.57.08-.57.23 0 .06.02.13.05.21l1.39 3.96 1.27-3.82a1 1 0 0 0 .02-.17.3.3 0 0 0-.15-.27 2.1 2.1 0 0 0-.65-.12V25zm25 0v.39c-.24.03-.47.1-.6.22-.12.11-.23.3-.31.56L34.45 31h-.37l-1.12-3.3-1.13 3.3h-.37l-1.67-4.96a2 2 0 0 0-.3-.54c-.09-.09-.3-.14-.49-.14V25h2v.39c-.4 0-.55.06-.55.21q0 .09.06.21l1.38 3.96.89-2.63-.38-1.1a2 2 0 0 0-.3-.54c-.08-.09-.21-.13-.4-.13V25h1.94v.37c-.4 0-.57.08-.57.23 0 .06.02.13.05.21l1.39 3.96 1.27-3.82a1 1 0 0 0 .02-.17.3.3 0 0 0-.15-.27 2.1 2.1 0 0 0-.65-.12V25zm-21.45.4h-.95c-.4.02-.6.06-.6.14v2.1c0 .05.03.08.1.08h1.33c.29 0 .34-.67.34-.94H16V29h-.28c0-.3 0-.8-.3-.8H14.1c-.06 0-.09.02-.09.07v1.76c0 .54.36.56.82.56h.82c.82 0 1.1-.29 1.1-1.18H17V31h-4.5v-.3c.26-.03.71-.07.74-.4v-4.6c0-.37-.5-.29-.74-.3V25H17v1.5h-.27c0-.69-.47-1.1-1.18-1.1m4.44 5.2c.59 0 1.24-.32 1.24-.99 0-.6-.6-.98-1.09-1.2-.84-.4-1.98-.84-1.98-1.94 0-1 .96-1.47 1.86-1.47.65 0 1.2.1 1.67.31l.03 1.42-.27-.01A1.4 1.4 0 0 0 20 25.38c-.52 0-1.06.27-1.06.85 0 .62.73.92 1.2 1.14.82.39 1.86.88 1.86 1.93 0 1.08-.95 1.7-1.94 1.7-.59 0-1.2-.11-1.83-.34L18 29.23l.4-.05q.345 1.41 1.59 1.41Zm6.4-5.17h-.65v4.88c0 .34.51.3.75.32V31h-2.26v-.37c.25-.02.77.04.77-.32v-4.88h-1c-.4 0-.4.46-.5 1.07H23V25h5v1.5h-.5c-.09-.72-.38-1.07-1.11-1.07M37.34 25h1.94v.37c-.24.03-.6 0-.6.33v4.6c0 .3.36.3.6.33V31h-1.94v-.37c.25-.03.66.01.66-.33v-4.6c0-.3-.43-.3-.66-.33zM46 25v.37c-.24.02-.51 0-.51.32V31H45l-3.8-4.91v4.22c0 .33.56.3.8.32V31h-2v-.37c.24-.02.7 0 .7-.32v-4.62c0-.3-.48-.3-.7-.32V25h1.46c0 .09.56.86 1.7 2.3.89 1.12 1.62 1.87 1.84 2.23v-3.84c0-.33-.27-.3-.5-.32V25zm3.13.38c-1.39 0-2.43 1.3-2.43 2.62 0 1.44 1 2.6 2.54 2.6.49 0 1.4-.11 1.4-.77v-.91c0-.63-.66-.56-1.14-.56V28H52v.36c-.44 0-.62.1-.62.56v1.54c-.64.36-1.42.54-2.25.54-1.78 0-3.13-1.17-3.13-3 0-1.82 1.48-3 3.24-3 .69 0 1.26 0 2 .3v1.2H51c-.14-.98-.96-1.12-1.87-1.12"/></svg>