<svg xmlns="http://www.w3.org/2000/svg" width="56" height="56"><path fill="#E61B27" d="M0 0h56v56H0z"/><path fill="#FCC60A" d="M33.934 20h-7.837v1.806h1.262c.936 0 1.17.363 1.17.709q-.053.436-.234.844l-3.367 8.658-2.89-8.886a4.5 4.5 0 0 1-.233-.844c0-.287.233-.498.785-.498h1.403v-1.772H16.08v1.789h.58c.343-.05.694.018.985.19.29.171.5.435.586.738l.468 1.131-3.208 8.33-3.33-8.93a2.1 2.1 0 0 1-.233-.843.65.65 0 0 1 .258-.443.8.8 0 0 1 .528-.156h1.14v-1.806H6v1.789h.374c.935 0 1.337.21 1.571.844L12.92 36h3.741l3.208-8.338L22.674 36h3.675l4.835-12.734a1.93 1.93 0 0 1 .85-1.124 2.3 2.3 0 0 1 1.46-.336h1.609c.785 0 1.253.346 1.253.92v10.21a1 1 0 0 1-.061.416 1.05 1.05 0 0 1-.233.363 1.2 1.2 0 0 1-.37.254c-.14.062-.293.098-.45.107a1 1 0 0 1-.233 0h-1.608V36h9.725v-1.772H41.79c-1.262 0-1.73-.346-1.73-1.215v-4.456h1.113c1.637 0 2.338.641 2.338 2.33v.497h1.87V24.11h-1.87v.363c0 1.265-.468 2.396-2.132 2.396h-1.225v-5.063h3.441c3.918 0 4.255 1.764 4.536 3.67H50V20z"/></svg>