<svg xmlns="http://www.w3.org/2000/svg" width="56" height="56" fill="none"><path fill="#0B385C" d="M0 0h56v56H0z"/><path fill="#F0F3FA" d="m17 24-2.5 8h-1l-2-6-2 6H8.396L6 24h1l2 6 2-6h1l2 6 2-6zm1.015.098 1-.098L19 26.323c.644-.225.887-.323 1.5-.323 1.104 0 1.5.45 1.5 2.193V32h-1v-3.708c0-1.04-.577-1.292-1.22-1.292-.4 0-.443.084-.78.169V32h-1v-7.902zM23 26h1v6h-1zm1-1.5c0-.263-.067-.5-.504-.5-.429 0-.505.237-.495.5 0 .263.076.5.495.5.409 0 .504-.237.504-.5m1.884 1.5.116.567h.087c.333-.298.942-.567 1.638-.567.087 0 .174 0 .275.015v1.298c-.232-.03-.478-.074-.724-.074-.348 0-.943.09-1.276.239V32h-1v-6zM29 32v-7.902L30 24v8zm10.535-6C41.32 26 42 27.083 42 29.015 42 30.829 41.363 32 39.507 32S37 30.815 37 29.015c.014-1.932.75-3.015 2.535-3.015M41 29.015C41 27.917 40.555 27 39.55 27c-1.02 0-1.55.888-1.55 2.015 0 1.053.487 1.985 1.493 1.985C40.498 31 41 30.112 41 29.015M45.535 26C47.32 26 48 27.083 48 29.015 48 30.829 47.363 32 45.507 32S43 30.815 43 29.015c.014-1.932.75-3.015 2.535-3.015M47 29.015C47 27.917 46.555 27 45.55 27c-1.02 0-1.55.888-1.55 2.015 0 1.053.487 1.985 1.493 1.985C46.498 31 47 30.112 47 29.015M49 32v-7.902L50 24v8zm-18-6h.672l.119.532c.403-.228 1.463-.532 2.12-.532 1.209 0 1.589.897 1.589 3.04 0 1.46-.425 2.46-1.977 2.46-.568 0-1.523-.122-1.523-.122v3.47L31 35zm2.313 4.5c.821 0 1.187-1 1.187-1.672 0-1.201-.306-1.828-1.172-1.828-.343 0-1.015.067-1.328.173V30.5z"/><path fill="#EDB700" d="M36.7 22.476c-.238-.312-.615-.466-1.102-.476-1.315-.026-3.318.998-5.598 2.775v.617c2.122-1.704 3.947-2.438 5.038-2.392.555.023.958.125.962.723.01 1.566-1.703 5.09-4.72 8.025-2.89 2.814-6.138 4.324-7.575 4.251-.732-.037-.692-.561-.705-1.229-.02-.974.249-2.253.558-2.77H23c-.713 1.194-.995 2.304-1 3.17-.005 1.006.362 1.803 1.358 1.829 1.768.046 5.328-1.436 8.468-4.5 3.192-3.113 5.113-6.76 5.174-8.823.015-.505-.084-.916-.3-1.2"/></svg>