<svg xmlns="http://www.w3.org/2000/svg" width="56" height="56" fill="none"><path fill="#F0F3FA" d="M0 0h56v56H0z"/><path fill="#383D6C" fill-rule="evenodd" d="M29 17s7 2.157 7 10.641S29 39 29 39l8 6 3-3-2-3.428.6-.858 3.9.858L44 34l-3-2v-1l4-.571V25.57L41 25v-1l3-2-1.5-4.463-3.738 1L38 17.69 40 14l-3-3z" clip-rule="evenodd"/><path fill="#02B056" fill-rule="evenodd" d="M29 37s3-3.223 3-7.89c0-4.668-2.282-7.354-10.781-11.45C18.474 16.35 18 14 18 14s-1.915 2.758-1.997 6.436c-.045 2.061.342 4.411 1.744 6.726C21.649 33.609 23.759 29.561 27 35c0 0 .01-.411 0-1.12 0-2.38-.697-7.334-6-11.88 0 0 8 2.778 8 15" clip-rule="evenodd"/><path fill="#02B056" fill-rule="evenodd" d="M17 29s-3.064-1.839-3-4.5c0 0-2.79.353-5-1.5 0 0 .182 6.916 6.694 11.554 5.06 3.604 6.694.303 11.306 4.446 0 0-.384-2.661-4.644-4.85C19.186 32.533 19 32 19 32s-4.342-1.059-7-5c.984.859 3.046 1.596 5 2" clip-rule="evenodd"/></svg>