<svg width="56" height="56" xmlns="http://www.w3.org/2000/svg" viewBox="0 0 56 56"><path fill="#f0f3fa" d="M0 0h56v56H0z"/><path fill="#96d600" d="M28.9 12c1.7 0 2.89.11 3.58.35a6.64 6.64 0 0 1 3.4 2.66 6.2 6.2 0 0 1 1 2.52c.47 2.93-.43 5.26-2.7 7a.1.1 0 0 0-.02.03.09.09 0 0 0 .04.12 6.78 6.78 0 0 1 2.62 4.3h-.03l-.02.02h-2.41a14 14 0 0 0-.92-1.62 3.62 3.62 0 0 0-2.48-1.52c-1.07-.03-1.77-.03-3.45-.05l-4.38.02a.12.12 0 0 0-.08.03c-.03.02-.05.05-.05.08l.01 2.92v.05l-.04.05a.15.15 0 0 1-.1.04H20.1a.1.1 0 0 1-.06-.03.1.1 0 0 1-.03-.06V12.1c0-.02 0-.04.02-.06A5975 5975 0 0 0 28.9 12m-5.78 2.42a.11.11 0 0 0-.09.04.12.12 0 0 0-.03.08l.02 8.78c0 .03 0 .06.03.08.02.02.05.04.08.04l7.14-.02a4.02 4.02 0 0 0 2.97-1.3A4.45 4.45 0 0 0 34.47 19v-.16c0-1.18-.45-2.3-1.24-3.13a4.1 4.1 0 0 0-2.97-1.29l-7.14.01Z"/><path fill="#8b8279" d="M37 31.1c-.55 2.86-2.1 4.72-4.65 5.6-.66.23-1.58.33-2.79.3-.47-.02-4.27-.02-9.38 0a.17.17 0 0 1-.13-.06.2.2 0 0 1-.05-.14v-5.65c0-.04.01-.08.04-.1a.14.14 0 0 1 .1-.05h2.73c.03 0 .06.01.09.04.02.02.04.06.04.1l-.01 3.15c0 .04.02.07.05.1.02.03.06.04.1.04l6.68.01c.77.02 1.4-.08 1.9-.3a4.48 4.48 0 0 0 2.56-3.03.16.16 0 0 1 .05-.08.14.14 0 0 1 .1-.03h2.49a.08.08 0 0 1 .06.03.09.09 0 0 1 .02.08Zm-.14 10.38H20.14a.14.14 0 0 0-.14.14v2.24c0 .08.06.14.14.14h16.72c.08 0 .14-.06.14-.14v-2.24a.14.14 0 0 0-.14-.14"/></svg>