<svg xmlns="http://www.w3.org/2000/svg" width="56" height="56" fill="none"><path fill="#00ADC2" d="M0 0h56v56H0z"/><path fill="#F0F3FA" fill-rule="evenodd" d="M14 32v-8h4s4 0 4 4.446C22 32.488 18 33 18 33h-3c-1 0-1-1-1-1m2-1v-5h2s2 0 2 2.527C20 31 18.172 31 18.172 31zm14-7v5.635S29.548 31 28 31s-2-1.285-2-1.285V24h-1.455s-.545.214-.545.641v5.368S24 33 27.957 33C31.971 33 32 29.635 32 29.635V24zM4 24h1.5s.62.027.997.649C6.874 25.27 8 27.5 8 27.5l1.422-2.986S9.72 24 10.5 24H12l-3 5.54v2.487S8.973 33 8.246 33H7v-3.46zm47.346 1.04S50.064 24 48.3 24s-3.3.908-3.3 2.5c0 2 1.807 2.39 3.855 3.066.81.267 1.145.358 1.145.653 0 .7-.916.802-1.33.802-.914 0-1.499-.665-2.38-.639-.29.01-.617.132-.863.537l-.427.572S46.252 33 48.471 33 52 31.803 52 30.347c0-1.457-1.11-2.706-3.802-3.063-.854-.156-1.206-.55-1.206-.784.028-.494.848-.497 1.206-.497.588 0 1.412.338 1.412.338s.154.09.39.091c.239.001.56-.089.89-.455.57-.754.456-.936.456-.936Z" clip-rule="evenodd"/><path fill="#242347" fill-rule="evenodd" d="M43 28.487C43 26.009 40.965 24 38.487 24c-2.504 0-4.513 2.009-4.487 4.487C34 30.991 36.01 33 38.487 33A4.514 4.514 0 0 0 43 28.487m-2 .013c0-1.368-1.105-2.5-2.5-2.5-1.394 0-2.526 1.132-2.5 2.5a2.499 2.499 0 1 0 5 0" clip-rule="evenodd"/><path fill="#242347" fill-rule="evenodd" d="m43 33.174-1.42.813s-.903.18-1.483-.783C39.484 32.21 38 29.772 38 29.772l1.323-.722s1-.271 1.516.451c.484.723 2.161 3.673 2.161 3.673" clip-rule="evenodd"/></svg>