<svg width="56" height="56" xmlns="http://www.w3.org/2000/svg" viewBox="0 0 56 56"><path fill="#f0f3fa" d="M0 0h56v56H0z"/><path fill="#221275" d="M11 30H9v9h5c4 0 5-4.27 5-6 0-1.38-.44-2.65-.67-3h-2c.34.7.67 1.62.67 3 0 2.5-1.89 4-3 4h-3z"/><path fill="#221179" d="M30 30h-2l3.12 9h2.76L37 30h-2l-2.5 7z"/><path fill="#231175" d="M39 27h-2v2h2zm0 3h-2v9h2z"/><path fill="#221275" d="M20 33h2.5c0-.5 0-1.5 1.5-1.5s1.5.5 1.5 1-.26 1-2 1-3.5.63-3.5 2.73c0 1.73 1.26 2.77 3 2.77 1.11 0 2.04-.65 2.5-1 0 0 .21.68.5 1h2c-.35-.35-.5-1.17-.5-2v-5c0-.7-.54-2-3.33-2C21.4 30 20 32 20 33m3.5 2c.5 0 1.7-.39 2-.5v1c0 1-.8 2-2 2S22 36.77 22 36s1-1 1.5-1M9 19v-2h9v2l-6.1 8h3.53c1.54 0 2.36 1.33 2.57 2H9v-2l6.1-8z"/><path fill="#217" d="M21 20h-2v9h2zm-2-1v-2h2v2z"/><path fill="#22117b" d="M24 20h-2v2h2v7h2v-7h3v7h2v-7h2v-2h-2v-.33c0-.54.33-.67 1-.67h1v-2h-2c-1.33 0-2 1.33-2 2v1h-3v-.33c0-.54 0-.67 1-.67h1v-2h-2c-1.33 0-2 1.33-2 2z"/><path fill="#221275" d="M43.61 39c-1.62 0-3.55-.95-3.61-3h2c.08.7.5 1.5 1.5 1.5s1.5-.37 1.5-1c0-.83-1.59-1.1-2.13-1.24C41.6 34.88 40 34.23 40 32.5c0-1.93 1.9-2.5 3.4-2.5 1.64 0 3.5.98 3.6 3h-2c-.04-.69-.5-1.5-1.5-1.5-.63 0-1.5 0-1.5 1 0 .8 1.64 1.03 2.16 1.2 1.22.38 2.84 1.11 2.84 2.8 0 1.92-1.9 2.5-3.39 2.5"/></svg>